//Generated with python s2ea
        #include "MPlayDef.event"

        #define    BGM16_grp voicegroup000
        #define    BGM16_pri 0
        #define    BGM16_rev 0
        #define    BGM16_key 0

        // .rodata
        // BGM16
        ALIGN 4

//****************** Track 0 (Midi-Chn.0) ******************//

BGM16_0:
        BYTE   KEYSH  BGM16_key+0
// 000   ----------------------------------------
        BYTE   TEMPO  152/2
        BYTE           VOICE  29
        BYTE           VOL    33
        BYTE           BEND   c_v-64
        BYTE           N92    Cs2  v100  gtp2
        BYTE                   Cs3
        BYTE           N92    Gn2  v100  gtp2
        BYTE                   Gn1
        BYTE   W01
        BYTE           PAN    c_v+2
        BYTE   W01
        BYTE                   c_v+4
        BYTE   W01
        BYTE                   c_v+6
        BYTE   W01
        BYTE                   c_v+7
        BYTE   W01
        BYTE                   c_v+9
        BYTE   W01
        BYTE                   c_v+11
        BYTE   W01
        BYTE                   c_v+13
        BYTE   W01
        BYTE                   c_v+15
        BYTE   W01
        BYTE                   c_v+17
        BYTE   W01
        BYTE                   c_v+19
        BYTE   W02
        BYTE                   c_v+21
        BYTE   W01
        BYTE                   c_v+22
        BYTE   W01
        BYTE                   c_v+24
        BYTE   W01
        BYTE                   c_v+26
        BYTE   W01
        BYTE                   c_v+27
        BYTE   W01
        BYTE                   c_v+29
        BYTE   W01
        BYTE                   c_v+31
        BYTE   W01
        BYTE                   c_v+33
        BYTE   W01
        BYTE                   c_v+35
        BYTE   W01
        BYTE                   c_v+37
        BYTE   W01
        BYTE                   c_v+39
        BYTE   W01
        BYTE                   c_v+41
        BYTE   W02
        BYTE                   c_v+42
        BYTE   W01
        BYTE                   c_v+44
        BYTE   W01
        BYTE                   c_v+46
        BYTE           MOD    9
        BYTE   W01
        BYTE           PAN    c_v+48
        BYTE   W01
        BYTE                   c_v+49
        BYTE   W01
        BYTE           MOD    19
        BYTE           PAN    c_v+51
        BYTE   W01
        BYTE                   c_v+53
        BYTE   W01
        BYTE                   c_v+55
        BYTE           MOD    29
        BYTE   W01
        BYTE           PAN    c_v+52
        BYTE   W01
        BYTE                   c_v+49
        BYTE   W01
        BYTE           MOD    39
        BYTE           PAN    c_v+46
        BYTE   W01
        BYTE                   c_v+43
        BYTE   W01
        BYTE           MOD    49
        BYTE           PAN    c_v+40
        BYTE   W02
        BYTE                   c_v+37
        BYTE   W01
        BYTE           MOD    59
        BYTE           PAN    c_v+33
        BYTE   W01
        BYTE                   c_v+31
        BYTE   W01
        BYTE                   c_v+27
        BYTE           MOD    68
        BYTE   W01
        BYTE           PAN    c_v+25
        BYTE   W01
        BYTE                   c_v+21
        BYTE           MOD    78
        BYTE   W01
        BYTE           PAN    c_v+18
        BYTE   W01
        BYTE                   c_v+15
        BYTE   W01
        BYTE           MOD    88
        BYTE           PAN    c_v+12
        BYTE   W01
        BYTE                   c_v+9
        BYTE   W01
        BYTE           MOD    98
        BYTE           PAN    c_v+6
        BYTE   W01
        BYTE                   c_v+3
        BYTE   W02
        BYTE                   c_v+0
        BYTE           MOD    108
        BYTE   W01
        BYTE           PAN    c_v-3
        BYTE   W01
        BYTE                   c_v-5
        BYTE   W01
        BYTE                   c_v-9
        BYTE   W01
        BYTE                   c_v-12
        BYTE   W01
        BYTE                   c_v-15
        BYTE   W01
        BYTE                   c_v-18
        BYTE   W01
        BYTE                   c_v-21
        BYTE   W01
        BYTE                   c_v-24
        BYTE   W01
        BYTE                   c_v-27
        BYTE   W01
        BYTE                   c_v-30
        BYTE   W01
        BYTE                   c_v-33
        BYTE   W01
        BYTE                   c_v-36
        BYTE   W02
        BYTE                   c_v-39
        BYTE   W01
        BYTE                   c_v-43
        BYTE   W01
        BYTE                   c_v-45
        BYTE   W01
        BYTE                   c_v-49
        BYTE   W01
        BYTE                   c_v-51
        BYTE   W01
        BYTE                   c_v-61
        BYTE   W01
        BYTE                   c_v-57
        BYTE   W01
        BYTE                   c_v-55
        BYTE           BEND   c_v-62
        BYTE   W01
        BYTE           PAN    c_v-52
        BYTE           BEND   c_v-56
        BYTE   W01
        BYTE           PAN    c_v-49
        BYTE           BEND   c_v-50
        BYTE   W01
        BYTE                   c_v-44
        BYTE           PAN    c_v-47
        BYTE   W01
        BYTE           BEND   c_v-38
        BYTE           PAN    c_v-43
        BYTE   W01
        BYTE           BEND   c_v-32
        BYTE   W01
        BYTE           PAN    c_v-41
        BYTE           MOD    107
        BYTE           BEND   c_v-26
        BYTE   W01
        BYTE           PAN    c_v-38
        BYTE           MOD    99
        BYTE           BEND   c_v-20
        BYTE   W01
        BYTE           PAN    c_v-35
        BYTE           BEND   c_v-14
        BYTE   W01
        BYTE           PAN    c_v-33
        BYTE           MOD    83
        BYTE           BEND   c_v-8
        BYTE   W01
        BYTE           PAN    c_v-30
        BYTE           BEND   c_v-2
        BYTE   W01
        BYTE           PAN    c_v-27
        BYTE           MOD    66
        BYTE           BEND   c_v+7
        BYTE   W01
        BYTE           PAN    c_v-24
        BYTE           BEND   c_v+13
        BYTE   W01
        BYTE           PAN    c_v-21
        BYTE           MOD    50
        BYTE           BEND   c_v+20
        BYTE   W01
        BYTE           PAN    c_v-19
        BYTE           BEND   c_v+25
        BYTE   W01
        BYTE           PAN    c_v-16
        BYTE           MOD    33
        BYTE           BEND   c_v+32
        BYTE   W01
        BYTE           PAN    c_v-13
        BYTE   W01
        BYTE                   c_v-10
        BYTE           MOD    17
        BYTE   W01
        BYTE           PAN    c_v-7
        BYTE   W02
        BYTE                   c_v-5
        BYTE   W01
        BYTE                   c_v-2
        BYTE   W01
        BYTE                   c_v+0
        BYTE           MOD    0
        BYTE           BEND   c_v+0
        BYTE   W01
// 001   ----------------------------------------
BGM16_0_LOOP:
        BYTE           N17    Cn3  v127
        BYTE   W18
        BYTE                   Ds3
        BYTE   W18
        BYTE           N11    Gn3
        BYTE   W12
        BYTE           N23    Fs3
        BYTE   W24
        BYTE                   Dn3
        BYTE   W24
// 002   ----------------------------------------
        BYTE           N17    Fn3
        BYTE   W18
        BYTE                   Gn3
        BYTE   W18
        BYTE           N05    Ds3
        BYTE   W06
        BYTE                   Dn3
        BYTE   W06
        BYTE           N32    Ds3  v127  gtp3
        BYTE   W12
        BYTE           MOD    40
        BYTE   W24
        BYTE                   0
        BYTE           N05    Dn3
        BYTE   W06
        BYTE                   Ds3
        BYTE   W06
// 003   ----------------------------------------
BGM16_0_3:
        BYTE           N17    Fn3  v127
        BYTE   W18
        BYTE                   Ds3
        BYTE   W18
        BYTE           N11    Dn3
        BYTE   W12
        BYTE                   Gn2
        BYTE   W12
        BYTE           N05    Ds3
        BYTE   W12
        BYTE                   Dn3
        BYTE   W12
        BYTE           N11    Bn2
        BYTE   W12
        BYTE   PEND
// 004   ----------------------------------------
        BYTE           N17    Cn3
        BYTE   W18
        BYTE                   Bn2
        BYTE   W18
        BYTE           N05    Cn3
        BYTE   W06
        BYTE                   Ds3
        BYTE   W06
        BYTE           N44    Gn3  v127  gtp3
        BYTE   W24
        BYTE           MOD    40
        BYTE   W24
// 005   ----------------------------------------
        BYTE                   0
        BYTE           N23    Fs3  v110
        BYTE   W24
        BYTE                   Ds3
        BYTE   W24
        BYTE                   Dn3
        BYTE   W24
        BYTE           N17    Cn3
        BYTE   W24
// 006   ----------------------------------------
        BYTE           N32    Cn3  v110  gtp3
        BYTE   W24
        BYTE           MOD    40
        BYTE   W12
        BYTE                   0
        BYTE           N05    Bn2
        BYTE   W06
        BYTE                   An2
        BYTE   W06
        BYTE           N44    Bn2  v110  gtp3
        BYTE   W24
        BYTE           MOD    40
        BYTE   W24
// 007   ----------------------------------------
        BYTE                   0
        BYTE           N17    Cn3  v127
        BYTE   W18
        BYTE                   Ds3
        BYTE   W18
        BYTE           N11    Gn3
        BYTE   W12
        BYTE           N23
        BYTE           BEND   c_v+2
        BYTE   W03
        BYTE                   c_v+11
        BYTE   W03
        BYTE                   c_v+18
        BYTE   W02
        BYTE                   c_v+24
        BYTE   W03
        BYTE                   c_v+31
        BYTE   W13
        BYTE                   c_v+0
        BYTE           N23    Fn3
        BYTE   W24
// 008   ----------------------------------------
        BYTE           N17
        BYTE           BEND   c_v-2
        BYTE   W04
        BYTE                   c_v+23
        BYTE   W02
        BYTE                   c_v+39
        BYTE   W03
        BYTE                   c_v+54
        BYTE   W09
        BYTE                   c_v+0
        BYTE           N17
        BYTE   W18
        BYTE           N05    Ds3
        BYTE   W12
        BYTE           N17    Dn3
        BYTE   W18
        BYTE                   Cn3
        BYTE   W18
        BYTE           N11    Bn2
        BYTE   W12
// 009   ----------------------------------------
        BYTE           N44    Cn3  v127  gtp3
        BYTE   W48
        BYTE           N23    Bn2  v110
        BYTE   W24
        BYTE                   Bn2
        BYTE   W24
// 010   ----------------------------------------
        BYTE           N17    An2
        BYTE   W18
        BYTE                   Fn3
        BYTE   W18
        BYTE           N05    Ds3
        BYTE   W12
        BYTE                   Bn2
        BYTE   W06
        BYTE                   An2
        BYTE   W06
        BYTE           N32    Bn2  v110  gtp3
        BYTE   W36
// 011   ----------------------------------------
        BYTE           N17    Cn3  v127
        BYTE   W18
        BYTE                   Ds3
        BYTE   W18
        BYTE           N11    Gn3
        BYTE   W12
        BYTE           N23
        BYTE           BEND   c_v+2
        BYTE   W03
        BYTE                   c_v+11
        BYTE   W03
        BYTE                   c_v+18
        BYTE   W02
        BYTE                   c_v+24
        BYTE   W03
        BYTE                   c_v+31
        BYTE   W13
        BYTE                   c_v+0
        BYTE           N23    Fn3
        BYTE   W24
// 012   ----------------------------------------
        BYTE           N17
        BYTE           BEND   c_v-2
        BYTE   W04
        BYTE                   c_v+23
        BYTE   W02
        BYTE                   c_v+39
        BYTE   W03
        BYTE                   c_v+54
        BYTE   W09
        BYTE                   c_v+0
        BYTE           N17
        BYTE   W18
        BYTE           N05    Ds3
        BYTE   W12
        BYTE           N17    Fn3
        BYTE   W18
        BYTE                   Gs3
        BYTE   W18
        BYTE           N11    Bn3
        BYTE   W12
// 013   ----------------------------------------
        BYTE           TIE
        BYTE   W02
        BYTE           BEND   c_v+3
        BYTE   W04
        BYTE                   c_v+13
        BYTE   W03
        BYTE                   c_v+23
        BYTE   W03
        BYTE                   c_v+32
        BYTE   W24
        BYTE           MOD    20
        BYTE   W60
// 014   ----------------------------------------
        BYTE   W24
        BYTE                   40
        BYTE   W48
        BYTE                   60
        BYTE   W06
        BYTE           BEND   c_v+34
        BYTE   W03
        BYTE                   c_v+16
        BYTE   W03
        BYTE                   c_v-3
        BYTE   W03
        BYTE                   c_v-22
        BYTE   W03
        BYTE                   c_v-40
        BYTE   W03
        BYTE                   c_v-58
        BYTE   W01
        BYTE           EOT
        BYTE   W01
        BYTE           MOD    0
        BYTE           BEND   c_v+0
        BYTE   W01
// 015   ----------------------------------------
        BYTE   GoTo
         POIN2  BGM16_0_LOOP
        BYTE   FINE

//****************** Track 1 (Midi-Chn.1) ******************//

BGM16_1:
        BYTE   KEYSH  BGM16_key+0
// 000   ----------------------------------------
        BYTE           VOICE  48
        BYTE           VOL    32
        BYTE           PAN    c_v-30
        BYTE           N06    Dn3  v127
        BYTE   W06
        BYTE                   Bn2
        BYTE   W06
        BYTE                   Fn3
        BYTE   W06
        BYTE                   Dn3
        BYTE   W06
        BYTE                   Gs3
        BYTE   W06
        BYTE                   Fn3
        BYTE   W06
        BYTE                   Bn3
        BYTE   W06
        BYTE                   Gs3
        BYTE   W06
        BYTE                   Dn4
        BYTE   W06
        BYTE                   Bn3
        BYTE   W06
        BYTE                   Fn4
        BYTE   W06
        BYTE                   Dn4
        BYTE   W06
        BYTE                   Gs4
        BYTE   W06
        BYTE                   Fn4
        BYTE   W06
        BYTE                   Bn4
        BYTE   W06
        BYTE                   Gs4
        BYTE   W06
// 001   ----------------------------------------
BGM16_1_LOOP:
        BYTE           N17    Cn3  v127
        BYTE   W18
        BYTE                   Ds3
        BYTE   W18
        BYTE           N11    Gn3
        BYTE   W12
        BYTE           N23    Fs3
        BYTE   W24
        BYTE                   Dn3
        BYTE   W24
// 002   ----------------------------------------
        BYTE           N17    Fn3
        BYTE   W18
        BYTE                   Gn3
        BYTE   W18
        BYTE           N05    Ds3
        BYTE   W06
        BYTE                   Dn3
        BYTE   W06
        BYTE           N32    Ds3  v127  gtp3
        BYTE   W36
        BYTE           N05    Dn3
        BYTE   W06
        BYTE                   Ds3
        BYTE   W06
// 003   ----------------------------------------
        BYTE   PATT
         POIN2  BGM16_0_3
// 004   ----------------------------------------
        BYTE           N17    Cn3  v127
        BYTE   W18
        BYTE                   Bn2
        BYTE   W18
        BYTE           N05    Cn3
        BYTE   W06
        BYTE                   Ds3
        BYTE   W06
        BYTE           N23    Gn3
        BYTE   W24
        BYTE                   Gn4
        BYTE   W24
// 005   ----------------------------------------
        BYTE                   Fs4
        BYTE   W24
        BYTE                   Ds4
        BYTE   W24
        BYTE                   Dn4
        BYTE   W24
        BYTE           N21    Cn4
        BYTE   W24
// 006   ----------------------------------------
        BYTE           N32    Cn4  v127  gtp3
        BYTE   W36
        BYTE           N05    Dn4
        BYTE   W06
        BYTE                   Cn4
        BYTE   W06
        BYTE           N23    Bn3
        BYTE   W24
        BYTE           N05    Cn4
        BYTE   W06
        BYTE                   Dn4
        BYTE   W06
        BYTE                   Ds4
        BYTE   W06
        BYTE                   Fn4
        BYTE   W06
// 007   ----------------------------------------
        BYTE                   Gn4  v114
        BYTE   W06
        BYTE                   Cn4  v113
        BYTE   W06
        BYTE                   Ds4  v112
        BYTE   W06
        BYTE                   Cn4  v111
        BYTE   W06
        BYTE                   Gn4
        BYTE   W06
        BYTE                   Cn4  v110
        BYTE   W06
        BYTE                   Ds4  v109
        BYTE   W06
        BYTE                   Cn4  v108
        BYTE   W06
        BYTE                   Gs4  v107
        BYTE   W06
        BYTE                   Cn4
        BYTE   W06
        BYTE                   Ds4  v106
        BYTE   W06
        BYTE                   Cn4  v105
        BYTE   W06
        BYTE                   Gs4  v104
        BYTE   W06
        BYTE                   Cn4  v103
        BYTE   W06
        BYTE                   Ds4
        BYTE   W06
        BYTE                   Cn4  v102
        BYTE   W06
// 008   ----------------------------------------
        BYTE                   An4  v101
        BYTE   W06
        BYTE                   Cn4  v100
        BYTE   W06
        BYTE                   Ds4
        BYTE   W06
        BYTE                   Cn4  v099
        BYTE   W06
        BYTE                   An4  v098
        BYTE   W06
        BYTE                   Cn4  v097
        BYTE   W06
        BYTE                   Ds4  v096
        BYTE   W06
        BYTE                   Cn4
        BYTE   W06
        BYTE                   Gs4  v095
        BYTE   W06
        BYTE                   Cn4  v094
        BYTE   W06
        BYTE                   Ds4  v093
        BYTE   W06
        BYTE                   Cn4  v092
        BYTE   W06
        BYTE                   Gs4  v091
        BYTE   W06
        BYTE                   Cn4
        BYTE   W06
        BYTE                   Ds4  v090
        BYTE   W06
        BYTE                   Cn4  v089
        BYTE   W06
// 009   ----------------------------------------
        BYTE                   Gn4  v088
        BYTE   W06
        BYTE                   Cn4
        BYTE   W06
        BYTE                   Ds4  v089
        BYTE   W06
        BYTE                   Cn4
        BYTE   W06
        BYTE                   Gn4
        BYTE   W06
        BYTE                   Cn4  v090
        BYTE   W06
        BYTE                   Ds4
        BYTE   W06
        BYTE                   Cn4  v091
        BYTE   W06
        BYTE                   Gn4
        BYTE   W06
        BYTE                   Bn3
        BYTE   W06
        BYTE                   Dn4
        BYTE   W06
        BYTE                   Bn3  v092
        BYTE   W06
        BYTE                   Gn4
        BYTE   W06
        BYTE                   Bn3  v093
        BYTE   W06
        BYTE                   Dn4
        BYTE   W06
        BYTE                   Gn4
        BYTE   W06
// 010   ----------------------------------------
        BYTE                   An4  v094
        BYTE   W06
        BYTE                   Dn4
        BYTE   W06
        BYTE                   Fs4
        BYTE   W06
        BYTE                   Dn4
        BYTE   W06
        BYTE                   An4  v095
        BYTE   W06
        BYTE                   Dn4
        BYTE   W06
        BYTE                   Fs4  v096
        BYTE   W06
        BYTE                   Dn4  v098
        BYTE   W06
        BYTE                   Gs4  v101
        BYTE   W06
        BYTE                   Fn4  v105
        BYTE   W06
        BYTE                   Dn4  v108
        BYTE   W06
        BYTE                   Bn3  v112
        BYTE   W06
        BYTE                   Dn4  v115
        BYTE   W06
        BYTE                   Fn4  v119
        BYTE   W06
        BYTE                   Gs4  v122
        BYTE   W06
        BYTE                   Bn4  v126
        BYTE   W06
// 011   ----------------------------------------
        BYTE                   Cn5  v112
        BYTE           N05    Gn4
        BYTE   W06
        BYTE                   Cn4
        BYTE   W06
        BYTE                   Ds4  v110
        BYTE   W06
        BYTE                   Cn4  v109
        BYTE   W06
        BYTE                   Cn5  v107
        BYTE           N05    Gn4
        BYTE   W06
        BYTE                   Cn4  v105
        BYTE   W06
        BYTE                   Ds4  v103
        BYTE   W06
        BYTE                   Cn4  v101
        BYTE   W06
        BYTE                   Cn5  v099
        BYTE           N05    Gs4
        BYTE   W06
        BYTE                   Cn4  v097
        BYTE   W06
        BYTE                   Ds4  v095
        BYTE   W06
        BYTE                   Cn4  v094
        BYTE   W06
        BYTE                   Cn5
        BYTE           N05    Gs4
        BYTE   W06
        BYTE                   Cn4  v093
        BYTE   W06
        BYTE                   Ds4
        BYTE   W06
        BYTE                   Cn4  v092
        BYTE   W06
// 012   ----------------------------------------
        BYTE                   Cn5
        BYTE           N05    An4
        BYTE   W06
        BYTE                   Cn4  v091
        BYTE   W06
        BYTE                   Ds4
        BYTE   W06
        BYTE                   Cn4
        BYTE   W06
        BYTE                   Cn5  v090
        BYTE           N05    An4
        BYTE   W06
        BYTE                   Cn4
        BYTE   W06
        BYTE                   Ds4  v089
        BYTE   W06
        BYTE                   Cn4
        BYTE   W06
        BYTE                   Cn5
        BYTE           N05    Gs4
        BYTE   W06
        BYTE                   Cn4  v088
        BYTE   W06
        BYTE                   Ds4
        BYTE   W06
        BYTE                   Cn4  v087
        BYTE   W06
        BYTE                   Cn5
        BYTE           N05    Gs4
        BYTE   W06
        BYTE                   Cn4  v086
        BYTE   W06
        BYTE                   Ds4
        BYTE   W06
        BYTE                   Cn4  v085
        BYTE   W06
// 013   ----------------------------------------
        BYTE                   Cn5
        BYTE           N05    Gn4
        BYTE   W06
        BYTE                   Cn4  v086
        BYTE   W06
        BYTE                   Ds4
        BYTE   W06
        BYTE                   Cn4  v087
        BYTE   W06
        BYTE                   Cn5
        BYTE           N05    Gn4
        BYTE   W06
        BYTE                   Cn4
        BYTE   W06
        BYTE                   Ds4  v088
        BYTE   W06
        BYTE                   Cn4
        BYTE   W06
        BYTE                   Cn5  v089
        BYTE           N05    Gs4
        BYTE   W06
        BYTE                   Cn4
        BYTE   W06
        BYTE                   Ds4
        BYTE   W06
        BYTE                   Cn4  v090
        BYTE   W06
        BYTE                   Cn5
        BYTE           N05    Gs4
        BYTE   W06
        BYTE                   Cn4  v091
        BYTE   W06
        BYTE                   Ds4
        BYTE   W06
        BYTE                   Cn4
        BYTE   W06
// 014   ----------------------------------------
        BYTE                   Cn5  v092
        BYTE           N05    An4
        BYTE   W06
        BYTE                   Cn4  v093
        BYTE   W06
        BYTE                   Ds4
        BYTE   W06
        BYTE                   Cn4
        BYTE   W06
        BYTE                   Cn5  v094
        BYTE           N05    An4
        BYTE   W06
        BYTE                   Cn4
        BYTE   W06
        BYTE                   Ds4
        BYTE   W06
        BYTE                   Cn4  v096
        BYTE   W06
        BYTE                   Bn4  v099
        BYTE   W06
        BYTE                   Fn3  v103
        BYTE   W06
        BYTE                   Gs3  v106
        BYTE   W06
        BYTE                   Bn3  v110
        BYTE   W06
        BYTE                   Dn4  v113
        BYTE   W06
        BYTE                   Fn4  v117
        BYTE   W06
        BYTE                   Gs4  v121
        BYTE   W06
        BYTE                   Bn4  v124
        BYTE   W06
// 015   ----------------------------------------
        BYTE   GoTo
         POIN2  BGM16_1_LOOP
        BYTE   FINE

//****************** Track 2 (Midi-Chn.2) ******************//

BGM16_2:
        BYTE   KEYSH  BGM16_key+0
// 000   ----------------------------------------
        BYTE           VOICE  34
        BYTE           VOL    35
        BYTE           BEND   c_v+63
        BYTE           N92    An0  v127  gtp2
        BYTE   W68
        BYTE   W01
        BYTE           BEND   c_v+61
        BYTE   W03
        BYTE                   c_v+46
        BYTE   W02
        BYTE                   c_v+32
        BYTE   W02
        BYTE                   c_v+17
        BYTE   W03
        BYTE                   c_v+3
        BYTE   W02
        BYTE                   c_v-13
        BYTE   W03
        BYTE                   c_v-27
        BYTE   W02
        BYTE                   c_v-42
        BYTE   W02
        BYTE                   c_v-57
        BYTE   W04
        BYTE                   c_v-64
        BYTE   W03
        BYTE                   c_v+0
        BYTE   W01
// 001   ----------------------------------------
BGM16_2_LOOP:
        BYTE           N05    Cn1  v127
        BYTE   W12
        BYTE                   Cn1
        BYTE   W12
        BYTE           N10
        BYTE   W12
        BYTE           N04
        BYTE   W06
        BYTE           N11    Dn1
        BYTE   W12
        BYTE           N04    An0
        BYTE   W06
        BYTE           N11    Dn1
        BYTE   W12
        BYTE           N04
        BYTE   W06
        BYTE                   An0
        BYTE   W06
        BYTE           N05    Dn1
        BYTE   W06
        BYTE                   Ds1
        BYTE   W06
// 002   ----------------------------------------
        BYTE                   Fn1
        BYTE   W12
        BYTE           N11
        BYTE   W12
        BYTE                   Fn1
        BYTE   W12
        BYTE           N04    Gn1
        BYTE   W06
        BYTE           N10    Ds1
        BYTE   W12
        BYTE           N04
        BYTE   W06
        BYTE           N10
        BYTE   W12
        BYTE           N04
        BYTE   W06
        BYTE                   Dn1
        BYTE   W06
        BYTE           N05    Cn1
        BYTE   W06
        BYTE                   Ds1
        BYTE   W06
// 003   ----------------------------------------
        BYTE                   Dn1
        BYTE   W12
        BYTE           N11
        BYTE   W12
        BYTE           N05
        BYTE   W06
        BYTE                   Cn1
        BYTE   W06
        BYTE                   An0
        BYTE   W06
        BYTE           N10    Gn0
        BYTE   W12
        BYTE           N04
        BYTE   W06
        BYTE           N10
        BYTE   W12
        BYTE           N11    Bn0
        BYTE   W12
        BYTE           N10    Dn1
        BYTE   W12
// 004   ----------------------------------------
        BYTE           N05    Cn1
        BYTE   W12
        BYTE           N04
        BYTE   W06
        BYTE           N10    Cn2
        BYTE   W12
        BYTE           N04    Cn1
        BYTE   W06
        BYTE           N10
        BYTE   W12
        BYTE                   Cn1
        BYTE   W12
        BYTE           N04
        BYTE   W06
        BYTE           N10    Gn1
        BYTE   W12
        BYTE           N04    Cn1
        BYTE   W06
        BYTE                   Cn1
        BYTE   W06
        BYTE                   Cs1
        BYTE   W06
// 005   ----------------------------------------
        BYTE           N05    Dn1
        BYTE   W12
        BYTE           N11
        BYTE   W12
        BYTE           N05
        BYTE   W06
        BYTE           N04    Cn1
        BYTE   W06
        BYTE           N05    Dn1
        BYTE   W06
        BYTE           N10
        BYTE   W12
        BYTE           N05    Cn1
        BYTE   W06
        BYTE           N04    Dn1
        BYTE   W06
        BYTE           N10
        BYTE   W12
        BYTE           N04
        BYTE   W06
        BYTE                   Fn1
        BYTE   W06
        BYTE                   Fs1
        BYTE   W06
// 006   ----------------------------------------
        BYTE           N10    Gn1
        BYTE   W12
        BYTE           N04
        BYTE   W06
        BYTE           N10
        BYTE   W12
        BYTE           N04    Dn1
        BYTE   W06
        BYTE                   Fn1
        BYTE   W06
        BYTE                   Fs1
        BYTE   W06
        BYTE           N10    Gn1
        BYTE   W12
        BYTE           N04    Fn1
        BYTE   W06
        BYTE           N10    Ds1
        BYTE   W12
        BYTE           N04    Dn1
        BYTE   W06
        BYTE                   Cn1
        BYTE   W06
        BYTE                   As0
        BYTE   W06
// 007   ----------------------------------------
BGM16_2_7:
        BYTE           N04    Cn1  v127
        BYTE   W06
        BYTE                   Gn0
        BYTE   W12
        BYTE           N10    Cn1
        BYTE   W12
        BYTE           N04    Gn0
        BYTE   W06
        BYTE                   As0
        BYTE   W06
        BYTE                   Bn0
        BYTE   W06
        BYTE                   Cn1
        BYTE   W06
        BYTE                   Gn0
        BYTE   W12
        BYTE           N10    Cn1
        BYTE   W12
        BYTE           N04    Gn0
        BYTE   W06
        BYTE                   As0
        BYTE   W06
        BYTE                   Bn0
        BYTE   W06
        BYTE   PEND
// 008   ----------------------------------------
        BYTE                   Cn1
        BYTE   W06
        BYTE           N05    Gn0
        BYTE   W12
        BYTE           N11    Cn1
        BYTE   W12
        BYTE           N05    Gn0
        BYTE   W06
        BYTE                   As0
        BYTE   W06
        BYTE                   Bn0
        BYTE   W06
        BYTE                   Cn1
        BYTE   W06
        BYTE                   Gn0
        BYTE   W12
        BYTE           N11    Cn1
        BYTE   W12
        BYTE           N05    Gn0
        BYTE   W06
        BYTE                   As0
        BYTE   W06
        BYTE                   Bn0
        BYTE   W06
// 009   ----------------------------------------
        BYTE                   Cn1
        BYTE   W06
        BYTE                   Gn0
        BYTE   W12
        BYTE           N11    Cn1
        BYTE   W12
        BYTE           N05    Gn0
        BYTE   W06
        BYTE                   Bn0
        BYTE   W06
        BYTE                   As0
        BYTE   W06
        BYTE                   Gn0
        BYTE   W06
        BYTE           N04
        BYTE   W12
        BYTE           N10    Dn1
        BYTE   W12
        BYTE           N04    Gn0
        BYTE   W06
        BYTE                   Bn0
        BYTE   W06
        BYTE                   Cn1
        BYTE   W06
// 010   ----------------------------------------
        BYTE                   Dn1
        BYTE   W06
        BYTE                   An0
        BYTE   W12
        BYTE           N10    Dn1
        BYTE   W12
        BYTE           N04    An0
        BYTE   W06
        BYTE                   Fs0
        BYTE   W06
        BYTE                   As0
        BYTE   W06
        BYTE                   Bn0
        BYTE   W06
        BYTE                   Fs0
        BYTE   W12
        BYTE           N10    Bn0
        BYTE   W12
        BYTE           N04    Fn1
        BYTE   W06
        BYTE                   Gs1
        BYTE   W06
        BYTE                   Bn1
        BYTE   W06
// 011   ----------------------------------------
        BYTE                   Cn2
        BYTE   W06
        BYTE                   Gn1
        BYTE   W12
        BYTE           N10    Ds1
        BYTE   W12
        BYTE           N04    Dn1
        BYTE   W06
        BYTE                   Cn1
        BYTE   W06
        BYTE                   Bn0
        BYTE   W06
        BYTE                   Cn1
        BYTE   W06
        BYTE                   Gn0
        BYTE   W12
        BYTE           N10    Cn1
        BYTE   W12
        BYTE           N04    Gn0
        BYTE   W06
        BYTE                   As0
        BYTE   W06
        BYTE                   Bn0
        BYTE   W06
// 012   ----------------------------------------
        BYTE   PATT
         POIN2  BGM16_2_7
// 013   ----------------------------------------
        BYTE           N04    Cn1  v127
        BYTE   W06
        BYTE                   Cn1
        BYTE   W12
        BYTE           N10    Ds1
        BYTE   W12
        BYTE           N04    Fn1
        BYTE   W06
        BYTE                   Gs1
        BYTE   W06
        BYTE                   Bn1
        BYTE   W06
        BYTE                   Cn2
        BYTE   W06
        BYTE                   Gs1
        BYTE   W12
        BYTE           N10    Fn1
        BYTE   W12
        BYTE           N04    Ds1
        BYTE   W06
        BYTE                   Dn1
        BYTE   W06
        BYTE                   Bn0
        BYTE   W06
// 014   ----------------------------------------
        BYTE                   Cn1
        BYTE   W06
        BYTE                   Gn0
        BYTE   W12
        BYTE           N10    Cn1
        BYTE   W12
        BYTE           N04    Gn0
        BYTE   W06
        BYTE                   As0
        BYTE   W06
        BYTE                   Cn1
        BYTE   W06
        BYTE                   Bn0
        BYTE   W06
        BYTE                   Gs0
        BYTE   W12
        BYTE           N10    Dn1
        BYTE   W12
        BYTE           N04    Fn1
        BYTE   W06
        BYTE                   Gs1
        BYTE   W06
        BYTE                   Bn1
        BYTE   W06
// 015   ----------------------------------------
        BYTE   GoTo
         POIN2  BGM16_2_LOOP
        BYTE   FINE

//****************** Track 3 (Midi-Chn.3) ******************//

BGM16_3:
        BYTE   KEYSH  BGM16_key+0
// 000   ----------------------------------------
        BYTE           VOICE  29
        BYTE           PAN    c_v+30
        BYTE           VOL    24
        BYTE           N04    Gs1  v053
        BYTE   W06
        BYTE                   Fn1  v057
        BYTE   W06
        BYTE                   Bn1  v061
        BYTE   W06
        BYTE                   Gs1  v064
        BYTE   W06
        BYTE                   Dn2  v069
        BYTE   W06
        BYTE                   Bn1  v073
        BYTE   W06
        BYTE                   Fn2  v076
        BYTE   W06
        BYTE                   Dn2  v081
        BYTE   W06
        BYTE                   Gs2  v085
        BYTE   W06
        BYTE                   Fn2  v088
        BYTE   W06
        BYTE                   Bn2  v093
        BYTE   W06
        BYTE                   Gs2  v096
        BYTE   W06
        BYTE                   Dn3  v100
        BYTE   W06
        BYTE                   Bn2  v105
        BYTE   W06
        BYTE                   Fn3  v108
        BYTE   W06
        BYTE                   Dn3  v112
        BYTE   W06
// 001   ----------------------------------------
BGM16_3_LOOP:
        BYTE           N09    Gn2  v105
        BYTE           N09    Cn2
        BYTE   W12
        BYTE           N01
        BYTE   W06
        BYTE           N11    Cn2  v089
        BYTE           N11    Gn2
        BYTE   W12
        BYTE           N01    Cn2  v105
        BYTE   W06
        BYTE           N09    Gn2
        BYTE           N09    Cn2
        BYTE   W12
        BYTE                   An2
        BYTE           N09    Dn2
        BYTE   W12
        BYTE           N01
        BYTE   W06
        BYTE           N02
        BYTE   W06
        BYTE           N01
        BYTE   W06
        BYTE                   Dn2
        BYTE   W06
        BYTE           N09    An2
        BYTE           N09    Dn2
        BYTE   W12
// 002   ----------------------------------------
        BYTE                   Cn3
        BYTE           N09    Fn2
        BYTE   W12
        BYTE           N01
        BYTE   W06
        BYTE           N11    Fn2  v089
        BYTE           N11    Cn3
        BYTE   W12
        BYTE           N01    Fn2  v105
        BYTE   W06
        BYTE           N09    Cn3
        BYTE           N09    Fn2
        BYTE   W12
        BYTE                   As2
        BYTE           N09    Ds2
        BYTE   W12
        BYTE           N01
        BYTE   W06
        BYTE           N02
        BYTE   W06
        BYTE           N01
        BYTE   W06
        BYTE                   Ds2
        BYTE   W06
        BYTE           N09    As2
        BYTE           N09    Ds2
        BYTE   W12
// 003   ----------------------------------------
        BYTE                   An2
        BYTE           N09    Dn2
        BYTE   W12
        BYTE           N01
        BYTE   W06
        BYTE           N11    Dn2  v089
        BYTE           N11    An2
        BYTE   W12
        BYTE           N01    Dn2  v105
        BYTE   W06
        BYTE           N09    An2
        BYTE           N09    Dn2
        BYTE   W12
        BYTE                   Dn2
        BYTE           N09    Gn1
        BYTE   W12
        BYTE           N05    Ds2
        BYTE   W06
        BYTE                   Gn1
        BYTE   W06
        BYTE                   Dn2
        BYTE   W06
        BYTE                   Gn1
        BYTE   W06
        BYTE           N11    Bn1
        BYTE   W12
// 004   ----------------------------------------
        BYTE           N09    Gn2
        BYTE           N09    Cn2
        BYTE   W12
        BYTE           N01
        BYTE   W06
        BYTE           N11    Cn2  v089
        BYTE           N11    Gn2
        BYTE   W12
        BYTE           N01    Cn2  v105
        BYTE   W06
        BYTE           N09    Gn2
        BYTE           N09    Cn2
        BYTE   W12
        BYTE                   Gn2
        BYTE           N09    Cn2
        BYTE   W12
        BYTE           N01
        BYTE   W06
        BYTE           N02
        BYTE   W06
        BYTE           N01
        BYTE   W06
        BYTE                   Cn2
        BYTE   W06
        BYTE           N09    Gn2
        BYTE           N09    Cn2
        BYTE   W12
// 005   ----------------------------------------
        BYTE                   An2
        BYTE           N09    Dn2
        BYTE   W12
        BYTE           N01
        BYTE   W06
        BYTE           N02
        BYTE   W06
        BYTE           N01
        BYTE   W06
        BYTE                   Dn2
        BYTE   W06
        BYTE           N09    An2
        BYTE           N09    Dn2
        BYTE   W12
        BYTE                   An2
        BYTE           N09    Dn2
        BYTE   W12
        BYTE           N01
        BYTE   W06
        BYTE           N02
        BYTE   W06
        BYTE           N01
        BYTE   W06
        BYTE                   Dn2
        BYTE   W06
        BYTE           N09    An2
        BYTE           N09    Dn2
        BYTE   W12
// 006   ----------------------------------------
        BYTE                   Dn2
        BYTE           N09    Gn2
        BYTE   W12
        BYTE           N01    Dn2
        BYTE   W06
        BYTE           N02
        BYTE   W06
        BYTE           N01
        BYTE   W06
        BYTE                   Dn2
        BYTE   W06
        BYTE           N09
        BYTE           N09    Gn2
        BYTE   W12
        BYTE                   Dn2
        BYTE           N09    Gn2
        BYTE   W12
        BYTE           N01    Dn2
        BYTE   W06
        BYTE           N02
        BYTE   W06
        BYTE           N05    Cn2
        BYTE   W06
        BYTE                   Dn2
        BYTE   W06
        BYTE                   Ds2
        BYTE   W06
        BYTE                   Fn2
        BYTE   W06
// 007   ----------------------------------------
        BYTE           N17    Gn2
        BYTE   W18
        BYTE                   Ds2
        BYTE   W18
        BYTE           N11    Gn2
        BYTE   W12
        BYTE           N23
        BYTE           BEND   c_v+2
        BYTE   W03
        BYTE                   c_v+11
        BYTE   W03
        BYTE                   c_v+18
        BYTE   W02
        BYTE                   c_v+24
        BYTE   W03
        BYTE                   c_v+31
        BYTE   W13
        BYTE                   c_v+0
        BYTE           N23    Fn2
        BYTE   W24
// 008   ----------------------------------------
        BYTE           N17
        BYTE           BEND   c_v-2
        BYTE   W04
        BYTE                   c_v+23
        BYTE   W02
        BYTE                   c_v+39
        BYTE   W03
        BYTE                   c_v+54
        BYTE   W09
        BYTE                   c_v+0
        BYTE           N17
        BYTE   W18
        BYTE           N05    Ds2
        BYTE   W12
        BYTE           N17    Dn2
        BYTE   W18
        BYTE                   Cn2
        BYTE   W18
        BYTE           N11    Bn1
        BYTE   W12
// 009   ----------------------------------------
        BYTE           N09    Gn2
        BYTE           N09    Cn2
        BYTE   W12
        BYTE           N01
        BYTE   W06
        BYTE           N02
        BYTE   W06
        BYTE           N01
        BYTE   W06
        BYTE                   Cn2
        BYTE   W06
        BYTE           N09    Gn2
        BYTE           N09    Cn2
        BYTE   W12
        BYTE                   Dn2
        BYTE           N09    Gn1
        BYTE   W12
        BYTE           N01
        BYTE   W06
        BYTE           N02
        BYTE   W06
        BYTE           N01
        BYTE   W06
        BYTE                   Gn1
        BYTE   W06
        BYTE           N09    Dn2
        BYTE           N09    Gn1
        BYTE   W12
// 010   ----------------------------------------
        BYTE                   Dn2
        BYTE           N09    An2
        BYTE   W12
        BYTE           N01    Dn2
        BYTE   W06
        BYTE           N02
        BYTE   W06
        BYTE           N01
        BYTE   W06
        BYTE                   Dn2
        BYTE   W06
        BYTE           N09
        BYTE           N09    An2
        BYTE   W12
        BYTE                   Fn2
        BYTE           N09    Bn2
        BYTE   W12
        BYTE           N01    Dn2
        BYTE   W06
        BYTE           N02
        BYTE   W06
        BYTE           N01
        BYTE   W06
        BYTE                   Dn2
        BYTE   W06
        BYTE           N09    Fn2
        BYTE           N09    Bn2
        BYTE   W12
// 011   ----------------------------------------
        BYTE           N17    Cn2
        BYTE   W18
        BYTE                   Ds2
        BYTE   W18
        BYTE           N11    Gn2
        BYTE   W12
        BYTE           N23    Gs2
        BYTE   W24
        BYTE                   Fn2
        BYTE   W24
// 012   ----------------------------------------
        BYTE           N17    Gn2
        BYTE   W18
        BYTE                   Fn2
        BYTE   W18
        BYTE           N05    Ds2
        BYTE   W12
        BYTE           N17    Dn2
        BYTE   W18
        BYTE                   Cn2
        BYTE   W18
        BYTE           N11    Bn1
        BYTE   W12
// 013   ----------------------------------------
        BYTE           N09    Gn2
        BYTE           N09    Cn2
        BYTE   W12
        BYTE           N01
        BYTE   W06
        BYTE           N02
        BYTE   W06
        BYTE           N01
        BYTE   W06
        BYTE                   Cn2
        BYTE   W06
        BYTE           N09    Gn2
        BYTE           N09    Cn2
        BYTE   W12
        BYTE                   Gs2
        BYTE           N09    Cn2
        BYTE   W12
        BYTE           N01
        BYTE   W06
        BYTE           N02
        BYTE   W06
        BYTE           N01
        BYTE   W06
        BYTE                   Cn2
        BYTE   W06
        BYTE           N09    Gs2
        BYTE           N09    Cn2
        BYTE   W12
// 014   ----------------------------------------
        BYTE                   An2
        BYTE           N09    Cn3
        BYTE   W12
        BYTE           N01    Cn2
        BYTE   W06
        BYTE           N02
        BYTE   W06
        BYTE           N01
        BYTE   W06
        BYTE                   Cn2
        BYTE   W06
        BYTE           N09    An2
        BYTE           N09    Cn3
        BYTE   W12
        BYTE           N05    Bn2
        BYTE           N05    Fn2
        BYTE   W06
        BYTE                   Bn1
        BYTE   W06
        BYTE                   Dn2
        BYTE   W06
        BYTE                   Fn2
        BYTE   W06
        BYTE                   Gs2
        BYTE   W06
        BYTE                   Bn2
        BYTE   W06
        BYTE                   Dn3
        BYTE   W06
        BYTE                   Fn3
        BYTE   W06
// 015   ----------------------------------------
        BYTE   GoTo
         POIN2  BGM16_3_LOOP
        BYTE   FINE

//****************** Track 4 (Midi-Chn.4) ******************//

BGM16_4:
        BYTE   KEYSH  BGM16_key+0
// 000   ----------------------------------------
        BYTE           VOICE  55
        BYTE           PAN    c_v+10
        BYTE           VOL    27
        BYTE           N17    Bn2  v117
        BYTE           N17    Bn3
        BYTE   W18
        BYTE                   Bn2  v082
        BYTE           N17    Bn3
        BYTE   W18
        BYTE                   Bn2  v055
        BYTE           N17    Bn3
        BYTE   W18
        BYTE                   Dn3  v096
        BYTE           N17    Dn4
        BYTE   W18
        BYTE           N18    Dn3  v113
        BYTE           N18    Dn4
        BYTE   W23
        BYTE           VOICE  19
        BYTE   W01
// 001   ----------------------------------------
BGM16_4_LOOP:
        BYTE           N44    Gn3  v090  gtp3
        BYTE                   Ds3
        BYTE   W48
        BYTE                   An3
        BYTE           N44    Fs3  v090  gtp3
        BYTE   W48
// 002   ----------------------------------------
        BYTE                   Cn4
        BYTE           N44    Gs3  v090  gtp3
        BYTE   W48
        BYTE                   As3
        BYTE           N44    Gn3  v090  gtp3
        BYTE   W48
// 003   ----------------------------------------
        BYTE                   An3
        BYTE           N44    Fn3  v090  gtp3
        BYTE   W48
        BYTE                   Bn3
        BYTE           N44    Dn3  v090  gtp3
        BYTE   W48
// 004   ----------------------------------------
        BYTE                   Gn3
        BYTE           N44    Ds4  v090  gtp3
        BYTE   W48
        BYTE                   Ds4
        BYTE           N44    Cn4  v090  gtp3
        BYTE   W48
// 005   ----------------------------------------
        BYTE           N23    Dn4  v105
        BYTE           N23    An3
        BYTE   W24
        BYTE                   Cn4
        BYTE           N23    Gn3
        BYTE   W24
        BYTE                   Bn3
        BYTE           N23    Fs3
        BYTE   W24
        BYTE           N21    An3
        BYTE           N21    Fn3
        BYTE   W24
// 006   ----------------------------------------
        BYTE           N44    Gn3  v105  gtp3
        BYTE                   Ds3
        BYTE   W48
        BYTE           N23    Dn3
        BYTE           N23    Gn3
        BYTE   W24
        BYTE           N05    Cn2  v117
        BYTE           N05    Cn3
        BYTE   W06
        BYTE                   Dn2
        BYTE           N05    Dn3
        BYTE   W06
        BYTE                   Ds2
        BYTE           N05    Ds3
        BYTE   W06
        BYTE                   Fn2
        BYTE           N05    Fn3
        BYTE   W06
// 007   ----------------------------------------
BGM16_4_7:
        BYTE           N44    Gn2  v117  gtp3
        BYTE           N05    Gn3  v127
        BYTE   W06
        BYTE                   Cn3
        BYTE   W06
        BYTE                   Ds3
        BYTE   W06
        BYTE                   Cn3
        BYTE   W06
        BYTE                   Gn3
        BYTE   W06
        BYTE                   Cn3
        BYTE   W06
        BYTE                   Ds3
        BYTE   W06
        BYTE                   Cn3
        BYTE   W06
        BYTE           N44    Gs2  v117  gtp3
        BYTE           N05    Gs3  v127
        BYTE   W06
        BYTE                   Cn3
        BYTE   W06
        BYTE                   Ds3
        BYTE   W06
        BYTE                   Cn3
        BYTE   W06
        BYTE                   Gs3
        BYTE   W06
        BYTE                   Cn3
        BYTE   W06
        BYTE                   Ds3
        BYTE   W06
        BYTE                   Cn3
        BYTE   W06
        BYTE   PEND
// 008   ----------------------------------------
BGM16_4_8:
        BYTE           N44    An2  v117  gtp3
        BYTE           N05    An3  v127
        BYTE   W06
        BYTE                   Cn3
        BYTE   W06
        BYTE                   Ds3
        BYTE   W06
        BYTE                   Cn3
        BYTE   W06
        BYTE                   An3
        BYTE   W06
        BYTE                   Cn3
        BYTE   W06
        BYTE                   Ds3
        BYTE   W06
        BYTE                   Cn3
        BYTE   W06
        BYTE           N44    Gs2  v117  gtp3
        BYTE           N05    Gs3  v127
        BYTE   W06
        BYTE                   Cn3
        BYTE   W06
        BYTE                   Ds3
        BYTE   W06
        BYTE                   Cn3
        BYTE   W06
        BYTE                   Gs3
        BYTE   W06
        BYTE                   Cn3
        BYTE   W06
        BYTE                   Ds3
        BYTE   W06
        BYTE                   Cn3
        BYTE   W06
        BYTE   PEND
// 009   ----------------------------------------
        BYTE           N44    Gn2  v117  gtp3
        BYTE           N05    Gn3  v127
        BYTE   W06
        BYTE                   Cn3
        BYTE   W06
        BYTE                   Ds3
        BYTE   W06
        BYTE                   Cn3
        BYTE   W06
        BYTE                   Gn3
        BYTE   W06
        BYTE                   Cn3
        BYTE   W06
        BYTE                   Ds3
        BYTE   W06
        BYTE                   Cn3
        BYTE   W06
        BYTE           N44    Gn2  v117  gtp3
        BYTE           N05    Gn3  v127
        BYTE   W06
        BYTE                   Bn2
        BYTE   W06
        BYTE                   Dn3
        BYTE   W06
        BYTE                   Bn2
        BYTE   W06
        BYTE                   Gn3
        BYTE   W06
        BYTE                   Bn2
        BYTE   W06
        BYTE                   Dn3
        BYTE   W06
        BYTE                   Bn2
        BYTE   W06
// 010   ----------------------------------------
        BYTE           N44    An2  v117  gtp3
        BYTE           N05    An3  v127
        BYTE   W06
        BYTE                   Dn3
        BYTE   W06
        BYTE                   Fs3
        BYTE   W06
        BYTE                   Dn3
        BYTE   W06
        BYTE                   An3
        BYTE   W06
        BYTE                   Dn3
        BYTE   W06
        BYTE                   Fs3
        BYTE   W06
        BYTE                   Dn3
        BYTE   W06
        BYTE           N28    Bn2  v117  gtp1
        BYTE           N05    Bn3  v127
        BYTE   W06
        BYTE                   Dn4
        BYTE   W06
        BYTE                   Bn3
        BYTE   W06
        BYTE                   Gs3
        BYTE   W06
        BYTE                   Fn3
        BYTE   W06
        BYTE                   Dn3
        BYTE   W06
        BYTE                   Bn2
        BYTE   W06
        BYTE                   Gs2
        BYTE   W06
// 011   ----------------------------------------
        BYTE   PATT
         POIN2  BGM16_4_7
// 012   ----------------------------------------
        BYTE   PATT
         POIN2  BGM16_4_8
// 013   ----------------------------------------
        BYTE   PATT
         POIN2  BGM16_4_7
// 014   ----------------------------------------
        BYTE           N44    An2  v117  gtp3
        BYTE           N05    An3  v127
        BYTE   W06
        BYTE                   Cn3
        BYTE   W06
        BYTE                   Ds3
        BYTE   W06
        BYTE                   Cn3
        BYTE   W06
        BYTE                   An3
        BYTE   W06
        BYTE                   Cn3
        BYTE   W06
        BYTE                   Ds3
        BYTE   W06
        BYTE                   Cn3
        BYTE   W06
        BYTE                   Bn3
        BYTE   W06
        BYTE                   Bn2
        BYTE   W06
        BYTE                   Dn3
        BYTE   W06
        BYTE                   Fn3
        BYTE   W06
        BYTE                   Gs3
        BYTE   W06
        BYTE                   Bn3
        BYTE   W06
        BYTE                   Dn4
        BYTE   W06
        BYTE                   Fn4
        BYTE   W06
// 015   ----------------------------------------
        BYTE   GoTo
         POIN2  BGM16_4_LOOP
        BYTE   FINE

//****************** Track 5 (Midi-Chn.5) ******************//

BGM16_5:
        BYTE   KEYSH  BGM16_key+0
// 000   ----------------------------------------
        BYTE           VOICE  6
        BYTE           PAN    c_v-20
        BYTE           VOL    24
        BYTE           N05    Gs2  v115
        BYTE   W06
        BYTE                   Fn2
        BYTE   W06
        BYTE                   Bn2
        BYTE   W06
        BYTE                   Gs2
        BYTE   W06
        BYTE                   Dn3
        BYTE   W06
        BYTE                   Bn2
        BYTE   W06
        BYTE                   Fn3
        BYTE   W06
        BYTE                   Dn3
        BYTE   W06
        BYTE                   Gs3
        BYTE   W06
        BYTE                   Fn3
        BYTE   W06
        BYTE                   Bn3
        BYTE   W06
        BYTE                   Gs3
        BYTE   W06
        BYTE                   Dn4
        BYTE   W06
        BYTE                   Bn3
        BYTE   W06
        BYTE                   Fn4
        BYTE   W06
        BYTE                   Dn4
        BYTE   W06
// 001   ----------------------------------------
BGM16_5_LOOP:
        BYTE           N05    Gn3  v090
        BYTE   W06
        BYTE                   Gn2
        BYTE   W06
        BYTE                   Cn3
        BYTE   W06
        BYTE                   Ds3
        BYTE   W06
        BYTE                   Gn3
        BYTE   W06
        BYTE                   Gn2
        BYTE   W06
        BYTE                   Cn3
        BYTE   W06
        BYTE                   Ds3
        BYTE   W06
        BYTE                   An3
        BYTE   W06
        BYTE                   An2
        BYTE   W06
        BYTE                   Dn3
        BYTE   W06
        BYTE                   Fs3
        BYTE   W06
        BYTE                   An3
        BYTE   W06
        BYTE                   An2
        BYTE   W06
        BYTE                   Dn3
        BYTE   W06
        BYTE                   Fs3
        BYTE   W06
// 002   ----------------------------------------
        BYTE                   Gs3
        BYTE   W06
        BYTE                   Gs2
        BYTE   W06
        BYTE                   Cn3
        BYTE   W06
        BYTE                   Fn3
        BYTE   W06
        BYTE                   Gs3
        BYTE   W06
        BYTE                   Gs2
        BYTE   W06
        BYTE                   Cn3
        BYTE   W06
        BYTE                   Fn3
        BYTE   W06
        BYTE                   Gn3
        BYTE   W06
        BYTE                   Gn2
        BYTE   W06
        BYTE                   As2
        BYTE   W06
        BYTE                   Ds3
        BYTE   W06
        BYTE                   Gn3
        BYTE   W06
        BYTE                   Gn2
        BYTE   W06
        BYTE                   As2
        BYTE   W06
        BYTE                   Ds3
        BYTE   W06
// 003   ----------------------------------------
        BYTE                   Fn3
        BYTE   W06
        BYTE                   Fn2
        BYTE   W06
        BYTE                   An2
        BYTE   W06
        BYTE                   Dn3
        BYTE   W06
        BYTE                   Fn3
        BYTE   W06
        BYTE                   Fn2
        BYTE   W06
        BYTE                   An2
        BYTE   W06
        BYTE                   Dn3
        BYTE   W06
        BYTE                   Gn3
        BYTE   W06
        BYTE                   Gn2
        BYTE   W06
        BYTE                   Bn2
        BYTE   W06
        BYTE                   Dn3
        BYTE   W06
        BYTE                   Gn3
        BYTE   W06
        BYTE                   Gn2
        BYTE   W06
        BYTE                   Bn2
        BYTE   W06
        BYTE                   Dn3
        BYTE   W06
// 004   ----------------------------------------
        BYTE                   Gn3
        BYTE   W06
        BYTE                   Cn3
        BYTE   W06
        BYTE                   Ds3
        BYTE   W06
        BYTE                   Gn3
        BYTE   W06
        BYTE                   Cn4
        BYTE   W06
        BYTE                   Cn3
        BYTE   W06
        BYTE                   Ds3
        BYTE   W06
        BYTE                   Gn3
        BYTE   W06
        BYTE                   Ds4
        BYTE   W06
        BYTE                   Ds3
        BYTE   W06
        BYTE                   Gn3
        BYTE   W06
        BYTE                   Cn4
        BYTE   W06
        BYTE                   Gn4
        BYTE   W06
        BYTE                   Cn4
        BYTE   W06
        BYTE                   Ds4
        BYTE   W06
        BYTE                   Gn4
        BYTE   W06
// 005   ----------------------------------------
        BYTE                   Fs4
        BYTE   W06
        BYTE                   Dn4
        BYTE   W06
        BYTE                   An3
        BYTE   W06
        BYTE                   Fs3
        BYTE   W06
        BYTE                   Dn3
        BYTE   W06
        BYTE                   An2
        BYTE   W06
        BYTE                   Dn4
        BYTE   W06
        BYTE                   An3
        BYTE   W06
        BYTE                   Fs3
        BYTE   W06
        BYTE                   Dn3
        BYTE   W06
        BYTE                   An2
        BYTE   W06
        BYTE                   Fs2
        BYTE   W06
        BYTE                   An2
        BYTE   W06
        BYTE                   Dn3
        BYTE   W06
        BYTE                   Fs3
        BYTE   W06
        BYTE                   An3
        BYTE   W06
// 006   ----------------------------------------
        BYTE                   Bn3
        BYTE   W06
        BYTE                   Gn3
        BYTE   W06
        BYTE                   Ds3
        BYTE   W06
        BYTE                   Bn3
        BYTE   W06
        BYTE                   Gn3
        BYTE   W06
        BYTE                   Ds3
        BYTE   W06
        BYTE                   Bn3
        BYTE   W06
        BYTE                   Gn3
        BYTE   W06
        BYTE                   Dn3
        BYTE   W06
        BYTE                   Bn3
        BYTE   W06
        BYTE                   Gn3
        BYTE   W06
        BYTE                   Dn4
        BYTE   W06
        BYTE                   Gn3
        BYTE   W06
        BYTE                   Bn3
        BYTE   W06
        BYTE                   Cn4
        BYTE   W06
        BYTE                   Dn4
        BYTE   W06
// 007   ----------------------------------------
BGM16_5_7:
        BYTE           N05    Ds4  v090
        BYTE   W06
        BYTE                   Gn3
        BYTE   W06
        BYTE                   Cn4
        BYTE   W06
        BYTE                   Gn3
        BYTE   W06
        BYTE                   Ds4
        BYTE   W06
        BYTE                   Gn3
        BYTE   W06
        BYTE                   Cn4
        BYTE   W06
        BYTE                   Gn3
        BYTE   W06
        BYTE                   Ds4
        BYTE   W06
        BYTE                   Gs3
        BYTE   W06
        BYTE                   Cn4
        BYTE   W06
        BYTE                   Gs3
        BYTE   W06
        BYTE                   Ds4
        BYTE   W06
        BYTE                   Gs3
        BYTE   W06
        BYTE                   Cn4
        BYTE   W06
        BYTE                   Gs3
        BYTE   W06
        BYTE   PEND
// 008   ----------------------------------------
BGM16_5_8:
        BYTE           N05    Ds4  v090
        BYTE   W06
        BYTE                   An3
        BYTE   W06
        BYTE                   Cn4
        BYTE   W06
        BYTE                   An3
        BYTE   W06
        BYTE                   Ds4
        BYTE   W06
        BYTE                   An3
        BYTE   W06
        BYTE                   Cn4
        BYTE   W06
        BYTE                   An3
        BYTE   W06
        BYTE                   Ds4
        BYTE   W06
        BYTE                   Gs3
        BYTE   W06
        BYTE                   Cn4
        BYTE   W06
        BYTE                   Gs3
        BYTE   W06
        BYTE                   Ds4
        BYTE   W06
        BYTE                   Gs3
        BYTE   W06
        BYTE                   Cn4
        BYTE   W06
        BYTE                   Gs3
        BYTE   W06
        BYTE   PEND
// 009   ----------------------------------------
        BYTE           N17    Gn2  v127
        BYTE           N17    Gn3
        BYTE   W18
        BYTE                   Cn3
        BYTE           N17    Cn4
        BYTE   W18
        BYTE           N11    Ds3
        BYTE           N11    Ds4
        BYTE   W12
        BYTE           N23    Dn3
        BYTE           N23    Dn4
        BYTE   W24
        BYTE                   Gn2
        BYTE           N23    Gn3
        BYTE   W24
// 010   ----------------------------------------
        BYTE           N17    Fs2
        BYTE           N17    Fs3
        BYTE   W18
        BYTE                   Dn3
        BYTE           N17    Dn4
        BYTE   W18
        BYTE           N11    Cn4
        BYTE           N11    Cn3
        BYTE   W12
        BYTE           N05    Bn2
        BYTE           N05    Bn3
        BYTE   W06
        BYTE                   An2
        BYTE           N05    An3
        BYTE   W06
        BYTE           N32    Bn2  v127  gtp3
        BYTE                   Bn3
        BYTE   W36
// 011   ----------------------------------------
        BYTE   PATT
         POIN2  BGM16_5_7
// 012   ----------------------------------------
        BYTE   PATT
         POIN2  BGM16_5_8
// 013   ----------------------------------------
        BYTE           N17    Gn2  v127
        BYTE           N17    Gn3
        BYTE   W18
        BYTE                   Cn3
        BYTE           N17    Cn4
        BYTE   W18
        BYTE           N11    Ds3
        BYTE           N11    Ds4
        BYTE   W12
        BYTE           N23    Dn4
        BYTE           N23    Dn3
        BYTE   W24
        BYTE                   Gs3
        BYTE           N23    Gs2
        BYTE   W24
// 014   ----------------------------------------
        BYTE           N17    An3
        BYTE           N17    An2
        BYTE   W18
        BYTE                   Cn4
        BYTE           N17    Cn3
        BYTE   W18
        BYTE           N11    Ds4
        BYTE           N11    Ds3
        BYTE   W12
        BYTE           N05    Dn3  v115
        BYTE           N05    Dn4
        BYTE   W05
        BYTE           PAN    c_v-17
        BYTE   W01
        BYTE           N05    Fn2
        BYTE           N05    Fn3
        BYTE   W02
        BYTE           PAN    c_v-7
        BYTE   W02
        BYTE                   c_v+1
        BYTE   W02
        BYTE           N05    Gs2
        BYTE           N05    Gs3
        BYTE           PAN    c_v+10
        BYTE   W03
        BYTE                   c_v+19
        BYTE   W02
        BYTE                   c_v+29
        BYTE   W01
        BYTE           N05    Bn2
        BYTE           N05    Bn3
        BYTE   W02
        BYTE           PAN    c_v+38
        BYTE   W02
        BYTE                   c_v+47
        BYTE   W02
        BYTE           N05    Dn3
        BYTE           N05    Dn4
        BYTE           PAN    c_v+56
        BYTE   W01
        BYTE                   c_v+59
        BYTE   W01
        BYTE                   c_v+58
        BYTE   W01
        BYTE                   c_v+54
        BYTE   W02
        BYTE                   c_v+45
        BYTE   W01
        BYTE           N05    Fn3
        BYTE           N05    Fn4
        BYTE   W02
        BYTE           PAN    c_v+36
        BYTE   W02
        BYTE                   c_v+27
        BYTE   W02
        BYTE           N05    Gs3
        BYTE           N05    Gs4
        BYTE           PAN    c_v+18
        BYTE   W03
        BYTE                   c_v+9
        BYTE   W02
        BYTE                   c_v-1
        BYTE   W01
        BYTE           N05    Bn3
        BYTE           N05    Bn4
        BYTE   W02
        BYTE           PAN    c_v-9
        BYTE   W02
        BYTE                   c_v-20
        BYTE   W02
// 015   ----------------------------------------
        BYTE   GoTo
         POIN2  BGM16_5_LOOP
        BYTE   FINE

//****************** Track 6 (Midi-Chn.6) ******************//

BGM16_6:
        BYTE   KEYSH  BGM16_key+0
// 000   ----------------------------------------
        BYTE           VOICE  1
        BYTE           VOL    30
        BYTE   W96
// 001   ----------------------------------------
BGM16_6_LOOP:
        BYTE   W96
// 002   ----------------------------------------
        BYTE   W96
// 003   ----------------------------------------
        BYTE   W96
// 004   ----------------------------------------
        BYTE   W96
// 005   ----------------------------------------
        BYTE   W96
// 006   ----------------------------------------
        BYTE           VOICE  55
        BYTE   W48
        BYTE           N02    AsM1  v084
        BYTE   W02
        BYTE                   Cn0  v085
        BYTE   W02
        BYTE                   Dn0  v086
        BYTE   W02
        BYTE                   En0  v087
        BYTE   W02
        BYTE                   Fs0  v088
        BYTE   W02
        BYTE                   Gs0  v089
        BYTE   W02
        BYTE                   As0  v090
        BYTE   W02
        BYTE                   Cn1  v092
        BYTE   W02
        BYTE                   Dn1  v093
        BYTE   W02
        BYTE                   En1  v095
        BYTE   W02
        BYTE                   Fs1
        BYTE   W02
        BYTE                   Gs1  v097
        BYTE   W02
        BYTE                   As1  v098
        BYTE   W02
        BYTE                   Cn2  v099
        BYTE   W02
        BYTE                   Dn2  v101
        BYTE   W02
        BYTE                   En2  v102
        BYTE   W02
        BYTE                   Fs2  v103
        BYTE   W02
        BYTE                   Gs2  v104
        BYTE   W02
        BYTE                   As2  v105
        BYTE   W02
        BYTE                   Cn3  v106
        BYTE   W02
        BYTE                   Dn3  v107
        BYTE   W02
        BYTE                   En3  v110
        BYTE   W02
        BYTE                   Fs3
        BYTE   W02
        BYTE                   Gs3  v112
        BYTE   W01
        BYTE           VOICE  81
        BYTE           PAN    c_v+63
        BYTE   W01
// 007   ----------------------------------------
        BYTE           N01    Cs1  v113
        BYTE   W01
        BYTE           N02    En1
        BYTE   W02
        BYTE           N01    Gn1  v117
        BYTE   W01
        BYTE           N02    As1
        BYTE   W15
        BYTE           PAN    c_v+26
        BYTE   W01
        BYTE           N01    En1
        BYTE   W01
        BYTE           N02    Gn1
        BYTE   W02
        BYTE           N01    As1
        BYTE   W01
        BYTE           N02    Cs2
        BYTE   W15
        BYTE           PAN    c_v-26
        BYTE   W01
        BYTE           N01    As0
        BYTE   W01
        BYTE           N02    Cs1
        BYTE   W02
        BYTE           N01    En1
        BYTE   W01
        BYTE           N02    Gn1
        BYTE   W15
        BYTE           PAN    c_v-64
        BYTE   W01
        BYTE           N01    En0
        BYTE   W01
        BYTE           N02    Gn0
        BYTE   W02
        BYTE           N01    As0
        BYTE   W01
        BYTE           N02    Cs1
        BYTE   W16
        BYTE           N01    Cs0
        BYTE   W01
        BYTE           N02    En0
        BYTE   W02
        BYTE           N01    Gn0
        BYTE   W01
        BYTE           N02    As0
        BYTE   W12
// 008   ----------------------------------------
BGM16_6_8:
        BYTE   W92
        BYTE   W03
        BYTE           VOICE  0
        BYTE           PAN    c_v+0
        BYTE   W01
        BYTE   PEND
// 009   ----------------------------------------
        BYTE           N17    Gn2  v117
        BYTE           N17    Gn3
        BYTE   W18
        BYTE                   Cn3
        BYTE           N17    Cn4
        BYTE   W18
        BYTE           N11    Ds3
        BYTE           N11    Ds4
        BYTE   W12
        BYTE           N23    Dn3
        BYTE           N23    Dn4
        BYTE   W24
        BYTE                   Gn2
        BYTE           N23    Gn3
        BYTE   W24
// 010   ----------------------------------------
        BYTE           N17    Fs2
        BYTE           N17    Fs3
        BYTE   W18
        BYTE                   Dn3
        BYTE           N17    Dn4
        BYTE   W18
        BYTE           N11    Cn3
        BYTE           N11    Cn4
        BYTE   W12
        BYTE           N05    Bn2
        BYTE           N05    Bn3
        BYTE   W06
        BYTE                   An2
        BYTE           N05    An3
        BYTE   W06
        BYTE           N32    Bn2  v117  gtp2
        BYTE                   Bn3
        BYTE   W32
        BYTE   W03
        BYTE           VOICE  81
        BYTE           PAN    c_v+63
        BYTE   W01
// 011   ----------------------------------------
        BYTE           N01    Dn1
        BYTE   W01
        BYTE           N02    Fn1
        BYTE   W02
        BYTE           N01    Gs1
        BYTE   W01
        BYTE           N02    Bn1
        BYTE   W15
        BYTE           PAN    c_v+26
        BYTE   W01
        BYTE           N01    Fn1
        BYTE   W01
        BYTE           N02    Gs1
        BYTE   W02
        BYTE           N01    Bn1
        BYTE   W01
        BYTE           N02    Dn2
        BYTE   W15
        BYTE           PAN    c_v-26
        BYTE   W01
        BYTE           N01    Bn0
        BYTE   W01
        BYTE           N02    Dn1
        BYTE   W02
        BYTE           N01    Fn1
        BYTE   W01
        BYTE           N02    Gs1
        BYTE   W15
        BYTE           PAN    c_v-64
        BYTE   W01
        BYTE           N01    Fn0
        BYTE   W01
        BYTE           N02    Gs0
        BYTE   W02
        BYTE           N01    Bn0
        BYTE   W01
        BYTE           N02    Dn1
        BYTE   W16
        BYTE           N01    Dn0
        BYTE   W01
        BYTE           N02    Fn0
        BYTE   W02
        BYTE           N01    Gs0
        BYTE   W01
        BYTE           N02    Bn0
        BYTE   W12
// 012   ----------------------------------------
        BYTE   PATT
         POIN2  BGM16_6_8
// 013   ----------------------------------------
        BYTE           N17    Gn2  v117
        BYTE           N17    Gn3
        BYTE   W18
        BYTE                   Cn3
        BYTE           N17    Cn4
        BYTE   W18
        BYTE           N11    Ds3
        BYTE           N11    Ds4
        BYTE   W12
        BYTE           N23    Dn4
        BYTE           N23    Dn3
        BYTE   W24
        BYTE                   Gs3
        BYTE           N23    Gs2
        BYTE   W24
// 014   ----------------------------------------
        BYTE           N17    An3
        BYTE           N17    An2
        BYTE   W18
        BYTE                   Cn4
        BYTE           N17    Cn3
        BYTE   W18
        BYTE           N11    Ds4
        BYTE           N11    Ds3
        BYTE   W12
        BYTE           N17    Dn3
        BYTE           N17    Dn4
        BYTE   W18
        BYTE                   Fn3
        BYTE           N17    Fn4
        BYTE   W18
        BYTE           N11    Gs3
        BYTE           N11    Gs4
        BYTE   W12
// 015   ----------------------------------------
        BYTE           VOICE  1
        BYTE   GoTo
         POIN2  BGM16_6_LOOP
        BYTE   FINE

//****************** Track 7 (Midi-Chn.7) ******************//

BGM16_7:
        BYTE   KEYSH  BGM16_key+0
// 000   ----------------------------------------
        BYTE           VOICE  29
        BYTE           VOL    22
        BYTE   W08
        BYTE           BEND   c_v-64
        BYTE           N92    Cs2  v120  gtp2
        BYTE                   Cs3
        BYTE           N92    Gn2  v120  gtp2
        BYTE                   Gn1
        BYTE   W01
        BYTE           PAN    c_v+2
        BYTE   W01
        BYTE                   c_v+4
        BYTE   W01
        BYTE                   c_v+6
        BYTE   W01
        BYTE                   c_v+7
        BYTE   W01
        BYTE                   c_v+9
        BYTE   W01
        BYTE                   c_v+11
        BYTE   W01
        BYTE                   c_v+13
        BYTE   W01
        BYTE                   c_v+15
        BYTE   W01
        BYTE                   c_v+17
        BYTE   W01
        BYTE                   c_v+19
        BYTE   W02
        BYTE                   c_v+21
        BYTE   W01
        BYTE                   c_v+22
        BYTE   W01
        BYTE                   c_v+24
        BYTE   W01
        BYTE                   c_v+26
        BYTE   W01
        BYTE                   c_v+27
        BYTE   W01
        BYTE                   c_v+29
        BYTE   W01
        BYTE                   c_v+31
        BYTE   W01
        BYTE                   c_v+33
        BYTE   W01
        BYTE                   c_v+35
        BYTE   W01
        BYTE                   c_v+37
        BYTE   W01
        BYTE                   c_v+39
        BYTE   W01
        BYTE                   c_v+41
        BYTE   W02
        BYTE                   c_v+42
        BYTE   W01
        BYTE                   c_v+44
        BYTE   W01
        BYTE                   c_v+46
        BYTE           MOD    9
        BYTE   W01
        BYTE           PAN    c_v+48
        BYTE   W01
        BYTE                   c_v+49
        BYTE   W01
        BYTE           MOD    19
        BYTE           PAN    c_v+51
        BYTE   W01
        BYTE                   c_v+53
        BYTE   W01
        BYTE                   c_v+55
        BYTE           MOD    29
        BYTE   W01
        BYTE           PAN    c_v+52
        BYTE   W01
        BYTE                   c_v+49
        BYTE   W01
        BYTE           MOD    39
        BYTE           PAN    c_v+46
        BYTE   W01
        BYTE                   c_v+43
        BYTE   W01
        BYTE           MOD    49
        BYTE           PAN    c_v+40
        BYTE   W02
        BYTE                   c_v+37
        BYTE   W01
        BYTE           MOD    59
        BYTE           PAN    c_v+33
        BYTE   W01
        BYTE                   c_v+31
        BYTE   W01
        BYTE                   c_v+27
        BYTE           MOD    68
        BYTE   W01
        BYTE           PAN    c_v+25
        BYTE   W01
        BYTE                   c_v+21
        BYTE           MOD    78
        BYTE   W01
        BYTE           PAN    c_v+18
        BYTE   W01
        BYTE                   c_v+15
        BYTE   W01
        BYTE           MOD    88
        BYTE           PAN    c_v+12
        BYTE   W01
        BYTE                   c_v+9
        BYTE   W01
        BYTE           MOD    98
        BYTE           PAN    c_v+6
        BYTE   W01
        BYTE                   c_v+3
        BYTE   W02
        BYTE                   c_v+0
        BYTE           MOD    108
        BYTE   W01
        BYTE           PAN    c_v-3
        BYTE   W01
        BYTE                   c_v-5
        BYTE   W01
        BYTE                   c_v-9
        BYTE   W01
        BYTE                   c_v-12
        BYTE   W01
        BYTE                   c_v-15
        BYTE   W01
        BYTE                   c_v-18
        BYTE   W01
        BYTE                   c_v-21
        BYTE   W01
        BYTE                   c_v-24
        BYTE   W01
        BYTE                   c_v-27
        BYTE   W01
        BYTE                   c_v-30
        BYTE   W01
        BYTE                   c_v-33
        BYTE   W01
        BYTE                   c_v-36
        BYTE   W02
        BYTE                   c_v-39
        BYTE   W01
        BYTE                   c_v-43
        BYTE   W01
        BYTE                   c_v-45
        BYTE   W01
        BYTE                   c_v-49
        BYTE   W01
        BYTE                   c_v-51
        BYTE   W01
        BYTE                   c_v-61
        BYTE   W01
        BYTE                   c_v-57
        BYTE   W01
        BYTE                   c_v-55
        BYTE           BEND   c_v-62
        BYTE   W01
        BYTE           PAN    c_v-52
        BYTE           BEND   c_v-56
        BYTE   W01
        BYTE           PAN    c_v-49
        BYTE           BEND   c_v-50
        BYTE   W01
        BYTE                   c_v-44
        BYTE           PAN    c_v-47
        BYTE   W01
        BYTE           BEND   c_v-38
        BYTE           PAN    c_v-43
        BYTE   W01
        BYTE           BEND   c_v-32
        BYTE   W01
        BYTE           PAN    c_v-41
        BYTE           MOD    107
        BYTE           BEND   c_v-26
        BYTE   W01
        BYTE           PAN    c_v-38
        BYTE           MOD    99
        BYTE           BEND   c_v-20
        BYTE   W01
        BYTE           PAN    c_v-35
        BYTE           BEND   c_v-14
        BYTE   W01
        BYTE           PAN    c_v-33
        BYTE           MOD    83
        BYTE           BEND   c_v-8
        BYTE   W01
        BYTE           PAN    c_v-30
        BYTE           BEND   c_v-2
        BYTE   W01
        BYTE           PAN    c_v-27
        BYTE           MOD    66
        BYTE           BEND   c_v+7
        BYTE   W01
        BYTE           PAN    c_v-24
        BYTE           BEND   c_v+13
        BYTE   W01
        BYTE           PAN    c_v-21
        BYTE           MOD    50
        BYTE           BEND   c_v+20
        BYTE   W01
        BYTE           PAN    c_v-19
        BYTE           BEND   c_v+25
        BYTE   W01
// 001   ----------------------------------------
BGM16_7_LOOP:
        BYTE           PAN    c_v-16
        BYTE           MOD    33
        BYTE           BEND   c_v+32
        BYTE   W01
        BYTE           PAN    c_v-13
        BYTE   W01
        BYTE                   c_v-10
        BYTE           MOD    17
        BYTE   W01
        BYTE           PAN    c_v-7
        BYTE   W02
        BYTE                   c_v-5
        BYTE   W01
        BYTE                   c_v-2
        BYTE   W01
        BYTE                   c_v+0
        BYTE           MOD    0
        BYTE           BEND   c_v+0
        BYTE   W01
        BYTE           N17    Cn3  v127
        BYTE   W18
        BYTE                   Ds3
        BYTE   W18
        BYTE           N11    Gn3
        BYTE   W12
        BYTE           N23    Fs3
        BYTE   W24
        BYTE                   Dn3
        BYTE   W16
// 002   ----------------------------------------
        BYTE   W08
        BYTE           N17    Fn3
        BYTE   W18
        BYTE                   Gn3
        BYTE   W18
        BYTE           N05    Ds3
        BYTE   W06
        BYTE                   Dn3
        BYTE   W06
        BYTE           N32    Ds3  v127  gtp3
        BYTE   W12
        BYTE           MOD    40
        BYTE   W24
        BYTE                   0
        BYTE           N05    Dn3
        BYTE   W04
// 003   ----------------------------------------
        BYTE   W02
        BYTE                   Ds3
        BYTE   W06
        BYTE           N17    Fn3
        BYTE   W18
        BYTE                   Ds3
        BYTE   W18
        BYTE           N11    Dn3
        BYTE   W12
        BYTE                   Gn2
        BYTE   W12
        BYTE           N05    Ds3
        BYTE   W12
        BYTE                   Dn3
        BYTE   W12
        BYTE           N11    Bn2
        BYTE   W04
// 004   ----------------------------------------
        BYTE   W08
        BYTE           N17    Cn3
        BYTE   W18
        BYTE                   Bn2
        BYTE   W18
        BYTE           N05    Cn3
        BYTE   W06
        BYTE                   Ds3
        BYTE   W06
        BYTE           N16    Gn3
        BYTE   W21
        BYTE           VOICE  48
        BYTE   W01
        BYTE           N23    Gn4
        BYTE   W02
        BYTE           MOD    40
        BYTE   W16
// 005   ----------------------------------------
        BYTE   W06
        BYTE           N23    Fs4
        BYTE   W02
        BYTE           MOD    0
        BYTE   W22
        BYTE           N23    Ds4
        BYTE   W24
        BYTE                   Dn4
        BYTE   W24
        BYTE           N21    Cn4
        BYTE   W18
// 006   ----------------------------------------
        BYTE   W06
        BYTE           N32    Cn4  v127  gtp3
        BYTE   W24
        BYTE   W02
        BYTE           MOD    40
        BYTE   W10
        BYTE           N05    Dn4
        BYTE   W02
        BYTE           MOD    0
        BYTE   W04
        BYTE           N05    Cn4
        BYTE   W06
        BYTE           N23    Bn3
        BYTE   W24
        BYTE           N05    Cn4
        BYTE   W02
        BYTE           MOD    40
        BYTE   W04
        BYTE           N05    Dn4
        BYTE   W06
        BYTE                   Ds4
        BYTE   W06
// 007   ----------------------------------------
        BYTE                   Fn4
        BYTE   W05
        BYTE           VOICE  29
        BYTE   W03
        BYTE           MOD    0
        BYTE           N17    Cn3
        BYTE   W18
        BYTE                   Ds3
        BYTE   W18
        BYTE           N11    Gn3
        BYTE   W12
        BYTE           N23
        BYTE           BEND   c_v+2
        BYTE   W03
        BYTE                   c_v+11
        BYTE   W03
        BYTE                   c_v+18
        BYTE   W02
        BYTE                   c_v+24
        BYTE   W03
        BYTE                   c_v+31
        BYTE   W13
        BYTE                   c_v+0
        BYTE           N23    Fn3
        BYTE   W16
// 008   ----------------------------------------
        BYTE   W08
        BYTE           N17
        BYTE           BEND   c_v-2
        BYTE   W04
        BYTE                   c_v+23
        BYTE   W02
        BYTE                   c_v+39
        BYTE   W03
        BYTE                   c_v+54
        BYTE   W09
        BYTE                   c_v+0
        BYTE           N17
        BYTE   W18
        BYTE           N05    Ds3
        BYTE   W12
        BYTE           N17    Dn3
        BYTE   W40
// 009   ----------------------------------------
        BYTE   W05
        BYTE           VOICE  6
        BYTE   W01
        BYTE           N17    Gn2  v110
        BYTE           N17    Gn3
        BYTE   W18
        BYTE                   Cn3
        BYTE           N17    Cn4
        BYTE   W18
        BYTE           N11    Ds3
        BYTE           N11    Ds4
        BYTE   W12
        BYTE           N23    Dn3
        BYTE           N23    Dn4
        BYTE   W24
        BYTE                   Gn2
        BYTE           N23    Gn3
        BYTE   W18
// 010   ----------------------------------------
        BYTE   W06
        BYTE           N17    Fs2
        BYTE           N17    Fs3
        BYTE   W18
        BYTE                   Dn3
        BYTE           N17    Dn4
        BYTE   W18
        BYTE           N11    Cn4
        BYTE           N11    Cn3
        BYTE   W12
        BYTE           N05    Bn2
        BYTE           N05    Bn3
        BYTE   W06
        BYTE                   An2
        BYTE           N05    An3
        BYTE   W06
        BYTE           N32    Bn2  v110  gtp3
        BYTE                   Bn3
        BYTE   W30
// 011   ----------------------------------------
        BYTE   W05
        BYTE           VOICE  29
        BYTE   W03
        BYTE           N17    Cn3  v127
        BYTE   W18
        BYTE                   Ds3
        BYTE   W18
        BYTE           N11    Gn3
        BYTE   W12
        BYTE           N23
        BYTE           BEND   c_v+2
        BYTE   W03
        BYTE                   c_v+11
        BYTE   W03
        BYTE                   c_v+18
        BYTE   W02
        BYTE                   c_v+24
        BYTE   W03
        BYTE                   c_v+31
        BYTE   W13
        BYTE                   c_v+0
        BYTE           N23    Fn3
        BYTE   W16
// 012   ----------------------------------------
        BYTE   W08
        BYTE           N17
        BYTE           BEND   c_v-2
        BYTE   W04
        BYTE                   c_v+23
        BYTE   W02
        BYTE                   c_v+39
        BYTE   W03
        BYTE                   c_v+54
        BYTE   W09
        BYTE                   c_v+0
        BYTE           N17
        BYTE   W18
        BYTE           N05    Ds3
        BYTE   W12
        BYTE           N17    Fn3
        BYTE   W18
        BYTE                   Gs3
        BYTE   W18
        BYTE           N11    Bn3
        BYTE   W04
// 013   ----------------------------------------
        BYTE   W05
        BYTE           VOICE  6
        BYTE   W01
        BYTE           N17    Gn2  v110
        BYTE           N17    Gn3
        BYTE   W18
        BYTE                   Cn3
        BYTE           N17    Cn4
        BYTE   W18
        BYTE           N11    Ds3
        BYTE           N11    Ds4
        BYTE   W02
        BYTE           MOD    20
        BYTE   W10
        BYTE           N23    Dn4
        BYTE           N23    Dn3
        BYTE   W24
        BYTE                   Gs3
        BYTE           N23    Gs2
        BYTE   W18
// 014   ----------------------------------------
        BYTE   W06
        BYTE           N17    An3
        BYTE           N17    An2
        BYTE   W18
        BYTE                   Cn4
        BYTE           N17    Cn3
        BYTE   W08
        BYTE           MOD    40
        BYTE   W10
        BYTE           N11    Ds4
        BYTE           N11    Ds3
        BYTE   W12
        BYTE           N05    Dn3
        BYTE           N05    Dn4
        BYTE   W06
        BYTE                   Fn2
        BYTE           N05    Fn3
        BYTE   W06
        BYTE                   Gs2
        BYTE           N05    Gs3
        BYTE   W06
        BYTE                   Bn2
        BYTE           N05    Bn3
        BYTE   W06
        BYTE                   Dn3
        BYTE           N05    Dn4
        BYTE   W02
        BYTE           MOD    60
        BYTE   W04
        BYTE           N05    Fn3
        BYTE           N05    Fn4
        BYTE   W06
        BYTE                   Gs3
        BYTE           N05    Gs4
        BYTE   W05
        BYTE           VOICE  29
        BYTE   W01
// 015   ----------------------------------------
        BYTE           PAN    c_v-16
        BYTE           BEND   c_v+32
        BYTE           MOD    33
        BYTE   GoTo
         POIN2  BGM16_7_LOOP
        BYTE   FINE

//****************** Track 8 (Midi-Chn.8) ******************//

BGM16_8:
        BYTE   KEYSH  BGM16_key+0
// 000   ----------------------------------------
        BYTE           VOICE  127
        BYTE           VOL    33
        BYTE           N30    Cs2  v127
        BYTE           N18    En1  v107
        BYTE   W06
        BYTE           N06    Cn1  v127
        BYTE   W06
        BYTE           N12    Bn0
        BYTE   W06
        BYTE           N30    An2
        BYTE           N18    En1  v106
        BYTE   W06
        BYTE           N06    Cn1  v127
        BYTE   W06
        BYTE           N12    Bn0
        BYTE   W06
        BYTE           N30    Cs2
        BYTE           N18    En1  v103
        BYTE   W06
        BYTE           N06    Cn1  v127
        BYTE   W06
        BYTE           N12    Bn0
        BYTE   W06
        BYTE           N42    An2
        BYTE           N18    En1  v097
        BYTE   W36
        BYTE           N12    En1  v110
        BYTE   W06
// 001   ----------------------------------------
BGM16_8_LOOP:
        BYTE           N48    Cs2  v127
        BYTE           N18    Cn1
        BYTE   W18
        BYTE                   Bn0  v116
        BYTE   W06
        BYTE                   En1  v110
        BYTE   W12
        BYTE           N12    Cn1  v127
        BYTE   W12
        BYTE                   Cn1
        BYTE   W12
        BYTE           N24    Bn0  v116
        BYTE   W12
        BYTE           N18    En1  v110
        BYTE   W12
        BYTE           N12    Cn1  v127
        BYTE   W12
// 002   ----------------------------------------
BGM16_8_2:
        BYTE           N18    Cn1  v127
        BYTE   W18
        BYTE                   Bn0  v116
        BYTE   W06
        BYTE                   En1  v110
        BYTE   W12
        BYTE           N12    Cn1  v127
        BYTE   W12
        BYTE                   Cn1
        BYTE   W12
        BYTE           N24    Bn0  v116
        BYTE   W12
        BYTE           N18    En1  v110
        BYTE   W12
        BYTE           N12    Cn1  v127
        BYTE   W12
        BYTE   PEND
// 003   ----------------------------------------
        BYTE           N48    An2  v123
        BYTE           N18    Cn1  v127
        BYTE   W18
        BYTE                   Bn0  v116
        BYTE   W06
        BYTE                   En1  v110
        BYTE   W12
        BYTE           N12    Cn1  v127
        BYTE   W12
        BYTE                   Cn1
        BYTE   W12
        BYTE           N24    Bn0  v116
        BYTE   W12
        BYTE           N18    En1  v110
        BYTE   W12
        BYTE           N12    Cn1  v127
        BYTE   W12
// 004   ----------------------------------------
        BYTE   PATT
         POIN2  BGM16_8_2
// 005   ----------------------------------------
        BYTE           N48    Cs2  v127
        BYTE           N18    Cn1
        BYTE   W18
        BYTE                   Bn0  v116
        BYTE   W06
        BYTE                   En1  v110
        BYTE   W12
        BYTE           N12    Cn1  v127
        BYTE   W12
        BYTE                   Cn1
        BYTE   W12
        BYTE           N24    Bn0  v116
        BYTE   W12
        BYTE           N18    En1  v110
        BYTE   W12
        BYTE           N12    Cn1  v127
        BYTE   W12
// 006   ----------------------------------------
        BYTE           N42    Cs2
        BYTE           N18    Cn1
        BYTE   W18
        BYTE                   Bn0  v116
        BYTE   W06
        BYTE                   En1  v110
        BYTE           N42    An2  v127
        BYTE   W12
        BYTE           N12    Cn1
        BYTE   W12
        BYTE           N42    Cs2
        BYTE           N12    Cn1
        BYTE   W06
        BYTE           N18    En1  v105
        BYTE   W30
        BYTE           N12    En1  v108
        BYTE   W12
// 007   ----------------------------------------
        BYTE           N42    An2  v127
        BYTE           N24    En1  v110
        BYTE   W06
        BYTE           N12    Cn1  v127
        BYTE   W12
        BYTE                   Bn0  v116
        BYTE   W06
        BYTE           N24    En1  v105
        BYTE   W12
        BYTE           N12    Cn1  v127
        BYTE   W12
        BYTE           N24    En1  v110
        BYTE   W06
        BYTE           N12    Cn1  v127
        BYTE   W12
        BYTE                   Bn0  v116
        BYTE   W06
        BYTE           N24    En1  v105
        BYTE   W12
        BYTE           N12    Cn1  v127
        BYTE   W12
// 008   ----------------------------------------
BGM16_8_8:
        BYTE           N24    En1  v110
        BYTE   W06
        BYTE           N12    Cn1  v127
        BYTE   W12
        BYTE                   Bn0  v116
        BYTE   W06
        BYTE           N24    En1  v105
        BYTE   W12
        BYTE           N12    Cn1  v127
        BYTE   W12
        BYTE           N24    En1  v110
        BYTE   W06
        BYTE           N12    Cn1  v127
        BYTE   W12
        BYTE                   Bn0  v116
        BYTE   W06
        BYTE           N24    En1  v105
        BYTE   W12
        BYTE           N12    Cn1  v127
        BYTE   W12
        BYTE   PEND
// 009   ----------------------------------------
BGM16_8_9:
        BYTE           N48    Cs2  v127
        BYTE           N24    En1  v110
        BYTE   W06
        BYTE           N05    Cn1  v127
        BYTE   W06
        BYTE                   Bn0  v124
        BYTE   W06
        BYTE           N12    Cn1  v116
        BYTE   W06
        BYTE           N24    En1  v105
        BYTE   W06
        BYTE           N05    Cn1  v124
        BYTE   W06
        BYTE                   Bn0  v127
        BYTE   W06
        BYTE           N12    Cn1  v124
        BYTE   W06
        BYTE           N24    En1  v110
        BYTE   W06
        BYTE           N05    Cn1  v127
        BYTE   W06
        BYTE                   Bn0  v124
        BYTE   W06
        BYTE           N12    Cn1  v116
        BYTE   W06
        BYTE           N24    En1  v105
        BYTE   W06
        BYTE           N05    Cn1  v124
        BYTE   W06
        BYTE                   Bn0  v127
        BYTE   W06
        BYTE           N12    Cn1  v124
        BYTE   W06
        BYTE   PEND
// 010   ----------------------------------------
        BYTE           N24    En1  v110
        BYTE   W06
        BYTE           N05    Cn1  v127
        BYTE   W06
        BYTE                   Bn0  v124
        BYTE   W06
        BYTE           N12    Cn1  v116
        BYTE   W06
        BYTE           N24    En1  v105
        BYTE   W06
        BYTE           N05    Cn1  v124
        BYTE   W06
        BYTE                   Bn0  v127
        BYTE   W06
        BYTE           N12    Cn1  v124
        BYTE   W06
        BYTE                   En1  v110
        BYTE   W06
        BYTE                   Cn1  v127
        BYTE   W06
        BYTE           N48    An2
        BYTE   W06
        BYTE           N12    Cn1  v116
        BYTE   W06
        BYTE           N24    En1  v105
        BYTE   W24
// 011   ----------------------------------------
        BYTE           N48    Cs2  v127
        BYTE           N24    En1  v110
        BYTE   W06
        BYTE           N12    Cn1  v127
        BYTE   W12
        BYTE                   Bn0  v116
        BYTE   W06
        BYTE           N24    En1  v105
        BYTE   W12
        BYTE           N12    Cn1  v127
        BYTE   W12
        BYTE           N24    En1  v110
        BYTE   W06
        BYTE           N12    Cn1  v127
        BYTE   W12
        BYTE                   Bn0  v116
        BYTE   W06
        BYTE           N24    En1  v105
        BYTE   W12
        BYTE           N12    Cn1  v127
        BYTE   W12
// 012   ----------------------------------------
        BYTE   PATT
         POIN2  BGM16_8_8
// 013   ----------------------------------------
        BYTE   PATT
         POIN2  BGM16_8_9
// 014   ----------------------------------------
        BYTE           N24    En1  v110
        BYTE   W06
        BYTE           N05    Cn1  v127
        BYTE   W06
        BYTE                   Bn0  v124
        BYTE   W06
        BYTE           N12    Cn1  v116
        BYTE   W06
        BYTE           N24    En1  v105
        BYTE   W06
        BYTE           N05    Cn1  v124
        BYTE   W06
        BYTE                   Bn0  v127
        BYTE   W06
        BYTE           N12    Cn1  v124
        BYTE   W06
        BYTE           N48    Gs2  v127
        BYTE           N12    En1  v110
        BYTE   W06
        BYTE                   Cn1  v127
        BYTE   W12
        BYTE                   Cn1  v116
        BYTE   W06
        BYTE           N24    En1  v105
        BYTE   W24
// 015   ----------------------------------------
        BYTE   GoTo
         POIN2  BGM16_8_LOOP
        BYTE   FINE

//***************** Track 9 (Midi-Chn.10) ******************//

BGM16_9:
        BYTE   KEYSH  BGM16_key+0
// 000   ----------------------------------------
        BYTE           VOICE  127
        BYTE           VOL    33
        BYTE   W60
        BYTE           N05    Ds1  v109
        BYTE   W06
        BYTE                   Dn1  v112
        BYTE   W06
        BYTE           N18    Cs1  v116
        BYTE   W06
        BYTE           N05    Dn1  v120
        BYTE   W06
        BYTE                   Ds1  v123
        BYTE   W12
// 001   ----------------------------------------
BGM16_9_LOOP:
        BYTE   W06
        BYTE           N18    Ds1  v112
        BYTE   W06
        BYTE           N12    Fs1  v060
        BYTE   W12
        BYTE                   As1  v074
        BYTE   W12
        BYTE           N05    Fs1  v079
        BYTE   W06
        BYTE                   Fs1  v055
        BYTE           N12    Ds1  v100
        BYTE   W06
        BYTE           N05    Fs1  v085
        BYTE   W06
        BYTE                   Fs1  v066
        BYTE           N18    Dn1  v112
        BYTE   W06
        BYTE           N12    Fs1  v074
        BYTE   W12
        BYTE                   As1  v071
        BYTE   W12
        BYTE           N05    Fs1  v064
        BYTE   W06
        BYTE                   Gs1  v070
        BYTE           N12    Dn1  v100
        BYTE   W06
// 002   ----------------------------------------
        BYTE                   Fs1  v080
        BYTE   W06
        BYTE           N18    Ds1  v112
        BYTE   W06
        BYTE           N12    Fs1  v062
        BYTE   W12
        BYTE                   As1  v074
        BYTE   W12
        BYTE           N05    Fs1  v079
        BYTE   W06
        BYTE                   Fs1  v055
        BYTE           N12    Ds1  v100
        BYTE   W06
        BYTE           N05    Fs1  v082
        BYTE   W06
        BYTE                   Fs1  v066
        BYTE           N18    Dn1  v112
        BYTE   W06
        BYTE           N12    Fs1  v074
        BYTE   W12
        BYTE                   As1  v071
        BYTE   W12
        BYTE           N05    Fs1  v064
        BYTE   W06
        BYTE           N18    Gs1  v070
        BYTE           N12    Dn1  v100
        BYTE   W06
// 003   ----------------------------------------
        BYTE   W06
        BYTE           N18    Ds1  v112
        BYTE   W06
        BYTE           N12    Fs1  v074
        BYTE   W12
        BYTE                   As1
        BYTE   W12
        BYTE           N05    Fs1  v079
        BYTE   W06
        BYTE                   Fs1  v055
        BYTE           N12    Ds1  v100
        BYTE   W06
        BYTE           N05    Fs1  v080
        BYTE   W06
        BYTE                   Fs1  v066
        BYTE           N18    Dn1  v112
        BYTE   W06
        BYTE           N12    Fs1  v074
        BYTE   W12
        BYTE                   As1  v071
        BYTE   W12
        BYTE           N05    Fs1  v064
        BYTE   W06
        BYTE                   Gs1  v070
        BYTE           N12    Dn1  v100
        BYTE   W06
// 004   ----------------------------------------
        BYTE                   Fs1  v080
        BYTE   W06
        BYTE           N18    Ds1  v112
        BYTE   W06
        BYTE           N12    Fs1  v062
        BYTE   W12
        BYTE                   As1  v074
        BYTE   W12
        BYTE           N05    Fs1  v079
        BYTE   W06
        BYTE                   Fs1  v055
        BYTE           N12    Ds1  v100
        BYTE   W06
        BYTE           N05    Fs1  v081
        BYTE   W06
        BYTE                   Fs1  v066
        BYTE           N18    Dn1  v112
        BYTE   W06
        BYTE           N12    Fs1  v074
        BYTE   W12
        BYTE                   As1  v071
        BYTE   W12
        BYTE           N05    Fs1  v064
        BYTE   W06
        BYTE           N11    Gs1  v070
        BYTE           N12    Dn1  v100
        BYTE   W06
// 005   ----------------------------------------
        BYTE   W06
        BYTE           N18    Ds1  v112
        BYTE   W06
        BYTE           N12    Fs1  v062
        BYTE   W12
        BYTE                   As1  v074
        BYTE   W12
        BYTE           N05    Fs1  v079
        BYTE   W06
        BYTE                   Fs1  v055
        BYTE           N12    Ds1  v100
        BYTE   W06
        BYTE           N05    Fs1  v081
        BYTE   W06
        BYTE                   Fs1  v066
        BYTE           N18    Dn1  v112
        BYTE   W06
        BYTE           N12    Fs1  v074
        BYTE   W12
        BYTE                   As1  v071
        BYTE   W12
        BYTE           N05    Fs1  v064
        BYTE   W06
        BYTE           N04    Gs1  v070
        BYTE           N12    Dn1  v100
        BYTE   W06
// 006   ----------------------------------------
        BYTE   W06
        BYTE           N18    Ds1  v112
        BYTE   W36
        BYTE           N12    Ds1  v100
        BYTE   W15
        BYTE           N03    Cs1  v072
        BYTE   W03
        BYTE                   Dn1  v099
        BYTE   W03
        BYTE                   Ds1  v079
        BYTE   W03
        BYTE                   Dn1  v111
        BYTE   W03
        BYTE                   Ds1  v090
        BYTE   W03
        BYTE                   Dn1  v119
        BYTE   W03
        BYTE                   Ds1  v096
        BYTE   W03
        BYTE                   Dn1  v120
        BYTE   W03
        BYTE                   Ds1  v101
        BYTE   W06
        BYTE                   Ds1  v105
        BYTE   W03
        BYTE                   Dn1  v127
        BYTE   W03
        BYTE                   Ds1  v105
        BYTE   W03
// 007   ----------------------------------------
        BYTE   W24
        BYTE           N24    As1  v078
        BYTE   W24
        BYTE                   As1  v082
        BYTE   W24
        BYTE                   As1  v079
        BYTE   W24
// 008   ----------------------------------------
        BYTE                   As1
        BYTE   W24
        BYTE                   As1  v081
        BYTE   W24
        BYTE                   As1  v080
        BYTE   W24
        BYTE                   As1
        BYTE   W24
// 009   ----------------------------------------
        BYTE   W24
        BYTE                   As1  v074
        BYTE   W24
        BYTE                   As1  v077
        BYTE   W24
        BYTE                   As1  v081
        BYTE   W24
// 010   ----------------------------------------
        BYTE                   As1  v080
        BYTE   W24
        BYTE                   As1  v083
        BYTE   W24
        BYTE                   As1  v080
        BYTE   W12
        BYTE           N12    Ds1  v104
        BYTE   W18
        BYTE           N05    Cs1
        BYTE   W06
        BYTE                   Dn1  v113
        BYTE   W06
        BYTE                   Ds1  v127
        BYTE   W06
// 011   ----------------------------------------
        BYTE   W24
        BYTE           N24    As1  v081
        BYTE   W24
        BYTE                   As1  v080
        BYTE   W24
        BYTE                   As1  v082
        BYTE   W24
// 012   ----------------------------------------
        BYTE                   As1
        BYTE   W24
        BYTE                   As1  v077
        BYTE   W24
        BYTE                   As1  v073
        BYTE   W24
        BYTE                   As1  v081
        BYTE   W24
// 013   ----------------------------------------
        BYTE   W24
        BYTE                   As1  v072
        BYTE   W24
        BYTE                   As1  v075
        BYTE   W24
        BYTE                   As1
        BYTE   W24
// 014   ----------------------------------------
        BYTE                   As1
        BYTE   W24
        BYTE                   As1
        BYTE   W36
        BYTE           N12    Ds1  v104
        BYTE   W18
        BYTE           N05    Cs1
        BYTE   W06
        BYTE                   Dn1  v113
        BYTE   W06
        BYTE                   Ds1  v127
        BYTE   W06
// 015   ----------------------------------------
        BYTE   GoTo
         POIN2  BGM16_9_LOOP
        BYTE   FINE


//********************** End of Song ***********************//

        ALIGN 4
BGM16:
        BYTE   10                      // Num Tracks
        BYTE   0                       // Unknown
        BYTE   BGM16_pri               // Priority
        BYTE   BGM16_rev               // Reverb

        POIN2   BGM16_grp              

        POIN2   BGM16_0
        POIN2   BGM16_1
        POIN2   BGM16_2
        POIN2   BGM16_3
        POIN2   BGM16_4
        POIN2   BGM16_5
        POIN2   BGM16_6
        POIN2   BGM16_7
        POIN2   BGM16_8
        POIN2   BGM16_9

        
