//Generated with python s2ea
	#include "MPlayDef.event"

	#define	song010B_grp BCVoices
	#define	song010B_pri 0
	#define	song010B_rev 132
	#define	song010B_mvl 127
	#define	song010B_key 0
	#define	song010B_tbs 1
	#define	song010B_exg 0
	#define	song010B_cmp 1

	// .rodata
	//	song010B
	ALIGN 4


//**************** Track 1 (Midi-Chn.0) ****************//

song010B_001:
//  #01 //000   ----------------------------------------
 BYTE   KEYSH  song010B_key+0
 BYTE   TEMPO  126*song010B_tbs/2
 BYTE   VOICE  124
 BYTE   VOL  41*song010B_mvl/mxv
 BYTE   PAN  c_v+0
 BYTE   W96
//  #01 //001   ----------------------------------------
 BYTE   W96
//  #01 //002   ----------------------------------------
 BYTE   W60
 BYTE   N03 Cn1 v120
 BYTE   W12
 BYTE   N05 Dn1 v112
 BYTE   W24
//  #01 //003   ----------------------------------------
Label_011864FD:
 BYTE   N03 Cn1 v120
 BYTE   N32 Cs2 v108
 BYTE   W24
 BYTE   N05 Dn1 v112
 BYTE   N03 Fs1 v080
 BYTE   W12
 BYTE   Cn1 v120
 BYTE   N03 Fs1 v080
 BYTE   W12
 BYTE   Fs1 v076
 BYTE   W06
 BYTE   Cn1 v100
 BYTE   W06
 BYTE   Cn1 v120
 BYTE   N03 Fs1 v076
 BYTE   W12
 BYTE   N05 Dn1 v112
 BYTE   N03 Fs1 v080
 BYTE   W12
 BYTE   Cn1 v120
 BYTE   N03 Fs1 v076
 BYTE   W06
 BYTE   As1
 BYTE   W06
//  #01 //004   ----------------------------------------
 BYTE   Cn1 v120
 BYTE   N03 Fs1 v072
 BYTE   W12
 BYTE   N03
 BYTE   W12
 BYTE   N05 Dn1 v112
 BYTE   N03 Fs1 v072
 BYTE   W12
 BYTE   Cn1 v120
 BYTE   N03 Fs1 v076
 BYTE   W12
 BYTE   Fs1 v064
 BYTE   W06
 BYTE   Cn1 v112
 BYTE   N03 Fs1 v080
 BYTE   W06
 BYTE   Cn1 v120
 BYTE   N03 As1 v076
 BYTE   W12
 BYTE   N05 Dn1 v112
 BYTE   N03 Fs1 v088
 BYTE   W12
 BYTE   Cn1 v120
 BYTE   N03 As1 v080
 BYTE   W12
//  #01 //005   ----------------------------------------
 BYTE   Cn1 v120
 BYTE   N03 Fs1 v080
 BYTE   W12
 BYTE   Fs1 v056
 BYTE   W12
 BYTE   N05 Dn1 v112
 BYTE   N03 Fs1 v076
 BYTE   W12
 BYTE   Fs1 v064
 BYTE   W12
 BYTE   Cn1 v120
 BYTE   N03 Fs1 v080
 BYTE   W12
 BYTE   Cn1 v120
 BYTE   N03 Fs1 v072
 BYTE   W12
 BYTE   N05 Dn1 v112
 BYTE   N03 Fs1 v076
 BYTE   W12
 BYTE   Cn1 v120
 BYTE   N11 Bn1 v092
 BYTE   W06
 BYTE   N05 Dn1 v108
 BYTE   W06
//  #01 //006   ----------------------------------------
 BYTE   N03 Cn1 v120
 BYTE   N03 Fs1 v076
 BYTE   W12
 BYTE   N05 Dn1 v112
 BYTE   N03 Fs1 v072
 BYTE   W12
 BYTE   N05 Dn1 v112
 BYTE   N03 Fs1 v068
 BYTE   W12
 BYTE   Cn1 v120
 BYTE   N03 Fs1 v064
 BYTE   W12
 BYTE   Fs1 v080
 BYTE   W12
 BYTE   Cn1 v120
 BYTE   N03 Fs1 v064
 BYTE   W12
 BYTE   N05 Dn1 v112
 BYTE   N03 Fs1 v088
 BYTE   W12
 BYTE   Cn1 v120
 BYTE   N11 Bn1 v088
 BYTE   W06
 BYTE   N05 Dn1 v112
 BYTE   W06
//  #01 //007   ----------------------------------------
 BYTE   N03 Cn1 v120
 BYTE   N03 Fs1 v080
 BYTE   W12
 BYTE   Fs1 v064
 BYTE   W12
 BYTE   N05 Dn1 v112
 BYTE   N03 Fs1 v068
 BYTE   W12
 BYTE   Fs1 v072
 BYTE   W06
 BYTE   Cn1 v120
 BYTE   W06
 BYTE   Fs1 v080
 BYTE   W06
 BYTE   Cn1 v104
 BYTE   N03 As1 v084
 BYTE   W06
 BYTE   Cn1 v120
 BYTE   N03 Fs1 v056
 BYTE   W12
 BYTE   N05 Dn1 v112
 BYTE   N03 Fs1 v084
 BYTE   W12
 BYTE   Cn1 v120
 BYTE   N03 Fs1 v068
 BYTE   W12
//  #01 //008   ----------------------------------------
 BYTE   Cn1 v120
 BYTE   N03 Fs1 v076
 BYTE   W12
 BYTE   Fs1 v064
 BYTE   W12
 BYTE   N05 Dn1 v112
 BYTE   N03 Fs1 v072
 BYTE   W12
 BYTE   Fs1 v068
 BYTE   W06
 BYTE   Cn1 v120
 BYTE   W06
 BYTE   Fs1 v072
 BYTE   W06
 BYTE   Cn1 v104
 BYTE   N03 As1 v084
 BYTE   W06
 BYTE   Cn1 v120
 BYTE   N03 Fs1 v064
 BYTE   W12
 BYTE   N05 Dn1 v112
 BYTE   N03 Fs1 v072
 BYTE   W12
 BYTE   Cn1 v120
 BYTE   N11 Bn1 v088
 BYTE   W12
//  #01 //009   ----------------------------------------
 BYTE   N03 Cn1 v120
 BYTE   N03 Fs1 v076
 BYTE   W12
 BYTE   N03
 BYTE   W12
 BYTE   N05 Dn1 v108
 BYTE   N03 Fs1 v076
 BYTE   W12
 BYTE   Cn1 v104
 BYTE   N03 Fs1 v068
 BYTE   W12
 BYTE   Fs1 v072
 BYTE   W12
 BYTE   Cn1 v124
 BYTE   N03 Fs1 v076
 BYTE   W12
 BYTE   N05 Dn1 v108
 BYTE   N03 Fs1 v080
 BYTE   W12
 BYTE   Cn1 v100
 BYTE   N11 Bn1 v088
 BYTE   W12
//  #01 //010   ----------------------------------------
 BYTE   N03 Cn1 v120
 BYTE   N03 Fs1 v076
 BYTE   W12
 BYTE   N05 Dn1 v096
 BYTE   N03 Fs1 v072
 BYTE   W12
 BYTE   N05 Dn1 v112
 BYTE   N03 Fs1 v076
 BYTE   W12
 BYTE   Cn1 v120
 BYTE   N03 Fs1 v072
 BYTE   W12
 BYTE   N03
 BYTE   W12
 BYTE   N05 Dn1 v104
 BYTE   N03 Fs1 v068
 BYTE   W12
 BYTE   N05 Dn1 v112
 BYTE   N03 Fs1 v084
 BYTE   W12
 BYTE   Cn1 v104
 BYTE   N11 Bn1 v088
 BYTE   W06
 BYTE   N05 Dn1 v096
 BYTE   W06
//  #01 //011   ----------------------------------------
 BYTE   N03 Cn1 v120
 BYTE   N23 Fn2 v096
 BYTE   W12
 BYTE   N05 Dn1
 BYTE   W12
 BYTE   Dn1 v112
 BYTE   N03 Fs1 v076
 BYTE   W12
 BYTE   Cn1 v120
 BYTE   N03 Fs1 v064
 BYTE   W06
 BYTE   N05 Dn1 v092
 BYTE   W06
 BYTE   N03 Cn1 v104
 BYTE   N03 Fs1 v072
 BYTE   W12
 BYTE   Cn1 v120
 BYTE   N03 Fs1 v068
 BYTE   W12
 BYTE   N05 Dn1 v112
 BYTE   N03 Fs1 v080
 BYTE   W12
 BYTE   Cn1 v120
 BYTE   N03 Fs1 v072
 BYTE   W06
 BYTE   As1 v084
 BYTE   W06
//  #01 //012   ----------------------------------------
 BYTE   Cn1 v120
 BYTE   N03 Fs1 v072
 BYTE   W12
 BYTE   Fs1 v064
 BYTE   W12
 BYTE   N05 Dn1 v112
 BYTE   N03 Fs1 v072
 BYTE   W12
 BYTE   Cn1 v104
 BYTE   N03 Fs1 v064
 BYTE   W06
 BYTE   N05 Dn1 v092
 BYTE   W06
 BYTE   N03 Fs1 v072
 BYTE   W06
 BYTE   N05 Dn1 v112
 BYTE   N03 As1 v084
 BYTE   W06
 BYTE   Cn1 v104
 BYTE   N03 Fs1 v076
 BYTE   W12
 BYTE   N05 Dn1 v112
 BYTE   N03 Fs1 v088
 BYTE   W06
 BYTE   Cn1 v112
 BYTE   W06
 BYTE   N11 Bn1 v088
 BYTE   W06
 BYTE   N05 Dn1 v112
 BYTE   W06
//  #01 //013   ----------------------------------------
 BYTE   N03 Cn1 v120
 BYTE   N32 Cs2 v108
 BYTE   W12
 BYTE   N03 Cn1 v120
 BYTE   W12
 BYTE   N05 Dn1 v112
 BYTE   N03 Fs1 v080
 BYTE   W12
 BYTE   Cn1 v120
 BYTE   N03 Fs1 v064
 BYTE   W12
 BYTE   Cn1 v120
 BYTE   N03 Fs1 v072
 BYTE   W12
 BYTE   Cn1 v120
 BYTE   N03 Fs1 v056
 BYTE   W12
 BYTE   N05 Dn1 v112
 BYTE   N03 Fs1 v072
 BYTE   W12
 BYTE   Cn1 v120
 BYTE   N03 As1 v088
 BYTE   W12
//  #01 //014   ----------------------------------------
 BYTE   Cn1 v120
 BYTE   N03 Fs1 v072
 BYTE   W12
 BYTE   Cn1 v120
 BYTE   N03 Fs1 v056
 BYTE   W12
 BYTE   N05 Dn1 v112
 BYTE   N03 Fs1 v072
 BYTE   W12
 BYTE   Cn1 v120
 BYTE   N03 Fs1 v064
 BYTE   W12
 BYTE   Cn1 v120
 BYTE   N03 Fs1 v076
 BYTE   W12
 BYTE   Cn1 v120
 BYTE   N11 Bn1 v088
 BYTE   W12
 BYTE   N05 Dn1 v112
 BYTE   N03 Fs1 v072
 BYTE   W12
 BYTE   Cn1 v120
 BYTE   N11 Bn1 v088
 BYTE   W06
 BYTE   N05 Dn1 v096
 BYTE   W06
//  #01 //015   ----------------------------------------
 BYTE   N03 Cn1 v120
 BYTE   N03 Fs1 v080
 BYTE   W12
 BYTE   Cn1 v120
 BYTE   N03 Fs1 v064
 BYTE   W12
 BYTE   N05 Dn1 v112
 BYTE   N03 Fs1 v076
 BYTE   W12
 BYTE   Cn1 v120
 BYTE   N03 Fs1 v064
 BYTE   W12
 BYTE   Cn1 v120
 BYTE   N03 Fs1 v088
 BYTE   W06
 BYTE   Fs1 v072
 BYTE   W06
 BYTE   Cn1 v120
 BYTE   N11 Bn1 v088
 BYTE   W12
 BYTE   N05 Dn1 v112
 BYTE   N03 Fs1 v088
 BYTE   W12
 BYTE   Cn1 v120
 BYTE   N11 Bn1 v088
 BYTE   W12
//  #01 //016   ----------------------------------------
 BYTE   N03 Cn1 v120
 BYTE   N03 Fs1 v084
 BYTE   W12
 BYTE   Cn1 v120
 BYTE   N03 Fs1 v068
 BYTE   W12
 BYTE   N05 Dn1 v112
 BYTE   N03 Fs1 v068
 BYTE   W12
 BYTE   Cn1 v112
 BYTE   N03 Fs1 v068
 BYTE   W06
 BYTE   Cn1 v120
 BYTE   W06
 BYTE   Fs1 v076
 BYTE   W06
 BYTE   Cn1 v112
 BYTE   N03 As1 v096
 BYTE   W06
 BYTE   Cn1 v120
 BYTE   N11 Bn1 v088
 BYTE   W12
 BYTE   N05 Dn1 v112
 BYTE   N03 Fs1 v080
 BYTE   W12
 BYTE   Cn1 v120
 BYTE   N11 Bn1 v088
 BYTE   W06
 BYTE   N05 Dn1
 BYTE   W06
//  #01 //017   ----------------------------------------
 BYTE   N03 Cn1 v120
 BYTE   N03 Fs1 v080
 BYTE   W12
 BYTE   Cn1 v120
 BYTE   N03 Fs1 v084
 BYTE   W12
 BYTE   N05 Dn1 v112
 BYTE   N03 Fs1 v068
 BYTE   W12
 BYTE   Cn1 v120
 BYTE   N03 Fs1 v064
 BYTE   W12
 BYTE   Cn1 v120
 BYTE   N03 Fs1 v068
 BYTE   W12
 BYTE   Cn1 v120
 BYTE   N03 Fs1 v068
 BYTE   W12
 BYTE   N05 Dn1 v112
 BYTE   N03 Fs1 v076
 BYTE   W12
 BYTE   Cn1 v120
 BYTE   N03 Fs1 v068
 BYTE   W12
//  #01 //018   ----------------------------------------
 BYTE   Cn1 v120
 BYTE   N03 Fs1 v068
 BYTE   W12
 BYTE   Cn1 v120
 BYTE   N03 Fs1 v068
 BYTE   W12
 BYTE   N05 Dn1 v112
 BYTE   N03 Fs1 v080
 BYTE   W12
 BYTE   Cn1 v120
 BYTE   N03 Fs1 v072
 BYTE   W12
 BYTE   Cn1 v120
 BYTE   N03 Fs1 v080
 BYTE   W12
 BYTE   Cn1 v120
 BYTE   N11 Bn1 v088
 BYTE   W12
 BYTE   N05 Dn1 v112
 BYTE   N03 Fs1 v080
 BYTE   W12
 BYTE   Cn1 v120
 BYTE   N11 Bn1 v096
 BYTE   W12
//  #01 //019   ----------------------------------------
 BYTE   N03 Cn1 v120
 BYTE   N03 Fs1 v072
 BYTE   W06
 BYTE   As1 v096
 BYTE   W06
 BYTE   Cn1 v120
 BYTE   N03 Fs1 v080
 BYTE   W12
 BYTE   N05 Dn1 v112
 BYTE   N03 Fs1 v076
 BYTE   W12
 BYTE   Cn1 v120
 BYTE   N03 Fs1 v068
 BYTE   W12
 BYTE   Cn1 v120
 BYTE   N03 Fs1 v068
 BYTE   W06
 BYTE   Fs1 v072
 BYTE   W06
 BYTE   Cn1 v120
 BYTE   N11 Bn1 v084
 BYTE   W12
 BYTE   N05 Dn1 v112
 BYTE   N03 Fs1 v072
 BYTE   W12
 BYTE   Cn1 v120
 BYTE   N03 Fs1 v072
 BYTE   W12
//  #01 //020   ----------------------------------------
 BYTE   Cn1 v120
 BYTE   N03 Fs1 v092
 BYTE   W12
 BYTE   N05 Dn1 v112
 BYTE   N05 Bn1 v076
 BYTE   W12
 BYTE   Dn1 v112
 BYTE   N11 Bn1 v096
 BYTE   W12
 BYTE   N03 Cn1 v120
 BYTE   N03 Fs1 v076
 BYTE   W12
 BYTE   Fs1 v084
 BYTE   W12
 BYTE   N05 Dn1 v112
 BYTE   N05 Bn1 v084
 BYTE   W12
 BYTE   Dn1 v104
 BYTE   N11 Bn1 v108
 BYTE   W06
 BYTE   N05 Dn1 v112
 BYTE   W06
 BYTE   N03 Cn1 v120
 BYTE   N03 Fs1 v064
 BYTE   W06
 BYTE   N05 Dn1 v104
 BYTE   W06
//  #01 //021   ----------------------------------------
 BYTE   N03 Cn1 v120
 BYTE   N32 Cs2 v108
 BYTE   W12
 BYTE   N03 Cn1 v120
 BYTE   W12
 BYTE   N05 Dn1 v112
 BYTE   N03 Fs1 v068
 BYTE   W12
 BYTE   Cn1 v120
 BYTE   N03 Fs1 v068
 BYTE   W06
 BYTE   N05 Dn1 v092
 BYTE   W06
 BYTE   N03 Fs1 v080
 BYTE   W06
 BYTE   N05 Dn1 v096
 BYTE   N03 As1
 BYTE   W06
 BYTE   Cn1 v120
 BYTE   N03 Fs1 v084
 BYTE   W12
 BYTE   N05 Dn1 v112
 BYTE   N03 Fs1 v092
 BYTE   W12
 BYTE   Cn1 v120
 BYTE   N03 Fs1 v076
 BYTE   W12
//  #01 //022   ----------------------------------------
 BYTE   Cn1 v120
 BYTE   N03 Fs1 v076
 BYTE   W12
 BYTE   Cn1 v120
 BYTE   N03 Fs1 v076
 BYTE   W12
 BYTE   N05 Dn1 v112
 BYTE   N03 Fs1 v068
 BYTE   W12
 BYTE   Cn1 v120
 BYTE   N03 Fs1 v072
 BYTE   W06
 BYTE   N05 Dn1 v092
 BYTE   W06
 BYTE   N03 Fs1 v068
 BYTE   W06
 BYTE   N05 Dn1 v100
 BYTE   N03 As1 v096
 BYTE   W06
 BYTE   Cn1 v120
 BYTE   N03 Fs1 v064
 BYTE   W12
 BYTE   N05 Dn1 v112
 BYTE   N03 Fs1 v076
 BYTE   W12
 BYTE   Cn1 v120
 BYTE   N03 Fs1 v060
 BYTE   W12
//  #01 //023   ----------------------------------------
 BYTE   Cn1 v120
 BYTE   N03 Fs1 v076
 BYTE   W12
 BYTE   Cn1 v120
 BYTE   N03 Fs1 v080
 BYTE   W12
 BYTE   N05 Dn1 v112
 BYTE   N03 Fs1 v080
 BYTE   W12
 BYTE   Cn1 v120
 BYTE   N03 Fs1 v076
 BYTE   W06
 BYTE   N05 Dn1 v096
 BYTE   W06
 BYTE   N03 Cn1 v120
 BYTE   N03 Fs1 v068
 BYTE   W06
 BYTE   N05 Dn1 v096
 BYTE   W06
 BYTE   N03 Cn1 v120
 BYTE   N03 Fs1 v064
 BYTE   W12
 BYTE   N05 Dn1 v112
 BYTE   N03 Fs1 v080
 BYTE   W12
 BYTE   Cn1 v120
 BYTE   N11 Bn1 v088
 BYTE   W12
//  #01 //024   ----------------------------------------
 BYTE   N03 Cn1 v120
 BYTE   N03 Fs1 v080
 BYTE   W12
 BYTE   N05 Dn1 v104
 BYTE   N03 Fs1 v064
 BYTE   W12
 BYTE   N05 Dn1 v112
 BYTE   N03 Fs1 v068
 BYTE   W12
 BYTE   Cn1 v120
 BYTE   N03 Fs1 v056
 BYTE   W12
 BYTE   Fs1 v080
 BYTE   W12
 BYTE   Cn1 v120
 BYTE   N03 Fs1 v080
 BYTE   W12
 BYTE   N05 Dn1 v112
 BYTE   N03 Fs1 v076
 BYTE   W12
 BYTE   Cn1 v120
 BYTE   N11 Bn1 v088
 BYTE   W12
//  #01 //025   ----------------------------------------
 BYTE   N03 Cn1 v120
 BYTE   N32 Gn2 v108
 BYTE   W12
 BYTE   N05 Dn1 v088
 BYTE   W12
 BYTE   Dn1 v112
 BYTE   N03 Fs1 v080
 BYTE   W12
 BYTE   Cn1 v120
 BYTE   N03 Fs1 v076
 BYTE   W12
 BYTE   N05 Dn1 v112
 BYTE   N03 Fs1 v072
 BYTE   W12
 BYTE   Cn1 v120
 BYTE   N03 Fs1 v072
 BYTE   W12
 BYTE   N05 Dn1 v112
 BYTE   N03 Fs1 v072
 BYTE   W12
 BYTE   Cn1 v120
 BYTE   N03 Fs1 v068
 BYTE   W12
//  #01 //026   ----------------------------------------
 BYTE   Cn1 v120
 BYTE   N03 Fs1 v068
 BYTE   W06
 BYTE   As1 v084
 BYTE   W06
 BYTE   N05 Dn1 v088
 BYTE   N03 Fs1 v068
 BYTE   W12
 BYTE   N05 Dn1 v112
 BYTE   N03 Fs1 v072
 BYTE   W06
 BYTE   As1 v088
 BYTE   W06
 BYTE   Cn1 v116
 BYTE   N03 Fs1 v064
 BYTE   W12
 BYTE   N05 Dn1 v096
 BYTE   N03 Fs1 v080
 BYTE   W06
 BYTE   N05 Dn1 v112
 BYTE   N03 As1 v088
 BYTE   W06
 BYTE   Cn1 v116
 BYTE   N03 Fs1 v076
 BYTE   W06
 BYTE   N05 Dn1 v096
 BYTE   W06
 BYTE   N03 Fs1 v072
 BYTE   W06
 BYTE   N05 Dn1 v112
 BYTE   N03 As1 v108
 BYTE   W06
 BYTE   Cn1 v116
 BYTE   N03 Fs1 v088
 BYTE   W06
 BYTE   N05 Dn1
 BYTE   W06
//  #01 //027   ----------------------------------------
 BYTE   N03 Cn1 v120
 BYTE   N32 Cs2 v108
 BYTE   W12
 BYTE   N03 Cn1 v120
 BYTE   W12
 BYTE   N05 Dn1 v112
 BYTE   N11 Bn1 v096
 BYTE   W12
 BYTE   N03 Cn1 v120
 BYTE   N03 Fs1 v076
 BYTE   W12
 BYTE   Fs1 v072
 BYTE   W12
 BYTE   Cn1 v116
 BYTE   N03 Fs1 v072
 BYTE   W12
 BYTE   N05 Dn1 v112
 BYTE   N03 Fs1 v076
 BYTE   W12
 BYTE   Cn1 v120
 BYTE   N03 Fs1 v064
 BYTE   W12
//  #01 //028   ----------------------------------------
 BYTE   Cn1 v120
 BYTE   N03 Fs1 v068
 BYTE   W12
 BYTE   Cn1 v120
 BYTE   N03 Fs1 v064
 BYTE   W12
 BYTE   N05 Dn1 v112
 BYTE   N03 Fs1 v072
 BYTE   W12
 BYTE   Cn1 v120
 BYTE   N03 Fs1 v064
 BYTE   W12
 BYTE   Fs1 v072
 BYTE   W12
 BYTE   Cn1 v120
 BYTE   N03 Fs1 v068
 BYTE   W12
 BYTE   N05 Dn1 v112
 BYTE   N03 Fs1 v092
 BYTE   W12
 BYTE   Cn1 v116
 BYTE   N11 Bn1 v104
 BYTE   W12
//  #01 //029   ----------------------------------------
 BYTE   N03 Cn1 v120
 BYTE   N03 Fs1 v092
 BYTE   W12
 BYTE   Cn1 v120
 BYTE   N03 Fs1 v068
 BYTE   W12
 BYTE   N05 Dn1 v112
 BYTE   N03 Fs1 v088
 BYTE   W12
 BYTE   Cn1 v116
 BYTE   N03 Fs1 v076
 BYTE   W12
 BYTE   Cn1 v120
 BYTE   N03 Fs1 v072
 BYTE   W12
 BYTE   Cn1 v120
 BYTE   N03 Fs1 v076
 BYTE   W12
 BYTE   N05 Dn1 v112
 BYTE   N03 Fs1 v080
 BYTE   W12
 BYTE   Cn1 v112
 BYTE   N03 Fs1 v076
 BYTE   W12
//  #01 //030   ----------------------------------------
 BYTE   Cn1 v120
 BYTE   N03 Fs1 v080
 BYTE   W12
 BYTE   Cn1 v120
 BYTE   N03 Fs1 v088
 BYTE   W12
 BYTE   N05 Dn1 v112
 BYTE   N03 Fs1 v080
 BYTE   W12
 BYTE   Cn1 v112
 BYTE   N03 Fs1 v072
 BYTE   W12
 BYTE   Cn1 v120
 BYTE   N03 Fs1 v080
 BYTE   W12
 BYTE   Cn1 v120
 BYTE   N03 Fs1 v072
 BYTE   W12
 BYTE   N05 Dn1 v112
 BYTE   N03 Fs1 v088
 BYTE   W12
 BYTE   Cn1 v112
 BYTE   N11 Bn1 v100
 BYTE   W12
//  #01 //031   ----------------------------------------
 BYTE   N03 Cn1 v120
 BYTE   N03 Fs1 v088
 BYTE   W12
 BYTE   Cn1 v120
 BYTE   N03 Fs1 v076
 BYTE   W12
 BYTE   N05 Dn1 v112
 BYTE   N03 Fs1 v088
 BYTE   W12
 BYTE   Cn1 v120
 BYTE   N03 Fs1 v060
 BYTE   W06
 BYTE   N05 Dn1 v096
 BYTE   W06
 BYTE   N03 Cn1 v104
 BYTE   N03 Fs1 v088
 BYTE   W06
 BYTE   Cn1 v116
 BYTE   W06
 BYTE   Cn1 v120
 BYTE   N03 Fs1 v064
 BYTE   W12
 BYTE   N05 Dn1 v112
 BYTE   N03 Fs1 v076
 BYTE   W12
 BYTE   Cn1 v104
 BYTE   N03 Fs1 v080
 BYTE   W06
 BYTE   As1 v088
 BYTE   W06
//  #01 //032   ----------------------------------------
 BYTE   Cn1 v120
 BYTE   N03 Fs1 v080
 BYTE   W12
 BYTE   Cn1 v120
 BYTE   N03 Fs1 v080
 BYTE   W12
 BYTE   N05 Dn1 v112
 BYTE   N03 Fs1 v088
 BYTE   W12
 BYTE   Cn1 v108
 BYTE   N03 Fs1 v072
 BYTE   W12
 BYTE   Cn1 v120
 BYTE   N03 Fs1 v084
 BYTE   W12
 BYTE   N05 Dn1 v096
 BYTE   N03 Fs1 v072
 BYTE   W12
 BYTE   N05 Dn1 v112
 BYTE   N03 Fs1 v084
 BYTE   W12
 BYTE   Cn1 v104
 BYTE   N03 Fs1 v080
 BYTE   W06
 BYTE   N05 Dn1 v096
 BYTE   N03 As1 v064
 BYTE   W06
//  #01 //033   ----------------------------------------
 BYTE   Cn1 v120
 BYTE   N03 Fs1 v064
 BYTE   W06
 BYTE   As1 v088
 BYTE   W06
 BYTE   N05 Dn1 v108
 BYTE   N03 Fs1 v076
 BYTE   W12
 BYTE   N05 Dn1 v112
 BYTE   N03 Fs1 v092
 BYTE   W06
 BYTE   N05 Dn1 v100
 BYTE   W06
 BYTE   N03 Cn1 v108
 BYTE   N03 Fs1 v076
 BYTE   W06
 BYTE   N05 Dn1 v092
 BYTE   N03 As1 v076
 BYTE   W06
 BYTE   Fs1 v064
 BYTE   W06
 BYTE   N05 Dn1 v112
 BYTE   N03 As1 v096
 BYTE   W06
 BYTE   Cn1 v120
 BYTE   N03 Fs1 v072
 BYTE   W06
 BYTE   N05 Dn1 v088
 BYTE   N03 As1 v076
 BYTE   W06
 BYTE   N05 Dn1 v096
 BYTE   N03 Fs1 v076
 BYTE   W06
 BYTE   N05 Dn1 v096
 BYTE   N03 As1 v084
 BYTE   W06
 BYTE   Cn1 v112
 BYTE   N03 Fs1 v076
 BYTE   W06
 BYTE   N05 Dn1 v100
 BYTE   N03 As1 v088
 BYTE   W06
//  #01 //034   ----------------------------------------
 BYTE   Cn1 v120
 BYTE   N32 Cs2 v108
 BYTE   W12
 BYTE   N03 Cn1 v120
 BYTE   W12
 BYTE   N05 Dn1 v112
 BYTE   N03 Fs1 v080
 BYTE   W12
 BYTE   Cn1 v104
 BYTE   N03 Fs1 v072
 BYTE   W12
 BYTE   Cn1 v120
 BYTE   N03 Fs1 v080
 BYTE   W12
 BYTE   Cn1 v120
 BYTE   N03 Fs1 v076
 BYTE   W12
 BYTE   N05 Dn1 v112
 BYTE   N03 Fs1 v084
 BYTE   W12
 BYTE   Cn1 v104
 BYTE   N11 Bn1 v092
 BYTE   W06
 BYTE   N05 Dn1
 BYTE   W06
//  #01 //035   ----------------------------------------
 BYTE   N03 Cn1 v120
 BYTE   N03 Fs1 v076
 BYTE   W12
 BYTE   Cn1 v120
 BYTE   N03 Fs1 v068
 BYTE   W12
 BYTE   N05 Dn1 v112
 BYTE   N03 Fs1 v072
 BYTE   W12
 BYTE   Cn1 v108
 BYTE   N03 Fs1 v068
 BYTE   W12
 BYTE   Cn1 v120
 BYTE   N03 Fs1 v088
 BYTE   W12
 BYTE   Cn1 v120
 BYTE   N03 Fs1 v076
 BYTE   W12
 BYTE   N05 Dn1 v112
 BYTE   N03 Fs1 v080
 BYTE   W12
 BYTE   Cn1 v104
 BYTE   N11 Bn1 v088
 BYTE   W06
 BYTE   N05 Dn1
 BYTE   W06
//  #01 //036   ----------------------------------------
 BYTE   N03 Cn1 v104
 BYTE   N03 Fs1 v088
 BYTE   W12
 BYTE   Cn1 v104
 BYTE   N03 Fs1 v076
 BYTE   W12
 BYTE   N05 Dn1 v112
 BYTE   N03 Fs1 v088
 BYTE   W12
 BYTE   Cn1 v104
 BYTE   N03 Fs1 v080
 BYTE   W12
 BYTE   Cn1 v120
 BYTE   N03 Fs1 v084
 BYTE   W12
 BYTE   Cn1 v116
 BYTE   N03 Fs1 v080
 BYTE   W12
 BYTE   N05 Dn1 v112
 BYTE   N03 Fs1 v088
 BYTE   W12
 BYTE   Cn1 v104
 BYTE   N03 Fs1 v080
 BYTE   W12
//  #01 //037   ----------------------------------------
 BYTE   Cn1 v120
 BYTE   N03 Fs1 v088
 BYTE   W12
 BYTE   Cn1 v112
 BYTE   N03 Fs1 v072
 BYTE   W12
 BYTE   N05 Dn1 v112
 BYTE   N03 Fs1 v088
 BYTE   W12
 BYTE   Cn1 v108
 BYTE   N03 Fs1 v068
 BYTE   W06
 BYTE   N05 Dn1 v096
 BYTE   W06
 BYTE   N03 Fs1 v072
 BYTE   W06
 BYTE   N05 Dn1 v100
 BYTE   N03 As1 v060
 BYTE   W06
 BYTE   Cn1 v108
 BYTE   N03 Fs1 v080
 BYTE   W06
 BYTE   N05 Dn1 v088
 BYTE   W06
 BYTE   N05
 BYTE   N03 Fs1 v092
 BYTE   W06
 BYTE   N05 Dn1 v100
 BYTE   W06
 BYTE   N03 Cn1 v104
 BYTE   N11 Bn1 v100
 BYTE   W06
 BYTE   N05 Dn1 v088
 BYTE   W06
//  #01 //038   ----------------------------------------
 BYTE   N03 Cn1 v120
 BYTE   N03 Fs1 v092
 BYTE   W12
 BYTE   Cn1 v116
 BYTE   N03 Fs1 v068
 BYTE   W12
 BYTE   N05 Dn1 v112
 BYTE   N03 Fs1 v088
 BYTE   W12
 BYTE   Cn1 v120
 BYTE   N03 Fs1 v072
 BYTE   W06
 BYTE   N05 Dn1 v088
 BYTE   W06
 BYTE   N03 Fs1 v092
 BYTE   W06
 BYTE   N05 Dn1
 BYTE   W06
 BYTE   N03 Cn1 v116
 BYTE   N03 Fs1 v072
 BYTE   W12
 BYTE   N05 Dn1 v112
 BYTE   N03 Fs1 v088
 BYTE   W12
 BYTE   Cn1 v104
 BYTE   N11 Bn1 v088
 BYTE   W12
//  #01 //039   ----------------------------------------
 BYTE   N03 Cn1 v120
 BYTE   N03 Fs1 v088
 BYTE   W12
 BYTE   Cn1 v120
 BYTE   N03 Fs1 v076
 BYTE   W12
 BYTE   N05 Dn1 v112
 BYTE   N03 Fs1 v088
 BYTE   W12
 BYTE   Cn1 v104
 BYTE   N03 Fs1 v080
 BYTE   W06
 BYTE   N05 Dn1 v096
 BYTE   W06
 BYTE   N03 Fs1 v092
 BYTE   W06
 BYTE   N05 Dn1 v100
 BYTE   W06
 BYTE   N03 Cn1 v112
 BYTE   N03 Fs1 v072
 BYTE   W06
 BYTE   N05 Dn1 v108
 BYTE   W06
 BYTE   N03 Cn1 v112
 BYTE   N03 Fs1 v088
 BYTE   W06
 BYTE   N05 Dn1 v100
 BYTE   W06
 BYTE   Dn1 v108
 BYTE   N03 Fs1 v072
 BYTE   W06
 BYTE   N05 Dn1 v104
 BYTE   W06
//  #01 //040   ----------------------------------------
 BYTE   N03 Cn1 v120
 BYTE   N32 Gn2 v108
 BYTE   W12
 BYTE   N03 Cn1 v120
 BYTE   W12
 BYTE   N05 Dn1 v112
 BYTE   N03 Fs1 v084
 BYTE   W12
 BYTE   Cn1 v104
 BYTE   N03 Fs1 v076
 BYTE   W12
 BYTE   Cn1 v120
 BYTE   N03 Fs1 v088
 BYTE   W12
 BYTE   Cn1 v120
 BYTE   N03 Fs1 v080
 BYTE   W12
 BYTE   N05 Dn1 v112
 BYTE   N03 Fs1 v088
 BYTE   W12
 BYTE   Cn1 v104
 BYTE   N03 Fs1 v076
 BYTE   W12
//  #01 //041   ----------------------------------------
 BYTE   Cn1 v120
 BYTE   N03 Fs1 v088
 BYTE   W12
 BYTE   Cn1 v120
 BYTE   N03 Fs1 v080
 BYTE   W12
 BYTE   N05 Dn1 v112
 BYTE   N03 Fs1 v084
 BYTE   W12
 BYTE   Cn1 v116
 BYTE   N03 Fs1 v076
 BYTE   W12
 BYTE   Cn1 v120
 BYTE   N03 Fs1 v088
 BYTE   W12
 BYTE   Cn1 v120
 BYTE   N03 Fs1 v080
 BYTE   W12
 BYTE   N05 Dn1 v112
 BYTE   N03 Fs1 v088
 BYTE   W12
 BYTE   Cn1 v116
 BYTE   N03 Fs1 v072
 BYTE   W12
//  #01 //042   ----------------------------------------
 BYTE   Cn1 v120
 BYTE   N32 Gn2 v108
 BYTE   W12
 BYTE   N03 Cn1 v120
 BYTE   W12
 BYTE   N05 Dn1 v112
 BYTE   N03 Fs1 v088
 BYTE   W12
 BYTE   Cn1 v120
 BYTE   N03 Fs1 v076
 BYTE   W12
 BYTE   Cn1 v120
 BYTE   N03 Fs1 v084
 BYTE   W12
 BYTE   Cn1 v120
 BYTE   N03 Fs1 v076
 BYTE   W12
 BYTE   N05 Dn1 v112
 BYTE   N03 Fs1 v088
 BYTE   W12
 BYTE   Cn1 v120
 BYTE   N03 Fs1 v076
 BYTE   W12
//  #01 //043   ----------------------------------------
 BYTE   Cn1 v120
 BYTE   N32 Gn2 v108
 BYTE   W12
 BYTE   N05 Dn1 v112
 BYTE   W12
 BYTE   Dn1 v116
 BYTE   N03 Fs1 v076
 BYTE   W12
 BYTE   Cn1 v120
 BYTE   N03 Fs1 v072
 BYTE   W12
 BYTE   N05 Dn1 v100
 BYTE   N03 Fs1 v068
 BYTE   W06
 BYTE   N05 Dn1 v100
 BYTE   N03 As1 v088
 BYTE   W06
 BYTE   Cn1 v108
 BYTE   N03 Fs1 v060
 BYTE   W06
 BYTE   N05 Dn1 v092
 BYTE   N03 As1
 BYTE   W06
 BYTE   N05 Dn1
 BYTE   N03 Fs1 v080
 BYTE   W06
 BYTE   N05 Dn1 v100
 BYTE   W06
 BYTE   N03 Cn1 v112
 BYTE   N11 Bn1 v100
 BYTE   W06
 BYTE   N05 Dn1
 BYTE   W06
//  #01 //044   ----------------------------------------
 BYTE   N03 Cn1 v120
 BYTE   N32 An2 v108
 BYTE   W12
 BYTE   N03 Cn1 v120
 BYTE   W12
 BYTE   N05 Dn1 v112
 BYTE   N03 Fs1 v088
 BYTE   W12
 BYTE   Cn1 v112
 BYTE   N03 Fs1 v080
 BYTE   W12
 BYTE   Cn1 v120
 BYTE   N03 Fs1 v088
 BYTE   W12
 BYTE   Cn1 v120
 BYTE   N03 Fs1 v072
 BYTE   W12
 BYTE   N05 Dn1 v112
 BYTE   N03 Fs1 v088
 BYTE   W12
 BYTE   Cn1 v112
 BYTE   N03 Fs1 v068
 BYTE   W12
//  #01 //045   ----------------------------------------
Label_01186E09:
 BYTE   N03 Cn1 v120
 BYTE   N03 Fs1 v084
 BYTE   W12
 BYTE   Cn1 v120
 BYTE   N03 Fs1 v084
 BYTE   W12
 BYTE   N05 Dn1 v112
 BYTE   N03 Fs1 v084
 BYTE   W12
 BYTE   Cn1 v120
 BYTE   N03 Fs1 v076
 BYTE   W12
 BYTE   N05 Dn1 v112
 BYTE   N03 Fs1 v084
 BYTE   W12
 BYTE   Cn1 v112
 BYTE   N03 Fs1 v076
 BYTE   W12
 BYTE   N05 Dn1 v112
 BYTE   N03 Fs1 v088
 BYTE   W12
 BYTE   Cn1 v104
 BYTE   N11 Bn1 v088
 BYTE   W12
 BYTE   PEND 
//  #01 //046   ----------------------------------------
 BYTE   N03 Cn1 v120
 BYTE   N03 Fs1 v088
 BYTE   W12
 BYTE   Cn1 v120
 BYTE   N03 Fs1 v076
 BYTE   W12
 BYTE   N05 Dn1 v112
 BYTE   N03 Fs1 v088
 BYTE   W12
 BYTE   Cn1 v116
 BYTE   N03 Fs1 v080
 BYTE   W12
 BYTE   Cn1 v120
 BYTE   N03 Fs1 v088
 BYTE   W12
 BYTE   Cn1 v120
 BYTE   N03 Fs1 v072
 BYTE   W12
 BYTE   N05 Dn1 v112
 BYTE   N03 Fs1 v088
 BYTE   W12
 BYTE   Cn1 v112
 BYTE   N03 Fs1 v068
 BYTE   W12
//  #01 //047   ----------------------------------------
 BYTE   Cn1 v120
 BYTE   N03 Fs1 v084
 BYTE   W12
 BYTE   Cn1 v120
 BYTE   N03 Fs1 v084
 BYTE   W12
 BYTE   N05 Dn1 v112
 BYTE   N03 Fs1 v084
 BYTE   W12
 BYTE   Cn1 v112
 BYTE   N03 Fs1 v076
 BYTE   W12
 BYTE   Cn1 v112
 BYTE   N03 Fs1 v084
 BYTE   W12
 BYTE   Cn1 v120
 BYTE   N03 Fs1 v076
 BYTE   W12
 BYTE   N05 Dn1 v112
 BYTE   N03 Fs1 v088
 BYTE   W12
 BYTE   N11 Bn1
 BYTE   W12
//  #01 //048   ----------------------------------------
 BYTE   N03 Cn1 v120
 BYTE   N32 Cs2 v108
 BYTE   W12
 BYTE   N03 Cn1 v120
 BYTE   W12
 BYTE   N05 Dn1 v112
 BYTE   N03 Fs1 v088
 BYTE   W12
 BYTE   Cn1 v112
 BYTE   N03 Fs1 v080
 BYTE   W12
 BYTE   Cn1 v120
 BYTE   N03 Fs1 v088
 BYTE   W12
 BYTE   Cn1 v120
 BYTE   N03 Fs1 v072
 BYTE   W12
 BYTE   N05 Dn1 v112
 BYTE   N03 Fs1 v088
 BYTE   W12
 BYTE   Cn1 v112
 BYTE   N03 Fs1 v068
 BYTE   W12
//  #01 //049   ----------------------------------------
 BYTE   PATT
  POIN2 Label_01186E09
//  #01 //050   ----------------------------------------
 BYTE   N03 Cn1 v120
 BYTE   N03 Fs1 v088
 BYTE   W12
 BYTE   Cn1 v120
 BYTE   N03 Fs1 v076
 BYTE   W12
 BYTE   N05 Dn1 v112
 BYTE   N03 Fs1 v088
 BYTE   W12
 BYTE   Cn1 v116
 BYTE   N03 Fs1 v068
 BYTE   W12
 BYTE   Cn1 v120
 BYTE   N03 Fs1 v088
 BYTE   W12
 BYTE   Cn1 v120
 BYTE   N03 Fs1 v072
 BYTE   W12
 BYTE   N05 Dn1 v112
 BYTE   N03 Fs1 v088
 BYTE   W12
 BYTE   Cn1 v112
 BYTE   N03 Fs1 v072
 BYTE   W12
//  #01 //051   ----------------------------------------
 BYTE   Cn1 v120
 BYTE   N03 Fs1 v088
 BYTE   W12
 BYTE   Cn1 v120
 BYTE   N03 Fs1 v072
 BYTE   W12
 BYTE   N05 Dn1 v112
 BYTE   N03 Fs1 v084
 BYTE   W12
 BYTE   Cn1 v112
 BYTE   N03 Fs1 v080
 BYTE   W12
 BYTE   Cn1 v112
 BYTE   N03 Fs1 v084
 BYTE   W06
 BYTE   As1 v080
 BYTE   W06
 BYTE   Cn1 v120
 BYTE   N03 Fs1 v080
 BYTE   W12
 BYTE   N05 Dn1 v112
 BYTE   N03 Fs1 v088
 BYTE   W12
 BYTE   N11 Bn1
 BYTE   W11
 BYTE   GoTo
  POIN2 Label_011864FD
 BYTE   FINE

//**************** Track 2 (Midi-Chn.1) ****************//

song010B_002:
//  #02 //000   ----------------------------------------
 BYTE   KEYSH  song010B_key+0
 BYTE   VOICE  51
 BYTE   VOL  42*song010B_mvl/mxv
 BYTE   PAN  c_v+0
 BYTE   W96
//  #02 //001   ----------------------------------------
 BYTE   W96
//  #02 //002   ----------------------------------------
 BYTE   W96
//  #02 //003   ----------------------------------------
Label_01186F4F:
 BYTE   N10 An1 v100
 BYTE   W12
 BYTE   N10
 BYTE   W12
 BYTE   N10
 BYTE   W12
 BYTE   N10
 BYTE   W12
 BYTE   Gn2
 BYTE   W12
 BYTE   N10
 BYTE   W12
 BYTE   N10
 BYTE   W12
 BYTE   N10
 BYTE   W12
 BYTE   PEND 
//  #02 //004   ----------------------------------------
Label_01186F62:
 BYTE   N10 Fn2 v100
 BYTE   W12
 BYTE   N10
 BYTE   W12
 BYTE   N10
 BYTE   W12
 BYTE   N10
 BYTE   W12
 BYTE   En2
 BYTE   W12
 BYTE   N10
 BYTE   W12
 BYTE   N10
 BYTE   W12
 BYTE   N10
 BYTE   W12
 BYTE   PEND 
//  #02 //005   ----------------------------------------
 BYTE   Bn1
 BYTE   W12
 BYTE   N10
 BYTE   W12
 BYTE   En2
 BYTE   W12
 BYTE   N10
 BYTE   W12
 BYTE   An1
 BYTE   W12
 BYTE   N10
 BYTE   W12
 BYTE   Cn2
 BYTE   W12
 BYTE   N10
 BYTE   W12
//  #02 //006   ----------------------------------------
 BYTE   Bn1
 BYTE   W12
 BYTE   N10
 BYTE   W12
 BYTE   Ds2
 BYTE   W12
 BYTE   N10
 BYTE   W12
 BYTE   En2
 BYTE   W12
 BYTE   N10
 BYTE   W12
 BYTE   N10
 BYTE   W12
 BYTE   N05 Bn1
 BYTE   W06
 BYTE   En2
 BYTE   W06
//  #02 //007   ----------------------------------------
 BYTE   PATT
  POIN2 Label_01186F4F
//  #02 //008   ----------------------------------------
 BYTE   PATT
  POIN2 Label_01186F62
//  #02 //009   ----------------------------------------
 BYTE   N10 Dn2 v100
 BYTE   W12
 BYTE   N10
 BYTE   W12
 BYTE   Bn1
 BYTE   W12
 BYTE   N10
 BYTE   W12
 BYTE   An1
 BYTE   W12
 BYTE   N10
 BYTE   W12
 BYTE   An2
 BYTE   W12
 BYTE   N10
 BYTE   W12
//  #02 //010   ----------------------------------------
 BYTE   Ds2
 BYTE   W12
 BYTE   N10
 BYTE   W12
 BYTE   N10
 BYTE   W12
 BYTE   N10
 BYTE   W12
 BYTE   En2
 BYTE   W12
 BYTE   N10
 BYTE   W12
 BYTE   N10
 BYTE   W12
 BYTE   N10
 BYTE   W12
//  #02 //011   ----------------------------------------
Label_01186FC4:
 BYTE   N10 An1 v100
 BYTE   W12
 BYTE   N10
 BYTE   W12
 BYTE   N10
 BYTE   W12
 BYTE   N10
 BYTE   W12
 BYTE   N10
 BYTE   W12
 BYTE   N10
 BYTE   W12
 BYTE   N10
 BYTE   W12
 BYTE   N10
 BYTE   W12
 BYTE   PEND 
//  #02 //012   ----------------------------------------
 BYTE   N10
 BYTE   W12
 BYTE   N10
 BYTE   W12
 BYTE   N10
 BYTE   W12
 BYTE   N10
 BYTE   W12
 BYTE   N10
 BYTE   W12
 BYTE   N10
 BYTE   W12
 BYTE   En2
 BYTE   W12
 BYTE   N10
 BYTE   W12
//  #02 //013   ----------------------------------------
 BYTE   An1
 BYTE   W12
 BYTE   N10
 BYTE   W12
 BYTE   N10
 BYTE   W12
 BYTE   N10
 BYTE   W12
 BYTE   N10
 BYTE   W12
 BYTE   N10
 BYTE   W12
 BYTE   En2
 BYTE   W12
 BYTE   An2
 BYTE   W12
//  #02 //014   ----------------------------------------
 BYTE   Gn2
 BYTE   W12
 BYTE   N10
 BYTE   W12
 BYTE   N10
 BYTE   W12
 BYTE   N10
 BYTE   W12
 BYTE   N10
 BYTE   W12
 BYTE   N10
 BYTE   W12
 BYTE   N04
 BYTE   W06
 BYTE   Cn2
 BYTE   W06
 BYTE   N05 Dn2
 BYTE   W06
 BYTE   Gn2
 BYTE   W06
//  #02 //015   ----------------------------------------
Label_0118700C:
 BYTE   N10 Fn2 v100
 BYTE   W12
 BYTE   N10
 BYTE   W12
 BYTE   N10
 BYTE   W12
 BYTE   N10
 BYTE   W12
 BYTE   N10
 BYTE   W12
 BYTE   N10
 BYTE   W12
 BYTE   N10
 BYTE   W12
 BYTE   N10
 BYTE   W12
 BYTE   PEND 
//  #02 //016   ----------------------------------------
 BYTE   En2
 BYTE   W12
 BYTE   N10
 BYTE   W12
 BYTE   N10
 BYTE   W12
 BYTE   N10
 BYTE   W12
 BYTE   An1
 BYTE   W12
 BYTE   N10
 BYTE   W12
 BYTE   N10
 BYTE   W12
 BYTE   As1
 BYTE   W12
//  #02 //017   ----------------------------------------
 BYTE   Bn1
 BYTE   W12
 BYTE   N10
 BYTE   W12
 BYTE   N10
 BYTE   W12
 BYTE   N10
 BYTE   W12
 BYTE   En2
 BYTE   W12
 BYTE   N10
 BYTE   W12
 BYTE   N10
 BYTE   W12
 BYTE   N10
 BYTE   W12
//  #02 //018   ----------------------------------------
 BYTE   PATT
  POIN2 Label_01186F4F
//  #02 //019   ----------------------------------------
 BYTE   N10 Fs2 v100
 BYTE   W12
 BYTE   N10
 BYTE   W12
 BYTE   N10
 BYTE   W12
 BYTE   N10
 BYTE   W12
 BYTE   Bn1
 BYTE   W12
 BYTE   N10
 BYTE   W12
 BYTE   N10
 BYTE   W12
 BYTE   Ds2
 BYTE   W12
//  #02 //020   ----------------------------------------
 BYTE   En2
 BYTE   W12
 BYTE   N10
 BYTE   W12
 BYTE   N10
 BYTE   W12
 BYTE   N10
 BYTE   W12
 BYTE   N10
 BYTE   W12
 BYTE   N10
 BYTE   W12
 BYTE   N12 Bn1
 BYTE   W12
 BYTE   En2
 BYTE   W12
//  #02 //021   ----------------------------------------
 BYTE   PATT
  POIN2 Label_01186F4F
//  #02 //022   ----------------------------------------
 BYTE   N10 Fn2 v100
 BYTE   W12
 BYTE   N10
 BYTE   W12
 BYTE   N10
 BYTE   W12
 BYTE   N10
 BYTE   W12
 BYTE   En2
 BYTE   W12
 BYTE   N10
 BYTE   W12
 BYTE   Cn2
 BYTE   W12
 BYTE   N10
 BYTE   W12
//  #02 //023   ----------------------------------------
 BYTE   Dn2
 BYTE   W12
 BYTE   N10
 BYTE   W12
 BYTE   N10
 BYTE   W12
 BYTE   N10
 BYTE   W12
 BYTE   Cn2
 BYTE   W12
 BYTE   N10
 BYTE   W12
 BYTE   N10
 BYTE   W12
 BYTE   N10
 BYTE   W12
//  #02 //024   ----------------------------------------
 BYTE   Bn1
 BYTE   W12
 BYTE   N10
 BYTE   W12
 BYTE   N10
 BYTE   W12
 BYTE   Ds2
 BYTE   W12
 BYTE   En2
 BYTE   W12
 BYTE   N10
 BYTE   W12
 BYTE   N10
 BYTE   W12
 BYTE   N10
 BYTE   W12
//  #02 //025   ----------------------------------------
 BYTE   PATT
  POIN2 Label_01186FC4
//  #02 //026   ----------------------------------------
 BYTE   PATT
  POIN2 Label_01186FC4
//  #02 //027   ----------------------------------------
 BYTE   PATT
  POIN2 Label_0118700C
//  #02 //028   ----------------------------------------
 BYTE   PATT
  POIN2 Label_0118700C
//  #02 //029   ----------------------------------------
Label_011870B2:
 BYTE   N10 Fn2 v100
 BYTE   W12
 BYTE   N10
 BYTE   W12
 BYTE   N10
 BYTE   W12
 BYTE   N10
 BYTE   W12
 BYTE   Ds2
 BYTE   W12
 BYTE   N10
 BYTE   W12
 BYTE   N10
 BYTE   W12
 BYTE   N10
 BYTE   W12
 BYTE   PEND 
//  #02 //030   ----------------------------------------
 BYTE   Dn2
 BYTE   W12
 BYTE   N10
 BYTE   W12
 BYTE   N10
 BYTE   W12
 BYTE   N10
 BYTE   W12
 BYTE   Ds2
 BYTE   W12
 BYTE   N10
 BYTE   W12
 BYTE   Cs2
 BYTE   W12
 BYTE   N10
 BYTE   W12
//  #02 //031   ----------------------------------------
 BYTE   Cn2
 BYTE   W12
 BYTE   N10
 BYTE   W12
 BYTE   N10
 BYTE   W12
 BYTE   N10
 BYTE   W12
 BYTE   Fn2
 BYTE   W12
 BYTE   N16
 BYTE   W18
 BYTE   N05 Cn2
 BYTE   W06
 BYTE   Gs2
 BYTE   W06
 BYTE   Fn2
 BYTE   W06
//  #02 //032   ----------------------------------------
 BYTE   N10 Gn2
 BYTE   W12
 BYTE   N10
 BYTE   W12
 BYTE   N10
 BYTE   W12
 BYTE   N10
 BYTE   W12
 BYTE   N10
 BYTE   W12
 BYTE   N10
 BYTE   W12
 BYTE   Dn2
 BYTE   W12
 BYTE   Gn2
 BYTE   W12
//  #02 //033   ----------------------------------------
 BYTE   Cn2
 BYTE   W12
 BYTE   N10
 BYTE   W12
 BYTE   N10
 BYTE   W12
 BYTE   N10
 BYTE   W12
 BYTE   N10
 BYTE   W12
 BYTE   N10
 BYTE   W12
 BYTE   N13 Cn3
 BYTE   W12
 BYTE   N07 Cn2
 BYTE   W06
 BYTE   Cn3
 BYTE   W06
//  #02 //034   ----------------------------------------
 BYTE   PATT
  POIN2 Label_0118700C
//  #02 //035   ----------------------------------------
 BYTE   PATT
  POIN2 Label_0118700C
//  #02 //036   ----------------------------------------
 BYTE   PATT
  POIN2 Label_011870B2
//  #02 //037   ----------------------------------------
 BYTE   N10 Dn2 v100
 BYTE   W12
 BYTE   N10
 BYTE   W12
 BYTE   N10
 BYTE   W12
 BYTE   N10
 BYTE   W12
 BYTE   N10
 BYTE   W12
 BYTE   N10
 BYTE   W12
 BYTE   N10
 BYTE   W12
 BYTE   N10
 BYTE   W12
//  #02 //038   ----------------------------------------
Label_0118712E:
 BYTE   N10 Cs2 v100
 BYTE   W12
 BYTE   N10
 BYTE   W12
 BYTE   N10
 BYTE   W12
 BYTE   N10
 BYTE   W12
 BYTE   N10
 BYTE   W12
 BYTE   N10
 BYTE   W12
 BYTE   N10
 BYTE   W12
 BYTE   N10
 BYTE   W12
 BYTE   PEND 
//  #02 //039   ----------------------------------------
 BYTE   Cn2
 BYTE   W12
 BYTE   N10
 BYTE   W12
 BYTE   N10
 BYTE   W12
 BYTE   N10
 BYTE   W12
 BYTE   Bn1
 BYTE   W12
 BYTE   N10
 BYTE   W12
 BYTE   Fn2
 BYTE   W12
 BYTE   Bn1
 BYTE   W12
//  #02 //040   ----------------------------------------
 BYTE   As1
 BYTE   W12
 BYTE   N10
 BYTE   W12
 BYTE   N10
 BYTE   W12
 BYTE   N10
 BYTE   W12
 BYTE   Cn2
 BYTE   W12
 BYTE   N10
 BYTE   W12
 BYTE   N10
 BYTE   W12
 BYTE   N10
 BYTE   W12
//  #02 //041   ----------------------------------------
 BYTE   PATT
  POIN2 Label_0118712E
//  #02 //042   ----------------------------------------
Label_01187166:
 BYTE   N10 Ds2 v100
 BYTE   W12
 BYTE   N10
 BYTE   W12
 BYTE   N10
 BYTE   W12
 BYTE   N10
 BYTE   W12
 BYTE   N10
 BYTE   W12
 BYTE   N10
 BYTE   W12
 BYTE   N10
 BYTE   W12
 BYTE   N10
 BYTE   W12
 BYTE   PEND 
//  #02 //043   ----------------------------------------
 BYTE   En2
 BYTE   W12
 BYTE   N10
 BYTE   W12
 BYTE   N10
 BYTE   W12
 BYTE   N10
 BYTE   W12
 BYTE   N10
 BYTE   W12
 BYTE   N10
 BYTE   W12
 BYTE   N10
 BYTE   W12
 BYTE   N10
 BYTE   W12
//  #02 //044   ----------------------------------------
 BYTE   PATT
  POIN2 Label_0118700C
//  #02 //045   ----------------------------------------
 BYTE   N10 Fn2 v100
 BYTE   W12
 BYTE   N10
 BYTE   W12
 BYTE   N10
 BYTE   W12
 BYTE   N10
 BYTE   W12
 BYTE   N10
 BYTE   W12
 BYTE   N10
 BYTE   W12
 BYTE   N10
 BYTE   W12
 BYTE   Cn2
 BYTE   W12
//  #02 //046   ----------------------------------------
 BYTE   PATT
  POIN2 Label_0118712E
//  #02 //047   ----------------------------------------
 BYTE   PATT
  POIN2 Label_01187166
//  #02 //048   ----------------------------------------
 BYTE   PATT
  POIN2 Label_01186FC4
//  #02 //049   ----------------------------------------
 BYTE   N10 An1 v100
 BYTE   W12
 BYTE   N10
 BYTE   W12
 BYTE   N10
 BYTE   W12
 BYTE   N10
 BYTE   W12
 BYTE   N10
 BYTE   W12
 BYTE   N10
 BYTE   W12
 BYTE   N10
 BYTE   W12
 BYTE   En2
 BYTE   W12
//  #02 //050   ----------------------------------------
 BYTE   PATT
  POIN2 Label_01186FC4
//  #02 //051   ----------------------------------------
 BYTE   N10 An1 v100
 BYTE   W12
 BYTE   N10
 BYTE   W12
 BYTE   N10
 BYTE   W12
 BYTE   N10
 BYTE   W12
 BYTE   N10
 BYTE   W12
 BYTE   N10
 BYTE   W12
 BYTE   N22 En2
 BYTE   W23
 BYTE   GoTo
  POIN2 Label_01186F4F
 BYTE   FINE

//**************** Track 3 (Midi-Chn.2) ****************//

song010B_003:
//  #03 //000   ----------------------------------------
 BYTE   KEYSH  song010B_key+0
 BYTE   VOICE  48
 BYTE   VOL  32*song010B_mvl/mxv
 BYTE   PAN  c_v-10
 BYTE   N44 Fn3 v076
 BYTE   W48
 BYTE   Gs3
 BYTE   W48
//  #03 //001   ----------------------------------------
 BYTE   Bn3
 BYTE   W48
 BYTE   Dn4
 BYTE   W48
//  #03 //002   ----------------------------------------
 BYTE   N88 Fn4
 BYTE   W96
//  #03 //003   ----------------------------------------
Label_011871F5:
 BYTE   N44 Cn4 v088
 BYTE   W48
 BYTE   Bn3
 BYTE   W48
 BYTE   PEND 
//  #03 //004   ----------------------------------------
Label_011871FC:
 BYTE   N44 An3 v088
 BYTE   W48
 BYTE   Gn3
 BYTE   W48
 BYTE   PEND 
//  #03 //005   ----------------------------------------
 BYTE   N23 An3 v100
 BYTE   W24
 BYTE   Gs3
 BYTE   W24
 BYTE   Bn3
 BYTE   W24
 BYTE   An3
 BYTE   W24
//  #03 //006   ----------------------------------------
Label_0118720D:
 BYTE   N44 Fs3 v088
 BYTE   W48
 BYTE   Gs3
 BYTE   W48
 BYTE   PEND 
//  #03 //007   ----------------------------------------
 BYTE   PATT
  POIN2 Label_011871F5
//  #03 //008   ----------------------------------------
 BYTE   PATT
  POIN2 Label_011871FC
//  #03 //009   ----------------------------------------
 BYTE   N23 An3 v088
 BYTE   W24
 BYTE   Gs3
 BYTE   W24
 BYTE   Bn3
 BYTE   W24
 BYTE   An3
 BYTE   W24
//  #03 //010   ----------------------------------------
 BYTE   PATT
  POIN2 Label_0118720D
//  #03 //011   ----------------------------------------
Label_0118722D:
 BYTE   N23 En3 v096
 BYTE   W24
 BYTE   Gn3
 BYTE   W24
 BYTE   Fs3
 BYTE   W24
 BYTE   Fn3
 BYTE   W24
 BYTE   PEND 
//  #03 //012   ----------------------------------------
 BYTE   PATT
  POIN2 Label_0118722D
//  #03 //013   ----------------------------------------
 BYTE   N44 Cn4 v088
 BYTE   W48
 BYTE   N17 An3
 BYTE   W18
 BYTE   Bn3
 BYTE   W18
 BYTE   N11 Cn4
 BYTE   W12
//  #03 //014   ----------------------------------------
 BYTE   N44 Gn3
 BYTE   W48
 BYTE   En3
 BYTE   W48
//  #03 //015   ----------------------------------------
 BYTE   N64 Fn3
 BYTE   W66
 BYTE   N16 Gn3
 BYTE   W18
 BYTE   N10 An3
 BYTE   W12
//  #03 //016   ----------------------------------------
 BYTE   N44 Bn3
 BYTE   W48
 BYTE   Cn4
 BYTE   W48
//  #03 //017   ----------------------------------------
 BYTE   En4
 BYTE   W48
 BYTE   N68 Dn4
 BYTE   W48
//  #03 //018   ----------------------------------------
 BYTE   W24
 BYTE   N17 Cn4
 BYTE   W24
 BYTE   N17
 BYTE   W18
 BYTE   N16 Bn3
 BYTE   W18
 BYTE   N10 Cn4
 BYTE   W12
//  #03 //019   ----------------------------------------
 BYTE   N44 An3
 BYTE   W48
 BYTE   Bn3
 BYTE   W48
//  #03 //020   ----------------------------------------
 BYTE   PATT
  POIN2 Label_011871F5
//  #03 //021   ----------------------------------------
 BYTE   PATT
  POIN2 Label_011871F5
//  #03 //022   ----------------------------------------
 BYTE   PATT
  POIN2 Label_011871FC
//  #03 //023   ----------------------------------------
 BYTE   N92 An3 v088
 BYTE   W96
//  #03 //024   ----------------------------------------
 BYTE   PATT
  POIN2 Label_0118720D
//  #03 //025   ----------------------------------------
 BYTE   N22 En3 v096
 BYTE   W24
 BYTE   Gn3
 BYTE   W24
 BYTE   Fs3
 BYTE   W24
 BYTE   Fn3
 BYTE   W24
//  #03 //026   ----------------------------------------
 BYTE   N09 En3
 BYTE   W12
 BYTE   N11 En3 v112
 BYTE   W12
 BYTE   Bn3
 BYTE   W12
 BYTE   An3
 BYTE   W12
 BYTE   Cn4
 BYTE   W12
 BYTE   Bn3
 BYTE   W12
 BYTE   En4
 BYTE   W12
 BYTE   Dn4
 BYTE   W11
 BYTE   PAN  c_v+0
 BYTE   VOL  38*song010B_mvl/mxv
 BYTE   W01
//  #03 //027   ----------------------------------------
 BYTE   N23 Cn4 v100
 BYTE   W24
 BYTE   Fn4
 BYTE   W24
 BYTE   N44 En4
 BYTE   W48
//  #03 //028   ----------------------------------------
Label_011872B5:
 BYTE   N23 Cn4 v100
 BYTE   W24
 BYTE   Fn4
 BYTE   W24
 BYTE   En4
 BYTE   W24
 BYTE   Cs4
 BYTE   W24
 BYTE   PEND 
//  #03 //029   ----------------------------------------
Label_011872C0:
 BYTE   N23 Cn4 v100
 BYTE   W24
 BYTE   Fn4
 BYTE   W24
 BYTE   Gn4
 BYTE   W24
 BYTE   Gs4
 BYTE   W24
 BYTE   PEND 
//  #03 //030   ----------------------------------------
 BYTE   As4
 BYTE   W24
 BYTE   Fn4
 BYTE   W24
 BYTE   Gs4
 BYTE   W24
 BYTE   Gn4
 BYTE   W24
//  #03 //031   ----------------------------------------
 BYTE   N32 Ds4
 BYTE   W36
 BYTE   N05 Cs4
 BYTE   W06
 BYTE   Ds4
 BYTE   W06
 BYTE   N44 Cn4
 BYTE   W48
//  #03 //032   ----------------------------------------
 BYTE   Dn4
 BYTE   W48
 BYTE   N11 Gn3
 BYTE   W12
 BYTE   As3
 BYTE   W12
 BYTE   Dn4
 BYTE   W12
 BYTE   N09 Fn4
 BYTE   W12
//  #03 //033   ----------------------------------------
 BYTE   N44
 BYTE   W48
 BYTE   N23 En4
 BYTE   W24
 BYTE   N02 Cn3 v112
 BYTE   W03
 BYTE   Dn3
 BYTE   W03
 BYTE   En3 v116
 BYTE   W03
 BYTE   Fn3
 BYTE   W03
 BYTE   Gn3
 BYTE   W03
 BYTE   Gs3
 BYTE   W03
 BYTE   As3 v120
 BYTE   W03
 BYTE   Bn3
 BYTE   W03
//  #03 //034   ----------------------------------------
 BYTE   PATT
  POIN2 Label_011872B5
//  #03 //035   ----------------------------------------
 BYTE   PATT
  POIN2 Label_011872B5
//  #03 //036   ----------------------------------------
 BYTE   PATT
  POIN2 Label_011872C0
//  #03 //037   ----------------------------------------
 BYTE   N68 Cn5 v100
 BYTE   W72
 BYTE   N23 As4
 BYTE   W24
//  #03 //038   ----------------------------------------
 BYTE   Gs4
 BYTE   W24
 BYTE   Gn4
 BYTE   W24
 BYTE   N28 As4
 BYTE   W36
 BYTE   N09 Fn4
 BYTE   W12
//  #03 //039   ----------------------------------------
 BYTE   N23
 BYTE   W24
 BYTE   Ds4
 BYTE   W24
 BYTE   N40 Gs4
 BYTE   W48
//  #03 //040   ----------------------------------------
 BYTE   N44
 BYTE   W48
 BYTE   Gn4
 BYTE   W48
//  #03 //041   ----------------------------------------
 BYTE   N88 Fn4
 BYTE   W96
//  #03 //042   ----------------------------------------
 BYTE   N92
 BYTE   W96
//  #03 //043   ----------------------------------------
 BYTE   N88 Gn4
 BYTE   W92
 BYTE   W03
 BYTE   PAN  c_v-20
 BYTE   W01
//  #03 //044   ----------------------------------------
 BYTE   N44 Cn4 v092
 BYTE   W48
 BYTE   Cs4
 BYTE   W48
//  #03 //045   ----------------------------------------
 BYTE   As3 v088
 BYTE   W48
 BYTE   Gs3
 BYTE   W48
//  #03 //046   ----------------------------------------
 BYTE   N92
 BYTE   W96
//  #03 //047   ----------------------------------------
 BYTE   Fn3
 BYTE   W96
//  #03 //048   ----------------------------------------
 BYTE   N44 En3
 BYTE   W48
 BYTE   Fn3
 BYTE   W48
//  #03 //049   ----------------------------------------
 BYTE   En3
 BYTE   W48
 BYTE   Dn3
 BYTE   W48
//  #03 //050   ----------------------------------------
 BYTE   En3
 BYTE   W48
 BYTE   N48 Fn3
 BYTE   W48
//  #03 //051   ----------------------------------------
 BYTE   N44 En3
 BYTE   W48
 BYTE   N23 Dn3
 BYTE   W24
 BYTE   Dn3 v044
 BYTE   W23
 BYTE   GoTo
  POIN2 Label_011871F5
 BYTE   FINE

//**************** Track 4 (Midi-Chn.3) ****************//

song010B_004:
//  #04 //000   ----------------------------------------
 BYTE   KEYSH  song010B_key+0
 BYTE   VOICE  48
 BYTE   VOL  30*song010B_mvl/mxv
 BYTE   PAN  c_v-30
 BYTE   N44 Bn2 v076
 BYTE   W48
 BYTE   Dn3
 BYTE   W48
//  #04 //001   ----------------------------------------
 BYTE   Fn3
 BYTE   W48
 BYTE   Gs3
 BYTE   W48
//  #04 //002   ----------------------------------------
 BYTE   N88
 BYTE   W96
//  #04 //003   ----------------------------------------
Label_0118737C:
 BYTE   N92 En3 v088
 BYTE   W96
//  #04 //004   ----------------------------------------
 BYTE   Cn3
 BYTE   W96
//  #04 //005   ----------------------------------------
Label_01187382:
 BYTE   N44 Dn3 v088
 BYTE   W48
 BYTE   En3
 BYTE   W48
 BYTE   PEND 
//  #04 //006   ----------------------------------------
Label_01187389:
 BYTE   N44 Ds3 v088
 BYTE   W48
 BYTE   En3
 BYTE   W48
 BYTE   PEND 
//  #04 //007   ----------------------------------------
 BYTE   N92
 BYTE   W96
//  #04 //008   ----------------------------------------
 BYTE   Cn3
 BYTE   W96
//  #04 //009   ----------------------------------------
 BYTE   N23 Dn3
 BYTE   W24
 BYTE   En3
 BYTE   W24
 BYTE   Dn3
 BYTE   W24
 BYTE   En3
 BYTE   W24
//  #04 //010   ----------------------------------------
 BYTE   N44 Bn2
 BYTE   W48
 BYTE   N44
 BYTE   W48
//  #04 //011   ----------------------------------------
Label_011873A2:
 BYTE   N23 Cn3 v096
 BYTE   W24
 BYTE   En3
 BYTE   W24
 BYTE   Ds3
 BYTE   W24
 BYTE   Dn3
 BYTE   W24
 BYTE   PEND 
//  #04 //012   ----------------------------------------
 BYTE   PATT
  POIN2 Label_011873A2
//  #04 //013   ----------------------------------------
 BYTE   N44 An3 v088
 BYTE   W48
 BYTE   N17 En3
 BYTE   W18
 BYTE   An3
 BYTE   W18
 BYTE   N11
 BYTE   W12
//  #04 //014   ----------------------------------------
 BYTE   N44 En3
 BYTE   W48
 BYTE   Bn2
 BYTE   W48
//  #04 //015   ----------------------------------------
 BYTE   N64 Cn3
 BYTE   W66
 BYTE   N16 Dn3
 BYTE   W18
 BYTE   N10 Fn3
 BYTE   W12
//  #04 //016   ----------------------------------------
 BYTE   PATT
  POIN2 Label_01187382
//  #04 //017   ----------------------------------------
 BYTE   N44 Fn3 v088
 BYTE   W48
 BYTE   N23 En3
 BYTE   W24
 BYTE   Gs3
 BYTE   W24
//  #04 //018   ----------------------------------------
 BYTE   An3
 BYTE   W24
 BYTE   N17 En3
 BYTE   W24
 BYTE   N17
 BYTE   W18
 BYTE   N16 Ds3
 BYTE   W18
 BYTE   N10 En3
 BYTE   W12
//  #04 //019   ----------------------------------------
 BYTE   N44
 BYTE   W48
 BYTE   Ds3
 BYTE   W48
//  #04 //020   ----------------------------------------
 BYTE   PATT
  POIN2 Label_01187389
//  #04 //021   ----------------------------------------
 BYTE   N92 En3 v088
 BYTE   W96
//  #04 //022   ----------------------------------------
 BYTE   Cn3
 BYTE   W96
//  #04 //023   ----------------------------------------
 BYTE   PATT
  POIN2 Label_01187382
//  #04 //024   ----------------------------------------
 BYTE   PATT
  POIN2 Label_01187389
//  #04 //025   ----------------------------------------
 BYTE   N22 Cn3 v096
 BYTE   W24
 BYTE   En3
 BYTE   W24
 BYTE   Ds3
 BYTE   W24
 BYTE   Dn3
 BYTE   W24
//  #04 //026   ----------------------------------------
 BYTE   N10 Cn3 v088
 BYTE   W96
//  #04 //027   ----------------------------------------
 BYTE   W96
//  #04 //028   ----------------------------------------
 BYTE   W96
//  #04 //029   ----------------------------------------
 BYTE   W96
//  #04 //030   ----------------------------------------
 BYTE   W96
//  #04 //031   ----------------------------------------
 BYTE   W96
//  #04 //032   ----------------------------------------
 BYTE   W96
//  #04 //033   ----------------------------------------
 BYTE   W96
//  #04 //034   ----------------------------------------
 BYTE   W96
//  #04 //035   ----------------------------------------
 BYTE   W96
//  #04 //036   ----------------------------------------
 BYTE   W96
//  #04 //037   ----------------------------------------
 BYTE   W96
//  #04 //038   ----------------------------------------
 BYTE   W96
//  #04 //039   ----------------------------------------
 BYTE   W96
//  #04 //040   ----------------------------------------
 BYTE   N44 Cs4
 BYTE   W48
 BYTE   Cn4
 BYTE   W48
//  #04 //041   ----------------------------------------
 BYTE   N88 As3
 BYTE   W96
//  #04 //042   ----------------------------------------
 BYTE   N92
 BYTE   W96
//  #04 //043   ----------------------------------------
 BYTE   N84 Cn4
 BYTE   W96
//  #04 //044   ----------------------------------------
 BYTE   N44 Gs3 v092
 BYTE   W48
 BYTE   As3
 BYTE   W48
//  #04 //045   ----------------------------------------
 BYTE   Gn3 v088
 BYTE   W48
 BYTE   Fn3
 BYTE   W48
//  #04 //046   ----------------------------------------
 BYTE   N92
 BYTE   W96
//  #04 //047   ----------------------------------------
 BYTE   Cs3
 BYTE   W96
//  #04 //048   ----------------------------------------
 BYTE   N44 Cn3
 BYTE   W48
 BYTE   Dn3
 BYTE   W48
//  #04 //049   ----------------------------------------
 BYTE   Cn3
 BYTE   W48
 BYTE   Bn2
 BYTE   W48
//  #04 //050   ----------------------------------------
 BYTE   Cn3
 BYTE   W48
 BYTE   N48 Dn3
 BYTE   W48
//  #04 //051   ----------------------------------------
 BYTE   N44 Cn3
 BYTE   W48
 BYTE   N23 Bn2
 BYTE   W24
 BYTE   Bn2 v044
 BYTE   W23
 BYTE   GoTo
  POIN2 Label_0118737C
 BYTE   FINE

//**************** Track 5 (Midi-Chn.4) ****************//

song010B_005:
//  #05 //000   ----------------------------------------
 BYTE   KEYSH  song010B_key+0
 BYTE   VOICE  51
 BYTE   VOL  35*song010B_mvl/mxv
 BYTE   PAN  c_v+15
 BYTE   N44 Dn2 v088
 BYTE   W48
 BYTE   Fn2
 BYTE   W48
//  #05 //001   ----------------------------------------
 BYTE   Gs2
 BYTE   W48
 BYTE   Bn2
 BYTE   W48
//  #05 //002   ----------------------------------------
 BYTE   N88 Dn3
 BYTE   W96
//  #05 //003   ----------------------------------------
Label_01187469:
 BYTE   N44 An2 v088
 BYTE   W48
 BYTE   Gn2
 BYTE   W48
 BYTE   PEND 
//  #05 //004   ----------------------------------------
Label_01187470:
 BYTE   N44 Fn2 v088
 BYTE   W48
 BYTE   En2
 BYTE   W48
 BYTE   PEND 
//  #05 //005   ----------------------------------------
 BYTE   N23 Fn2
 BYTE   W24
 BYTE   En2
 BYTE   W24
 BYTE   Gs2
 BYTE   W24
 BYTE   An2
 BYTE   W24
//  #05 //006   ----------------------------------------
Label_01187480:
 BYTE   N44 Ds2 v088
 BYTE   W48
 BYTE   En2
 BYTE   W48
 BYTE   PEND 
//  #05 //007   ----------------------------------------
 BYTE   PATT
  POIN2 Label_01187469
//  #05 //008   ----------------------------------------
 BYTE   PATT
  POIN2 Label_01187470
//  #05 //009   ----------------------------------------
 BYTE   N23 Fn2 v088
 BYTE   W24
 BYTE   N44 Gs2
 BYTE   W48
 BYTE   N23 En2
 BYTE   W24
//  #05 //010   ----------------------------------------
 BYTE   PATT
  POIN2 Label_01187480
//  #05 //011   ----------------------------------------
 BYTE   N92 An2 v096
 BYTE   W96
//  #05 //012   ----------------------------------------
 BYTE   N88
 BYTE   W96
//  #05 //013   ----------------------------------------
 BYTE   N92 An2 v088
 BYTE   W96
//  #05 //014   ----------------------------------------
 BYTE   N44 Bn2
 BYTE   W48
 BYTE   Gn2
 BYTE   W48
//  #05 //015   ----------------------------------------
 BYTE   N64 An2
 BYTE   W66
 BYTE   N17 Gn2
 BYTE   W18
 BYTE   N11 Fn2
 BYTE   W12
//  #05 //016   ----------------------------------------
 BYTE   N44 En2
 BYTE   W48
 BYTE   An2
 BYTE   W48
//  #05 //017   ----------------------------------------
 BYTE   N44
 BYTE   W48
 BYTE   N23 Gs2
 BYTE   W24
 BYTE   Bn2
 BYTE   W24
//  #05 //018   ----------------------------------------
 BYTE   N44 Cn3
 BYTE   W48
 BYTE   An2
 BYTE   W48
//  #05 //019   ----------------------------------------
 BYTE   N92 Fs2
 BYTE   W96
//  #05 //020   ----------------------------------------
 BYTE   N44 An2
 BYTE   W48
 BYTE   Gs2
 BYTE   W48
//  #05 //021   ----------------------------------------
 BYTE   PATT
  POIN2 Label_01187469
//  #05 //022   ----------------------------------------
 BYTE   PATT
  POIN2 Label_01187470
//  #05 //023   ----------------------------------------
 BYTE   N44 Fn2 v088
 BYTE   W48
 BYTE   Cn3
 BYTE   W48
//  #05 //024   ----------------------------------------
 BYTE   N92 Bn2
 BYTE   W96
//  #05 //025   ----------------------------------------
 BYTE   An2 v096
 BYTE   W96
//  #05 //026   ----------------------------------------
 BYTE   PAN  c_v-40
 BYTE   W24
 BYTE   N22 En3 v108
 BYTE   W24
 BYTE   Ds3
 BYTE   W24
 BYTE   Dn3
 BYTE   W24
//  #05 //027   ----------------------------------------
Label_011874F2:
 BYTE   N23 Fn3 v088
 BYTE   W24
 BYTE   Gs3
 BYTE   W24
 BYTE   N44 As3
 BYTE   W48
 BYTE   PEND 
//  #05 //028   ----------------------------------------
 BYTE   PATT
  POIN2 Label_011874F2
//  #05 //029   ----------------------------------------
Label_01187501:
 BYTE   N23 Gs3 v088
 BYTE   W24
 BYTE   N68 Cn4
 BYTE   W72
 BYTE   PEND 
//  #05 //030   ----------------------------------------
 BYTE   N44 Dn4
 BYTE   W48
 BYTE   As3
 BYTE   W48
//  #05 //031   ----------------------------------------
 BYTE   N68 Gn3
 BYTE   W72
 BYTE   N23 Fn3
 BYTE   W24
//  #05 //032   ----------------------------------------
 BYTE   N92
 BYTE   W96
//  #05 //033   ----------------------------------------
Label_01187516:
 BYTE   N44 Gs3 v088
 BYTE   W48
 BYTE   Gn3
 BYTE   W48
 BYTE   PEND 
//  #05 //034   ----------------------------------------
 BYTE   PATT
  POIN2 Label_01187516
//  #05 //035   ----------------------------------------
 BYTE   N44 Gs3 v088
 BYTE   W48
 BYTE   As3
 BYTE   W48
//  #05 //036   ----------------------------------------
 BYTE   PATT
  POIN2 Label_01187501
//  #05 //037   ----------------------------------------
 BYTE   N92 Gs3 v088
 BYTE   W96
//  #05 //038   ----------------------------------------
 BYTE   As3
 BYTE   W96
//  #05 //039   ----------------------------------------
 BYTE   N44 Gn3
 BYTE   W48
 BYTE   Fn3
 BYTE   W48
//  #05 //040   ----------------------------------------
 BYTE   N44
 BYTE   W48
 BYTE   Gn3
 BYTE   W48
//  #05 //041   ----------------------------------------
 BYTE   N88 Gs3
 BYTE   W96
//  #05 //042   ----------------------------------------
 BYTE   N92 Fn3
 BYTE   W96
//  #05 //043   ----------------------------------------
 BYTE   N84 Gn3
 BYTE   W92
 BYTE   W03
 BYTE   PAN  c_v+30
 BYTE   W01
//  #05 //044   ----------------------------------------
 BYTE   N44 Cn3
 BYTE   W48
 BYTE   Cs3
 BYTE   W48
//  #05 //045   ----------------------------------------
 BYTE   Fn3
 BYTE   W48
 BYTE   Fn2
 BYTE   W48
//  #05 //046   ----------------------------------------
 BYTE   N44
 BYTE   W48
 BYTE   Gn2
 BYTE   W48
//  #05 //047   ----------------------------------------
 BYTE   Gs2
 BYTE   W48
 BYTE   As2
 BYTE   W48
//  #05 //048   ----------------------------------------
Label_0118755A:
 BYTE   N44 An2 v084
 BYTE   W48
 BYTE   Bn2
 BYTE   W48
 BYTE   PEND 
//  #05 //049   ----------------------------------------
 BYTE   An2
 BYTE   W48
 BYTE   Gs2
 BYTE   W48
//  #05 //050   ----------------------------------------
 BYTE   PATT
  POIN2 Label_0118755A
//  #05 //051   ----------------------------------------
 BYTE   N44 An2 v084
 BYTE   W48
 BYTE   N23 Gs2
 BYTE   W36
 BYTE   PAN  c_v+15
 BYTE   W11
 BYTE   GoTo
  POIN2 Label_01187469
 BYTE   FINE

//**************** Track 6 (Midi-Chn.5) ****************//

song010B_006:
//  #06 //000   ----------------------------------------
 BYTE   KEYSH  song010B_key+0
 BYTE   VOICE  2
 BYTE   VOL  37*song010B_mvl/mxv
 BYTE   PAN  c_v+30
 BYTE   N92 Fn1 v127
 BYTE   W96
//  #06 //001   ----------------------------------------
 BYTE   En1
 BYTE   W96
//  #06 //002   ----------------------------------------
 BYTE   N44 Bn1
 BYTE   W48
 BYTE   En1
 BYTE   W48
//  #06 //003   ----------------------------------------
Label_0118758F:
 BYTE   W96
//  #06 //004   ----------------------------------------
 BYTE   W96
//  #06 //005   ----------------------------------------
 BYTE   W96
//  #06 //006   ----------------------------------------
 BYTE   W96
//  #06 //007   ----------------------------------------
 BYTE   W96
//  #06 //008   ----------------------------------------
 BYTE   W96
//  #06 //009   ----------------------------------------
 BYTE   W96
//  #06 //010   ----------------------------------------
 BYTE   W96
//  #06 //011   ----------------------------------------
 BYTE   W96
//  #06 //012   ----------------------------------------
 BYTE   W96
//  #06 //013   ----------------------------------------
 BYTE   W96
//  #06 //014   ----------------------------------------
 BYTE   W96
//  #06 //015   ----------------------------------------
 BYTE   W96
//  #06 //016   ----------------------------------------
 BYTE   W96
//  #06 //017   ----------------------------------------
 BYTE   W96
//  #06 //018   ----------------------------------------
 BYTE   W96
//  #06 //019   ----------------------------------------
 BYTE   W96
//  #06 //020   ----------------------------------------
 BYTE   W96
//  #06 //021   ----------------------------------------
 BYTE   W96
//  #06 //022   ----------------------------------------
 BYTE   W96
//  #06 //023   ----------------------------------------
 BYTE   W96
//  #06 //024   ----------------------------------------
 BYTE   W96
//  #06 //025   ----------------------------------------
 BYTE   W96
//  #06 //026   ----------------------------------------
 BYTE   PAN  c_v+40
 BYTE   W24
 BYTE   N22 Gn2 v108
 BYTE   W24
 BYTE   Fs2
 BYTE   W24
 BYTE   Fn2
 BYTE   W24
//  #06 //027   ----------------------------------------
Label_011875B1:
 BYTE   N23 Gs2 v088
 BYTE   W24
 BYTE   Cn3
 BYTE   W24
 BYTE   N44 Cs3
 BYTE   W48
 BYTE   PEND 
//  #06 //028   ----------------------------------------
 BYTE   PATT
  POIN2 Label_011875B1
//  #06 //029   ----------------------------------------
Label_011875C0:
 BYTE   N23 Fn3 v088
 BYTE   W24
 BYTE   Gs3
 BYTE   W24
 BYTE   Gn3
 BYTE   W24
 BYTE   Fs3
 BYTE   W24
 BYTE   PEND 
//  #06 //030   ----------------------------------------
 BYTE   N44 Fn3
 BYTE   W48
 BYTE   Ds3
 BYTE   W48
//  #06 //031   ----------------------------------------
 BYTE   As2
 BYTE   W48
 BYTE   Gs2
 BYTE   W48
//  #06 //032   ----------------------------------------
 BYTE   N92 As2
 BYTE   W96
//  #06 //033   ----------------------------------------
 BYTE   N44 Cs3
 BYTE   W48
 BYTE   Cn3
 BYTE   W48
//  #06 //034   ----------------------------------------
 BYTE   N44
 BYTE   W48
 BYTE   As2
 BYTE   W48
//  #06 //035   ----------------------------------------
 BYTE   Cn3
 BYTE   W48
 BYTE   N23 Cs3
 BYTE   W24
 BYTE   Fn3
 BYTE   W24
//  #06 //036   ----------------------------------------
 BYTE   PATT
  POIN2 Label_011875C0
//  #06 //037   ----------------------------------------
 BYTE   N44 Fn3 v088
 BYTE   W48
 BYTE   Dn3
 BYTE   W48
//  #06 //038   ----------------------------------------
 BYTE   Cs3
 BYTE   W48
 BYTE   Ds3
 BYTE   W48
//  #06 //039   ----------------------------------------
 BYTE   As2
 BYTE   W48
 BYTE   Bn2
 BYTE   W48
//  #06 //040   ----------------------------------------
 BYTE   As2
 BYTE   W48
 BYTE   Cn3
 BYTE   W48
//  #06 //041   ----------------------------------------
 BYTE   N88 Cs3
 BYTE   W96
//  #06 //042   ----------------------------------------
 BYTE   N92
 BYTE   W96
//  #06 //043   ----------------------------------------
 BYTE   N84 En3
 BYTE   W96
//  #06 //044   ----------------------------------------
 BYTE   W96
//  #06 //045   ----------------------------------------
 BYTE   W96
//  #06 //046   ----------------------------------------
 BYTE   W96
//  #06 //047   ----------------------------------------
 BYTE   W96
//  #06 //048   ----------------------------------------
 BYTE   W96
//  #06 //049   ----------------------------------------
 BYTE   W96
//  #06 //050   ----------------------------------------
 BYTE   W96
//  #06 //051   ----------------------------------------
 BYTE   W92
 BYTE   W03
 BYTE   GoTo
  POIN2 Label_0118758F
 BYTE   FINE

//**************** Track 7 (Midi-Chn.6) ****************//

song010B_007:
//  #07 //000   ----------------------------------------
 BYTE   KEYSH  song010B_key+0
 BYTE   VOICE  46
 BYTE   VOL  35*song010B_mvl/mxv
 BYTE   PAN  c_v+20
 BYTE   W24
 BYTE   N05 Bn1 v104
 BYTE   W06
 BYTE   Fn2
 BYTE   W06
 BYTE   Gs2 v108
 BYTE   W06
 BYTE   Bn2
 BYTE   W06
 BYTE   En3
 BYTE   W06
 BYTE   Fn3
 BYTE   W06
 BYTE   Gs3
 BYTE   W06
 BYTE   Bn3
 BYTE   W06
 BYTE   En4
 BYTE   W06
 BYTE   Bn3
 BYTE   W06
 BYTE   Gs3
 BYTE   W06
 BYTE   Fn3
 BYTE   W06
//  #07 //001   ----------------------------------------
 BYTE   Fn2
 BYTE   W06
 BYTE   Gs2 v112
 BYTE   W06
 BYTE   Bn2
 BYTE   W06
 BYTE   En3
 BYTE   W06
 BYTE   Fn3 v108
 BYTE   W06
 BYTE   Gs3
 BYTE   W06
 BYTE   Bn3
 BYTE   W06
 BYTE   En4
 BYTE   W06
 BYTE   Fn3
 BYTE   W06
 BYTE   Gs3
 BYTE   W06
 BYTE   Bn3
 BYTE   W06
 BYTE   En4
 BYTE   W06
 BYTE   Fn4
 BYTE   W06
 BYTE   Gs4
 BYTE   W06
 BYTE   Bn4
 BYTE   W06
 BYTE   Dn5
 BYTE   W06
//  #07 //002   ----------------------------------------
 BYTE   N44 Dn4 v104
 BYTE   N68 Fn5 v108
 BYTE   W96
//  #07 //003   ----------------------------------------
Label_01187665:
 BYTE   W96
//  #07 //004   ----------------------------------------
 BYTE   W96
//  #07 //005   ----------------------------------------
 BYTE   W96
//  #07 //006   ----------------------------------------
 BYTE   W96
//  #07 //007   ----------------------------------------
 BYTE   W96
//  #07 //008   ----------------------------------------
 BYTE   W96
//  #07 //009   ----------------------------------------
 BYTE   W96
//  #07 //010   ----------------------------------------
 BYTE   W96
//  #07 //011   ----------------------------------------
Label_0118766D:
 BYTE   N22 En3 v100
 BYTE   N22 En4
 BYTE   W24
 BYTE   Gn3 v088
 BYTE   N22 Gn4
 BYTE   W24
 BYTE   Fs3
 BYTE   N22 Fs4
 BYTE   W24
 BYTE   Fn3
 BYTE   N22 Fn4
 BYTE   W24
 BYTE   PEND 
//  #07 //012   ----------------------------------------
 BYTE   PATT
  POIN2 Label_0118766D
//  #07 //013   ----------------------------------------
 BYTE   N22 En3 v100
 BYTE   N22 En4
 BYTE   W96
//  #07 //014   ----------------------------------------
 BYTE   W96
//  #07 //015   ----------------------------------------
 BYTE   W96
//  #07 //016   ----------------------------------------
 BYTE   W96
//  #07 //017   ----------------------------------------
 BYTE   W96
//  #07 //018   ----------------------------------------
 BYTE   W96
//  #07 //019   ----------------------------------------
 BYTE   W96
//  #07 //020   ----------------------------------------
 BYTE   W96
//  #07 //021   ----------------------------------------
 BYTE   W96
//  #07 //022   ----------------------------------------
 BYTE   W96
//  #07 //023   ----------------------------------------
 BYTE   W96
//  #07 //024   ----------------------------------------
 BYTE   W96
//  #07 //025   ----------------------------------------
 BYTE   PATT
  POIN2 Label_0118766D
//  #07 //026   ----------------------------------------
 BYTE   PATT
  POIN2 Label_0118766D
//  #07 //027   ----------------------------------------
 BYTE   W12
 BYTE   N11 Cn4 v108
 BYTE   W12
 BYTE   Cn5 v096
 BYTE   W12
 BYTE   Cn4 v108
 BYTE   W24
 BYTE   N11
 BYTE   W12
 BYTE   N10 Cn5 v096
 BYTE   W12
 BYTE   N05 Cn4 v108
 BYTE   W06
 BYTE   N17 Cn5
 BYTE   W06
//  #07 //028   ----------------------------------------
 BYTE   W12
 BYTE   N11 Cn4
 BYTE   W12
 BYTE   N05 Cn5
 BYTE   W12
 BYTE   Cn4
 BYTE   W24
 BYTE   N11
 BYTE   W12
 BYTE   Cn5 v096
 BYTE   W12
 BYTE   N05 Cn4 v108
 BYTE   W06
 BYTE   N17 Cn5
 BYTE   W06
//  #07 //029   ----------------------------------------
Label_011876CE:
 BYTE   W12
 BYTE   N11 Cn4 v108
 BYTE   W12
 BYTE   Cn5 v096
 BYTE   W12
 BYTE   Cn4 v108
 BYTE   W24
 BYTE   N11
 BYTE   W12
 BYTE   Cn5 v096
 BYTE   W12
 BYTE   N05 Cn4 v108
 BYTE   W06
 BYTE   N17 Cn5
 BYTE   W06
 BYTE   PEND 
//  #07 //030   ----------------------------------------
 BYTE   W12
 BYTE   N11 Dn4
 BYTE   W12
 BYTE   Dn5 v096
 BYTE   W12
 BYTE   Dn4 v108
 BYTE   W24
 BYTE   Ds4
 BYTE   W12
 BYTE   Ds5 v096
 BYTE   W12
 BYTE   N05 Ds4 v108
 BYTE   W06
 BYTE   N17 Ds5 v096
 BYTE   W06
//  #07 //031   ----------------------------------------
 BYTE   W12
 BYTE   N11 Cn4 v108
 BYTE   W12
 BYTE   Cn5 v096
 BYTE   W12
 BYTE   Cn4 v108
 BYTE   W24
 BYTE   N11
 BYTE   W12
 BYTE   Cn5 v096
 BYTE   W12
 BYTE   N23 Cn4 v108
 BYTE   W12
//  #07 //032   ----------------------------------------
 BYTE   W12
 BYTE   N10 Gn3
 BYTE   W12
 BYTE   Gn4 v096
 BYTE   W12
 BYTE   Gn3 v108
 BYTE   W24
 BYTE   N10
 BYTE   W12
 BYTE   N11 Gn4 v096
 BYTE   W12
 BYTE   N05 Gn3 v108
 BYTE   W06
 BYTE   N16 Gn4
 BYTE   W06
//  #07 //033   ----------------------------------------
 BYTE   W12
 BYTE   N11 Cn4
 BYTE   W12
 BYTE   Cn5 v096
 BYTE   W12
 BYTE   Cn4 v108
 BYTE   W24
 BYTE   N11
 BYTE   W12
 BYTE   N09 Cn5 v096
 BYTE   W12
 BYTE   N05 Cn4 v108
 BYTE   W06
 BYTE   N14 Cn5
 BYTE   W06
//  #07 //034   ----------------------------------------
 BYTE   W12
 BYTE   N10 Cn4
 BYTE   W12
 BYTE   Cn5 v096
 BYTE   W12
 BYTE   Cn4 v108
 BYTE   W24
 BYTE   N10
 BYTE   W12
 BYTE   N11 Cn5 v096
 BYTE   W12
 BYTE   N05 Cn4 v108
 BYTE   W06
 BYTE   N17 Cn5
 BYTE   W06
//  #07 //035   ----------------------------------------
 BYTE   W12
 BYTE   N11 Cn4
 BYTE   W12
 BYTE   N09 Cn5
 BYTE   W12
 BYTE   N17 Cn4
 BYTE   W24
 BYTE   N12
 BYTE   W12
 BYTE   N11 Cn5 v096
 BYTE   W12
 BYTE   N05 Cn4 v108
 BYTE   W06
 BYTE   N17 Cn5
 BYTE   W06
//  #07 //036   ----------------------------------------
 BYTE   PATT
  POIN2 Label_011876CE
//  #07 //037   ----------------------------------------
 BYTE   W12
 BYTE   N11 Dn4 v108
 BYTE   W12
 BYTE   Dn5 v096
 BYTE   W12
 BYTE   Dn4 v108
 BYTE   W24
 BYTE   As3
 BYTE   W12
 BYTE   As4 v096
 BYTE   W12
 BYTE   N05 As3 v108
 BYTE   W06
 BYTE   N17 As4 v096
 BYTE   W06
//  #07 //038   ----------------------------------------
 BYTE   W12
 BYTE   N11 As3 v108
 BYTE   W12
 BYTE   As4 v096
 BYTE   W12
 BYTE   As3 v108
 BYTE   W24
 BYTE   N11
 BYTE   W12
 BYTE   As4 v096
 BYTE   W12
 BYTE   N05 As3 v108
 BYTE   W06
 BYTE   N17 As4 v096
 BYTE   W06
//  #07 //039   ----------------------------------------
 BYTE   W12
 BYTE   N11 As3 v108
 BYTE   W12
 BYTE   As4 v096
 BYTE   W12
 BYTE   As3 v108
 BYTE   W24
 BYTE   Gs3
 BYTE   W12
 BYTE   Gs4 v096
 BYTE   W12
 BYTE   N05 Gs3 v108
 BYTE   W06
 BYTE   N17 Gs4 v096
 BYTE   W06
//  #07 //040   ----------------------------------------
 BYTE   W12
 BYTE   N11 Gs3 v108
 BYTE   W12
 BYTE   Gs4 v096
 BYTE   W12
 BYTE   Gs3 v108
 BYTE   W24
 BYTE   N10 As3
 BYTE   W12
 BYTE   N11 As4 v096
 BYTE   W12
 BYTE   N05 As3 v108
 BYTE   W06
 BYTE   N17 As4 v096
 BYTE   W06
//  #07 //041   ----------------------------------------
 BYTE   W12
 BYTE   N10 Gs3 v108
 BYTE   W12
 BYTE   Gs4 v096
 BYTE   W12
 BYTE   Gs3 v108
 BYTE   W24
 BYTE   N17 Cs3
 BYTE   W18
 BYTE   N05 Fn3
 BYTE   W06
 BYTE   Gs3
 BYTE   W06
 BYTE   Cs4
 BYTE   W06
//  #07 //042   ----------------------------------------
 BYTE   Fn4
 BYTE   W06
 BYTE   Gs4
 BYTE   W06
 BYTE   Cs5
 BYTE   W06
 BYTE   Fn5
 BYTE   W06
 BYTE   Cs5
 BYTE   W06
 BYTE   Gs4
 BYTE   W06
 BYTE   Fn4
 BYTE   W06
 BYTE   Cs4
 BYTE   W06
 BYTE   Cs5
 BYTE   W06
 BYTE   Gs4
 BYTE   W06
 BYTE   Fn4
 BYTE   W06
 BYTE   Cs4
 BYTE   W06
 BYTE   Gs4
 BYTE   W06
 BYTE   Fn4
 BYTE   W06
 BYTE   Cs4
 BYTE   W06
 BYTE   Gs3
 BYTE   W06
//  #07 //043   ----------------------------------------
 BYTE   Gn3
 BYTE   W06
 BYTE   Cn4
 BYTE   W06
 BYTE   En4
 BYTE   W06
 BYTE   Gn4
 BYTE   W06
 BYTE   Cn5
 BYTE   W06
 BYTE   Gn4 v096
 BYTE   W06
 BYTE   En4 v108
 BYTE   W06
 BYTE   Cn4
 BYTE   W06
 BYTE   En4
 BYTE   W06
 BYTE   Cn4
 BYTE   W06
 BYTE   Gn3
 BYTE   W06
 BYTE   En3
 BYTE   W06
 BYTE   Cn4 v096
 BYTE   W06
 BYTE   Gn3
 BYTE   W06
 BYTE   En3 v108
 BYTE   W06
 BYTE   N17 Cn3
 BYTE   W06
//  #07 //044   ----------------------------------------
Label_0118782E:
 BYTE   W12
 BYTE   N11 Fn3 v100
 BYTE   W12
 BYTE   Fn4
 BYTE   W12
 BYTE   Fn3
 BYTE   W24
 BYTE   Gn3
 BYTE   W12
 BYTE   Gn4
 BYTE   W12
 BYTE   Gn3
 BYTE   W12
 BYTE   PEND 
//  #07 //045   ----------------------------------------
 BYTE   W12
 BYTE   As3
 BYTE   W12
 BYTE   As4
 BYTE   W12
 BYTE   As3
 BYTE   W24
 BYTE   Gs3
 BYTE   W12
 BYTE   Gs4
 BYTE   W12
 BYTE   Gs3
 BYTE   W12
//  #07 //046   ----------------------------------------
 BYTE   PATT
  POIN2 Label_0118782E
//  #07 //047   ----------------------------------------
 BYTE   W12
 BYTE   N11 Gs3 v100
 BYTE   W12
 BYTE   Gs4
 BYTE   W12
 BYTE   Gs3
 BYTE   W24
 BYTE   As3
 BYTE   W12
 BYTE   As4
 BYTE   W12
 BYTE   As3
 BYTE   W12
//  #07 //048   ----------------------------------------
 BYTE   W12
 BYTE   En3 v104
 BYTE   W12
 BYTE   Cn4 v108
 BYTE   W12
 BYTE   En3
 BYTE   W24
 BYTE   Fn3
 BYTE   W12
 BYTE   Dn4
 BYTE   W12
 BYTE   Fn3
 BYTE   W12
//  #07 //049   ----------------------------------------
 BYTE   W12
 BYTE   En3
 BYTE   W12
 BYTE   Cn4
 BYTE   W12
 BYTE   En3
 BYTE   W24
 BYTE   Dn3
 BYTE   W12
 BYTE   Bn3
 BYTE   W12
 BYTE   Dn3
 BYTE   W12
//  #07 //050   ----------------------------------------
 BYTE   W12
 BYTE   En3
 BYTE   W12
 BYTE   Cn4
 BYTE   W12
 BYTE   En3
 BYTE   W24
 BYTE   Fn3
 BYTE   W12
 BYTE   Dn4
 BYTE   W12
 BYTE   Fn3
 BYTE   W12
//  #07 //051   ----------------------------------------
 BYTE   W12
 BYTE   En3
 BYTE   W12
 BYTE   Cn4
 BYTE   W12
 BYTE   En3
 BYTE   W24
 BYTE   Dn3
 BYTE   W12
 BYTE   En3
 BYTE   W23
 BYTE   GoTo
  POIN2 Label_01187665
 BYTE   FINE

//**************** Track 8 (Midi-Chn.7) ****************//

song010B_008:
//  #08 //000   ----------------------------------------
 BYTE   KEYSH  song010B_key+0
 BYTE   VOICE  50
 BYTE   VOL  35*song010B_mvl/mxv
 BYTE   PAN  c_v+20
 BYTE   N92 Fn1 v127
 BYTE   W96
//  #08 //001   ----------------------------------------
 BYTE   En1
 BYTE   W96
//  #08 //002   ----------------------------------------
 BYTE   N44 Bn1
 BYTE   W48
 BYTE   En1
 BYTE   W48
//  #08 //003   ----------------------------------------
Label_011878AF:
 BYTE   W96
//  #08 //004   ----------------------------------------
 BYTE   W96
//  #08 //005   ----------------------------------------
 BYTE   W96
//  #08 //006   ----------------------------------------
 BYTE   W96
//  #08 //007   ----------------------------------------
 BYTE   W96
//  #08 //008   ----------------------------------------
 BYTE   W96
//  #08 //009   ----------------------------------------
 BYTE   W96
//  #08 //010   ----------------------------------------
 BYTE   W96
//  #08 //011   ----------------------------------------
 BYTE   W96
//  #08 //012   ----------------------------------------
 BYTE   W96
//  #08 //013   ----------------------------------------
 BYTE   W96
//  #08 //014   ----------------------------------------
 BYTE   W96
//  #08 //015   ----------------------------------------
 BYTE   W96
//  #08 //016   ----------------------------------------
 BYTE   W96
//  #08 //017   ----------------------------------------
 BYTE   W96
//  #08 //018   ----------------------------------------
 BYTE   W96
//  #08 //019   ----------------------------------------
 BYTE   W96
//  #08 //020   ----------------------------------------
 BYTE   W96
//  #08 //021   ----------------------------------------
 BYTE   W96
//  #08 //022   ----------------------------------------
 BYTE   W96
//  #08 //023   ----------------------------------------
 BYTE   W96
//  #08 //024   ----------------------------------------
 BYTE   W96
//  #08 //025   ----------------------------------------
 BYTE   W96
//  #08 //026   ----------------------------------------
 BYTE   W96
//  #08 //027   ----------------------------------------
 BYTE   W96
//  #08 //028   ----------------------------------------
 BYTE   W96
//  #08 //029   ----------------------------------------
 BYTE   W96
//  #08 //030   ----------------------------------------
 BYTE   W96
//  #08 //031   ----------------------------------------
 BYTE   W96
//  #08 //032   ----------------------------------------
 BYTE   W96
//  #08 //033   ----------------------------------------
 BYTE   W96
//  #08 //034   ----------------------------------------
 BYTE   W96
//  #08 //035   ----------------------------------------
 BYTE   W96
//  #08 //036   ----------------------------------------
 BYTE   W96
//  #08 //037   ----------------------------------------
 BYTE   W96
//  #08 //038   ----------------------------------------
 BYTE   W96
//  #08 //039   ----------------------------------------
 BYTE   W96
//  #08 //040   ----------------------------------------
 BYTE   W96
//  #08 //041   ----------------------------------------
 BYTE   W96
//  #08 //042   ----------------------------------------
 BYTE   W96
//  #08 //043   ----------------------------------------
 BYTE   W96
//  #08 //044   ----------------------------------------
 BYTE   W96
//  #08 //045   ----------------------------------------
 BYTE   W96
//  #08 //046   ----------------------------------------
 BYTE   W96
//  #08 //047   ----------------------------------------
 BYTE   W96
//  #08 //048   ----------------------------------------
 BYTE   W96
//  #08 //049   ----------------------------------------
 BYTE   W96
//  #08 //050   ----------------------------------------
 BYTE   W96
//  #08 //051   ----------------------------------------
 BYTE   W92
 BYTE   W03
 BYTE   GoTo
  POIN2 Label_011878AF
 BYTE   FINE

//**************** Track 9 (Midi-Chn.8) ****************//

song010B_009:
//  #09 //000   ----------------------------------------
 BYTE   KEYSH  song010B_key+0
 BYTE   VOICE  100
 BYTE   VOL  34*song010B_mvl/mxv
 BYTE   PAN  c_v+0
 BYTE   W96
//  #09 //001   ----------------------------------------
 BYTE   W96
//  #09 //002   ----------------------------------------
 BYTE   W72
 BYTE   N03 Ds3 v104
 BYTE   W04
 BYTE   En3
 BYTE   W04
 BYTE   Fs3 v108
 BYTE   W04
 BYTE   Gn3 v116
 BYTE   W04
 BYTE   An3
 BYTE   W04
 BYTE   Bn3 v124
 BYTE   W04
//  #09 //003   ----------------------------------------
Label_01187904:
 BYTE   N23 Cn4 v127
 BYTE   W24
 BYTE   En4
 BYTE   W24
 BYTE   N28 Bn3
 BYTE   W36
 BYTE   N11 En3
 BYTE   W12
 BYTE   PEND 
//  #09 //004   ----------------------------------------
 BYTE   N23 An3
 BYTE   W24
 BYTE   Cn4
 BYTE   W24
 BYTE   N32 Gn3
 BYTE   W36
 BYTE   N11 En3
 BYTE   W12
//  #09 //005   ----------------------------------------
 BYTE   Fn3
 BYTE   W12
 BYTE   An3
 BYTE   W12
 BYTE   Dn4
 BYTE   W12
 BYTE   Bn3
 BYTE   W12
 BYTE   N23 Cn4
 BYTE   W24
 BYTE   N05 An3
 BYTE   W12
 BYTE   Bn3
 BYTE   W06
 BYTE   Cn4
 BYTE   W06
//  #09 //006   ----------------------------------------
Label_0118792E:
 BYTE   N23 Bn3 v127
 BYTE   W24
 BYTE   Fs3
 BYTE   W24
 BYTE   An3
 BYTE   W24
 BYTE   Gs3
 BYTE   W24
 BYTE   PEND 
//  #09 //007   ----------------------------------------
 BYTE   PATT
  POIN2 Label_01187904
//  #09 //008   ----------------------------------------
 BYTE   N23 An3 v127
 BYTE   W24
 BYTE   Cn4
 BYTE   W24
 BYTE   N28 Gn3
 BYTE   W36
 BYTE   N11 En3
 BYTE   W12
//  #09 //009   ----------------------------------------
 BYTE   Fn3
 BYTE   W12
 BYTE   An3
 BYTE   W12
 BYTE   Dn4
 BYTE   W12
 BYTE   Bn3
 BYTE   W12
 BYTE   N17 Cn4
 BYTE   W24
 BYTE   N23 An3
 BYTE   W24
//  #09 //010   ----------------------------------------
 BYTE   PATT
  POIN2 Label_0118792E
//  #09 //011   ----------------------------------------
 BYTE   TIE An3 v127
 BYTE   W96
//  #09 //012   ----------------------------------------
 BYTE   W72
 BYTE   W03
 BYTE   EOT
 BYTE   W21
//  #09 //013   ----------------------------------------
 BYTE   N32 Cn4
 BYTE   W36
 BYTE   N05 An3
 BYTE   W06
 BYTE   Bn3
 BYTE   W06
 BYTE   N17 Cn4
 BYTE   W18
 BYTE   Dn4
 BYTE   W18
 BYTE   N11 En4
 BYTE   W12
//  #09 //014   ----------------------------------------
 BYTE   N44 Bn3
 BYTE   W48
 BYTE   En3
 BYTE   W48
//  #09 //015   ----------------------------------------
 BYTE   N32 An3
 BYTE   W36
 BYTE   N05 Fn3
 BYTE   W06
 BYTE   Gn3
 BYTE   W06
 BYTE   N17 An3
 BYTE   W18
 BYTE   Bn3
 BYTE   W18
 BYTE   N11 Cn4
 BYTE   W12
//  #09 //016   ----------------------------------------
 BYTE   N40 Gn3
 BYTE   W48
 BYTE   N44 En3
 BYTE   W48
//  #09 //017   ----------------------------------------
 BYTE   N17 Dn3
 BYTE   W18
 BYTE   En3
 BYTE   W18
 BYTE   N05
 BYTE   W06
 BYTE   Fn3
 BYTE   W06
 BYTE   N17 En3
 BYTE   W18
 BYTE   Gs3
 BYTE   W18
 BYTE   N11 Bn3
 BYTE   W12
//  #09 //018   ----------------------------------------
 BYTE   N17 An3
 BYTE   W18
 BYTE   Gs3
 BYTE   W18
 BYTE   N11 An3
 BYTE   W12
 BYTE   N44 Cn4
 BYTE   W48
//  #09 //019   ----------------------------------------
 BYTE   N17
 BYTE   W18
 BYTE   Bn3
 BYTE   W18
 BYTE   N11 An3
 BYTE   W12
 BYTE   N17 Bn3
 BYTE   W18
 BYTE   Fs3
 BYTE   W18
 BYTE   N11 Gs3
 BYTE   W12
//  #09 //020   ----------------------------------------
 BYTE   N44 An3
 BYTE   W48
 BYTE   N23 Gs3
 BYTE   W24
 BYTE   N03 En3 v100
 BYTE   W04
 BYTE   Fn3 v104
 BYTE   W04
 BYTE   Fs3 v108
 BYTE   W04
 BYTE   Gs3 v116
 BYTE   W04
 BYTE   An3 v120
 BYTE   W04
 BYTE   Bn3 v124
 BYTE   W04
//  #09 //021   ----------------------------------------
 BYTE   N23 Cn4 v127
 BYTE   W24
 BYTE   En4
 BYTE   W24
 BYTE   N30 Bn3
 BYTE   W36
 BYTE   N09 En3
 BYTE   W12
//  #09 //022   ----------------------------------------
 BYTE   N23 An3
 BYTE   W24
 BYTE   Cn4
 BYTE   W24
 BYTE   N30 Gn3
 BYTE   W36
 BYTE   N10 En3
 BYTE   W12
//  #09 //023   ----------------------------------------
 BYTE   Dn3
 BYTE   W12
 BYTE   En3
 BYTE   W12
 BYTE   Fn3
 BYTE   W12
 BYTE   An3
 BYTE   W12
 BYTE   N19 Cn4
 BYTE   W24
 BYTE   An3
 BYTE   W24
//  #09 //024   ----------------------------------------
 BYTE   N23 Bn3
 BYTE   W24
 BYTE   N21 Fs3
 BYTE   W24
 BYTE   N23 An3
 BYTE   W24
 BYTE   Gs3
 BYTE   W24
//  #09 //025   ----------------------------------------
 BYTE   TIE An3
 BYTE   W96
//  #09 //026   ----------------------------------------
 BYTE   W10
 BYTE   EOT
 BYTE   W84
 BYTE   W02
//  #09 //027   ----------------------------------------
 BYTE   W96
//  #09 //028   ----------------------------------------
 BYTE   W96
//  #09 //029   ----------------------------------------
 BYTE   W96
//  #09 //030   ----------------------------------------
 BYTE   W96
//  #09 //031   ----------------------------------------
 BYTE   W96
//  #09 //032   ----------------------------------------
 BYTE   W96
//  #09 //033   ----------------------------------------
 BYTE   W96
//  #09 //034   ----------------------------------------
 BYTE   W96
//  #09 //035   ----------------------------------------
 BYTE   W96
//  #09 //036   ----------------------------------------
 BYTE   W96
//  #09 //037   ----------------------------------------
 BYTE   W96
//  #09 //038   ----------------------------------------
 BYTE   W96
//  #09 //039   ----------------------------------------
 BYTE   W96
//  #09 //040   ----------------------------------------
 BYTE   W96
//  #09 //041   ----------------------------------------
 BYTE   W96
//  #09 //042   ----------------------------------------
 BYTE   W96
//  #09 //043   ----------------------------------------
 BYTE   W96
//  #09 //044   ----------------------------------------
 BYTE   PAN  c_v-20
 BYTE   W12
 BYTE   N11 Fn3 v072
 BYTE   W12
 BYTE   Fn4
 BYTE   W12
 BYTE   Fn3
 BYTE   W24
 BYTE   Gn3
 BYTE   W12
 BYTE   Gn4
 BYTE   W12
 BYTE   Gn3
 BYTE   W12
//  #09 //045   ----------------------------------------
 BYTE   W12
 BYTE   As3
 BYTE   W12
 BYTE   As4
 BYTE   W12
 BYTE   As3
 BYTE   W24
 BYTE   Gs3
 BYTE   W12
 BYTE   Gs4
 BYTE   W12
 BYTE   Gs3
 BYTE   W12
//  #09 //046   ----------------------------------------
 BYTE   W12
 BYTE   Fn3
 BYTE   W12
 BYTE   Fn4
 BYTE   W12
 BYTE   Fn3
 BYTE   W24
 BYTE   Gn3
 BYTE   W12
 BYTE   Gn4
 BYTE   W12
 BYTE   Gn3
 BYTE   W12
//  #09 //047   ----------------------------------------
 BYTE   W12
 BYTE   Gs3
 BYTE   W12
 BYTE   Gs4
 BYTE   W12
 BYTE   Gs3
 BYTE   W24
 BYTE   As3
 BYTE   W12
 BYTE   As4
 BYTE   W12
 BYTE   As3
 BYTE   W12
//  #09 //048   ----------------------------------------
 BYTE   W12
 BYTE   En3
 BYTE   W12
 BYTE   Cn4 v076
 BYTE   W12
 BYTE   En3
 BYTE   W24
 BYTE   Fn3
 BYTE   W12
 BYTE   Dn4
 BYTE   W12
 BYTE   Fn3
 BYTE   W12
//  #09 //049   ----------------------------------------
 BYTE   W12
 BYTE   En3
 BYTE   W12
 BYTE   Cn4
 BYTE   W12
 BYTE   En3
 BYTE   W24
 BYTE   Dn3
 BYTE   W12
 BYTE   Bn3
 BYTE   W12
 BYTE   Dn3
 BYTE   W12
//  #09 //050   ----------------------------------------
 BYTE   W12
 BYTE   En3
 BYTE   W12
 BYTE   Cn4
 BYTE   W12
 BYTE   En3
 BYTE   W24
 BYTE   Fn3
 BYTE   W12
 BYTE   Dn4
 BYTE   W12
 BYTE   Fn3
 BYTE   W12
//  #09 //051   ----------------------------------------
 BYTE   W12
 BYTE   En3
 BYTE   W12
 BYTE   Cn4
 BYTE   W12
 BYTE   En3
 BYTE   W24
 BYTE   PAN  c_v+0
 BYTE   W12
 BYTE   N03 Ds3 v104
 BYTE   W04
 BYTE   En3
 BYTE   W04
 BYTE   Fs3
 BYTE   W04
 BYTE   Gn3
 BYTE   W04
 BYTE   An3
 BYTE   W04
 BYTE   Bn3
 BYTE   W03
 BYTE   GoTo
  POIN2 Label_01187904
 BYTE   FINE

//**************** Track 10 (Midi-Chn.9) ****************//

song010B_010:
//  #10 //000   ----------------------------------------
 BYTE   KEYSH  song010B_key+0
 BYTE   VOICE  10
 BYTE   VOL  19*song010B_mvl/mxv
 BYTE   PAN  c_v-64
 BYTE   W96
//  #10 //001   ----------------------------------------
 BYTE   W96
//  #10 //002   ----------------------------------------
 BYTE   W72
 BYTE   PAN  c_v-60
 BYTE   N02 Ds4 v104
 BYTE   W03
 BYTE   PAN  c_v-45
 BYTE   W01
 BYTE   N02 En4
 BYTE   W02
 BYTE   PAN  c_v-27
 BYTE   W02
 BYTE   N02 Fs4 v108
 BYTE   W02
 BYTE   PAN  c_v-9
 BYTE   W02
 BYTE   N02 Gn4 v116
 BYTE   W01
 BYTE   PAN  c_v+9
 BYTE   W03
 BYTE   N02 An4
 BYTE   W01
 BYTE   PAN  c_v+26
 BYTE   W03
 BYTE   PAN  c_v+44
 BYTE   N02 Bn4 v124
 BYTE   W03
 BYTE   PAN  c_v+63
 BYTE   W01
//  #10 //003   ----------------------------------------
Label_01187AD1:
 BYTE   N23 Cn5 v127
 BYTE   W01
 BYTE   PAN  c_v+49
 BYTE   W04
 BYTE   PAN  c_v+44
 BYTE   W03
 BYTE   PAN  c_v+40
 BYTE   W03
 BYTE   PAN  c_v+36
 BYTE   W04
 BYTE   PAN  c_v+31
 BYTE   W03
 BYTE   PAN  c_v+27
 BYTE   W03
 BYTE   PAN  c_v+23
 BYTE   W03
 BYTE   N23 En5
 BYTE   W01
 BYTE   PAN  c_v+18
 BYTE   W03
 BYTE   PAN  c_v+14
 BYTE   W03
 BYTE   PAN  c_v+10
 BYTE   W04
 BYTE   PAN  c_v+5
 BYTE   W03
 BYTE   PAN  c_v+1
 BYTE   W03
 BYTE   PAN  c_v-3
 BYTE   W03
 BYTE   PAN  c_v-8
 BYTE   W04
 BYTE   PAN  c_v-12
 BYTE   N28 Bn4
 BYTE   W03
 BYTE   PAN  c_v-16
 BYTE   W03
 BYTE   PAN  c_v-21
 BYTE   W04
 BYTE   PAN  c_v-25
 BYTE   W03
 BYTE   PAN  c_v-29
 BYTE   W03
 BYTE   PAN  c_v-34
 BYTE   W04
 BYTE   PAN  c_v-38
 BYTE   W03
 BYTE   PAN  c_v-42
 BYTE   W03
 BYTE   PAN  c_v-47
 BYTE   W04
 BYTE   PAN  c_v-51
 BYTE   W03
 BYTE   PAN  c_v-55
 BYTE   W03
 BYTE   PAN  c_v-60
 BYTE   N11 En4
 BYTE   W03
 BYTE   PAN  c_v-64
 BYTE   W01
 BYTE   PAN  c_v-64
 BYTE   W03
 BYTE   PAN  c_v-60
 BYTE   W03
 BYTE   PAN  c_v-56
 BYTE   W02
//  #10 //004   ----------------------------------------
 BYTE   N23 An4
 BYTE   W01
 BYTE   PAN  c_v-51
 BYTE   W04
 BYTE   PAN  c_v-47
 BYTE   W03
 BYTE   PAN  c_v-43
 BYTE   W03
 BYTE   PAN  c_v-38
 BYTE   W04
 BYTE   PAN  c_v-34
 BYTE   W03
 BYTE   PAN  c_v-30
 BYTE   W03
 BYTE   PAN  c_v-25
 BYTE   W03
 BYTE   N23 Cn5
 BYTE   W01
 BYTE   PAN  c_v-21
 BYTE   W03
 BYTE   PAN  c_v-17
 BYTE   W03
 BYTE   PAN  c_v-12
 BYTE   W04
 BYTE   PAN  c_v-8
 BYTE   W03
 BYTE   PAN  c_v-3
 BYTE   W03
 BYTE   PAN  c_v+1
 BYTE   W03
 BYTE   PAN  c_v+5
 BYTE   W04
 BYTE   PAN  c_v+10
 BYTE   N32 Gn4
 BYTE   W03
 BYTE   PAN  c_v+14
 BYTE   W03
 BYTE   PAN  c_v+18
 BYTE   W04
 BYTE   PAN  c_v+23
 BYTE   W03
 BYTE   PAN  c_v+27
 BYTE   W03
 BYTE   PAN  c_v+31
 BYTE   W04
 BYTE   PAN  c_v+36
 BYTE   W03
 BYTE   PAN  c_v+40
 BYTE   W03
 BYTE   PAN  c_v+45
 BYTE   W04
 BYTE   PAN  c_v+49
 BYTE   W03
 BYTE   PAN  c_v+53
 BYTE   W03
 BYTE   PAN  c_v+58
 BYTE   N11 En4
 BYTE   W03
 BYTE   PAN  c_v+63
 BYTE   W01
 BYTE   PAN  c_v+63
 BYTE   W03
 BYTE   PAN  c_v+58
 BYTE   W03
 BYTE   PAN  c_v+54
 BYTE   W02
//  #10 //005   ----------------------------------------
 BYTE   N11 Fn4
 BYTE   W01
 BYTE   PAN  c_v+49
 BYTE   W04
 BYTE   PAN  c_v+45
 BYTE   W03
 BYTE   PAN  c_v+41
 BYTE   W03
 BYTE   PAN  c_v+36
 BYTE   W01
 BYTE   N11 An4
 BYTE   W03
 BYTE   PAN  c_v+32
 BYTE   W03
 BYTE   PAN  c_v+28
 BYTE   W03
 BYTE   PAN  c_v+23
 BYTE   W03
 BYTE   N11 Dn5
 BYTE   W01
 BYTE   PAN  c_v+19
 BYTE   W03
 BYTE   PAN  c_v+15
 BYTE   W03
 BYTE   PAN  c_v+10
 BYTE   W04
 BYTE   PAN  c_v+6
 BYTE   W01
 BYTE   N11 Bn4
 BYTE   W02
 BYTE   PAN  c_v+1
 BYTE   W03
 BYTE   PAN  c_v-3
 BYTE   W03
 BYTE   PAN  c_v-7
 BYTE   W04
 BYTE   PAN  c_v-12
 BYTE   N23 Cn5
 BYTE   W03
 BYTE   PAN  c_v-16
 BYTE   W03
 BYTE   PAN  c_v-20
 BYTE   W04
 BYTE   PAN  c_v-25
 BYTE   W03
 BYTE   PAN  c_v-29
 BYTE   W03
 BYTE   PAN  c_v-33
 BYTE   W04
 BYTE   PAN  c_v-38
 BYTE   W03
 BYTE   PAN  c_v-42
 BYTE   W01
 BYTE   N05 An4
 BYTE   W02
 BYTE   PAN  c_v-47
 BYTE   W04
 BYTE   PAN  c_v-51
 BYTE   W03
 BYTE   PAN  c_v-55
 BYTE   W03
 BYTE   PAN  c_v-60
 BYTE   N05 Bn4
 BYTE   W03
 BYTE   PAN  c_v-64
 BYTE   W01
 BYTE   PAN  c_v-64
 BYTE   W02
 BYTE   N05 Cn5
 BYTE   W01
 BYTE   PAN  c_v-60
 BYTE   W03
 BYTE   PAN  c_v-56
 BYTE   W02
//  #10 //006   ----------------------------------------
Label_01187BC0:
 BYTE   N23 Bn4 v127
 BYTE   W01
 BYTE   PAN  c_v-51
 BYTE   W04
 BYTE   PAN  c_v-47
 BYTE   W03
 BYTE   PAN  c_v-43
 BYTE   W03
 BYTE   PAN  c_v-38
 BYTE   W04
 BYTE   PAN  c_v-34
 BYTE   W03
 BYTE   PAN  c_v-30
 BYTE   W03
 BYTE   PAN  c_v-25
 BYTE   W03
 BYTE   N23 Fs4
 BYTE   W01
 BYTE   PAN  c_v-21
 BYTE   W03
 BYTE   PAN  c_v-17
 BYTE   W03
 BYTE   PAN  c_v-12
 BYTE   W04
 BYTE   PAN  c_v-8
 BYTE   W03
 BYTE   PAN  c_v-3
 BYTE   W03
 BYTE   PAN  c_v+1
 BYTE   W03
 BYTE   PAN  c_v+5
 BYTE   W04
 BYTE   PAN  c_v+10
 BYTE   N23 An4
 BYTE   W03
 BYTE   PAN  c_v+14
 BYTE   W03
 BYTE   PAN  c_v+18
 BYTE   W04
 BYTE   PAN  c_v+23
 BYTE   W03
 BYTE   PAN  c_v+27
 BYTE   W03
 BYTE   PAN  c_v+31
 BYTE   W04
 BYTE   PAN  c_v+36
 BYTE   W03
 BYTE   PAN  c_v+40
 BYTE   W01
 BYTE   N23 Gs4
 BYTE   W02
 BYTE   PAN  c_v+45
 BYTE   W04
 BYTE   PAN  c_v+49
 BYTE   W03
 BYTE   PAN  c_v+53
 BYTE   W03
 BYTE   PAN  c_v+58
 BYTE   W03
 BYTE   PAN  c_v+63
 BYTE   W01
 BYTE   PAN  c_v+63
 BYTE   W03
 BYTE   PAN  c_v+58
 BYTE   W03
 BYTE   PAN  c_v+54
 BYTE   W02
 BYTE   PEND 
//  #10 //007   ----------------------------------------
 BYTE   N23 Cn5
 BYTE   W01
 BYTE   PAN  c_v+49
 BYTE   W04
 BYTE   PAN  c_v+45
 BYTE   W03
 BYTE   PAN  c_v+41
 BYTE   W03
 BYTE   PAN  c_v+36
 BYTE   W04
 BYTE   PAN  c_v+32
 BYTE   W03
 BYTE   PAN  c_v+28
 BYTE   W03
 BYTE   PAN  c_v+23
 BYTE   W03
 BYTE   N23 En5
 BYTE   W01
 BYTE   PAN  c_v+19
 BYTE   W03
 BYTE   PAN  c_v+15
 BYTE   W03
 BYTE   PAN  c_v+10
 BYTE   W04
 BYTE   PAN  c_v+6
 BYTE   W03
 BYTE   PAN  c_v+1
 BYTE   W03
 BYTE   PAN  c_v-3
 BYTE   W03
 BYTE   PAN  c_v-7
 BYTE   W04
 BYTE   PAN  c_v-12
 BYTE   N28 Bn4
 BYTE   W03
 BYTE   PAN  c_v-16
 BYTE   W03
 BYTE   PAN  c_v-20
 BYTE   W04
 BYTE   PAN  c_v-25
 BYTE   W03
 BYTE   PAN  c_v-29
 BYTE   W03
 BYTE   PAN  c_v-33
 BYTE   W04
 BYTE   PAN  c_v-38
 BYTE   W03
 BYTE   PAN  c_v-42
 BYTE   W03
 BYTE   PAN  c_v-47
 BYTE   W04
 BYTE   PAN  c_v-51
 BYTE   W03
 BYTE   PAN  c_v-55
 BYTE   W03
 BYTE   PAN  c_v-60
 BYTE   N11 En4
 BYTE   W03
 BYTE   PAN  c_v-64
 BYTE   W01
 BYTE   PAN  c_v-62
 BYTE   W03
 BYTE   PAN  c_v-58
 BYTE   W03
 BYTE   PAN  c_v-54
 BYTE   W02
//  #10 //008   ----------------------------------------
 BYTE   N23 An4
 BYTE   W01
 BYTE   PAN  c_v-50
 BYTE   W04
 BYTE   PAN  c_v-45
 BYTE   W03
 BYTE   PAN  c_v-41
 BYTE   W03
 BYTE   PAN  c_v-37
 BYTE   W04
 BYTE   PAN  c_v-32
 BYTE   W03
 BYTE   PAN  c_v-28
 BYTE   W03
 BYTE   PAN  c_v-24
 BYTE   W03
 BYTE   N23 Cn5
 BYTE   W01
 BYTE   PAN  c_v-20
 BYTE   W03
 BYTE   PAN  c_v-15
 BYTE   W03
 BYTE   PAN  c_v-11
 BYTE   W04
 BYTE   PAN  c_v-7
 BYTE   W03
 BYTE   PAN  c_v-2
 BYTE   W03
 BYTE   PAN  c_v+2
 BYTE   W03
 BYTE   PAN  c_v+6
 BYTE   W04
 BYTE   PAN  c_v+11
 BYTE   N28 Gn4
 BYTE   W03
 BYTE   PAN  c_v+15
 BYTE   W03
 BYTE   PAN  c_v+19
 BYTE   W04
 BYTE   PAN  c_v+23
 BYTE   W03
 BYTE   PAN  c_v+28
 BYTE   W03
 BYTE   PAN  c_v+32
 BYTE   W04
 BYTE   PAN  c_v+36
 BYTE   W03
 BYTE   PAN  c_v+41
 BYTE   W03
 BYTE   PAN  c_v+45
 BYTE   W04
 BYTE   PAN  c_v+49
 BYTE   W03
 BYTE   PAN  c_v+54
 BYTE   W03
 BYTE   PAN  c_v+58
 BYTE   N11 En4
 BYTE   W03
 BYTE   PAN  c_v+63
 BYTE   W01
 BYTE   PAN  c_v+63
 BYTE   W03
 BYTE   PAN  c_v+58
 BYTE   W03
 BYTE   PAN  c_v+54
 BYTE   W02
//  #10 //009   ----------------------------------------
 BYTE   N11 Fn4
 BYTE   W01
 BYTE   PAN  c_v+49
 BYTE   W04
 BYTE   PAN  c_v+45
 BYTE   W03
 BYTE   PAN  c_v+41
 BYTE   W03
 BYTE   PAN  c_v+36
 BYTE   W01
 BYTE   N11 An4
 BYTE   W03
 BYTE   PAN  c_v+32
 BYTE   W03
 BYTE   PAN  c_v+28
 BYTE   W03
 BYTE   PAN  c_v+23
 BYTE   W03
 BYTE   N11 Dn5
 BYTE   W01
 BYTE   PAN  c_v+19
 BYTE   W03
 BYTE   PAN  c_v+15
 BYTE   W03
 BYTE   PAN  c_v+10
 BYTE   W04
 BYTE   PAN  c_v+6
 BYTE   W01
 BYTE   N11 Bn4
 BYTE   W02
 BYTE   PAN  c_v+1
 BYTE   W03
 BYTE   PAN  c_v-3
 BYTE   W03
 BYTE   PAN  c_v-7
 BYTE   W04
 BYTE   PAN  c_v-12
 BYTE   N17 Cn5
 BYTE   W03
 BYTE   PAN  c_v-16
 BYTE   W03
 BYTE   PAN  c_v-20
 BYTE   W04
 BYTE   PAN  c_v-25
 BYTE   W03
 BYTE   PAN  c_v-29
 BYTE   W03
 BYTE   PAN  c_v-33
 BYTE   W04
 BYTE   PAN  c_v-38
 BYTE   W03
 BYTE   PAN  c_v-42
 BYTE   W01
 BYTE   N23 An4
 BYTE   W02
 BYTE   PAN  c_v-47
 BYTE   W04
 BYTE   PAN  c_v-51
 BYTE   W03
 BYTE   PAN  c_v-55
 BYTE   W03
 BYTE   PAN  c_v-60
 BYTE   W03
 BYTE   PAN  c_v-64
 BYTE   W01
 BYTE   PAN  c_v-64
 BYTE   W03
 BYTE   PAN  c_v-60
 BYTE   W03
 BYTE   PAN  c_v-56
 BYTE   W02
//  #10 //010   ----------------------------------------
 BYTE   PATT
  POIN2 Label_01187BC0
//  #10 //011   ----------------------------------------
 BYTE   TIE An4 v127
 BYTE   W01
 BYTE   PAN  c_v+49
 BYTE   W04
 BYTE   PAN  c_v+45
 BYTE   W03
 BYTE   PAN  c_v+41
 BYTE   W03
 BYTE   PAN  c_v+36
 BYTE   W04
 BYTE   PAN  c_v+32
 BYTE   W03
 BYTE   PAN  c_v+28
 BYTE   W03
 BYTE   PAN  c_v+23
 BYTE   W04
 BYTE   PAN  c_v+19
 BYTE   W03
 BYTE   PAN  c_v+15
 BYTE   W03
 BYTE   PAN  c_v+10
 BYTE   W04
 BYTE   PAN  c_v+6
 BYTE   W03
 BYTE   PAN  c_v+1
 BYTE   W03
 BYTE   PAN  c_v-3
 BYTE   W03
 BYTE   PAN  c_v-7
 BYTE   W04
 BYTE   PAN  c_v-12
 BYTE   W03
 BYTE   PAN  c_v-16
 BYTE   W03
 BYTE   PAN  c_v-20
 BYTE   W04
 BYTE   PAN  c_v-25
 BYTE   W03
 BYTE   PAN  c_v-29
 BYTE   W03
 BYTE   PAN  c_v-33
 BYTE   W04
 BYTE   PAN  c_v-38
 BYTE   W03
 BYTE   PAN  c_v-42
 BYTE   W03
 BYTE   PAN  c_v-47
 BYTE   W04
 BYTE   PAN  c_v-51
 BYTE   W03
 BYTE   PAN  c_v-55
 BYTE   W03
 BYTE   PAN  c_v-60
 BYTE   W03
 BYTE   PAN  c_v-64
 BYTE   W01
 BYTE   PAN  c_v-64
 BYTE   W03
 BYTE   PAN  c_v-60
 BYTE   W03
 BYTE   PAN  c_v-56
 BYTE   W02
//  #10 //012   ----------------------------------------
 BYTE   W01
 BYTE   PAN  c_v-51
 BYTE   W04
 BYTE   PAN  c_v-47
 BYTE   W03
 BYTE   PAN  c_v-43
 BYTE   W03
 BYTE   PAN  c_v-38
 BYTE   W04
 BYTE   PAN  c_v-34
 BYTE   W03
 BYTE   PAN  c_v-30
 BYTE   W03
 BYTE   PAN  c_v-25
 BYTE   W04
 BYTE   PAN  c_v-21
 BYTE   W03
 BYTE   PAN  c_v-17
 BYTE   W03
 BYTE   PAN  c_v-12
 BYTE   W04
 BYTE   PAN  c_v-8
 BYTE   W03
 BYTE   PAN  c_v-3
 BYTE   W03
 BYTE   PAN  c_v+1
 BYTE   W03
 BYTE   PAN  c_v+5
 BYTE   W04
 BYTE   PAN  c_v+10
 BYTE   W03
 BYTE   PAN  c_v+14
 BYTE   W03
 BYTE   PAN  c_v+18
 BYTE   W04
 BYTE   PAN  c_v+23
 BYTE   W03
 BYTE   PAN  c_v+27
 BYTE   W03
 BYTE   PAN  c_v+31
 BYTE   W04
 BYTE   PAN  c_v+36
 BYTE   W03
 BYTE   PAN  c_v+40
 BYTE   W03
 BYTE   PAN  c_v+45
 BYTE   W01
 BYTE   EOT
 BYTE   W03
 BYTE   PAN  c_v+49
 BYTE   W03
 BYTE   PAN  c_v+53
 BYTE   W03
 BYTE   PAN  c_v+58
 BYTE   W03
 BYTE   PAN  c_v+63
 BYTE   W01
 BYTE   PAN  c_v+62
 BYTE   W03
 BYTE   PAN  c_v+57
 BYTE   W03
 BYTE   PAN  c_v+53
 BYTE   W02
//  #10 //013   ----------------------------------------
 BYTE   N32 Cn5
 BYTE   W01
 BYTE   PAN  c_v+49
 BYTE   W04
 BYTE   PAN  c_v+44
 BYTE   W03
 BYTE   PAN  c_v+40
 BYTE   W03
 BYTE   PAN  c_v+36
 BYTE   W04
 BYTE   PAN  c_v+31
 BYTE   W03
 BYTE   PAN  c_v+27
 BYTE   W03
 BYTE   PAN  c_v+23
 BYTE   W04
 BYTE   PAN  c_v+18
 BYTE   W03
 BYTE   PAN  c_v+14
 BYTE   W03
 BYTE   PAN  c_v+10
 BYTE   W04
 BYTE   PAN  c_v+5
 BYTE   W01
 BYTE   N05 An4
 BYTE   W02
 BYTE   PAN  c_v+1
 BYTE   W03
 BYTE   PAN  c_v-3
 BYTE   W01
 BYTE   N05 Bn4
 BYTE   W02
 BYTE   PAN  c_v-8
 BYTE   W04
 BYTE   PAN  c_v-12
 BYTE   N17 Cn5
 BYTE   W03
 BYTE   PAN  c_v-16
 BYTE   W03
 BYTE   PAN  c_v-21
 BYTE   W04
 BYTE   PAN  c_v-25
 BYTE   W03
 BYTE   PAN  c_v-29
 BYTE   W03
 BYTE   PAN  c_v-34
 BYTE   W02
 BYTE   N17 Dn5
 BYTE   W02
 BYTE   PAN  c_v-38
 BYTE   W03
 BYTE   PAN  c_v-42
 BYTE   W03
 BYTE   PAN  c_v-47
 BYTE   W04
 BYTE   PAN  c_v-51
 BYTE   W03
 BYTE   PAN  c_v-55
 BYTE   W03
 BYTE   PAN  c_v-60
 BYTE   N11 En5
 BYTE   W03
 BYTE   PAN  c_v-64
 BYTE   W01
 BYTE   PAN  c_v-62
 BYTE   W03
 BYTE   PAN  c_v-58
 BYTE   W03
 BYTE   PAN  c_v-54
 BYTE   W02
//  #10 //014   ----------------------------------------
 BYTE   N44 Bn4
 BYTE   W01
 BYTE   PAN  c_v-50
 BYTE   W04
 BYTE   PAN  c_v-45
 BYTE   W03
 BYTE   PAN  c_v-41
 BYTE   W03
 BYTE   PAN  c_v-37
 BYTE   W04
 BYTE   PAN  c_v-32
 BYTE   W03
 BYTE   PAN  c_v-28
 BYTE   W03
 BYTE   PAN  c_v-24
 BYTE   W04
 BYTE   PAN  c_v-20
 BYTE   W03
 BYTE   PAN  c_v-15
 BYTE   W03
 BYTE   PAN  c_v-11
 BYTE   W04
 BYTE   PAN  c_v-7
 BYTE   W03
 BYTE   PAN  c_v-2
 BYTE   W03
 BYTE   PAN  c_v+2
 BYTE   W03
 BYTE   PAN  c_v+6
 BYTE   W04
 BYTE   PAN  c_v+11
 BYTE   N44 En4
 BYTE   W03
 BYTE   PAN  c_v+15
 BYTE   W03
 BYTE   PAN  c_v+19
 BYTE   W04
 BYTE   PAN  c_v+23
 BYTE   W03
 BYTE   PAN  c_v+28
 BYTE   W03
 BYTE   PAN  c_v+32
 BYTE   W04
 BYTE   PAN  c_v+36
 BYTE   W03
 BYTE   PAN  c_v+41
 BYTE   W03
 BYTE   PAN  c_v+45
 BYTE   W04
 BYTE   PAN  c_v+49
 BYTE   W03
 BYTE   PAN  c_v+54
 BYTE   W03
 BYTE   PAN  c_v+58
 BYTE   W03
 BYTE   PAN  c_v+63
 BYTE   W01
 BYTE   PAN  c_v+63
 BYTE   W03
 BYTE   PAN  c_v+58
 BYTE   W03
 BYTE   PAN  c_v+54
 BYTE   W02
//  #10 //015   ----------------------------------------
 BYTE   N32 An4
 BYTE   W01
 BYTE   PAN  c_v+49
 BYTE   W04
 BYTE   PAN  c_v+45
 BYTE   W03
 BYTE   PAN  c_v+41
 BYTE   W03
 BYTE   PAN  c_v+36
 BYTE   W04
 BYTE   PAN  c_v+32
 BYTE   W03
 BYTE   PAN  c_v+28
 BYTE   W03
 BYTE   PAN  c_v+23
 BYTE   W04
 BYTE   PAN  c_v+19
 BYTE   W03
 BYTE   PAN  c_v+15
 BYTE   W03
 BYTE   PAN  c_v+10
 BYTE   W04
 BYTE   PAN  c_v+6
 BYTE   W01
 BYTE   N05 Fn4
 BYTE   W02
 BYTE   PAN  c_v+1
 BYTE   W03
 BYTE   PAN  c_v-3
 BYTE   W01
 BYTE   N05 Gn4
 BYTE   W02
 BYTE   PAN  c_v-7
 BYTE   W04
 BYTE   PAN  c_v-12
 BYTE   N17 An4
 BYTE   W03
 BYTE   PAN  c_v-16
 BYTE   W03
 BYTE   PAN  c_v-20
 BYTE   W04
 BYTE   PAN  c_v-25
 BYTE   W03
 BYTE   PAN  c_v-29
 BYTE   W03
 BYTE   PAN  c_v-33
 BYTE   W02
 BYTE   N17 Bn4
 BYTE   W02
 BYTE   PAN  c_v-38
 BYTE   W03
 BYTE   PAN  c_v-42
 BYTE   W03
 BYTE   PAN  c_v-47
 BYTE   W04
 BYTE   PAN  c_v-51
 BYTE   W03
 BYTE   PAN  c_v-55
 BYTE   W03
 BYTE   PAN  c_v-60
 BYTE   N11 Cn5
 BYTE   W03
 BYTE   PAN  c_v-64
 BYTE   W01
 BYTE   PAN  c_v-64
 BYTE   W03
 BYTE   PAN  c_v-60
 BYTE   W03
 BYTE   PAN  c_v-56
 BYTE   W02
//  #10 //016   ----------------------------------------
 BYTE   N40 Gn4
 BYTE   W01
 BYTE   PAN  c_v-51
 BYTE   W04
 BYTE   PAN  c_v-47
 BYTE   W03
 BYTE   PAN  c_v-43
 BYTE   W03
 BYTE   PAN  c_v-38
 BYTE   W04
 BYTE   PAN  c_v-34
 BYTE   W03
 BYTE   PAN  c_v-30
 BYTE   W03
 BYTE   PAN  c_v-25
 BYTE   W04
 BYTE   PAN  c_v-21
 BYTE   W03
 BYTE   PAN  c_v-17
 BYTE   W03
 BYTE   PAN  c_v-12
 BYTE   W04
 BYTE   PAN  c_v-8
 BYTE   W03
 BYTE   PAN  c_v-3
 BYTE   W03
 BYTE   PAN  c_v+1
 BYTE   W03
 BYTE   PAN  c_v+5
 BYTE   W04
 BYTE   PAN  c_v+10
 BYTE   N44 En4
 BYTE   W03
 BYTE   PAN  c_v+14
 BYTE   W03
 BYTE   PAN  c_v+18
 BYTE   W04
 BYTE   PAN  c_v+23
 BYTE   W03
 BYTE   PAN  c_v+27
 BYTE   W03
 BYTE   PAN  c_v+31
 BYTE   W04
 BYTE   PAN  c_v+36
 BYTE   W03
 BYTE   PAN  c_v+40
 BYTE   W03
 BYTE   PAN  c_v+45
 BYTE   W04
 BYTE   PAN  c_v+49
 BYTE   W03
 BYTE   PAN  c_v+53
 BYTE   W03
 BYTE   PAN  c_v+58
 BYTE   W03
 BYTE   PAN  c_v+63
 BYTE   W01
 BYTE   PAN  c_v+62
 BYTE   W03
 BYTE   PAN  c_v+57
 BYTE   W03
 BYTE   PAN  c_v+53
 BYTE   W02
//  #10 //017   ----------------------------------------
 BYTE   N17 Dn4
 BYTE   W01
 BYTE   PAN  c_v+49
 BYTE   W04
 BYTE   PAN  c_v+44
 BYTE   W03
 BYTE   PAN  c_v+40
 BYTE   W03
 BYTE   PAN  c_v+36
 BYTE   W04
 BYTE   PAN  c_v+31
 BYTE   W03
 BYTE   PAN  c_v+27
 BYTE   N17 En4
 BYTE   W03
 BYTE   PAN  c_v+23
 BYTE   W04
 BYTE   PAN  c_v+18
 BYTE   W03
 BYTE   PAN  c_v+14
 BYTE   W03
 BYTE   PAN  c_v+10
 BYTE   W04
 BYTE   PAN  c_v+5
 BYTE   W01
 BYTE   N05
 BYTE   W02
 BYTE   PAN  c_v+1
 BYTE   W03
 BYTE   PAN  c_v-3
 BYTE   W01
 BYTE   N05 Fn4
 BYTE   W02
 BYTE   PAN  c_v-8
 BYTE   W04
 BYTE   PAN  c_v-12
 BYTE   N17 En4
 BYTE   W03
 BYTE   PAN  c_v-16
 BYTE   W03
 BYTE   PAN  c_v-21
 BYTE   W04
 BYTE   PAN  c_v-25
 BYTE   W03
 BYTE   PAN  c_v-29
 BYTE   W03
 BYTE   PAN  c_v-34
 BYTE   W02
 BYTE   N17 Gs4
 BYTE   W02
 BYTE   PAN  c_v-38
 BYTE   W03
 BYTE   PAN  c_v-42
 BYTE   W03
 BYTE   PAN  c_v-47
 BYTE   W04
 BYTE   PAN  c_v-51
 BYTE   W03
 BYTE   PAN  c_v-55
 BYTE   W03
 BYTE   PAN  c_v-60
 BYTE   N11 Bn4
 BYTE   W03
 BYTE   PAN  c_v-64
 BYTE   W01
 BYTE   PAN  c_v-64
 BYTE   W03
 BYTE   PAN  c_v-60
 BYTE   W03
 BYTE   PAN  c_v-56
 BYTE   W02
//  #10 //018   ----------------------------------------
 BYTE   N17 An4
 BYTE   W01
 BYTE   PAN  c_v-51
 BYTE   W04
 BYTE   PAN  c_v-47
 BYTE   W03
 BYTE   PAN  c_v-43
 BYTE   W03
 BYTE   PAN  c_v-38
 BYTE   W04
 BYTE   PAN  c_v-34
 BYTE   W03
 BYTE   PAN  c_v-30
 BYTE   N17 Gs4
 BYTE   W03
 BYTE   PAN  c_v-25
 BYTE   W04
 BYTE   PAN  c_v-21
 BYTE   W03
 BYTE   PAN  c_v-17
 BYTE   W03
 BYTE   PAN  c_v-12
 BYTE   W04
 BYTE   PAN  c_v-8
 BYTE   W01
 BYTE   N11 An4
 BYTE   W02
 BYTE   PAN  c_v-3
 BYTE   W03
 BYTE   PAN  c_v+1
 BYTE   W03
 BYTE   PAN  c_v+5
 BYTE   W04
 BYTE   PAN  c_v+10
 BYTE   N44 Cn5
 BYTE   W03
 BYTE   PAN  c_v+14
 BYTE   W03
 BYTE   PAN  c_v+18
 BYTE   W04
 BYTE   PAN  c_v+23
 BYTE   W03
 BYTE   PAN  c_v+27
 BYTE   W03
 BYTE   PAN  c_v+31
 BYTE   W04
 BYTE   PAN  c_v+36
 BYTE   W03
 BYTE   PAN  c_v+40
 BYTE   W03
 BYTE   PAN  c_v+45
 BYTE   W04
 BYTE   PAN  c_v+49
 BYTE   W03
 BYTE   PAN  c_v+53
 BYTE   W03
 BYTE   PAN  c_v+58
 BYTE   W03
 BYTE   PAN  c_v+63
 BYTE   W01
 BYTE   PAN  c_v+62
 BYTE   W03
 BYTE   PAN  c_v+57
 BYTE   W03
 BYTE   PAN  c_v+53
 BYTE   W02
//  #10 //019   ----------------------------------------
 BYTE   N17
 BYTE   W01
 BYTE   PAN  c_v+49
 BYTE   W04
 BYTE   PAN  c_v+44
 BYTE   W03
 BYTE   PAN  c_v+40
 BYTE   W03
 BYTE   PAN  c_v+36
 BYTE   W04
 BYTE   PAN  c_v+31
 BYTE   W03
 BYTE   PAN  c_v+27
 BYTE   N17 Bn4
 BYTE   W03
 BYTE   PAN  c_v+23
 BYTE   W04
 BYTE   PAN  c_v+18
 BYTE   W03
 BYTE   PAN  c_v+14
 BYTE   W03
 BYTE   PAN  c_v+10
 BYTE   W04
 BYTE   PAN  c_v+5
 BYTE   W01
 BYTE   N11 An4
 BYTE   W02
 BYTE   PAN  c_v+1
 BYTE   W03
 BYTE   PAN  c_v-3
 BYTE   W03
 BYTE   PAN  c_v-8
 BYTE   W04
 BYTE   PAN  c_v-12
 BYTE   N17 Bn4
 BYTE   W03
 BYTE   PAN  c_v-16
 BYTE   W03
 BYTE   PAN  c_v-21
 BYTE   W04
 BYTE   PAN  c_v-25
 BYTE   W03
 BYTE   PAN  c_v-29
 BYTE   W03
 BYTE   PAN  c_v-34
 BYTE   W02
 BYTE   N17 Fs4
 BYTE   W02
 BYTE   PAN  c_v-38
 BYTE   W03
 BYTE   PAN  c_v-42
 BYTE   W03
 BYTE   PAN  c_v-47
 BYTE   W04
 BYTE   PAN  c_v-51
 BYTE   W03
 BYTE   PAN  c_v-55
 BYTE   W03
 BYTE   PAN  c_v-60
 BYTE   N11 Gs4
 BYTE   W03
 BYTE   PAN  c_v-64
 BYTE   W01
 BYTE   PAN  c_v-62
 BYTE   W03
 BYTE   PAN  c_v-58
 BYTE   W03
 BYTE   PAN  c_v-54
 BYTE   W02
//  #10 //020   ----------------------------------------
 BYTE   N44 An4
 BYTE   W01
 BYTE   PAN  c_v-50
 BYTE   W04
 BYTE   PAN  c_v-45
 BYTE   W03
 BYTE   PAN  c_v-41
 BYTE   W03
 BYTE   PAN  c_v-37
 BYTE   W04
 BYTE   PAN  c_v-32
 BYTE   W03
 BYTE   PAN  c_v-28
 BYTE   W03
 BYTE   PAN  c_v-24
 BYTE   W04
 BYTE   PAN  c_v-20
 BYTE   W03
 BYTE   PAN  c_v-15
 BYTE   W03
 BYTE   PAN  c_v-11
 BYTE   W04
 BYTE   PAN  c_v-7
 BYTE   W03
 BYTE   PAN  c_v-2
 BYTE   W03
 BYTE   PAN  c_v+2
 BYTE   W03
 BYTE   PAN  c_v+6
 BYTE   W04
 BYTE   PAN  c_v+11
 BYTE   N23 Gs4
 BYTE   W03
 BYTE   PAN  c_v+15
 BYTE   W03
 BYTE   PAN  c_v+19
 BYTE   W04
 BYTE   PAN  c_v+23
 BYTE   W03
 BYTE   PAN  c_v+28
 BYTE   W03
 BYTE   PAN  c_v+32
 BYTE   W04
 BYTE   PAN  c_v+36
 BYTE   W03
 BYTE   PAN  c_v+41
 BYTE   W01
 BYTE   N02 En4 v100
 BYTE   W02
 BYTE   PAN  c_v+45
 BYTE   W02
 BYTE   N02 Fn4 v104
 BYTE   W02
 BYTE   PAN  c_v+49
 BYTE   W02
 BYTE   N02 Fs4 v108
 BYTE   W01
 BYTE   PAN  c_v+54
 BYTE   W03
 BYTE   PAN  c_v+58
 BYTE   N02 Gs4 v116
 BYTE   W03
 BYTE   PAN  c_v+63
 BYTE   W01
 BYTE   PAN  c_v+63
 BYTE   N02 An4 v120
 BYTE   W03
 BYTE   PAN  c_v+58
 BYTE   W01
 BYTE   N02 Bn4 v124
 BYTE   W02
 BYTE   PAN  c_v+54
 BYTE   W02
//  #10 //021   ----------------------------------------
 BYTE   N23 Cn5 v127
 BYTE   W01
 BYTE   PAN  c_v+49
 BYTE   W04
 BYTE   PAN  c_v+45
 BYTE   W03
 BYTE   PAN  c_v+41
 BYTE   W03
 BYTE   PAN  c_v+36
 BYTE   W04
 BYTE   PAN  c_v+32
 BYTE   W03
 BYTE   PAN  c_v+28
 BYTE   W03
 BYTE   PAN  c_v+23
 BYTE   W03
 BYTE   N23 En5
 BYTE   W01
 BYTE   PAN  c_v+19
 BYTE   W03
 BYTE   PAN  c_v+15
 BYTE   W03
 BYTE   PAN  c_v+10
 BYTE   W04
 BYTE   PAN  c_v+6
 BYTE   W03
 BYTE   PAN  c_v+1
 BYTE   W03
 BYTE   PAN  c_v-3
 BYTE   W03
 BYTE   PAN  c_v-7
 BYTE   W04
 BYTE   PAN  c_v-12
 BYTE   N30 Bn4
 BYTE   W03
 BYTE   PAN  c_v-16
 BYTE   W03
 BYTE   PAN  c_v-20
 BYTE   W04
 BYTE   PAN  c_v-25
 BYTE   W03
 BYTE   PAN  c_v-29
 BYTE   W03
 BYTE   PAN  c_v-33
 BYTE   W04
 BYTE   PAN  c_v-38
 BYTE   W03
 BYTE   PAN  c_v-42
 BYTE   W03
 BYTE   PAN  c_v-47
 BYTE   W04
 BYTE   PAN  c_v-51
 BYTE   W03
 BYTE   PAN  c_v-55
 BYTE   W03
 BYTE   PAN  c_v-60
 BYTE   N09 En4
 BYTE   W03
 BYTE   PAN  c_v-64
 BYTE   W01
 BYTE   PAN  c_v-62
 BYTE   W03
 BYTE   PAN  c_v-58
 BYTE   W03
 BYTE   PAN  c_v-54
 BYTE   W02
//  #10 //022   ----------------------------------------
 BYTE   N23 An4
 BYTE   W01
 BYTE   PAN  c_v-50
 BYTE   W04
 BYTE   PAN  c_v-45
 BYTE   W03
 BYTE   PAN  c_v-41
 BYTE   W03
 BYTE   PAN  c_v-37
 BYTE   W04
 BYTE   PAN  c_v-32
 BYTE   W03
 BYTE   PAN  c_v-28
 BYTE   W03
 BYTE   PAN  c_v-24
 BYTE   W03
 BYTE   N23 Cn5
 BYTE   W01
 BYTE   PAN  c_v-20
 BYTE   W03
 BYTE   PAN  c_v-15
 BYTE   W03
 BYTE   PAN  c_v-11
 BYTE   W04
 BYTE   PAN  c_v-7
 BYTE   W03
 BYTE   PAN  c_v-2
 BYTE   W03
 BYTE   PAN  c_v+2
 BYTE   W03
 BYTE   PAN  c_v+6
 BYTE   W04
 BYTE   PAN  c_v+11
 BYTE   N30 Gn4
 BYTE   W03
 BYTE   PAN  c_v+15
 BYTE   W03
 BYTE   PAN  c_v+19
 BYTE   W04
 BYTE   PAN  c_v+23
 BYTE   W03
 BYTE   PAN  c_v+28
 BYTE   W03
 BYTE   PAN  c_v+32
 BYTE   W04
 BYTE   PAN  c_v+36
 BYTE   W03
 BYTE   PAN  c_v+41
 BYTE   W03
 BYTE   PAN  c_v+45
 BYTE   W04
 BYTE   PAN  c_v+49
 BYTE   W03
 BYTE   PAN  c_v+54
 BYTE   W03
 BYTE   PAN  c_v+58
 BYTE   N10 En4
 BYTE   W03
 BYTE   PAN  c_v+63
 BYTE   W01
 BYTE   PAN  c_v+63
 BYTE   W03
 BYTE   PAN  c_v+58
 BYTE   W03
 BYTE   PAN  c_v+54
 BYTE   W02
//  #10 //023   ----------------------------------------
 BYTE   N10 Dn4
 BYTE   W01
 BYTE   PAN  c_v+49
 BYTE   W04
 BYTE   PAN  c_v+45
 BYTE   W03
 BYTE   PAN  c_v+41
 BYTE   W03
 BYTE   PAN  c_v+36
 BYTE   W01
 BYTE   N10 En4
 BYTE   W03
 BYTE   PAN  c_v+32
 BYTE   W03
 BYTE   PAN  c_v+28
 BYTE   W03
 BYTE   PAN  c_v+23
 BYTE   W03
 BYTE   N10 Fn4
 BYTE   W01
 BYTE   PAN  c_v+19
 BYTE   W03
 BYTE   PAN  c_v+15
 BYTE   W03
 BYTE   PAN  c_v+10
 BYTE   W04
 BYTE   PAN  c_v+6
 BYTE   W01
 BYTE   N10 An4
 BYTE   W02
 BYTE   PAN  c_v+1
 BYTE   W03
 BYTE   PAN  c_v-3
 BYTE   W03
 BYTE   PAN  c_v-7
 BYTE   W04
 BYTE   PAN  c_v-12
 BYTE   N19 Cn5
 BYTE   W03
 BYTE   PAN  c_v-16
 BYTE   W03
 BYTE   PAN  c_v-20
 BYTE   W04
 BYTE   PAN  c_v-25
 BYTE   W03
 BYTE   PAN  c_v-29
 BYTE   W03
 BYTE   PAN  c_v-33
 BYTE   W04
 BYTE   PAN  c_v-38
 BYTE   W03
 BYTE   PAN  c_v-42
 BYTE   W01
 BYTE   N19 An4
 BYTE   W02
 BYTE   PAN  c_v-47
 BYTE   W04
 BYTE   PAN  c_v-51
 BYTE   W03
 BYTE   PAN  c_v-55
 BYTE   W03
 BYTE   PAN  c_v-60
 BYTE   W03
 BYTE   PAN  c_v-64
 BYTE   W01
 BYTE   PAN  c_v-62
 BYTE   W03
 BYTE   PAN  c_v-58
 BYTE   W03
 BYTE   PAN  c_v-54
 BYTE   W02
//  #10 //024   ----------------------------------------
 BYTE   N23 Bn4
 BYTE   W01
 BYTE   PAN  c_v-50
 BYTE   W04
 BYTE   PAN  c_v-45
 BYTE   W03
 BYTE   PAN  c_v-41
 BYTE   W03
 BYTE   PAN  c_v-37
 BYTE   W04
 BYTE   PAN  c_v-32
 BYTE   W03
 BYTE   PAN  c_v-28
 BYTE   W03
 BYTE   PAN  c_v-24
 BYTE   W03
 BYTE   N21 Fs4
 BYTE   W01
 BYTE   PAN  c_v-20
 BYTE   W03
 BYTE   PAN  c_v-15
 BYTE   W03
 BYTE   PAN  c_v-11
 BYTE   W04
 BYTE   PAN  c_v-7
 BYTE   W03
 BYTE   PAN  c_v-2
 BYTE   W03
 BYTE   PAN  c_v+2
 BYTE   W03
 BYTE   PAN  c_v+6
 BYTE   W04
 BYTE   PAN  c_v+11
 BYTE   N23 An4
 BYTE   W03
 BYTE   PAN  c_v+15
 BYTE   W03
 BYTE   PAN  c_v+19
 BYTE   W04
 BYTE   PAN  c_v+23
 BYTE   W03
 BYTE   PAN  c_v+28
 BYTE   W03
 BYTE   PAN  c_v+32
 BYTE   W04
 BYTE   PAN  c_v+36
 BYTE   W03
 BYTE   PAN  c_v+41
 BYTE   W01
 BYTE   N23 Gs4
 BYTE   W02
 BYTE   PAN  c_v+45
 BYTE   W04
 BYTE   PAN  c_v+49
 BYTE   W03
 BYTE   PAN  c_v+54
 BYTE   W03
 BYTE   PAN  c_v+58
 BYTE   W03
 BYTE   PAN  c_v+63
 BYTE   W01
 BYTE   PAN  c_v+63
 BYTE   W03
 BYTE   PAN  c_v+58
 BYTE   W03
 BYTE   PAN  c_v+54
 BYTE   W02
//  #10 //025   ----------------------------------------
 BYTE   TIE An4
 BYTE   W01
 BYTE   PAN  c_v+49
 BYTE   W04
 BYTE   PAN  c_v+45
 BYTE   W03
 BYTE   PAN  c_v+41
 BYTE   W03
 BYTE   PAN  c_v+36
 BYTE   W04
 BYTE   PAN  c_v+32
 BYTE   W03
 BYTE   PAN  c_v+28
 BYTE   W03
 BYTE   PAN  c_v+23
 BYTE   W04
 BYTE   PAN  c_v+19
 BYTE   W03
 BYTE   PAN  c_v+15
 BYTE   W03
 BYTE   PAN  c_v+10
 BYTE   W04
 BYTE   PAN  c_v+6
 BYTE   W03
 BYTE   PAN  c_v+1
 BYTE   W03
 BYTE   PAN  c_v-3
 BYTE   W03
 BYTE   PAN  c_v-7
 BYTE   W04
 BYTE   PAN  c_v-12
 BYTE   W03
 BYTE   PAN  c_v-16
 BYTE   W03
 BYTE   PAN  c_v-20
 BYTE   W04
 BYTE   PAN  c_v-25
 BYTE   W03
 BYTE   PAN  c_v-29
 BYTE   W03
 BYTE   PAN  c_v-33
 BYTE   W04
 BYTE   PAN  c_v-38
 BYTE   W03
 BYTE   PAN  c_v-42
 BYTE   W03
 BYTE   PAN  c_v-47
 BYTE   W04
 BYTE   PAN  c_v-51
 BYTE   W03
 BYTE   PAN  c_v-55
 BYTE   W03
 BYTE   PAN  c_v-60
 BYTE   W03
 BYTE   PAN  c_v+0
 BYTE   W09
//  #10 //026   ----------------------------------------
 BYTE   W10
 BYTE   EOT
 BYTE   W84
 BYTE   W02
//  #10 //027   ----------------------------------------
 BYTE   W96
//  #10 //028   ----------------------------------------
 BYTE   W96
//  #10 //029   ----------------------------------------
 BYTE   W96
//  #10 //030   ----------------------------------------
 BYTE   W96
//  #10 //031   ----------------------------------------
 BYTE   W96
//  #10 //032   ----------------------------------------
 BYTE   W96
//  #10 //033   ----------------------------------------
 BYTE   W96
//  #10 //034   ----------------------------------------
 BYTE   W96
//  #10 //035   ----------------------------------------
 BYTE   W96
//  #10 //036   ----------------------------------------
 BYTE   W96
//  #10 //037   ----------------------------------------
 BYTE   W96
//  #10 //038   ----------------------------------------
 BYTE   W96
//  #10 //039   ----------------------------------------
 BYTE   W96
//  #10 //040   ----------------------------------------
 BYTE   W96
//  #10 //041   ----------------------------------------
 BYTE   W96
//  #10 //042   ----------------------------------------
 BYTE   W96
//  #10 //043   ----------------------------------------
 BYTE   W96
//  #10 //044   ----------------------------------------
 BYTE   W96
//  #10 //045   ----------------------------------------
 BYTE   W96
//  #10 //046   ----------------------------------------
 BYTE   W96
//  #10 //047   ----------------------------------------
 BYTE   W96
//  #10 //048   ----------------------------------------
 BYTE   W96
//  #10 //049   ----------------------------------------
 BYTE   W96
//  #10 //050   ----------------------------------------
 BYTE   W96
//  #10 //051   ----------------------------------------
 BYTE   W92
 BYTE   W03
 BYTE   GoTo
  POIN2 Label_01187AD1
 BYTE   FINE

//******************************************************//
	ALIGN 4

song010B:
	BYTE	10	// NumTrks
	BYTE	0	// NumBlks
	BYTE	song010B_pri	// Priority
	BYTE	song010B_rev	// Reverb.
    
	POIN2	song010B_grp
    
	POIN2	song010B_001
	POIN2	song010B_002
	POIN2	song010B_003
	POIN2	song010B_004
	POIN2	song010B_005
	POIN2	song010B_006
	POIN2	song010B_007
	POIN2	song010B_008
	POIN2	song010B_009
	POIN2	song010B_010

	
