//Generated with python s2ea
	#include "MPlayDef.event"

	#define	song03DA_grp BCVoices
	#define	song03DA_pri 0
	#define	song03DA_rev 0
	#define	song03DA_mvl 127
	#define	song03DA_key 0
	#define	song03DA_tbs 1
	#define	song03DA_exg 0
	#define	song03DA_cmp 1

	// .rodata
	//	song03DA
	ALIGN 4


//**************** Track 1 (Midi-Chn.0) ****************//

song03DA_001:
//  #01 //000   ----------------------------------------
 BYTE   KEYSH  song03DA_key+0
 BYTE   TEMPO  116*song03DA_tbs/2
 BYTE   MODT 0
 BYTE   LFOS 44
 BYTE   VOL  72*song03DA_mvl/mxv
 BYTE   W12
 BYTE   VOICE  40
 BYTE   PAN  c_v+0
 BYTE   W84
//  #01 //001   ----------------------------------------
Label_0102DE50:
 BYTE   VOL  72*song03DA_mvl/mxv
 BYTE   N12 En3 v088
 BYTE   W12
 BYTE   Fs3 v048
 BYTE   W12
 BYTE   En3 v088
 BYTE   W12
 BYTE   N24 Gn3 v080
 BYTE   W24
 BYTE   N12 En3 v068
 BYTE   W12
 BYTE   Fs3 v076
 BYTE   W12
 BYTE   N08 En3 v072
 BYTE   W12
//  #01 //002   ----------------------------------------
 BYTE   N12 En3 v100
 BYTE   W12
 BYTE   Fs3 v060
 BYTE   W12
 BYTE   En3 v076
 BYTE   W12
 BYTE   N24 Gn3 v084
 BYTE   W24
 BYTE   N12 En3 v068
 BYTE   W12
 BYTE   Fs3 v080
 BYTE   W12
 BYTE   N08 En3 v084
 BYTE   W12
//  #01 //003   ----------------------------------------
 BYTE   N12
 BYTE   W12
 BYTE   Fs3 v072
 BYTE   W12
 BYTE   En3 v080
 BYTE   W12
 BYTE   N24 Gn3
 BYTE   W24
 BYTE   N12 En3 v084
 BYTE   W12
 BYTE   Fs3
 BYTE   W12
 BYTE   N08 En3 v072
 BYTE   W12
//  #01 //004   ----------------------------------------
 BYTE   N12 En3 v092
 BYTE   W12
 BYTE   Fs3 v068
 BYTE   W12
 BYTE   En3 v076
 BYTE   W12
 BYTE   N24 Gn3 v088
 BYTE   W24
 BYTE   N12 En3 v060
 BYTE   W12
 BYTE   Fs3 v064
 BYTE   W12
 BYTE   N08 En3 v088
 BYTE   W12
//  #01 //005   ----------------------------------------
 BYTE   N12 En3 v092
 BYTE   W12
 BYTE   Fs3 v080
 BYTE   W12
 BYTE   En3
 BYTE   W12
 BYTE   N24 Bn3 v100
 BYTE   W24
 BYTE   N12 En3 v068
 BYTE   W12
 BYTE   Fs3 v064
 BYTE   W12
 BYTE   N08 En3 v072
 BYTE   W12
//  #01 //006   ----------------------------------------
 BYTE   N12 En3 v100
 BYTE   W12
 BYTE   Fs3 v072
 BYTE   W12
 BYTE   En3 v100
 BYTE   W12
 BYTE   N24 Bn3 v096
 BYTE   W24
 BYTE   N12 En3 v084
 BYTE   W12
 BYTE   Fs3 v064
 BYTE   W12
 BYTE   N08 En3 v084
 BYTE   W12
//  #01 //007   ----------------------------------------
 BYTE   N12
 BYTE   W12
 BYTE   Fs3 v076
 BYTE   W12
 BYTE   En3 v092
 BYTE   W12
 BYTE   N24 Bn3
 BYTE   W24
 BYTE   N12 En3 v076
 BYTE   W12
 BYTE   Fs3 v068
 BYTE   W12
 BYTE   N08 En3 v084
 BYTE   W12
//  #01 //008   ----------------------------------------
 BYTE   N12 En3 v088
 BYTE   W12
 BYTE   Fs3 v048
 BYTE   W12
 BYTE   En3 v076
 BYTE   W12
 BYTE   N24 Bn3 v096
 BYTE   W24
 BYTE   N12 En3 v088
 BYTE   W12
 BYTE   Fs3 v076
 BYTE   W12
 BYTE   N08 En3 v100
 BYTE   W12
//  #01 //009   ----------------------------------------
 BYTE   N12 En3 v092
 BYTE   W12
 BYTE   Fs3 v056
 BYTE   W12
 BYTE   En3 v092
 BYTE   W12
 BYTE   N24 Gn3
 BYTE   W24
 BYTE   N12 En3 v068
 BYTE   W12
 BYTE   Fs3 v084
 BYTE   W12
 BYTE   N08 En3 v068
 BYTE   W12
//  #01 //010   ----------------------------------------
 BYTE   N12 En3 v092
 BYTE   W12
 BYTE   Fs3 v064
 BYTE   W12
 BYTE   En3 v080
 BYTE   W12
 BYTE   N24 Gn3 v084
 BYTE   W24
 BYTE   N12 En3 v076
 BYTE   W12
 BYTE   Fs3 v080
 BYTE   W12
 BYTE   N08 En3 v076
 BYTE   W12
//  #01 //011   ----------------------------------------
 BYTE   N12 En3 v080
 BYTE   W12
 BYTE   Fs3
 BYTE   W12
 BYTE   En3 v084
 BYTE   W12
 BYTE   N24 Gn3
 BYTE   W24
 BYTE   N12 En3 v076
 BYTE   W12
 BYTE   Fs3 v084
 BYTE   W12
 BYTE   N08 En3 v072
 BYTE   W12
//  #01 //012   ----------------------------------------
 BYTE   N12 En3 v092
 BYTE   W12
 BYTE   Fs3 v068
 BYTE   W12
 BYTE   En3 v080
 BYTE   W12
 BYTE   N24 Gn3 v092
 BYTE   W24
 BYTE   N12 En3 v060
 BYTE   W12
 BYTE   Fs3 v064
 BYTE   W12
 BYTE   N08 En3 v084
 BYTE   W12
//  #01 //013   ----------------------------------------
 BYTE   N12 En3 v088
 BYTE   W12
 BYTE   Fs3 v036
 BYTE   W12
 BYTE   En3 v088
 BYTE   W12
 BYTE   N24 Gn3
 BYTE   W24
 BYTE   N12 En3 v064
 BYTE   W12
 BYTE   Fs3 v080
 BYTE   W12
 BYTE   N08 En3
 BYTE   W12
//  #01 //014   ----------------------------------------
 BYTE   N12 En3 v088
 BYTE   W12
 BYTE   Fs3 v060
 BYTE   W12
 BYTE   En3 v076
 BYTE   W12
 BYTE   N24 Gn3 v088
 BYTE   W24
 BYTE   N12 En3 v072
 BYTE   W12
 BYTE   Fs3 v076
 BYTE   W12
 BYTE   N08 En3
 BYTE   W12
//  #01 //015   ----------------------------------------
 BYTE   N12 En3 v080
 BYTE   W12
 BYTE   Fs3 v072
 BYTE   W12
 BYTE   En3 v084
 BYTE   W12
 BYTE   N24 Gn3 v088
 BYTE   W24
 BYTE   N12 En3 v080
 BYTE   W12
 BYTE   Fs3
 BYTE   W12
 BYTE   N08 En3 v072
 BYTE   W12
//  #01 //016   ----------------------------------------
 BYTE   N12 En3 v088
 BYTE   W12
 BYTE   Fs3 v064
 BYTE   W12
 BYTE   En3 v080
 BYTE   W12
 BYTE   N24 Gn3 v088
 BYTE   W24
 BYTE   N12 En3 v064
 BYTE   W12
 BYTE   Fs3
 BYTE   W12
 BYTE   N07 En3 v088
 BYTE   W12
//  #01 //017   ----------------------------------------
 BYTE   N06 Gn4 v068
 BYTE   W06
 BYTE   Fs4 v056
 BYTE   W06
 BYTE   En4 v064
 BYTE   W06
 BYTE   Bn3 v060
 BYTE   W06
 BYTE   N05 Dn4 v056
 BYTE   W05
 BYTE   Cn4
 BYTE   W06
 BYTE   N06 Bn3 v064
 BYTE   W07
 BYTE   An3 v056
 BYTE   W06
 BYTE   En4
 BYTE   W06
 BYTE   Bn3
 BYTE   W06
 BYTE   An3 v060
 BYTE   W06
 BYTE   Gn3 v056
 BYTE   W06
 BYTE   Bn3
 BYTE   W06
 BYTE   An3
 BYTE   W06
 BYTE   Gn3
 BYTE   W06
 BYTE   Fs3
 BYTE   W06
//  #01 //018   ----------------------------------------
 BYTE   En3 v068
 BYTE   W06
 BYTE   Bn2 v060
 BYTE   W06
 BYTE   An2 v056
 BYTE   W06
 BYTE   Bn2 v052
 BYTE   W06
 BYTE   Dn3 v060
 BYTE   W06
 BYTE   Cn3
 BYTE   W06
 BYTE   N05 Bn2
 BYTE   W06
 BYTE   N06 An2
 BYTE   W06
 BYTE   Bn2 v056
 BYTE   W06
 BYTE   An2 v060
 BYTE   W06
 BYTE   Dn3
 BYTE   W06
 BYTE   Cn3 v056
 BYTE   W06
 BYTE   Bn2 v048
 BYTE   W06
 BYTE   An2
 BYTE   W06
 BYTE   Gn2 v060
 BYTE   W12
//  #01 //019   ----------------------------------------
 BYTE   N22 En3 v036
 BYTE   W06
 BYTE   VOL  38*song03DA_mvl/mxv
 BYTE   W06
 BYTE   VOL  20*song03DA_mvl/mxv
 BYTE   W06
 BYTE   VOL  5*song03DA_mvl/mxv
 BYTE   W06
 BYTE   VOL  0*song03DA_mvl/mxv
 BYTE   N12 En3 v016
 BYTE   W06
 BYTE   VOL  0*song03DA_mvl/mxv
 BYTE   W06
 BYTE   VOL  0*song03DA_mvl/mxv
 BYTE   N24 Gn3
 BYTE   W06
 BYTE   VOL  1*song03DA_mvl/mxv
 BYTE   W06
 BYTE   VOL  4*song03DA_mvl/mxv
 BYTE   W06
 BYTE   VOL  9*song03DA_mvl/mxv
 BYTE   W06
 BYTE   VOL  20*song03DA_mvl/mxv
 BYTE   N12 En3 v032
 BYTE   W06
 BYTE   VOL  27*song03DA_mvl/mxv
 BYTE   W06
 BYTE   VOL  33*song03DA_mvl/mxv
 BYTE   N12 Fs3 v024
 BYTE   W06
 BYTE   VOL  38*song03DA_mvl/mxv
 BYTE   W06
 BYTE   VOL  42*song03DA_mvl/mxv
 BYTE   N12 En3 v032
 BYTE   W12
//  #01 //020   ----------------------------------------
 BYTE   VOL  52*song03DA_mvl/mxv
 BYTE   N12 En3 v036
 BYTE   W12
 BYTE   Fs3 v024
 BYTE   W12
 BYTE   En3 v036
 BYTE   W12
 BYTE   N24 Gn3 v024
 BYTE   W24
 BYTE   N12 En3 v036
 BYTE   W12
 BYTE   Fs3 v024
 BYTE   W12
 BYTE   N13 En3 v016
 BYTE   W12
//  #01 //021   ----------------------------------------
 BYTE   N12 An3 v036
 BYTE   W12
 BYTE   Bn3 v048
 BYTE   W12
 BYTE   An3 v044
 BYTE   W12
 BYTE   N24 Cn4 v052
 BYTE   W24
 BYTE   N12 An3 v040
 BYTE   W12
 BYTE   Bn3 v044
 BYTE   W12
 BYTE   N09 An3 v032
 BYTE   W12
//  #01 //022   ----------------------------------------
 BYTE   N12 An3 v044
 BYTE   W12
 BYTE   Bn3 v020
 BYTE   W12
 BYTE   An3 v048
 BYTE   W12
 BYTE   N24 Cn4 v052
 BYTE   W24
 BYTE   N12 An3 v024
 BYTE   W12
 BYTE   Bn3 v036
 BYTE   W12
 BYTE   N09 An3
 BYTE   W12
//  #01 //023   ----------------------------------------
 BYTE   N12 An3 v040
 BYTE   W12
 BYTE   Cn4 v044
 BYTE   W12
 BYTE   An3 v028
 BYTE   W12
 BYTE   N24 Cn4 v052
 BYTE   W24
 BYTE   N12 An3 v032
 BYTE   W12
 BYTE   Bn3 v044
 BYTE   W12
 BYTE   N09 An3 v040
 BYTE   W12
//  #01 //024   ----------------------------------------
 BYTE   N12 An3 v044
 BYTE   W12
 BYTE   Cn4 v036
 BYTE   W12
 BYTE   An3 v040
 BYTE   W12
 BYTE   N24 Cn4 v048
 BYTE   W24
 BYTE   N12 An3 v036
 BYTE   W12
 BYTE   Bn3 v044
 BYTE   W12
 BYTE   N10 An3 v056
 BYTE   W12
//  #01 //025   ----------------------------------------
 BYTE   N12 En3 v044
 BYTE   W12
 BYTE   Fs3
 BYTE   W12
 BYTE   En3 v032
 BYTE   W12
 BYTE   N24 Gn3 v056
 BYTE   W24
 BYTE   N12 En3 v036
 BYTE   W12
 BYTE   Fs3 v048
 BYTE   W12
 BYTE   N09 En3 v044
 BYTE   W12
//  #01 //026   ----------------------------------------
 BYTE   N12 En3 v052
 BYTE   W12
 BYTE   Fs3 v032
 BYTE   W12
 BYTE   En3 v052
 BYTE   W12
 BYTE   N24 Gn3
 BYTE   W24
 BYTE   N12 En3 v028
 BYTE   W12
 BYTE   Fs3 v032
 BYTE   W12
 BYTE   En3
 BYTE   W12
//  #01 //027   ----------------------------------------
 BYTE   Cn4 v068
 BYTE   W12
 BYTE   Dn4 v036
 BYTE   W12
 BYTE   Cn4 v060
 BYTE   W12
 BYTE   N24 En4 v036
 BYTE   W24
 BYTE   N12 Cn4 v016
 BYTE   W12
 BYTE   Dn4 v028
 BYTE   W12
 BYTE   N08 Cn4 v052
 BYTE   W12
//  #01 //028   ----------------------------------------
 BYTE   N12 Cn4 v056
 BYTE   W12
 BYTE   Dn4 v024
 BYTE   W12
 BYTE   Cn4 v056
 BYTE   W12
 BYTE   N24 En4 v032
 BYTE   W24
 BYTE   N12 Cn4 v004
 BYTE   W12
 BYTE   Dn4 v024
 BYTE   W12
 BYTE   Cn4 v016
 BYTE   W12
//  #01 //029   ----------------------------------------
 BYTE   An3 v072
 BYTE   W12
 BYTE   Bn3 v024
 BYTE   W12
 BYTE   An3 v056
 BYTE   W12
 BYTE   N24 Cn4 v032
 BYTE   W24
 BYTE   N12 An3 v024
 BYTE   W12
 BYTE   Bn3
 BYTE   W12
 BYTE   N09 An3 v016
 BYTE   W12
//  #01 //030   ----------------------------------------
 BYTE   N12 An3 v076
 BYTE   W12
 BYTE   Bn3 v028
 BYTE   W12
 BYTE   An3 v084
 BYTE   W12
 BYTE   N24 Cn4 v028
 BYTE   W24
 BYTE   N12 An3
 BYTE   W12
 BYTE   Bn3 v016
 BYTE   W12
 BYTE   An3 v020
 BYTE   W12
//  #01 //031   ----------------------------------------
 BYTE   Fs3 v032
 BYTE   W12
 BYTE   Gn3 v040
 BYTE   W12
 BYTE   Fs3 v032
 BYTE   W12
 BYTE   N24 An3
 BYTE   W24
 BYTE   N12 Fs3 v028
 BYTE   W12
 BYTE   Gn3 v044
 BYTE   W12
 BYTE   N09 Fs3 v024
 BYTE   W12
//  #01 //032   ----------------------------------------
 BYTE   N12 Fs3 v032
 BYTE   W12
 BYTE   Gn3 v040
 BYTE   W12
 BYTE   Fs3 v032
 BYTE   W12
 BYTE   N24 An3 v036
 BYTE   W24
 BYTE   N12 Fs3 v024
 BYTE   W12
 BYTE   Gn3 v036
 BYTE   W12
 BYTE   Fs3 v028
 BYTE   W12
//  #01 //033   ----------------------------------------
 BYTE   Bn3 v044
 BYTE   W12
 BYTE   Cs4 v032
 BYTE   W12
 BYTE   Bn3
 BYTE   W12
 BYTE   N24 Ds4
 BYTE   W24
 BYTE   N12 Bn3
 BYTE   W12
 BYTE   Cs4
 BYTE   W12
 BYTE   Bn3 v020
 BYTE   W12
//  #01 //034   ----------------------------------------
 BYTE   Bn3 v028
 BYTE   W12
 BYTE   Cs4 v032
 BYTE   W12
 BYTE   Bn3 v028
 BYTE   W12
 BYTE   N24 Ds4
 BYTE   W24
 BYTE   N12 Bn3
 BYTE   W12
 BYTE   Cs4 v040
 BYTE   W12
 BYTE   N05 Bn3 v032
 BYTE   W12
//  #01 //035   ----------------------------------------
 BYTE   VOL  72*song03DA_mvl/mxv
 BYTE   N06 Gn3 v072
 BYTE   W12
 BYTE   N04 Bn3
 BYTE   W12
 BYTE   N05 En4 v076
 BYTE   W12
 BYTE   N03 Bn3 v096
 BYTE   W06
 BYTE   N06 Bn3 v088
 BYTE   W06
 BYTE   N07 Gn3 v092
 BYTE   W12
 BYTE   N05 Bn3
 BYTE   W12
 BYTE   N06 Gn4 v088
 BYTE   W12
 BYTE   N03 Bn3 v100
 BYTE   W06
 BYTE   N06 Bn3 v084
 BYTE   W06
//  #01 //036   ----------------------------------------
 BYTE   Gn3 v100
 BYTE   W12
 BYTE   N04 Bn3 v056
 BYTE   W12
 BYTE   N06 En4 v084
 BYTE   W12
 BYTE   N04 Bn3 v072
 BYTE   W06
 BYTE   N05 Bn3 v100
 BYTE   W06
 BYTE   N06 Gn3 v080
 BYTE   W12
 BYTE   N04 Bn3 v092
 BYTE   W12
 BYTE   Gn4 v080
 BYTE   W12
 BYTE   N03 Bn3
 BYTE   W06
 BYTE   N04 Bn3 v084
 BYTE   W06
//  #01 //037   ----------------------------------------
 BYTE   N07 An3 v068
 BYTE   W12
 BYTE   N04 Cn4 v072
 BYTE   W12
 BYTE   N05 En4 v076
 BYTE   W12
 BYTE   N03 Cn4 v080
 BYTE   W06
 BYTE   N06 Cn4 v084
 BYTE   W06
 BYTE   N07 An3 v100
 BYTE   W12
 BYTE   N05 Cn4 v088
 BYTE   W12
 BYTE   N06 An4
 BYTE   W12
 BYTE   N03 Cn4
 BYTE   W06
 BYTE   N04 Cn4 v080
 BYTE   W06
//  #01 //038   ----------------------------------------
 BYTE   N06 An3 v092
 BYTE   W12
 BYTE   N04 Cn4 v048
 BYTE   W12
 BYTE   N06 Fs4 v084
 BYTE   W12
 BYTE   N04 Cn4 v076
 BYTE   W06
 BYTE   N05 Cn4 v096
 BYTE   W06
 BYTE   N06 An3 v088
 BYTE   W12
 BYTE   N04 Cn4 v080
 BYTE   W12
 BYTE   Fs4 v092
 BYTE   W12
 BYTE   N03 Cn4 v080
 BYTE   W06
 BYTE   N04 Cn4 v088
 BYTE   W06
//  #01 //039   ----------------------------------------
 BYTE   N07 Gn3 v068
 BYTE   W12
 BYTE   N04 Bn3 v076
 BYTE   W12
 BYTE   N05 En4
 BYTE   W12
 BYTE   N03 Bn3 v084
 BYTE   W06
 BYTE   N06 Bn3 v092
 BYTE   W06
 BYTE   N07 Gn3
 BYTE   W12
 BYTE   N05 Bn3
 BYTE   W12
 BYTE   N06 Gn4 v084
 BYTE   W12
 BYTE   N03 Bn3 v096
 BYTE   W06
 BYTE   N06 Bn3 v084
 BYTE   W06
//  #01 //040   ----------------------------------------
 BYTE   Gn3 v088
 BYTE   W12
 BYTE   N04 Bn3 v048
 BYTE   W12
 BYTE   N06 En4 v084
 BYTE   W12
 BYTE   N04 Bn3 v076
 BYTE   W06
 BYTE   N05 Bn3 v088
 BYTE   W06
 BYTE   N06 Gn3 v076
 BYTE   W12
 BYTE   N04 Bn3 v084
 BYTE   W12
 BYTE   Gn4
 BYTE   W12
 BYTE   N03 Bn3
 BYTE   W06
 BYTE   N04 Bn3 v080
 BYTE   W06
//  #01 //041   ----------------------------------------
 BYTE   N07 An3 v068
 BYTE   W12
 BYTE   N04 Cn4 v072
 BYTE   W12
 BYTE   N05 En4 v076
 BYTE   W12
 BYTE   N03 Cn4 v088
 BYTE   W06
 BYTE   N06 Cn4 v084
 BYTE   W06
 BYTE   N07 An3 v088
 BYTE   W12
 BYTE   N05 Cn4 v080
 BYTE   W12
 BYTE   N06 An4 v084
 BYTE   W12
 BYTE   N03 Cn4 v108
 BYTE   W06
 BYTE   N04 Cn4 v072
 BYTE   W06
//  #01 //042   ----------------------------------------
 BYTE   N06 An3 v096
 BYTE   W12
 BYTE   N04 Cn4 v052
 BYTE   W12
 BYTE   N06 Fs4 v084
 BYTE   W12
 BYTE   N04 Cn4 v072
 BYTE   W06
 BYTE   N05 Cn4 v084
 BYTE   W06
 BYTE   N06 An3 v088
 BYTE   W12
 BYTE   N04 Cn4
 BYTE   W12
 BYTE   Fs4 v084
 BYTE   W12
 BYTE   N03 Cn4
 BYTE   W06
 BYTE   N04 Cn4 v088
 BYTE   W06
//  #01 //043   ----------------------------------------
 BYTE   N07 Gn3 v064
 BYTE   W12
 BYTE   N04 Bn3 v072
 BYTE   W12
 BYTE   N05 En4 v076
 BYTE   W12
 BYTE   N03 Bn3 v080
 BYTE   W06
 BYTE   N06 Bn3 v088
 BYTE   W06
 BYTE   N07 Gn3 v096
 BYTE   W12
 BYTE   N05 Bn3 v100
 BYTE   W12
 BYTE   N06 Gn4 v092
 BYTE   W12
 BYTE   N03 Bn3 v096
 BYTE   W06
 BYTE   N06 Bn3 v080
 BYTE   W06
//  #01 //044   ----------------------------------------
 BYTE   Gn3 v104
 BYTE   W12
 BYTE   N04 Bn3 v048
 BYTE   W12
 BYTE   N06 En4 v084
 BYTE   W12
 BYTE   N04 Bn3 v080
 BYTE   W06
 BYTE   N05 Bn3 v100
 BYTE   W06
 BYTE   N06 Gn3 v084
 BYTE   W12
 BYTE   N04 Bn3 v088
 BYTE   W12
 BYTE   Gn4
 BYTE   W12
 BYTE   N03 Bn3
 BYTE   W06
 BYTE   N04 Bn3 v080
 BYTE   W06
//  #01 //045   ----------------------------------------
 BYTE   N07 An3 v064
 BYTE   W12
 BYTE   N04 Cn4 v076
 BYTE   W12
 BYTE   N05 En4 v068
 BYTE   W12
 BYTE   N03 Cn4 v088
 BYTE   W06
 BYTE   N06 Cn4 v076
 BYTE   W06
 BYTE   N07 An3 v092
 BYTE   W12
 BYTE   N05 Cn4 v088
 BYTE   W12
 BYTE   N06 An4 v100
 BYTE   W12
 BYTE   N03 Cn4 v084
 BYTE   W06
 BYTE   N04 Cn4 v092
 BYTE   W06
//  #01 //046   ----------------------------------------
 BYTE   N06 An3 v096
 BYTE   W12
 BYTE   N04 Cn4 v052
 BYTE   W12
 BYTE   N06 Fs4 v096
 BYTE   W12
 BYTE   N04 Cn4 v080
 BYTE   W06
 BYTE   N05 Cn4 v088
 BYTE   W06
 BYTE   N06 An3 v080
 BYTE   W12
 BYTE   N04 Cn4 v076
 BYTE   W12
 BYTE   Fs4 v084
 BYTE   W12
 BYTE   N03 Cn4
 BYTE   W06
 BYTE   N04 Cn4 v068
 BYTE   W06
//  #01 //047   ----------------------------------------
 BYTE   N15 En4 v108
 BYTE   W16
 BYTE   N16 Dn4 v100
 BYTE   W16
 BYTE   Cn4 v092
 BYTE   W16
 BYTE   Bn3 v072
 BYTE   W16
 BYTE   An3 v088
 BYTE   W16
 BYTE   Gn3 v076
 BYTE   W16
//  #01 //048   ----------------------------------------
 BYTE   Fs3 v088
 BYTE   W16
 BYTE   En3 v084
 BYTE   W16
 BYTE   Dn3 v076
 BYTE   W16
 BYTE   Cn3
 BYTE   W16
 BYTE   Bn2 v088
 BYTE   W16
 BYTE   An2 v080
 BYTE   W16
//  #01 //049   ----------------------------------------
 BYTE   En3 v096
 BYTE   W16
 BYTE   Dn3 v088
 BYTE   W16
 BYTE   Cn3 v068
 BYTE   W16
 BYTE   Bn2 v088
 BYTE   W16
 BYTE   An2 v084
 BYTE   W16
 BYTE   Gn2
 BYTE   W16
//  #01 //050   ----------------------------------------
 BYTE   Fs3 v100
 BYTE   W16
 BYTE   En3 v092
 BYTE   W16
 BYTE   Dn3
 BYTE   W16
 BYTE   Cn4 v108
 BYTE   W16
 BYTE   Bn3 v084
 BYTE   W16
 BYTE   An3 v088
 BYTE   W16
//  #01 //051   ----------------------------------------
 BYTE   N12 Bn3 v112
 BYTE   W12
 BYTE   N03 Fs3 v036
 BYTE   W12
 BYTE   N04
 BYTE   W12
 BYTE   Fs3 v040
 BYTE   W12
 BYTE   Fs3 v052
 BYTE   W12
 BYTE   Fs3 v056
 BYTE   W12
 BYTE   Fs3 v064
 BYTE   W12
 BYTE   Fs3 v060
 BYTE   W12
//  #01 //052   ----------------------------------------
 BYTE   Gn3 v108
 BYTE   W12
 BYTE   Gn3 v096
 BYTE   W12
 BYTE   N05 Gn3 v108
 BYTE   W12
 BYTE   N04 Gn3 v080
 BYTE   W12
 BYTE   Gn3 v104
 BYTE   W12
 BYTE   Gn3 v092
 BYTE   W12
 BYTE   N05 Gn3 v100
 BYTE   W12
 BYTE   N06 Gn3 v076
 BYTE   W12
//  #01 //053   ----------------------------------------
 BYTE   N04 An3 v080
 BYTE   W12
 BYTE   An3 v076
 BYTE   W12
 BYTE   N05 An3 v088
 BYTE   W12
 BYTE   N04 An3 v060
 BYTE   W12
 BYTE   N05 An3 v072
 BYTE   W12
 BYTE   N04 An3 v064
 BYTE   W12
 BYTE   An3 v092
 BYTE   W12
 BYTE   An3 v072
 BYTE   W12
//  #01 //054   ----------------------------------------
 BYTE   N05 Bn3 v092
 BYTE   W12
 BYTE   N04 Bn3 v088
 BYTE   W12
 BYTE   N06 Bn3 v096
 BYTE   W12
 BYTE   N05 Bn3 v056
 BYTE   W12
 BYTE   N04 Bn3 v072
 BYTE   W12
 BYTE   Bn3 v068
 BYTE   W12
 BYTE   Bn3 v092
 BYTE   W12
 BYTE   Bn3 v060
 BYTE   W12
//  #01 //055   ----------------------------------------
 BYTE   N05 Ds4 v116
 BYTE   W12
 BYTE   N04 Ds4 v104
 BYTE   W12
 BYTE   N05 Ds4 v088
 BYTE   W12
 BYTE   N04 Ds4 v080
 BYTE   W12
 BYTE   Ds4 v120
 BYTE   W12
 BYTE   Ds4 v112
 BYTE   W12
 BYTE   N04
 BYTE   W12
 BYTE   N03 Ds4 v120
 BYTE   W12
//  #01 //056   ----------------------------------------
 BYTE   N12 As4 v076
 BYTE   W12
 BYTE   An4 v064
 BYTE   W12
 BYTE   Gn4
 BYTE   W12
 BYTE   N24 Dn4
 BYTE   W24
 BYTE   N12 Cn4
 BYTE   W12
 BYTE   As3 v076
 BYTE   W12
 BYTE   N06 Gn3 v072
 BYTE   W12
//  #01 //057   ----------------------------------------
 BYTE   N12 Gn3 v080
 BYTE   W12
 BYTE   An3 v064
 BYTE   W12
 BYTE   Gn3 v088
 BYTE   W12
 BYTE   N24 As3 v080
 BYTE   W24
 BYTE   N12 Gn3 v076
 BYTE   W12
 BYTE   An3
 BYTE   W12
 BYTE   N07 Gn3 v080
 BYTE   W12
//  #01 //058   ----------------------------------------
 BYTE   N12 Gn3 v084
 BYTE   W12
 BYTE   An3 v072
 BYTE   W12
 BYTE   Gn3 v084
 BYTE   W12
 BYTE   N24 As3 v088
 BYTE   W24
 BYTE   N12 Gn3 v076
 BYTE   W12
 BYTE   An3 v080
 BYTE   W12
 BYTE   N06 Gn3 v068
 BYTE   W12
//  #01 //059   ----------------------------------------
 BYTE   N12 Gn3 v092
 BYTE   W12
 BYTE   An3 v064
 BYTE   W12
 BYTE   Gn3 v072
 BYTE   W12
 BYTE   N24 As3 v088
 BYTE   W24
 BYTE   N12 Gn3 v064
 BYTE   W12
 BYTE   An3 v068
 BYTE   W12
 BYTE   N07 Gn3 v088
 BYTE   W12
//  #01 //060   ----------------------------------------
 BYTE   N12 As3
 BYTE   W12
 BYTE   Cn4 v076
 BYTE   W12
 BYTE   As3 v084
 BYTE   W12
 BYTE   N24 Dn4 v096
 BYTE   W24
 BYTE   N12 As3 v072
 BYTE   W12
 BYTE   Cn4 v064
 BYTE   W12
 BYTE   N06 As3 v072
 BYTE   W12
//  #01 //061   ----------------------------------------
 BYTE   N12 As3 v092
 BYTE   W12
 BYTE   Cn4 v072
 BYTE   W12
 BYTE   As3 v092
 BYTE   W12
 BYTE   N24 Dn4 v084
 BYTE   W24
 BYTE   N12 As3 v088
 BYTE   W12
 BYTE   Cn4 v068
 BYTE   W12
 BYTE   N06 As3 v088
 BYTE   W12
//  #01 //062   ----------------------------------------
 BYTE   N12
 BYTE   W12
 BYTE   Cn4 v076
 BYTE   W12
 BYTE   As3 v092
 BYTE   W12
 BYTE   N24 Dn4 v104
 BYTE   W24
 BYTE   N12 As3 v080
 BYTE   W12
 BYTE   Cn4 v068
 BYTE   W12
 BYTE   N05 As3 v080
 BYTE   W12
//  #01 //063   ----------------------------------------
 BYTE   N12 As3 v084
 BYTE   W12
 BYTE   Cn4 v052
 BYTE   W12
 BYTE   As3 v084
 BYTE   W12
 BYTE   N24 Dn4 v092
 BYTE   W24
 BYTE   N12 As3 v088
 BYTE   W12
 BYTE   Cn4 v080
 BYTE   W12
 BYTE   N05 As3 v096
 BYTE   W12
//  #01 //064   ----------------------------------------
 BYTE   N12 Gn3 v088
 BYTE   W12
 BYTE   An3 v068
 BYTE   W12
 BYTE   Gn3 v088
 BYTE   W12
 BYTE   N24 As3 v096
 BYTE   W24
 BYTE   N12 Gn3 v068
 BYTE   W12
 BYTE   An3 v076
 BYTE   W12
 BYTE   N08 Gn3 v068
 BYTE   W12
//  #01 //065   ----------------------------------------
 BYTE   N12 Gn3 v084
 BYTE   W12
 BYTE   An3 v064
 BYTE   W12
 BYTE   Gn3 v072
 BYTE   W12
 BYTE   N24 As3 v080
 BYTE   W24
 BYTE   N12 Gn3 v068
 BYTE   W12
 BYTE   An3 v072
 BYTE   W12
 BYTE   N08 Gn3
 BYTE   W12
//  #01 //066   ----------------------------------------
 BYTE   N12 Gn3 v080
 BYTE   W12
 BYTE   An3 v076
 BYTE   W12
 BYTE   Gn3 v088
 BYTE   W12
 BYTE   N24 Dn4
 BYTE   W24
 BYTE   N12 Gn3 v080
 BYTE   W12
 BYTE   An3
 BYTE   W12
 BYTE   N08 Gn3 v076
 BYTE   W12
//  #01 //067   ----------------------------------------
 BYTE   N12 Gn3 v092
 BYTE   W12
 BYTE   An3 v072
 BYTE   W12
 BYTE   Gn3 v084
 BYTE   W12
 BYTE   N24 Dn4 v096
 BYTE   W24
 BYTE   N12 Gn3 v056
 BYTE   W12
 BYTE   An3
 BYTE   W12
 BYTE   N08 Gn3 v088
 BYTE   W12
//  #01 //068   ----------------------------------------
 BYTE   N12 Gn3 v100
 BYTE   W12
 BYTE   An3 v032
 BYTE   W12
 BYTE   Gn3 v076
 BYTE   W12
 BYTE   N24 As3 v092
 BYTE   W24
 BYTE   N12 Gn3 v076
 BYTE   W12
 BYTE   An3 v084
 BYTE   W12
 BYTE   N08 Gn3 v080
 BYTE   W12
//  #01 //069   ----------------------------------------
 BYTE   N12 Gn3 v096
 BYTE   W12
 BYTE   An3 v064
 BYTE   W12
 BYTE   Gn3 v084
 BYTE   W12
 BYTE   N24 As3 v088
 BYTE   W24
 BYTE   N12 Gn3 v068
 BYTE   W12
 BYTE   An3 v080
 BYTE   W12
 BYTE   N08 Gn3 v076
 BYTE   W12
//  #01 //070   ----------------------------------------
 BYTE   N12
 BYTE   W12
 BYTE   An3 v080
 BYTE   W12
 BYTE   Gn3
 BYTE   W12
 BYTE   N24 As3 v084
 BYTE   W24
 BYTE   N12 Gn3 v088
 BYTE   W12
 BYTE   An3 v084
 BYTE   W12
 BYTE   N08 Gn3 v072
 BYTE   W12
//  #01 //071   ----------------------------------------
 BYTE   N12 Gn3 v088
 BYTE   W12
 BYTE   An3 v072
 BYTE   W12
 BYTE   Gn3 v080
 BYTE   W12
 BYTE   N24 As3 v088
 BYTE   W24
 BYTE   N12 Gn3 v060
 BYTE   W12
 BYTE   An3
 BYTE   W12
 BYTE   Gn3 v088
 BYTE   W12
//  #01 //072   ----------------------------------------
 BYTE   N06 As3 v068
 BYTE   W06
 BYTE   An3 v056
 BYTE   W06
 BYTE   Gn3 v064
 BYTE   W06
 BYTE   Dn3 v060
 BYTE   W06
 BYTE   N05 Fn3 v056
 BYTE   W05
 BYTE   Ds3
 BYTE   W06
 BYTE   N06 Dn3 v064
 BYTE   W07
 BYTE   Cn3 v056
 BYTE   W06
 BYTE   Gn3
 BYTE   W06
 BYTE   Dn3
 BYTE   W06
 BYTE   Cn3 v060
 BYTE   W06
 BYTE   As2 v056
 BYTE   W06
 BYTE   Dn3
 BYTE   W06
 BYTE   Cn3
 BYTE   W06
 BYTE   As2
 BYTE   W06
 BYTE   An2
 BYTE   W06
//  #01 //073   ----------------------------------------
 BYTE   Gn2 v068
 BYTE   W06
 BYTE   Dn2 v060
 BYTE   W06
 BYTE   Cn2 v056
 BYTE   W06
 BYTE   Dn2 v052
 BYTE   W06
 BYTE   Fn2 v060
 BYTE   W06
 BYTE   Ds2
 BYTE   W06
 BYTE   N05 Dn2
 BYTE   W06
 BYTE   N06 Cn2
 BYTE   W06
 BYTE   Dn2 v056
 BYTE   W06
 BYTE   Cn2 v060
 BYTE   W06
 BYTE   Fn2
 BYTE   W06
 BYTE   Ds2 v056
 BYTE   W06
 BYTE   Dn2 v048
 BYTE   W06
 BYTE   Cn2
 BYTE   W06
 BYTE   As1 v060
 BYTE   W12
//  #01 //074   ----------------------------------------
 BYTE   N22 Gn3 v036
 BYTE   W06
 BYTE   VOL  38*song03DA_mvl/mxv
 BYTE   W06
 BYTE   VOL  20*song03DA_mvl/mxv
 BYTE   W06
 BYTE   VOL  5*song03DA_mvl/mxv
 BYTE   W06
 BYTE   VOL  0*song03DA_mvl/mxv
 BYTE   N12 Gn3 v016
 BYTE   W06
 BYTE   VOL  0*song03DA_mvl/mxv
 BYTE   W06
 BYTE   VOL  0*song03DA_mvl/mxv
 BYTE   N24 As3
 BYTE   W06
 BYTE   VOL  1*song03DA_mvl/mxv
 BYTE   W06
 BYTE   VOL  4*song03DA_mvl/mxv
 BYTE   W06
 BYTE   VOL  9*song03DA_mvl/mxv
 BYTE   W06
 BYTE   VOL  20*song03DA_mvl/mxv
 BYTE   N12 Gn3 v032
 BYTE   W06
 BYTE   VOL  27*song03DA_mvl/mxv
 BYTE   W06
 BYTE   VOL  33*song03DA_mvl/mxv
 BYTE   N12 An3 v024
 BYTE   W06
 BYTE   VOL  38*song03DA_mvl/mxv
 BYTE   W06
 BYTE   VOL  42*song03DA_mvl/mxv
 BYTE   N12 Gn3 v032
 BYTE   W12
//  #01 //075   ----------------------------------------
 BYTE   VOL  52*song03DA_mvl/mxv
 BYTE   N12 Gn3 v036
 BYTE   W12
 BYTE   An3 v024
 BYTE   W12
 BYTE   Gn3 v036
 BYTE   W12
 BYTE   N24 As3 v024
 BYTE   W24
 BYTE   N12 Gn3 v036
 BYTE   W12
 BYTE   An3 v024
 BYTE   W12
 BYTE   N13 Gn3 v016
 BYTE   W12
//  #01 //076   ----------------------------------------
 BYTE   N12 Cn4 v036
 BYTE   W12
 BYTE   Dn4 v048
 BYTE   W12
 BYTE   Cn4 v044
 BYTE   W12
 BYTE   N24 Ds4 v052
 BYTE   W24
 BYTE   N12 Cn4 v040
 BYTE   W12
 BYTE   Dn4 v044
 BYTE   W12
 BYTE   N09 Cn4 v032
 BYTE   W12
//  #01 //077   ----------------------------------------
 BYTE   N12 Cn4 v044
 BYTE   W12
 BYTE   Dn4 v020
 BYTE   W12
 BYTE   Cn4 v048
 BYTE   W12
 BYTE   N24 Ds4 v052
 BYTE   W24
 BYTE   N12 Cn4 v024
 BYTE   W12
 BYTE   Dn4 v036
 BYTE   W12
 BYTE   N09 Cn4
 BYTE   W12
//  #01 //078   ----------------------------------------
 BYTE   N12 Cn4 v040
 BYTE   W12
 BYTE   Ds4 v044
 BYTE   W12
 BYTE   Cn4 v028
 BYTE   W12
 BYTE   N24 Ds4 v052
 BYTE   W24
 BYTE   N12 Cn4 v032
 BYTE   W12
 BYTE   Dn4 v044
 BYTE   W12
 BYTE   N09 Cn4 v040
 BYTE   W12
//  #01 //079   ----------------------------------------
 BYTE   N12 Cn4 v044
 BYTE   W12
 BYTE   Ds4 v036
 BYTE   W12
 BYTE   Cn4 v040
 BYTE   W12
 BYTE   N24 Ds4 v048
 BYTE   W24
 BYTE   N12 Cn4 v036
 BYTE   W12
 BYTE   Dn4 v044
 BYTE   W12
 BYTE   N10 Cn4 v056
 BYTE   W12
//  #01 //080   ----------------------------------------
 BYTE   N12 Gn3 v044
 BYTE   W12
 BYTE   An3
 BYTE   W12
 BYTE   Gn3 v032
 BYTE   W12
 BYTE   N24 As3 v056
 BYTE   W24
 BYTE   N12 Gn3 v036
 BYTE   W12
 BYTE   An3 v048
 BYTE   W12
 BYTE   N09 Gn3 v044
 BYTE   W12
//  #01 //081   ----------------------------------------
 BYTE   N12 Gn3 v052
 BYTE   W12
 BYTE   An3 v032
 BYTE   W12
 BYTE   Gn3 v052
 BYTE   W12
 BYTE   N24 As3
 BYTE   W24
 BYTE   N12 Gn3 v028
 BYTE   W12
 BYTE   An3 v032
 BYTE   W12
 BYTE   Gn3
 BYTE   W12
//  #01 //082   ----------------------------------------
 BYTE   Ds4 v068
 BYTE   W12
 BYTE   Fn4 v036
 BYTE   W12
 BYTE   Ds4 v060
 BYTE   W12
 BYTE   N24 Gn4 v036
 BYTE   W24
 BYTE   N12 Ds4 v016
 BYTE   W12
 BYTE   Fn4 v028
 BYTE   W12
 BYTE   N08 Ds4 v052
 BYTE   W12
//  #01 //083   ----------------------------------------
 BYTE   N12 Ds4 v056
 BYTE   W12
 BYTE   Fn4 v024
 BYTE   W12
 BYTE   Ds4 v056
 BYTE   W12
 BYTE   N24 Gn4 v032
 BYTE   W24
 BYTE   N12 Ds4 v004
 BYTE   W12
 BYTE   Fn4 v024
 BYTE   W12
 BYTE   Ds4 v016
 BYTE   W12
//  #01 //084   ----------------------------------------
 BYTE   Cn4 v072
 BYTE   W12
 BYTE   Dn4 v024
 BYTE   W12
 BYTE   Cn4 v056
 BYTE   W12
 BYTE   N24 Ds4 v032
 BYTE   W24
 BYTE   N12 Cn4 v024
 BYTE   W12
 BYTE   Dn4
 BYTE   W12
 BYTE   N09 Cn4 v016
 BYTE   W12
//  #01 //085   ----------------------------------------
 BYTE   N12 Cn4 v076
 BYTE   W12
 BYTE   Dn4 v028
 BYTE   W12
 BYTE   Cn4 v084
 BYTE   W12
 BYTE   N24 Ds4 v028
 BYTE   W24
 BYTE   N12 Cn4
 BYTE   W12
 BYTE   Dn4 v016
 BYTE   W12
 BYTE   Cn4 v020
 BYTE   W12
//  #01 //086   ----------------------------------------
 BYTE   An3 v032
 BYTE   W12
 BYTE   As3 v040
 BYTE   W12
 BYTE   An3 v032
 BYTE   W12
 BYTE   N24 Cn4
 BYTE   W24
 BYTE   N12 An3 v028
 BYTE   W12
 BYTE   As3 v044
 BYTE   W12
 BYTE   N09 An3 v024
 BYTE   W12
//  #01 //087   ----------------------------------------
 BYTE   N12 An3 v032
 BYTE   W12
 BYTE   As3 v040
 BYTE   W12
 BYTE   An3 v032
 BYTE   W12
 BYTE   N24 Cn4 v036
 BYTE   W24
 BYTE   N12 An3 v024
 BYTE   W12
 BYTE   As3 v036
 BYTE   W12
 BYTE   An3 v028
 BYTE   W12
//  #01 //088   ----------------------------------------
 BYTE   Dn4 v044
 BYTE   W12
 BYTE   En4 v032
 BYTE   W12
 BYTE   Dn4
 BYTE   W12
 BYTE   N24 Fs4
 BYTE   W24
 BYTE   N12 Dn4
 BYTE   W12
 BYTE   En4
 BYTE   W12
 BYTE   Dn4 v020
 BYTE   W12
//  #01 //089   ----------------------------------------
 BYTE   Dn4 v028
 BYTE   W12
 BYTE   En4 v032
 BYTE   W12
 BYTE   Dn4 v028
 BYTE   W12
 BYTE   N24 Fs4
 BYTE   W24
 BYTE   N12 Dn4
 BYTE   W12
 BYTE   En4 v040
 BYTE   W12
 BYTE   N05 Dn4 v032
 BYTE   W12
//  #01 //090   ----------------------------------------
 BYTE   N06 As3 v072
 BYTE   W12
 BYTE   N04 Dn4 v068
 BYTE   W12
 BYTE   N05 Gn4 v076
 BYTE   W12
 BYTE   N03 Dn4 v084
 BYTE   W06
 BYTE   N06
 BYTE   W06
 BYTE   N07 As3 v096
 BYTE   W12
 BYTE   N05 Dn4
 BYTE   W12
 BYTE   N06 As4 v080
 BYTE   W12
 BYTE   N03 Dn4 v100
 BYTE   W06
 BYTE   N06 Dn4 v084
 BYTE   W06
//  #01 //091   ----------------------------------------
 BYTE   As3 v096
 BYTE   W12
 BYTE   N04 Dn4 v052
 BYTE   W12
 BYTE   N06 Gn4 v084
 BYTE   W12
 BYTE   N04 Dn4 v072
 BYTE   W06
 BYTE   N05 Dn4 v088
 BYTE   W06
 BYTE   N06 As3 v080
 BYTE   W12
 BYTE   N04 Dn4 v084
 BYTE   W12
 BYTE   As4 v088
 BYTE   W12
 BYTE   N03 Dn4 v084
 BYTE   W06
 BYTE   N04 Dn4 v076
 BYTE   W06
//  #01 //092   ----------------------------------------
 BYTE   N07 Cn4 v068
 BYTE   W12
 BYTE   N04 Ds4 v076
 BYTE   W12
 BYTE   N05 Gn4 v068
 BYTE   W12
 BYTE   N03 Ds4 v084
 BYTE   W06
 BYTE   N06
 BYTE   W06
 BYTE   N07 Cn4 v096
 BYTE   W12
 BYTE   N05 Ds4
 BYTE   W12
 BYTE   N06 Cn5 v092
 BYTE   W12
 BYTE   N03 Ds4 v088
 BYTE   W06
 BYTE   N04 Ds4 v084
 BYTE   W06
//  #01 //093   ----------------------------------------
 BYTE   N06 Cn4 v088
 BYTE   W12
 BYTE   N04 Ds4 v052
 BYTE   W12
 BYTE   N06 An4 v080
 BYTE   W12
 BYTE   N04 Ds4
 BYTE   W06
 BYTE   N05 Ds4 v092
 BYTE   W06
 BYTE   N06 Cn4 v100
 BYTE   W12
 BYTE   N04 Ds4 v076
 BYTE   W12
 BYTE   An4 v088
 BYTE   W12
 BYTE   N03 Ds4 v076
 BYTE   W06
 BYTE   N04 Ds4 v080
 BYTE   W06
//  #01 //094   ----------------------------------------
 BYTE   N07 As3 v072
 BYTE   W12
 BYTE   N04 Dn4 v080
 BYTE   W12
 BYTE   N05 Gn4 v072
 BYTE   W12
 BYTE   N03 Dn4 v084
 BYTE   W06
 BYTE   N06
 BYTE   W06
 BYTE   N07 As3 v092
 BYTE   W12
 BYTE   N05 Dn4 v088
 BYTE   W12
 BYTE   N06 As4
 BYTE   W12
 BYTE   N03 Dn4
 BYTE   W06
 BYTE   N06
 BYTE   W06
//  #01 //095   ----------------------------------------
 BYTE   As3 v092
 BYTE   W12
 BYTE   N04 Dn4 v052
 BYTE   W12
 BYTE   N06 Gn4 v080
 BYTE   W12
 BYTE   N04 Dn4 v076
 BYTE   W06
 BYTE   N05 Dn4 v084
 BYTE   W06
 BYTE   N06 As3 v076
 BYTE   W12
 BYTE   N04 Dn4 v080
 BYTE   W12
 BYTE   As4 v088
 BYTE   W12
 BYTE   N03 Dn4 v084
 BYTE   W06
 BYTE   N04 Dn4 v088
 BYTE   W06
//  #01 //096   ----------------------------------------
 BYTE   N07 Cn4 v068
 BYTE   W12
 BYTE   N04 Ds4 v076
 BYTE   W12
 BYTE   N05 Gn4 v080
 BYTE   W12
 BYTE   N03 Ds4 v084
 BYTE   W06
 BYTE   N06
 BYTE   W06
 BYTE   N07 Cn4 v088
 BYTE   W12
 BYTE   N05 Ds4 v092
 BYTE   W12
 BYTE   N06 Cn5 v096
 BYTE   W12
 BYTE   N03 Ds4 v088
 BYTE   W06
 BYTE   N04 Ds4 v084
 BYTE   W06
//  #01 //097   ----------------------------------------
 BYTE   N06 Cn4 v092
 BYTE   W12
 BYTE   N04 Ds4 v052
 BYTE   W12
 BYTE   N06 An4 v084
 BYTE   W12
 BYTE   N04 Ds4
 BYTE   W06
 BYTE   N05 Ds4 v080
 BYTE   W06
 BYTE   N06 Cn4 v084
 BYTE   W12
 BYTE   N04 Ds4
 BYTE   W12
 BYTE   An4 v080
 BYTE   W12
 BYTE   N03 Ds4 v084
 BYTE   W06
 BYTE   N04
 BYTE   W06
//  #01 //098   ----------------------------------------
 BYTE   N07 As3 v076
 BYTE   W12
 BYTE   N04 Dn4
 BYTE   W12
 BYTE   N05 Gn4 v068
 BYTE   W12
 BYTE   N03 Dn4 v080
 BYTE   W06
 BYTE   N06
 BYTE   W06
 BYTE   N07 As3 v096
 BYTE   W12
 BYTE   N05 Dn4 v092
 BYTE   W12
 BYTE   N06 As4
 BYTE   W12
 BYTE   N03 Dn4 v108
 BYTE   W06
 BYTE   N06 Dn4 v084
 BYTE   W06
//  #01 //099   ----------------------------------------
 BYTE   As3 v092
 BYTE   W12
 BYTE   N04 Dn4 v048
 BYTE   W12
 BYTE   N06 Gn4 v084
 BYTE   W12
 BYTE   N04 Dn4 v076
 BYTE   W06
 BYTE   N05 Dn4 v084
 BYTE   W06
 BYTE   N06 As3 v080
 BYTE   W12
 BYTE   N04 Dn4 v088
 BYTE   W12
 BYTE   As4
 BYTE   W12
 BYTE   N03 Dn4 v080
 BYTE   W06
 BYTE   N04 Dn4 v084
 BYTE   W06
//  #01 //100   ----------------------------------------
 BYTE   N07 Cn4 v068
 BYTE   W12
 BYTE   N04 Ds4 v076
 BYTE   W12
 BYTE   N05 Gn4 v080
 BYTE   W12
 BYTE   N03 Ds4 v084
 BYTE   W06
 BYTE   N06 Ds4 v088
 BYTE   W06
 BYTE   N07 Cn4 v080
 BYTE   W12
 BYTE   N05 Ds4 v100
 BYTE   W12
 BYTE   N06 Cn5 v096
 BYTE   W12
 BYTE   N03 Ds4 v100
 BYTE   W06
 BYTE   N04 Ds4 v084
 BYTE   W06
//  #01 //101   ----------------------------------------
 BYTE   N06 Cn4 v088
 BYTE   W12
 BYTE   N04 Ds4 v052
 BYTE   W12
 BYTE   N06 An4 v084
 BYTE   W12
 BYTE   N04 Ds4 v080
 BYTE   W06
 BYTE   N05 Ds4 v088
 BYTE   W06
 BYTE   N06 Cn4 v080
 BYTE   W12
 BYTE   N04 Ds4 v084
 BYTE   W12
 BYTE   An4 v096
 BYTE   W12
 BYTE   N03 Ds4 v072
 BYTE   W06
 BYTE   N04 Ds4 v088
 BYTE   W06
//  #01 //102   ----------------------------------------
 BYTE   N16 Gn4
 BYTE   W16
 BYTE   Fn4 v096
 BYTE   W16
 BYTE   Ds4 v084
 BYTE   W16
 BYTE   Dn4 v068
 BYTE   W16
 BYTE   Cn4 v084
 BYTE   W16
 BYTE   As3 v068
 BYTE   W16
//  #01 //103   ----------------------------------------
 BYTE   An3 v076
 BYTE   W16
 BYTE   Gn3 v084
 BYTE   W16
 BYTE   Fn3 v080
 BYTE   W16
 BYTE   Ds3 v084
 BYTE   W16
 BYTE   Dn3 v088
 BYTE   W16
 BYTE   Cn3 v072
 BYTE   W16
//  #01 //104   ----------------------------------------
 BYTE   Gn3 v096
 BYTE   W16
 BYTE   Fn3 v080
 BYTE   W16
 BYTE   Ds3 v064
 BYTE   W16
 BYTE   Dn3 v084
 BYTE   W16
 BYTE   Cn3 v088
 BYTE   W16
 BYTE   As2
 BYTE   W16
//  #01 //105   ----------------------------------------
 BYTE   An3 v100
 BYTE   W16
 BYTE   Gn3 v092
 BYTE   W16
 BYTE   Fn3 v088
 BYTE   W16
 BYTE   Ds4 v108
 BYTE   W16
 BYTE   Dn4 v080
 BYTE   W16
 BYTE   Cn4 v088
 BYTE   W16
//  #01 //106   ----------------------------------------
 BYTE   N12 Dn4 v108
 BYTE   W12
 BYTE   N03 An3 v036
 BYTE   W12
 BYTE   N04
 BYTE   W12
 BYTE   An3 v040
 BYTE   W12
 BYTE   An3 v056
 BYTE   W12
 BYTE   N04
 BYTE   W12
 BYTE   An3 v060
 BYTE   W12
 BYTE   An3 v056
 BYTE   W12
//  #01 //107   ----------------------------------------
 BYTE   As3 v108
 BYTE   W12
 BYTE   As3 v100
 BYTE   W12
 BYTE   N05 As3 v112
 BYTE   W12
 BYTE   N04 As3 v088
 BYTE   W12
 BYTE   As3 v092
 BYTE   W12
 BYTE   As3 v088
 BYTE   W12
 BYTE   N05 As3 v096
 BYTE   W12
 BYTE   N06 As3 v080
 BYTE   W12
//  #01 //108   ----------------------------------------
 BYTE   N04 Cn4 v072
 BYTE   W12
 BYTE   Cn4 v080
 BYTE   W12
 BYTE   N05 Cn4 v084
 BYTE   W12
 BYTE   N04 Cn4 v064
 BYTE   W12
 BYTE   N05 Cn4 v076
 BYTE   W12
 BYTE   N04 Cn4 v060
 BYTE   W12
 BYTE   Cn4 v096
 BYTE   W12
 BYTE   Cn4 v072
 BYTE   W12
//  #01 //109   ----------------------------------------
 BYTE   N05 Dn4 v088
 BYTE   W12
 BYTE   N04 Dn4 v080
 BYTE   W12
 BYTE   N06 Dn4 v088
 BYTE   W12
 BYTE   N05 Dn4 v076
 BYTE   W12
 BYTE   N04 Dn4 v072
 BYTE   W12
 BYTE   N04
 BYTE   W12
 BYTE   Dn4 v084
 BYTE   W12
 BYTE   Dn4 v060
 BYTE   W12
//  #01 //110   ----------------------------------------
 BYTE   N05 Fs4 v116
 BYTE   W12
 BYTE   N04 Fs4 v112
 BYTE   W12
 BYTE   N05 Fs4 v100
 BYTE   W12
 BYTE   N04 Fs4 v084
 BYTE   W12
 BYTE   Fs4 v120
 BYTE   W12
 BYTE   Fs4 v116
 BYTE   W12
 BYTE   Fs4 v112
 BYTE   W12
 BYTE   N03 Fs4 v108
 BYTE   W12
//  #01 //111   ----------------------------------------
 BYTE   GoTo
  POIN2 Label_0102DE50
//  #01 //112   ----------------------------------------
 BYTE   N12 En3 v088
 BYTE   W12
 BYTE   Fs3 v076
 BYTE   W12
 BYTE   En3 v096
 BYTE   W12
 BYTE   N24 Gn3 v088
 BYTE   W24
 BYTE   N12 En3 v068
 BYTE   W12
 BYTE   Fs3 v076
 BYTE   W12
 BYTE   N07 En3 v072
 BYTE   W12
//  #01 //113   ----------------------------------------
 BYTE   N12 En3 v088
 BYTE   W12
 BYTE   Fs3 v064
 BYTE   W12
 BYTE   En3 v080
 BYTE   W12
 BYTE   N24 Gn3 v088
 BYTE   W24
 BYTE   N12 En3 v064
 BYTE   W12
 BYTE   Fs3 v076
 BYTE   W12
 BYTE   N07 En3 v080
 BYTE   W12
//  #01 //114   ----------------------------------------
 BYTE   N12
 BYTE   W12
 BYTE   Fs3
 BYTE   W12
 BYTE   En3 v076
 BYTE   W12
 BYTE   N24 Gn3 v088
 BYTE   W24
 BYTE   N12 En3 v080
 BYTE   W12
 BYTE   Fs3
 BYTE   W12
 BYTE   N07 En3 v072
 BYTE   W12
//  #01 //115   ----------------------------------------
 BYTE   N12 En3 v096
 BYTE   W12
 BYTE   Fs3 v072
 BYTE   W12
 BYTE   En3 v076
 BYTE   W12
 BYTE   N24 Gn3 v084
 BYTE   W24
 BYTE   N12 En3 v068
 BYTE   W12
 BYTE   Fs3 v072
 BYTE   W12
 BYTE   N07 En3 v084
 BYTE   W12
//  #01 //116   ----------------------------------------
 BYTE   N09 En3 v112
 BYTE   W24
 BYTE   N06 Bn2 v100
 BYTE   W12
 BYTE   N04 Bn2 v088
 BYTE   W06
 BYTE   Bn2 v096
 BYTE   W06
 BYTE   N12 En3 v116
 BYTE   W12
 BYTE   FINE

//**************** Track 2 (Midi-Chn.1) ****************//

song03DA_002:
//  #02 //000   ----------------------------------------
 BYTE   KEYSH  song03DA_key+0
 BYTE   MODT 0
 BYTE   LFOS 44
 BYTE   VOL  65*song03DA_mvl/mxv
 BYTE   W12
 BYTE   VOICE  40
 BYTE   PAN  c_v-14
 BYTE   W84
//  #02 //001   ----------------------------------------
Label_01013052:
 BYTE   W96
//  #02 //002   ----------------------------------------
 BYTE   W96
//  #02 //003   ----------------------------------------
 BYTE   W96
//  #02 //004   ----------------------------------------
 BYTE   W96
//  #02 //005   ----------------------------------------
 BYTE   W96
//  #02 //006   ----------------------------------------
 BYTE   W96
//  #02 //007   ----------------------------------------
 BYTE   W96
//  #02 //008   ----------------------------------------
 BYTE   W96
//  #02 //009   ----------------------------------------
 BYTE   N06 En3 v088
 BYTE   W06
 BYTE   Fs3 v072
 BYTE   W06
 BYTE   Gn3 v088
 BYTE   W06
 BYTE   An3 v084
 BYTE   W06
 BYTE   Bn3
 BYTE   W06
 BYTE   An3
 BYTE   W06
 BYTE   Bn3 v080
 BYTE   W36
 BYTE   En4 v092
 BYTE   W06
 BYTE   Ds4 v088
 BYTE   W06
 BYTE   En4 v092
 BYTE   W06
 BYTE   Fs4 v080
 BYTE   W06
//  #02 //010   ----------------------------------------
 BYTE   Gn4 v068
 BYTE   W06
 BYTE   Fs4 v076
 BYTE   W06
 BYTE   Gn4
 BYTE   W36
 BYTE   Bn4
 BYTE   W06
 BYTE   An4 v072
 BYTE   W06
 BYTE   Gn4 v092
 BYTE   W06
 BYTE   Fs4 v056
 BYTE   W06
 BYTE   En4 v084
 BYTE   W06
 BYTE   Bn3 v056
 BYTE   W06
 BYTE   Gn3 v088
 BYTE   W06
 BYTE   Fs3 v056
 BYTE   W06
//  #02 //011   ----------------------------------------
 BYTE   En3 v096
 BYTE   W06
 BYTE   Fs3 v044
 BYTE   W06
 BYTE   Gn3 v080
 BYTE   W06
 BYTE   An3 v060
 BYTE   W06
 BYTE   Bn3 v080
 BYTE   W06
 BYTE   An3 v084
 BYTE   W06
 BYTE   Bn3 v104
 BYTE   W36
 BYTE   En4 v088
 BYTE   W06
 BYTE   Ds4 v096
 BYTE   W06
 BYTE   En4 v084
 BYTE   W06
 BYTE   Fs4 v104
 BYTE   W06
//  #02 //012   ----------------------------------------
 BYTE   Gn4 v076
 BYTE   W06
 BYTE   Fs4 v096
 BYTE   W06
 BYTE   Gn4 v084
 BYTE   W36
 BYTE   Bn4 v092
 BYTE   W06
 BYTE   An4 v076
 BYTE   W06
 BYTE   Gn4 v080
 BYTE   W06
 BYTE   Fs4 v060
 BYTE   W06
 BYTE   En4 v092
 BYTE   W06
 BYTE   Ds4 v064
 BYTE   W06
 BYTE   En4 v092
 BYTE   W06
 BYTE   Fs4
 BYTE   W06
//  #02 //013   ----------------------------------------
 BYTE   Gn4 v088
 BYTE   W06
 BYTE   Fs4 v092
 BYTE   W06
 BYTE   Gn4 v100
 BYTE   W06
 BYTE   An4 v080
 BYTE   W06
 BYTE   Bn4 v096
 BYTE   W06
 BYTE   An4 v088
 BYTE   W06
 BYTE   Bn4 v096
 BYTE   W36
 BYTE   En5 v088
 BYTE   W06
 BYTE   Ds5 v072
 BYTE   W06
 BYTE   En5 v076
 BYTE   W06
 BYTE   Fs5 v068
 BYTE   W06
//  #02 //014   ----------------------------------------
 BYTE   Gn5 v084
 BYTE   W06
 BYTE   Fs5 v060
 BYTE   W06
 BYTE   Gn5 v084
 BYTE   W36
 BYTE   Bn5 v088
 BYTE   W06
 BYTE   An5 v056
 BYTE   W06
 BYTE   Gn5
 BYTE   W06
 BYTE   Fs5 v060
 BYTE   W06
 BYTE   En5 v080
 BYTE   W06
 BYTE   Bn4 v072
 BYTE   W06
 BYTE   Gn4 v080
 BYTE   W06
 BYTE   Fs4 v040
 BYTE   W06
//  #02 //015   ----------------------------------------
 BYTE   En4 v088
 BYTE   W06
 BYTE   Fs4 v072
 BYTE   W06
 BYTE   Gn4 v084
 BYTE   W06
 BYTE   An4 v080
 BYTE   W06
 BYTE   Bn4 v088
 BYTE   W06
 BYTE   An4 v076
 BYTE   W06
 BYTE   Bn4 v096
 BYTE   W36
 BYTE   En5 v088
 BYTE   W06
 BYTE   Ds5 v092
 BYTE   W06
 BYTE   En5
 BYTE   W06
 BYTE   Fs5 v088
 BYTE   W06
//  #02 //016   ----------------------------------------
 BYTE   Gn5 v096
 BYTE   W06
 BYTE   Fs5 v084
 BYTE   W06
 BYTE   Gn5 v088
 BYTE   W36
 BYTE   Bn5 v100
 BYTE   W06
 BYTE   An5 v096
 BYTE   W06
 BYTE   Gn5
 BYTE   W06
 BYTE   Fs5 v088
 BYTE   W06
 BYTE   En5 v096
 BYTE   W06
 BYTE   Ds5 v092
 BYTE   W06
 BYTE   En5 v096
 BYTE   W06
 BYTE   Fs5 v092
 BYTE   W06
//  #02 //017   ----------------------------------------
 BYTE   Gn5 v108
 BYTE   W06
 BYTE   Fs5 v092
 BYTE   W06
 BYTE   En5 v108
 BYTE   W06
 BYTE   Bn4 v092
 BYTE   W06
 BYTE   N05 Dn5
 BYTE   W05
 BYTE   Cn5
 BYTE   W06
 BYTE   N06 Bn4 v104
 BYTE   W07
 BYTE   An4 v092
 BYTE   W06
 BYTE   En5
 BYTE   W06
 BYTE   Bn4
 BYTE   W06
 BYTE   An4
 BYTE   W06
 BYTE   Gn4
 BYTE   W06
 BYTE   Bn4
 BYTE   W06
 BYTE   An4
 BYTE   W06
 BYTE   Gn4
 BYTE   W06
 BYTE   Fs4
 BYTE   W06
//  #02 //018   ----------------------------------------
 BYTE   En4 v112
 BYTE   W06
 BYTE   Bn3 v100
 BYTE   W06
 BYTE   An3 v096
 BYTE   W06
 BYTE   Bn3 v088
 BYTE   W06
 BYTE   Dn4 v100
 BYTE   W06
 BYTE   Cn4
 BYTE   W06
 BYTE   N05 Bn3
 BYTE   W06
 BYTE   N06 An3
 BYTE   W06
 BYTE   Bn3 v092
 BYTE   W06
 BYTE   An3 v096
 BYTE   W06
 BYTE   Dn4 v092
 BYTE   W06
 BYTE   Cn4
 BYTE   W06
 BYTE   Bn3 v080
 BYTE   W06
 BYTE   An3
 BYTE   W06
 BYTE   Gn3 v100
 BYTE   W06
 BYTE   Fs3
 BYTE   W06
//  #02 //019   ----------------------------------------
 BYTE   VOL  65*song03DA_mvl/mxv
 BYTE   N48 En3
 BYTE   W24
 BYTE   W03
 BYTE   VOL  65*song03DA_mvl/mxv
 BYTE   W03
 BYTE   VOL  56*song03DA_mvl/mxv
 BYTE   W03
 BYTE   VOL  47*song03DA_mvl/mxv
 BYTE   W03
 BYTE   VOL  36*song03DA_mvl/mxv
 BYTE   W03
 BYTE   VOL  22*song03DA_mvl/mxv
 BYTE   W03
 BYTE   VOL  8*song03DA_mvl/mxv
 BYTE   W03
 BYTE   VOL  1*song03DA_mvl/mxv
 BYTE   W03
 BYTE   VOL  0*song03DA_mvl/mxv
 BYTE   W03
 BYTE   VOL  0*song03DA_mvl/mxv
 BYTE   W03
 BYTE   VOL  0*song03DA_mvl/mxv
 BYTE   W42
//  #02 //020   ----------------------------------------
 BYTE   VOL  65*song03DA_mvl/mxv
 BYTE   W96
//  #02 //021   ----------------------------------------
 BYTE   W96
//  #02 //022   ----------------------------------------
 BYTE   W96
//  #02 //023   ----------------------------------------
 BYTE   W96
//  #02 //024   ----------------------------------------
 BYTE   W96
//  #02 //025   ----------------------------------------
 BYTE   W96
//  #02 //026   ----------------------------------------
 BYTE   W96
//  #02 //027   ----------------------------------------
 BYTE   W96
//  #02 //028   ----------------------------------------
 BYTE   W96
//  #02 //029   ----------------------------------------
 BYTE   W96
//  #02 //030   ----------------------------------------
 BYTE   W96
//  #02 //031   ----------------------------------------
 BYTE   W96
//  #02 //032   ----------------------------------------
 BYTE   W96
//  #02 //033   ----------------------------------------
 BYTE   W96
//  #02 //034   ----------------------------------------
 BYTE   W96
//  #02 //035   ----------------------------------------
 BYTE   N06 Gn3 v052
 BYTE   W12
 BYTE   N04 Bn3 v056
 BYTE   W12
 BYTE   N05 En4 v060
 BYTE   W12
 BYTE   N03 Bn3 v068
 BYTE   W06
 BYTE   N06
 BYTE   W06
 BYTE   N07 Gn3 v072
 BYTE   W12
 BYTE   N05 Bn3 v076
 BYTE   W12
 BYTE   N06 Gn4 v068
 BYTE   W12
 BYTE   N03 Bn3 v076
 BYTE   W06
 BYTE   N06 Bn3 v068
 BYTE   W06
//  #02 //036   ----------------------------------------
 BYTE   Gn3 v076
 BYTE   W12
 BYTE   N04 Bn3 v036
 BYTE   W12
 BYTE   N06 En4 v064
 BYTE   W12
 BYTE   N04 Bn3 v056
 BYTE   W06
 BYTE   N05 Bn3 v072
 BYTE   W06
 BYTE   N06 Gn3 v064
 BYTE   W12
 BYTE   N04 Bn3
 BYTE   W12
 BYTE   Gn4 v068
 BYTE   W12
 BYTE   N03 Bn3 v064
 BYTE   W06
 BYTE   N04
 BYTE   W06
//  #02 //037   ----------------------------------------
 BYTE   N07 An3 v052
 BYTE   W12
 BYTE   N04 Cn4 v056
 BYTE   W12
 BYTE   N05 En4
 BYTE   W12
 BYTE   N03 Cn4 v068
 BYTE   W06
 BYTE   N06 Cn4 v064
 BYTE   W06
 BYTE   N07 An3 v076
 BYTE   W12
 BYTE   N05 Cn4
 BYTE   W12
 BYTE   N06 An4 v072
 BYTE   W12
 BYTE   N03 Cn4 v076
 BYTE   W06
 BYTE   N04 Cn4 v068
 BYTE   W06
//  #02 //038   ----------------------------------------
 BYTE   N06 An3 v076
 BYTE   W12
 BYTE   N04 Cn4 v036
 BYTE   W12
 BYTE   N06 Fs4 v068
 BYTE   W12
 BYTE   N04 Cn4 v060
 BYTE   W06
 BYTE   N05 Cn4 v072
 BYTE   W06
 BYTE   N06 An3 v064
 BYTE   W12
 BYTE   N04 Cn4
 BYTE   W12
 BYTE   Fs4 v072
 BYTE   W12
 BYTE   N03 Cn4 v060
 BYTE   W06
 BYTE   N04 Cn4 v068
 BYTE   W06
//  #02 //039   ----------------------------------------
Label_0101326F:
 BYTE   N07 Gn3 v052
 BYTE   W12
 BYTE   N04 Bn3 v056
 BYTE   W12
 BYTE   N05 En4
 BYTE   W12
 BYTE   N03 Bn3 v068
 BYTE   W06
 BYTE   N06
 BYTE   W06
 BYTE   N07 Gn3 v072
 BYTE   W12
 BYTE   N05 Bn3 v076
 BYTE   W12
 BYTE   N06 Gn4 v072
 BYTE   W12
 BYTE   N03 Bn3 v080
 BYTE   W06
 BYTE   N06 Bn3 v072
 BYTE   W06
 BYTE   PEND 
//  #02 //040   ----------------------------------------
Label_01013295:
 BYTE   N06 Gn3 v076
 BYTE   W12
 BYTE   N04 Bn3 v036
 BYTE   W12
 BYTE   N06 En4 v064
 BYTE   W12
 BYTE   N04 Bn3 v060
 BYTE   W06
 BYTE   N05 Bn3 v072
 BYTE   W06
 BYTE   N06 Gn3 v064
 BYTE   W12
 BYTE   N04 Bn3 v068
 BYTE   W12
 BYTE   Gn4
 BYTE   W12
 BYTE   N03 Bn3 v064
 BYTE   W06
 BYTE   N04
 BYTE   W06
 BYTE   PEND 
//  #02 //041   ----------------------------------------
Label_010132BA:
 BYTE   N07 An3 v048
 BYTE   W12
 BYTE   N04 Cn4 v060
 BYTE   W12
 BYTE   N05 En4 v056
 BYTE   W12
 BYTE   N03 Cn4 v068
 BYTE   W06
 BYTE   N06 Cn4 v064
 BYTE   W06
 BYTE   N07 An3 v072
 BYTE   W12
 BYTE   N05 Cn4
 BYTE   W12
 BYTE   N06 An4 v076
 BYTE   W12
 BYTE   N03 Cn4 v080
 BYTE   W06
 BYTE   N04 Cn4 v068
 BYTE   W06
 BYTE   PEND 
//  #02 //042   ----------------------------------------
Label_010132E2:
 BYTE   N06 An3 v076
 BYTE   W12
 BYTE   N04 Cn4 v036
 BYTE   W12
 BYTE   N06 Fs4 v068
 BYTE   W12
 BYTE   N04 Cn4 v060
 BYTE   W06
 BYTE   N05 Cn4 v072
 BYTE   W06
 BYTE   N06 An3 v064
 BYTE   W12
 BYTE   N04 Cn4
 BYTE   W12
 BYTE   Fs4 v068
 BYTE   W12
 BYTE   N03 Cn4 v060
 BYTE   W06
 BYTE   N04 Cn4 v068
 BYTE   W06
 BYTE   PEND 
//  #02 //043   ----------------------------------------
 BYTE   PATT
  POIN2 Label_0101326F
//  #02 //044   ----------------------------------------
 BYTE   PATT
  POIN2 Label_01013295
//  #02 //045   ----------------------------------------
 BYTE   PATT
  POIN2 Label_010132BA
//  #02 //046   ----------------------------------------
 BYTE   PATT
  POIN2 Label_010132E2
//  #02 //047   ----------------------------------------
 BYTE   N15 En4 v104
 BYTE   W16
 BYTE   N16 Dn4 v100
 BYTE   W16
 BYTE   Cn4 v092
 BYTE   W16
 BYTE   Bn3 v080
 BYTE   W16
 BYTE   An3 v088
 BYTE   W16
 BYTE   Gn3 v080
 BYTE   W16
//  #02 //048   ----------------------------------------
 BYTE   Fs3 v088
 BYTE   W16
 BYTE   En3
 BYTE   W16
 BYTE   Dn3 v080
 BYTE   W16
 BYTE   Cn3 v084
 BYTE   W16
 BYTE   Bn2 v088
 BYTE   W16
 BYTE   An2 v084
 BYTE   W16
//  #02 //049   ----------------------------------------
 BYTE   En3 v100
 BYTE   W16
 BYTE   Dn3 v092
 BYTE   W16
 BYTE   Cn3 v072
 BYTE   W16
 BYTE   Bn2 v092
 BYTE   W16
 BYTE   An2 v088
 BYTE   W16
 BYTE   Gn2
 BYTE   W16
//  #02 //050   ----------------------------------------
 BYTE   Fs3 v104
 BYTE   W16
 BYTE   En3 v100
 BYTE   W16
 BYTE   Dn3 v092
 BYTE   W16
 BYTE   Cn4 v108
 BYTE   W16
 BYTE   Bn3 v088
 BYTE   W16
 BYTE   An3 v092
 BYTE   W16
//  #02 //051   ----------------------------------------
 BYTE   N12 Bn3 v112
 BYTE   W06
 BYTE   N03 An4 v008
 BYTE   W06
 BYTE   Bn4
 BYTE   W06
 BYTE   N04 An4
 BYTE   W06
 BYTE   Bn4
 BYTE   W06
 BYTE   An4 v012
 BYTE   W06
 BYTE   Bn4
 BYTE   W06
 BYTE   An4 v016
 BYTE   W06
 BYTE   Bn4
 BYTE   W06
 BYTE   An4 v020
 BYTE   W06
 BYTE   Bn4
 BYTE   W06
 BYTE   An4
 BYTE   W06
 BYTE   Bn4
 BYTE   W06
 BYTE   An4
 BYTE   W06
 BYTE   Bn4
 BYTE   W06
 BYTE   An4 v056
 BYTE   W06
//  #02 //052   ----------------------------------------
 BYTE   Bn4
 BYTE   W06
 BYTE   An4 v044
 BYTE   W06
 BYTE   Bn4
 BYTE   W06
 BYTE   N05 An4 v056
 BYTE   W06
 BYTE   Bn4
 BYTE   W06
 BYTE   N04 An4 v036
 BYTE   W06
 BYTE   Bn4
 BYTE   W06
 BYTE   An4 v052
 BYTE   W06
 BYTE   Bn4
 BYTE   W06
 BYTE   An4 v044
 BYTE   W06
 BYTE   Bn4
 BYTE   W06
 BYTE   N05 An4 v048
 BYTE   W06
 BYTE   Bn4
 BYTE   W06
 BYTE   N06 An4 v032
 BYTE   W06
 BYTE   Bn4
 BYTE   W06
 BYTE   N04 An4
 BYTE   W06
//  #02 //053   ----------------------------------------
 BYTE   Bn4
 BYTE   W06
 BYTE   An4 v036
 BYTE   W06
 BYTE   Bn4
 BYTE   W06
 BYTE   N05 An4 v044
 BYTE   W06
 BYTE   Bn4
 BYTE   W06
 BYTE   N04 An4 v024
 BYTE   W06
 BYTE   Bn4
 BYTE   W06
 BYTE   N05 An4 v032
 BYTE   W06
 BYTE   Bn4
 BYTE   W06
 BYTE   N04 An4 v028
 BYTE   W06
 BYTE   Bn4
 BYTE   W06
 BYTE   An4 v044
 BYTE   W06
 BYTE   Bn4
 BYTE   W06
 BYTE   An4 v028
 BYTE   W06
 BYTE   Bn4
 BYTE   W06
 BYTE   N05 An4 v044
 BYTE   W06
//  #02 //054   ----------------------------------------
 BYTE   Bn4
 BYTE   W06
 BYTE   N04 An4 v040
 BYTE   W06
 BYTE   Bn4
 BYTE   W06
 BYTE   N06 An4 v052
 BYTE   W06
 BYTE   Bn4
 BYTE   W06
 BYTE   N05 An4 v040
 BYTE   W06
 BYTE   Bn4
 BYTE   W06
 BYTE   N04 An4 v032
 BYTE   W06
 BYTE   Bn4
 BYTE   W06
 BYTE   An4 v028
 BYTE   W06
 BYTE   Bn4
 BYTE   W06
 BYTE   An4 v044
 BYTE   W06
 BYTE   Bn4
 BYTE   W06
 BYTE   An4
 BYTE   W06
 BYTE   Bn4
 BYTE   W06
 BYTE   N05 An4 v064
 BYTE   W06
//  #02 //055   ----------------------------------------
 BYTE   Bn4
 BYTE   W06
 BYTE   N04 An4 v056
 BYTE   W06
 BYTE   Bn4
 BYTE   W06
 BYTE   N05 An4 v044
 BYTE   W06
 BYTE   Bn4
 BYTE   W06
 BYTE   N04 An4 v036
 BYTE   W06
 BYTE   Bn4
 BYTE   W06
 BYTE   An4 v064
 BYTE   W06
 BYTE   Bn4
 BYTE   W06
 BYTE   An4 v060
 BYTE   W06
 BYTE   Bn4
 BYTE   W06
 BYTE   An4
 BYTE   W06
 BYTE   Bn4
 BYTE   W06
 BYTE   N03 An4 v064
 BYTE   W06
 BYTE   Bn4
 BYTE   W06
 BYTE   An4
 BYTE   W06
//  #02 //056   ----------------------------------------
 BYTE   N12 As4 v084
 BYTE   W12
 BYTE   An4 v068
 BYTE   W12
 BYTE   Gn4
 BYTE   W12
 BYTE   N24 Dn4
 BYTE   W24
 BYTE   N12 Cn4
 BYTE   W12
 BYTE   As3 v080
 BYTE   W12
 BYTE   N06 Gn3 v076
 BYTE   W12
//  #02 //057   ----------------------------------------
 BYTE   N12 Gn3 v092
 BYTE   W12
 BYTE   An3 v068
 BYTE   W12
 BYTE   Gn3 v080
 BYTE   W12
 BYTE   N24 As3 v088
 BYTE   W24
 BYTE   N12 Gn3 v076
 BYTE   W12
 BYTE   An3 v080
 BYTE   W12
 BYTE   N07 Gn3 v084
 BYTE   W12
//  #02 //058   ----------------------------------------
 BYTE   N12 Gn3 v088
 BYTE   W12
 BYTE   An3 v080
 BYTE   W12
 BYTE   Gn3 v084
 BYTE   W12
 BYTE   N24 As3 v088
 BYTE   W24
 BYTE   N12 Gn3
 BYTE   W12
 BYTE   An3 v084
 BYTE   W12
 BYTE   N06 Gn3 v076
 BYTE   W12
//  #02 //059   ----------------------------------------
 BYTE   N12 Gn3 v100
 BYTE   W12
 BYTE   An3 v072
 BYTE   W12
 BYTE   Gn3 v080
 BYTE   W12
 BYTE   N24 As3 v092
 BYTE   W24
 BYTE   N12 Gn3 v068
 BYTE   W12
 BYTE   An3 v072
 BYTE   W12
 BYTE   N07 Gn3 v092
 BYTE   W12
//  #02 //060   ----------------------------------------
 BYTE   N12 As3
 BYTE   W12
 BYTE   Cn4 v084
 BYTE   W12
 BYTE   As3 v088
 BYTE   W12
 BYTE   N24 Dn4 v100
 BYTE   W24
 BYTE   N12 As3 v076
 BYTE   W12
 BYTE   Cn4 v068
 BYTE   W12
 BYTE   N06 As3 v072
 BYTE   W12
//  #02 //061   ----------------------------------------
 BYTE   N12 As3 v100
 BYTE   W12
 BYTE   Cn4 v076
 BYTE   W12
 BYTE   As3 v092
 BYTE   W12
 BYTE   N24 Dn4
 BYTE   W24
 BYTE   N12 As3 v088
 BYTE   W12
 BYTE   Cn4 v068
 BYTE   W12
 BYTE   N06 As3 v088
 BYTE   W12
//  #02 //062   ----------------------------------------
 BYTE   N12 As3 v092
 BYTE   W12
 BYTE   Cn4 v080
 BYTE   W12
 BYTE   As3 v092
 BYTE   W12
 BYTE   N24 Dn4 v100
 BYTE   W24
 BYTE   N12 As3 v084
 BYTE   W12
 BYTE   Cn4 v072
 BYTE   W12
 BYTE   N05 As3 v088
 BYTE   W12
//  #02 //063   ----------------------------------------
 BYTE   N12
 BYTE   W12
 BYTE   Cn4 v056
 BYTE   W12
 BYTE   As3 v092
 BYTE   W12
 BYTE   N24 Dn4 v100
 BYTE   W24
 BYTE   N12 As3 v088
 BYTE   W12
 BYTE   Cn4 v080
 BYTE   W12
 BYTE   N05 As3 v100
 BYTE   W12
//  #02 //064   ----------------------------------------
 BYTE   N06 Gn3 v108
 BYTE   W06
 BYTE   An3 v084
 BYTE   W06
 BYTE   As3 v104
 BYTE   W06
 BYTE   Cn4 v100
 BYTE   W06
 BYTE   Dn4
 BYTE   W06
 BYTE   Cn4
 BYTE   W06
 BYTE   Dn4 v096
 BYTE   W36
 BYTE   Gn4 v108
 BYTE   W06
 BYTE   Fs4 v104
 BYTE   W06
 BYTE   Gn4 v108
 BYTE   W06
 BYTE   An4 v096
 BYTE   W06
//  #02 //065   ----------------------------------------
 BYTE   As4 v084
 BYTE   W06
 BYTE   An4 v088
 BYTE   W06
 BYTE   As4 v092
 BYTE   W36
 BYTE   Dn5 v116
 BYTE   W06
 BYTE   Cn5 v088
 BYTE   W06
 BYTE   As4 v108
 BYTE   W06
 BYTE   An4 v068
 BYTE   W06
 BYTE   Gn4 v100
 BYTE   W06
 BYTE   Dn4 v072
 BYTE   W06
 BYTE   As3 v104
 BYTE   W06
 BYTE   An3 v072
 BYTE   W06
//  #02 //066   ----------------------------------------
 BYTE   Gn3 v112
 BYTE   W06
 BYTE   An3 v056
 BYTE   W06
 BYTE   As3 v092
 BYTE   W06
 BYTE   Cn4 v076
 BYTE   W06
 BYTE   Dn4 v096
 BYTE   W06
 BYTE   Cn4 v100
 BYTE   W06
 BYTE   Dn4 v120
 BYTE   W36
 BYTE   Gn4 v104
 BYTE   W06
 BYTE   Fs4 v112
 BYTE   W06
 BYTE   Gn4 v100
 BYTE   W06
 BYTE   An4 v127
 BYTE   W06
//  #02 //067   ----------------------------------------
 BYTE   As4 v108
 BYTE   W06
 BYTE   An4 v127
 BYTE   W06
 BYTE   As4 v116
 BYTE   W36
 BYTE   Dn5 v120
 BYTE   W06
 BYTE   Cn5 v092
 BYTE   W06
 BYTE   As4
 BYTE   W06
 BYTE   An4 v076
 BYTE   W06
 BYTE   Gn4 v108
 BYTE   W06
 BYTE   Fs4 v076
 BYTE   W06
 BYTE   Gn4 v108
 BYTE   W06
 BYTE   An4 v127
 BYTE   W06
//  #02 //068   ----------------------------------------
 BYTE   As4 v104
 BYTE   W06
 BYTE   An4 v127
 BYTE   W06
 BYTE   As4 v120
 BYTE   W06
 BYTE   Cn5 v096
 BYTE   W06
 BYTE   Dn5 v127
 BYTE   W06
 BYTE   Cn5 v104
 BYTE   W06
 BYTE   Dn5 v127
 BYTE   W36
 BYTE   Gn5
 BYTE   W06
 BYTE   Fs5 v108
 BYTE   W06
 BYTE   Gn5 v116
 BYTE   W06
 BYTE   An5 v104
 BYTE   W06
//  #02 //069   ----------------------------------------
 BYTE   As5 v124
 BYTE   W06
 BYTE   An5 v096
 BYTE   W06
 BYTE   As5 v127
 BYTE   W36
 BYTE   Dn6
 BYTE   W06
 BYTE   Cn6 v068
 BYTE   W06
 BYTE   As5
 BYTE   W06
 BYTE   An5 v072
 BYTE   W06
 BYTE   Gn5 v092
 BYTE   W06
 BYTE   Dn5 v088
 BYTE   W06
 BYTE   As4 v092
 BYTE   W06
 BYTE   An4 v052
 BYTE   W06
//  #02 //070   ----------------------------------------
 BYTE   Gn4 v108
 BYTE   W06
 BYTE   An4 v084
 BYTE   W06
 BYTE   As4 v100
 BYTE   W06
 BYTE   Cn5 v092
 BYTE   W06
 BYTE   Dn5 v104
 BYTE   W06
 BYTE   Cn5 v088
 BYTE   W06
 BYTE   Dn5 v112
 BYTE   W36
 BYTE   Gn5 v104
 BYTE   W06
 BYTE   Fs5 v108
 BYTE   W06
 BYTE   Gn5 v112
 BYTE   W06
 BYTE   An5 v104
 BYTE   W06
//  #02 //071   ----------------------------------------
 BYTE   As5 v112
 BYTE   W06
 BYTE   An5 v100
 BYTE   W06
 BYTE   As5 v124
 BYTE   W36
 BYTE   Dn6 v116
 BYTE   W06
 BYTE   Cn6 v112
 BYTE   W06
 BYTE   As5
 BYTE   W06
 BYTE   An5 v108
 BYTE   W06
 BYTE   Gn5 v112
 BYTE   W06
 BYTE   Fs5 v108
 BYTE   W06
 BYTE   Gn5 v112
 BYTE   W06
 BYTE   An5 v108
 BYTE   W06
//  #02 //072   ----------------------------------------
 BYTE   As5 v124
 BYTE   W06
 BYTE   An5 v108
 BYTE   W06
 BYTE   Gn5 v124
 BYTE   W06
 BYTE   Dn5 v112
 BYTE   W06
 BYTE   N05 Fn5 v108
 BYTE   W05
 BYTE   Ds5
 BYTE   W06
 BYTE   N06 Dn5 v120
 BYTE   W07
 BYTE   Cn5 v112
 BYTE   W06
 BYTE   Gn5 v108
 BYTE   W06
 BYTE   Dn5
 BYTE   W06
 BYTE   Cn5
 BYTE   W06
 BYTE   As4
 BYTE   W06
 BYTE   Dn5
 BYTE   W06
 BYTE   Cn5
 BYTE   W06
 BYTE   As4
 BYTE   W06
 BYTE   An4
 BYTE   W06
//  #02 //073   ----------------------------------------
 BYTE   Gn4 v127
 BYTE   W06
 BYTE   Dn4 v116
 BYTE   W06
 BYTE   Cn4 v112
 BYTE   W06
 BYTE   Dn4 v108
 BYTE   W06
 BYTE   Fn4 v116
 BYTE   W06
 BYTE   Ds4
 BYTE   W06
 BYTE   N05 Dn4 v120
 BYTE   W06
 BYTE   N06 Cn4 v116
 BYTE   W06
 BYTE   Dn4 v112
 BYTE   W06
 BYTE   Cn4
 BYTE   W06
 BYTE   Fn4
 BYTE   W06
 BYTE   Ds4 v108
 BYTE   W06
 BYTE   Dn4 v092
 BYTE   W06
 BYTE   Cn4 v096
 BYTE   W06
 BYTE   As3 v116
 BYTE   W06
 BYTE   An3
 BYTE   W06
//  #02 //074   ----------------------------------------
 BYTE   N24 Gn3
 BYTE   W96
//  #02 //075   ----------------------------------------
 BYTE   W96
//  #02 //076   ----------------------------------------
 BYTE   W96
//  #02 //077   ----------------------------------------
 BYTE   W96
//  #02 //078   ----------------------------------------
 BYTE   W96
//  #02 //079   ----------------------------------------
 BYTE   W96
//  #02 //080   ----------------------------------------
 BYTE   W96
//  #02 //081   ----------------------------------------
 BYTE   W96
//  #02 //082   ----------------------------------------
 BYTE   W96
//  #02 //083   ----------------------------------------
 BYTE   W96
//  #02 //084   ----------------------------------------
 BYTE   W96
//  #02 //085   ----------------------------------------
 BYTE   W96
//  #02 //086   ----------------------------------------
 BYTE   W96
//  #02 //087   ----------------------------------------
 BYTE   W96
//  #02 //088   ----------------------------------------
 BYTE   W96
//  #02 //089   ----------------------------------------
 BYTE   W96
//  #02 //090   ----------------------------------------
 BYTE   N06 As3 v072
 BYTE   W12
 BYTE   N04 Dn4 v076
 BYTE   W12
 BYTE   N05 Gn4 v080
 BYTE   W12
 BYTE   N03 Dn4 v088
 BYTE   W06
 BYTE   N06
 BYTE   W06
 BYTE   N07 As3 v096
 BYTE   W12
 BYTE   N05 Dn4
 BYTE   W12
 BYTE   N06 As4 v092
 BYTE   W12
 BYTE   N03 Dn4 v100
 BYTE   W06
 BYTE   N06 Dn4 v088
 BYTE   W06
//  #02 //091   ----------------------------------------
 BYTE   As3 v100
 BYTE   W12
 BYTE   N04 Dn4 v056
 BYTE   W12
 BYTE   N06 Gn4 v088
 BYTE   W12
 BYTE   N04 Dn4 v076
 BYTE   W06
 BYTE   N05 Dn4 v092
 BYTE   W06
 BYTE   N06 As3 v084
 BYTE   W12
 BYTE   N04 Dn4 v088
 BYTE   W12
 BYTE   As4
 BYTE   W12
 BYTE   N03 Dn4 v084
 BYTE   W06
 BYTE   N04 Dn4 v088
 BYTE   W06
//  #02 //092   ----------------------------------------
 BYTE   N07 Cn4 v072
 BYTE   W12
 BYTE   N04 Ds4 v076
 BYTE   W12
 BYTE   N05 Gn4 v080
 BYTE   W12
 BYTE   N03 Ds4 v088
 BYTE   W06
 BYTE   N06 Ds4 v084
 BYTE   W06
 BYTE   N07 Cn4 v096
 BYTE   W12
 BYTE   N05 Ds4
 BYTE   W12
 BYTE   N06 Cn5
 BYTE   W12
 BYTE   N03 Ds4
 BYTE   W06
 BYTE   N04 Ds4 v088
 BYTE   W06
//  #02 //093   ----------------------------------------
 BYTE   N06 Cn4 v100
 BYTE   W12
 BYTE   N04 Ds4 v056
 BYTE   W12
 BYTE   N06 An4 v088
 BYTE   W12
 BYTE   N04 Ds4 v080
 BYTE   W06
 BYTE   N05 Ds4 v092
 BYTE   W06
 BYTE   N06 Cn4 v088
 BYTE   W12
 BYTE   N04 Ds4
 BYTE   W12
 BYTE   An4 v092
 BYTE   W12
 BYTE   N03 Ds4 v084
 BYTE   W06
 BYTE   N04 Ds4 v088
 BYTE   W06
//  #02 //094   ----------------------------------------
Label_010136FE:
 BYTE   N07 As3 v072
 BYTE   W12
 BYTE   N04 Dn4 v076
 BYTE   W12
 BYTE   N05 Gn4 v080
 BYTE   W12
 BYTE   N03 Dn4 v088
 BYTE   W06
 BYTE   N06
 BYTE   W06
 BYTE   N07 As3 v092
 BYTE   W12
 BYTE   N05 Dn4 v096
 BYTE   W12
 BYTE   N06 As4 v092
 BYTE   W12
 BYTE   N03 Dn4 v100
 BYTE   W06
 BYTE   N06 Dn4 v092
 BYTE   W06
 BYTE   PEND 
//  #02 //095   ----------------------------------------
Label_01013725:
 BYTE   N06 As3 v096
 BYTE   W12
 BYTE   N04 Dn4 v052
 BYTE   W12
 BYTE   N06 Gn4 v088
 BYTE   W12
 BYTE   N04 Dn4 v080
 BYTE   W06
 BYTE   N05 Dn4 v092
 BYTE   W06
 BYTE   N06 As3 v084
 BYTE   W12
 BYTE   N04 Dn4 v088
 BYTE   W12
 BYTE   As4 v092
 BYTE   W12
 BYTE   N03 Dn4 v084
 BYTE   W06
 BYTE   N04 Dn4 v088
 BYTE   W06
 BYTE   PEND 
//  #02 //096   ----------------------------------------
Label_0101374D:
 BYTE   N07 Cn4 v068
 BYTE   W12
 BYTE   N04 Ds4 v080
 BYTE   W12
 BYTE   N05 Gn4
 BYTE   W12
 BYTE   N03 Ds4 v092
 BYTE   W06
 BYTE   N06 Ds4 v084
 BYTE   W06
 BYTE   N07 Cn4 v092
 BYTE   W12
 BYTE   N05 Ds4 v096
 BYTE   W12
 BYTE   N06 Cn5
 BYTE   W12
 BYTE   N03 Ds4 v100
 BYTE   W06
 BYTE   N04 Ds4 v088
 BYTE   W06
 BYTE   PEND 
//  #02 //097   ----------------------------------------
Label_01013774:
 BYTE   N06 Cn4 v100
 BYTE   W12
 BYTE   N04 Ds4 v056
 BYTE   W12
 BYTE   N06 An4 v088
 BYTE   W12
 BYTE   N04 Ds4 v084
 BYTE   W06
 BYTE   N05 Ds4 v092
 BYTE   W06
 BYTE   N06 Cn4 v088
 BYTE   W12
 BYTE   N04 Ds4
 BYTE   W12
 BYTE   An4 v092
 BYTE   W12
 BYTE   N03 Ds4 v084
 BYTE   W06
 BYTE   N04 Ds4 v088
 BYTE   W06
 BYTE   PEND 
//  #02 //098   ----------------------------------------
 BYTE   PATT
  POIN2 Label_010136FE
//  #02 //099   ----------------------------------------
 BYTE   PATT
  POIN2 Label_01013725
//  #02 //100   ----------------------------------------
 BYTE   PATT
  POIN2 Label_0101374D
//  #02 //101   ----------------------------------------
 BYTE   PATT
  POIN2 Label_01013774
//  #02 //102   ----------------------------------------
 BYTE   N16 Gn4 v100
 BYTE   W16
 BYTE   Fn4
 BYTE   W16
 BYTE   Ds4 v092
 BYTE   W16
 BYTE   Dn4 v072
 BYTE   W16
 BYTE   Cn4 v088
 BYTE   W16
 BYTE   As3 v080
 BYTE   W16
//  #02 //103   ----------------------------------------
 BYTE   An3 v084
 BYTE   W16
 BYTE   Gn3 v088
 BYTE   W16
 BYTE   Fn3 v080
 BYTE   W16
 BYTE   Ds3 v084
 BYTE   W16
 BYTE   Dn3 v088
 BYTE   W16
 BYTE   Cn3 v076
 BYTE   W16
//  #02 //104   ----------------------------------------
 BYTE   Gn3 v100
 BYTE   W16
 BYTE   Fn3 v088
 BYTE   W16
 BYTE   Ds3 v072
 BYTE   W16
 BYTE   Dn3 v092
 BYTE   W16
 BYTE   Cn3 v088
 BYTE   W16
 BYTE   As2
 BYTE   W16
//  #02 //105   ----------------------------------------
 BYTE   An3 v100
 BYTE   W16
 BYTE   Gn3
 BYTE   W16
 BYTE   Fn3 v092
 BYTE   W16
 BYTE   Ds4 v108
 BYTE   W16
 BYTE   Dn4 v080
 BYTE   W16
 BYTE   Cn4 v092
 BYTE   W16
//  #02 //106   ----------------------------------------
 BYTE   N03 Cn4 v008
 BYTE   W06
 BYTE   Dn4
 BYTE   W06
 BYTE   N04 Cn4
 BYTE   W06
 BYTE   Dn4
 BYTE   W06
 BYTE   Cn4 v012
 BYTE   W06
 BYTE   Dn4
 BYTE   W06
 BYTE   Cn4 v016
 BYTE   W06
 BYTE   Dn4
 BYTE   W06
 BYTE   Cn4 v020
 BYTE   W06
 BYTE   Dn4
 BYTE   W06
 BYTE   Cn4
 BYTE   W06
 BYTE   Dn4
 BYTE   W06
 BYTE   Cn4
 BYTE   W06
 BYTE   Dn4
 BYTE   W06
 BYTE   Cn4 v056
 BYTE   W06
 BYTE   Dn4
 BYTE   W06
//  #02 //107   ----------------------------------------
 BYTE   Cn4 v044
 BYTE   W06
 BYTE   Dn4
 BYTE   W06
 BYTE   N05 Cn4 v056
 BYTE   W06
 BYTE   Dn4
 BYTE   W06
 BYTE   N04 Cn4 v036
 BYTE   W06
 BYTE   Dn4
 BYTE   W06
 BYTE   Cn4 v052
 BYTE   W06
 BYTE   Dn4
 BYTE   W06
 BYTE   Cn4 v044
 BYTE   W06
 BYTE   Dn4
 BYTE   W06
 BYTE   N05 Cn4 v048
 BYTE   W06
 BYTE   Dn4
 BYTE   W06
 BYTE   N06 Cn4 v032
 BYTE   W06
 BYTE   Dn4
 BYTE   W06
 BYTE   N04 Cn4
 BYTE   W06
 BYTE   Dn4
 BYTE   W06
//  #02 //108   ----------------------------------------
 BYTE   Cn4 v036
 BYTE   W06
 BYTE   Dn4
 BYTE   W06
 BYTE   N05 Cn4 v044
 BYTE   W06
 BYTE   Dn4
 BYTE   W06
 BYTE   N04 Cn4 v024
 BYTE   W06
 BYTE   Dn4
 BYTE   W06
 BYTE   N05 Cn4 v032
 BYTE   W06
 BYTE   Dn4
 BYTE   W06
 BYTE   N04 Cn4 v028
 BYTE   W06
 BYTE   Dn4
 BYTE   W06
 BYTE   Cn4 v044
 BYTE   W06
 BYTE   Dn4
 BYTE   W06
 BYTE   Cn4 v028
 BYTE   W06
 BYTE   Dn4
 BYTE   W06
 BYTE   N05 Cn4 v044
 BYTE   W06
 BYTE   Dn4
 BYTE   W06
//  #02 //109   ----------------------------------------
 BYTE   N04 Cn4 v040
 BYTE   W06
 BYTE   Dn4
 BYTE   W06
 BYTE   N06 Cn4 v052
 BYTE   W06
 BYTE   Dn4
 BYTE   W06
 BYTE   N05 Cn4 v040
 BYTE   W06
 BYTE   Dn4
 BYTE   W06
 BYTE   N04 Cn4 v032
 BYTE   W06
 BYTE   Dn4
 BYTE   W06
 BYTE   Cn4 v028
 BYTE   W06
 BYTE   Dn4
 BYTE   W06
 BYTE   Cn4 v044
 BYTE   W06
 BYTE   Dn4
 BYTE   W06
 BYTE   Cn4
 BYTE   W06
 BYTE   Dn4
 BYTE   W06
 BYTE   N05 Cn4 v064
 BYTE   W06
 BYTE   Dn4
 BYTE   W06
//  #02 //110   ----------------------------------------
 BYTE   N04 Cn4 v056
 BYTE   W06
 BYTE   Dn4
 BYTE   W06
 BYTE   N05 Cn4 v044
 BYTE   W06
 BYTE   Dn4
 BYTE   W06
 BYTE   N04 Cn4 v036
 BYTE   W06
 BYTE   Dn4
 BYTE   W06
 BYTE   Cn4 v064
 BYTE   W06
 BYTE   Dn4
 BYTE   W06
 BYTE   Cn4 v060
 BYTE   W06
 BYTE   Dn4
 BYTE   W06
 BYTE   Cn4
 BYTE   W06
 BYTE   Dn4
 BYTE   W06
 BYTE   N03 Cn4 v064
 BYTE   W06
 BYTE   Dn4
 BYTE   W06
 BYTE   Cn4
 BYTE   W12
//  #02 //111   ----------------------------------------
 BYTE   GoTo
  POIN2 Label_01013052
//  #02 //112   ----------------------------------------
 BYTE   N12 En3 v092
 BYTE   W12
 BYTE   Fs3 v080
 BYTE   W12
 BYTE   En3 v092
 BYTE   W12
 BYTE   N24 Gn3 v096
 BYTE   W24
 BYTE   N12 En3 v072
 BYTE   W12
 BYTE   Fs3 v084
 BYTE   W12
 BYTE   N07 En3 v076
 BYTE   W12
//  #02 //113   ----------------------------------------
 BYTE   N12 En3 v092
 BYTE   W12
 BYTE   Fs3 v068
 BYTE   W12
 BYTE   En3 v080
 BYTE   W12
 BYTE   N24 Gn3 v088
 BYTE   W24
 BYTE   N12 En3 v076
 BYTE   W12
 BYTE   Fs3 v080
 BYTE   W12
 BYTE   N07 En3
 BYTE   W12
//  #02 //114   ----------------------------------------
 BYTE   N12 En3 v088
 BYTE   W12
 BYTE   Fs3 v080
 BYTE   W12
 BYTE   En3 v084
 BYTE   W12
 BYTE   N24 Gn3 v092
 BYTE   W24
 BYTE   N12 En3 v088
 BYTE   W12
 BYTE   Fs3 v084
 BYTE   W12
 BYTE   N07 En3 v076
 BYTE   W12
//  #02 //115   ----------------------------------------
 BYTE   N12 En3 v096
 BYTE   W12
 BYTE   Fs3 v072
 BYTE   W12
 BYTE   En3 v084
 BYTE   W12
 BYTE   N24 Gn3 v092
 BYTE   W24
 BYTE   N12 En3 v068
 BYTE   W12
 BYTE   Fs3
 BYTE   W12
 BYTE   N07 En3 v092
 BYTE   W12
//  #02 //116   ----------------------------------------
 BYTE   N09 En3 v120
 BYTE   W24
 BYTE   N06 Bn2 v104
 BYTE   W12
 BYTE   N04
 BYTE   W06
 BYTE   N04
 BYTE   W06
 BYTE   N12 En3 v120
 BYTE   W12
 BYTE   FINE

//**************** Track 3 (Midi-Chn.2) ****************//

song03DA_003:
//  #03 //000   ----------------------------------------
 BYTE   KEYSH  song03DA_key+0
 BYTE   MODT 0
 BYTE   LFOS 44
 BYTE   W06
 BYTE   VOL  37*song03DA_mvl/mxv
 BYTE   W06
 BYTE   VOICE  40
 BYTE   PAN  c_v-12
 BYTE   W84
//  #03 //001   ----------------------------------------
Label_0101176B:
 BYTE   VOL  37*song03DA_mvl/mxv
 BYTE   N12 En2 v080
 BYTE   W12
 BYTE   Fs2 v044
 BYTE   W12
 BYTE   En2 v088
 BYTE   W12
 BYTE   N24 Gn2 v084
 BYTE   W24
 BYTE   N12 En2 v060
 BYTE   W12
 BYTE   Fs2 v076
 BYTE   W12
 BYTE   N08 En2 v068
 BYTE   W12
//  #03 //002   ----------------------------------------
 BYTE   N12 En2 v076
 BYTE   W12
 BYTE   Fs2 v060
 BYTE   W12
 BYTE   En2 v072
 BYTE   W12
 BYTE   N24 Gn2 v076
 BYTE   W24
 BYTE   N12 En2 v068
 BYTE   W12
 BYTE   Fs2 v064
 BYTE   W12
 BYTE   N08 En2
 BYTE   W12
//  #03 //003   ----------------------------------------
 BYTE   N12 En2 v076
 BYTE   W12
 BYTE   Fs2 v064
 BYTE   W12
 BYTE   En2 v072
 BYTE   W12
 BYTE   N24 Gn2 v084
 BYTE   W24
 BYTE   N12 En2 v076
 BYTE   W12
 BYTE   Fs2 v072
 BYTE   W12
 BYTE   N08 En2 v064
 BYTE   W12
//  #03 //004   ----------------------------------------
 BYTE   N12 En2 v080
 BYTE   W12
 BYTE   Fs2 v068
 BYTE   W12
 BYTE   En2 v076
 BYTE   W12
 BYTE   N24 Gn2 v092
 BYTE   W24
 BYTE   N12 En2 v056
 BYTE   W12
 BYTE   Fs2 v060
 BYTE   W12
 BYTE   N08 En2 v080
 BYTE   W12
//  #03 //005   ----------------------------------------
 BYTE   N12
 BYTE   W12
 BYTE   Fs2 v072
 BYTE   W12
 BYTE   En2 v076
 BYTE   W12
 BYTE   N24 Bn2 v088
 BYTE   W24
 BYTE   N12 En2 v064
 BYTE   W12
 BYTE   Fs2 v060
 BYTE   W12
 BYTE   N08 En2 v064
 BYTE   W12
//  #03 //006   ----------------------------------------
 BYTE   N12 En2 v092
 BYTE   W12
 BYTE   Fs2 v060
 BYTE   W12
 BYTE   En2 v084
 BYTE   W12
 BYTE   N24 Bn2 v096
 BYTE   W24
 BYTE   N12 En2 v084
 BYTE   W12
 BYTE   Fs2 v056
 BYTE   W12
 BYTE   N08 En2 v072
 BYTE   W12
//  #03 //007   ----------------------------------------
 BYTE   N12 En2 v080
 BYTE   W12
 BYTE   Fs2 v068
 BYTE   W12
 BYTE   En2 v084
 BYTE   W12
 BYTE   N24 Bn2 v088
 BYTE   W24
 BYTE   N12 En2 v068
 BYTE   W12
 BYTE   Fs2 v056
 BYTE   W12
 BYTE   N08 En2 v080
 BYTE   W12
//  #03 //008   ----------------------------------------
 BYTE   N12 En2 v076
 BYTE   W12
 BYTE   Fs2 v048
 BYTE   W12
 BYTE   En2 v076
 BYTE   W12
 BYTE   N24 Bn2 v084
 BYTE   W24
 BYTE   N12 En2 v076
 BYTE   W12
 BYTE   Fs2 v072
 BYTE   W12
 BYTE   N08 En2 v084
 BYTE   W12
//  #03 //009   ----------------------------------------
 BYTE   N12 En2 v088
 BYTE   W12
 BYTE   Fs2 v048
 BYTE   W12
 BYTE   En2 v084
 BYTE   W12
 BYTE   N24 Gn2
 BYTE   W24
 BYTE   N12 En2 v064
 BYTE   W12
 BYTE   Fs2 v076
 BYTE   W12
 BYTE   N08 En2 v064
 BYTE   W12
//  #03 //010   ----------------------------------------
 BYTE   N12 En2 v084
 BYTE   W12
 BYTE   Fs2 v056
 BYTE   W12
 BYTE   En2 v064
 BYTE   W12
 BYTE   N24 Gn2 v080
 BYTE   W24
 BYTE   N12 En2 v064
 BYTE   W12
 BYTE   Fs2 v068
 BYTE   W12
 BYTE   N08 En2 v072
 BYTE   W12
//  #03 //011   ----------------------------------------
 BYTE   N12 En2 v080
 BYTE   W12
 BYTE   Fs2 v072
 BYTE   W12
 BYTE   En2
 BYTE   W12
 BYTE   N24 Gn2 v080
 BYTE   W24
 BYTE   N12 En2 v076
 BYTE   W12
 BYTE   Fs2
 BYTE   W12
 BYTE   N08 En2 v064
 BYTE   W12
//  #03 //012   ----------------------------------------
 BYTE   N12 En2 v088
 BYTE   W12
 BYTE   Fs2 v064
 BYTE   W12
 BYTE   En2 v072
 BYTE   W12
 BYTE   N24 Gn2 v084
 BYTE   W24
 BYTE   N12 En2 v056
 BYTE   W12
 BYTE   Fs2 v060
 BYTE   W12
 BYTE   N08 En2 v080
 BYTE   W12
//  #03 //013   ----------------------------------------
 BYTE   N12
 BYTE   W12
 BYTE   Fs2 v032
 BYTE   W12
 BYTE   En2 v084
 BYTE   W12
 BYTE   N24 Gn2
 BYTE   W24
 BYTE   N12 En2 v064
 BYTE   W12
 BYTE   Fs2 v076
 BYTE   W12
 BYTE   N08 En2 v064
 BYTE   W12
//  #03 //014   ----------------------------------------
 BYTE   N12 En2 v080
 BYTE   W12
 BYTE   Fs2 v056
 BYTE   W12
 BYTE   En2 v068
 BYTE   W12
 BYTE   N24 Gn2 v072
 BYTE   W24
 BYTE   N12 En2 v068
 BYTE   W12
 BYTE   Fs2
 BYTE   W12
 BYTE   N08 En2
 BYTE   W12
//  #03 //015   ----------------------------------------
 BYTE   N12 En2 v072
 BYTE   W12
 BYTE   Fs2
 BYTE   W12
 BYTE   En2 v076
 BYTE   W12
 BYTE   N24 Gn2 v080
 BYTE   W24
 BYTE   N12 En2 v076
 BYTE   W12
 BYTE   Fs2
 BYTE   W12
 BYTE   N08 En2 v064
 BYTE   W12
//  #03 //016   ----------------------------------------
 BYTE   N12 En2 v088
 BYTE   W12
 BYTE   Fs2 v064
 BYTE   W12
 BYTE   En2 v072
 BYTE   W12
 BYTE   N24 Gn2 v084
 BYTE   W24
 BYTE   N12 En2 v056
 BYTE   W12
 BYTE   Fs2 v060
 BYTE   W12
 BYTE   N07 En2 v084
 BYTE   W12
//  #03 //017   ----------------------------------------
 BYTE   N06 Gn3 v076
 BYTE   W06
 BYTE   Fs3 v064
 BYTE   W06
 BYTE   En3 v076
 BYTE   W06
 BYTE   Bn2 v064
 BYTE   W06
 BYTE   N05 Dn3 v056
 BYTE   W05
 BYTE   Cn3 v060
 BYTE   W06
 BYTE   N06 Bn2 v072
 BYTE   W07
 BYTE   An2 v064
 BYTE   W06
 BYTE   En3
 BYTE   W06
 BYTE   Bn2 v060
 BYTE   W06
 BYTE   An2
 BYTE   W06
 BYTE   Gn2 v064
 BYTE   W06
 BYTE   Bn2 v060
 BYTE   W06
 BYTE   An2
 BYTE   W06
 BYTE   Gn2
 BYTE   W06
 BYTE   Fs2 v064
 BYTE   W06
//  #03 //018   ----------------------------------------
 BYTE   En2 v048
 BYTE   W06
 BYTE   Bn1 v064
 BYTE   W06
 BYTE   An1
 BYTE   W06
 BYTE   Bn1 v060
 BYTE   W06
 BYTE   Dn2 v068
 BYTE   W06
 BYTE   Cn2
 BYTE   W06
 BYTE   N05 Bn1
 BYTE   W06
 BYTE   N06 An1
 BYTE   W06
 BYTE   Bn1 v064
 BYTE   W06
 BYTE   An1
 BYTE   W06
 BYTE   Dn2
 BYTE   W06
 BYTE   Cn2 v060
 BYTE   W06
 BYTE   Bn1 v048
 BYTE   W06
 BYTE   An1 v052
 BYTE   W06
 BYTE   Gn1 v072
 BYTE   W06
 BYTE   Fs1 v068
 BYTE   W06
//  #03 //019   ----------------------------------------
 BYTE   N36 En1
 BYTE   W18
 BYTE   VOL  33*song03DA_mvl/mxv
 BYTE   W01
 BYTE   VOL  32*song03DA_mvl/mxv
 BYTE   W01
 BYTE   VOL  30*song03DA_mvl/mxv
 BYTE   W01
 BYTE   VOL  29*song03DA_mvl/mxv
 BYTE   W01
 BYTE   VOL  27*song03DA_mvl/mxv
 BYTE   W01
 BYTE   VOL  26*song03DA_mvl/mxv
 BYTE   W01
 BYTE   VOL  23*song03DA_mvl/mxv
 BYTE   W01
 BYTE   VOL  22*song03DA_mvl/mxv
 BYTE   W01
 BYTE   VOL  21*song03DA_mvl/mxv
 BYTE   W01
 BYTE   VOL  20*song03DA_mvl/mxv
 BYTE   W01
 BYTE   VOL  18*song03DA_mvl/mxv
 BYTE   W01
 BYTE   VOL  18*song03DA_mvl/mxv
 BYTE   W01
 BYTE   VOL  15*song03DA_mvl/mxv
 BYTE   W01
 BYTE   VOL  14*song03DA_mvl/mxv
 BYTE   W01
 BYTE   VOL  14*song03DA_mvl/mxv
 BYTE   W01
 BYTE   VOL  11*song03DA_mvl/mxv
 BYTE   W01
 BYTE   VOL  10*song03DA_mvl/mxv
 BYTE   W01
 BYTE   VOL  9*song03DA_mvl/mxv
 BYTE   W01
 BYTE   VOL  7*song03DA_mvl/mxv
 BYTE   N24 Gn2 v028
 BYTE   W06
 BYTE   VOL  0*song03DA_mvl/mxv
 BYTE   W06
 BYTE   VOL  0*song03DA_mvl/mxv
 BYTE   W06
 BYTE   VOL  1*song03DA_mvl/mxv
 BYTE   W06
 BYTE   VOL  5*song03DA_mvl/mxv
 BYTE   N12 En2 v036
 BYTE   W06
 BYTE   VOL  10*song03DA_mvl/mxv
 BYTE   W06
 BYTE   VOL  14*song03DA_mvl/mxv
 BYTE   N12 Fs2 v028
 BYTE   W06
 BYTE   VOL  20*song03DA_mvl/mxv
 BYTE   W06
 BYTE   VOL  26*song03DA_mvl/mxv
 BYTE   N12 En2 v016
 BYTE   W06
 BYTE   VOL  37*song03DA_mvl/mxv
 BYTE   W06
//  #03 //020   ----------------------------------------
 BYTE   N12 En2 v036
 BYTE   W01
 BYTE   VOL  38*song03DA_mvl/mxv
 BYTE   W11
 BYTE   N12 Fs2 v024
 BYTE   W12
 BYTE   En2 v040
 BYTE   W12
 BYTE   N24 Gn2 v028
 BYTE   W24
 BYTE   N12 En2 v036
 BYTE   W12
 BYTE   Fs2 v028
 BYTE   W12
 BYTE   En2 v016
 BYTE   W12
//  #03 //021   ----------------------------------------
 BYTE   An2 v024
 BYTE   W12
 BYTE   Bn2 v032
 BYTE   W12
 BYTE   An2
 BYTE   W12
 BYTE   N24 Cn3 v040
 BYTE   W24
 BYTE   N12 An2 v028
 BYTE   W12
 BYTE   Bn2 v032
 BYTE   W12
 BYTE   An2 v028
 BYTE   W12
//  #03 //022   ----------------------------------------
 BYTE   An2 v032
 BYTE   W12
 BYTE   Bn2 v012
 BYTE   W12
 BYTE   An2 v032
 BYTE   W12
 BYTE   N24 Cn3 v036
 BYTE   W24
 BYTE   N12 An2 v016
 BYTE   W12
 BYTE   Bn2 v024
 BYTE   W12
 BYTE   An2
 BYTE   W12
//  #03 //023   ----------------------------------------
 BYTE   An2 v028
 BYTE   W12
 BYTE   Cn3 v032
 BYTE   W12
 BYTE   An2 v020
 BYTE   W12
 BYTE   N24 Cn3 v036
 BYTE   W24
 BYTE   N12 An2 v024
 BYTE   W12
 BYTE   Bn2 v032
 BYTE   W12
 BYTE   An2 v028
 BYTE   W12
//  #03 //024   ----------------------------------------
 BYTE   An2 v032
 BYTE   W12
 BYTE   Cn3 v024
 BYTE   W12
 BYTE   An2 v028
 BYTE   W12
 BYTE   N24 Cn3 v036
 BYTE   W24
 BYTE   N12 An2 v024
 BYTE   W12
 BYTE   Bn2 v032
 BYTE   W12
 BYTE   An2 v004
 BYTE   W12
//  #03 //025   ----------------------------------------
 BYTE   En2 v024
 BYTE   W12
 BYTE   Fs2
 BYTE   W12
 BYTE   En2 v016
 BYTE   W12
 BYTE   N24 Gn2 v032
 BYTE   W24
 BYTE   N12 En2 v020
 BYTE   W12
 BYTE   Fs2 v028
 BYTE   W12
 BYTE   En2 v024
 BYTE   W12
//  #03 //026   ----------------------------------------
 BYTE   En2 v032
 BYTE   W12
 BYTE   Fs2 v016
 BYTE   W12
 BYTE   En2 v028
 BYTE   W12
 BYTE   N24 Gn2
 BYTE   W24
 BYTE   N12 En2 v012
 BYTE   W12
 BYTE   Fs2 v016
 BYTE   W12
 BYTE   En2 v012
 BYTE   W12
//  #03 //027   ----------------------------------------
 BYTE   Cn2 v036
 BYTE   W12
 BYTE   Dn2 v040
 BYTE   W12
 BYTE   Cn2 v028
 BYTE   W12
 BYTE   N24 En2 v036
 BYTE   W24
 BYTE   N12 Cn2 v020
 BYTE   W12
 BYTE   Dn2 v032
 BYTE   W12
 BYTE   Cn2 v008
 BYTE   W12
//  #03 //028   ----------------------------------------
 BYTE   Cn2 v024
 BYTE   W12
 BYTE   Dn2
 BYTE   W12
 BYTE   Cn2
 BYTE   W12
 BYTE   N24 En2 v036
 BYTE   W24
 BYTE   N12 Cn2 v004
 BYTE   W12
 BYTE   Dn2 v028
 BYTE   W12
 BYTE   Cn2 v020
 BYTE   W12
//  #03 //029   ----------------------------------------
 BYTE   An1 v032
 BYTE   W12
 BYTE   Bn1 v024
 BYTE   W12
 BYTE   An1
 BYTE   W12
 BYTE   N24 Cn2 v036
 BYTE   W24
 BYTE   N12 An1 v024
 BYTE   W12
 BYTE   Bn1 v028
 BYTE   W12
 BYTE   An1 v020
 BYTE   W12
//  #03 //030   ----------------------------------------
 BYTE   An1 v024
 BYTE   W12
 BYTE   Bn1 v032
 BYTE   W12
 BYTE   An1
 BYTE   W12
 BYTE   N24 Cn2
 BYTE   W24
 BYTE   N12 An1 v028
 BYTE   W12
 BYTE   Bn1 v020
 BYTE   W12
 BYTE   An1 v024
 BYTE   W12
//  #03 //031   ----------------------------------------
 BYTE   Fs1 v036
 BYTE   W12
 BYTE   Gn1 v044
 BYTE   W12
 BYTE   Fs1 v032
 BYTE   W12
 BYTE   N24 An1
 BYTE   W24
 BYTE   N12 Fs1
 BYTE   W12
 BYTE   Gn1 v044
 BYTE   W12
 BYTE   Fs1 v024
 BYTE   W12
//  #03 //032   ----------------------------------------
 BYTE   Fs1 v032
 BYTE   W12
 BYTE   Gn1 v044
 BYTE   W12
 BYTE   Fs1 v036
 BYTE   W12
 BYTE   N24 An1 v040
 BYTE   W24
 BYTE   N12 Fs1 v024
 BYTE   W12
 BYTE   Gn1 v040
 BYTE   W12
 BYTE   Fs1 v032
 BYTE   W12
//  #03 //033   ----------------------------------------
 BYTE   Bn1 v048
 BYTE   W12
 BYTE   Cs2 v032
 BYTE   W12
 BYTE   Bn1 v036
 BYTE   W12
 BYTE   N24 Ds2 v032
 BYTE   W24
 BYTE   N12 Bn1
 BYTE   W12
 BYTE   Cs2
 BYTE   W12
 BYTE   Bn1 v024
 BYTE   W12
//  #03 //034   ----------------------------------------
 BYTE   Bn1 v032
 BYTE   W12
 BYTE   Cs2 v036
 BYTE   W12
 BYTE   Bn1 v032
 BYTE   W12
 BYTE   N24 Ds2
 BYTE   W24
 BYTE   N12 Bn1
 BYTE   W12
 BYTE   Cs2 v044
 BYTE   W12
 BYTE   N05 Bn1 v032
 BYTE   W12
//  #03 //035   ----------------------------------------
 BYTE   VOL  39*song03DA_mvl/mxv
 BYTE   N06 Gn2 v064
 BYTE   W12
 BYTE   N04 Bn2
 BYTE   W12
 BYTE   N05 En3 v068
 BYTE   W12
 BYTE   N03 Bn2 v076
 BYTE   W06
 BYTE   N06
 BYTE   W06
 BYTE   N07 Gn2 v084
 BYTE   W12
 BYTE   N05 Bn2 v080
 BYTE   W12
 BYTE   N06 Gn3 v084
 BYTE   W12
 BYTE   N03 Bn2 v096
 BYTE   W06
 BYTE   N06 Bn2 v076
 BYTE   W06
//  #03 //036   ----------------------------------------
 BYTE   Gn2 v092
 BYTE   W12
 BYTE   N04 Bn2 v048
 BYTE   W12
 BYTE   N06 En3 v076
 BYTE   W12
 BYTE   N04 Bn2 v064
 BYTE   W06
 BYTE   N05 Bn2 v076
 BYTE   W06
 BYTE   N06 Gn2 v072
 BYTE   W12
 BYTE   N04 Bn2 v080
 BYTE   W12
 BYTE   Gn3 v084
 BYTE   W12
 BYTE   N03 Bn2 v072
 BYTE   W06
 BYTE   N04 Bn2 v076
 BYTE   W06
//  #03 //037   ----------------------------------------
 BYTE   N07 An2 v060
 BYTE   W12
 BYTE   N04 Cn3 v064
 BYTE   W12
 BYTE   N05 En3
 BYTE   W12
 BYTE   N03 Cn3 v076
 BYTE   W06
 BYTE   N06 Cn3 v072
 BYTE   W06
 BYTE   N07 An2 v084
 BYTE   W12
 BYTE   N05 Cn3
 BYTE   W12
 BYTE   N06 An3
 BYTE   W12
 BYTE   N03 Cn3
 BYTE   W06
 BYTE   N04 Cn3 v076
 BYTE   W06
//  #03 //038   ----------------------------------------
 BYTE   N06 An2 v088
 BYTE   W12
 BYTE   N04 Cn3 v048
 BYTE   W12
 BYTE   N06 Fs3 v080
 BYTE   W12
 BYTE   N04 Cn3 v072
 BYTE   W06
 BYTE   N05 Cn3 v080
 BYTE   W06
 BYTE   N06 An2 v076
 BYTE   W12
 BYTE   N04 Cn3 v080
 BYTE   W12
 BYTE   Fs3 v076
 BYTE   W12
 BYTE   N03 Cn3
 BYTE   W06
 BYTE   N04
 BYTE   W06
//  #03 //039   ----------------------------------------
 BYTE   N07 Gn2 v060
 BYTE   W12
 BYTE   N04 Bn2 v064
 BYTE   W12
 BYTE   N05 En3 v068
 BYTE   W12
 BYTE   N03 Bn2 v080
 BYTE   W06
 BYTE   N06
 BYTE   W06
 BYTE   N07 Gn2
 BYTE   W12
 BYTE   N05 Bn2 v084
 BYTE   W12
 BYTE   N06 Gn3 v076
 BYTE   W12
 BYTE   N03 Bn2 v088
 BYTE   W06
 BYTE   N06 Bn2 v084
 BYTE   W06
//  #03 //040   ----------------------------------------
 BYTE   Gn2
 BYTE   W12
 BYTE   N04 Bn2 v044
 BYTE   W12
 BYTE   N06 En3 v072
 BYTE   W12
 BYTE   N04 Bn2
 BYTE   W06
 BYTE   N05 Bn2 v080
 BYTE   W06
 BYTE   N06 Gn2 v076
 BYTE   W12
 BYTE   N04 Bn2
 BYTE   W12
 BYTE   Gn3 v080
 BYTE   W12
 BYTE   N03 Bn2 v076
 BYTE   W06
 BYTE   N04 Bn2 v072
 BYTE   W06
//  #03 //041   ----------------------------------------
 BYTE   N07 An2 v060
 BYTE   W12
 BYTE   N04 Cn3 v072
 BYTE   W12
 BYTE   N05 En3 v068
 BYTE   W12
 BYTE   N03 Cn3 v084
 BYTE   W06
 BYTE   N06 Cn3 v076
 BYTE   W06
 BYTE   N07 An2 v080
 BYTE   W12
 BYTE   N05 Cn3 v084
 BYTE   W12
 BYTE   N06 An3 v088
 BYTE   W12
 BYTE   N03 Cn3 v092
 BYTE   W06
 BYTE   N04 Cn3 v076
 BYTE   W06
//  #03 //042   ----------------------------------------
 BYTE   N06 An2 v092
 BYTE   W12
 BYTE   N04 Cn3 v044
 BYTE   W12
 BYTE   N06 Fs3 v076
 BYTE   W12
 BYTE   N04 Cn3 v068
 BYTE   W06
 BYTE   N05 Cn3 v084
 BYTE   W06
 BYTE   N06 An2 v076
 BYTE   W12
 BYTE   N04 Cn3
 BYTE   W12
 BYTE   Fs3
 BYTE   W12
 BYTE   N03 Cn3 v072
 BYTE   W06
 BYTE   N04 Cn3 v076
 BYTE   W06
//  #03 //043   ----------------------------------------
 BYTE   N07 Gn2 v072
 BYTE   W12
 BYTE   N04 Bn2 v068
 BYTE   W12
 BYTE   N05 En3
 BYTE   W12
 BYTE   N03 Bn2 v076
 BYTE   W06
 BYTE   N06 Bn2 v080
 BYTE   W06
 BYTE   N07 Gn2
 BYTE   W12
 BYTE   N05 Bn2 v084
 BYTE   W12
 BYTE   N06 Gn3 v080
 BYTE   W12
 BYTE   N03 Bn2 v092
 BYTE   W06
 BYTE   N06 Bn2 v080
 BYTE   W06
//  #03 //044   ----------------------------------------
 BYTE   Gn2
 BYTE   W12
 BYTE   N04 Bn2 v040
 BYTE   W12
 BYTE   N06 En3 v076
 BYTE   W12
 BYTE   N04 Bn2 v068
 BYTE   W06
 BYTE   N05 Bn2 v084
 BYTE   W06
 BYTE   N06 Gn2 v072
 BYTE   W12
 BYTE   N04 Bn2 v080
 BYTE   W12
 BYTE   Gn3
 BYTE   W12
 BYTE   N03 Bn2 v076
 BYTE   W06
 BYTE   N04 Bn2 v080
 BYTE   W06
//  #03 //045   ----------------------------------------
 BYTE   N07 An2 v060
 BYTE   W12
 BYTE   N04 Cn3 v072
 BYTE   W12
 BYTE   N05 En3 v064
 BYTE   W12
 BYTE   N03 Cn3 v072
 BYTE   W06
 BYTE   N06 Cn3 v076
 BYTE   W06
 BYTE   N07 An2 v080
 BYTE   W12
 BYTE   N05 Cn3 v088
 BYTE   W12
 BYTE   N06 An3 v092
 BYTE   W12
 BYTE   N03 Cn3 v084
 BYTE   W06
 BYTE   N04 Cn3 v076
 BYTE   W06
//  #03 //046   ----------------------------------------
 BYTE   N06 An2 v088
 BYTE   W12
 BYTE   N04 Cn3 v048
 BYTE   W12
 BYTE   N06 Fs3 v076
 BYTE   W12
 BYTE   N04 Cn3 v072
 BYTE   W06
 BYTE   N05 Cn3 v076
 BYTE   W06
 BYTE   N06 An2
 BYTE   W12
 BYTE   N04 Cn3 v072
 BYTE   W12
 BYTE   Fs3 v080
 BYTE   W12
 BYTE   N03 Cn3 v076
 BYTE   W06
 BYTE   N04 Cn3 v080
 BYTE   W06
//  #03 //047   ----------------------------------------
 BYTE   N15 En3 v088
 BYTE   W16
 BYTE   N16 Dn3
 BYTE   W16
 BYTE   Cn3 v080
 BYTE   W16
 BYTE   Bn2 v072
 BYTE   W16
 BYTE   An2 v084
 BYTE   W16
 BYTE   Gn2 v072
 BYTE   W16
//  #03 //048   ----------------------------------------
 BYTE   Fs2 v076
 BYTE   W16
 BYTE   En2
 BYTE   W16
 BYTE   Dn2 v072
 BYTE   W16
 BYTE   Cn2
 BYTE   W16
 BYTE   Bn1 v076
 BYTE   W16
 BYTE   An1
 BYTE   W16
//  #03 //049   ----------------------------------------
 BYTE   En2 v088
 BYTE   W16
 BYTE   Dn2 v080
 BYTE   W16
 BYTE   Cn2 v064
 BYTE   W16
 BYTE   Bn1 v084
 BYTE   W16
 BYTE   An1 v072
 BYTE   W16
 BYTE   Gn1 v080
 BYTE   W16
//  #03 //050   ----------------------------------------
 BYTE   Fs2 v092
 BYTE   W16
 BYTE   En2 v084
 BYTE   W16
 BYTE   Dn2 v080
 BYTE   W16
 BYTE   Cn3 v092
 BYTE   W16
 BYTE   Bn2 v080
 BYTE   W16
 BYTE   An2
 BYTE   W16
//  #03 //051   ----------------------------------------
 BYTE   N12 Bn2 v096
 BYTE   W12
 BYTE   N03 Fs2 v032
 BYTE   W12
 BYTE   N04
 BYTE   W12
 BYTE   Fs2 v036
 BYTE   W12
 BYTE   Fs2 v048
 BYTE   W12
 BYTE   Fs2 v052
 BYTE   W12
 BYTE   N04
 BYTE   W12
 BYTE   N04
 BYTE   W12
//  #03 //052   ----------------------------------------
 BYTE   Gn2 v100
 BYTE   W12
 BYTE   Gn2 v080
 BYTE   W12
 BYTE   N05 Gn2 v096
 BYTE   W12
 BYTE   N04 Gn2 v076
 BYTE   W12
 BYTE   Gn2 v096
 BYTE   W12
 BYTE   Gn2 v084
 BYTE   W12
 BYTE   N05 Gn2 v088
 BYTE   W12
 BYTE   N06 Gn2 v068
 BYTE   W12
//  #03 //053   ----------------------------------------
 BYTE   N04 An2 v076
 BYTE   W12
 BYTE   N04
 BYTE   W12
 BYTE   N05 An2 v088
 BYTE   W12
 BYTE   N04 An2 v056
 BYTE   W12
 BYTE   N05 An2 v068
 BYTE   W12
 BYTE   N04 An2 v056
 BYTE   W12
 BYTE   An2 v084
 BYTE   W12
 BYTE   An2 v064
 BYTE   W12
//  #03 //054   ----------------------------------------
 BYTE   N05 Bn2 v080
 BYTE   W12
 BYTE   N04
 BYTE   W12
 BYTE   N06 Bn2 v088
 BYTE   W12
 BYTE   N05 Bn2 v052
 BYTE   W12
 BYTE   N04 Bn2 v068
 BYTE   W12
 BYTE   N04
 BYTE   W12
 BYTE   Bn2 v080
 BYTE   W12
 BYTE   Bn2 v056
 BYTE   W12
//  #03 //055   ----------------------------------------
 BYTE   N05 Ds3 v112
 BYTE   W12
 BYTE   N04 Ds3 v100
 BYTE   W12
 BYTE   N05 Ds3 v084
 BYTE   W12
 BYTE   N04 Ds3 v072
 BYTE   W12
 BYTE   Ds3 v100
 BYTE   W12
 BYTE   Ds3 v108
 BYTE   W12
 BYTE   Ds3 v104
 BYTE   W12
 BYTE   N03 Ds3 v116
 BYTE   W12
//  #03 //056   ----------------------------------------
 BYTE   N12 As3 v076
 BYTE   W12
 BYTE   An3 v056
 BYTE   W12
 BYTE   Gn3
 BYTE   W12
 BYTE   N24 Dn3
 BYTE   W24
 BYTE   N12 Cn3
 BYTE   W12
 BYTE   As2 v068
 BYTE   W12
 BYTE   N06 Gn2
 BYTE   W12
//  #03 //057   ----------------------------------------
 BYTE   N12 Gn2 v084
 BYTE   W12
 BYTE   An2 v056
 BYTE   W12
 BYTE   Gn2 v072
 BYTE   W12
 BYTE   N24 As2 v076
 BYTE   W24
 BYTE   N12 Gn2 v064
 BYTE   W12
 BYTE   An2
 BYTE   W12
 BYTE   N07 Gn2 v068
 BYTE   W12
//  #03 //058   ----------------------------------------
 BYTE   N12 Gn2 v076
 BYTE   W12
 BYTE   An2 v068
 BYTE   W12
 BYTE   Gn2 v080
 BYTE   W12
 BYTE   N24 As2 v076
 BYTE   W24
 BYTE   N12 Gn2 v072
 BYTE   W12
 BYTE   An2
 BYTE   W12
 BYTE   N06 Gn2 v060
 BYTE   W12
//  #03 //059   ----------------------------------------
 BYTE   N12 Gn2 v088
 BYTE   W12
 BYTE   An2 v064
 BYTE   W12
 BYTE   Gn2 v068
 BYTE   W12
 BYTE   N24 As2 v080
 BYTE   W24
 BYTE   N12 Gn2 v056
 BYTE   W12
 BYTE   An2 v060
 BYTE   W12
 BYTE   N07 Gn2 v080
 BYTE   W12
//  #03 //060   ----------------------------------------
 BYTE   N12 As2 v088
 BYTE   W12
 BYTE   Cn3 v072
 BYTE   W12
 BYTE   As2 v076
 BYTE   W12
 BYTE   N24 Dn3 v084
 BYTE   W24
 BYTE   N12 As2 v064
 BYTE   W12
 BYTE   Cn3 v056
 BYTE   W12
 BYTE   N06 As2 v068
 BYTE   W12
//  #03 //061   ----------------------------------------
 BYTE   N12 As2 v088
 BYTE   W12
 BYTE   Cn3 v068
 BYTE   W12
 BYTE   As2 v084
 BYTE   W12
 BYTE   N24 Dn3
 BYTE   W24
 BYTE   N12 As2 v076
 BYTE   W12
 BYTE   Cn3 v060
 BYTE   W12
 BYTE   N06 As2 v076
 BYTE   W12
//  #03 //062   ----------------------------------------
 BYTE   N12 As2 v080
 BYTE   W12
 BYTE   Cn3 v068
 BYTE   W12
 BYTE   As2 v084
 BYTE   W12
 BYTE   N24 Dn3 v092
 BYTE   W24
 BYTE   N12 As2 v076
 BYTE   W12
 BYTE   Cn3 v060
 BYTE   W12
 BYTE   N05 As2 v080
 BYTE   W12
//  #03 //063   ----------------------------------------
 BYTE   N12
 BYTE   W12
 BYTE   Cn3 v048
 BYTE   W12
 BYTE   As2 v080
 BYTE   W12
 BYTE   N24 Dn3 v088
 BYTE   W24
 BYTE   N12 As2 v080
 BYTE   W12
 BYTE   Cn3 v072
 BYTE   W12
 BYTE   N05 As2 v088
 BYTE   W12
//  #03 //064   ----------------------------------------
 BYTE   N12 Gn2 v080
 BYTE   W12
 BYTE   An2 v060
 BYTE   W12
 BYTE   Gn2 v076
 BYTE   W12
 BYTE   N24 As2 v084
 BYTE   W24
 BYTE   N12 Gn2 v060
 BYTE   W12
 BYTE   An2 v072
 BYTE   W12
 BYTE   N08 Gn2 v060
 BYTE   W12
//  #03 //065   ----------------------------------------
 BYTE   N12 Gn2 v076
 BYTE   W12
 BYTE   An2 v056
 BYTE   W12
 BYTE   Gn2 v068
 BYTE   W12
 BYTE   N24 As2 v076
 BYTE   W24
 BYTE   N12 Gn2 v068
 BYTE   W12
 BYTE   An2 v072
 BYTE   W12
 BYTE   N08 Gn2 v064
 BYTE   W12
//  #03 //066   ----------------------------------------
 BYTE   N12 Gn2 v080
 BYTE   W12
 BYTE   An2
 BYTE   W12
 BYTE   Gn2 v076
 BYTE   W12
 BYTE   N24 Dn3 v088
 BYTE   W24
 BYTE   N12 Gn2 v076
 BYTE   W12
 BYTE   An2
 BYTE   W12
 BYTE   N08 Gn2 v068
 BYTE   W12
//  #03 //067   ----------------------------------------
 BYTE   N12 Gn2 v080
 BYTE   W12
 BYTE   An2 v064
 BYTE   W12
 BYTE   Gn2 v068
 BYTE   W12
 BYTE   N24 Dn3 v088
 BYTE   W24
 BYTE   N12 Gn2 v052
 BYTE   W12
 BYTE   An2 v056
 BYTE   W12
 BYTE   N08 Gn2 v080
 BYTE   W12
//  #03 //068   ----------------------------------------
 BYTE   N12 Gn2 v088
 BYTE   W12
 BYTE   An2 v032
 BYTE   W12
 BYTE   Gn2 v080
 BYTE   W12
 BYTE   N24 As2 v084
 BYTE   W24
 BYTE   N12 Gn2 v060
 BYTE   W12
 BYTE   An2 v080
 BYTE   W12
 BYTE   N08 Gn2 v068
 BYTE   W12
//  #03 //069   ----------------------------------------
 BYTE   N12 Gn2 v084
 BYTE   W12
 BYTE   An2 v060
 BYTE   W12
 BYTE   Gn2 v072
 BYTE   W12
 BYTE   N24 As2 v084
 BYTE   W24
 BYTE   N12 Gn2 v064
 BYTE   W12
 BYTE   An2 v072
 BYTE   W12
 BYTE   N08 Gn2
 BYTE   W12
//  #03 //070   ----------------------------------------
 BYTE   N12 Gn2 v076
 BYTE   W12
 BYTE   An2 v068
 BYTE   W12
 BYTE   Gn2 v072
 BYTE   W12
 BYTE   N24 As2 v076
 BYTE   W24
 BYTE   N12 Gn2 v080
 BYTE   W12
 BYTE   An2 v076
 BYTE   W12
 BYTE   N08 Gn2 v064
 BYTE   W12
//  #03 //071   ----------------------------------------
 BYTE   N12 Gn2 v080
 BYTE   W12
 BYTE   An2 v060
 BYTE   W12
 BYTE   Gn2 v076
 BYTE   W12
 BYTE   N24 As2
 BYTE   W24
 BYTE   N12 Gn2 v052
 BYTE   W12
 BYTE   An2 v056
 BYTE   W12
 BYTE   Gn2 v076
 BYTE   W12
//  #03 //072   ----------------------------------------
 BYTE   N06 As3
 BYTE   W06
 BYTE   An3 v064
 BYTE   W06
 BYTE   Gn3 v076
 BYTE   W06
 BYTE   Dn3 v064
 BYTE   W06
 BYTE   N05 Fn3 v056
 BYTE   W05
 BYTE   Ds3 v060
 BYTE   W06
 BYTE   N06 Dn3 v072
 BYTE   W07
 BYTE   Cn3 v064
 BYTE   W06
 BYTE   Gn3
 BYTE   W06
 BYTE   Dn3 v060
 BYTE   W06
 BYTE   Cn3
 BYTE   W06
 BYTE   As2 v064
 BYTE   W06
 BYTE   Dn3 v060
 BYTE   W06
 BYTE   Cn3
 BYTE   W06
 BYTE   As2
 BYTE   W06
 BYTE   An2 v064
 BYTE   W06
//  #03 //073   ----------------------------------------
 BYTE   Gn2 v048
 BYTE   W06
 BYTE   Dn2 v064
 BYTE   W06
 BYTE   Cn2
 BYTE   W06
 BYTE   Dn2 v060
 BYTE   W06
 BYTE   Fn2 v068
 BYTE   W06
 BYTE   Ds2
 BYTE   W06
 BYTE   N05 Dn2
 BYTE   W06
 BYTE   N06 Cn2
 BYTE   W06
 BYTE   Dn2 v064
 BYTE   W06
 BYTE   Cn2
 BYTE   W06
 BYTE   Fn2
 BYTE   W06
 BYTE   Ds2 v060
 BYTE   W06
 BYTE   Dn2 v048
 BYTE   W06
 BYTE   Cn2 v052
 BYTE   W06
 BYTE   As1 v072
 BYTE   W06
 BYTE   An1 v068
 BYTE   W06
//  #03 //074   ----------------------------------------
 BYTE   N36 Gn1
 BYTE   W36
 BYTE   N24 As2 v028
 BYTE   W06
 BYTE   VOL  0*song03DA_mvl/mxv
 BYTE   W06
 BYTE   VOL  0*song03DA_mvl/mxv
 BYTE   W06
 BYTE   VOL  1*song03DA_mvl/mxv
 BYTE   W06
 BYTE   VOL  5*song03DA_mvl/mxv
 BYTE   N12 Gn2 v036
 BYTE   W06
 BYTE   VOL  10*song03DA_mvl/mxv
 BYTE   W06
 BYTE   VOL  14*song03DA_mvl/mxv
 BYTE   N12 An2 v028
 BYTE   W06
 BYTE   VOL  20*song03DA_mvl/mxv
 BYTE   W06
 BYTE   VOL  26*song03DA_mvl/mxv
 BYTE   N12 Gn2 v016
 BYTE   W06
 BYTE   VOL  37*song03DA_mvl/mxv
 BYTE   W06
//  #03 //075   ----------------------------------------
 BYTE   N12 Gn2 v036
 BYTE   W01
 BYTE   VOL  38*song03DA_mvl/mxv
 BYTE   W11
 BYTE   N12 An2 v024
 BYTE   W12
 BYTE   Gn2 v040
 BYTE   W12
 BYTE   N24 As2 v028
 BYTE   W24
 BYTE   N12 Gn2 v036
 BYTE   W12
 BYTE   An2 v028
 BYTE   W12
 BYTE   Gn2 v016
 BYTE   W12
//  #03 //076   ----------------------------------------
 BYTE   Cn3 v024
 BYTE   W12
 BYTE   Dn3 v032
 BYTE   W12
 BYTE   Cn3
 BYTE   W12
 BYTE   N24 Ds3 v040
 BYTE   W24
 BYTE   N12 Cn3 v028
 BYTE   W12
 BYTE   Dn3 v032
 BYTE   W12
 BYTE   Cn3 v028
 BYTE   W12
//  #03 //077   ----------------------------------------
 BYTE   Cn3 v032
 BYTE   W12
 BYTE   Dn3 v012
 BYTE   W12
 BYTE   Cn3 v032
 BYTE   W12
 BYTE   N24 Ds3 v036
 BYTE   W24
 BYTE   N12 Cn3 v016
 BYTE   W12
 BYTE   Dn3 v024
 BYTE   W12
 BYTE   Cn3
 BYTE   W12
//  #03 //078   ----------------------------------------
 BYTE   Cn3 v028
 BYTE   W12
 BYTE   Ds3 v032
 BYTE   W12
 BYTE   Cn3 v020
 BYTE   W12
 BYTE   N24 Ds3 v036
 BYTE   W24
 BYTE   N12 Cn3 v024
 BYTE   W12
 BYTE   Dn3 v032
 BYTE   W12
 BYTE   Cn3 v028
 BYTE   W12
//  #03 //079   ----------------------------------------
 BYTE   Cn3 v032
 BYTE   W12
 BYTE   Ds3 v024
 BYTE   W12
 BYTE   Cn3 v028
 BYTE   W12
 BYTE   N24 Ds3 v036
 BYTE   W24
 BYTE   N12 Cn3 v024
 BYTE   W12
 BYTE   Dn3 v032
 BYTE   W12
 BYTE   Cn3 v004
 BYTE   W12
//  #03 //080   ----------------------------------------
 BYTE   Gn2 v024
 BYTE   W12
 BYTE   An2
 BYTE   W12
 BYTE   Gn2 v016
 BYTE   W12
 BYTE   N24 As2 v032
 BYTE   W24
 BYTE   N12 Gn2 v020
 BYTE   W12
 BYTE   An2 v028
 BYTE   W12
 BYTE   Gn2 v024
 BYTE   W12
//  #03 //081   ----------------------------------------
 BYTE   Gn2 v032
 BYTE   W12
 BYTE   An2 v016
 BYTE   W12
 BYTE   Gn2 v028
 BYTE   W12
 BYTE   N24 As2
 BYTE   W24
 BYTE   N12 Gn2 v012
 BYTE   W12
 BYTE   An2 v016
 BYTE   W12
 BYTE   Gn2 v012
 BYTE   W12
//  #03 //082   ----------------------------------------
 BYTE   Ds2 v036
 BYTE   W12
 BYTE   Fn2 v040
 BYTE   W12
 BYTE   Ds2 v028
 BYTE   W12
 BYTE   N24 Gn2 v036
 BYTE   W24
 BYTE   N12 Ds2 v020
 BYTE   W12
 BYTE   Fn2 v032
 BYTE   W12
 BYTE   Ds2 v008
 BYTE   W12
//  #03 //083   ----------------------------------------
 BYTE   Ds2 v024
 BYTE   W12
 BYTE   Fn2
 BYTE   W12
 BYTE   Ds2
 BYTE   W12
 BYTE   N24 Gn2 v036
 BYTE   W24
 BYTE   N12 Ds2 v004
 BYTE   W12
 BYTE   Fn2 v028
 BYTE   W12
 BYTE   Ds2 v020
 BYTE   W12
//  #03 //084   ----------------------------------------
 BYTE   Cn2 v032
 BYTE   W12
 BYTE   Dn2 v024
 BYTE   W12
 BYTE   Cn2
 BYTE   W12
 BYTE   N24 Ds2 v036
 BYTE   W24
 BYTE   N12 Cn2 v024
 BYTE   W12
 BYTE   Dn2 v028
 BYTE   W12
 BYTE   Cn2 v020
 BYTE   W12
//  #03 //085   ----------------------------------------
 BYTE   Cn2 v024
 BYTE   W12
 BYTE   Dn2 v032
 BYTE   W12
 BYTE   Cn2
 BYTE   W12
 BYTE   N24 Ds2
 BYTE   W24
 BYTE   N12 Cn2 v028
 BYTE   W12
 BYTE   Dn2 v020
 BYTE   W12
 BYTE   Cn2 v024
 BYTE   W12
//  #03 //086   ----------------------------------------
 BYTE   An1 v036
 BYTE   W12
 BYTE   As1 v044
 BYTE   W12
 BYTE   An1 v032
 BYTE   W12
 BYTE   N24 Cn2
 BYTE   W24
 BYTE   N12 An1
 BYTE   W12
 BYTE   As1 v044
 BYTE   W12
 BYTE   An1 v024
 BYTE   W12
//  #03 //087   ----------------------------------------
 BYTE   An1 v032
 BYTE   W12
 BYTE   As1 v044
 BYTE   W12
 BYTE   An1 v036
 BYTE   W12
 BYTE   N24 Cn2 v040
 BYTE   W24
 BYTE   N12 An1 v024
 BYTE   W12
 BYTE   As1 v040
 BYTE   W12
 BYTE   An1 v032
 BYTE   W12
//  #03 //088   ----------------------------------------
 BYTE   Dn2 v048
 BYTE   W12
 BYTE   En2 v032
 BYTE   W12
 BYTE   Dn2 v036
 BYTE   W12
 BYTE   N24 Fs2 v032
 BYTE   W24
 BYTE   N12 Dn2
 BYTE   W12
 BYTE   En2
 BYTE   W12
 BYTE   Dn2 v024
 BYTE   W12
//  #03 //089   ----------------------------------------
 BYTE   Dn2 v032
 BYTE   W12
 BYTE   En2 v036
 BYTE   W12
 BYTE   Dn2 v032
 BYTE   W12
 BYTE   N24 Fs2
 BYTE   W24
 BYTE   N12 Dn2
 BYTE   W12
 BYTE   En2 v044
 BYTE   W12
 BYTE   N05 Dn2 v032
 BYTE   W12
//  #03 //090   ----------------------------------------
 BYTE   N06 As2 v064
 BYTE   W12
 BYTE   N04 Dn3 v068
 BYTE   W12
 BYTE   N05 Gn3
 BYTE   W12
 BYTE   N03 Dn3 v080
 BYTE   W06
 BYTE   N06
 BYTE   W06
 BYTE   N07 As2 v084
 BYTE   W12
 BYTE   N05 Dn3 v080
 BYTE   W12
 BYTE   N06 As3
 BYTE   W12
 BYTE   N03 Dn3 v084
 BYTE   W06
 BYTE   N06
 BYTE   W06
//  #03 //091   ----------------------------------------
 BYTE   As2 v088
 BYTE   W12
 BYTE   N04 Dn3 v048
 BYTE   W12
 BYTE   N06 Gn3 v080
 BYTE   W12
 BYTE   N04 Dn3 v064
 BYTE   W06
 BYTE   N05 Dn3 v080
 BYTE   W06
 BYTE   N06 As2 v072
 BYTE   W12
 BYTE   N04 Dn3 v076
 BYTE   W12
 BYTE   As3
 BYTE   W12
 BYTE   N03 Dn3
 BYTE   W06
 BYTE   N04
 BYTE   W06
//  #03 //092   ----------------------------------------
 BYTE   N07 Cn3 v060
 BYTE   W12
 BYTE   N04 Ds3 v064
 BYTE   W12
 BYTE   N05 Gn3
 BYTE   W12
 BYTE   N03 Ds3 v076
 BYTE   W06
 BYTE   N06
 BYTE   W06
 BYTE   N07 Cn3 v088
 BYTE   W12
 BYTE   N05 Ds3 v084
 BYTE   W12
 BYTE   N06 Cn4
 BYTE   W12
 BYTE   N03 Ds3
 BYTE   W06
 BYTE   N04 Ds3 v080
 BYTE   W06
//  #03 //093   ----------------------------------------
 BYTE   N06 Cn3 v088
 BYTE   W12
 BYTE   N04 Ds3 v048
 BYTE   W12
 BYTE   N06 An3 v080
 BYTE   W12
 BYTE   N04 Ds3 v072
 BYTE   W06
 BYTE   N05 Ds3 v084
 BYTE   W06
 BYTE   N06 Cn3 v076
 BYTE   W12
 BYTE   N04 Ds3 v080
 BYTE   W12
 BYTE   An3
 BYTE   W12
 BYTE   N03 Ds3 v076
 BYTE   W06
 BYTE   N04
 BYTE   W06
//  #03 //094   ----------------------------------------
 BYTE   N07 As2 v064
 BYTE   W12
 BYTE   N04 Dn3
 BYTE   W12
 BYTE   N05 Gn3
 BYTE   W12
 BYTE   N03 Dn3 v080
 BYTE   W06
 BYTE   N06
 BYTE   W06
 BYTE   N07 As2
 BYTE   W12
 BYTE   N05 Dn3 v084
 BYTE   W12
 BYTE   N06 As3 v088
 BYTE   W12
 BYTE   N03 Dn3 v096
 BYTE   W06
 BYTE   N06 Dn3 v080
 BYTE   W06
//  #03 //095   ----------------------------------------
 BYTE   As2 v084
 BYTE   W12
 BYTE   N04 Dn3 v044
 BYTE   W12
 BYTE   N06 Gn3 v072
 BYTE   W12
 BYTE   N04 Dn3 v068
 BYTE   W06
 BYTE   N05 Dn3 v076
 BYTE   W06
 BYTE   N06 As2 v072
 BYTE   W12
 BYTE   N04 Dn3 v076
 BYTE   W12
 BYTE   As3 v080
 BYTE   W12
 BYTE   N03 Dn3
 BYTE   W06
 BYTE   N04 Dn3 v072
 BYTE   W06
//  #03 //096   ----------------------------------------
 BYTE   N07 Cn3 v064
 BYTE   W12
 BYTE   N04 Ds3 v068
 BYTE   W12
 BYTE   N05 Gn3
 BYTE   W12
 BYTE   N03 Ds3 v080
 BYTE   W06
 BYTE   N06 Ds3 v076
 BYTE   W06
 BYTE   N07 Cn3 v080
 BYTE   W12
 BYTE   N05 Ds3 v088
 BYTE   W12
 BYTE   N06 Cn4 v084
 BYTE   W12
 BYTE   N03 Ds3
 BYTE   W06
 BYTE   N04 Ds3 v076
 BYTE   W06
//  #03 //097   ----------------------------------------
 BYTE   N06 Cn3 v080
 BYTE   W12
 BYTE   N04 Ds3 v048
 BYTE   W12
 BYTE   N06 An3 v072
 BYTE   W12
 BYTE   N04 Ds3 v068
 BYTE   W06
 BYTE   N05 Ds3 v080
 BYTE   W06
 BYTE   N06 Cn3 v076
 BYTE   W12
 BYTE   N04 Ds3
 BYTE   W12
 BYTE   An3 v080
 BYTE   W12
 BYTE   N03 Ds3 v072
 BYTE   W06
 BYTE   N04 Ds3 v076
 BYTE   W06
//  #03 //098   ----------------------------------------
 BYTE   N07 As2 v060
 BYTE   W12
 BYTE   N04 Dn3 v068
 BYTE   W12
 BYTE   N05 Gn3
 BYTE   W12
 BYTE   N03 Dn3 v080
 BYTE   W06
 BYTE   N06 Dn3 v076
 BYTE   W06
 BYTE   N07 As2 v084
 BYTE   W12
 BYTE   N05 Dn3 v088
 BYTE   W12
 BYTE   N06 As3 v076
 BYTE   W12
 BYTE   N03 Dn3 v088
 BYTE   W06
 BYTE   N06 Dn3 v080
 BYTE   W06
//  #03 //099   ----------------------------------------
 BYTE   As2 v088
 BYTE   W12
 BYTE   N04 Dn3 v044
 BYTE   W12
 BYTE   N06 Gn3 v080
 BYTE   W12
 BYTE   N04 Dn3 v064
 BYTE   W06
 BYTE   N05 Dn3 v080
 BYTE   W06
 BYTE   N06 As2 v076
 BYTE   W12
 BYTE   N04 Dn3
 BYTE   W12
 BYTE   As3 v084
 BYTE   W12
 BYTE   N03 Dn3 v072
 BYTE   W06
 BYTE   N04 Dn3 v076
 BYTE   W06
//  #03 //100   ----------------------------------------
 BYTE   N07 Cn3 v060
 BYTE   W12
 BYTE   N04 Ds3 v072
 BYTE   W12
 BYTE   N05 Gn3 v064
 BYTE   W12
 BYTE   N03 Ds3 v080
 BYTE   W06
 BYTE   N06 Ds3 v072
 BYTE   W06
 BYTE   N07 Cn3 v080
 BYTE   W12
 BYTE   N05 Ds3 v084
 BYTE   W12
 BYTE   N06 Cn4 v088
 BYTE   W12
 BYTE   N03 Ds3 v096
 BYTE   W06
 BYTE   N04 Ds3 v076
 BYTE   W06
//  #03 //101   ----------------------------------------
 BYTE   N06 Cn3 v088
 BYTE   W12
 BYTE   N04 Ds3 v048
 BYTE   W12
 BYTE   N06 An3 v076
 BYTE   W12
 BYTE   N04 Ds3
 BYTE   W06
 BYTE   N05 Ds3 v080
 BYTE   W06
 BYTE   N06 Cn3 v076
 BYTE   W12
 BYTE   N04 Ds3 v072
 BYTE   W12
 BYTE   An3 v076
 BYTE   W12
 BYTE   N03 Ds3 v072
 BYTE   W06
 BYTE   N04 Ds3 v076
 BYTE   W06
//  #03 //102   ----------------------------------------
 BYTE   N16 Gn3 v088
 BYTE   W16
 BYTE   Fn3
 BYTE   W16
 BYTE   Ds3 v076
 BYTE   W16
 BYTE   Dn3 v056
 BYTE   W16
 BYTE   Cn3 v080
 BYTE   W16
 BYTE   As2 v072
 BYTE   W16
//  #03 //103   ----------------------------------------
 BYTE   An2 v076
 BYTE   W16
 BYTE   Gn2
 BYTE   W16
 BYTE   Fn2
 BYTE   W16
 BYTE   Ds2
 BYTE   W16
 BYTE   Dn2
 BYTE   W16
 BYTE   Cn2 v064
 BYTE   W16
//  #03 //104   ----------------------------------------
 BYTE   Gn2 v080
 BYTE   W16
 BYTE   Fn2
 BYTE   W16
 BYTE   Ds2 v068
 BYTE   W16
 BYTE   Dn2 v080
 BYTE   W16
 BYTE   Cn2
 BYTE   W16
 BYTE   As1
 BYTE   W16
//  #03 //105   ----------------------------------------
 BYTE   An2 v100
 BYTE   W16
 BYTE   Gn2 v096
 BYTE   W16
 BYTE   Fn2 v076
 BYTE   W16
 BYTE   Ds3 v092
 BYTE   W16
 BYTE   Dn3 v072
 BYTE   W16
 BYTE   Cn3 v080
 BYTE   W16
//  #03 //106   ----------------------------------------
 BYTE   N12 Dn3 v096
 BYTE   W12
 BYTE   N03 An2 v032
 BYTE   W12
 BYTE   N04
 BYTE   W12
 BYTE   An2 v036
 BYTE   W12
 BYTE   An2 v044
 BYTE   W12
 BYTE   An2 v048
 BYTE   W12
 BYTE   An2 v052
 BYTE   W12
 BYTE   An2 v048
 BYTE   W12
//  #03 //107   ----------------------------------------
 BYTE   As2 v104
 BYTE   W12
 BYTE   As2 v080
 BYTE   W12
 BYTE   N05 As2 v100
 BYTE   W12
 BYTE   N04 As2 v080
 BYTE   W12
 BYTE   As2 v096
 BYTE   W12
 BYTE   As2 v080
 BYTE   W12
 BYTE   N05 As2 v088
 BYTE   W12
 BYTE   N06 As2 v072
 BYTE   W12
//  #03 //108   ----------------------------------------
 BYTE   N04 Cn3 v068
 BYTE   W12
 BYTE   Cn3 v076
 BYTE   W12
 BYTE   N05 Cn3 v080
 BYTE   W12
 BYTE   N04 Cn3 v060
 BYTE   W12
 BYTE   N05 Cn3 v068
 BYTE   W12
 BYTE   N04 Cn3 v056
 BYTE   W12
 BYTE   Cn3 v088
 BYTE   W12
 BYTE   Cn3 v064
 BYTE   W12
//  #03 //109   ----------------------------------------
 BYTE   N05 Dn3 v084
 BYTE   W12
 BYTE   N04 Dn3 v080
 BYTE   W12
 BYTE   N06 Dn3 v068
 BYTE   W12
 BYTE   N05
 BYTE   W12
 BYTE   N04 Dn3 v060
 BYTE   W12
 BYTE   Dn3 v064
 BYTE   W12
 BYTE   Dn3 v080
 BYTE   W12
 BYTE   Dn3 v056
 BYTE   W12
//  #03 //110   ----------------------------------------
 BYTE   N05 Fs3 v100
 BYTE   W12
 BYTE   N04 Fs3 v092
 BYTE   W12
 BYTE   N05 Fs3 v084
 BYTE   W12
 BYTE   N04 Fs3 v072
 BYTE   W12
 BYTE   Fs3 v108
 BYTE   W12
 BYTE   Fs3 v112
 BYTE   W12
 BYTE   Fs3 v108
 BYTE   W12
 BYTE   N03 Fs3 v104
 BYTE   W12
//  #03 //111   ----------------------------------------
 BYTE   GoTo
  POIN2 Label_0101176B
//  #03 //112   ----------------------------------------
 BYTE   N12 En2 v080
 BYTE   W12
 BYTE   Fs2 v068
 BYTE   W12
 BYTE   En2 v080
 BYTE   W12
 BYTE   N24 Gn2 v084
 BYTE   W24
 BYTE   N12 En2 v064
 BYTE   W12
 BYTE   Fs2 v068
 BYTE   W12
 BYTE   N07 En2
 BYTE   W12
//  #03 //113   ----------------------------------------
 BYTE   N12 En2 v080
 BYTE   W12
 BYTE   Fs2 v060
 BYTE   W12
 BYTE   En2 v068
 BYTE   W12
 BYTE   N24 Gn2 v076
 BYTE   W24
 BYTE   N12 En2 v060
 BYTE   W12
 BYTE   Fs2 v068
 BYTE   W12
 BYTE   N07 En2 v072
 BYTE   W12
//  #03 //114   ----------------------------------------
 BYTE   N12
 BYTE   W12
 BYTE   Fs2 v068
 BYTE   W12
 BYTE   En2 v076
 BYTE   W12
 BYTE   N24 Gn2 v080
 BYTE   W24
 BYTE   N12 En2
 BYTE   W12
 BYTE   Fs2 v076
 BYTE   W12
 BYTE   N07 En2 v060
 BYTE   W12
//  #03 //115   ----------------------------------------
 BYTE   N12 En2 v080
 BYTE   W12
 BYTE   Fs2 v068
 BYTE   W12
 BYTE   En2 v072
 BYTE   W12
 BYTE   N24 Gn2 v080
 BYTE   W24
 BYTE   N12 En2 v056
 BYTE   W12
 BYTE   Fs2 v060
 BYTE   W12
 BYTE   N07 En2 v084
 BYTE   W12
//  #03 //116   ----------------------------------------
 BYTE   N09 En2 v104
 BYTE   W24
 BYTE   N06 Bn1 v092
 BYTE   W12
 BYTE   N04
 BYTE   W06
 BYTE   N04
 BYTE   W06
 BYTE   N12 En2 v104
 BYTE   W12
 BYTE   FINE

//**************** Track 4 (Midi-Chn.3) ****************//

song03DA_004:
//  #04 //000   ----------------------------------------
 BYTE   KEYSH  song03DA_key+0
 BYTE   MODT 0
 BYTE   LFOS 44
 BYTE   VOL  66*song03DA_mvl/mxv
 BYTE   W12
 BYTE   VOICE  42
 BYTE   PAN  c_v+41
 BYTE   W48
 BYTE   N36 Bn0 v080
 BYTE   W36
//  #04 //001   ----------------------------------------
Label_010123F6:
 BYTE   N12 En1 v068
 BYTE   W12
 BYTE   Fs1 v032
 BYTE   W12
 BYTE   En1 v072
 BYTE   W12
 BYTE   N24 Gn1 v056
 BYTE   W24
 BYTE   N12 En1 v052
 BYTE   W12
 BYTE   Fs1 v056
 BYTE   W12
 BYTE   N08 En1
 BYTE   W12
//  #04 //002   ----------------------------------------
 BYTE   N12 En1 v064
 BYTE   W12
 BYTE   Fs1 v048
 BYTE   W12
 BYTE   En1 v056
 BYTE   W12
 BYTE   N24 Gn1 v052
 BYTE   W24
 BYTE   N12 En1 v048
 BYTE   W12
 BYTE   Fs1 v056
 BYTE   W12
 BYTE   N08 En1
 BYTE   W12
//  #04 //003   ----------------------------------------
 BYTE   N12 En1 v064
 BYTE   W12
 BYTE   Fs1 v052
 BYTE   W12
 BYTE   En1 v068
 BYTE   W12
 BYTE   N24 Gn1 v048
 BYTE   W24
 BYTE   N12 En1 v072
 BYTE   W12
 BYTE   Fs1 v060
 BYTE   W12
 BYTE   N08 En1 v056
 BYTE   W12
//  #04 //004   ----------------------------------------
 BYTE   N12 En1 v064
 BYTE   W12
 BYTE   Fs1 v052
 BYTE   W12
 BYTE   En1 v060
 BYTE   W12
 BYTE   N24 Gn1 v056
 BYTE   W24
 BYTE   N12 En1 v044
 BYTE   W12
 BYTE   Fs1 v056
 BYTE   W12
 BYTE   N08 En1 v068
 BYTE   W12
//  #04 //005   ----------------------------------------
 BYTE   N12 En1 v072
 BYTE   W12
 BYTE   Fs1 v064
 BYTE   W12
 BYTE   En1 v072
 BYTE   W12
 BYTE   N24 Bn1 v060
 BYTE   W24
 BYTE   N12 En1 v056
 BYTE   W12
 BYTE   Fs1 v048
 BYTE   W12
 BYTE   N08 En1 v052
 BYTE   W12
//  #04 //006   ----------------------------------------
 BYTE   N12 En1 v080
 BYTE   W12
 BYTE   Fs1 v048
 BYTE   W12
 BYTE   En1 v072
 BYTE   W12
 BYTE   N24 Bn1 v060
 BYTE   W24
 BYTE   N12 En1 v072
 BYTE   W12
 BYTE   Fs1 v048
 BYTE   W12
 BYTE   N08 En1 v072
 BYTE   W12
//  #04 //007   ----------------------------------------
 BYTE   N12 En1 v064
 BYTE   W12
 BYTE   Fs1
 BYTE   W12
 BYTE   En1 v072
 BYTE   W12
 BYTE   N24 Bn1 v060
 BYTE   W24
 BYTE   N12 En1
 BYTE   W12
 BYTE   Fs1 v048
 BYTE   W12
 BYTE   N08 En1 v076
 BYTE   W12
//  #04 //008   ----------------------------------------
 BYTE   N12 En1 v064
 BYTE   W12
 BYTE   Fs1 v036
 BYTE   W12
 BYTE   En1 v056
 BYTE   W12
 BYTE   N24 Bn1 v060
 BYTE   W24
 BYTE   N12 En1 v064
 BYTE   W12
 BYTE   Fs1 v056
 BYTE   W12
 BYTE   N08 En1 v076
 BYTE   W12
//  #04 //009   ----------------------------------------
 BYTE   N12 En1 v064
 BYTE   W12
 BYTE   Fs1 v040
 BYTE   W12
 BYTE   En1 v064
 BYTE   W12
 BYTE   N24 Gn1 v056
 BYTE   W24
 BYTE   N12 En1 v048
 BYTE   W12
 BYTE   Fs1 v052
 BYTE   W12
 BYTE   N08 En1 v060
 BYTE   W12
//  #04 //010   ----------------------------------------
 BYTE   N12 En1 v076
 BYTE   W12
 BYTE   Fs1 v048
 BYTE   W12
 BYTE   En1 v056
 BYTE   W12
 BYTE   N24 Gn1
 BYTE   W24
 BYTE   N12 En1 v048
 BYTE   W12
 BYTE   Fs1 v060
 BYTE   W12
 BYTE   N08 En1 v052
 BYTE   W12
//  #04 //011   ----------------------------------------
 BYTE   N12 En1 v060
 BYTE   W12
 BYTE   Fs1
 BYTE   W12
 BYTE   En1 v064
 BYTE   W12
 BYTE   N24 Gn1 v056
 BYTE   W24
 BYTE   N12 En1 v064
 BYTE   W12
 BYTE   Fs1
 BYTE   W12
 BYTE   N08 En1 v052
 BYTE   W12
//  #04 //012   ----------------------------------------
 BYTE   N12
 BYTE   W12
 BYTE   Fs1 v044
 BYTE   W12
 BYTE   En1 v068
 BYTE   W12
 BYTE   N24 Gn1 v060
 BYTE   W24
 BYTE   N12 En1 v048
 BYTE   W12
 BYTE   Fs1 v052
 BYTE   W12
 BYTE   N08 En1 v068
 BYTE   W12
//  #04 //013   ----------------------------------------
 BYTE   N12
 BYTE   W12
 BYTE   Fs1 v024
 BYTE   W12
 BYTE   En1 v076
 BYTE   W12
 BYTE   N24 Gn1 v060
 BYTE   W24
 BYTE   N12 En1 v056
 BYTE   W12
 BYTE   Fs1
 BYTE   W12
 BYTE   N08 En1 v064
 BYTE   W12
//  #04 //014   ----------------------------------------
 BYTE   N12 En1 v072
 BYTE   W12
 BYTE   Fs1 v048
 BYTE   W12
 BYTE   En1 v056
 BYTE   W12
 BYTE   N24 Gn1
 BYTE   W24
 BYTE   N12 En1 v052
 BYTE   W12
 BYTE   Fs1 v064
 BYTE   W12
 BYTE   N08 En1 v056
 BYTE   W12
//  #04 //015   ----------------------------------------
 BYTE   N12 En1 v064
 BYTE   W12
 BYTE   Fs1 v056
 BYTE   W12
 BYTE   En1 v060
 BYTE   W12
 BYTE   N24 Gn1 v056
 BYTE   W24
 BYTE   N12 En1
 BYTE   W12
 BYTE   Fs1 v060
 BYTE   W12
 BYTE   N08 En1
 BYTE   W12
//  #04 //016   ----------------------------------------
 BYTE   N12 En1 v072
 BYTE   W12
 BYTE   Fs1 v056
 BYTE   W12
 BYTE   En1 v060
 BYTE   W12
 BYTE   N24 Gn1 v056
 BYTE   W24
 BYTE   N12 En1 v048
 BYTE   W12
 BYTE   Fs1 v044
 BYTE   W12
 BYTE   N07 En1 v068
 BYTE   W12
//  #04 //017   ----------------------------------------
 BYTE   N06 Gn2 v100
 BYTE   W06
 BYTE   Fs2 v084
 BYTE   W06
 BYTE   En2 v100
 BYTE   W06
 BYTE   Bn1 v088
 BYTE   W06
 BYTE   N05 Dn2 v084
 BYTE   W05
 BYTE   Cn2
 BYTE   W06
 BYTE   N06 Bn1 v096
 BYTE   W07
 BYTE   An1 v084
 BYTE   W06
 BYTE   En2 v088
 BYTE   W06
 BYTE   Bn1 v084
 BYTE   W06
 BYTE   An1
 BYTE   W06
 BYTE   Gn1
 BYTE   W06
 BYTE   Bn1 v088
 BYTE   W06
 BYTE   An1 v084
 BYTE   W06
 BYTE   Gn1
 BYTE   W06
 BYTE   Fs1
 BYTE   W06
//  #04 //018   ----------------------------------------
 BYTE   En1 v104
 BYTE   W06
 BYTE   Bn0 v092
 BYTE   W06
 BYTE   An0 v088
 BYTE   W06
 BYTE   Bn0 v084
 BYTE   W06
 BYTE   Dn1 v092
 BYTE   W06
 BYTE   Cn1
 BYTE   W06
 BYTE   N05 Bn0 v096
 BYTE   W06
 BYTE   N06 An0
 BYTE   W06
 BYTE   Bn0 v088
 BYTE   W06
 BYTE   An0 v092
 BYTE   W06
 BYTE   Dn1 v088
 BYTE   W06
 BYTE   Cn1
 BYTE   W06
 BYTE   Bn0 v072
 BYTE   W06
 BYTE   An0 v076
 BYTE   W06
 BYTE   Gn0 v092
 BYTE   W06
 BYTE   Fs0
 BYTE   W06
//  #04 //019   ----------------------------------------
Label_010125D3:
 BYTE   N05 En2 v127
 BYTE   W24
 BYTE   N08
 BYTE   W24
 BYTE   N08
 BYTE   W24
 BYTE   N12
 BYTE   W12
 BYTE   N13 Bn1
 BYTE   W12
 BYTE   PEND 
//  #04 //020   ----------------------------------------
Label_010125E1:
 BYTE   N06 En2 v127
 BYTE   W24
 BYTE   N07
 BYTE   W24
 BYTE   N07
 BYTE   W24
 BYTE   N12
 BYTE   W12
 BYTE   Bn1
 BYTE   W12
 BYTE   PEND 
//  #04 //021   ----------------------------------------
 BYTE   PATT
  POIN2 Label_010125D3
//  #04 //022   ----------------------------------------
 BYTE   PATT
  POIN2 Label_010125E1
//  #04 //023   ----------------------------------------
 BYTE   PATT
  POIN2 Label_010125D3
//  #04 //024   ----------------------------------------
 BYTE   PATT
  POIN2 Label_010125E1
//  #04 //025   ----------------------------------------
 BYTE   PATT
  POIN2 Label_010125D3
//  #04 //026   ----------------------------------------
 BYTE   PATT
  POIN2 Label_010125E1
//  #04 //027   ----------------------------------------
 BYTE   N06 Cn2 v100
 BYTE   W24
 BYTE   N07 Cn2 v116
 BYTE   W24
 BYTE   Cn2 v112
 BYTE   W24
 BYTE   N12 Cn2 v116
 BYTE   W12
 BYTE   Gn1 v127
 BYTE   W12
//  #04 //028   ----------------------------------------
 BYTE   N07 Cn2 v112
 BYTE   W24
 BYTE   Cn2 v127
 BYTE   W24
 BYTE   N07
 BYTE   W24
 BYTE   N11
 BYTE   W12
 BYTE   N12 Gn1 v088
 BYTE   W12
//  #04 //029   ----------------------------------------
 BYTE   N06 An1 v100
 BYTE   W24
 BYTE   N07 An1 v116
 BYTE   W24
 BYTE   An1 v112
 BYTE   W24
 BYTE   N12 An1 v116
 BYTE   W24
//  #04 //030   ----------------------------------------
 BYTE   N07 An1 v112
 BYTE   W24
 BYTE   An1 v127
 BYTE   W24
 BYTE   N07
 BYTE   W24
 BYTE   N11
 BYTE   W12
 BYTE   N06 En1
 BYTE   W12
//  #04 //031   ----------------------------------------
 BYTE   N12 Fs1 v108
 BYTE   W24
 BYTE   N12
 BYTE   W24
 BYTE   N12
 BYTE   W24
 BYTE   N12
 BYTE   W12
 BYTE   Cn2 v056
 BYTE   W12
//  #04 //032   ----------------------------------------
 BYTE   Fs1 v108
 BYTE   W24
 BYTE   N12
 BYTE   W24
 BYTE   N12
 BYTE   W24
 BYTE   N12
 BYTE   W12
 BYTE   Cn2
 BYTE   W12
//  #04 //033   ----------------------------------------
Label_01012662:
 BYTE   N12 Bn1 v108
 BYTE   W24
 BYTE   N12
 BYTE   W24
 BYTE   N12
 BYTE   W24
 BYTE   N12
 BYTE   W12
 BYTE   Fs1 v056
 BYTE   W12
 BYTE   PEND 
//  #04 //034   ----------------------------------------
 BYTE   PATT
  POIN2 Label_01012662
//  #04 //035   ----------------------------------------
Label_01012675:
 BYTE   N07 En2 v088
 BYTE   W24
 BYTE   N08 En2 v084
 BYTE   W24
 BYTE   En2 v080
 BYTE   W24
 BYTE   N12 En2 v084
 BYTE   W12
 BYTE   Bn1 v056
 BYTE   W12
 BYTE   PEND 
//  #04 //036   ----------------------------------------
Label_01012688:
 BYTE   N10 Cs2 v096
 BYTE   W24
 BYTE   N07
 BYTE   W24
 BYTE   N11 Cs2 v068
 BYTE   W24
 BYTE   N12 Cs2 v080
 BYTE   W12
 BYTE   Gn1 v100
 BYTE   W12
 BYTE   PEND 
//  #04 //037   ----------------------------------------
Label_0101269A:
 BYTE   N07 Fs1 v092
 BYTE   W24
 BYTE   N08 Fs1 v088
 BYTE   W24
 BYTE   N07 Fs1 v092
 BYTE   W24
 BYTE   N12 Fs1 v088
 BYTE   W12
 BYTE   Cn2 v076
 BYTE   W12
 BYTE   PEND 
//  #04 //038   ----------------------------------------
 BYTE   N10 Bn1 v096
 BYTE   W24
 BYTE   N09 Bn1 v088
 BYTE   W24
 BYTE   N10
 BYTE   W24
 BYTE   N12
 BYTE   W12
 BYTE   Fs2 v080
 BYTE   W12
//  #04 //039   ----------------------------------------
 BYTE   PATT
  POIN2 Label_01012675
//  #04 //040   ----------------------------------------
 BYTE   PATT
  POIN2 Label_01012688
//  #04 //041   ----------------------------------------
 BYTE   PATT
  POIN2 Label_0101269A
//  #04 //042   ----------------------------------------
 BYTE   N10 Bn1 v096
 BYTE   W24
 BYTE   N09 Bn1 v088
 BYTE   W24
 BYTE   N10
 BYTE   W24
 BYTE   N07
 BYTE   W12
 BYTE   N12 Bn1 v060
 BYTE   W12
//  #04 //043   ----------------------------------------
 BYTE   PATT
  POIN2 Label_01012675
//  #04 //044   ----------------------------------------
 BYTE   PATT
  POIN2 Label_01012688
//  #04 //045   ----------------------------------------
 BYTE   PATT
  POIN2 Label_0101269A
//  #04 //046   ----------------------------------------
 BYTE   N10 Bn1 v096
 BYTE   W24
 BYTE   N09 Bn1 v088
 BYTE   W24
 BYTE   N10
 BYTE   W24
 BYTE   N09
 BYTE   W12
 BYTE   N12 Bn1 v080
 BYTE   W12
//  #04 //047   ----------------------------------------
 BYTE   N15 En2 v100
 BYTE   W16
 BYTE   N16 Dn2 v084
 BYTE   W16
 BYTE   Cn2 v080
 BYTE   W16
 BYTE   Bn1 v072
 BYTE   W16
 BYTE   An1 v084
 BYTE   W16
 BYTE   Gn1 v072
 BYTE   W16
//  #04 //048   ----------------------------------------
 BYTE   Fs1 v076
 BYTE   W16
 BYTE   En1
 BYTE   W16
 BYTE   Dn1 v068
 BYTE   W16
 BYTE   Cn1 v072
 BYTE   W16
 BYTE   Bn0 v080
 BYTE   W16
 BYTE   An0 v088
 BYTE   W16
//  #04 //049   ----------------------------------------
 BYTE   En1 v092
 BYTE   W16
 BYTE   Dn1
 BYTE   W16
 BYTE   Cn1 v060
 BYTE   W16
 BYTE   Bn0 v088
 BYTE   W16
 BYTE   An0 v080
 BYTE   W16
 BYTE   Gn0 v088
 BYTE   W16
//  #04 //050   ----------------------------------------
 BYTE   Fs1 v096
 BYTE   W16
 BYTE   En1 v084
 BYTE   W16
 BYTE   Dn1
 BYTE   W16
 BYTE   Cn2 v100
 BYTE   W16
 BYTE   Bn1 v080
 BYTE   W16
 BYTE   An1
 BYTE   W16
//  #04 //051   ----------------------------------------
 BYTE   N12 Bn1 v100
 BYTE   W12
 BYTE   N03 Fs1 v032
 BYTE   W12
 BYTE   N04
 BYTE   W12
 BYTE   Fs1 v040
 BYTE   W12
 BYTE   Fs1 v048
 BYTE   W12
 BYTE   N04
 BYTE   W12
 BYTE   Fs1 v056
 BYTE   W12
 BYTE   N04
 BYTE   W12
//  #04 //052   ----------------------------------------
 BYTE   Gn1 v092
 BYTE   W12
 BYTE   Gn1 v088
 BYTE   W12
 BYTE   N05 Gn1 v100
 BYTE   W12
 BYTE   N04 Gn1 v076
 BYTE   W12
 BYTE   Gn1 v100
 BYTE   W12
 BYTE   Gn1 v088
 BYTE   W12
 BYTE   N05 Gn1 v092
 BYTE   W12
 BYTE   N06 Gn1 v072
 BYTE   W12
//  #04 //053   ----------------------------------------
 BYTE   N04 An1
 BYTE   W12
 BYTE   An1 v076
 BYTE   W12
 BYTE   N05 An1 v088
 BYTE   W12
 BYTE   N04 An1 v064
 BYTE   W12
 BYTE   N05 An1 v076
 BYTE   W12
 BYTE   N04 An1 v056
 BYTE   W12
 BYTE   An1 v092
 BYTE   W12
 BYTE   An1 v068
 BYTE   W12
//  #04 //054   ----------------------------------------
 BYTE   N05 Bn1 v084
 BYTE   W12
 BYTE   N04 Bn1 v076
 BYTE   W12
 BYTE   N06 Bn1 v096
 BYTE   W12
 BYTE   N05 Bn1 v056
 BYTE   W12
 BYTE   N04 Bn1 v068
 BYTE   W12
 BYTE   Bn1 v064
 BYTE   W12
 BYTE   Bn1 v088
 BYTE   W12
 BYTE   Bn1 v060
 BYTE   W12
//  #04 //055   ----------------------------------------
 BYTE   N05 Ds2 v112
 BYTE   W12
 BYTE   N04 Ds2 v108
 BYTE   W12
 BYTE   N05 Ds2 v084
 BYTE   W12
 BYTE   N04 Ds2 v072
 BYTE   W12
 BYTE   Ds2 v116
 BYTE   W12
 BYTE   Ds2 v108
 BYTE   W12
 BYTE   Ds2 v096
 BYTE   W12
 BYTE   N03 Ds2 v112
 BYTE   W12
//  #04 //056   ----------------------------------------
 BYTE   N12 As2 v080
 BYTE   W12
 BYTE   An2 v064
 BYTE   W12
 BYTE   Gn2 v052
 BYTE   W12
 BYTE   N24 Dn2 v060
 BYTE   W24
 BYTE   N12 Cn2
 BYTE   W12
 BYTE   As1 v072
 BYTE   W12
 BYTE   N06 Gn1 v064
 BYTE   W12
//  #04 //057   ----------------------------------------
 BYTE   N12 Gn1 v076
 BYTE   W12
 BYTE   An1 v060
 BYTE   W12
 BYTE   Gn1 v076
 BYTE   W12
 BYTE   N24 As1 v088
 BYTE   W24
 BYTE   N12 Gn1 v072
 BYTE   W12
 BYTE   An1
 BYTE   W12
 BYTE   N07 Gn1 v076
 BYTE   W12
//  #04 //058   ----------------------------------------
 BYTE   N12 Gn1 v080
 BYTE   W12
 BYTE   An1 v072
 BYTE   W12
 BYTE   Gn1 v076
 BYTE   W12
 BYTE   N24 As1 v080
 BYTE   W24
 BYTE   N12 Gn1 v084
 BYTE   W12
 BYTE   An1 v076
 BYTE   W12
 BYTE   N06 Gn1 v068
 BYTE   W12
//  #04 //059   ----------------------------------------
 BYTE   N12 Gn1 v096
 BYTE   W12
 BYTE   An1 v060
 BYTE   W12
 BYTE   Gn1 v068
 BYTE   W12
 BYTE   N24 As1 v084
 BYTE   W24
 BYTE   N12 Gn1 v052
 BYTE   W12
 BYTE   An1 v064
 BYTE   W12
 BYTE   N07 Gn1 v068
 BYTE   W12
//  #04 //060   ----------------------------------------
 BYTE   N12 As1 v084
 BYTE   W12
 BYTE   Cn2 v076
 BYTE   W12
 BYTE   As1 v084
 BYTE   W12
 BYTE   N24 Dn2 v096
 BYTE   W24
 BYTE   N12 As1 v068
 BYTE   W12
 BYTE   Cn2 v060
 BYTE   W12
 BYTE   N06 As1 v064
 BYTE   W12
//  #04 //061   ----------------------------------------
 BYTE   N12 As1 v084
 BYTE   W12
 BYTE   Cn2 v068
 BYTE   W12
 BYTE   As1 v076
 BYTE   W12
 BYTE   N24 Dn2 v084
 BYTE   W24
 BYTE   N12 As1
 BYTE   W12
 BYTE   Cn2 v060
 BYTE   W12
 BYTE   N06 As1 v076
 BYTE   W12
//  #04 //062   ----------------------------------------
 BYTE   N12
 BYTE   W12
 BYTE   Cn2 v072
 BYTE   W12
 BYTE   As1 v084
 BYTE   W12
 BYTE   N24 Dn2 v096
 BYTE   W24
 BYTE   N12 As1 v076
 BYTE   W12
 BYTE   Cn2 v064
 BYTE   W12
 BYTE   N05 As1 v072
 BYTE   W12
//  #04 //063   ----------------------------------------
 BYTE   N12 As1 v084
 BYTE   W12
 BYTE   Cn2 v048
 BYTE   W12
 BYTE   As1 v092
 BYTE   W12
 BYTE   N24 Dn2 v080
 BYTE   W24
 BYTE   N12 As1 v076
 BYTE   W12
 BYTE   Cn2 v068
 BYTE   W12
 BYTE   N05 As1 v092
 BYTE   W12
//  #04 //064   ----------------------------------------
 BYTE   N12 Gn1 v080
 BYTE   W12
 BYTE   An1 v068
 BYTE   W12
 BYTE   Gn1 v084
 BYTE   W12
 BYTE   N24 As1 v088
 BYTE   W24
 BYTE   N12 Gn1 v064
 BYTE   W12
 BYTE   An1 v068
 BYTE   W12
 BYTE   N08 Gn1
 BYTE   W12
//  #04 //065   ----------------------------------------
 BYTE   N12 Gn1 v084
 BYTE   W12
 BYTE   An1 v060
 BYTE   W12
 BYTE   Gn1 v080
 BYTE   W12
 BYTE   N24 As1
 BYTE   W24
 BYTE   N12 Gn1 v072
 BYTE   W12
 BYTE   An1 v068
 BYTE   W12
 BYTE   N08 Gn1 v064
 BYTE   W12
//  #04 //066   ----------------------------------------
 BYTE   N12 Gn1 v088
 BYTE   W12
 BYTE   An1 v068
 BYTE   W12
 BYTE   Gn1 v076
 BYTE   W12
 BYTE   N24 Dn2 v084
 BYTE   W24
 BYTE   N12 Gn1 v080
 BYTE   W12
 BYTE   An1 v088
 BYTE   W12
 BYTE   N08 Gn1 v064
 BYTE   W12
//  #04 //067   ----------------------------------------
 BYTE   N12 Gn1 v084
 BYTE   W12
 BYTE   An1 v060
 BYTE   W12
 BYTE   Gn1 v080
 BYTE   W12
 BYTE   N24 Dn2
 BYTE   W24
 BYTE   N12 Gn1 v052
 BYTE   W12
 BYTE   An1 v056
 BYTE   W12
 BYTE   N08 Gn1 v088
 BYTE   W12
//  #04 //068   ----------------------------------------
 BYTE   N12 Gn1 v084
 BYTE   W12
 BYTE   An1 v028
 BYTE   W12
 BYTE   Gn1 v084
 BYTE   W12
 BYTE   N24 As1 v088
 BYTE   W24
 BYTE   N12 Gn1 v068
 BYTE   W12
 BYTE   An1 v084
 BYTE   W12
 BYTE   N08 Gn1 v068
 BYTE   W12
//  #04 //069   ----------------------------------------
 BYTE   N12 Gn1 v076
 BYTE   W12
 BYTE   An1 v060
 BYTE   W12
 BYTE   Gn1 v076
 BYTE   W12
 BYTE   N24 As1 v092
 BYTE   W24
 BYTE   N12 Gn1 v072
 BYTE   W12
 BYTE   An1 v076
 BYTE   W12
 BYTE   N08 Gn1
 BYTE   W12
//  #04 //070   ----------------------------------------
 BYTE   N12 Gn1 v072
 BYTE   W12
 BYTE   An1 v080
 BYTE   W12
 BYTE   Gn1 v084
 BYTE   W12
 BYTE   N24 As1 v076
 BYTE   W24
 BYTE   N12 Gn1 v084
 BYTE   W12
 BYTE   An1 v072
 BYTE   W12
 BYTE   N08 Gn1 v068
 BYTE   W12
//  #04 //071   ----------------------------------------
 BYTE   N12 Gn1 v080
 BYTE   W12
 BYTE   An1 v064
 BYTE   W12
 BYTE   Gn1 v076
 BYTE   W12
 BYTE   N24 As1 v088
 BYTE   W24
 BYTE   N12 Gn1 v060
 BYTE   W12
 BYTE   An1 v064
 BYTE   W12
 BYTE   Gn1 v084
 BYTE   W12
//  #04 //072   ----------------------------------------
 BYTE   N06 As2 v100
 BYTE   W06
 BYTE   An2 v084
 BYTE   W06
 BYTE   Gn2 v100
 BYTE   W06
 BYTE   Dn2 v088
 BYTE   W06
 BYTE   N05 Fn2 v084
 BYTE   W05
 BYTE   Ds2
 BYTE   W06
 BYTE   N06 Dn2 v096
 BYTE   W07
 BYTE   Cn2 v084
 BYTE   W06
 BYTE   Gn2 v088
 BYTE   W06
 BYTE   Dn2 v084
 BYTE   W06
 BYTE   Cn2
 BYTE   W06
 BYTE   As1
 BYTE   W06
 BYTE   Dn2 v088
 BYTE   W06
 BYTE   Cn2 v084
 BYTE   W06
 BYTE   As1
 BYTE   W06
 BYTE   An1
 BYTE   W06
//  #04 //073   ----------------------------------------
 BYTE   Gn1 v104
 BYTE   W06
 BYTE   Dn1 v092
 BYTE   W06
 BYTE   Cn1 v088
 BYTE   W06
 BYTE   Dn1 v084
 BYTE   W06
 BYTE   Fn1 v092
 BYTE   W06
 BYTE   Ds1
 BYTE   W06
 BYTE   N05 Dn1 v096
 BYTE   W06
 BYTE   N06 Cn1
 BYTE   W06
 BYTE   Dn1 v088
 BYTE   W06
 BYTE   Cn1 v092
 BYTE   W06
 BYTE   Fn1 v088
 BYTE   W06
 BYTE   Ds1
 BYTE   W06
 BYTE   Dn1 v072
 BYTE   W06
 BYTE   Cn1 v076
 BYTE   W06
 BYTE   As0 v092
 BYTE   W06
 BYTE   An0
 BYTE   W06
//  #04 //074   ----------------------------------------
Label_010129AC:
 BYTE   N05 Gn1 v127
 BYTE   W24
 BYTE   N08
 BYTE   W24
 BYTE   N08
 BYTE   W24
 BYTE   N12
 BYTE   W12
 BYTE   N13 Dn1
 BYTE   W12
 BYTE   PEND 
//  #04 //075   ----------------------------------------
Label_010129BA:
 BYTE   N06 Gn1 v127
 BYTE   W24
 BYTE   N07
 BYTE   W24
 BYTE   N07
 BYTE   W24
 BYTE   N12
 BYTE   W12
 BYTE   Dn1
 BYTE   W12
 BYTE   PEND 
//  #04 //076   ----------------------------------------
 BYTE   PATT
  POIN2 Label_010129AC
//  #04 //077   ----------------------------------------
 BYTE   PATT
  POIN2 Label_010129BA
//  #04 //078   ----------------------------------------
 BYTE   PATT
  POIN2 Label_010129AC
//  #04 //079   ----------------------------------------
 BYTE   PATT
  POIN2 Label_010129BA
//  #04 //080   ----------------------------------------
 BYTE   PATT
  POIN2 Label_010129AC
//  #04 //081   ----------------------------------------
 BYTE   PATT
  POIN2 Label_010129BA
//  #04 //082   ----------------------------------------
 BYTE   N06 Ds1 v100
 BYTE   W24
 BYTE   N07 Ds1 v116
 BYTE   W24
 BYTE   Ds1 v112
 BYTE   W24
 BYTE   N12 Ds1 v116
 BYTE   W12
 BYTE   As0 v127
 BYTE   W12
//  #04 //083   ----------------------------------------
 BYTE   N07 Ds1 v112
 BYTE   W24
 BYTE   Ds1 v127
 BYTE   W24
 BYTE   N07
 BYTE   W24
 BYTE   N11
 BYTE   W12
 BYTE   N12 As0 v088
 BYTE   W12
//  #04 //084   ----------------------------------------
 BYTE   N06 Cn1 v100
 BYTE   W24
 BYTE   N07 Cn1 v116
 BYTE   W24
 BYTE   Cn1 v112
 BYTE   W24
 BYTE   N12 Cn1 v116
 BYTE   W24
//  #04 //085   ----------------------------------------
 BYTE   N07 Cn1 v112
 BYTE   W24
 BYTE   Cn1 v127
 BYTE   W24
 BYTE   N07
 BYTE   W24
 BYTE   N11
 BYTE   W12
 BYTE   N06 Gn0
 BYTE   W12
//  #04 //086   ----------------------------------------
 BYTE   N12 An0 v108
 BYTE   W24
 BYTE   N12
 BYTE   W24
 BYTE   N12
 BYTE   W24
 BYTE   N12
 BYTE   W12
 BYTE   Ds1 v056
 BYTE   W12
//  #04 //087   ----------------------------------------
 BYTE   An0 v108
 BYTE   W24
 BYTE   N12
 BYTE   W24
 BYTE   N12
 BYTE   W24
 BYTE   N12
 BYTE   W12
 BYTE   Ds1
 BYTE   W12
//  #04 //088   ----------------------------------------
Label_01012A3B:
 BYTE   N12 Dn1 v108
 BYTE   W24
 BYTE   N12
 BYTE   W24
 BYTE   N12
 BYTE   W24
 BYTE   N12
 BYTE   W12
 BYTE   An0 v056
 BYTE   W12
 BYTE   PEND 
//  #04 //089   ----------------------------------------
 BYTE   PATT
  POIN2 Label_01012A3B
//  #04 //090   ----------------------------------------
 BYTE   N06 As1 v072
 BYTE   W12
 BYTE   N04 Dn2 v064
 BYTE   W12
 BYTE   N05 Gn2 v072
 BYTE   W12
 BYTE   N03 Dn2 v084
 BYTE   W06
 BYTE   N06 Dn2 v092
 BYTE   W06
 BYTE   N07 As1
 BYTE   W12
 BYTE   N05 Dn2 v088
 BYTE   W12
 BYTE   N06 As2 v084
 BYTE   W12
 BYTE   N03 Dn2 v096
 BYTE   W06
 BYTE   N06 Dn2 v084
 BYTE   W06
//  #04 //091   ----------------------------------------
 BYTE   As1 v092
 BYTE   W12
 BYTE   N04 Dn2 v048
 BYTE   W12
 BYTE   N06 Gn2 v080
 BYTE   W12
 BYTE   N04 Dn2 v064
 BYTE   W06
 BYTE   N05 Dn2 v080
 BYTE   W06
 BYTE   N06 As1
 BYTE   W12
 BYTE   N04 Dn2 v084
 BYTE   W12
 BYTE   As2
 BYTE   W12
 BYTE   N03 Dn2 v080
 BYTE   W06
 BYTE   N04
 BYTE   W06
//  #04 //092   ----------------------------------------
 BYTE   N07 Cn2 v064
 BYTE   W12
 BYTE   N04 Ds2
 BYTE   W12
 BYTE   N05 Gn2 v072
 BYTE   W12
 BYTE   N03 Ds2 v084
 BYTE   W06
 BYTE   N06 Ds2 v076
 BYTE   W06
 BYTE   N07 Cn2 v088
 BYTE   W12
 BYTE   N05 Ds2 v096
 BYTE   W12
 BYTE   N06 Cn3 v084
 BYTE   W12
 BYTE   N03 Ds2 v080
 BYTE   W06
 BYTE   N04
 BYTE   W06
//  #04 //093   ----------------------------------------
 BYTE   N06 Cn2 v100
 BYTE   W12
 BYTE   N04 Ds2 v048
 BYTE   W12
 BYTE   N06 An2 v076
 BYTE   W12
 BYTE   N04 Ds2 v080
 BYTE   W06
 BYTE   N05 Ds2 v084
 BYTE   W06
 BYTE   N06 Cn2 v080
 BYTE   W12
 BYTE   N04 Ds2 v084
 BYTE   W12
 BYTE   An2 v080
 BYTE   W12
 BYTE   N03 Ds2 v076
 BYTE   W06
 BYTE   N04 Ds2 v080
 BYTE   W06
//  #04 //094   ----------------------------------------
 BYTE   N07 As1 v068
 BYTE   W12
 BYTE   N04 Dn2 v072
 BYTE   W12
 BYTE   N05 Gn2 v068
 BYTE   W12
 BYTE   N03 Dn2 v084
 BYTE   W06
 BYTE   N06 Dn2 v080
 BYTE   W06
 BYTE   N07 As1 v088
 BYTE   W12
 BYTE   N05 Dn2 v084
 BYTE   W12
 BYTE   N06 As2 v088
 BYTE   W12
 BYTE   N03 Dn2
 BYTE   W06
 BYTE   N06 Dn2 v080
 BYTE   W06
//  #04 //095   ----------------------------------------
 BYTE   As1 v088
 BYTE   W12
 BYTE   N04 Dn2 v052
 BYTE   W12
 BYTE   N06 Gn2 v080
 BYTE   W12
 BYTE   N04 Dn2 v072
 BYTE   W06
 BYTE   N05 Dn2 v080
 BYTE   W06
 BYTE   N06 As1 v076
 BYTE   W12
 BYTE   N04 Dn2 v080
 BYTE   W12
 BYTE   As2
 BYTE   W12
 BYTE   N03 Dn2 v072
 BYTE   W06
 BYTE   N04 Dn2 v084
 BYTE   W06
//  #04 //096   ----------------------------------------
 BYTE   N07 Cn2 v056
 BYTE   W12
 BYTE   N04 Ds2 v072
 BYTE   W12
 BYTE   N05 Gn2 v068
 BYTE   W12
 BYTE   N03 Ds2 v092
 BYTE   W06
 BYTE   N06 Ds2 v080
 BYTE   W06
 BYTE   N07 Cn2
 BYTE   W12
 BYTE   N05 Ds2 v088
 BYTE   W12
 BYTE   N06 Cn3 v092
 BYTE   W12
 BYTE   N03 Ds2 v088
 BYTE   W06
 BYTE   N04 Ds2 v084
 BYTE   W06
//  #04 //097   ----------------------------------------
 BYTE   N06 Cn2 v088
 BYTE   W12
 BYTE   N04 Ds2 v048
 BYTE   W12
 BYTE   N06 An2 v084
 BYTE   W12
 BYTE   N04 Ds2 v072
 BYTE   W06
 BYTE   N05 Ds2 v076
 BYTE   W06
 BYTE   N06 Cn2 v088
 BYTE   W12
 BYTE   N04 Ds2 v076
 BYTE   W12
 BYTE   An2 v080
 BYTE   W12
 BYTE   N03 Ds2 v072
 BYTE   W06
 BYTE   N04 Ds2 v080
 BYTE   W06
//  #04 //098   ----------------------------------------
 BYTE   N07 As1 v068
 BYTE   W12
 BYTE   N04 Dn2
 BYTE   W12
 BYTE   N05 Gn2 v080
 BYTE   W12
 BYTE   N03 Dn2
 BYTE   W06
 BYTE   N06 Dn2 v084
 BYTE   W06
 BYTE   N07 As1 v088
 BYTE   W12
 BYTE   N05 Dn2 v092
 BYTE   W12
 BYTE   N06 As2 v080
 BYTE   W12
 BYTE   N03 Dn2 v092
 BYTE   W06
 BYTE   N06 Dn2 v080
 BYTE   W06
//  #04 //099   ----------------------------------------
 BYTE   As1 v088
 BYTE   W12
 BYTE   N04 Dn2 v048
 BYTE   W12
 BYTE   N06 Gn2 v084
 BYTE   W12
 BYTE   N04 Dn2 v072
 BYTE   W06
 BYTE   N05 Dn2 v084
 BYTE   W06
 BYTE   N06 As1 v076
 BYTE   W12
 BYTE   N04 Dn2 v080
 BYTE   W12
 BYTE   As2 v088
 BYTE   W12
 BYTE   N03 Dn2 v084
 BYTE   W06
 BYTE   N04 Dn2 v080
 BYTE   W06
//  #04 //100   ----------------------------------------
 BYTE   N07 Cn2 v060
 BYTE   W12
 BYTE   N04 Ds2 v072
 BYTE   W12
 BYTE   N05 Gn2 v076
 BYTE   W12
 BYTE   N03 Ds2
 BYTE   W06
 BYTE   N06 Ds2 v072
 BYTE   W06
 BYTE   N07 Cn2 v084
 BYTE   W12
 BYTE   N05 Ds2 v092
 BYTE   W12
 BYTE   N06 Cn3 v088
 BYTE   W12
 BYTE   N03 Ds2 v092
 BYTE   W06
 BYTE   N04 Ds2 v076
 BYTE   W06
//  #04 //101   ----------------------------------------
 BYTE   N06 Cn2 v092
 BYTE   W12
 BYTE   N04 Ds2 v048
 BYTE   W12
 BYTE   N06 An2 v084
 BYTE   W12
 BYTE   N04 Ds2 v076
 BYTE   W06
 BYTE   N05 Ds2 v088
 BYTE   W06
 BYTE   N06 Cn2 v080
 BYTE   W12
 BYTE   N04 Ds2 v076
 BYTE   W12
 BYTE   An2 v084
 BYTE   W12
 BYTE   N03 Ds2 v072
 BYTE   W06
 BYTE   N04 Ds2 v080
 BYTE   W06
//  #04 //102   ----------------------------------------
 BYTE   N16 Gn2 v088
 BYTE   W16
 BYTE   Fn2 v096
 BYTE   W16
 BYTE   Ds2 v084
 BYTE   W16
 BYTE   Dn2 v064
 BYTE   W16
 BYTE   Cn2 v084
 BYTE   W16
 BYTE   As1 v072
 BYTE   W16
//  #04 //103   ----------------------------------------
 BYTE   An1 v080
 BYTE   W16
 BYTE   Gn1 v084
 BYTE   W16
 BYTE   Fn1 v072
 BYTE   W16
 BYTE   Ds1 v080
 BYTE   W16
 BYTE   Dn1
 BYTE   W16
 BYTE   Cn1 v068
 BYTE   W16
//  #04 //104   ----------------------------------------
 BYTE   Gn1 v084
 BYTE   W16
 BYTE   Fn1 v080
 BYTE   W16
 BYTE   Ds1 v060
 BYTE   W16
 BYTE   Dn1 v084
 BYTE   W16
 BYTE   Cn1 v076
 BYTE   W16
 BYTE   As0
 BYTE   W16
//  #04 //105   ----------------------------------------
 BYTE   An1 v092
 BYTE   W16
 BYTE   Gn1
 BYTE   W16
 BYTE   Fn1 v084
 BYTE   W16
 BYTE   Ds2 v088
 BYTE   W16
 BYTE   Dn2 v072
 BYTE   W16
 BYTE   Cn2 v084
 BYTE   W16
//  #04 //106   ----------------------------------------
 BYTE   N12 Dn2 v100
 BYTE   W12
 BYTE   N03 An1 v036
 BYTE   W12
 BYTE   N04 An1 v032
 BYTE   W12
 BYTE   An1 v040
 BYTE   W12
 BYTE   An1 v048
 BYTE   W12
 BYTE   N04
 BYTE   W12
 BYTE   An1 v052
 BYTE   W12
 BYTE   An1 v056
 BYTE   W12
//  #04 //107   ----------------------------------------
 BYTE   As1 v104
 BYTE   W12
 BYTE   As1 v088
 BYTE   W12
 BYTE   N05 As1 v104
 BYTE   W12
 BYTE   N04 As1 v092
 BYTE   W12
 BYTE   As1 v104
 BYTE   W12
 BYTE   As1 v088
 BYTE   W12
 BYTE   N05
 BYTE   W12
 BYTE   N06 As1 v072
 BYTE   W12
//  #04 //108   ----------------------------------------
 BYTE   N04 Cn2
 BYTE   W12
 BYTE   Cn2 v080
 BYTE   W12
 BYTE   N05 Cn2 v084
 BYTE   W12
 BYTE   N04 Cn2 v056
 BYTE   W12
 BYTE   N05 Cn2 v076
 BYTE   W12
 BYTE   N04 Cn2 v056
 BYTE   W12
 BYTE   Cn2 v084
 BYTE   W12
 BYTE   Cn2 v064
 BYTE   W12
//  #04 //109   ----------------------------------------
 BYTE   N05 Dn2 v080
 BYTE   W12
 BYTE   N04
 BYTE   W12
 BYTE   N06 Dn2 v076
 BYTE   W12
 BYTE   N05 Dn2 v080
 BYTE   W12
 BYTE   N04 Dn2 v068
 BYTE   W12
 BYTE   Dn2 v072
 BYTE   W12
 BYTE   Dn2 v080
 BYTE   W12
 BYTE   Dn2 v056
 BYTE   W12
//  #04 //110   ----------------------------------------
 BYTE   N05 Fs2 v108
 BYTE   W12
 BYTE   N04 Fs2 v092
 BYTE   W12
 BYTE   N05 Fs2 v088
 BYTE   W12
 BYTE   N04 Fs2 v068
 BYTE   W12
 BYTE   Fs2 v120
 BYTE   W12
 BYTE   Fs2 v108
 BYTE   W12
 BYTE   Fs2 v104
 BYTE   W12
 BYTE   N03 Fs2 v108
 BYTE   W12
//  #04 //111   ----------------------------------------
 BYTE   GoTo
  POIN2 Label_010123F6
//  #04 //112   ----------------------------------------
 BYTE   N12 En1 v080
 BYTE   W12
 BYTE   Fs1 v072
 BYTE   W12
 BYTE   En1 v084
 BYTE   W12
 BYTE   N24 Gn1 v092
 BYTE   W24
 BYTE   N12 En1 v068
 BYTE   W12
 BYTE   Fs1 v084
 BYTE   W12
 BYTE   N07 En1 v064
 BYTE   W12
//  #04 //113   ----------------------------------------
 BYTE   N12 En1 v084
 BYTE   W12
 BYTE   Fs1 v056
 BYTE   W12
 BYTE   En1 v072
 BYTE   W12
 BYTE   N24 Gn1 v084
 BYTE   W24
 BYTE   N12 En1 v068
 BYTE   W12
 BYTE   Fs1 v072
 BYTE   W12
 BYTE   N07 En1 v068
 BYTE   W12
//  #04 //114   ----------------------------------------
 BYTE   N12 En1 v080
 BYTE   W12
 BYTE   Fs1 v060
 BYTE   W12
 BYTE   En1 v076
 BYTE   W12
 BYTE   N24 Gn1 v080
 BYTE   W24
 BYTE   N12 En1
 BYTE   W12
 BYTE   Fs1 v076
 BYTE   W12
 BYTE   N07 En1 v072
 BYTE   W12
//  #04 //115   ----------------------------------------
 BYTE   N12 En1 v092
 BYTE   W12
 BYTE   Fs1 v064
 BYTE   W12
 BYTE   En1 v072
 BYTE   W12
 BYTE   N24 Gn1 v092
 BYTE   W24
 BYTE   N12 En1 v056
 BYTE   W12
 BYTE   Fs1 v068
 BYTE   W12
 BYTE   N07 En1 v076
 BYTE   W12
//  #04 //116   ----------------------------------------
 BYTE   N09 En1 v108
 BYTE   W24
 BYTE   N06 Bn0 v100
 BYTE   W12
 BYTE   N04
 BYTE   W06
 BYTE   Bn0 v096
 BYTE   W06
 BYTE   N12 En1 v112
 BYTE   W12
 BYTE   FINE

//**************** Track 5 (Midi-Chn.4) ****************//

song03DA_005:
//  #05 //000   ----------------------------------------
 BYTE   KEYSH  song03DA_key+0
 BYTE   VOICE  39
 BYTE   MODT 0
 BYTE   LFOS 44
 BYTE   PAN  c_v+10
 BYTE   VOL  82*song03DA_mvl/mxv
 BYTE   W72
 BYTE   N22 Bn1 v104
 BYTE   W24
//  #05 //001   ----------------------------------------
Label_0100BF3D:
 BYTE   N05 En2 v104
 BYTE   W24
 BYTE   N08 En2 v096
 BYTE   W24
 BYTE   N08
 BYTE   W24
 BYTE   N12 En2 v092
 BYTE   W12
 BYTE   N13 Bn1
 BYTE   W12
 BYTE   PEND 
//  #05 //002   ----------------------------------------
Label_0100BF4F:
 BYTE   N06 En2 v096
 BYTE   W24
 BYTE   N07 En2 v108
 BYTE   W24
 BYTE   En2 v096
 BYTE   W24
 BYTE   N12 En2 v088
 BYTE   W12
 BYTE   Bn1 v092
 BYTE   W12
 BYTE   PEND 
//  #05 //003   ----------------------------------------
 BYTE   N07 Cn2 v080
 BYTE   W24
 BYTE   N09 Cn2 v084
 BYTE   W24
 BYTE   N07
 BYTE   W24
 BYTE   N12
 BYTE   W12
 BYTE   Gn1 v096
 BYTE   W12
//  #05 //004   ----------------------------------------
 BYTE   N08 Cn2 v084
 BYTE   W24
 BYTE   N10 Cn2 v080
 BYTE   W24
 BYTE   N09 Cn2 v084
 BYTE   W24
 BYTE   N13 Cn2 v088
 BYTE   W24
//  #05 //005   ----------------------------------------
 BYTE   N11 En2 v100
 BYTE   W24
 BYTE   N09
 BYTE   W24
 BYTE   N06 En2 v108
 BYTE   W24
 BYTE   N12 En2 v088
 BYTE   W12
 BYTE   Bn1 v092
 BYTE   W12
//  #05 //006   ----------------------------------------
 BYTE   En2 v088
 BYTE   W24
 BYTE   En2 v100
 BYTE   W24
 BYTE   En2 v092
 BYTE   W24
 BYTE   N12
 BYTE   W12
 BYTE   Bn1 v080
 BYTE   W12
//  #05 //007   ----------------------------------------
 BYTE   N07 Cn2
 BYTE   W24
 BYTE   N08 Cn2 v092
 BYTE   W24
 BYTE   Cn2 v080
 BYTE   W24
 BYTE   N14 Cn2 v076
 BYTE   W12
 BYTE   N12 Gn1 v092
 BYTE   W12
//  #05 //008   ----------------------------------------
 BYTE   N07 Cn2 v064
 BYTE   W24
 BYTE   N07
 BYTE   W24
 BYTE   Cn2 v084
 BYTE   W24
 BYTE   N11 Cn2 v088
 BYTE   W24
//  #05 //009   ----------------------------------------
 BYTE   En2 v080
 BYTE   W24
 BYTE   N10 En2 v088
 BYTE   W24
 BYTE   N08
 BYTE   W24
 BYTE   N14
 BYTE   W12
 BYTE   N12 Bn1
 BYTE   W12
//  #05 //010   ----------------------------------------
 BYTE   N06 En2
 BYTE   W24
 BYTE   N07 En2 v092
 BYTE   W24
 BYTE   En2 v088
 BYTE   W24
 BYTE   N12 En2 v072
 BYTE   W12
 BYTE   Bn1 v080
 BYTE   W12
//  #05 //011   ----------------------------------------
 BYTE   N07 Cn2 v072
 BYTE   W24
 BYTE   N08 Cn2 v076
 BYTE   W24
 BYTE   N08
 BYTE   W24
 BYTE   N12 Cn2 v072
 BYTE   W12
 BYTE   Gn1 v088
 BYTE   W12
//  #05 //012   ----------------------------------------
 BYTE   N07 Cn2 v080
 BYTE   W24
 BYTE   N08 Cn2 v084
 BYTE   W24
 BYTE   N07 Cn2 v092
 BYTE   W24
 BYTE   N10
 BYTE   W12
 BYTE   N12 Gn1
 BYTE   W12
//  #05 //013   ----------------------------------------
 BYTE   En2 v048
 BYTE   W24
 BYTE   N09 En2 v088
 BYTE   W24
 BYTE   N08 En2 v092
 BYTE   W24
 BYTE   N12 En2 v084
 BYTE   W12
 BYTE   Bn1 v080
 BYTE   W12
//  #05 //014   ----------------------------------------
 BYTE   N06 En2 v084
 BYTE   W24
 BYTE   N07 En2 v092
 BYTE   W24
 BYTE   N06 En2 v088
 BYTE   W24
 BYTE   N12
 BYTE   W12
 BYTE   Bn1
 BYTE   W12
//  #05 //015   ----------------------------------------
Label_0100C022:
 BYTE   N06 Cn2 v064
 BYTE   W24
 BYTE   N07 Cn2 v076
 BYTE   W24
 BYTE   N07
 BYTE   W24
 BYTE   N12
 BYTE   W12
 BYTE   Gn1 v092
 BYTE   W12
 BYTE   PEND 
//  #05 //016   ----------------------------------------
 BYTE   N07 Cn2 v072
 BYTE   W24
 BYTE   Cn2 v084
 BYTE   W24
 BYTE   Cn2 v088
 BYTE   W24
 BYTE   N11
 BYTE   W12
 BYTE   N06 Gn1
 BYTE   W12
//  #05 //017   ----------------------------------------
 BYTE   N18 En2
 BYTE   W96
//  #05 //018   ----------------------------------------
 BYTE   W72
 BYTE   N22 Bn1 v104
 BYTE   W24
//  #05 //019   ----------------------------------------
 BYTE   PATT
  POIN2 Label_0100BF3D
//  #05 //020   ----------------------------------------
 BYTE   PATT
  POIN2 Label_0100BF4F
//  #05 //021   ----------------------------------------
 BYTE   PATT
  POIN2 Label_0100BF3D
//  #05 //022   ----------------------------------------
 BYTE   PATT
  POIN2 Label_0100BF4F
//  #05 //023   ----------------------------------------
 BYTE   PATT
  POIN2 Label_0100BF3D
//  #05 //024   ----------------------------------------
 BYTE   PATT
  POIN2 Label_0100BF4F
//  #05 //025   ----------------------------------------
 BYTE   PATT
  POIN2 Label_0100BF3D
//  #05 //026   ----------------------------------------
 BYTE   PATT
  POIN2 Label_0100BF4F
//  #05 //027   ----------------------------------------
 BYTE   PATT
  POIN2 Label_0100C022
//  #05 //028   ----------------------------------------
 BYTE   N07 Cn2 v072
 BYTE   W24
 BYTE   Cn2 v084
 BYTE   W24
 BYTE   Cn2 v088
 BYTE   W24
 BYTE   N11
 BYTE   W12
 BYTE   N12 Gn1 v052
 BYTE   W12
//  #05 //029   ----------------------------------------
 BYTE   N06 An1 v064
 BYTE   W24
 BYTE   N07 An1 v076
 BYTE   W24
 BYTE   N07
 BYTE   W24
 BYTE   N12
 BYTE   W24
//  #05 //030   ----------------------------------------
 BYTE   N07 An1 v072
 BYTE   W24
 BYTE   An1 v084
 BYTE   W24
 BYTE   An1 v088
 BYTE   W24
 BYTE   N11
 BYTE   W12
 BYTE   N06 En1
 BYTE   W12
//  #05 //031   ----------------------------------------
 BYTE   N12 Fs1 v068
 BYTE   W24
 BYTE   N12
 BYTE   W24
 BYTE   N12
 BYTE   W24
 BYTE   N12
 BYTE   W12
 BYTE   Cn2 v028
 BYTE   W12
//  #05 //032   ----------------------------------------
 BYTE   Fs1 v068
 BYTE   W24
 BYTE   N12
 BYTE   W24
 BYTE   N12
 BYTE   W24
 BYTE   N12
 BYTE   W12
 BYTE   Cn2
 BYTE   W12
//  #05 //033   ----------------------------------------
Label_0100C0B9:
 BYTE   N12 Bn1 v068
 BYTE   W24
 BYTE   N12
 BYTE   W24
 BYTE   N12
 BYTE   W24
 BYTE   N12
 BYTE   W12
 BYTE   Fs1 v028
 BYTE   W12
 BYTE   PEND 
//  #05 //034   ----------------------------------------
 BYTE   PATT
  POIN2 Label_0100C0B9
//  #05 //035   ----------------------------------------
Label_0100C0CC:
 BYTE   N07 En2 v088
 BYTE   W24
 BYTE   N08 En2 v084
 BYTE   W24
 BYTE   En2 v076
 BYTE   W24
 BYTE   N12 En2 v080
 BYTE   W12
 BYTE   Bn1 v056
 BYTE   W12
 BYTE   PEND 
//  #05 //036   ----------------------------------------
Label_0100C0DF:
 BYTE   N10 Cs2 v092
 BYTE   W24
 BYTE   N07 Cs2 v096
 BYTE   W24
 BYTE   N11 Cs2 v064
 BYTE   W24
 BYTE   N12 Cs2 v080
 BYTE   W12
 BYTE   Gn1 v100
 BYTE   W12
 BYTE   PEND 
//  #05 //037   ----------------------------------------
Label_0100C0F3:
 BYTE   N07 Fs1 v088
 BYTE   W24
 BYTE   N08 Fs1 v084
 BYTE   W24
 BYTE   N07 Fs1 v088
 BYTE   W24
 BYTE   N12 Fs1 v084
 BYTE   W12
 BYTE   Cn2 v072
 BYTE   W12
 BYTE   PEND 
//  #05 //038   ----------------------------------------
 BYTE   N10 Bn1 v092
 BYTE   W24
 BYTE   N09 Bn1 v088
 BYTE   W24
 BYTE   N10
 BYTE   W24
 BYTE   N12
 BYTE   W12
 BYTE   Fs2 v076
 BYTE   W12
//  #05 //039   ----------------------------------------
 BYTE   PATT
  POIN2 Label_0100C0CC
//  #05 //040   ----------------------------------------
 BYTE   PATT
  POIN2 Label_0100C0DF
//  #05 //041   ----------------------------------------
 BYTE   PATT
  POIN2 Label_0100C0F3
//  #05 //042   ----------------------------------------
 BYTE   N10 Bn1 v092
 BYTE   W24
 BYTE   N09 Bn1 v088
 BYTE   W24
 BYTE   N10
 BYTE   W24
 BYTE   N07
 BYTE   W12
 BYTE   N12 Bn1 v060
 BYTE   W12
//  #05 //043   ----------------------------------------
 BYTE   PATT
  POIN2 Label_0100C0CC
//  #05 //044   ----------------------------------------
 BYTE   PATT
  POIN2 Label_0100C0DF
//  #05 //045   ----------------------------------------
 BYTE   PATT
  POIN2 Label_0100C0F3
//  #05 //046   ----------------------------------------
 BYTE   N10 Bn1 v092
 BYTE   W24
 BYTE   N09 Bn1 v088
 BYTE   W24
 BYTE   N10
 BYTE   W24
 BYTE   N09
 BYTE   W12
 BYTE   N12 Bn1 v076
 BYTE   W12
//  #05 //047   ----------------------------------------
 BYTE   N24 En2 v088
 BYTE   W96
//  #05 //048   ----------------------------------------
 BYTE   W96
//  #05 //049   ----------------------------------------
 BYTE   N24
 BYTE   W96
//  #05 //050   ----------------------------------------
 BYTE   W72
 BYTE   N08 Bn1
 BYTE   W12
 BYTE   N04
 BYTE   W06
 BYTE   N04
 BYTE   W06
//  #05 //051   ----------------------------------------
 BYTE   N18 Bn1 v092
 BYTE   W24
 BYTE   N18
 BYTE   W48
 BYTE   N18
 BYTE   W24
//  #05 //052   ----------------------------------------
 BYTE   W24
 BYTE   Bn1 v100
 BYTE   W48
 BYTE   N18
 BYTE   W24
//  #05 //053   ----------------------------------------
 BYTE   W24
 BYTE   Bn1 v108
 BYTE   W48
 BYTE   N18
 BYTE   W24
//  #05 //054   ----------------------------------------
 BYTE   W24
 BYTE   Bn1 v112
 BYTE   W48
 BYTE   N18
 BYTE   W24
//  #05 //055   ----------------------------------------
 BYTE   W24
 BYTE   Bn1 v120
 BYTE   W24
 BYTE   N12
 BYTE   W24
 BYTE   N18
 BYTE   W24
//  #05 //056   ----------------------------------------
 BYTE   N16 Gn1 v072
 BYTE   W24
 BYTE   N08 Gn1 v080
 BYTE   W24
 BYTE   N10 Gn1 v052
 BYTE   W24
 BYTE   N11 Gn1 v020
 BYTE   W12
 BYTE   N12 Dn1 v032
 BYTE   W12
//  #05 //057   ----------------------------------------
 BYTE   N09 Gn1 v052
 BYTE   W24
 BYTE   N07 Gn1 v044
 BYTE   W24
 BYTE   N10 Gn1 v032
 BYTE   W24
 BYTE   N12 Gn1 v020
 BYTE   W12
 BYTE   Dn1 v040
 BYTE   W12
//  #05 //058   ----------------------------------------
Label_0100C1AC:
 BYTE   N09 Ds1 v040
 BYTE   W24
 BYTE   N11
 BYTE   W24
 BYTE   N10 Ds1 v056
 BYTE   W24
 BYTE   N12 Ds1 v060
 BYTE   W12
 BYTE   As0 v048
 BYTE   W12
 BYTE   PEND 
//  #05 //059   ----------------------------------------
 BYTE   N08 Ds1 v072
 BYTE   W24
 BYTE   N09 Ds1 v060
 BYTE   W24
 BYTE   N07 Ds1 v068
 BYTE   W24
 BYTE   N15 Ds1 v052
 BYTE   W12
 BYTE   N13 As0 v068
 BYTE   W12
//  #05 //060   ----------------------------------------
 BYTE   N09 Gn1 v072
 BYTE   W24
 BYTE   N07 Gn1 v048
 BYTE   W24
 BYTE   N08 Gn1 v056
 BYTE   W24
 BYTE   N12 Gn1 v064
 BYTE   W12
 BYTE   N10 Dn1 v016
 BYTE   W12
//  #05 //061   ----------------------------------------
 BYTE   N09 Gn1 v040
 BYTE   W24
 BYTE   N08 Gn1 v056
 BYTE   W24
 BYTE   N08
 BYTE   W24
 BYTE   N12 Gn1 v036
 BYTE   W12
 BYTE   Dn1 v016
 BYTE   W12
//  #05 //062   ----------------------------------------
 BYTE   N07 Ds1 v020
 BYTE   W24
 BYTE   N10 Ds1 v048
 BYTE   W24
 BYTE   N09 Ds1 v060
 BYTE   W24
 BYTE   N10 Ds1 v068
 BYTE   W12
 BYTE   N13 As0 v048
 BYTE   W12
//  #05 //063   ----------------------------------------
 BYTE   N08 Ds1 v072
 BYTE   W24
 BYTE   Ds1 v052
 BYTE   W24
 BYTE   N09 Ds1 v028
 BYTE   W24
 BYTE   N13 Ds1 v060
 BYTE   W12
 BYTE   N08 As0 v044
 BYTE   W12
//  #05 //064   ----------------------------------------
 BYTE   N12 Gn1 v040
 BYTE   W24
 BYTE   N09
 BYTE   W24
 BYTE   N10 Gn1 v032
 BYTE   W24
 BYTE   N14 Gn1 v060
 BYTE   W12
 BYTE   N11 Dn1 v044
 BYTE   W12
//  #05 //065   ----------------------------------------
 BYTE   N07 Gn1 v072
 BYTE   W24
 BYTE   N08 Gn1 v064
 BYTE   W24
 BYTE   Gn1 v060
 BYTE   W24
 BYTE   N12 Gn1 v036
 BYTE   W12
 BYTE   N11 Dn1 v044
 BYTE   W12
//  #05 //066   ----------------------------------------
 BYTE   N10 Ds1 v056
 BYTE   W24
 BYTE   N08 Ds1 v052
 BYTE   W24
 BYTE   N09 Ds1 v056
 BYTE   W24
 BYTE   N12
 BYTE   W12
 BYTE   N13 As0 v052
 BYTE   W12
//  #05 //067   ----------------------------------------
 BYTE   N09 Ds1 v072
 BYTE   W24
 BYTE   Ds1 v048
 BYTE   W24
 BYTE   Ds1 v064
 BYTE   W24
 BYTE   N12
 BYTE   W12
 BYTE   Dn1 v012
 BYTE   W12
//  #05 //068   ----------------------------------------
 BYTE   N09 Gn1 v056
 BYTE   W24
 BYTE   N07 Gn1 v040
 BYTE   W24
 BYTE   N08
 BYTE   W24
 BYTE   N14 Gn1 v056
 BYTE   W12
 BYTE   N12 Dn1 v072
 BYTE   W12
//  #05 //069   ----------------------------------------
 BYTE   N06 Gn1 v080
 BYTE   W24
 BYTE   N08 Gn1 v040
 BYTE   W24
 BYTE   N09 Gn1 v036
 BYTE   W24
 BYTE   N12 Gn1 v040
 BYTE   W12
 BYTE   Dn1
 BYTE   W12
//  #05 //070   ----------------------------------------
 BYTE   N09 Ds1 v068
 BYTE   W24
 BYTE   N08 Ds1 v064
 BYTE   W24
 BYTE   N07
 BYTE   W24
 BYTE   N12 Ds1 v076
 BYTE   W12
 BYTE   N13 As0 v052
 BYTE   W12
//  #05 //071   ----------------------------------------
 BYTE   N09 Ds1 v068
 BYTE   W24
 BYTE   N07 Ds1 v072
 BYTE   W24
 BYTE   N08 Ds1 v068
 BYTE   W24
 BYTE   N12
 BYTE   W12
 BYTE   N10 Dn1 v076
 BYTE   W12
//  #05 //072   ----------------------------------------
 BYTE   Gn1 v048
 BYTE   W96
//  #05 //073   ----------------------------------------
 BYTE   W72
 BYTE   N24 Dn1 v080
 BYTE   W24
//  #05 //074   ----------------------------------------
 BYTE   N16 Gn1 v072
 BYTE   W24
 BYTE   N08 Gn1 v080
 BYTE   W24
 BYTE   N10 Gn1 v052
 BYTE   W24
 BYTE   N11 Gn1 v060
 BYTE   W12
 BYTE   N12 Dn1 v032
 BYTE   W12
//  #05 //075   ----------------------------------------
 BYTE   N09 Gn1 v052
 BYTE   W24
 BYTE   N07 Gn1 v044
 BYTE   W24
 BYTE   N10 Gn1 v040
 BYTE   W24
 BYTE   N12 Gn1 v048
 BYTE   W12
 BYTE   Dn1 v040
 BYTE   W12
//  #05 //076   ----------------------------------------
Label_0100C2DB:
 BYTE   N16 Gn1 v072
 BYTE   W24
 BYTE   N08 Gn1 v060
 BYTE   W24
 BYTE   N10 Gn1 v052
 BYTE   W24
 BYTE   N11 Gn1 v060
 BYTE   W12
 BYTE   N12 Dn1 v032
 BYTE   W12
 BYTE   PEND 
//  #05 //077   ----------------------------------------
Label_0100C2F0:
 BYTE   N09 Gn1 v052
 BYTE   W24
 BYTE   N07 Gn1 v044
 BYTE   W24
 BYTE   N10 Gn1 v032
 BYTE   W24
 BYTE   N12 Gn1 v048
 BYTE   W12
 BYTE   Dn1 v040
 BYTE   W12
 BYTE   PEND 
//  #05 //078   ----------------------------------------
 BYTE   PATT
  POIN2 Label_0100C2DB
//  #05 //079   ----------------------------------------
 BYTE   PATT
  POIN2 Label_0100C2F0
//  #05 //080   ----------------------------------------
 BYTE   N16 Gn1 v072
 BYTE   W24
 BYTE   N08 Gn1 v044
 BYTE   W24
 BYTE   N10 Gn1 v052
 BYTE   W24
 BYTE   N11 Gn1 v060
 BYTE   W12
 BYTE   N12 Dn1 v032
 BYTE   W12
//  #05 //081   ----------------------------------------
 BYTE   PATT
  POIN2 Label_0100C2F0
//  #05 //082   ----------------------------------------
 BYTE   PATT
  POIN2 Label_0100C1AC
//  #05 //083   ----------------------------------------
 BYTE   N09 Ds1 v076
 BYTE   W24
 BYTE   N11 Ds1 v032
 BYTE   W24
 BYTE   N10 Ds1 v048
 BYTE   W24
 BYTE   N12 Ds1 v052
 BYTE   W12
 BYTE   As0 v044
 BYTE   W12
//  #05 //084   ----------------------------------------
 BYTE   Cn1 v076
 BYTE   W24
 BYTE   N06 Cn1 v052
 BYTE   W24
 BYTE   N06
 BYTE   W24
 BYTE   Cn1 v048
 BYTE   W12
 BYTE   Gn0
 BYTE   W12
//  #05 //085   ----------------------------------------
 BYTE   N12 Cn1 v076
 BYTE   W24
 BYTE   N06 Cn1 v052
 BYTE   W24
 BYTE   N06
 BYTE   W24
 BYTE   Cn1 v048
 BYTE   W24
//  #05 //086   ----------------------------------------
Label_0100C35A:
 BYTE   N06 An0 v056
 BYTE   W24
 BYTE   N06
 BYTE   W24
 BYTE   N06
 BYTE   W24
 BYTE   N06
 BYTE   W24
 BYTE   PEND 
//  #05 //087   ----------------------------------------
 BYTE   PATT
  POIN2 Label_0100C35A
//  #05 //088   ----------------------------------------
 BYTE   N12 Dn1 v056
 BYTE   W24
 BYTE   N12
 BYTE   W24
 BYTE   N12
 BYTE   W24
 BYTE   N12
 BYTE   W12
 BYTE   An0
 BYTE   W12
//  #05 //089   ----------------------------------------
 BYTE   Dn1
 BYTE   W24
 BYTE   N12
 BYTE   W24
 BYTE   N12
 BYTE   W24
 BYTE   N12
 BYTE   W12
 BYTE   An0 v032
 BYTE   W12
//  #05 //090   ----------------------------------------
Label_0100C381:
 BYTE   N09 Gn1 v108
 BYTE   W24
 BYTE   N08 Gn1 v100
 BYTE   W24
 BYTE   Gn1 v096
 BYTE   W24
 BYTE   Gn1 v100
 BYTE   W12
 BYTE   Dn1 v108
 BYTE   W12
 BYTE   PEND 
//  #05 //091   ----------------------------------------
Label_0100C393:
 BYTE   N06 En1 v096
 BYTE   W24
 BYTE   En1 v080
 BYTE   W24
 BYTE   N07 En1 v096
 BYTE   W24
 BYTE   N08 En1 v088
 BYTE   W12
 BYTE   As0 v084
 BYTE   W12
 BYTE   PEND 
//  #05 //092   ----------------------------------------
Label_0100C3A6:
 BYTE   N08 An0 v084
 BYTE   W24
 BYTE   An0 v092
 BYTE   W24
 BYTE   N09 An0 v084
 BYTE   W24
 BYTE   N08 An0 v088
 BYTE   W12
 BYTE   Ds1 v080
 BYTE   W12
 BYTE   PEND 
//  #05 //093   ----------------------------------------
 BYTE   Dn1
 BYTE   W24
 BYTE   N07 Dn1 v096
 BYTE   W24
 BYTE   N08 Dn1 v092
 BYTE   W24
 BYTE   N09 Dn1 v096
 BYTE   W12
 BYTE   N11 Dn1 v048
 BYTE   W12
//  #05 //094   ----------------------------------------
 BYTE   N09 Gn1 v080
 BYTE   W24
 BYTE   Gn1 v088
 BYTE   W24
 BYTE   N08 Gn1 v092
 BYTE   W24
 BYTE   N09 Gn1 v096
 BYTE   W12
 BYTE   N07 Dn1 v100
 BYTE   W12
//  #05 //095   ----------------------------------------
 BYTE   En1 v092
 BYTE   W24
 BYTE   En1 v088
 BYTE   W24
 BYTE   En1 v092
 BYTE   W24
 BYTE   N08 En1 v088
 BYTE   W12
 BYTE   As0 v072
 BYTE   W12
//  #05 //096   ----------------------------------------
 BYTE   N06 An0 v080
 BYTE   W24
 BYTE   N10 An0 v088
 BYTE   W24
 BYTE   N09
 BYTE   W24
 BYTE   N11 An0 v092
 BYTE   W12
 BYTE   N10 Ds1 v088
 BYTE   W12
//  #05 //097   ----------------------------------------
 BYTE   N07 Dn1 v096
 BYTE   W24
 BYTE   Dn1 v092
 BYTE   W24
 BYTE   N08 Dn1 v096
 BYTE   W24
 BYTE   N06 Dn1 v100
 BYTE   W12
 BYTE   N12 Dn1 v072
 BYTE   W12
//  #05 //098   ----------------------------------------
 BYTE   PATT
  POIN2 Label_0100C381
//  #05 //099   ----------------------------------------
 BYTE   PATT
  POIN2 Label_0100C393
//  #05 //100   ----------------------------------------
 BYTE   PATT
  POIN2 Label_0100C3A6
//  #05 //101   ----------------------------------------
 BYTE   N08 Dn1 v080
 BYTE   W24
 BYTE   N07 Dn1 v096
 BYTE   W24
 BYTE   N08 Dn1 v092
 BYTE   W24
 BYTE   N09 Dn1 v096
 BYTE   W12
 BYTE   N05 Dn1 v048
 BYTE   W06
 BYTE   N06
 BYTE   W06
//  #05 //102   ----------------------------------------
 BYTE   N24 Gn1 v104
 BYTE   W96
//  #05 //103   ----------------------------------------
 BYTE   W72
 BYTE   N09 Dn1 v096
 BYTE   W12
 BYTE   N05 Dn1 v048
 BYTE   W06
 BYTE   N06
 BYTE   W06
//  #05 //104   ----------------------------------------
 BYTE   N24 Gn1 v104
 BYTE   W96
//  #05 //105   ----------------------------------------
 BYTE   W72
 BYTE   N09 Dn1 v096
 BYTE   W12
 BYTE   N05 Dn1 v048
 BYTE   W06
 BYTE   N04
 BYTE   W06
//  #05 //106   ----------------------------------------
 BYTE   N20 Dn1 v100
 BYTE   W24
 BYTE   N18 Dn1 v092
 BYTE   W48
 BYTE   N18
 BYTE   W24
//  #05 //107   ----------------------------------------
 BYTE   W24
 BYTE   Dn1 v100
 BYTE   W48
 BYTE   N18
 BYTE   W24
//  #05 //108   ----------------------------------------
 BYTE   W24
 BYTE   Dn1 v108
 BYTE   W48
 BYTE   N18
 BYTE   W24
//  #05 //109   ----------------------------------------
 BYTE   W24
 BYTE   Dn1 v112
 BYTE   W48
 BYTE   N18
 BYTE   W24
//  #05 //110   ----------------------------------------
 BYTE   W24
 BYTE   Dn1 v120
 BYTE   W24
 BYTE   N12
 BYTE   W24
 BYTE   N18
 BYTE   W24
//  #05 //111   ----------------------------------------
 BYTE   GoTo
  POIN2 Label_0100BF3D
//  #05 //112   ----------------------------------------
 BYTE   N05 En1 v104
 BYTE   W24
 BYTE   N08 En1 v096
 BYTE   W24
 BYTE   N08
 BYTE   W24
 BYTE   N12 En1 v092
 BYTE   W12
 BYTE   N13 Bn0
 BYTE   W12
//  #05 //113   ----------------------------------------
 BYTE   N06 En1 v096
 BYTE   W24
 BYTE   N07 En1 v108
 BYTE   W24
 BYTE   En1 v096
 BYTE   W24
 BYTE   N12 En1 v088
 BYTE   W12
 BYTE   Bn0 v092
 BYTE   W12
//  #05 //114   ----------------------------------------
 BYTE   N07 Cn1 v080
 BYTE   W24
 BYTE   N09 Cn1 v084
 BYTE   W24
 BYTE   N07
 BYTE   W24
 BYTE   N12
 BYTE   W12
 BYTE   Gn0 v096
 BYTE   W12
//  #05 //115   ----------------------------------------
 BYTE   N08 Cn1 v084
 BYTE   W24
 BYTE   N10 Cn1 v080
 BYTE   W24
 BYTE   N09 Cn1 v084
 BYTE   W24
 BYTE   N13 Cn1 v088
 BYTE   W24
//  #05 //116   ----------------------------------------
 BYTE   N11 En1 v100
 BYTE   W24
 BYTE   N09 Bn0
 BYTE   W12
 BYTE   N02
 BYTE   W06
 BYTE   N02
 BYTE   W06
 BYTE   N06 En1 v108
 BYTE   W06
 BYTE   FINE

//**************** Track 6 (Midi-Chn.5) ****************//

song03DA_006:
//  #06 //000   ----------------------------------------
 BYTE   VOL  82*song03DA_mvl/mxv
 BYTE   KEYSH  song03DA_key+0
 BYTE   W96
//  #06 //001   ----------------------------------------
Label_010142AD:
 BYTE   W96
//  #06 //002   ----------------------------------------
 BYTE   W96
//  #06 //003   ----------------------------------------
 BYTE   W96
//  #06 //004   ----------------------------------------
 BYTE   W96
//  #06 //005   ----------------------------------------
 BYTE   W96
//  #06 //006   ----------------------------------------
 BYTE   W96
//  #06 //007   ----------------------------------------
 BYTE   W96
//  #06 //008   ----------------------------------------
 BYTE   W96
//  #06 //009   ----------------------------------------
 BYTE   W96
//  #06 //010   ----------------------------------------
 BYTE   W96
//  #06 //011   ----------------------------------------
 BYTE   W96
//  #06 //012   ----------------------------------------
 BYTE   W96
//  #06 //013   ----------------------------------------
 BYTE   W96
//  #06 //014   ----------------------------------------
 BYTE   W96
//  #06 //015   ----------------------------------------
 BYTE   W96
//  #06 //016   ----------------------------------------
 BYTE   W96
//  #06 //017   ----------------------------------------
 BYTE   W96
//  #06 //018   ----------------------------------------
 BYTE   W96
//  #06 //019   ----------------------------------------
 BYTE   W96
//  #06 //020   ----------------------------------------
 BYTE   W96
//  #06 //021   ----------------------------------------
 BYTE   W96
//  #06 //022   ----------------------------------------
 BYTE   W96
//  #06 //023   ----------------------------------------
 BYTE   W96
//  #06 //024   ----------------------------------------
 BYTE   W96
//  #06 //025   ----------------------------------------
 BYTE   W96
//  #06 //026   ----------------------------------------
 BYTE   W96
//  #06 //027   ----------------------------------------
 BYTE   W96
//  #06 //028   ----------------------------------------
 BYTE   W96
//  #06 //029   ----------------------------------------
 BYTE   W96
//  #06 //030   ----------------------------------------
 BYTE   W96
//  #06 //031   ----------------------------------------
 BYTE   W96
//  #06 //032   ----------------------------------------
 BYTE   W96
//  #06 //033   ----------------------------------------
 BYTE   W96
//  #06 //034   ----------------------------------------
 BYTE   W96
//  #06 //035   ----------------------------------------
 BYTE   N44 Bn3 v036
 BYTE   W48
 BYTE   Bn3 v028
 BYTE   W48
//  #06 //036   ----------------------------------------
 BYTE   N44
 BYTE   W48
 BYTE   W03
 BYTE   Bn3 v020
 BYTE   W44
 BYTE   W01
//  #06 //037   ----------------------------------------
 BYTE   W96
//  #06 //038   ----------------------------------------
 BYTE   W96
//  #06 //039   ----------------------------------------
 BYTE   W96
//  #06 //040   ----------------------------------------
 BYTE   W96
//  #06 //041   ----------------------------------------
 BYTE   W96
//  #06 //042   ----------------------------------------
 BYTE   W96
//  #06 //043   ----------------------------------------
 BYTE   W96
//  #06 //044   ----------------------------------------
 BYTE   W96
//  #06 //045   ----------------------------------------
 BYTE   W96
//  #06 //046   ----------------------------------------
 BYTE   W96
//  #06 //047   ----------------------------------------
 BYTE   W96
//  #06 //048   ----------------------------------------
 BYTE   W96
//  #06 //049   ----------------------------------------
 BYTE   W96
//  #06 //050   ----------------------------------------
 BYTE   W96
//  #06 //051   ----------------------------------------
 BYTE   W96
//  #06 //052   ----------------------------------------
 BYTE   W96
//  #06 //053   ----------------------------------------
 BYTE   W96
//  #06 //054   ----------------------------------------
 BYTE   W96
//  #06 //055   ----------------------------------------
 BYTE   W96
//  #06 //056   ----------------------------------------
 BYTE   W96
//  #06 //057   ----------------------------------------
 BYTE   W96
//  #06 //058   ----------------------------------------
 BYTE   W96
//  #06 //059   ----------------------------------------
 BYTE   W96
//  #06 //060   ----------------------------------------
 BYTE   W96
//  #06 //061   ----------------------------------------
 BYTE   W96
//  #06 //062   ----------------------------------------
 BYTE   W96
//  #06 //063   ----------------------------------------
 BYTE   W96
//  #06 //064   ----------------------------------------
 BYTE   W96
//  #06 //065   ----------------------------------------
 BYTE   W96
//  #06 //066   ----------------------------------------
 BYTE   W96
//  #06 //067   ----------------------------------------
 BYTE   W96
//  #06 //068   ----------------------------------------
 BYTE   W96
//  #06 //069   ----------------------------------------
 BYTE   W96
//  #06 //070   ----------------------------------------
 BYTE   W96
//  #06 //071   ----------------------------------------
 BYTE   W96
//  #06 //072   ----------------------------------------
 BYTE   W96
//  #06 //073   ----------------------------------------
 BYTE   W96
//  #06 //074   ----------------------------------------
 BYTE   W96
//  #06 //075   ----------------------------------------
 BYTE   W96
//  #06 //076   ----------------------------------------
 BYTE   W96
//  #06 //077   ----------------------------------------
 BYTE   W96
//  #06 //078   ----------------------------------------
 BYTE   W96
//  #06 //079   ----------------------------------------
 BYTE   W96
//  #06 //080   ----------------------------------------
 BYTE   W96
//  #06 //081   ----------------------------------------
 BYTE   W96
//  #06 //082   ----------------------------------------
 BYTE   W96
//  #06 //083   ----------------------------------------
 BYTE   W96
//  #06 //084   ----------------------------------------
 BYTE   W96
//  #06 //085   ----------------------------------------
 BYTE   W96
//  #06 //086   ----------------------------------------
 BYTE   W96
//  #06 //087   ----------------------------------------
 BYTE   W96
//  #06 //088   ----------------------------------------
 BYTE   W96
//  #06 //089   ----------------------------------------
 BYTE   W96
//  #06 //090   ----------------------------------------
 BYTE   W96
//  #06 //091   ----------------------------------------
 BYTE   W96
//  #06 //092   ----------------------------------------
 BYTE   W96
//  #06 //093   ----------------------------------------
 BYTE   W96
//  #06 //094   ----------------------------------------
 BYTE   W96
//  #06 //095   ----------------------------------------
 BYTE   W96
//  #06 //096   ----------------------------------------
 BYTE   W96
//  #06 //097   ----------------------------------------
 BYTE   W96
//  #06 //098   ----------------------------------------
 BYTE   W96
//  #06 //099   ----------------------------------------
 BYTE   W96
//  #06 //100   ----------------------------------------
 BYTE   W96
//  #06 //101   ----------------------------------------
 BYTE   W96
//  #06 //102   ----------------------------------------
 BYTE   W96
//  #06 //103   ----------------------------------------
 BYTE   W96
//  #06 //104   ----------------------------------------
 BYTE   W96
//  #06 //105   ----------------------------------------
 BYTE   W96
//  #06 //106   ----------------------------------------
 BYTE   W96
//  #06 //107   ----------------------------------------
 BYTE   W96
//  #06 //108   ----------------------------------------
 BYTE   W96
//  #06 //109   ----------------------------------------
 BYTE   W96
//  #06 //110   ----------------------------------------
 BYTE   W96
//  #06 //111   ----------------------------------------
 BYTE   GoTo
  POIN2 Label_010142AD
//  #06 //112   ----------------------------------------
 BYTE   W96
 BYTE   FINE

//**************** Track 7 (Midi-Chn.6) ****************//

song03DA_007:
//  #07 //000   ----------------------------------------
 BYTE   KEYSH  song03DA_key+0
 BYTE   VOICE  63
 BYTE   MODT 0
 BYTE   LFOS 44
 BYTE   W12
 BYTE   PAN  c_v+2
 BYTE   VOL  66*song03DA_mvl/mxv
 BYTE   W36
 BYTE   N48 Fs3 v116
 BYTE   W48
//  #07 //001   ----------------------------------------
Label_010139CE:
 BYTE   VOL  66*song03DA_mvl/mxv
 BYTE   N96 Gn3 v120
 BYTE   W18
 BYTE   VOL  62*song03DA_mvl/mxv
 BYTE   W03
 BYTE   VOL  56*song03DA_mvl/mxv
 BYTE   W03
 BYTE   VOL  49*song03DA_mvl/mxv
 BYTE   W03
 BYTE   VOL  42*song03DA_mvl/mxv
 BYTE   W03
 BYTE   VOL  38*song03DA_mvl/mxv
 BYTE   W03
 BYTE   VOL  34*song03DA_mvl/mxv
 BYTE   W03
 BYTE   VOL  28*song03DA_mvl/mxv
 BYTE   W03
 BYTE   VOL  22*song03DA_mvl/mxv
 BYTE   W03
 BYTE   VOL  17*song03DA_mvl/mxv
 BYTE   W03
 BYTE   VOL  12*song03DA_mvl/mxv
 BYTE   W03
 BYTE   VOL  8*song03DA_mvl/mxv
 BYTE   W03
 BYTE   VOL  3*song03DA_mvl/mxv
 BYTE   W03
 BYTE   VOL  1*song03DA_mvl/mxv
 BYTE   W03
 BYTE   VOL  0*song03DA_mvl/mxv
 BYTE   W03
 BYTE   VOL  0*song03DA_mvl/mxv
 BYTE   W03
 BYTE   VOL  0*song03DA_mvl/mxv
 BYTE   W03
 BYTE   VOL  0*song03DA_mvl/mxv
 BYTE   W03
 BYTE   VOL  0*song03DA_mvl/mxv
 BYTE   W03
 BYTE   VOL  0*song03DA_mvl/mxv
 BYTE   W03
 BYTE   VOL  0*song03DA_mvl/mxv
 BYTE   W03
 BYTE   VOL  0*song03DA_mvl/mxv
 BYTE   W03
 BYTE   VOL  0*song03DA_mvl/mxv
 BYTE   W03
 BYTE   VOL  0*song03DA_mvl/mxv
 BYTE   W12
//  #07 //002   ----------------------------------------
 BYTE   W06
 BYTE   VOL  68*song03DA_mvl/mxv
 BYTE   W90
//  #07 //003   ----------------------------------------
 BYTE   W96
//  #07 //004   ----------------------------------------
 BYTE   W96
//  #07 //005   ----------------------------------------
 BYTE   W96
//  #07 //006   ----------------------------------------
 BYTE   W96
//  #07 //007   ----------------------------------------
 BYTE   W96
//  #07 //008   ----------------------------------------
 BYTE   W96
//  #07 //009   ----------------------------------------
 BYTE   W96
//  #07 //010   ----------------------------------------
 BYTE   W96
//  #07 //011   ----------------------------------------
 BYTE   W96
//  #07 //012   ----------------------------------------
 BYTE   W96
//  #07 //013   ----------------------------------------
 BYTE   W96
//  #07 //014   ----------------------------------------
 BYTE   W96
//  #07 //015   ----------------------------------------
 BYTE   W96
//  #07 //016   ----------------------------------------
 BYTE   W96
//  #07 //017   ----------------------------------------
 BYTE   W96
//  #07 //018   ----------------------------------------
 BYTE   W96
//  #07 //019   ----------------------------------------
 BYTE   W24
 BYTE   N24 Gn3 v092
 BYTE   W24
 BYTE   An3 v096
 BYTE   W24
 BYTE   Bn3 v080
 BYTE   W24
//  #07 //020   ----------------------------------------
 BYTE   Fs4 v088
 BYTE   W24
 BYTE   En4
 BYTE   W24
 BYTE   Bn3 v080
 BYTE   W24
 BYTE   Gn3
 BYTE   W24
//  #07 //021   ----------------------------------------
 BYTE   N96 An3 v088
 BYTE   W96
//  #07 //022   ----------------------------------------
 BYTE   W96
//  #07 //023   ----------------------------------------
 BYTE   W24
 BYTE   N24 Fs3 v108
 BYTE   W24
 BYTE   An3 v100
 BYTE   W24
 BYTE   Ds4 v076
 BYTE   W24
//  #07 //024   ----------------------------------------
 BYTE   Fs4 v080
 BYTE   W24
 BYTE   Ds4 v092
 BYTE   W24
 BYTE   Cn4 v108
 BYTE   W24
 BYTE   An3 v088
 BYTE   W24
//  #07 //025   ----------------------------------------
 BYTE   N96 Bn3 v100
 BYTE   W96
//  #07 //026   ----------------------------------------
 BYTE   W96
//  #07 //027   ----------------------------------------
 BYTE   W24
 BYTE   N24 Gn3 v084
 BYTE   W24
 BYTE   Bn3 v100
 BYTE   W24
 BYTE   En4 v104
 BYTE   W24
//  #07 //028   ----------------------------------------
 BYTE   Gn4 v096
 BYTE   W24
 BYTE   Fs4
 BYTE   W24
 BYTE   En4
 BYTE   W24
 BYTE   Bn3 v068
 BYTE   W24
//  #07 //029   ----------------------------------------
 BYTE   W24
 BYTE   An3 v088
 BYTE   W24
 BYTE   En4 v108
 BYTE   W24
 BYTE   Gn4 v100
 BYTE   W24
//  #07 //030   ----------------------------------------
 BYTE   An4 v096
 BYTE   W24
 BYTE   Gn4 v092
 BYTE   W24
 BYTE   En4 v100
 BYTE   W24
 BYTE   Cn4 v112
 BYTE   W24
//  #07 //031   ----------------------------------------
 BYTE   W24
 BYTE   Cn4 v092
 BYTE   W24
 BYTE   En4 v104
 BYTE   W24
 BYTE   An4 v096
 BYTE   W24
//  #07 //032   ----------------------------------------
 BYTE   Bn4
 BYTE   W24
 BYTE   An4 v092
 BYTE   W24
 BYTE   En4 v104
 BYTE   W24
 BYTE   N36 Cn4 v088
 BYTE   W24
//  #07 //033   ----------------------------------------
 BYTE   W24
 BYTE   N24 An3
 BYTE   W24
 BYTE   Cn4 v092
 BYTE   W24
 BYTE   En4 v096
 BYTE   W24
//  #07 //034   ----------------------------------------
 BYTE   Fs4 v088
 BYTE   W24
 BYTE   Ds4 v092
 BYTE   W24
 BYTE   N44 Bn3 v104
 BYTE   W48
//  #07 //035   ----------------------------------------
 BYTE   W24
 BYTE   W03
 BYTE   VOL  67*song03DA_mvl/mxv
 BYTE   W21
 BYTE   VOL  66*song03DA_mvl/mxv
 BYTE   W06
 BYTE   VOL  65*song03DA_mvl/mxv
 BYTE   W03
 BYTE   VOL  64*song03DA_mvl/mxv
 BYTE   W03
 BYTE   VOL  64*song03DA_mvl/mxv
 BYTE   W03
 BYTE   VOL  63*song03DA_mvl/mxv
 BYTE   W03
 BYTE   VOL  61*song03DA_mvl/mxv
 BYTE   W15
 BYTE   VOL  59*song03DA_mvl/mxv
 BYTE   W06
 BYTE   VOL  58*song03DA_mvl/mxv
 BYTE   W06
 BYTE   VOL  56*song03DA_mvl/mxv
 BYTE   W03
//  #07 //036   ----------------------------------------
 BYTE   VOL  56*song03DA_mvl/mxv
 BYTE   W03
 BYTE   VOL  56*song03DA_mvl/mxv
 BYTE   W06
 BYTE   VOL  54*song03DA_mvl/mxv
 BYTE   W06
 BYTE   VOL  52*song03DA_mvl/mxv
 BYTE   W03
 BYTE   VOL  51*song03DA_mvl/mxv
 BYTE   W15
 BYTE   VOL  49*song03DA_mvl/mxv
 BYTE   W03
 BYTE   VOL  49*song03DA_mvl/mxv
 BYTE   W06
 BYTE   VOL  49*song03DA_mvl/mxv
 BYTE   W03
 BYTE   VOL  47*song03DA_mvl/mxv
 BYTE   W06
 BYTE   VOL  46*song03DA_mvl/mxv
 BYTE   W06
 BYTE   VOL  44*song03DA_mvl/mxv
 BYTE   W09
 BYTE   VOL  42*song03DA_mvl/mxv
 BYTE   W03
 BYTE   VOL  41*song03DA_mvl/mxv
 BYTE   W03
 BYTE   VOL  41*song03DA_mvl/mxv
 BYTE   W06
 BYTE   VOL  40*song03DA_mvl/mxv
 BYTE   W03
 BYTE   VOL  39*song03DA_mvl/mxv
 BYTE   W06
 BYTE   VOL  38*song03DA_mvl/mxv
 BYTE   W09
//  #07 //037   ----------------------------------------
 BYTE   VOL  37*song03DA_mvl/mxv
 BYTE   W06
 BYTE   VOL  34*song03DA_mvl/mxv
 BYTE   W03
 BYTE   VOL  34*song03DA_mvl/mxv
 BYTE   W03
 BYTE   VOL  34*song03DA_mvl/mxv
 BYTE   W09
 BYTE   VOL  33*song03DA_mvl/mxv
 BYTE   W03
 BYTE   VOL  32*song03DA_mvl/mxv
 BYTE   W03
 BYTE   VOL  31*song03DA_mvl/mxv
 BYTE   W12
 BYTE   VOL  30*song03DA_mvl/mxv
 BYTE   W03
 BYTE   VOL  30*song03DA_mvl/mxv
 BYTE   W03
 BYTE   VOL  29*song03DA_mvl/mxv
 BYTE   W06
 BYTE   VOL  28*song03DA_mvl/mxv
 BYTE   W03
 BYTE   VOL  27*song03DA_mvl/mxv
 BYTE   W18
 BYTE   VOL  26*song03DA_mvl/mxv
 BYTE   W06
 BYTE   VOL  25*song03DA_mvl/mxv
 BYTE   W03
 BYTE   VOL  25*song03DA_mvl/mxv
 BYTE   W09
 BYTE   VOL  23*song03DA_mvl/mxv
 BYTE   W06
//  #07 //038   ----------------------------------------
 BYTE   W09
 BYTE   VOL  23*song03DA_mvl/mxv
 BYTE   W48
 BYTE   VOL  67*song03DA_mvl/mxv
 BYTE   W36
 BYTE   W03
//  #07 //039   ----------------------------------------
 BYTE   W96
//  #07 //040   ----------------------------------------
 BYTE   W24
 BYTE   N72 Gn3 v072
 BYTE   W72
//  #07 //041   ----------------------------------------
 BYTE   W96
//  #07 //042   ----------------------------------------
 BYTE   W24
 BYTE   N64 An3 v076
 BYTE   W72
//  #07 //043   ----------------------------------------
 BYTE   W96
//  #07 //044   ----------------------------------------
 BYTE   W24
 BYTE   N68 Bn3 v080
 BYTE   W72
//  #07 //045   ----------------------------------------
 BYTE   W96
//  #07 //046   ----------------------------------------
 BYTE   W24
 BYTE   N56 Ds4 v088
 BYTE   W72
//  #07 //047   ----------------------------------------
 BYTE   W96
//  #07 //048   ----------------------------------------
 BYTE   W96
//  #07 //049   ----------------------------------------
 BYTE   W96
//  #07 //050   ----------------------------------------
 BYTE   W96
//  #07 //051   ----------------------------------------
 BYTE   W24
 BYTE   N24 Bn1 v024
 BYTE   W48
 BYTE   N28 Bn1 v052
 BYTE   W24
//  #07 //052   ----------------------------------------
 BYTE   W24
 BYTE   Bn1 v076
 BYTE   W48
 BYTE   N24 Bn1 v088
 BYTE   W24
//  #07 //053   ----------------------------------------
 BYTE   W24
 BYTE   N28 Bn1 v100
 BYTE   W48
 BYTE   Bn1 v104
 BYTE   W24
//  #07 //054   ----------------------------------------
 BYTE   W24
 BYTE   N30 Bn1 v112
 BYTE   W48
 BYTE   N28
 BYTE   W24
//  #07 //055   ----------------------------------------
 BYTE   W24
 BYTE   N30 Bn1 v116
 BYTE   W48
 BYTE   N24 Bn1 v092
 BYTE   W24
//  #07 //056   ----------------------------------------
 BYTE   N48 Gn3 v080
 BYTE   W96
//  #07 //057   ----------------------------------------
 BYTE   W96
//  #07 //058   ----------------------------------------
 BYTE   W96
//  #07 //059   ----------------------------------------
 BYTE   W96
//  #07 //060   ----------------------------------------
 BYTE   W96
//  #07 //061   ----------------------------------------
 BYTE   W96
//  #07 //062   ----------------------------------------
 BYTE   W96
//  #07 //063   ----------------------------------------
 BYTE   W96
//  #07 //064   ----------------------------------------
 BYTE   W96
//  #07 //065   ----------------------------------------
 BYTE   W96
//  #07 //066   ----------------------------------------
 BYTE   W96
//  #07 //067   ----------------------------------------
 BYTE   W96
//  #07 //068   ----------------------------------------
 BYTE   W96
//  #07 //069   ----------------------------------------
 BYTE   W96
//  #07 //070   ----------------------------------------
 BYTE   W96
//  #07 //071   ----------------------------------------
 BYTE   W96
//  #07 //072   ----------------------------------------
 BYTE   W96
//  #07 //073   ----------------------------------------
 BYTE   W96
//  #07 //074   ----------------------------------------
 BYTE   W24
 BYTE   N24 As2
 BYTE   W24
 BYTE   Cn3
 BYTE   W24
 BYTE   Dn3 v068
 BYTE   W24
//  #07 //075   ----------------------------------------
 BYTE   An3 v080
 BYTE   W24
 BYTE   Gn3 v072
 BYTE   W24
 BYTE   Dn3 v064
 BYTE   W24
 BYTE   As2
 BYTE   W24
//  #07 //076   ----------------------------------------
 BYTE   N96 Cn3 v072
 BYTE   W96
//  #07 //077   ----------------------------------------
 BYTE   W96
//  #07 //078   ----------------------------------------
 BYTE   W24
 BYTE   N24 An2 v056
 BYTE   W24
 BYTE   Cn3 v084
 BYTE   W24
 BYTE   Fs3 v068
 BYTE   W24
//  #07 //079   ----------------------------------------
 BYTE   An3 v080
 BYTE   W24
 BYTE   Fs3
 BYTE   W24
 BYTE   Ds3 v060
 BYTE   W24
 BYTE   Cn3 v072
 BYTE   W24
//  #07 //080   ----------------------------------------
 BYTE   N96 Dn3 v088
 BYTE   W96
//  #07 //081   ----------------------------------------
 BYTE   W96
//  #07 //082   ----------------------------------------
 BYTE   W24
 BYTE   N24 As2 v068
 BYTE   W24
 BYTE   Dn3 v084
 BYTE   W24
 BYTE   Gn3 v088
 BYTE   W24
//  #07 //083   ----------------------------------------
 BYTE   As3
 BYTE   W24
 BYTE   An3 v080
 BYTE   W24
 BYTE   Gn3
 BYTE   W24
 BYTE   Dn3 v056
 BYTE   W24
//  #07 //084   ----------------------------------------
 BYTE   W24
 BYTE   Cn3 v076
 BYTE   W24
 BYTE   Gn3 v088
 BYTE   W24
 BYTE   As3
 BYTE   W24
//  #07 //085   ----------------------------------------
 BYTE   Cn4 v080
 BYTE   W24
 BYTE   As3 v084
 BYTE   W24
 BYTE   Gn3
 BYTE   W24
 BYTE   Ds3 v092
 BYTE   W24
//  #07 //086   ----------------------------------------
 BYTE   W24
 BYTE   Ds3 v076
 BYTE   W24
 BYTE   Gn3 v084
 BYTE   W24
 BYTE   Cn4 v080
 BYTE   W24
//  #07 //087   ----------------------------------------
 BYTE   Dn4
 BYTE   W24
 BYTE   Cn4
 BYTE   W24
 BYTE   Gn3 v092
 BYTE   W24
 BYTE   Ds3 v072
 BYTE   W24
//  #07 //088   ----------------------------------------
 BYTE   W24
 BYTE   Cn3
 BYTE   W24
 BYTE   Ds3 v080
 BYTE   W24
 BYTE   Gn3
 BYTE   W24
//  #07 //089   ----------------------------------------
 BYTE   An3 v072
 BYTE   W24
 BYTE   Fs3
 BYTE   W24
 BYTE   Dn3 v092
 BYTE   W24
 BYTE   Cn3 v056
 BYTE   W24
//  #07 //090   ----------------------------------------
 BYTE   N48 As2
 BYTE   W96
//  #07 //091   ----------------------------------------
 BYTE   W96
//  #07 //092   ----------------------------------------
 BYTE   W96
//  #07 //093   ----------------------------------------
 BYTE   W96
//  #07 //094   ----------------------------------------
 BYTE   W96
//  #07 //095   ----------------------------------------
 BYTE   W24
 BYTE   N72 As3 v072
 BYTE   W72
//  #07 //096   ----------------------------------------
 BYTE   W96
//  #07 //097   ----------------------------------------
 BYTE   W24
 BYTE   Cn4 v076
 BYTE   W72
//  #07 //098   ----------------------------------------
 BYTE   W96
//  #07 //099   ----------------------------------------
 BYTE   W24
 BYTE   Dn4 v080
 BYTE   W72
//  #07 //100   ----------------------------------------
 BYTE   W96
//  #07 //101   ----------------------------------------
 BYTE   W24
 BYTE   Fs4 v088
 BYTE   W72
//  #07 //102   ----------------------------------------
 BYTE   W96
//  #07 //103   ----------------------------------------
 BYTE   W96
//  #07 //104   ----------------------------------------
 BYTE   W96
//  #07 //105   ----------------------------------------
 BYTE   W96
//  #07 //106   ----------------------------------------
 BYTE   W96
//  #07 //107   ----------------------------------------
 BYTE   W96
//  #07 //108   ----------------------------------------
 BYTE   W96
//  #07 //109   ----------------------------------------
 BYTE   W96
//  #07 //110   ----------------------------------------
 BYTE   W96
//  #07 //111   ----------------------------------------
 BYTE   GoTo
  POIN2 Label_010139CE
//  #07 //112   ----------------------------------------
 BYTE   N96 Gn4 v080
 BYTE   W96
 BYTE   FINE

//**************** Track 8 (Midi-Chn.7) ****************//

song03DA_008:
//  #08 //000   ----------------------------------------
 BYTE   KEYSH  song03DA_key+0
 BYTE   VOICE  56
 BYTE   MODT 0
 BYTE   LFOS 44
 BYTE   PAN  c_v+18
 BYTE   VOL  42*song03DA_mvl/mxv
 BYTE   W48
 BYTE   N48 Fs2 v116
 BYTE   W48
//  #08 //001   ----------------------------------------
Label_01013CB1:
 BYTE   PAN  c_v+18
 BYTE   VOL  42*song03DA_mvl/mxv
 BYTE   N96 Gn2 v120
 BYTE   W24
 BYTE   PAN  c_v+12
 BYTE   W03
 BYTE   PAN  c_v+6
 BYTE   W03
 BYTE   PAN  c_v-2
 BYTE   W03
 BYTE   PAN  c_v-10
 BYTE   W03
 BYTE   PAN  c_v-15
 BYTE   W03
 BYTE   PAN  c_v-21
 BYTE   W03
 BYTE   PAN  c_v-29
 BYTE   W03
 BYTE   PAN  c_v-37
 BYTE   W03
 BYTE   PAN  c_v-46
 BYTE   W03
 BYTE   PAN  c_v-56
 BYTE   W03
 BYTE   PAN  c_v-64
 BYTE   W03
 BYTE   PAN  c_v-64
 BYTE   W03
 BYTE   PAN  c_v-64
 BYTE   W03
 BYTE   PAN  c_v-64
 BYTE   W03
 BYTE   PAN  c_v-64
 BYTE   W03
 BYTE   PAN  c_v-64
 BYTE   W03
 BYTE   PAN  c_v-64
 BYTE   W03
 BYTE   PAN  c_v-64
 BYTE   W03
 BYTE   PAN  c_v-64
 BYTE   W03
 BYTE   PAN  c_v-64
 BYTE   W03
 BYTE   PAN  c_v-64
 BYTE   W03
 BYTE   PAN  c_v-64
 BYTE   W03
 BYTE   PAN  c_v-64
 BYTE   W06
//  #08 //002   ----------------------------------------
 BYTE   W12
 BYTE   PAN  c_v+18
 BYTE   W84
//  #08 //003   ----------------------------------------
 BYTE   W96
//  #08 //004   ----------------------------------------
 BYTE   W96
//  #08 //005   ----------------------------------------
 BYTE   W96
//  #08 //006   ----------------------------------------
 BYTE   W96
//  #08 //007   ----------------------------------------
 BYTE   W96
//  #08 //008   ----------------------------------------
 BYTE   W96
//  #08 //009   ----------------------------------------
 BYTE   W96
//  #08 //010   ----------------------------------------
 BYTE   W96
//  #08 //011   ----------------------------------------
 BYTE   W96
//  #08 //012   ----------------------------------------
 BYTE   W96
//  #08 //013   ----------------------------------------
 BYTE   W96
//  #08 //014   ----------------------------------------
 BYTE   W96
//  #08 //015   ----------------------------------------
 BYTE   W96
//  #08 //016   ----------------------------------------
 BYTE   W96
//  #08 //017   ----------------------------------------
 BYTE   W96
//  #08 //018   ----------------------------------------
 BYTE   W96
//  #08 //019   ----------------------------------------
 BYTE   W24
 BYTE   N24 Gn2 v092
 BYTE   W24
 BYTE   An2 v096
 BYTE   W24
 BYTE   Bn2 v080
 BYTE   W24
//  #08 //020   ----------------------------------------
 BYTE   Fs3 v088
 BYTE   W24
 BYTE   En3
 BYTE   W24
 BYTE   Bn2 v080
 BYTE   W24
 BYTE   Gn2
 BYTE   W24
//  #08 //021   ----------------------------------------
 BYTE   N96 An2 v088
 BYTE   W96
//  #08 //022   ----------------------------------------
 BYTE   W96
//  #08 //023   ----------------------------------------
 BYTE   W24
 BYTE   N24 Fs2 v108
 BYTE   W24
 BYTE   An2 v100
 BYTE   W24
 BYTE   Ds3 v076
 BYTE   W24
//  #08 //024   ----------------------------------------
 BYTE   Fs3 v080
 BYTE   W24
 BYTE   Ds3 v092
 BYTE   W24
 BYTE   Cn3 v108
 BYTE   W24
 BYTE   An2 v088
 BYTE   W24
//  #08 //025   ----------------------------------------
 BYTE   N96 Bn2 v100
 BYTE   W96
//  #08 //026   ----------------------------------------
 BYTE   W96
//  #08 //027   ----------------------------------------
 BYTE   W24
 BYTE   N24 Gn2 v084
 BYTE   W24
 BYTE   Bn2 v100
 BYTE   W24
 BYTE   En3 v104
 BYTE   W24
//  #08 //028   ----------------------------------------
 BYTE   Gn3 v096
 BYTE   W24
 BYTE   Fs3
 BYTE   W24
 BYTE   En3
 BYTE   W24
 BYTE   Bn2 v068
 BYTE   W24
//  #08 //029   ----------------------------------------
 BYTE   W24
 BYTE   An2 v088
 BYTE   W24
 BYTE   En3 v108
 BYTE   W24
 BYTE   Gn3 v100
 BYTE   W24
//  #08 //030   ----------------------------------------
 BYTE   An3 v096
 BYTE   W24
 BYTE   Gn3 v092
 BYTE   W24
 BYTE   En3 v100
 BYTE   W24
 BYTE   Cn3 v112
 BYTE   W24
//  #08 //031   ----------------------------------------
 BYTE   W24
 BYTE   Cn3 v092
 BYTE   W24
 BYTE   En3 v104
 BYTE   W24
 BYTE   An3 v096
 BYTE   W24
//  #08 //032   ----------------------------------------
 BYTE   Bn3
 BYTE   W24
 BYTE   An3 v092
 BYTE   W24
 BYTE   En3 v104
 BYTE   W24
 BYTE   N36 Cn3 v088
 BYTE   W24
//  #08 //033   ----------------------------------------
 BYTE   W24
 BYTE   N24 An2
 BYTE   W24
 BYTE   Cn3 v092
 BYTE   W24
 BYTE   En3 v096
 BYTE   W24
//  #08 //034   ----------------------------------------
 BYTE   Fs3 v088
 BYTE   W24
 BYTE   Ds3 v092
 BYTE   W24
 BYTE   N44 Bn2 v104
 BYTE   W48
//  #08 //035   ----------------------------------------
 BYTE   W96
//  #08 //036   ----------------------------------------
 BYTE   W96
//  #08 //037   ----------------------------------------
 BYTE   W96
//  #08 //038   ----------------------------------------
 BYTE   W96
//  #08 //039   ----------------------------------------
 BYTE   W96
//  #08 //040   ----------------------------------------
 BYTE   W24
 BYTE   N72 Gn2 v072
 BYTE   W72
//  #08 //041   ----------------------------------------
 BYTE   W96
//  #08 //042   ----------------------------------------
 BYTE   W24
 BYTE   N64 An2 v076
 BYTE   W72
//  #08 //043   ----------------------------------------
 BYTE   W96
//  #08 //044   ----------------------------------------
 BYTE   W24
 BYTE   N68 Bn2 v080
 BYTE   W72
//  #08 //045   ----------------------------------------
 BYTE   W96
//  #08 //046   ----------------------------------------
 BYTE   W24
 BYTE   N56 Ds3 v088
 BYTE   W72
//  #08 //047   ----------------------------------------
 BYTE   W96
//  #08 //048   ----------------------------------------
 BYTE   W96
//  #08 //049   ----------------------------------------
 BYTE   W96
//  #08 //050   ----------------------------------------
 BYTE   W96
//  #08 //051   ----------------------------------------
 BYTE   W96
//  #08 //052   ----------------------------------------
 BYTE   W96
//  #08 //053   ----------------------------------------
 BYTE   W96
//  #08 //054   ----------------------------------------
 BYTE   W96
//  #08 //055   ----------------------------------------
 BYTE   W96
//  #08 //056   ----------------------------------------
 BYTE   W96
//  #08 //057   ----------------------------------------
 BYTE   W96
//  #08 //058   ----------------------------------------
 BYTE   VOL  77*song03DA_mvl/mxv
 BYTE   PAN  c_v+8
 BYTE   W96
//  #08 //059   ----------------------------------------
 BYTE   W96
//  #08 //060   ----------------------------------------
 BYTE   W96
//  #08 //061   ----------------------------------------
 BYTE   W96
//  #08 //062   ----------------------------------------
 BYTE   W96
//  #08 //063   ----------------------------------------
 BYTE   W96
//  #08 //064   ----------------------------------------
 BYTE   W96
//  #08 //065   ----------------------------------------
 BYTE   W96
//  #08 //066   ----------------------------------------
 BYTE   W96
//  #08 //067   ----------------------------------------
 BYTE   W96
//  #08 //068   ----------------------------------------
 BYTE   N44 Dn4 v052
 BYTE   W48
 BYTE   N48 As3 v056
 BYTE   W48
//  #08 //069   ----------------------------------------
 BYTE   Gn3 v064
 BYTE   W48
 BYTE   W03
 BYTE   N44 Dn3 v048
 BYTE   W44
 BYTE   W01
//  #08 //070   ----------------------------------------
 BYTE   N21 Gn3 v060
 BYTE   W21
 BYTE   TIE Dn3
 BYTE   W72
 BYTE   W03
//  #08 //071   ----------------------------------------
 BYTE   W68
 BYTE   W01
 BYTE   EOT
 BYTE   W24
 BYTE   W03
//  #08 //072   ----------------------------------------
 BYTE   W96
//  #08 //073   ----------------------------------------
 BYTE   W96
//  #08 //074   ----------------------------------------
 BYTE   VOL  77*song03DA_mvl/mxv
 BYTE   PAN  c_v+8
 BYTE   W96
//  #08 //075   ----------------------------------------
 BYTE   W96
//  #08 //076   ----------------------------------------
 BYTE   N03 Gn3 v100
 BYTE   W03
 BYTE   An3
 BYTE   W21
 BYTE   An3 v124
 BYTE   W03
 BYTE   Cn4 v100
 BYTE   W21
 BYTE   Cn4 v108
 BYTE   W03
 BYTE   Ds4 v100
 BYTE   W21
 BYTE   Fs4
 BYTE   W03
 BYTE   Gn4
 BYTE   W21
//  #08 //077   ----------------------------------------
 BYTE   N05 An3 v116
 BYTE   W18
 BYTE   N04 An4 v100
 BYTE   W06
 BYTE   N56 An4 v124
 BYTE   W60
 BYTE   N06 An4 v112
 BYTE   W06
 BYTE   Fs4 v088
 BYTE   W06
//  #08 //078   ----------------------------------------
 BYTE   N92 Cn4 v100
 BYTE   W42
 BYTE   VOL  59*song03DA_mvl/mxv
 BYTE   W03
 BYTE   VOL  54*song03DA_mvl/mxv
 BYTE   W01
 BYTE   VOL  51*song03DA_mvl/mxv
 BYTE   W02
 BYTE   VOL  49*song03DA_mvl/mxv
 BYTE   W01
 BYTE   VOL  49*song03DA_mvl/mxv
 BYTE   W03
 BYTE   VOL  47*song03DA_mvl/mxv
 BYTE   W05
 BYTE   VOL  42*song03DA_mvl/mxv
 BYTE   W06
 BYTE   VOL  37*song03DA_mvl/mxv
 BYTE   W03
 BYTE   VOL  35*song03DA_mvl/mxv
 BYTE   W03
 BYTE   VOL  29*song03DA_mvl/mxv
 BYTE   W03
 BYTE   VOL  14*song03DA_mvl/mxv
 BYTE   W01
 BYTE   VOL  10*song03DA_mvl/mxv
 BYTE   W02
 BYTE   VOL  7*song03DA_mvl/mxv
 BYTE   W01
 BYTE   VOL  4*song03DA_mvl/mxv
 BYTE   W02
 BYTE   VOL  3*song03DA_mvl/mxv
 BYTE   W01
 BYTE   VOL  1*song03DA_mvl/mxv
 BYTE   W02
 BYTE   VOL  0*song03DA_mvl/mxv
 BYTE   W01
 BYTE   VOL  0*song03DA_mvl/mxv
 BYTE   W02
 BYTE   VOL  0*song03DA_mvl/mxv
 BYTE   W10
 BYTE   VOL  82*song03DA_mvl/mxv
 BYTE   W02
//  #08 //079   ----------------------------------------
 BYTE   W96
//  #08 //080   ----------------------------------------
 BYTE   N03 Gn3 v127
 BYTE   W03
 BYTE   As3
 BYTE   W21
 BYTE   N03
 BYTE   W03
 BYTE   Dn4
 BYTE   W21
 BYTE   N03
 BYTE   W03
 BYTE   Gn4
 BYTE   W21
 BYTE   N06 An4 v100
 BYTE   W06
 BYTE   N04 As4
 BYTE   W18
//  #08 //081   ----------------------------------------
 BYTE   N08 Gn4
 BYTE   W18
 BYTE   N05 As4
 BYTE   W06
 BYTE   N36 As4 v108
 BYTE   W60
 BYTE   N06 As4 v100
 BYTE   W06
 BYTE   Dn4
 BYTE   W06
//  #08 //082   ----------------------------------------
 BYTE   N72 As3 v112
 BYTE   W19
 BYTE   VOL  58*song03DA_mvl/mxv
 BYTE   W02
 BYTE   VOL  58*song03DA_mvl/mxv
 BYTE   W03
 BYTE   VOL  58*song03DA_mvl/mxv
 BYTE   W03
 BYTE   VOL  58*song03DA_mvl/mxv
 BYTE   W03
 BYTE   VOL  58*song03DA_mvl/mxv
 BYTE   W03
 BYTE   VOL  56*song03DA_mvl/mxv
 BYTE   W03
 BYTE   VOL  54*song03DA_mvl/mxv
 BYTE   W03
 BYTE   VOL  50*song03DA_mvl/mxv
 BYTE   W03
 BYTE   VOL  43*song03DA_mvl/mxv
 BYTE   W03
 BYTE   VOL  35*song03DA_mvl/mxv
 BYTE   W01
 BYTE   VOL  29*song03DA_mvl/mxv
 BYTE   W02
 BYTE   VOL  27*song03DA_mvl/mxv
 BYTE   W01
 BYTE   VOL  25*song03DA_mvl/mxv
 BYTE   W02
 BYTE   VOL  21*song03DA_mvl/mxv
 BYTE   W01
 BYTE   VOL  20*song03DA_mvl/mxv
 BYTE   W02
 BYTE   VOL  19*song03DA_mvl/mxv
 BYTE   W01
 BYTE   VOL  17*song03DA_mvl/mxv
 BYTE   W02
 BYTE   VOL  15*song03DA_mvl/mxv
 BYTE   W01
 BYTE   VOL  14*song03DA_mvl/mxv
 BYTE   W02
 BYTE   VOL  12*song03DA_mvl/mxv
 BYTE   W01
 BYTE   VOL  12*song03DA_mvl/mxv
 BYTE   W02
 BYTE   VOL  10*song03DA_mvl/mxv
 BYTE   W01
 BYTE   VOL  8*song03DA_mvl/mxv
 BYTE   W02
 BYTE   VOL  5*song03DA_mvl/mxv
 BYTE   W01
 BYTE   VOL  3*song03DA_mvl/mxv
 BYTE   W02
 BYTE   VOL  1*song03DA_mvl/mxv
 BYTE   W01
 BYTE   VOL  0*song03DA_mvl/mxv
 BYTE   W02
 BYTE   VOL  0*song03DA_mvl/mxv
 BYTE   W01
 BYTE   VOL  0*song03DA_mvl/mxv
 BYTE   W02
 BYTE   VOL  0*song03DA_mvl/mxv
 BYTE   W01
 BYTE   VOL  0*song03DA_mvl/mxv
 BYTE   W20
//  #08 //083   ----------------------------------------
 BYTE   W03
 BYTE   VOL  82*song03DA_mvl/mxv
 BYTE   W09
 BYTE   N16 As3 v108
 BYTE   W24
 BYTE   N17 Cn4 v116
 BYTE   W24
 BYTE   N16 Dn4
 BYTE   W24
 BYTE   N07 Fn4 v108
 BYTE   W12
//  #08 //084   ----------------------------------------
 BYTE   N84 Gn4 v100
 BYTE   W96
//  #08 //085   ----------------------------------------
 BYTE   W12
 BYTE   N24 Ds3 v088
 BYTE   W24
 BYTE   N22 Fn3 v108
 BYTE   W24
 BYTE   N10 Gn3 v112
 BYTE   W12
 BYTE   N12 As3 v104
 BYTE   W12
 BYTE   Cn4 v108
 BYTE   W03
 BYTE   VOL  82*song03DA_mvl/mxv
 BYTE   W09
//  #08 //086   ----------------------------------------
 BYTE   N92 Gn4 v104
 BYTE   W03
 BYTE   VOL  82*song03DA_mvl/mxv
 BYTE   W09
 BYTE   VOL  82*song03DA_mvl/mxv
 BYTE   W56
 BYTE   W03
 BYTE   VOL  52*song03DA_mvl/mxv
 BYTE   W06
 BYTE   VOL  29*song03DA_mvl/mxv
 BYTE   W03
 BYTE   VOL  10*song03DA_mvl/mxv
 BYTE   W03
 BYTE   VOL  3*song03DA_mvl/mxv
 BYTE   W03
 BYTE   VOL  0*song03DA_mvl/mxv
 BYTE   W10
//  #08 //087   ----------------------------------------
 BYTE   VOL  82*song03DA_mvl/mxv
 BYTE   W12
 BYTE   N14 Cn4 v108
 BYTE   W24
 BYTE   N18 Dn4 v092
 BYTE   W24
 BYTE   N15 Fn4 v112
 BYTE   W24
 BYTE   N07 Gn4 v120
 BYTE   W12
//  #08 //088   ----------------------------------------
 BYTE   N80 An4 v108
 BYTE   W84
 BYTE   N05 An4 v112
 BYTE   W06
 BYTE   N04
 BYTE   W06
//  #08 //089   ----------------------------------------
 BYTE   N32 An4 v127
 BYTE   W36
 BYTE   N04
 BYTE   W06
 BYTE   N04
 BYTE   W06
 BYTE   N48 Dn5
 BYTE   W36
 BYTE   VOL  69*song03DA_mvl/mxv
 BYTE   W01
 BYTE   VOL  66*song03DA_mvl/mxv
 BYTE   W02
 BYTE   VOL  56*song03DA_mvl/mxv
 BYTE   W01
 BYTE   VOL  47*song03DA_mvl/mxv
 BYTE   W02
 BYTE   VOL  42*song03DA_mvl/mxv
 BYTE   W01
 BYTE   VOL  37*song03DA_mvl/mxv
 BYTE   W02
 BYTE   VOL  30*song03DA_mvl/mxv
 BYTE   W01
 BYTE   VOL  26*song03DA_mvl/mxv
 BYTE   W02
//  #08 //090   ----------------------------------------
 BYTE   VOL  21*song03DA_mvl/mxv
 BYTE   W01
 BYTE   VOL  18*song03DA_mvl/mxv
 BYTE   W02
 BYTE   VOL  16*song03DA_mvl/mxv
 BYTE   W01
 BYTE   VOL  14*song03DA_mvl/mxv
 BYTE   W02
 BYTE   VOL  12*song03DA_mvl/mxv
 BYTE   W01
 BYTE   VOL  10*song03DA_mvl/mxv
 BYTE   W02
 BYTE   VOL  4*song03DA_mvl/mxv
 BYTE   W01
 BYTE   VOL  0*song03DA_mvl/mxv
 BYTE   W02
 BYTE   VOL  0*song03DA_mvl/mxv
 BYTE   W01
 BYTE   VOL  0*song03DA_mvl/mxv
 BYTE   W02
 BYTE   VOL  0*song03DA_mvl/mxv
 BYTE   W12
 BYTE   VOL  78*song03DA_mvl/mxv
 BYTE   W01
 BYTE   VOL  82*song03DA_mvl/mxv
 BYTE   W68
//  #08 //091   ----------------------------------------
 BYTE   W48
 BYTE   VOL  26*song03DA_mvl/mxv
 BYTE   W48
//  #08 //092   ----------------------------------------
 BYTE   W03
 BYTE   VOL  0*song03DA_mvl/mxv
 BYTE   W24
 BYTE   W03
 BYTE   VOL  71*song03DA_mvl/mxv
 BYTE   W66
//  #08 //093   ----------------------------------------
 BYTE   W96
//  #08 //094   ----------------------------------------
 BYTE   W96
//  #08 //095   ----------------------------------------
 BYTE   W24
 BYTE   N72 As2 v072
 BYTE   W72
//  #08 //096   ----------------------------------------
 BYTE   W96
//  #08 //097   ----------------------------------------
 BYTE   W24
 BYTE   N64 Cn3 v076
 BYTE   W72
//  #08 //098   ----------------------------------------
 BYTE   W96
//  #08 //099   ----------------------------------------
 BYTE   W24
 BYTE   N68 Dn3 v080
 BYTE   W72
//  #08 //100   ----------------------------------------
 BYTE   W96
//  #08 //101   ----------------------------------------
 BYTE   W24
 BYTE   N56 Fs3 v088
 BYTE   W72
//  #08 //102   ----------------------------------------
 BYTE   W96
//  #08 //103   ----------------------------------------
 BYTE   W96
//  #08 //104   ----------------------------------------
 BYTE   W96
//  #08 //105   ----------------------------------------
 BYTE   W96
//  #08 //106   ----------------------------------------
 BYTE   W24
 BYTE   N24 Dn3 v052
 BYTE   W48
 BYTE   N28
 BYTE   W24
//  #08 //107   ----------------------------------------
 BYTE   W24
 BYTE   Dn3 v076
 BYTE   W48
 BYTE   N24 Dn3 v088
 BYTE   W24
//  #08 //108   ----------------------------------------
 BYTE   W24
 BYTE   N28 Dn3 v100
 BYTE   W48
 BYTE   Dn3 v104
 BYTE   W24
//  #08 //109   ----------------------------------------
 BYTE   W24
 BYTE   N30 Dn3 v112
 BYTE   W48
 BYTE   N28
 BYTE   W24
//  #08 //110   ----------------------------------------
 BYTE   W24
 BYTE   N30 Dn3 v116
 BYTE   W48
 BYTE   N24 Dn3 v084
 BYTE   W24
//  #08 //111   ----------------------------------------
 BYTE   GoTo
  POIN2 Label_01013CB1
//  #08 //112   ----------------------------------------
 BYTE   N48 Gn3 v076
 BYTE   W48
 BYTE   W03
 BYTE   FINE

//**************** Track 9 (Midi-Chn.8) ****************//

song03DA_009:
//  #09 //000   ----------------------------------------
 BYTE   VOL  82*song03DA_mvl/mxv
 BYTE   KEYSH  song03DA_key+0
 BYTE   W96
//  #09 //001   ----------------------------------------
Label_01014149:
 BYTE   W96
//  #09 //002   ----------------------------------------
 BYTE   W96
//  #09 //003   ----------------------------------------
 BYTE   W96
//  #09 //004   ----------------------------------------
 BYTE   W96
//  #09 //005   ----------------------------------------
 BYTE   W96
//  #09 //006   ----------------------------------------
 BYTE   W96
//  #09 //007   ----------------------------------------
 BYTE   W96
//  #09 //008   ----------------------------------------
 BYTE   W96
//  #09 //009   ----------------------------------------
 BYTE   W96
//  #09 //010   ----------------------------------------
 BYTE   W96
//  #09 //011   ----------------------------------------
 BYTE   W96
//  #09 //012   ----------------------------------------
 BYTE   W96
//  #09 //013   ----------------------------------------
 BYTE   W96
//  #09 //014   ----------------------------------------
 BYTE   W96
//  #09 //015   ----------------------------------------
 BYTE   W96
//  #09 //016   ----------------------------------------
 BYTE   W96
//  #09 //017   ----------------------------------------
 BYTE   W96
//  #09 //018   ----------------------------------------
 BYTE   W96
//  #09 //019   ----------------------------------------
 BYTE   W96
//  #09 //020   ----------------------------------------
 BYTE   W96
//  #09 //021   ----------------------------------------
 BYTE   W96
//  #09 //022   ----------------------------------------
 BYTE   W96
//  #09 //023   ----------------------------------------
 BYTE   W96
//  #09 //024   ----------------------------------------
 BYTE   W96
//  #09 //025   ----------------------------------------
 BYTE   W96
//  #09 //026   ----------------------------------------
 BYTE   W96
//  #09 //027   ----------------------------------------
 BYTE   W96
//  #09 //028   ----------------------------------------
 BYTE   W96
//  #09 //029   ----------------------------------------
 BYTE   W96
//  #09 //030   ----------------------------------------
 BYTE   W96
//  #09 //031   ----------------------------------------
 BYTE   W96
//  #09 //032   ----------------------------------------
 BYTE   W96
//  #09 //033   ----------------------------------------
 BYTE   W96
//  #09 //034   ----------------------------------------
 BYTE   W96
//  #09 //035   ----------------------------------------
 BYTE   W96
//  #09 //036   ----------------------------------------
 BYTE   W96
//  #09 //037   ----------------------------------------
 BYTE   W96
//  #09 //038   ----------------------------------------
 BYTE   W96
//  #09 //039   ----------------------------------------
 BYTE   W96
//  #09 //040   ----------------------------------------
 BYTE   W96
//  #09 //041   ----------------------------------------
 BYTE   W96
//  #09 //042   ----------------------------------------
 BYTE   W96
//  #09 //043   ----------------------------------------
 BYTE   W96
//  #09 //044   ----------------------------------------
 BYTE   W96
//  #09 //045   ----------------------------------------
 BYTE   W96
//  #09 //046   ----------------------------------------
 BYTE   W96
//  #09 //047   ----------------------------------------
 BYTE   W96
//  #09 //048   ----------------------------------------
 BYTE   W96
//  #09 //049   ----------------------------------------
 BYTE   W96
//  #09 //050   ----------------------------------------
 BYTE   W96
//  #09 //051   ----------------------------------------
 BYTE   W96
//  #09 //052   ----------------------------------------
 BYTE   W96
//  #09 //053   ----------------------------------------
 BYTE   W96
//  #09 //054   ----------------------------------------
 BYTE   W96
//  #09 //055   ----------------------------------------
 BYTE   W96
//  #09 //056   ----------------------------------------
 BYTE   W96
//  #09 //057   ----------------------------------------
 BYTE   W96
//  #09 //058   ----------------------------------------
 BYTE   W96
//  #09 //059   ----------------------------------------
 BYTE   PAN  c_v+18
 BYTE   W96
//  #09 //060   ----------------------------------------
 BYTE   W96
//  #09 //061   ----------------------------------------
 BYTE   W96
//  #09 //062   ----------------------------------------
 BYTE   W96
//  #09 //063   ----------------------------------------
 BYTE   W96
//  #09 //064   ----------------------------------------
 BYTE   W96
//  #09 //065   ----------------------------------------
 BYTE   W96
//  #09 //066   ----------------------------------------
 BYTE   W96
//  #09 //067   ----------------------------------------
 BYTE   W96
//  #09 //068   ----------------------------------------
 BYTE   W96
//  #09 //069   ----------------------------------------
 BYTE   W96
//  #09 //070   ----------------------------------------
 BYTE   W96
//  #09 //071   ----------------------------------------
 BYTE   W96
//  #09 //072   ----------------------------------------
 BYTE   W96
//  #09 //073   ----------------------------------------
 BYTE   W96
//  #09 //074   ----------------------------------------
 BYTE   W24
 BYTE   N24 As2 v092
 BYTE   W24
 BYTE   Cn3 v096
 BYTE   W24
 BYTE   Dn3 v080
 BYTE   W24
//  #09 //075   ----------------------------------------
 BYTE   An3 v092
 BYTE   W24
 BYTE   Gn3 v084
 BYTE   W24
 BYTE   Dn3 v080
 BYTE   W24
 BYTE   As2
 BYTE   W24
//  #09 //076   ----------------------------------------
 BYTE   N96 Cn3 v088
 BYTE   W96
//  #09 //077   ----------------------------------------
 BYTE   W96
//  #09 //078   ----------------------------------------
 BYTE   W24
 BYTE   N24 An2 v072
 BYTE   W24
 BYTE   Cn3 v100
 BYTE   W24
 BYTE   Fs3 v084
 BYTE   W24
//  #09 //079   ----------------------------------------
 BYTE   An3 v092
 BYTE   W24
 BYTE   Fs3 v096
 BYTE   W24
 BYTE   Ds3 v072
 BYTE   W24
 BYTE   Cn3 v088
 BYTE   W24
//  #09 //080   ----------------------------------------
 BYTE   N96 Dn3 v104
 BYTE   W96
//  #09 //081   ----------------------------------------
 BYTE   W96
//  #09 //082   ----------------------------------------
 BYTE   W24
 BYTE   N24 As2 v084
 BYTE   W24
 BYTE   Dn3 v100
 BYTE   W24
 BYTE   Gn3 v104
 BYTE   W24
//  #09 //083   ----------------------------------------
 BYTE   As3
 BYTE   W24
 BYTE   An3 v096
 BYTE   W24
 BYTE   Gn3 v092
 BYTE   W24
 BYTE   Dn3 v072
 BYTE   W24
//  #09 //084   ----------------------------------------
 BYTE   W24
 BYTE   Cn3 v092
 BYTE   W24
 BYTE   Gn3 v108
 BYTE   W24
 BYTE   As3
 BYTE   W24
//  #09 //085   ----------------------------------------
 BYTE   Cn4 v096
 BYTE   W24
 BYTE   As3 v100
 BYTE   W24
 BYTE   Gn3
 BYTE   W24
 BYTE   Ds3 v112
 BYTE   W24
//  #09 //086   ----------------------------------------
 BYTE   W24
 BYTE   Ds3 v092
 BYTE   W24
 BYTE   Gn3 v100
 BYTE   W24
 BYTE   Cn4 v096
 BYTE   W24
//  #09 //087   ----------------------------------------
 BYTE   Dn4
 BYTE   W24
 BYTE   Cn4 v092
 BYTE   W24
 BYTE   Gn3 v112
 BYTE   W24
 BYTE   Ds3 v088
 BYTE   W24
//  #09 //088   ----------------------------------------
 BYTE   W24
 BYTE   Cn3
 BYTE   W24
 BYTE   Ds3 v092
 BYTE   W24
 BYTE   Gn3 v096
 BYTE   W24
//  #09 //089   ----------------------------------------
 BYTE   An3 v088
 BYTE   W24
 BYTE   Fs3
 BYTE   W24
 BYTE   Dn3 v108
 BYTE   W24
 BYTE   Cn3 v072
 BYTE   W24
//  #09 //090   ----------------------------------------
 BYTE   N48 As2
 BYTE   W96
//  #09 //091   ----------------------------------------
 BYTE   W96
//  #09 //092   ----------------------------------------
 BYTE   W96
//  #09 //093   ----------------------------------------
 BYTE   W96
//  #09 //094   ----------------------------------------
 BYTE   W96
//  #09 //095   ----------------------------------------
 BYTE   W24
 BYTE   N72
 BYTE   W72
//  #09 //096   ----------------------------------------
 BYTE   W96
//  #09 //097   ----------------------------------------
 BYTE   W24
 BYTE   Cn3 v076
 BYTE   W72
//  #09 //098   ----------------------------------------
 BYTE   W96
//  #09 //099   ----------------------------------------
 BYTE   W24
 BYTE   Dn3 v080
 BYTE   W72
//  #09 //100   ----------------------------------------
 BYTE   W96
//  #09 //101   ----------------------------------------
 BYTE   W24
 BYTE   Fs3 v088
 BYTE   W72
//  #09 //102   ----------------------------------------
 BYTE   W96
//  #09 //103   ----------------------------------------
 BYTE   W96
//  #09 //104   ----------------------------------------
 BYTE   W96
//  #09 //105   ----------------------------------------
 BYTE   W96
//  #09 //106   ----------------------------------------
 BYTE   W96
//  #09 //107   ----------------------------------------
 BYTE   W96
//  #09 //108   ----------------------------------------
 BYTE   W96
//  #09 //109   ----------------------------------------
 BYTE   W96
//  #09 //110   ----------------------------------------
 BYTE   W96
//  #09 //111   ----------------------------------------
 BYTE   GoTo
  POIN2 Label_01014149
//  #09 //112   ----------------------------------------
 BYTE   N96 Gn3 v080
 BYTE   W96
 BYTE   FINE

//**************** Track 10 (Midi-Chn.9) ****************//

song03DA_010:
//  #10 //000   ----------------------------------------
 BYTE   KEYSH  song03DA_key+0
 BYTE   VOICE  62
 BYTE   MODT 0
 BYTE   LFOS 44
 BYTE   VOL  77*song03DA_mvl/mxv
 BYTE   PAN  c_v+8
 BYTE   W96
//  #10 //001   ----------------------------------------
Label_0100CDF1:
 BYTE   PAN  c_v+8
 BYTE   VOL  77*song03DA_mvl/mxv
 BYTE   W96
//  #10 //002   ----------------------------------------
 BYTE   W96
//  #10 //003   ----------------------------------------
 BYTE   W96
//  #10 //004   ----------------------------------------
 BYTE   W96
//  #10 //005   ----------------------------------------
 BYTE   W96
//  #10 //006   ----------------------------------------
 BYTE   W96
//  #10 //007   ----------------------------------------
 BYTE   W96
//  #10 //008   ----------------------------------------
 BYTE   W96
//  #10 //009   ----------------------------------------
 BYTE   W96
//  #10 //010   ----------------------------------------
 BYTE   W96
//  #10 //011   ----------------------------------------
 BYTE   W96
//  #10 //012   ----------------------------------------
 BYTE   W96
//  #10 //013   ----------------------------------------
 BYTE   W96
//  #10 //014   ----------------------------------------
 BYTE   W96
//  #10 //015   ----------------------------------------
 BYTE   W96
//  #10 //016   ----------------------------------------
 BYTE   W96
//  #10 //017   ----------------------------------------
 BYTE   W96
//  #10 //018   ----------------------------------------
 BYTE   W96
//  #10 //019   ----------------------------------------
 BYTE   VOL  77*song03DA_mvl/mxv
 BYTE   PAN  c_v+8
 BYTE   W96
//  #10 //020   ----------------------------------------
 BYTE   W96
//  #10 //021   ----------------------------------------
 BYTE   W24
 BYTE   N07 Fs3 v104
 BYTE   W24
 BYTE   An3 v088
 BYTE   W24
 BYTE   N06 Cn4 v108
 BYTE   W24
//  #10 //022   ----------------------------------------
 BYTE   N05 Fs3 v096
 BYTE   W18
 BYTE   N04 An3 v100
 BYTE   W06
 BYTE   N36 An3 v124
 BYTE   W48
 BYTE   N06 An3 v112
 BYTE   W06
 BYTE   Fs3 v080
 BYTE   W06
 BYTE   Ds3 v088
 BYTE   W06
 BYTE   N05 Cn3 v068
 BYTE   W06
//  #10 //023   ----------------------------------------
 BYTE   N96 Bn2 v080
 BYTE   W24
 BYTE   VOL  32*song03DA_mvl/mxv
 BYTE   W03
 BYTE   VOL  22*song03DA_mvl/mxv
 BYTE   W12
 BYTE   VOL  14*song03DA_mvl/mxv
 BYTE   W06
 BYTE   VOL  5*song03DA_mvl/mxv
 BYTE   W03
 BYTE   VOL  1*song03DA_mvl/mxv
 BYTE   W03
 BYTE   VOL  0*song03DA_mvl/mxv
 BYTE   W03
 BYTE   VOL  0*song03DA_mvl/mxv
 BYTE   W42
//  #10 //024   ----------------------------------------
 BYTE   VOL  73*song03DA_mvl/mxv
 BYTE   W96
//  #10 //025   ----------------------------------------
 BYTE   W24
 BYTE   N08 En3 v108
 BYTE   W24
 BYTE   N10 Gn3
 BYTE   W24
 BYTE   Bn3 v100
 BYTE   W24
//  #10 //026   ----------------------------------------
 BYTE   N08 En3
 BYTE   W18
 BYTE   N05 Gn3
 BYTE   W06
 BYTE   N36 Gn3 v108
 BYTE   W48
 BYTE   N06 Gn3 v112
 BYTE   W06
 BYTE   VOL  73*song03DA_mvl/mxv
 BYTE   N06 En3 v108
 BYTE   W06
 BYTE   Cn3 v088
 BYTE   W06
 BYTE   An2
 BYTE   W06
//  #10 //027   ----------------------------------------
 BYTE   N32 Gn2 v112
 BYTE   W24
 BYTE   VOL  40*song03DA_mvl/mxv
 BYTE   W03
 BYTE   VOL  31*song03DA_mvl/mxv
 BYTE   W03
 BYTE   VOL  21*song03DA_mvl/mxv
 BYTE   W03
 BYTE   VOL  14*song03DA_mvl/mxv
 BYTE   W03
 BYTE   VOL  7*song03DA_mvl/mxv
 BYTE   W03
 BYTE   VOL  2*song03DA_mvl/mxv
 BYTE   W03
 BYTE   VOL  0*song03DA_mvl/mxv
 BYTE   W03
 BYTE   VOL  0*song03DA_mvl/mxv
 BYTE   W03
 BYTE   VOL  75*song03DA_mvl/mxv
 BYTE   W48
//  #10 //028   ----------------------------------------
 BYTE   W12
 BYTE   N16 Gn2 v108
 BYTE   W24
 BYTE   N17 An2 v116
 BYTE   W24
 BYTE   N16 Bn2
 BYTE   W24
 BYTE   N07 Dn3 v108
 BYTE   W12
//  #10 //029   ----------------------------------------
 BYTE   N84 En3 v100
 BYTE   W96
//  #10 //030   ----------------------------------------
 BYTE   W12
 BYTE   N24 Cn3 v088
 BYTE   W24
 BYTE   N22 Dn3 v108
 BYTE   W24
 BYTE   N24 En3 v112
 BYTE   W24
 BYTE   N06 Gn3 v108
 BYTE   W12
//  #10 //031   ----------------------------------------
 BYTE   VOL  73*song03DA_mvl/mxv
 BYTE   N92 An3 v104
 BYTE   W06
 BYTE   VOL  73*song03DA_mvl/mxv
 BYTE   W06
 BYTE   VOL  74*song03DA_mvl/mxv
 BYTE   W56
 BYTE   W03
 BYTE   VOL  52*song03DA_mvl/mxv
 BYTE   W06
 BYTE   VOL  29*song03DA_mvl/mxv
 BYTE   W03
 BYTE   VOL  10*song03DA_mvl/mxv
 BYTE   W03
 BYTE   VOL  3*song03DA_mvl/mxv
 BYTE   W03
 BYTE   VOL  0*song03DA_mvl/mxv
 BYTE   W10
//  #10 //032   ----------------------------------------
 BYTE   VOL  74*song03DA_mvl/mxv
 BYTE   W12
 BYTE   N14 An2 v108
 BYTE   W24
 BYTE   N18 Bn2 v092
 BYTE   W24
 BYTE   N15 Cn3 v112
 BYTE   W24
 BYTE   N07 En3 v120
 BYTE   W12
//  #10 //033   ----------------------------------------
 BYTE   N80 Fs3 v108
 BYTE   W84
 BYTE   N05 Fs3 v112
 BYTE   W06
 BYTE   N04
 BYTE   W06
//  #10 //034   ----------------------------------------
 BYTE   N32 Fs3 v127
 BYTE   W36
 BYTE   N04
 BYTE   W06
 BYTE   N04
 BYTE   W06
 BYTE   N42 Bn3
 BYTE   W48
//  #10 //035   ----------------------------------------
 BYTE   VOL  74*song03DA_mvl/mxv
 BYTE   PAN  c_v+8
 BYTE   N44 Bn2 v024
 BYTE   W21
 BYTE   VOL  74*song03DA_mvl/mxv
 BYTE   W03
 BYTE   VOL  69*song03DA_mvl/mxv
 BYTE   W03
 BYTE   VOL  67*song03DA_mvl/mxv
 BYTE   W03
 BYTE   VOL  64*song03DA_mvl/mxv
 BYTE   W03
 BYTE   VOL  63*song03DA_mvl/mxv
 BYTE   W03
 BYTE   VOL  59*song03DA_mvl/mxv
 BYTE   W03
 BYTE   VOL  58*song03DA_mvl/mxv
 BYTE   W03
 BYTE   VOL  54*song03DA_mvl/mxv
 BYTE   W03
 BYTE   VOL  52*song03DA_mvl/mxv
 BYTE   W03
 BYTE   VOL  51*song03DA_mvl/mxv
 BYTE   N44 Bn2 v016
 BYTE   W03
 BYTE   VOL  47*song03DA_mvl/mxv
 BYTE   W03
 BYTE   VOL  46*song03DA_mvl/mxv
 BYTE   W03
 BYTE   VOL  44*song03DA_mvl/mxv
 BYTE   W03
 BYTE   VOL  42*song03DA_mvl/mxv
 BYTE   W03
 BYTE   VOL  41*song03DA_mvl/mxv
 BYTE   W03
 BYTE   VOL  40*song03DA_mvl/mxv
 BYTE   W09
 BYTE   VOL  39*song03DA_mvl/mxv
 BYTE   W03
 BYTE   VOL  38*song03DA_mvl/mxv
 BYTE   W06
 BYTE   VOL  37*song03DA_mvl/mxv
 BYTE   W06
 BYTE   VOL  35*song03DA_mvl/mxv
 BYTE   W03
 BYTE   VOL  35*song03DA_mvl/mxv
 BYTE   W03
//  #10 //036   ----------------------------------------
 BYTE   VOL  35*song03DA_mvl/mxv
 BYTE   N44
 BYTE   W03
 BYTE   VOL  34*song03DA_mvl/mxv
 BYTE   W03
 BYTE   VOL  33*song03DA_mvl/mxv
 BYTE   W09
 BYTE   VOL  31*song03DA_mvl/mxv
 BYTE   W15
 BYTE   VOL  31*song03DA_mvl/mxv
 BYTE   W03
 BYTE   VOL  31*song03DA_mvl/mxv
 BYTE   W03
 BYTE   VOL  29*song03DA_mvl/mxv
 BYTE   W03
 BYTE   VOL  28*song03DA_mvl/mxv
 BYTE   W06
 BYTE   VOL  27*song03DA_mvl/mxv
 BYTE   W03
 BYTE   VOL  26*song03DA_mvl/mxv
 BYTE   W03
 BYTE   VOL  23*song03DA_mvl/mxv
 BYTE   N44 Bn2 v012
 BYTE   W06
 BYTE   VOL  20*song03DA_mvl/mxv
 BYTE   W03
 BYTE   VOL  20*song03DA_mvl/mxv
 BYTE   W03
 BYTE   VOL  18*song03DA_mvl/mxv
 BYTE   W03
 BYTE   VOL  16*song03DA_mvl/mxv
 BYTE   W03
 BYTE   VOL  14*song03DA_mvl/mxv
 BYTE   W03
 BYTE   VOL  11*song03DA_mvl/mxv
 BYTE   W03
 BYTE   VOL  9*song03DA_mvl/mxv
 BYTE   W03
 BYTE   VOL  7*song03DA_mvl/mxv
 BYTE   W03
 BYTE   VOL  5*song03DA_mvl/mxv
 BYTE   W03
 BYTE   VOL  3*song03DA_mvl/mxv
 BYTE   W03
 BYTE   VOL  2*song03DA_mvl/mxv
 BYTE   W03
 BYTE   VOL  1*song03DA_mvl/mxv
 BYTE   W03
 BYTE   VOL  0*song03DA_mvl/mxv
 BYTE   W03
//  #10 //037   ----------------------------------------
 BYTE   VOL  0*song03DA_mvl/mxv
 BYTE   W03
 BYTE   VOL  0*song03DA_mvl/mxv
 BYTE   W24
 BYTE   W03
 BYTE   VOL  70*song03DA_mvl/mxv
 BYTE   W66
//  #10 //038   ----------------------------------------
 BYTE   W96
//  #10 //039   ----------------------------------------
 BYTE   W96
//  #10 //040   ----------------------------------------
 BYTE   W24
 BYTE   N72 Gn2 v072
 BYTE   W72
//  #10 //041   ----------------------------------------
 BYTE   W96
//  #10 //042   ----------------------------------------
 BYTE   W24
 BYTE   N64 An2 v076
 BYTE   W72
//  #10 //043   ----------------------------------------
 BYTE   W96
//  #10 //044   ----------------------------------------
 BYTE   W24
 BYTE   N68 Bn2 v080
 BYTE   W72
//  #10 //045   ----------------------------------------
 BYTE   W96
//  #10 //046   ----------------------------------------
 BYTE   W24
 BYTE   N56 Ds3 v088
 BYTE   W72
//  #10 //047   ----------------------------------------
 BYTE   W96
//  #10 //048   ----------------------------------------
 BYTE   W96
//  #10 //049   ----------------------------------------
 BYTE   W96
//  #10 //050   ----------------------------------------
 BYTE   W96
//  #10 //051   ----------------------------------------
 BYTE   W24
 BYTE   N24 Bn1 v052
 BYTE   W48
 BYTE   N28
 BYTE   W24
//  #10 //052   ----------------------------------------
 BYTE   W24
 BYTE   Bn1 v076
 BYTE   W48
 BYTE   N24 Bn1 v088
 BYTE   W24
//  #10 //053   ----------------------------------------
 BYTE   W24
 BYTE   N28 Bn1 v100
 BYTE   W48
 BYTE   Bn1 v104
 BYTE   W24
//  #10 //054   ----------------------------------------
 BYTE   W24
 BYTE   N30 Bn1 v112
 BYTE   W48
 BYTE   N28
 BYTE   W24
//  #10 //055   ----------------------------------------
 BYTE   W24
 BYTE   N30 Bn1 v116
 BYTE   W48
 BYTE   N24 Bn1 v084
 BYTE   W24
//  #10 //056   ----------------------------------------
 BYTE   N48 Gn2 v076
 BYTE   W96
//  #10 //057   ----------------------------------------
 BYTE   W96
//  #10 //058   ----------------------------------------
 BYTE   W96
//  #10 //059   ----------------------------------------
 BYTE   W96
//  #10 //060   ----------------------------------------
 BYTE   W96
//  #10 //061   ----------------------------------------
 BYTE   W96
//  #10 //062   ----------------------------------------
 BYTE   W96
//  #10 //063   ----------------------------------------
 BYTE   W92
 BYTE   W01
 BYTE   Dn3 v092
 BYTE   W03
//  #10 //064   ----------------------------------------
 BYTE   W44
 BYTE   W03
 BYTE   N44 Gn3 v084
 BYTE   W48
 BYTE   N48 Dn3 v076
 BYTE   W01
//  #10 //065   ----------------------------------------
 BYTE   W48
 BYTE   W02
 BYTE   Fn3 v084
 BYTE   W44
 BYTE   W02
//  #10 //066   ----------------------------------------
 BYTE   W03
 BYTE   N22 Dn3 v076
 BYTE   W21
 BYTE   TIE Gn3 v068
 BYTE   W72
//  #10 //067   ----------------------------------------
 BYTE   W60
 BYTE   W02
 BYTE   EOT
 BYTE   W32
 BYTE   W02
//  #10 //068   ----------------------------------------
 BYTE   W01
 BYTE   N48 Dn3 v076
 BYTE   W48
 BYTE   W02
 BYTE   N44 Gn3 v080
 BYTE   W44
 BYTE   W01
//  #10 //069   ----------------------------------------
 BYTE   W01
 BYTE   N48 Dn3 v052
 BYTE   W44
 BYTE   W03
 BYTE   Fn3 v076
 BYTE   W48
//  #10 //070   ----------------------------------------
 BYTE   W01
 BYTE   N24 Dn3 v072
 BYTE   W22
 BYTE   TIE Gn3 v064
 BYTE   W72
 BYTE   W01
//  #10 //071   ----------------------------------------
 BYTE   W76
 BYTE   W01
 BYTE   EOT
 BYTE   W19
//  #10 //072   ----------------------------------------
 BYTE   W96
//  #10 //073   ----------------------------------------
 BYTE   W96
//  #10 //074   ----------------------------------------
 BYTE   W96
//  #10 //075   ----------------------------------------
 BYTE   W96
//  #10 //076   ----------------------------------------
 BYTE   W96
//  #10 //077   ----------------------------------------
 BYTE   W96
//  #10 //078   ----------------------------------------
 BYTE   W96
//  #10 //079   ----------------------------------------
 BYTE   W96
//  #10 //080   ----------------------------------------
 BYTE   W96
//  #10 //081   ----------------------------------------
 BYTE   W96
//  #10 //082   ----------------------------------------
 BYTE   W96
//  #10 //083   ----------------------------------------
 BYTE   W96
//  #10 //084   ----------------------------------------
 BYTE   W96
//  #10 //085   ----------------------------------------
 BYTE   W96
//  #10 //086   ----------------------------------------
 BYTE   W96
//  #10 //087   ----------------------------------------
 BYTE   W96
//  #10 //088   ----------------------------------------
 BYTE   W96
//  #10 //089   ----------------------------------------
 BYTE   W96
//  #10 //090   ----------------------------------------
 BYTE   W96
//  #10 //091   ----------------------------------------
 BYTE   W96
//  #10 //092   ----------------------------------------
 BYTE   W96
//  #10 //093   ----------------------------------------
 BYTE   W96
//  #10 //094   ----------------------------------------
 BYTE   W96
//  #10 //095   ----------------------------------------
 BYTE   W96
//  #10 //096   ----------------------------------------
 BYTE   W96
//  #10 //097   ----------------------------------------
 BYTE   W96
//  #10 //098   ----------------------------------------
 BYTE   W96
//  #10 //099   ----------------------------------------
 BYTE   W96
//  #10 //100   ----------------------------------------
 BYTE   W96
//  #10 //101   ----------------------------------------
 BYTE   W96
//  #10 //102   ----------------------------------------
 BYTE   W96
//  #10 //103   ----------------------------------------
 BYTE   W96
//  #10 //104   ----------------------------------------
 BYTE   W96
//  #10 //105   ----------------------------------------
 BYTE   W96
//  #10 //106   ----------------------------------------
 BYTE   W96
//  #10 //107   ----------------------------------------
 BYTE   W96
//  #10 //108   ----------------------------------------
 BYTE   W96
//  #10 //109   ----------------------------------------
 BYTE   W96
//  #10 //110   ----------------------------------------
 BYTE   W96
//  #10 //111   ----------------------------------------
 BYTE   GoTo
  POIN2 Label_0100CDF1
//  #10 //112   ----------------------------------------
 BYTE   W96
 BYTE   FINE

//**************** Track 11 (Midi-Chn.10) ****************//

song03DA_011:
//  #11 //000   ----------------------------------------
 BYTE   KEYSH  song03DA_key+0
 BYTE   VOICE  57
 BYTE   MODT 0
 BYTE   LFOS 44
 BYTE   PAN  c_v+43
 BYTE   VOL  34*song03DA_mvl/mxv
 BYTE   W48
 BYTE   N48 Fs1 v116
 BYTE   W48
//  #11 //001   ----------------------------------------
Label_010147E1:
 BYTE   VOL  34*song03DA_mvl/mxv
 BYTE   N96 Gn1 v120
 BYTE   W24
 BYTE   VOL  33*song03DA_mvl/mxv
 BYTE   W03
 BYTE   VOL  29*song03DA_mvl/mxv
 BYTE   W03
 BYTE   VOL  23*song03DA_mvl/mxv
 BYTE   W03
 BYTE   VOL  18*song03DA_mvl/mxv
 BYTE   W03
 BYTE   VOL  15*song03DA_mvl/mxv
 BYTE   W03
 BYTE   VOL  12*song03DA_mvl/mxv
 BYTE   W03
 BYTE   VOL  8*song03DA_mvl/mxv
 BYTE   W03
 BYTE   VOL  5*song03DA_mvl/mxv
 BYTE   W03
 BYTE   VOL  2*song03DA_mvl/mxv
 BYTE   W03
 BYTE   VOL  0*song03DA_mvl/mxv
 BYTE   W03
 BYTE   VOL  0*song03DA_mvl/mxv
 BYTE   W03
 BYTE   VOL  0*song03DA_mvl/mxv
 BYTE   W03
 BYTE   VOL  0*song03DA_mvl/mxv
 BYTE   W03
 BYTE   VOL  0*song03DA_mvl/mxv
 BYTE   W03
 BYTE   VOL  0*song03DA_mvl/mxv
 BYTE   W03
 BYTE   VOL  0*song03DA_mvl/mxv
 BYTE   W03
 BYTE   VOL  0*song03DA_mvl/mxv
 BYTE   W03
 BYTE   VOL  0*song03DA_mvl/mxv
 BYTE   W03
 BYTE   VOL  0*song03DA_mvl/mxv
 BYTE   W03
 BYTE   VOL  0*song03DA_mvl/mxv
 BYTE   W03
 BYTE   VOL  0*song03DA_mvl/mxv
 BYTE   W03
 BYTE   VOL  0*song03DA_mvl/mxv
 BYTE   W03
 BYTE   VOL  0*song03DA_mvl/mxv
 BYTE   W06
//  #11 //002   ----------------------------------------
 BYTE   W12
 BYTE   VOL  38*song03DA_mvl/mxv
 BYTE   W84
//  #11 //003   ----------------------------------------
 BYTE   W96
//  #11 //004   ----------------------------------------
 BYTE   W96
//  #11 //005   ----------------------------------------
 BYTE   W96
//  #11 //006   ----------------------------------------
 BYTE   W96
//  #11 //007   ----------------------------------------
 BYTE   W96
//  #11 //008   ----------------------------------------
 BYTE   W96
//  #11 //009   ----------------------------------------
 BYTE   W96
//  #11 //010   ----------------------------------------
 BYTE   W96
//  #11 //011   ----------------------------------------
 BYTE   W96
//  #11 //012   ----------------------------------------
 BYTE   W96
//  #11 //013   ----------------------------------------
 BYTE   W96
//  #11 //014   ----------------------------------------
 BYTE   W96
//  #11 //015   ----------------------------------------
 BYTE   W96
//  #11 //016   ----------------------------------------
 BYTE   W96
//  #11 //017   ----------------------------------------
 BYTE   W96
//  #11 //018   ----------------------------------------
 BYTE   W96
//  #11 //019   ----------------------------------------
 BYTE   VOL  77*song03DA_mvl/mxv
 BYTE   W96
//  #11 //020   ----------------------------------------
 BYTE   W96
//  #11 //021   ----------------------------------------
 BYTE   W24
 BYTE   N07 Fs2 v080
 BYTE   W24
 BYTE   An2 v064
 BYTE   W24
 BYTE   N06 Cn3 v084
 BYTE   W24
//  #11 //022   ----------------------------------------
 BYTE   N05 Fs2 v072
 BYTE   W18
 BYTE   N04 An2 v076
 BYTE   W06
 BYTE   N36 An2 v096
 BYTE   W48
 BYTE   N06 An2 v088
 BYTE   W06
 BYTE   Fs2 v056
 BYTE   W06
 BYTE   Ds2 v064
 BYTE   W06
 BYTE   N05 Cn2 v044
 BYTE   W06
//  #11 //023   ----------------------------------------
 BYTE   N96 Bn1 v056
 BYTE   W24
 BYTE   VOL  32*song03DA_mvl/mxv
 BYTE   W03
 BYTE   VOL  22*song03DA_mvl/mxv
 BYTE   W12
 BYTE   VOL  14*song03DA_mvl/mxv
 BYTE   W06
 BYTE   VOL  5*song03DA_mvl/mxv
 BYTE   W03
 BYTE   VOL  1*song03DA_mvl/mxv
 BYTE   W03
 BYTE   VOL  0*song03DA_mvl/mxv
 BYTE   W03
 BYTE   VOL  0*song03DA_mvl/mxv
 BYTE   W42
//  #11 //024   ----------------------------------------
 BYTE   VOL  73*song03DA_mvl/mxv
 BYTE   W96
//  #11 //025   ----------------------------------------
 BYTE   W24
 BYTE   N08 En2 v080
 BYTE   W24
 BYTE   N10 Gn2
 BYTE   W24
 BYTE   Bn2 v076
 BYTE   W24
//  #11 //026   ----------------------------------------
 BYTE   N08 En2 v072
 BYTE   W18
 BYTE   N05 Gn2 v076
 BYTE   W06
 BYTE   N36 Gn2 v080
 BYTE   W48
 BYTE   N06 Gn2 v084
 BYTE   W06
 BYTE   VOL  73*song03DA_mvl/mxv
 BYTE   N06 En2
 BYTE   W06
 BYTE   Cn2 v064
 BYTE   W06
 BYTE   An1
 BYTE   W06
//  #11 //027   ----------------------------------------
 BYTE   N32 Gn1 v084
 BYTE   W24
 BYTE   VOL  40*song03DA_mvl/mxv
 BYTE   W03
 BYTE   VOL  31*song03DA_mvl/mxv
 BYTE   W03
 BYTE   VOL  21*song03DA_mvl/mxv
 BYTE   W03
 BYTE   VOL  14*song03DA_mvl/mxv
 BYTE   W03
 BYTE   VOL  7*song03DA_mvl/mxv
 BYTE   W03
 BYTE   VOL  2*song03DA_mvl/mxv
 BYTE   W03
 BYTE   VOL  0*song03DA_mvl/mxv
 BYTE   W03
 BYTE   VOL  0*song03DA_mvl/mxv
 BYTE   W03
 BYTE   VOL  75*song03DA_mvl/mxv
 BYTE   W48
//  #11 //028   ----------------------------------------
 BYTE   W12
 BYTE   N16 Gn1 v080
 BYTE   W24
 BYTE   N17 An1 v088
 BYTE   W24
 BYTE   N16 Bn1
 BYTE   W24
 BYTE   N07 Dn2 v080
 BYTE   W12
//  #11 //029   ----------------------------------------
 BYTE   N84 En2 v076
 BYTE   W96
//  #11 //030   ----------------------------------------
 BYTE   W12
 BYTE   N24 Cn2 v064
 BYTE   W24
 BYTE   N22 Dn2 v080
 BYTE   W24
 BYTE   N24 En2 v084
 BYTE   W24
 BYTE   N06 Gn2
 BYTE   W12
//  #11 //031   ----------------------------------------
 BYTE   VOL  73*song03DA_mvl/mxv
 BYTE   N92 An2 v080
 BYTE   W06
 BYTE   VOL  73*song03DA_mvl/mxv
 BYTE   W06
 BYTE   VOL  74*song03DA_mvl/mxv
 BYTE   W56
 BYTE   W03
 BYTE   VOL  52*song03DA_mvl/mxv
 BYTE   W06
 BYTE   VOL  29*song03DA_mvl/mxv
 BYTE   W03
 BYTE   VOL  10*song03DA_mvl/mxv
 BYTE   W03
 BYTE   VOL  3*song03DA_mvl/mxv
 BYTE   W03
 BYTE   VOL  0*song03DA_mvl/mxv
 BYTE   W10
//  #11 //032   ----------------------------------------
 BYTE   VOL  74*song03DA_mvl/mxv
 BYTE   W12
 BYTE   N14 An1
 BYTE   W24
 BYTE   N18 Bn1 v068
 BYTE   W24
 BYTE   N15 Cn2 v088
 BYTE   W24
 BYTE   N07 En2 v092
 BYTE   W12
//  #11 //033   ----------------------------------------
 BYTE   N80 Fs2 v084
 BYTE   W84
 BYTE   N05
 BYTE   W06
 BYTE   N04
 BYTE   W06
//  #11 //034   ----------------------------------------
 BYTE   N32 Fs2 v100
 BYTE   W36
 BYTE   N04
 BYTE   W06
 BYTE   N04
 BYTE   W06
 BYTE   N48 Bn2
 BYTE   W48
//  #11 //035   ----------------------------------------
 BYTE   VOL  38*song03DA_mvl/mxv
 BYTE   PAN  c_v+43
 BYTE   W96
//  #11 //036   ----------------------------------------
 BYTE   W96
//  #11 //037   ----------------------------------------
 BYTE   W96
//  #11 //038   ----------------------------------------
 BYTE   W96
//  #11 //039   ----------------------------------------
 BYTE   W96
//  #11 //040   ----------------------------------------
 BYTE   W24
 BYTE   N72 Gn1 v072
 BYTE   W72
//  #11 //041   ----------------------------------------
 BYTE   W96
//  #11 //042   ----------------------------------------
 BYTE   W24
 BYTE   N64 An1 v076
 BYTE   W72
//  #11 //043   ----------------------------------------
 BYTE   W96
//  #11 //044   ----------------------------------------
 BYTE   W24
 BYTE   N68 Bn1 v080
 BYTE   W72
//  #11 //045   ----------------------------------------
 BYTE   W96
//  #11 //046   ----------------------------------------
 BYTE   W24
 BYTE   N56 Ds2 v088
 BYTE   W72
//  #11 //047   ----------------------------------------
 BYTE   W96
//  #11 //048   ----------------------------------------
 BYTE   W96
//  #11 //049   ----------------------------------------
 BYTE   W96
//  #11 //050   ----------------------------------------
 BYTE   W96
//  #11 //051   ----------------------------------------
 BYTE   W24
 BYTE   N24 Bn1 v052
 BYTE   W48
 BYTE   N28
 BYTE   W24
//  #11 //052   ----------------------------------------
 BYTE   W24
 BYTE   Bn1 v076
 BYTE   W48
 BYTE   N24 Bn1 v088
 BYTE   W24
//  #11 //053   ----------------------------------------
 BYTE   W24
 BYTE   N28 Bn1 v100
 BYTE   W48
 BYTE   Bn1 v104
 BYTE   W24
//  #11 //054   ----------------------------------------
 BYTE   W24
 BYTE   N30 Bn1 v112
 BYTE   W48
 BYTE   N28
 BYTE   W24
//  #11 //055   ----------------------------------------
 BYTE   W24
 BYTE   N30 Bn1 v116
 BYTE   W48
 BYTE   N24 Bn1 v068
 BYTE   W24
//  #11 //056   ----------------------------------------
 BYTE   N48 Gn2 v080
 BYTE   W96
//  #11 //057   ----------------------------------------
 BYTE   W96
//  #11 //058   ----------------------------------------
 BYTE   W96
//  #11 //059   ----------------------------------------
 BYTE   W96
//  #11 //060   ----------------------------------------
 BYTE   W96
//  #11 //061   ----------------------------------------
 BYTE   W96
//  #11 //062   ----------------------------------------
 BYTE   W96
//  #11 //063   ----------------------------------------
 BYTE   W96
//  #11 //064   ----------------------------------------
 BYTE   W96
//  #11 //065   ----------------------------------------
 BYTE   W96
//  #11 //066   ----------------------------------------
 BYTE   W96
//  #11 //067   ----------------------------------------
 BYTE   W96
//  #11 //068   ----------------------------------------
 BYTE   N44 Dn3 v064
 BYTE   W48
 BYTE   N48 As2 v040
 BYTE   W48
//  #11 //069   ----------------------------------------
 BYTE   Gn2 v052
 BYTE   W48
 BYTE   W03
 BYTE   N44 Dn2 v032
 BYTE   W44
 BYTE   W01
//  #11 //070   ----------------------------------------
 BYTE   N21 Gn2 v048
 BYTE   W21
 BYTE   TIE Dn2 v044
 BYTE   W72
 BYTE   W03
//  #11 //071   ----------------------------------------
 BYTE   W68
 BYTE   W01
 BYTE   EOT
 BYTE   W24
 BYTE   W03
//  #11 //072   ----------------------------------------
 BYTE   W96
//  #11 //073   ----------------------------------------
 BYTE   W96
//  #11 //074   ----------------------------------------
 BYTE   VOL  77*song03DA_mvl/mxv
 BYTE   PAN  c_v+8
 BYTE   W96
//  #11 //075   ----------------------------------------
 BYTE   W96
//  #11 //076   ----------------------------------------
 BYTE   N03 Gn2 v080
 BYTE   W03
 BYTE   An2
 BYTE   W21
 BYTE   An2 v104
 BYTE   W03
 BYTE   Cn3 v080
 BYTE   W21
 BYTE   Cn3 v088
 BYTE   W03
 BYTE   Ds3 v080
 BYTE   W21
 BYTE   Ds3 v108
 BYTE   W03
 BYTE   Gn3 v080
 BYTE   W21
//  #11 //077   ----------------------------------------
 BYTE   N05 An2 v096
 BYTE   W18
 BYTE   N04 An3 v100
 BYTE   W06
 BYTE   N56 An3 v124
 BYTE   W60
 BYTE   N06 An3 v112
 BYTE   W06
 BYTE   Cn3 v088
 BYTE   W06
//  #11 //078   ----------------------------------------
 BYTE   N96 An2 v080
 BYTE   W24
 BYTE   VOL  32*song03DA_mvl/mxv
 BYTE   W03
 BYTE   VOL  22*song03DA_mvl/mxv
 BYTE   W12
 BYTE   VOL  14*song03DA_mvl/mxv
 BYTE   W06
 BYTE   VOL  5*song03DA_mvl/mxv
 BYTE   W03
 BYTE   VOL  1*song03DA_mvl/mxv
 BYTE   W03
 BYTE   VOL  0*song03DA_mvl/mxv
 BYTE   W03
 BYTE   VOL  0*song03DA_mvl/mxv
 BYTE   W42
//  #11 //079   ----------------------------------------
 BYTE   VOL  74*song03DA_mvl/mxv
 BYTE   W96
//  #11 //080   ----------------------------------------
 BYTE   N03 Gn2 v127
 BYTE   W03
 BYTE   As2
 BYTE   W21
 BYTE   N03
 BYTE   W03
 BYTE   Dn3
 BYTE   W21
 BYTE   N03
 BYTE   W03
 BYTE   Gn3
 BYTE   W21
 BYTE   N06 An3 v100
 BYTE   W06
 BYTE   N04 As3
 BYTE   W18
//  #11 //081   ----------------------------------------
 BYTE   N08 Gn3
 BYTE   W18
 BYTE   N05 As3
 BYTE   W06
 BYTE   N36 As3 v108
 BYTE   W60
 BYTE   N06 As3 v100
 BYTE   W06
 BYTE   Dn3
 BYTE   W06
//  #11 //082   ----------------------------------------
 BYTE   N72 As2 v112
 BYTE   W19
 BYTE   VOL  58*song03DA_mvl/mxv
 BYTE   W02
 BYTE   VOL  58*song03DA_mvl/mxv
 BYTE   W03
 BYTE   VOL  58*song03DA_mvl/mxv
 BYTE   W03
 BYTE   VOL  58*song03DA_mvl/mxv
 BYTE   W03
 BYTE   VOL  58*song03DA_mvl/mxv
 BYTE   W03
 BYTE   VOL  56*song03DA_mvl/mxv
 BYTE   W03
 BYTE   VOL  54*song03DA_mvl/mxv
 BYTE   W03
 BYTE   VOL  50*song03DA_mvl/mxv
 BYTE   W03
 BYTE   VOL  43*song03DA_mvl/mxv
 BYTE   W03
 BYTE   VOL  35*song03DA_mvl/mxv
 BYTE   W01
 BYTE   VOL  29*song03DA_mvl/mxv
 BYTE   W02
 BYTE   VOL  27*song03DA_mvl/mxv
 BYTE   W01
 BYTE   VOL  25*song03DA_mvl/mxv
 BYTE   W02
 BYTE   VOL  21*song03DA_mvl/mxv
 BYTE   W01
 BYTE   VOL  20*song03DA_mvl/mxv
 BYTE   W02
 BYTE   VOL  19*song03DA_mvl/mxv
 BYTE   W01
 BYTE   VOL  17*song03DA_mvl/mxv
 BYTE   W03
 BYTE   VOL  14*song03DA_mvl/mxv
 BYTE   W02
 BYTE   VOL  12*song03DA_mvl/mxv
 BYTE   W01
 BYTE   VOL  12*song03DA_mvl/mxv
 BYTE   W02
 BYTE   VOL  10*song03DA_mvl/mxv
 BYTE   W01
 BYTE   VOL  8*song03DA_mvl/mxv
 BYTE   W02
 BYTE   VOL  5*song03DA_mvl/mxv
 BYTE   W01
 BYTE   VOL  3*song03DA_mvl/mxv
 BYTE   W02
 BYTE   VOL  1*song03DA_mvl/mxv
 BYTE   W01
 BYTE   VOL  0*song03DA_mvl/mxv
 BYTE   W02
 BYTE   VOL  0*song03DA_mvl/mxv
 BYTE   W21
 BYTE   VOL  73*song03DA_mvl/mxv
 BYTE   W03
//  #11 //083   ----------------------------------------
 BYTE   W12
 BYTE   N16 As2 v108
 BYTE   W24
 BYTE   N17 Cn3 v116
 BYTE   W24
 BYTE   N16 Dn3
 BYTE   W24
 BYTE   N07 Fn3 v108
 BYTE   W12
//  #11 //084   ----------------------------------------
 BYTE   N84 Gn3 v100
 BYTE   W96
//  #11 //085   ----------------------------------------
 BYTE   W12
 BYTE   N24 Ds2 v088
 BYTE   W24
 BYTE   N22 Fn2 v108
 BYTE   W24
 BYTE   N10 Gn2 v112
 BYTE   W12
 BYTE   N12 As2 v104
 BYTE   W12
 BYTE   Cn3 v108
 BYTE   W12
//  #11 //086   ----------------------------------------
 BYTE   VOL  73*song03DA_mvl/mxv
 BYTE   N92 Gn3 v104
 BYTE   W06
 BYTE   VOL  73*song03DA_mvl/mxv
 BYTE   W06
 BYTE   VOL  74*song03DA_mvl/mxv
 BYTE   W56
 BYTE   W03
 BYTE   VOL  52*song03DA_mvl/mxv
 BYTE   W06
 BYTE   VOL  29*song03DA_mvl/mxv
 BYTE   W03
 BYTE   VOL  10*song03DA_mvl/mxv
 BYTE   W03
 BYTE   VOL  3*song03DA_mvl/mxv
 BYTE   W03
 BYTE   VOL  0*song03DA_mvl/mxv
 BYTE   W10
//  #11 //087   ----------------------------------------
 BYTE   VOL  74*song03DA_mvl/mxv
 BYTE   W12
 BYTE   N14 Cn3 v108
 BYTE   W24
 BYTE   N18 Dn3 v092
 BYTE   W24
 BYTE   N15 Fn3 v112
 BYTE   W24
 BYTE   N07 Gn3 v120
 BYTE   W12
//  #11 //088   ----------------------------------------
 BYTE   N80 An3 v108
 BYTE   W84
 BYTE   N05 An3 v112
 BYTE   W06
 BYTE   N04
 BYTE   W06
//  #11 //089   ----------------------------------------
 BYTE   N32 An3 v127
 BYTE   W36
 BYTE   N04
 BYTE   W06
 BYTE   N04
 BYTE   W06
 BYTE   N48 Dn4
 BYTE   W36
 BYTE   VOL  69*song03DA_mvl/mxv
 BYTE   W01
 BYTE   VOL  66*song03DA_mvl/mxv
 BYTE   W02
 BYTE   VOL  56*song03DA_mvl/mxv
 BYTE   W01
 BYTE   VOL  47*song03DA_mvl/mxv
 BYTE   W02
 BYTE   VOL  42*song03DA_mvl/mxv
 BYTE   W01
 BYTE   VOL  37*song03DA_mvl/mxv
 BYTE   W02
 BYTE   VOL  30*song03DA_mvl/mxv
 BYTE   W01
 BYTE   VOL  26*song03DA_mvl/mxv
 BYTE   W02
//  #11 //090   ----------------------------------------
 BYTE   VOL  21*song03DA_mvl/mxv
 BYTE   W01
 BYTE   VOL  18*song03DA_mvl/mxv
 BYTE   W02
 BYTE   VOL  16*song03DA_mvl/mxv
 BYTE   W92
 BYTE   W01
//  #11 //091   ----------------------------------------
 BYTE   W48
 BYTE   VOL  26*song03DA_mvl/mxv
 BYTE   W48
//  #11 //092   ----------------------------------------
 BYTE   PAN  c_v+43
 BYTE   VOL  74*song03DA_mvl/mxv
 BYTE   W96
//  #11 //093   ----------------------------------------
 BYTE   W96
//  #11 //094   ----------------------------------------
 BYTE   W96
//  #11 //095   ----------------------------------------
 BYTE   W24
 BYTE   N72 As1 v072
 BYTE   W72
//  #11 //096   ----------------------------------------
 BYTE   W96
//  #11 //097   ----------------------------------------
 BYTE   W24
 BYTE   Cn2 v076
 BYTE   W72
//  #11 //098   ----------------------------------------
 BYTE   W96
//  #11 //099   ----------------------------------------
 BYTE   W24
 BYTE   Dn2 v080
 BYTE   W72
//  #11 //100   ----------------------------------------
 BYTE   W96
//  #11 //101   ----------------------------------------
 BYTE   W24
 BYTE   Fs2 v088
 BYTE   W72
//  #11 //102   ----------------------------------------
 BYTE   W96
//  #11 //103   ----------------------------------------
 BYTE   W96
//  #11 //104   ----------------------------------------
 BYTE   W96
//  #11 //105   ----------------------------------------
 BYTE   W96
//  #11 //106   ----------------------------------------
 BYTE   W96
//  #11 //107   ----------------------------------------
 BYTE   W96
//  #11 //108   ----------------------------------------
 BYTE   W96
//  #11 //109   ----------------------------------------
 BYTE   W96
//  #11 //110   ----------------------------------------
 BYTE   W96
//  #11 //111   ----------------------------------------
 BYTE   GoTo
  POIN2 Label_010147E1
//  #11 //112   ----------------------------------------
 BYTE   N96 Gn2 v080
 BYTE   W96
 BYTE   FINE

//**************** Track 12 (Midi-Chn.11) ****************//

song03DA_012:
//  #12 //000   ----------------------------------------
 BYTE   KEYSH  song03DA_key+0
 BYTE   VOICE  60
 BYTE   MODT 0
 BYTE   LFOS 44
 BYTE   PAN  c_v+43
 BYTE   VOL  34*song03DA_mvl/mxv
 BYTE   W48
 BYTE   N48 Fs0 v116
 BYTE   W48
//  #12 //001   ----------------------------------------
Label_0100F0A9:
 BYTE   VOL  34*song03DA_mvl/mxv
 BYTE   N96 Gn0 v120
 BYTE   W24
 BYTE   VOL  33*song03DA_mvl/mxv
 BYTE   W03
 BYTE   VOL  29*song03DA_mvl/mxv
 BYTE   W03
 BYTE   VOL  23*song03DA_mvl/mxv
 BYTE   W03
 BYTE   VOL  18*song03DA_mvl/mxv
 BYTE   W03
 BYTE   VOL  15*song03DA_mvl/mxv
 BYTE   W03
 BYTE   VOL  12*song03DA_mvl/mxv
 BYTE   W03
 BYTE   VOL  8*song03DA_mvl/mxv
 BYTE   W03
 BYTE   VOL  5*song03DA_mvl/mxv
 BYTE   W03
 BYTE   VOL  2*song03DA_mvl/mxv
 BYTE   W03
 BYTE   VOL  0*song03DA_mvl/mxv
 BYTE   W03
 BYTE   VOL  0*song03DA_mvl/mxv
 BYTE   W03
 BYTE   VOL  0*song03DA_mvl/mxv
 BYTE   W03
 BYTE   VOL  0*song03DA_mvl/mxv
 BYTE   W03
 BYTE   VOL  0*song03DA_mvl/mxv
 BYTE   W03
 BYTE   VOL  0*song03DA_mvl/mxv
 BYTE   W03
 BYTE   VOL  0*song03DA_mvl/mxv
 BYTE   W03
 BYTE   VOL  0*song03DA_mvl/mxv
 BYTE   W03
 BYTE   VOL  0*song03DA_mvl/mxv
 BYTE   W03
 BYTE   VOL  0*song03DA_mvl/mxv
 BYTE   W03
 BYTE   VOL  0*song03DA_mvl/mxv
 BYTE   W03
 BYTE   VOL  0*song03DA_mvl/mxv
 BYTE   W03
 BYTE   VOL  0*song03DA_mvl/mxv
 BYTE   W03
 BYTE   VOL  0*song03DA_mvl/mxv
 BYTE   W06
//  #12 //002   ----------------------------------------
 BYTE   W12
 BYTE   VOL  38*song03DA_mvl/mxv
 BYTE   W84
//  #12 //003   ----------------------------------------
 BYTE   W96
//  #12 //004   ----------------------------------------
 BYTE   W96
//  #12 //005   ----------------------------------------
 BYTE   W96
//  #12 //006   ----------------------------------------
 BYTE   W96
//  #12 //007   ----------------------------------------
 BYTE   W96
//  #12 //008   ----------------------------------------
 BYTE   W96
//  #12 //009   ----------------------------------------
 BYTE   W96
//  #12 //010   ----------------------------------------
 BYTE   W96
//  #12 //011   ----------------------------------------
 BYTE   W96
//  #12 //012   ----------------------------------------
 BYTE   W96
//  #12 //013   ----------------------------------------
 BYTE   W96
//  #12 //014   ----------------------------------------
 BYTE   W96
//  #12 //015   ----------------------------------------
 BYTE   W96
//  #12 //016   ----------------------------------------
 BYTE   W96
//  #12 //017   ----------------------------------------
 BYTE   W96
//  #12 //018   ----------------------------------------
 BYTE   W96
//  #12 //019   ----------------------------------------
 BYTE   VOL  36*song03DA_mvl/mxv
 BYTE   W24
 BYTE   N68 Gn1 v068
 BYTE   W72
//  #12 //020   ----------------------------------------
 BYTE   W24
 BYTE   N68
 BYTE   W72
//  #12 //021   ----------------------------------------
 BYTE   W24
 BYTE   N66 An1 v064
 BYTE   W72
//  #12 //022   ----------------------------------------
 BYTE   W24
 BYTE   N66
 BYTE   W72
//  #12 //023   ----------------------------------------
 BYTE   W24
 BYTE   N68 Fs1 v068
 BYTE   W72
//  #12 //024   ----------------------------------------
 BYTE   W24
 BYTE   N64
 BYTE   W72
//  #12 //025   ----------------------------------------
 BYTE   W24
 BYTE   N60 Gn1 v064
 BYTE   W72
//  #12 //026   ----------------------------------------
 BYTE   W24
 BYTE   N52 Gn1 v068
 BYTE   W72
//  #12 //027   ----------------------------------------
 BYTE   W24
 BYTE   N68 En1
 BYTE   W72
//  #12 //028   ----------------------------------------
 BYTE   W24
 BYTE   N72
 BYTE   W72
//  #12 //029   ----------------------------------------
 BYTE   W24
 BYTE   N68 Cn1 v064
 BYTE   W72
//  #12 //030   ----------------------------------------
 BYTE   W24
 BYTE   N68
 BYTE   W72
//  #12 //031   ----------------------------------------
 BYTE   W24
 BYTE   N60 An1 v076
 BYTE   W72
//  #12 //032   ----------------------------------------
 BYTE   W24
 BYTE   An1 v068
 BYTE   W72
//  #12 //033   ----------------------------------------
 BYTE   W24
 BYTE   Fs1 v064
 BYTE   W72
//  #12 //034   ----------------------------------------
 BYTE   W24
 BYTE   Fs1 v060
 BYTE   W72
//  #12 //035   ----------------------------------------
 BYTE   W96
//  #12 //036   ----------------------------------------
 BYTE   W96
//  #12 //037   ----------------------------------------
 BYTE   W96
//  #12 //038   ----------------------------------------
 BYTE   W96
//  #12 //039   ----------------------------------------
 BYTE   W96
//  #12 //040   ----------------------------------------
 BYTE   W24
 BYTE   N72 Gn0 v072
 BYTE   W72
//  #12 //041   ----------------------------------------
 BYTE   W96
//  #12 //042   ----------------------------------------
 BYTE   W24
 BYTE   N64 An0 v076
 BYTE   W72
//  #12 //043   ----------------------------------------
 BYTE   W96
//  #12 //044   ----------------------------------------
 BYTE   W24
 BYTE   N68 Bn0 v080
 BYTE   W72
//  #12 //045   ----------------------------------------
 BYTE   W96
//  #12 //046   ----------------------------------------
 BYTE   W24
 BYTE   N56 Ds1 v088
 BYTE   W72
//  #12 //047   ----------------------------------------
 BYTE   W96
//  #12 //048   ----------------------------------------
 BYTE   W96
//  #12 //049   ----------------------------------------
 BYTE   W96
//  #12 //050   ----------------------------------------
 BYTE   W96
//  #12 //051   ----------------------------------------
 BYTE   W24
 BYTE   N24 Bn0 v052
 BYTE   W48
 BYTE   N28
 BYTE   W24
//  #12 //052   ----------------------------------------
 BYTE   W24
 BYTE   Bn0 v076
 BYTE   W48
 BYTE   N24 Bn0 v088
 BYTE   W24
//  #12 //053   ----------------------------------------
 BYTE   W24
 BYTE   N28 Bn0 v100
 BYTE   W48
 BYTE   Bn0 v104
 BYTE   W24
//  #12 //054   ----------------------------------------
 BYTE   W24
 BYTE   N30 Bn0 v112
 BYTE   W48
 BYTE   N28
 BYTE   W24
//  #12 //055   ----------------------------------------
 BYTE   W24
 BYTE   N30 Bn0 v116
 BYTE   W48
 BYTE   N24 Bn0 v068
 BYTE   W24
//  #12 //056   ----------------------------------------
 BYTE   N48 Gn1 v080
 BYTE   W96
//  #12 //057   ----------------------------------------
 BYTE   W96
//  #12 //058   ----------------------------------------
 BYTE   W96
//  #12 //059   ----------------------------------------
 BYTE   W96
//  #12 //060   ----------------------------------------
 BYTE   W96
//  #12 //061   ----------------------------------------
 BYTE   W96
//  #12 //062   ----------------------------------------
 BYTE   W96
//  #12 //063   ----------------------------------------
 BYTE   W96
//  #12 //064   ----------------------------------------
 BYTE   W96
//  #12 //065   ----------------------------------------
 BYTE   W96
//  #12 //066   ----------------------------------------
 BYTE   W96
//  #12 //067   ----------------------------------------
 BYTE   W96
//  #12 //068   ----------------------------------------
 BYTE   W96
//  #12 //069   ----------------------------------------
 BYTE   W96
//  #12 //070   ----------------------------------------
 BYTE   W96
//  #12 //071   ----------------------------------------
 BYTE   W96
//  #12 //072   ----------------------------------------
 BYTE   W96
//  #12 //073   ----------------------------------------
 BYTE   W96
//  #12 //074   ----------------------------------------
 BYTE   W24
 BYTE   N24 As0 v092
 BYTE   W24
 BYTE   Cn1 v096
 BYTE   W24
 BYTE   Dn1 v080
 BYTE   W24
//  #12 //075   ----------------------------------------
 BYTE   An1 v092
 BYTE   W24
 BYTE   Gn1 v084
 BYTE   W24
 BYTE   Dn1 v080
 BYTE   W24
 BYTE   As0
 BYTE   W24
//  #12 //076   ----------------------------------------
 BYTE   N96 Cn1 v088
 BYTE   W96
//  #12 //077   ----------------------------------------
 BYTE   W96
//  #12 //078   ----------------------------------------
 BYTE   W24
 BYTE   N24 An0 v072
 BYTE   W24
 BYTE   Cn1 v100
 BYTE   W24
 BYTE   Fs1 v084
 BYTE   W24
//  #12 //079   ----------------------------------------
 BYTE   An1 v092
 BYTE   W24
 BYTE   Fs1 v096
 BYTE   W24
 BYTE   Ds1 v072
 BYTE   W24
 BYTE   Cn1 v088
 BYTE   W24
//  #12 //080   ----------------------------------------
 BYTE   N96 Dn1 v104
 BYTE   W96
//  #12 //081   ----------------------------------------
 BYTE   W96
//  #12 //082   ----------------------------------------
 BYTE   W24
 BYTE   N24 As0 v084
 BYTE   W24
 BYTE   Dn1 v100
 BYTE   W24
 BYTE   Gn1 v104
 BYTE   W24
//  #12 //083   ----------------------------------------
 BYTE   As1
 BYTE   W24
 BYTE   An1 v096
 BYTE   W24
 BYTE   Gn1 v092
 BYTE   W24
 BYTE   Dn1 v072
 BYTE   W24
//  #12 //084   ----------------------------------------
 BYTE   W24
 BYTE   Cn1 v092
 BYTE   W24
 BYTE   Gn1 v108
 BYTE   W24
 BYTE   As1
 BYTE   W24
//  #12 //085   ----------------------------------------
 BYTE   Cn2 v096
 BYTE   W24
 BYTE   As1 v100
 BYTE   W24
 BYTE   Gn1
 BYTE   W24
 BYTE   Ds1 v112
 BYTE   W24
//  #12 //086   ----------------------------------------
 BYTE   W24
 BYTE   Ds1 v092
 BYTE   W24
 BYTE   Gn1 v100
 BYTE   W24
 BYTE   Cn2 v096
 BYTE   W24
//  #12 //087   ----------------------------------------
 BYTE   Dn2
 BYTE   W24
 BYTE   Cn2 v092
 BYTE   W24
 BYTE   Gn1 v112
 BYTE   W24
 BYTE   Ds1 v088
 BYTE   W24
//  #12 //088   ----------------------------------------
 BYTE   W24
 BYTE   Cn1
 BYTE   W24
 BYTE   Ds1 v092
 BYTE   W24
 BYTE   Gn1 v096
 BYTE   W24
//  #12 //089   ----------------------------------------
 BYTE   An1 v088
 BYTE   W24
 BYTE   Fs1
 BYTE   W24
 BYTE   Dn1 v108
 BYTE   W24
 BYTE   Cn1 v072
 BYTE   W24
//  #12 //090   ----------------------------------------
 BYTE   N48 As0
 BYTE   W96
//  #12 //091   ----------------------------------------
 BYTE   W96
//  #12 //092   ----------------------------------------
 BYTE   W96
//  #12 //093   ----------------------------------------
 BYTE   W96
//  #12 //094   ----------------------------------------
 BYTE   W96
//  #12 //095   ----------------------------------------
 BYTE   W24
 BYTE   N72
 BYTE   W72
//  #12 //096   ----------------------------------------
 BYTE   W96
//  #12 //097   ----------------------------------------
 BYTE   W24
 BYTE   Cn1 v076
 BYTE   W72
//  #12 //098   ----------------------------------------
 BYTE   W96
//  #12 //099   ----------------------------------------
 BYTE   W24
 BYTE   Dn1 v080
 BYTE   W72
//  #12 //100   ----------------------------------------
 BYTE   W96
//  #12 //101   ----------------------------------------
 BYTE   W24
 BYTE   Fs1 v088
 BYTE   W72
//  #12 //102   ----------------------------------------
 BYTE   W96
//  #12 //103   ----------------------------------------
 BYTE   W96
//  #12 //104   ----------------------------------------
 BYTE   W96
//  #12 //105   ----------------------------------------
 BYTE   W96
//  #12 //106   ----------------------------------------
 BYTE   W96
//  #12 //107   ----------------------------------------
 BYTE   W96
//  #12 //108   ----------------------------------------
 BYTE   W96
//  #12 //109   ----------------------------------------
 BYTE   W96
//  #12 //110   ----------------------------------------
 BYTE   W96
//  #12 //111   ----------------------------------------
 BYTE   GoTo
  POIN2 Label_0100F0A9
//  #12 //112   ----------------------------------------
 BYTE   N96 Gn1 v080
 BYTE   W96
 BYTE   FINE

//**************** Track 13 (Midi-Chn.12) ****************//

song03DA_013:
//  #13 //000   ----------------------------------------
 BYTE   KEYSH  song03DA_key+0
 BYTE   VOICE  73
 BYTE   MODT 0
 BYTE   LFOS 44
 BYTE   VOL  69*song03DA_mvl/mxv
 BYTE   PAN  c_v-33
 BYTE   W96
//  #13 //001   ----------------------------------------
Label_01013FA9:
 BYTE   W96
//  #13 //002   ----------------------------------------
 BYTE   W96
//  #13 //003   ----------------------------------------
 BYTE   W96
//  #13 //004   ----------------------------------------
 BYTE   W96
//  #13 //005   ----------------------------------------
 BYTE   W96
//  #13 //006   ----------------------------------------
 BYTE   W96
//  #13 //007   ----------------------------------------
 BYTE   W96
//  #13 //008   ----------------------------------------
 BYTE   W96
//  #13 //009   ----------------------------------------
 BYTE   W96
//  #13 //010   ----------------------------------------
 BYTE   W96
//  #13 //011   ----------------------------------------
 BYTE   W96
//  #13 //012   ----------------------------------------
 BYTE   W96
//  #13 //013   ----------------------------------------
 BYTE   W96
//  #13 //014   ----------------------------------------
 BYTE   W96
//  #13 //015   ----------------------------------------
 BYTE   W96
//  #13 //016   ----------------------------------------
 BYTE   W96
//  #13 //017   ----------------------------------------
 BYTE   W96
//  #13 //018   ----------------------------------------
 BYTE   W96
//  #13 //019   ----------------------------------------
 BYTE   W96
//  #13 //020   ----------------------------------------
 BYTE   W96
//  #13 //021   ----------------------------------------
 BYTE   W96
//  #13 //022   ----------------------------------------
 BYTE   W96
//  #13 //023   ----------------------------------------
 BYTE   W96
//  #13 //024   ----------------------------------------
 BYTE   W96
//  #13 //025   ----------------------------------------
 BYTE   W96
//  #13 //026   ----------------------------------------
 BYTE   W96
//  #13 //027   ----------------------------------------
 BYTE   W96
//  #13 //028   ----------------------------------------
 BYTE   W96
//  #13 //029   ----------------------------------------
 BYTE   W96
//  #13 //030   ----------------------------------------
 BYTE   W96
//  #13 //031   ----------------------------------------
 BYTE   W96
//  #13 //032   ----------------------------------------
 BYTE   W96
//  #13 //033   ----------------------------------------
 BYTE   W96
//  #13 //034   ----------------------------------------
 BYTE   W96
//  #13 //035   ----------------------------------------
 BYTE   W96
//  #13 //036   ----------------------------------------
 BYTE   W96
//  #13 //037   ----------------------------------------
 BYTE   W96
//  #13 //038   ----------------------------------------
 BYTE   W96
//  #13 //039   ----------------------------------------
 BYTE   N03 Cn5 v120
 BYTE   W03
 BYTE   Bn4 v104
 BYTE   W32
 BYTE   W01
 BYTE   Cn5 v120
 BYTE   W03
 BYTE   N02 Bn4 v096
 BYTE   W44
 BYTE   W01
 BYTE   N03 An4 v104
 BYTE   W03
 BYTE   Gn4 v120
 BYTE   W09
//  #13 //040   ----------------------------------------
 BYTE   W96
//  #13 //041   ----------------------------------------
 BYTE   Dn5
 BYTE   W03
 BYTE   Cn5
 BYTE   W32
 BYTE   W01
 BYTE   Dn5
 BYTE   W03
 BYTE   N05 Cn5 v108
 BYTE   W44
 BYTE   W01
 BYTE   N03 Bn4 v120
 BYTE   W03
 BYTE   N06 An4
 BYTE   W09
//  #13 //042   ----------------------------------------
 BYTE   W96
//  #13 //043   ----------------------------------------
 BYTE   N03 Cn5
 BYTE   W03
 BYTE   N02 Bn4 v100
 BYTE   W32
 BYTE   W01
 BYTE   N03 Cn5 v120
 BYTE   W03
 BYTE   N01 Bn4
 BYTE   W44
 BYTE   W01
 BYTE   N03 An4
 BYTE   W03
 BYTE   Gn4
 BYTE   W09
//  #13 //044   ----------------------------------------
 BYTE   W96
//  #13 //045   ----------------------------------------
 BYTE   Dn5
 BYTE   W03
 BYTE   Cn5 v112
 BYTE   W32
 BYTE   W01
 BYTE   Dn5 v120
 BYTE   W03
 BYTE   N05 Cn5
 BYTE   W44
 BYTE   W01
 BYTE   N03 Bn4 v112
 BYTE   W03
 BYTE   N06 An4 v120
 BYTE   W09
//  #13 //046   ----------------------------------------
 BYTE   W96
//  #13 //047   ----------------------------------------
 BYTE   W96
//  #13 //048   ----------------------------------------
 BYTE   W96
//  #13 //049   ----------------------------------------
 BYTE   W96
//  #13 //050   ----------------------------------------
 BYTE   W96
//  #13 //051   ----------------------------------------
 BYTE   W96
//  #13 //052   ----------------------------------------
 BYTE   W96
//  #13 //053   ----------------------------------------
 BYTE   W96
//  #13 //054   ----------------------------------------
 BYTE   W96
//  #13 //055   ----------------------------------------
 BYTE   W96
//  #13 //056   ----------------------------------------
 BYTE   W96
//  #13 //057   ----------------------------------------
 BYTE   W96
//  #13 //058   ----------------------------------------
 BYTE   W84
 BYTE   As2 v092
 BYTE   W06
 BYTE   Cn3 v064
 BYTE   W06
//  #13 //059   ----------------------------------------
Label_01014039:
 BYTE   N06 Dn3 v076
 BYTE   W06
 BYTE   Gn3 v056
 BYTE   W06
 BYTE   Dn4 v092
 BYTE   W06
 BYTE   Gn4 v056
 BYTE   W06
 BYTE   As4 v080
 BYTE   W06
 BYTE   An4
 BYTE   W06
 BYTE   Gn4 v088
 BYTE   W06
 BYTE   Dn4 v076
 BYTE   W06
 BYTE   As3
 BYTE   W06
 BYTE   An3
 BYTE   W06
 BYTE   Gn3 v036
 BYTE   W06
 BYTE   Dn3
 BYTE   W06
 BYTE   Cn3
 BYTE   W06
 BYTE   N04 As2
 BYTE   W06
 BYTE   N06 An2 v040
 BYTE   W06
 BYTE   Gn2 v036
 BYTE   W06
 BYTE   PEND 
//  #13 //060   ----------------------------------------
 BYTE   N44 Dn4 v028
 BYTE   W48
 BYTE   N48 As3 v024
 BYTE   W48
//  #13 //061   ----------------------------------------
 BYTE   Gn3
 BYTE   W48
 BYTE   Dn3 v028
 BYTE   W48
//  #13 //062   ----------------------------------------
 BYTE   N24 Gn3
 BYTE   W24
 BYTE   N56 Dn4
 BYTE   W60
 BYTE   N06 As2 v092
 BYTE   W06
 BYTE   Cn3 v064
 BYTE   W06
//  #13 //063   ----------------------------------------
 BYTE   PATT
  POIN2 Label_01014039
//  #13 //064   ----------------------------------------
 BYTE   W96
//  #13 //065   ----------------------------------------
 BYTE   W96
//  #13 //066   ----------------------------------------
 BYTE   W96
//  #13 //067   ----------------------------------------
 BYTE   W96
//  #13 //068   ----------------------------------------
 BYTE   W96
//  #13 //069   ----------------------------------------
 BYTE   W96
//  #13 //070   ----------------------------------------
 BYTE   W96
//  #13 //071   ----------------------------------------
 BYTE   W96
//  #13 //072   ----------------------------------------
 BYTE   W96
//  #13 //073   ----------------------------------------
 BYTE   W96
//  #13 //074   ----------------------------------------
 BYTE   W96
//  #13 //075   ----------------------------------------
 BYTE   W96
//  #13 //076   ----------------------------------------
 BYTE   W96
//  #13 //077   ----------------------------------------
 BYTE   W96
//  #13 //078   ----------------------------------------
 BYTE   W96
//  #13 //079   ----------------------------------------
 BYTE   W96
//  #13 //080   ----------------------------------------
 BYTE   W96
//  #13 //081   ----------------------------------------
 BYTE   W96
//  #13 //082   ----------------------------------------
 BYTE   W96
//  #13 //083   ----------------------------------------
 BYTE   W96
//  #13 //084   ----------------------------------------
 BYTE   W96
//  #13 //085   ----------------------------------------
 BYTE   W96
//  #13 //086   ----------------------------------------
 BYTE   W96
//  #13 //087   ----------------------------------------
 BYTE   W96
//  #13 //088   ----------------------------------------
 BYTE   W96
//  #13 //089   ----------------------------------------
 BYTE   W96
//  #13 //090   ----------------------------------------
 BYTE   W96
//  #13 //091   ----------------------------------------
 BYTE   W96
//  #13 //092   ----------------------------------------
 BYTE   W96
//  #13 //093   ----------------------------------------
 BYTE   W96
//  #13 //094   ----------------------------------------
 BYTE   N03 Ds5 v108
 BYTE   W03
 BYTE   Dn5 v092
 BYTE   W32
 BYTE   W01
 BYTE   Ds5 v108
 BYTE   W03
 BYTE   N02 Dn5 v084
 BYTE   W44
 BYTE   W01
 BYTE   N03 Cn5 v092
 BYTE   W03
 BYTE   As4 v104
 BYTE   W09
//  #13 //095   ----------------------------------------
 BYTE   W96
//  #13 //096   ----------------------------------------
 BYTE   Fn5
 BYTE   W03
 BYTE   Ds5
 BYTE   W32
 BYTE   W01
 BYTE   Fn5
 BYTE   W03
 BYTE   N05 Ds5 v096
 BYTE   W44
 BYTE   W01
 BYTE   N03 Dn5 v108
 BYTE   W03
 BYTE   N06 Cn5
 BYTE   W09
//  #13 //097   ----------------------------------------
 BYTE   W96
//  #13 //098   ----------------------------------------
 BYTE   N03 Ds5
 BYTE   W03
 BYTE   N02 Dn5 v084
 BYTE   W32
 BYTE   W01
 BYTE   N03 Ds5 v108
 BYTE   W03
 BYTE   N01 Dn5 v104
 BYTE   W44
 BYTE   W01
 BYTE   N03 Cn5
 BYTE   W03
 BYTE   As4 v108
 BYTE   W09
//  #13 //099   ----------------------------------------
 BYTE   W96
//  #13 //100   ----------------------------------------
 BYTE   Fn5 v104
 BYTE   W03
 BYTE   Ds5 v100
 BYTE   W32
 BYTE   W01
 BYTE   Fn5 v104
 BYTE   W03
 BYTE   N05 Ds5 v108
 BYTE   W44
 BYTE   W01
 BYTE   N03 Dn5 v092
 BYTE   W03
 BYTE   N06 Cn5 v108
 BYTE   W09
//  #13 //101   ----------------------------------------
 BYTE   W96
//  #13 //102   ----------------------------------------
 BYTE   W96
//  #13 //103   ----------------------------------------
 BYTE   W96
//  #13 //104   ----------------------------------------
 BYTE   W96
//  #13 //105   ----------------------------------------
 BYTE   W96
//  #13 //106   ----------------------------------------
 BYTE   W96
//  #13 //107   ----------------------------------------
 BYTE   W96
//  #13 //108   ----------------------------------------
 BYTE   W96
//  #13 //109   ----------------------------------------
 BYTE   W96
//  #13 //110   ----------------------------------------
 BYTE   W96
//  #13 //111   ----------------------------------------
 BYTE   GoTo
  POIN2 Label_01013FA9
 BYTE   FINE

//**************** Track 14 (Midi-Chn.13) ****************//

song03DA_014:
//  #14 //000   ----------------------------------------
 BYTE   KEYSH  song03DA_key+0
 BYTE   VOICE  74
 BYTE   MODT 0
 BYTE   LFOS 44
 BYTE   VOL  59*song03DA_mvl/mxv
 BYTE   PAN  c_v+0
 BYTE   W96
//  #14 //001   ----------------------------------------
Label_0100FC89:
 BYTE   W96
//  #14 //002   ----------------------------------------
 BYTE   W96
//  #14 //003   ----------------------------------------
 BYTE   W96
//  #14 //004   ----------------------------------------
 BYTE   W96
//  #14 //005   ----------------------------------------
 BYTE   W96
//  #14 //006   ----------------------------------------
 BYTE   W96
//  #14 //007   ----------------------------------------
 BYTE   W96
//  #14 //008   ----------------------------------------
 BYTE   W96
//  #14 //009   ----------------------------------------
 BYTE   W96
//  #14 //010   ----------------------------------------
 BYTE   W96
//  #14 //011   ----------------------------------------
 BYTE   W96
//  #14 //012   ----------------------------------------
 BYTE   W96
//  #14 //013   ----------------------------------------
 BYTE   W96
//  #14 //014   ----------------------------------------
 BYTE   W96
//  #14 //015   ----------------------------------------
 BYTE   W96
//  #14 //016   ----------------------------------------
 BYTE   W96
//  #14 //017   ----------------------------------------
 BYTE   W96
//  #14 //018   ----------------------------------------
 BYTE   W96
//  #14 //019   ----------------------------------------
 BYTE   W96
//  #14 //020   ----------------------------------------
 BYTE   W96
//  #14 //021   ----------------------------------------
 BYTE   W96
//  #14 //022   ----------------------------------------
 BYTE   W96
//  #14 //023   ----------------------------------------
 BYTE   W96
//  #14 //024   ----------------------------------------
 BYTE   W96
//  #14 //025   ----------------------------------------
 BYTE   W96
//  #14 //026   ----------------------------------------
 BYTE   W96
//  #14 //027   ----------------------------------------
 BYTE   W96
//  #14 //028   ----------------------------------------
 BYTE   W96
//  #14 //029   ----------------------------------------
 BYTE   W96
//  #14 //030   ----------------------------------------
 BYTE   W96
//  #14 //031   ----------------------------------------
 BYTE   W96
//  #14 //032   ----------------------------------------
 BYTE   W96
//  #14 //033   ----------------------------------------
 BYTE   W96
//  #14 //034   ----------------------------------------
 BYTE   W96
//  #14 //035   ----------------------------------------
 BYTE   W96
//  #14 //036   ----------------------------------------
 BYTE   W96
//  #14 //037   ----------------------------------------
 BYTE   W96
//  #14 //038   ----------------------------------------
 BYTE   W96
//  #14 //039   ----------------------------------------
 BYTE   W96
//  #14 //040   ----------------------------------------
 BYTE   W96
//  #14 //041   ----------------------------------------
 BYTE   W96
//  #14 //042   ----------------------------------------
 BYTE   W96
//  #14 //043   ----------------------------------------
 BYTE   W96
//  #14 //044   ----------------------------------------
 BYTE   W96
//  #14 //045   ----------------------------------------
 BYTE   W96
//  #14 //046   ----------------------------------------
 BYTE   W96
//  #14 //047   ----------------------------------------
 BYTE   W96
//  #14 //048   ----------------------------------------
 BYTE   W96
//  #14 //049   ----------------------------------------
 BYTE   W96
//  #14 //050   ----------------------------------------
 BYTE   W96
//  #14 //051   ----------------------------------------
 BYTE   W96
//  #14 //052   ----------------------------------------
 BYTE   W96
//  #14 //053   ----------------------------------------
 BYTE   W96
//  #14 //054   ----------------------------------------
 BYTE   W96
//  #14 //055   ----------------------------------------
 BYTE   W96
//  #14 //056   ----------------------------------------
Label_0100FCC0:
 BYTE   N44 Dn3 v056
 BYTE   W44
 BYTE   W01
 BYTE   N48 Gn3 v032
 BYTE   W48
 BYTE   W03
 BYTE   PEND 
//  #14 //057   ----------------------------------------
Label_0100FCCB:
 BYTE   N48 Dn3 v052
 BYTE   W48
 BYTE   Fn3 v032
 BYTE   W48
 BYTE   PEND 
//  #14 //058   ----------------------------------------
Label_0100FCD3:
 BYTE   N24 Dn3 v044
 BYTE   W24
 BYTE   TIE Gn3 v040
 BYTE   W72
 BYTE   PEND 
//  #14 //059   ----------------------------------------
 BYTE   W96
//  #14 //060   ----------------------------------------
 BYTE   N48 Dn3 v048
 BYTE   W01
 BYTE   EOT
 BYTE   Gn3
 BYTE   W52
 BYTE   W01
 BYTE   N42 Gn3 v032
 BYTE   W42
//  #14 //061   ----------------------------------------
Label_0100FCE9:
 BYTE   N48 Dn3 v044
 BYTE   W48
 BYTE   W03
 BYTE   N44 Fn3 v036
 BYTE   W44
 BYTE   W01
 BYTE   PEND 
//  #14 //062   ----------------------------------------
Label_0100FCF4:
 BYTE   W03
 BYTE   N22 Dn3 v044
 BYTE   W21
 BYTE   TIE Gn3 v028
 BYTE   W72
 BYTE   PEND 
//  #14 //063   ----------------------------------------
 BYTE   W96
//  #14 //064   ----------------------------------------
 BYTE   EOT
//  #14 //065   ----------------------------------------
 BYTE   PATT
  POIN2 Label_0100FCC0
//  #14 //066   ----------------------------------------
 BYTE   PATT
  POIN2 Label_0100FCCB
//  #14 //067   ----------------------------------------
 BYTE   PATT
  POIN2 Label_0100FCD3
//  #14 //068   ----------------------------------------
 BYTE   W96
//  #14 //069   ----------------------------------------
 BYTE   N48 Dn3 v048
 BYTE   W01
 BYTE   EOT
 BYTE   Gn3
 BYTE   W52
 BYTE   W01
 BYTE   N42 Gn3 v032
 BYTE   W42
//  #14 //070   ----------------------------------------
 BYTE   PATT
  POIN2 Label_0100FCE9
//  #14 //071   ----------------------------------------
 BYTE   PATT
  POIN2 Label_0100FCF4
//  #14 //072   ----------------------------------------
 BYTE   W96
//  #14 //073   ----------------------------------------
 BYTE   EOT
 BYTE   Gn3
 BYTE   W96
//  #14 //074   ----------------------------------------
 BYTE   W96
//  #14 //075   ----------------------------------------
 BYTE   W96
//  #14 //076   ----------------------------------------
 BYTE   W96
//  #14 //077   ----------------------------------------
 BYTE   W96
//  #14 //078   ----------------------------------------
 BYTE   W96
//  #14 //079   ----------------------------------------
 BYTE   W96
//  #14 //080   ----------------------------------------
 BYTE   W96
//  #14 //081   ----------------------------------------
 BYTE   W96
//  #14 //082   ----------------------------------------
 BYTE   W96
//  #14 //083   ----------------------------------------
 BYTE   W96
//  #14 //084   ----------------------------------------
 BYTE   W96
//  #14 //085   ----------------------------------------
 BYTE   W96
//  #14 //086   ----------------------------------------
 BYTE   W96
//  #14 //087   ----------------------------------------
 BYTE   W96
//  #14 //088   ----------------------------------------
 BYTE   W96
//  #14 //089   ----------------------------------------
 BYTE   W96
//  #14 //090   ----------------------------------------
 BYTE   W96
//  #14 //091   ----------------------------------------
 BYTE   W96
//  #14 //092   ----------------------------------------
 BYTE   W96
//  #14 //093   ----------------------------------------
 BYTE   W96
//  #14 //094   ----------------------------------------
 BYTE   W96
//  #14 //095   ----------------------------------------
 BYTE   W96
//  #14 //096   ----------------------------------------
 BYTE   W96
//  #14 //097   ----------------------------------------
 BYTE   W96
//  #14 //098   ----------------------------------------
 BYTE   W96
//  #14 //099   ----------------------------------------
 BYTE   W96
//  #14 //100   ----------------------------------------
 BYTE   W96
//  #14 //101   ----------------------------------------
 BYTE   W96
//  #14 //102   ----------------------------------------
 BYTE   W96
//  #14 //103   ----------------------------------------
 BYTE   W96
//  #14 //104   ----------------------------------------
 BYTE   W96
//  #14 //105   ----------------------------------------
 BYTE   W96
//  #14 //106   ----------------------------------------
 BYTE   W96
//  #14 //107   ----------------------------------------
 BYTE   W96
//  #14 //108   ----------------------------------------
 BYTE   W96
//  #14 //109   ----------------------------------------
 BYTE   W96
//  #14 //110   ----------------------------------------
 BYTE   W96
//  #14 //111   ----------------------------------------
 BYTE   W96
//  #14 //112   ----------------------------------------
 BYTE   GoTo
  POIN2 Label_0100FC89
 BYTE   FINE

//**************** Track 15 (Midi-Chn.14) ****************//

song03DA_015:
//  #15 //000   ----------------------------------------
 BYTE   KEYSH  song03DA_key+0
 BYTE   VOICE  47
 BYTE   MODT 0
 BYTE   LFOS 44
 BYTE   VOL  82*song03DA_mvl/mxv
 BYTE   W06
 BYTE   PAN  c_v-9
 BYTE   W66
 BYTE   N22 Bn1 v104
 BYTE   W24
//  #15 //001   ----------------------------------------
Label_0100C846:
 BYTE   N05 En2 v104
 BYTE   W24
 BYTE   N08 En2 v096
 BYTE   W24
 BYTE   N08
 BYTE   W24
 BYTE   N12 En2 v092
 BYTE   W12
 BYTE   N13 Bn1
 BYTE   W12
 BYTE   PEND 
//  #15 //002   ----------------------------------------
Label_0100C858:
 BYTE   N06 En2 v096
 BYTE   W24
 BYTE   N07 En2 v108
 BYTE   W24
 BYTE   En2 v096
 BYTE   W24
 BYTE   N12 En2 v088
 BYTE   W12
 BYTE   Bn1 v092
 BYTE   W12
 BYTE   PEND 
//  #15 //003   ----------------------------------------
Label_0100C86B:
 BYTE   N07 Cn2 v080
 BYTE   W24
 BYTE   N09 Cn2 v084
 BYTE   W24
 BYTE   N07
 BYTE   W24
 BYTE   N12
 BYTE   W12
 BYTE   Gn1 v096
 BYTE   W12
 BYTE   PEND 
//  #15 //004   ----------------------------------------
Label_0100C87B:
 BYTE   N08 Cn2 v084
 BYTE   W24
 BYTE   N10 Cn2 v080
 BYTE   W24
 BYTE   N09 Cn2 v084
 BYTE   W24
 BYTE   N13 Cn2 v088
 BYTE   W24
 BYTE   PEND 
//  #15 //005   ----------------------------------------
 BYTE   N11 En2 v100
 BYTE   W24
 BYTE   N09
 BYTE   W24
 BYTE   N06 En2 v108
 BYTE   W24
 BYTE   N12 En2 v088
 BYTE   W12
 BYTE   Bn1 v092
 BYTE   W12
//  #15 //006   ----------------------------------------
 BYTE   En2 v088
 BYTE   W24
 BYTE   En2 v100
 BYTE   W24
 BYTE   En2 v092
 BYTE   W24
 BYTE   N12
 BYTE   W12
 BYTE   Bn1 v080
 BYTE   W12
//  #15 //007   ----------------------------------------
 BYTE   N07 Cn2
 BYTE   W24
 BYTE   N08 Cn2 v092
 BYTE   W24
 BYTE   Cn2 v080
 BYTE   W24
 BYTE   N14 Cn2 v076
 BYTE   W12
 BYTE   N12 Gn1 v092
 BYTE   W12
//  #15 //008   ----------------------------------------
 BYTE   N07 Cn2 v064
 BYTE   W24
 BYTE   N07
 BYTE   W24
 BYTE   Cn2 v084
 BYTE   W24
 BYTE   N11 Cn2 v088
 BYTE   W24
//  #15 //009   ----------------------------------------
 BYTE   En2 v080
 BYTE   W24
 BYTE   N10 En2 v088
 BYTE   W24
 BYTE   N08
 BYTE   W24
 BYTE   N14
 BYTE   W12
 BYTE   N12 Bn1
 BYTE   W12
//  #15 //010   ----------------------------------------
 BYTE   N06 En2
 BYTE   W24
 BYTE   N07 En2 v092
 BYTE   W24
 BYTE   En2 v088
 BYTE   W24
 BYTE   N12 En2 v072
 BYTE   W12
 BYTE   Bn1 v080
 BYTE   W12
//  #15 //011   ----------------------------------------
 BYTE   N07 Cn2 v072
 BYTE   W24
 BYTE   N08 Cn2 v076
 BYTE   W24
 BYTE   N08
 BYTE   W24
 BYTE   N12 Cn2 v072
 BYTE   W12
 BYTE   Gn1 v088
 BYTE   W12
//  #15 //012   ----------------------------------------
 BYTE   N07 Cn2 v080
 BYTE   W24
 BYTE   N08 Cn2 v084
 BYTE   W24
 BYTE   N07 Cn2 v092
 BYTE   W24
 BYTE   N10
 BYTE   W12
 BYTE   N12 Gn1
 BYTE   W12
//  #15 //013   ----------------------------------------
 BYTE   En2 v048
 BYTE   W24
 BYTE   N09 En2 v088
 BYTE   W24
 BYTE   N08 En2 v092
 BYTE   W24
 BYTE   N12 En2 v084
 BYTE   W12
 BYTE   Bn1 v080
 BYTE   W12
//  #15 //014   ----------------------------------------
 BYTE   N06 En2 v084
 BYTE   W24
 BYTE   N07 En2 v092
 BYTE   W24
 BYTE   N06 En2 v088
 BYTE   W24
 BYTE   N12
 BYTE   W12
 BYTE   Bn1
 BYTE   W12
//  #15 //015   ----------------------------------------
Label_0100C92D:
 BYTE   N06 Cn2 v064
 BYTE   W24
 BYTE   N07 Cn2 v076
 BYTE   W24
 BYTE   N07
 BYTE   W24
 BYTE   N12
 BYTE   W12
 BYTE   Gn1 v092
 BYTE   W12
 BYTE   PEND 
//  #15 //016   ----------------------------------------
 BYTE   N07 Cn2 v072
 BYTE   W24
 BYTE   Cn2 v084
 BYTE   W24
 BYTE   Cn2 v088
 BYTE   W24
 BYTE   N11
 BYTE   W12
 BYTE   N06 Gn1
 BYTE   W12
//  #15 //017   ----------------------------------------
 BYTE   N18 En2
 BYTE   W96
//  #15 //018   ----------------------------------------
 BYTE   W72
 BYTE   N22 Bn1 v104
 BYTE   W24
//  #15 //019   ----------------------------------------
 BYTE   PATT
  POIN2 Label_0100C846
//  #15 //020   ----------------------------------------
 BYTE   PATT
  POIN2 Label_0100C858
//  #15 //021   ----------------------------------------
 BYTE   PATT
  POIN2 Label_0100C846
//  #15 //022   ----------------------------------------
 BYTE   PATT
  POIN2 Label_0100C858
//  #15 //023   ----------------------------------------
 BYTE   PATT
  POIN2 Label_0100C846
//  #15 //024   ----------------------------------------
 BYTE   PATT
  POIN2 Label_0100C858
//  #15 //025   ----------------------------------------
 BYTE   PATT
  POIN2 Label_0100C846
//  #15 //026   ----------------------------------------
 BYTE   PATT
  POIN2 Label_0100C858
//  #15 //027   ----------------------------------------
 BYTE   PATT
  POIN2 Label_0100C92D
//  #15 //028   ----------------------------------------
 BYTE   N07 Cn2 v072
 BYTE   W24
 BYTE   Cn2 v084
 BYTE   W24
 BYTE   Cn2 v088
 BYTE   W24
 BYTE   N11
 BYTE   W12
 BYTE   N12 Gn1 v056
 BYTE   W12
//  #15 //029   ----------------------------------------
 BYTE   N06 An1 v064
 BYTE   W24
 BYTE   N07 An1 v076
 BYTE   W24
 BYTE   N07
 BYTE   W24
 BYTE   N12
 BYTE   W24
//  #15 //030   ----------------------------------------
 BYTE   N07 An1 v072
 BYTE   W24
 BYTE   An1 v084
 BYTE   W24
 BYTE   An1 v088
 BYTE   W24
 BYTE   N11
 BYTE   W12
 BYTE   N06 En1
 BYTE   W12
//  #15 //031   ----------------------------------------
 BYTE   N12 Fs1 v068
 BYTE   W24
 BYTE   N12
 BYTE   W24
 BYTE   N12
 BYTE   W24
 BYTE   N12
 BYTE   W12
 BYTE   Cn2 v028
 BYTE   W12
//  #15 //032   ----------------------------------------
 BYTE   Fs1 v068
 BYTE   W24
 BYTE   N12
 BYTE   W24
 BYTE   N12
 BYTE   W24
 BYTE   N12
 BYTE   W12
 BYTE   Cn2
 BYTE   W12
//  #15 //033   ----------------------------------------
Label_0100C9C4:
 BYTE   N12 Bn1 v068
 BYTE   W24
 BYTE   N12
 BYTE   W24
 BYTE   N12
 BYTE   W24
 BYTE   N12
 BYTE   W12
 BYTE   Fs1 v028
 BYTE   W12
 BYTE   PEND 
//  #15 //034   ----------------------------------------
 BYTE   PATT
  POIN2 Label_0100C9C4
//  #15 //035   ----------------------------------------
 BYTE   N48 En2 v112
 BYTE   W96
//  #15 //036   ----------------------------------------
 BYTE   W96
//  #15 //037   ----------------------------------------
 BYTE   W96
//  #15 //038   ----------------------------------------
 BYTE   W24
 BYTE   N72 Bn1 v080
 BYTE   W72
//  #15 //039   ----------------------------------------
 BYTE   N66 En2
 BYTE   W96
//  #15 //040   ----------------------------------------
 BYTE   W96
//  #15 //041   ----------------------------------------
 BYTE   W96
//  #15 //042   ----------------------------------------
Label_0100C9E7:
 BYTE   W72
 BYTE   N11 Bn1 v080
 BYTE   W12
 BYTE   N04
 BYTE   W06
 BYTE   N06
 BYTE   W06
 BYTE   PEND 
//  #15 //043   ----------------------------------------
 BYTE   N66 En2
 BYTE   W96
//  #15 //044   ----------------------------------------
 BYTE   W96
//  #15 //045   ----------------------------------------
 BYTE   W96
//  #15 //046   ----------------------------------------
 BYTE   PATT
  POIN2 Label_0100C9E7
//  #15 //047   ----------------------------------------
 BYTE   N66 En2 v080
 BYTE   W96
//  #15 //048   ----------------------------------------
 BYTE   PATT
  POIN2 Label_0100C9E7
//  #15 //049   ----------------------------------------
 BYTE   N66 En2 v080
 BYTE   W96
//  #15 //050   ----------------------------------------
 BYTE   W72
 BYTE   N08 Bn1 v088
 BYTE   W12
 BYTE   N04
 BYTE   W06
 BYTE   N04
 BYTE   W06
//  #15 //051   ----------------------------------------
 BYTE   N18 Bn1 v092
 BYTE   W24
 BYTE   N18
 BYTE   W48
 BYTE   N18
 BYTE   W24
//  #15 //052   ----------------------------------------
 BYTE   W24
 BYTE   Bn1 v100
 BYTE   W48
 BYTE   N18
 BYTE   W24
//  #15 //053   ----------------------------------------
 BYTE   W24
 BYTE   Bn1 v108
 BYTE   W48
 BYTE   N18
 BYTE   W24
//  #15 //054   ----------------------------------------
 BYTE   W24
 BYTE   Bn1 v112
 BYTE   W48
 BYTE   N18
 BYTE   W24
//  #15 //055   ----------------------------------------
 BYTE   W24
 BYTE   Bn1 v120
 BYTE   W24
 BYTE   N12
 BYTE   W24
 BYTE   N18
 BYTE   W24
//  #15 //056   ----------------------------------------
 BYTE   N16 Gn2 v072
 BYTE   W24
 BYTE   N08 Gn2 v080
 BYTE   W24
 BYTE   N10 Gn2 v052
 BYTE   W24
 BYTE   N11 Gn2 v020
 BYTE   W12
 BYTE   N13 Dn2 v032
 BYTE   W12
//  #15 //057   ----------------------------------------
 BYTE   N09 Gn2 v052
 BYTE   W24
 BYTE   N07 Gn2 v044
 BYTE   W24
 BYTE   N10 Gn2 v032
 BYTE   W24
 BYTE   N12 Gn2 v020
 BYTE   W12
 BYTE   N13 Dn2 v040
 BYTE   W12
//  #15 //058   ----------------------------------------
Label_0100CA5B:
 BYTE   N09 Ds2 v040
 BYTE   W24
 BYTE   N11
 BYTE   W24
 BYTE   N10 Ds2 v056
 BYTE   W24
 BYTE   N12 Ds2 v060
 BYTE   W12
 BYTE   As1 v048
 BYTE   W12
 BYTE   PEND 
//  #15 //059   ----------------------------------------
 BYTE   N08 Ds2 v072
 BYTE   W24
 BYTE   N09 Ds2 v060
 BYTE   W24
 BYTE   N07 Ds2 v068
 BYTE   W24
 BYTE   N15 Ds2 v052
 BYTE   W12
 BYTE   N13 As1 v068
 BYTE   W12
//  #15 //060   ----------------------------------------
 BYTE   N09 Gn2 v072
 BYTE   W24
 BYTE   N07 Gn2 v048
 BYTE   W24
 BYTE   N08 Gn2 v056
 BYTE   W24
 BYTE   N12 Gn2 v064
 BYTE   W12
 BYTE   N10 Dn2 v016
 BYTE   W12
//  #15 //061   ----------------------------------------
 BYTE   N09 Gn2 v040
 BYTE   W24
 BYTE   N08 Gn2 v056
 BYTE   W24
 BYTE   N08
 BYTE   W24
 BYTE   N12 Gn2 v036
 BYTE   W12
 BYTE   Dn2 v016
 BYTE   W12
//  #15 //062   ----------------------------------------
 BYTE   N07 Ds2 v020
 BYTE   W24
 BYTE   N10 Ds2 v048
 BYTE   W24
 BYTE   N09 Ds2 v060
 BYTE   W24
 BYTE   N10 Ds2 v068
 BYTE   W12
 BYTE   N13 As1 v048
 BYTE   W12
//  #15 //063   ----------------------------------------
 BYTE   N08 Ds2 v072
 BYTE   W24
 BYTE   Ds2 v052
 BYTE   W24
 BYTE   N09 Ds2 v028
 BYTE   W24
 BYTE   N13 Ds2 v060
 BYTE   W12
 BYTE   N08 As1 v044
 BYTE   W12
//  #15 //064   ----------------------------------------
 BYTE   N12 Gn2 v040
 BYTE   W24
 BYTE   N09
 BYTE   W24
 BYTE   N10 Gn2 v032
 BYTE   W24
 BYTE   N14 Gn2 v060
 BYTE   W12
 BYTE   N11 Dn2 v044
 BYTE   W12
//  #15 //065   ----------------------------------------
 BYTE   N07 Gn2 v072
 BYTE   W24
 BYTE   N08 Gn2 v064
 BYTE   W24
 BYTE   Gn2 v060
 BYTE   W24
 BYTE   N12 Gn2 v036
 BYTE   W12
 BYTE   N11 Dn2 v044
 BYTE   W12
//  #15 //066   ----------------------------------------
 BYTE   N10 Ds2 v056
 BYTE   W24
 BYTE   N08 Ds2 v052
 BYTE   W24
 BYTE   N09 Ds2 v056
 BYTE   W24
 BYTE   N12
 BYTE   W12
 BYTE   N13 As1 v052
 BYTE   W12
//  #15 //067   ----------------------------------------
 BYTE   N09 Ds2 v072
 BYTE   W24
 BYTE   Ds2 v048
 BYTE   W24
 BYTE   Ds2 v064
 BYTE   W24
 BYTE   N12
 BYTE   W12
 BYTE   Dn2 v012
 BYTE   W12
//  #15 //068   ----------------------------------------
 BYTE   N09 Gn2 v056
 BYTE   W24
 BYTE   N07 Gn2 v040
 BYTE   W24
 BYTE   N08
 BYTE   W24
 BYTE   N14 Gn2 v056
 BYTE   W12
 BYTE   N12 Dn2 v072
 BYTE   W12
//  #15 //069   ----------------------------------------
 BYTE   N06 Gn2 v080
 BYTE   W24
 BYTE   N08 Gn2 v040
 BYTE   W24
 BYTE   N09 Gn2 v036
 BYTE   W24
 BYTE   N12 Gn2 v040
 BYTE   W12
 BYTE   Dn2
 BYTE   W12
//  #15 //070   ----------------------------------------
 BYTE   N09 Ds2 v068
 BYTE   W24
 BYTE   N08 Ds2 v064
 BYTE   W24
 BYTE   N07
 BYTE   W24
 BYTE   N12 Ds2 v076
 BYTE   W12
 BYTE   N13 As1 v052
 BYTE   W12
//  #15 //071   ----------------------------------------
 BYTE   N09 Ds2 v068
 BYTE   W24
 BYTE   N07 Ds2 v072
 BYTE   W24
 BYTE   N08 Ds2 v068
 BYTE   W24
 BYTE   N12
 BYTE   W12
 BYTE   N10 Dn2 v076
 BYTE   W12
//  #15 //072   ----------------------------------------
 BYTE   Gn2 v048
 BYTE   W96
//  #15 //073   ----------------------------------------
 BYTE   W72
 BYTE   N24 Dn2 v080
 BYTE   W24
//  #15 //074   ----------------------------------------
 BYTE   N16 Gn2 v072
 BYTE   W24
 BYTE   N08 Gn2 v080
 BYTE   W24
 BYTE   N10 Gn2 v052
 BYTE   W24
 BYTE   N11 Gn2 v060
 BYTE   W12
 BYTE   N12 Dn2 v032
 BYTE   W12
//  #15 //075   ----------------------------------------
 BYTE   N09 Gn2 v052
 BYTE   W24
 BYTE   N07 Gn2 v044
 BYTE   W24
 BYTE   N10 Gn2 v040
 BYTE   W24
 BYTE   N12 Gn2 v048
 BYTE   W12
 BYTE   Dn2 v040
 BYTE   W12
//  #15 //076   ----------------------------------------
Label_0100CB8A:
 BYTE   N16 Gn2 v072
 BYTE   W24
 BYTE   N08 Gn2 v060
 BYTE   W24
 BYTE   N10 Gn2 v052
 BYTE   W24
 BYTE   N11 Gn2 v060
 BYTE   W12
 BYTE   N12 Dn2 v032
 BYTE   W12
 BYTE   PEND 
//  #15 //077   ----------------------------------------
Label_0100CB9F:
 BYTE   N09 Gn2 v052
 BYTE   W24
 BYTE   N07 Gn2 v044
 BYTE   W24
 BYTE   N10 Gn2 v032
 BYTE   W24
 BYTE   N12 Gn2 v048
 BYTE   W12
 BYTE   Dn2 v040
 BYTE   W12
 BYTE   PEND 
//  #15 //078   ----------------------------------------
 BYTE   PATT
  POIN2 Label_0100CB8A
//  #15 //079   ----------------------------------------
 BYTE   PATT
  POIN2 Label_0100CB9F
//  #15 //080   ----------------------------------------
 BYTE   N16 Gn2 v072
 BYTE   W24
 BYTE   N08 Gn2 v044
 BYTE   W24
 BYTE   N10 Gn2 v052
 BYTE   W24
 BYTE   N11 Gn2 v060
 BYTE   W12
 BYTE   N12 Dn2 v032
 BYTE   W12
//  #15 //081   ----------------------------------------
 BYTE   PATT
  POIN2 Label_0100CB9F
//  #15 //082   ----------------------------------------
 BYTE   PATT
  POIN2 Label_0100CA5B
//  #15 //083   ----------------------------------------
 BYTE   N09 Ds2 v076
 BYTE   W24
 BYTE   N11 Ds2 v032
 BYTE   W24
 BYTE   N10 Ds2 v048
 BYTE   W24
 BYTE   N12 Ds2 v052
 BYTE   W12
 BYTE   As1 v044
 BYTE   W12
//  #15 //084   ----------------------------------------
 BYTE   Cn2 v076
 BYTE   W24
 BYTE   N06 Cn2 v052
 BYTE   W24
 BYTE   N06
 BYTE   W24
 BYTE   Cn2 v048
 BYTE   W12
 BYTE   Gn1
 BYTE   W12
//  #15 //085   ----------------------------------------
 BYTE   N12 Cn2 v076
 BYTE   W24
 BYTE   N06 Cn2 v052
 BYTE   W24
 BYTE   N06
 BYTE   W24
 BYTE   Cn2 v048
 BYTE   W24
//  #15 //086   ----------------------------------------
Label_0100CC09:
 BYTE   N06 An1 v056
 BYTE   W24
 BYTE   N06
 BYTE   W24
 BYTE   N06
 BYTE   W24
 BYTE   N06
 BYTE   W24
 BYTE   PEND 
//  #15 //087   ----------------------------------------
 BYTE   PATT
  POIN2 Label_0100CC09
//  #15 //088   ----------------------------------------
 BYTE   N12 Dn2 v056
 BYTE   W24
 BYTE   N12
 BYTE   W24
 BYTE   N12
 BYTE   W24
 BYTE   N12
 BYTE   W12
 BYTE   An1
 BYTE   W12
//  #15 //089   ----------------------------------------
 BYTE   Dn2
 BYTE   W24
 BYTE   N12
 BYTE   W24
 BYTE   N12
 BYTE   W24
 BYTE   N12
 BYTE   W12
 BYTE   An1 v032
 BYTE   W12
//  #15 //090   ----------------------------------------
 BYTE   N18 Gn1
 BYTE   W96
//  #15 //091   ----------------------------------------
 BYTE   W96
//  #15 //092   ----------------------------------------
 BYTE   W96
//  #15 //093   ----------------------------------------
 BYTE   W96
//  #15 //094   ----------------------------------------
 BYTE   W96
//  #15 //095   ----------------------------------------
 BYTE   W96
//  #15 //096   ----------------------------------------
 BYTE   W96
//  #15 //097   ----------------------------------------
 BYTE   W96
//  #15 //098   ----------------------------------------
 BYTE   W96
//  #15 //099   ----------------------------------------
 BYTE   W96
//  #15 //100   ----------------------------------------
 BYTE   W96
//  #15 //101   ----------------------------------------
Label_0100CC3D:
 BYTE   W72
 BYTE   N09 Dn2 v096
 BYTE   W12
 BYTE   N05 Dn2 v048
 BYTE   W06
 BYTE   N06
 BYTE   W06
 BYTE   PEND 
//  #15 //102   ----------------------------------------
 BYTE   N24 Gn2 v080
 BYTE   W96
//  #15 //103   ----------------------------------------
 BYTE   PATT
  POIN2 Label_0100CC3D
//  #15 //104   ----------------------------------------
 BYTE   N24 Gn2 v080
 BYTE   W96
//  #15 //105   ----------------------------------------
 BYTE   W72
 BYTE   N09 Dn2 v096
 BYTE   W12
 BYTE   N05 Dn2 v048
 BYTE   W06
 BYTE   Dn2 v052
 BYTE   W06
//  #15 //106   ----------------------------------------
 BYTE   N08 Dn2 v080
 BYTE   W24
 BYTE   N18 Dn2 v092
 BYTE   W48
 BYTE   N18
 BYTE   W24
//  #15 //107   ----------------------------------------
 BYTE   W24
 BYTE   Dn2 v100
 BYTE   W48
 BYTE   N18
 BYTE   W24
//  #15 //108   ----------------------------------------
 BYTE   W24
 BYTE   Dn2 v108
 BYTE   W48
 BYTE   N18
 BYTE   W24
//  #15 //109   ----------------------------------------
 BYTE   W24
 BYTE   Dn2 v112
 BYTE   W48
 BYTE   N18
 BYTE   W24
//  #15 //110   ----------------------------------------
 BYTE   W24
 BYTE   Dn2 v120
 BYTE   W24
 BYTE   N12
 BYTE   W24
 BYTE   N18
 BYTE   W24
//  #15 //111   ----------------------------------------
 BYTE   GoTo
  POIN2 Label_0100C846
//  #15 //112   ----------------------------------------
 BYTE   PATT
  POIN2 Label_0100C846
//  #15 //113   ----------------------------------------
 BYTE   PATT
  POIN2 Label_0100C858
//  #15 //114   ----------------------------------------
 BYTE   PATT
  POIN2 Label_0100C86B
//  #15 //115   ----------------------------------------
 BYTE   PATT
  POIN2 Label_0100C87B
//  #15 //116   ----------------------------------------
 BYTE   N11 En2 v100
 BYTE   W24
 BYTE   N09 Cn2
 BYTE   W12
 BYTE   N02
 BYTE   W06
 BYTE   N02
 BYTE   W06
 BYTE   N06 En2 v108
 BYTE   W06
 BYTE   FINE

//**************** Track 16 (Midi-Chn.15) ****************//

song03DA_016:
//  #16 //000   ----------------------------------------
 BYTE   KEYSH  song03DA_key+0
 BYTE   MODT 0
 BYTE   LFOS 44
 BYTE   VOL  82*song03DA_mvl/mxv
 BYTE   W03
 BYTE   VOICE  127
 BYTE   PAN  c_v+0
 BYTE   W36
 BYTE   W03
 BYTE   N52 Ds1 v092
 BYTE   W30
 BYTE   N24 Fn2
 BYTE   W24
//  #16 //001   ----------------------------------------
Label_0101436E:
 BYTE   N21 Cn1 v127
 BYTE   N96 Cs2
 BYTE   W24
 BYTE   N21 Cn1 v108
 BYTE   W48
 BYTE   N06 Cn1 v060
 BYTE   W12
 BYTE   N12 Ds1 v108
 BYTE   W12
//  #16 //002   ----------------------------------------
Label_01014380:
 BYTE   N21 Cn1 v127
 BYTE   N15 Dn1 v108
 BYTE   W24
 BYTE   N21 Cn1
 BYTE   N15 Dn1 v084
 BYTE   W24
 BYTE   Cn1 v080
 BYTE   W24
 BYTE   N06 Cn1 v108
 BYTE   N24 Ds1 v064
 BYTE   W06
 BYTE   N06 Cn2
 BYTE   W18
 BYTE   PEND 
//  #16 //003   ----------------------------------------
 BYTE   N21 Cn1 v127
 BYTE   N18 Dn1 v064
 BYTE   W24
 BYTE   N21 Cn1 v108
 BYTE   W60
 BYTE   N12 Ds1
 BYTE   W12
//  #16 //004   ----------------------------------------
Label_010143A9:
 BYTE   N21 Cn1 v072
 BYTE   N15 Dn1 v108
 BYTE   W24
 BYTE   Dn1 v084
 BYTE   W48
 BYTE   N24 Ds1 v064
 BYTE   W24
 BYTE   PEND 
//  #16 //005   ----------------------------------------
 BYTE   N21 Cn1 v127
 BYTE   N18 Dn1 v064
 BYTE   W24
 BYTE   N21 Cn1 v108
 BYTE   W48
 BYTE   N06
 BYTE   W12
 BYTE   N12 Ds1
 BYTE   W12
//  #16 //006   ----------------------------------------
Label_010143C8:
 BYTE   N21 Cn1 v127
 BYTE   N15 Dn1 v108
 BYTE   W24
 BYTE   N21 Cn1
 BYTE   N15 Dn1 v084
 BYTE   W48
 BYTE   N24 Ds1 v064
 BYTE   W24
 BYTE   PEND 
//  #16 //007   ----------------------------------------
 BYTE   N21 Cn1 v127
 BYTE   N18 Dn1 v064
 BYTE   W24
 BYTE   N21 Cn1 v108
 BYTE   W60
 BYTE   N12 Ds1 v084
 BYTE   W12
//  #16 //008   ----------------------------------------
 BYTE   PATT
  POIN2 Label_010143C8
//  #16 //009   ----------------------------------------
 BYTE   N21 Cn1 v127
 BYTE   N18 Dn1 v064
 BYTE   W24
 BYTE   N21 Cn1 v108
 BYTE   W60
 BYTE   N12 Ds1 v088
 BYTE   W12
//  #16 //010   ----------------------------------------
 BYTE   PATT
  POIN2 Label_01014380
//  #16 //011   ----------------------------------------
Label_01014402:
 BYTE   N21 Cn1 v088
 BYTE   N18 Dn1 v064
 BYTE   W24
 BYTE   N21 Cn1 v072
 BYTE   W60
 BYTE   N12 Ds1 v088
 BYTE   W12
 BYTE   PEND 
//  #16 //012   ----------------------------------------
Label_01014412:
 BYTE   N21 Cn1 v068
 BYTE   N15 Dn1 v108
 BYTE   W24
 BYTE   N21 Cn1 v052
 BYTE   N15 Dn1 v084
 BYTE   W48
 BYTE   N24 Ds1 v064
 BYTE   W24
 BYTE   PEND 
//  #16 //013   ----------------------------------------
 BYTE   N21 Cn1 v127
 BYTE   N18 Dn1 v064
 BYTE   W24
 BYTE   N21 Cn1 v108
 BYTE   W48
 BYTE   N12 Cn1 v048
 BYTE   W12
 BYTE   Ds1 v088
 BYTE   W12
//  #16 //014   ----------------------------------------
 BYTE   PATT
  POIN2 Label_01014380
//  #16 //015   ----------------------------------------
 BYTE   PATT
  POIN2 Label_01014402
//  #16 //016   ----------------------------------------
 BYTE   N21 Cn1 v068
 BYTE   N15 Dn1 v108
 BYTE   W24
 BYTE   N21 Cn1 v052
 BYTE   N15 Dn1 v084
 BYTE   W24
 BYTE   N12 Cs1 v068
 BYTE   W24
 BYTE   N12
 BYTE   N22 Ds1 v088
 BYTE   W12
 BYTE   N10 Cn1 v068
 BYTE   W12
//  #16 //017   ----------------------------------------
 BYTE   N24 Cn1 v127
 BYTE   N24 Cs1 v068
 BYTE   N24 Gn2 v127
 BYTE   W96
//  #16 //018   ----------------------------------------
Label_01014466:
 BYTE   W48
 BYTE   N09 Dn1 v056
 BYTE   W12
 BYTE   N36 Ds1
 BYTE   W12
 BYTE   N24 Fn2 v092
 BYTE   W24
 BYTE   PEND 
//  #16 //019   ----------------------------------------
 BYTE   N21 Cn1 v127
 BYTE   N24 Dn1 v108
 BYTE   N96 Cs2 v127
 BYTE   W24
 BYTE   N21 Cn1 v052
 BYTE   W24
 BYTE   N12 Cn1 v056
 BYTE   W24
 BYTE   N12
 BYTE   W12
 BYTE   En3 v048
 BYTE   W12
//  #16 //020   ----------------------------------------
Label_0101448A:
 BYTE   N12 Cn1 v060
 BYTE   W24
 BYTE   Cn1 v052
 BYTE   W24
 BYTE   N12
 BYTE   W24
 BYTE   N12
 BYTE   W12
 BYTE   En3 v048
 BYTE   W12
 BYTE   PEND 
//  #16 //021   ----------------------------------------
 BYTE   PATT
  POIN2 Label_0101448A
//  #16 //022   ----------------------------------------
 BYTE   PATT
  POIN2 Label_0101448A
//  #16 //023   ----------------------------------------
 BYTE   PATT
  POIN2 Label_0101448A
//  #16 //024   ----------------------------------------
 BYTE   N12 Cn1 v060
 BYTE   W24
 BYTE   Cn1 v052
 BYTE   N60 Cs2 v024
 BYTE   W24
 BYTE   N12 Cn1 v052
 BYTE   W24
 BYTE   N12
 BYTE   W12
 BYTE   En3 v048
 BYTE   W12
//  #16 //025   ----------------------------------------
 BYTE   PATT
  POIN2 Label_0101448A
//  #16 //026   ----------------------------------------
 BYTE   PATT
  POIN2 Label_0101448A
//  #16 //027   ----------------------------------------
 BYTE   N12 Cn1 v060
 BYTE   N60 Cs2 v072
 BYTE   W24
 BYTE   N12 Cn1 v052
 BYTE   W72
//  #16 //028   ----------------------------------------
Label_010144D0:
 BYTE   N12 Cn1 v084
 BYTE   W24
 BYTE   Cn1 v072
 BYTE   W24
 BYTE   Dn3 v032
 BYTE   W24
 BYTE   N12
 BYTE   W24
 BYTE   PEND 
//  #16 //029   ----------------------------------------
 BYTE   PATT
  POIN2 Label_010144D0
//  #16 //030   ----------------------------------------
 BYTE   PATT
  POIN2 Label_010144D0
//  #16 //031   ----------------------------------------
 BYTE   PATT
  POIN2 Label_010144D0
//  #16 //032   ----------------------------------------
 BYTE   PATT
  POIN2 Label_010144D0
//  #16 //033   ----------------------------------------
 BYTE   PATT
  POIN2 Label_010144D0
//  #16 //034   ----------------------------------------
 BYTE   N12 Cn1 v084
 BYTE   W24
 BYTE   Cn1 v072
 BYTE   W24
 BYTE   N96 Fn2
 BYTE   N12 Dn3 v032
 BYTE   W24
 BYTE   N12
 BYTE   W24
//  #16 //035   ----------------------------------------
 BYTE   N36 Cn1 v092
 BYTE   W96
//  #16 //036   ----------------------------------------
 BYTE   W96
//  #16 //037   ----------------------------------------
 BYTE   W96
//  #16 //038   ----------------------------------------
Label_0101450B:
 BYTE   W24
 BYTE   N12 Ds1 v020
 BYTE   N36 Fn1 v080
 BYTE   W12
 BYTE   N12 Ds1 v032
 BYTE   W12
 BYTE   Ds1 v048
 BYTE   W12
 BYTE   Ds1 v056
 BYTE   N60 Fn2 v104
 BYTE   W12
 BYTE   N12 Ds1 v064
 BYTE   W12
 BYTE   Ds1 v072
 BYTE   W12
 BYTE   PEND 
//  #16 //039   ----------------------------------------
Label_01014528:
 BYTE   N36 Cn1 v104
 BYTE   N36 An1
 BYTE   N36 Cs2
 BYTE   W96
 BYTE   PEND 
//  #16 //040   ----------------------------------------
 BYTE   W24
 BYTE   N24 Cn1 v076
 BYTE   W72
//  #16 //041   ----------------------------------------
 BYTE   W96
//  #16 //042   ----------------------------------------
Label_01014537:
 BYTE   W48
 BYTE   N24 Cn1 v076
 BYTE   W24
 BYTE   N12 Dn1
 BYTE   W12
 BYTE   N06
 BYTE   W06
 BYTE   N06
 BYTE   W06
 BYTE   PEND 
//  #16 //043   ----------------------------------------
Label_01014544:
 BYTE   N24 Cn1 v076
 BYTE   N18 Cn2
 BYTE   N24 Cs2
 BYTE   W96
 BYTE   PEND 
//  #16 //044   ----------------------------------------
 BYTE   W24
 BYTE   N36 Cn1
 BYTE   W72
//  #16 //045   ----------------------------------------
 BYTE   W96
//  #16 //046   ----------------------------------------
Label_01014552:
 BYTE   W24
 BYTE   N24 Cn1 v076
 BYTE   W44
 BYTE   W03
 BYTE   N12 Dn1
 BYTE   W12
 BYTE   N06
 BYTE   W06
 BYTE   N06
 BYTE   W06
 BYTE   N18 Cn2
 BYTE   N24 Cs2
 BYTE   W01
 BYTE   PEND 
//  #16 //047   ----------------------------------------
 BYTE   W96
//  #16 //048   ----------------------------------------
 BYTE   W72
 BYTE   Cn1
 BYTE   N12 Dn1
 BYTE   W12
 BYTE   N06
 BYTE   W06
 BYTE   N06
 BYTE   W06
//  #16 //049   ----------------------------------------
Label_0101456F:
 BYTE   N18 Cn2 v076
 BYTE   N24 Cs2
 BYTE   W96
 BYTE   PEND 
//  #16 //050   ----------------------------------------
 BYTE   W24
 BYTE   TIE En2
 BYTE   W48
 BYTE   N12 Cn1
 BYTE   W12
 BYTE   N06
 BYTE   W06
 BYTE   N06
 BYTE   W06
//  #16 //051   ----------------------------------------
Label_01014581:
 BYTE   N18 Dn1 v076
 BYTE   W24
 BYTE   N24 Cn1
 BYTE   W48
 BYTE   N18 Cs1
 BYTE   W24
 BYTE   PEND 
//  #16 //052   ----------------------------------------
 BYTE   EOT
 BYTE   En2
Label_0101458E:
 BYTE   W24
 BYTE   N24 Cs1 v076
 BYTE   W48
 BYTE   N24
 BYTE   W24
 BYTE   PEND 
//  #16 //053   ----------------------------------------
 BYTE   PATT
  POIN2 Label_0101458E
//  #16 //054   ----------------------------------------
 BYTE   PATT
  POIN2 Label_0101458E
//  #16 //055   ----------------------------------------
Label_010145A0:
 BYTE   W24
 BYTE   N24 Cs1 v028
 BYTE   W24
 BYTE   N12 Ds1 v024
 BYTE   W12
 BYTE   Ds1 v052
 BYTE   W12
 BYTE   N24 Ds1 v088
 BYTE   W24
 BYTE   PEND 
//  #16 //056   ----------------------------------------
 BYTE   N18 Cn1 v108
 BYTE   N06 Dn1 v088
 BYTE   N18 Cn2 v108
 BYTE   W24
 BYTE   Cn1 v072
 BYTE   W60
 BYTE   N03 Dn1
 BYTE   W03
 BYTE   N03
 BYTE   W03
 BYTE   N06
 BYTE   W06
//  #16 //057   ----------------------------------------
 BYTE   Dn1 v084
 BYTE   W24
 BYTE   Dn1 v072
 BYTE   W48
 BYTE   N24 Ds1
 BYTE   W24
//  #16 //058   ----------------------------------------
 BYTE   N06 Cn1
 BYTE   N06 Dn1
 BYTE   W24
 BYTE   Cn1
 BYTE   W60
 BYTE   N03 Dn1
 BYTE   W03
 BYTE   N03
 BYTE   W03
 BYTE   N06
 BYTE   W06
//  #16 //059   ----------------------------------------
 BYTE   PATT
  POIN2 Label_010143A9
//  #16 //060   ----------------------------------------
 BYTE   N21 Cn1 v068
 BYTE   N18 Dn1 v064
 BYTE   W24
 BYTE   N24 Cn1 v068
 BYTE   W60
 BYTE   N03 Dn1 v108
 BYTE   W03
 BYTE   N03
 BYTE   W03
 BYTE   N06
 BYTE   W06
//  #16 //061   ----------------------------------------
 BYTE   N21 Cn1 v068
 BYTE   N15 Dn1 v108
 BYTE   W24
 BYTE   N18 Cn1 v052
 BYTE   N15 Dn1 v084
 BYTE   W48
 BYTE   N24 Ds1 v064
 BYTE   W24
//  #16 //062   ----------------------------------------
 BYTE   N21 Cn1 v068
 BYTE   N18 Dn1 v064
 BYTE   W24
 BYTE   N21 Cn1 v052
 BYTE   W60
 BYTE   N03 Dn1 v108
 BYTE   W03
 BYTE   N03
 BYTE   W03
 BYTE   N06
 BYTE   W06
//  #16 //063   ----------------------------------------
 BYTE   PATT
  POIN2 Label_01014412
//  #16 //064   ----------------------------------------
 BYTE   N21 Cn1 v068
 BYTE   N18 Dn1 v064
 BYTE   W24
 BYTE   N21 Cn1 v052
 BYTE   W72
//  #16 //065   ----------------------------------------
 BYTE   W96
//  #16 //066   ----------------------------------------
 BYTE   Cn1 v088
 BYTE   W24
 BYTE   Cn1 v072
 BYTE   W72
//  #16 //067   ----------------------------------------
 BYTE   W96
//  #16 //068   ----------------------------------------
 BYTE   Cn1 v127
 BYTE   W24
 BYTE   Cn1 v108
 BYTE   W72
//  #16 //069   ----------------------------------------
 BYTE   W96
//  #16 //070   ----------------------------------------
 BYTE   Fn1 v088
 BYTE   W24
 BYTE   Fn1 v072
 BYTE   W72
//  #16 //071   ----------------------------------------
 BYTE   W96
//  #16 //072   ----------------------------------------
 BYTE   N24 Cn1 v127
 BYTE   N24 Dn1 v068
 BYTE   N24 Gn2 v127
 BYTE   W96
//  #16 //073   ----------------------------------------
 BYTE   PATT
  POIN2 Label_01014466
//  #16 //074   ----------------------------------------
 BYTE   N21 Cn1 v127
 BYTE   N24 Dn1 v108
 BYTE   N96 Cs2 v127
 BYTE   W72
 BYTE   N12 Cn2 v024
 BYTE   W12
 BYTE   An1 v040
 BYTE   W12
//  #16 //075   ----------------------------------------
Label_0101465F:
 BYTE   N12 Cn2 v024
 BYTE   W24
 BYTE   Cn2 v020
 BYTE   W24
 BYTE   N12
 BYTE   W24
 BYTE   N12
 BYTE   W24
 BYTE   PEND 
//  #16 //076   ----------------------------------------
 BYTE   PATT
  POIN2 Label_0101465F
//  #16 //077   ----------------------------------------
 BYTE   PATT
  POIN2 Label_0101465F
//  #16 //078   ----------------------------------------
 BYTE   PATT
  POIN2 Label_0101465F
//  #16 //079   ----------------------------------------
 BYTE   PATT
  POIN2 Label_0101465F
//  #16 //080   ----------------------------------------
 BYTE   PATT
  POIN2 Label_0101465F
//  #16 //081   ----------------------------------------
 BYTE   PATT
  POIN2 Label_0101465F
//  #16 //082   ----------------------------------------
 BYTE   N12 Cn2 v024
 BYTE   N60 Cs2 v072
 BYTE   W24
 BYTE   N12 Cn2 v020
 BYTE   W72
//  #16 //083   ----------------------------------------
Label_01014694:
 BYTE   N12 Cn1 v084
 BYTE   W24
 BYTE   Cn1 v072
 BYTE   W72
 BYTE   PEND 
//  #16 //084   ----------------------------------------
 BYTE   PATT
  POIN2 Label_01014694
//  #16 //085   ----------------------------------------
 BYTE   PATT
  POIN2 Label_01014694
//  #16 //086   ----------------------------------------
 BYTE   PATT
  POIN2 Label_01014694
//  #16 //087   ----------------------------------------
 BYTE   PATT
  POIN2 Label_01014694
//  #16 //088   ----------------------------------------
 BYTE   PATT
  POIN2 Label_01014694
//  #16 //089   ----------------------------------------
 BYTE   N12 Cn1 v084
 BYTE   W24
 BYTE   Cn1 v072
 BYTE   W24
 BYTE   N96 Fn2
 BYTE   W48
//  #16 //090   ----------------------------------------
 BYTE   N36 Cn1 v092
 BYTE   N30 Dn1 v056
 BYTE   W96
//  #16 //091   ----------------------------------------
 BYTE   W96
//  #16 //092   ----------------------------------------
 BYTE   W96
//  #16 //093   ----------------------------------------
 BYTE   PATT
  POIN2 Label_0101450B
//  #16 //094   ----------------------------------------
 BYTE   PATT
  POIN2 Label_01014528
//  #16 //095   ----------------------------------------
 BYTE   W24
 BYTE   N24 Cn1 v076
 BYTE   W72
//  #16 //096   ----------------------------------------
 BYTE   W96
//  #16 //097   ----------------------------------------
 BYTE   PATT
  POIN2 Label_01014537
//  #16 //098   ----------------------------------------
 BYTE   PATT
  POIN2 Label_01014544
//  #16 //099   ----------------------------------------
 BYTE   W24
 BYTE   N36 Cn1 v076
 BYTE   W72
//  #16 //100   ----------------------------------------
 BYTE   W96
//  #16 //101   ----------------------------------------
 BYTE   PATT
  POIN2 Label_01014552
//  #16 //102   ----------------------------------------
 BYTE   W96
//  #16 //103   ----------------------------------------
 BYTE   W72
 BYTE   N24 Cn1 v076
 BYTE   N12 Dn1 v108
 BYTE   W12
 BYTE   N06
 BYTE   W06
 BYTE   N06
 BYTE   W06
//  #16 //104   ----------------------------------------
 BYTE   PATT
  POIN2 Label_0101456F
//  #16 //105   ----------------------------------------
 BYTE   W24
 BYTE   TIE En2 v076
 BYTE   W48
 BYTE   N12 Dn1
 BYTE   W12
 BYTE   N06
 BYTE   W06
 BYTE   N06
 BYTE   W06
//  #16 //106   ----------------------------------------
 BYTE   PATT
  POIN2 Label_01014581
//  #16 //107   ----------------------------------------
 BYTE   EOT
 BYTE   En2
//  #16 //108   ----------------------------------------
 BYTE   PATT
  POIN2 Label_0101458E
//  #16 //109   ----------------------------------------
 BYTE   PATT
  POIN2 Label_0101458E
//  #16 //110   ----------------------------------------
 BYTE   PATT
  POIN2 Label_0101458E
//  #16 //111   ----------------------------------------
 BYTE   PATT
  POIN2 Label_010145A0
//  #16 //112   ----------------------------------------
 BYTE   GoTo
  POIN2 Label_0101436E
//  #16 //113   ----------------------------------------
 BYTE   N21 Cn1 v127
 BYTE   N96 Cs2
 BYTE   W24
 BYTE   N21 Cn1 v108
 BYTE   W48
 BYTE   N06 Cn1 v060
 BYTE   W12
 BYTE   N03 Dn1 v108
 BYTE   W03
 BYTE   N03
 BYTE   W03
 BYTE   N06
 BYTE   W06
//  #16 //114   ----------------------------------------
 BYTE   PATT
  POIN2 Label_01014380
//  #16 //115   ----------------------------------------
 BYTE   N21 Cn1 v127
 BYTE   N18 Dn1 v064
 BYTE   W24
 BYTE   N21 Cn1 v108
 BYTE   W60
 BYTE   N03 Dn1
 BYTE   W03
 BYTE   N03
 BYTE   W03
 BYTE   N06
 BYTE   W06
//  #16 //116   ----------------------------------------
 BYTE   PATT
  POIN2 Label_010143A9
//  #16 //117   ----------------------------------------
 BYTE   N21 Cn1 v127
 BYTE   N18 Dn1 v064
 BYTE   W24
 BYTE   N09 Cn1 v108
 BYTE   N09 Dn1
 BYTE   W12
 BYTE   N06 Cn1
 BYTE   N06 Dn1
 BYTE   W06
 BYTE   Cn1
 BYTE   N06 Dn1
 BYTE   W06
 BYTE   N18 Cn1 v112
 BYTE   N18 Dn1 v108
 BYTE   W18
 BYTE   FINE

//******************************************************//
	ALIGN 4

song03DA:
	BYTE	16	// NumTrks
	BYTE	0	// NumBlks
	BYTE	song03DA_pri	// Priority
	BYTE	song03DA_rev	// Reverb.
    
	POIN2	song03DA_grp
    
	POIN2	song03DA_001
	POIN2	song03DA_002
	POIN2	song03DA_003
	POIN2	song03DA_004
	POIN2	song03DA_005
	POIN2	song03DA_006
	POIN2	song03DA_007
	POIN2	song03DA_008
	POIN2	song03DA_009
	POIN2	song03DA_010
	POIN2	song03DA_011
	POIN2	song03DA_012
	POIN2	song03DA_013
	POIN2	song03DA_014
	POIN2	song03DA_015
	POIN2	song03DA_016

	
