//Generated with python s2ea
        #include "MPlayDef.event"

        #define    ForbiddenForest_Alusq_grp voicegroup000
        #define    ForbiddenForest_Alusq_pri 0
        #define    ForbiddenForest_Alusq_rev 0
        #define    ForbiddenForest_Alusq_key 0

        // .rodata
        // ForbiddenForest_Alusq
        ALIGN 4

//****************** Track 0 (Midi-Chn.0) ******************//

ForbiddenForest_Alusq_0:
        BYTE   KEYSH  ForbiddenForest_Alusq_key+0
// 000   ----------------------------------------
        BYTE   TEMPO  92/2
        BYTE           VOICE  108
        BYTE           VOL    19
        BYTE           TIE    Fn4  v076
        BYTE   W96
// 001   ----------------------------------------
        BYTE   W44
        BYTE   W02
        BYTE           EOT
        BYTE   W02
ForbiddenForest_Alusq_0_LOOP:
        BYTE           TIE    Fn4  v076
        BYTE   W48
// 002   ----------------------------------------
        BYTE   W96
// 003   ----------------------------------------
        BYTE   W96
// 004   ----------------------------------------
ForbiddenForest_Alusq_0_4:
        BYTE   W44
        BYTE   W03
        BYTE           EOT    Fn4
        BYTE   W01
        BYTE           TIE    Ds4  v076
        BYTE   W48
        BYTE   PEND
// 005   ----------------------------------------
        BYTE   W96
// 006   ----------------------------------------
        BYTE   W96
// 007   ----------------------------------------
        BYTE   W44
        BYTE   W03
        BYTE           EOT
        BYTE   W01
        BYTE           TIE    Fn4
        BYTE   W48
// 008   ----------------------------------------
        BYTE   W96
// 009   ----------------------------------------
        BYTE   W96
// 010   ----------------------------------------
        BYTE   PATT
         POIN2  ForbiddenForest_Alusq_0_4
// 011   ----------------------------------------
        BYTE   W96
// 012   ----------------------------------------
        BYTE   W96
// 013   ----------------------------------------
        BYTE   W44
        BYTE   W03
        BYTE           EOT    Ds4
        BYTE   W01
        BYTE           TIE    Cn4  v076
        BYTE           TIE    Fn4
        BYTE   W48
// 014   ----------------------------------------
        BYTE   W96
// 015   ----------------------------------------
        BYTE   W96
// 016   ----------------------------------------
        BYTE   W44
        BYTE   W03
        BYTE           EOT    Cn4
        BYTE                   Fn4
        BYTE   W01
        BYTE           TIE    Cn4
        BYTE           TIE    Gn4
        BYTE   W48
// 017   ----------------------------------------
        BYTE   W96
// 018   ----------------------------------------
        BYTE   W96
// 019   ----------------------------------------
        BYTE   W44
        BYTE   W03
        BYTE           EOT    Cn4
        BYTE                   Gn4
        BYTE   W01
        BYTE           VOICE  8
        BYTE           TIE    Gs2  v120
        BYTE   W48
// 020   ----------------------------------------
        BYTE   W80
        BYTE   W03
        BYTE           EOT
        BYTE   W13
// 021   ----------------------------------------
        BYTE           TIE
        BYTE   W96
// 022   ----------------------------------------
        BYTE   W32
        BYTE   W03
        BYTE           EOT
        BYTE   W13
        BYTE           TIE
        BYTE   W48
// 023   ----------------------------------------
        BYTE   W80
        BYTE   W03
        BYTE           EOT
        BYTE   W13
// 024   ----------------------------------------
        BYTE           TIE    Fs2
        BYTE           N68    As2
        BYTE   W72
        BYTE                   An2
        BYTE   W24
// 025   ----------------------------------------
        BYTE   W44
        BYTE   W03
        BYTE           EOT    Fs2
        BYTE   W01
        BYTE           N68    Gn2  v127
        BYTE           N68    An2
        BYTE   W48
// 026   ----------------------------------------
        BYTE   W24
        BYTE                   Fs2
        BYTE           N68    An2  v120
        BYTE   W72
// 027   ----------------------------------------
        BYTE                   Fn2  v127
        BYTE           N68    An2
        BYTE   W72
        BYTE                   An2  v120
        BYTE   W24
// 028   ----------------------------------------
        BYTE   W48
        BYTE           VOICE  108
        BYTE           TIE    Cn4  v100
        BYTE   W48
// 029   ----------------------------------------
        BYTE   W24
        BYTE                   Gn4  v104
        BYTE   W72
// 030   ----------------------------------------
        BYTE   W96
// 031   ----------------------------------------
        BYTE   W23
        BYTE           EOT    Cn4
        BYTE                   Gn4
        BYTE   W24
        BYTE   W01
        BYTE           N68    Dn4  v096
        BYTE   W48
// 032   ----------------------------------------
ForbiddenForest_Alusq_0_32:
        BYTE   W24
        BYTE           N23    Cn4  v096
        BYTE   W24
        BYTE           N44    Fn4
        BYTE   W48
        BYTE   PEND
// 033   ----------------------------------------
ForbiddenForest_Alusq_0_33:
        BYTE           N68    Dn4  v096
        BYTE   W72
        BYTE           N23    Cn4
        BYTE   W24
        BYTE   PEND
// 034   ----------------------------------------
ForbiddenForest_Alusq_0_34:
        BYTE           N44    Fn4  v096
        BYTE   W48
        BYTE           N68    Dn4
        BYTE   W48
        BYTE   PEND
// 035   ----------------------------------------
        BYTE   W24
        BYTE           N23    Cn4
        BYTE   W72
// 036   ----------------------------------------
        BYTE   W72
        BYTE           N68
        BYTE   W24
// 037   ----------------------------------------
        BYTE   W48
        BYTE                   Dn4
        BYTE   W48
// 038   ----------------------------------------
        BYTE   PATT
         POIN2  ForbiddenForest_Alusq_0_32
// 039   ----------------------------------------
        BYTE   PATT
         POIN2  ForbiddenForest_Alusq_0_33
// 040   ----------------------------------------
        BYTE   PATT
         POIN2  ForbiddenForest_Alusq_0_34
// 041   ----------------------------------------
        BYTE   W24
        BYTE           N68    Cn4  v096
        BYTE   W72
// 042   ----------------------------------------
        BYTE           N44
        BYTE           N68    Fn4
        BYTE   W72
        BYTE                   En4
        BYTE   W24
// 043   ----------------------------------------
        BYTE   W24
        BYTE           N23    An4
        BYTE   W24
        BYTE           TIE
        BYTE   W48
// 044   ----------------------------------------
        BYTE   W92
        BYTE   W03
        BYTE           EOT
        BYTE   W01
// 045   ----------------------------------------
        BYTE           N92    Gn4
        BYTE   W96
// 046   ----------------------------------------
        BYTE           N23    Fn4
        BYTE   W24
        BYTE                   Ds4
        BYTE   W24
        BYTE                   Dn4
        BYTE           N68    Fn4
        BYTE   W24
        BYTE           N44    Cn4
        BYTE   W24
// 047   ----------------------------------------
        BYTE   W24
        BYTE           N23    Dn4
        BYTE           N68    Fs4
        BYTE   W24
        BYTE           N44    Cn4
        BYTE   W48
// 048   ----------------------------------------
        BYTE           N68    Dn4
        BYTE           N68    Gn4
        BYTE   W72
        BYTE                   En4
        BYTE           N68    An4
        BYTE   W24
// 049   ----------------------------------------
        BYTE   W48
        BYTE           N44    Dn4
        BYTE           N68    En4
        BYTE           N68    An4
        BYTE   W48
// 050   ----------------------------------------
        BYTE   W24
        BYTE           N28    En4
        BYTE           N23    An4
        BYTE   W24
        BYTE           N32    Gn4
        BYTE   W01
        BYTE                   Dn4
        BYTE   W44
        BYTE   W03
// 051   ----------------------------------------
        BYTE           TIE    Cn4  v092
        BYTE           TIE    Gn4
        BYTE   W96
// 052   ----------------------------------------
        BYTE   W40
        BYTE   W01
        BYTE           EOT    Cn4
        BYTE   W01
        BYTE                   Gn4
        BYTE   W06
        BYTE           VOICE  8
        BYTE           TIE    As2  v120
        BYTE   W48
// 053   ----------------------------------------
        BYTE   W76
        BYTE   W01
        BYTE           EOT
        BYTE   W19
// 054   ----------------------------------------
        BYTE   W96
// 055   ----------------------------------------
        BYTE   W48
        BYTE           TIE
        BYTE   W48
// 056   ----------------------------------------
        BYTE   W76
        BYTE   W01
        BYTE           EOT
        BYTE   W19
// 057   ----------------------------------------
        BYTE   W96
// 058   ----------------------------------------
        BYTE   W48
        BYTE           TIE
        BYTE   W48
// 059   ----------------------------------------
        BYTE   W96
// 060   ----------------------------------------
        BYTE   W36
        BYTE           VOICE  108
        BYTE   GoTo
         POIN2  ForbiddenForest_Alusq_0_LOOP
        BYTE   W60
// 061   ----------------------------------------
        BYTE   W23
        BYTE           EOT
        BYTE   W01
        BYTE   FINE

//****************** Track 1 (Midi-Chn.1) ******************//

ForbiddenForest_Alusq_1:
        BYTE   KEYSH  ForbiddenForest_Alusq_key+0
// 000   ----------------------------------------
        BYTE           VOICE  41
        BYTE           VOL    21
        BYTE           PAN    c_v+8
        BYTE           TIE    As3  v080
        BYTE   W96
// 001   ----------------------------------------
        BYTE   W44
        BYTE   W02
        BYTE           EOT
        BYTE   W02
ForbiddenForest_Alusq_1_LOOP:
        BYTE           TIE    As3  v080
        BYTE   W48
// 002   ----------------------------------------
        BYTE   W96
// 003   ----------------------------------------
        BYTE   W96
// 004   ----------------------------------------
ForbiddenForest_Alusq_1_4:
        BYTE   W44
        BYTE   W03
        BYTE           EOT    As3
        BYTE   W01
        BYTE           TIE    As3  v080
        BYTE   W48
        BYTE   PEND
// 005   ----------------------------------------
        BYTE   W96
// 006   ----------------------------------------
        BYTE   W96
// 007   ----------------------------------------
        BYTE   PATT
         POIN2  ForbiddenForest_Alusq_1_4
// 008   ----------------------------------------
        BYTE   W96
// 009   ----------------------------------------
        BYTE   W96
// 010   ----------------------------------------
        BYTE   PATT
         POIN2  ForbiddenForest_Alusq_1_4
// 011   ----------------------------------------
        BYTE   W96
// 012   ----------------------------------------
        BYTE   W96
// 013   ----------------------------------------
        BYTE   W44
        BYTE   W03
        BYTE           EOT    As3
        BYTE   W48
        BYTE   W01
// 014   ----------------------------------------
        BYTE   W96
// 015   ----------------------------------------
        BYTE   W96
// 016   ----------------------------------------
        BYTE   W48
        BYTE           VOICE  50
        BYTE           TIE    Fn1  v116
        BYTE   W48
// 017   ----------------------------------------
        BYTE   W96
// 018   ----------------------------------------
        BYTE   W96
// 019   ----------------------------------------
        BYTE   W44
        BYTE   W03
        BYTE           EOT
        BYTE   W01
        BYTE           TIE    Fn1  v127
        BYTE   W48
// 020   ----------------------------------------
        BYTE   W80
        BYTE   W03
        BYTE           EOT
        BYTE   W13
// 021   ----------------------------------------
        BYTE           TIE    En1
        BYTE   W96
// 022   ----------------------------------------
        BYTE   W32
        BYTE   W03
        BYTE           EOT
        BYTE   W13
        BYTE           TIE    Fn1
        BYTE   W48
// 023   ----------------------------------------
        BYTE   W80
        BYTE   W03
        BYTE           EOT
        BYTE   W13
// 024   ----------------------------------------
        BYTE           VOICE  41
        BYTE           N68    Ds3  v112
        BYTE   W72
        BYTE           N32    Ds3  v104
        BYTE   W24
// 025   ----------------------------------------
        BYTE           N44    Dn3
        BYTE   W48
        BYTE           TIE    Dn3  v108
        BYTE           N23    An3
        BYTE   W24
        BYTE           N44    Gn3
        BYTE   W24
// 026   ----------------------------------------
        BYTE   W24
        BYTE           N68    An3
        BYTE   W72
// 027   ----------------------------------------
        BYTE           N23
        BYTE   W24
        BYTE           N44    Gn3
        BYTE   W48
        BYTE           N68    An3
        BYTE   W24
// 028   ----------------------------------------
        BYTE   W44
        BYTE   W03
        BYTE           EOT    Dn3
        BYTE   W01
        BYTE           N68    Dn3  v124
        BYTE           N68    Gn3  v120
        BYTE   W48
// 029   ----------------------------------------
        BYTE   W24
        BYTE           N64    Gn3  v112
        BYTE   W72
// 030   ----------------------------------------
        BYTE           N68    Gn3  v124
        BYTE   W72
        BYTE           N52    Gn3  v112
        BYTE   W24
// 031   ----------------------------------------
        BYTE   W48
        BYTE           TIE    Gn3  v100
        BYTE   W48
// 032   ----------------------------------------
        BYTE   W92
        BYTE   W03
        BYTE           EOT
        BYTE   W01
// 033   ----------------------------------------
        BYTE           TIE
        BYTE   W96
// 034   ----------------------------------------
        BYTE   W44
        BYTE   W03
        BYTE           EOT
        BYTE   W01
        BYTE           N92
        BYTE   W48
// 035   ----------------------------------------
        BYTE   W48
        BYTE           N44    Fn3
        BYTE           N44    An3
        BYTE   W48
// 036   ----------------------------------------
        BYTE           N68    Fn3
        BYTE           N68    As3
        BYTE   W72
        BYTE                   Gn3
        BYTE   W24
// 037   ----------------------------------------
        BYTE   W48
        BYTE           TIE
        BYTE   W48
// 038   ----------------------------------------
        BYTE   W92
        BYTE   W03
        BYTE           EOT
        BYTE   W01
// 039   ----------------------------------------
        BYTE           TIE
        BYTE   W96
// 040   ----------------------------------------
        BYTE   W44
        BYTE   W03
        BYTE           EOT
        BYTE   W01
        BYTE           N68
        BYTE   W48
// 041   ----------------------------------------
        BYTE   W24
        BYTE           N44
        BYTE   W48
        BYTE           N23    Fn3
        BYTE   W24
// 042   ----------------------------------------
        BYTE   W48
        BYTE                   As3
        BYTE   W24
        BYTE                   An3
        BYTE   W24
// 043   ----------------------------------------
        BYTE                   Cs4  v096
        BYTE   W48
        BYTE           N68    En4
        BYTE   W48
// 044   ----------------------------------------
        BYTE   W24
        BYTE                   Dn4
        BYTE   W72
// 045   ----------------------------------------
        BYTE           N92
        BYTE   W96
// 046   ----------------------------------------
        BYTE           N44    As3  v100
        BYTE   W48
        BYTE           N68    An3
        BYTE   W48
// 047   ----------------------------------------
        BYTE   W24
        BYTE                   An3
        BYTE   W72
// 048   ----------------------------------------
        BYTE           N23
        BYTE   W24
        BYTE           N44    Gn3
        BYTE   W48
        BYTE           N23
        BYTE   W24
// 049   ----------------------------------------
        BYTE           N44    An3
        BYTE   W96
// 050   ----------------------------------------
        BYTE           N23
        BYTE   W24
        BYTE           N56    Gn3
        BYTE   W72
// 051   ----------------------------------------
        BYTE           TIE    Gn3  v096
        BYTE   W96
// 052   ----------------------------------------
        BYTE   W42
        BYTE           EOT
        BYTE   W06
        BYTE           TIE    Fn3  v112
        BYTE   W48
// 053   ----------------------------------------
ForbiddenForest_Alusq_1_53:
        BYTE   W76
        BYTE   W01
        BYTE           EOT    Fn3
        BYTE   W18
        BYTE           TIE    Gn3  v112
        BYTE   W01
        BYTE   PEND
// 054   ----------------------------------------
        BYTE                   Ds3
        BYTE   W96
// 055   ----------------------------------------
        BYTE   W28
        BYTE           EOT    Gn3
        BYTE   W01
        BYTE                   Ds3
        BYTE   W19
        BYTE           TIE    Fn3
        BYTE   W48
// 056   ----------------------------------------
        BYTE   PATT
         POIN2  ForbiddenForest_Alusq_1_53
// 057   ----------------------------------------
        BYTE           TIE    Ds3  v112
        BYTE   W96
// 058   ----------------------------------------
        BYTE   W28
        BYTE           EOT    Gn3
        BYTE   W01
        BYTE                   Ds3
        BYTE   W19
        BYTE           TIE
        BYTE   W48
// 059   ----------------------------------------
        BYTE   W96
// 060   ----------------------------------------
        BYTE   W36
        BYTE   GoTo
         POIN2  ForbiddenForest_Alusq_1_LOOP
        BYTE   W60
// 061   ----------------------------------------
        BYTE   W23
        BYTE           EOT
        BYTE   W01
        BYTE   FINE

//****************** Track 2 (Midi-Chn.2) ******************//

ForbiddenForest_Alusq_2:
        BYTE   KEYSH  ForbiddenForest_Alusq_key+0
// 000   ----------------------------------------
        BYTE           VOICE  8
        BYTE           VOL    23
        BYTE           PAN    c_v+16
        BYTE   W96
// 001   ----------------------------------------
        BYTE   W48
ForbiddenForest_Alusq_2_LOOP:
        BYTE   W48
// 002   ----------------------------------------
        BYTE   W96
// 003   ----------------------------------------
        BYTE   W96
// 004   ----------------------------------------
        BYTE   W96
// 005   ----------------------------------------
        BYTE   W96
// 006   ----------------------------------------
        BYTE   W96
// 007   ----------------------------------------
        BYTE   W48
        BYTE           VOICE  50
        BYTE           TIE    Ds1  v116
        BYTE   W48
// 008   ----------------------------------------
        BYTE   W96
// 009   ----------------------------------------
        BYTE   W96
// 010   ----------------------------------------
        BYTE   W44
        BYTE   W03
        BYTE           EOT
        BYTE   W01
        BYTE           VOICE  51
        BYTE           TIE    Bn1  v104
        BYTE   W48
// 011   ----------------------------------------
        BYTE   W96
// 012   ----------------------------------------
        BYTE   W96
// 013   ----------------------------------------
        BYTE   W44
        BYTE   W03
        BYTE           EOT
        BYTE   W01
        BYTE           TIE    As1
        BYTE   W48
// 014   ----------------------------------------
        BYTE   W96
// 015   ----------------------------------------
        BYTE   W96
// 016   ----------------------------------------
        BYTE   W44
        BYTE   W03
        BYTE           EOT
        BYTE   W48
        BYTE   W01
// 017   ----------------------------------------
        BYTE   W96
// 018   ----------------------------------------
        BYTE   W96
// 019   ----------------------------------------
        BYTE   W48
        BYTE           TIE    Cn2  v127
        BYTE   W48
// 020   ----------------------------------------
        BYTE   W80
        BYTE   W03
        BYTE           EOT
        BYTE   W13
// 021   ----------------------------------------
        BYTE           TIE    Bn1
        BYTE   W96
// 022   ----------------------------------------
        BYTE   W32
        BYTE   W03
        BYTE           EOT
        BYTE   W13
        BYTE           TIE    Cn2
        BYTE   W48
// 023   ----------------------------------------
        BYTE   W80
        BYTE   W03
        BYTE           EOT
        BYTE   W13
// 024   ----------------------------------------
        BYTE           TIE
        BYTE   W96
// 025   ----------------------------------------
        BYTE   W44
        BYTE   W03
        BYTE           EOT
        BYTE   W01
        BYTE           N68    As1
        BYTE   W48
// 026   ----------------------------------------
        BYTE   W24
        BYTE                   As1
        BYTE   W72
// 027   ----------------------------------------
        BYTE                   As1
        BYTE   W72
        BYTE                   As1
        BYTE           N68    En2
        BYTE   W24
// 028   ----------------------------------------
        BYTE   W48
        BYTE                   Ds2
        BYTE   W48
// 029   ----------------------------------------
        BYTE   W24
        BYTE           VOICE  8
        BYTE           N68
        BYTE           N68    Cn3  v120
        BYTE   W72
// 030   ----------------------------------------
        BYTE                   Ds2  v127
        BYTE           N68    Bn2
        BYTE   W72
        BYTE           N52    Ds2
        BYTE           N52    An2  v120
        BYTE   W24
// 031   ----------------------------------------
        BYTE   W96
// 032   ----------------------------------------
        BYTE   W96
// 033   ----------------------------------------
        BYTE   W96
// 034   ----------------------------------------
        BYTE   W96
// 035   ----------------------------------------
        BYTE   W96
// 036   ----------------------------------------
        BYTE   W96
// 037   ----------------------------------------
        BYTE   W96
// 038   ----------------------------------------
        BYTE   W96
// 039   ----------------------------------------
        BYTE   W96
// 040   ----------------------------------------
        BYTE   W96
// 041   ----------------------------------------
        BYTE   W96
// 042   ----------------------------------------
        BYTE   W96
// 043   ----------------------------------------
        BYTE   W96
// 044   ----------------------------------------
        BYTE   W96
// 045   ----------------------------------------
        BYTE   W96
// 046   ----------------------------------------
        BYTE   W96
// 047   ----------------------------------------
        BYTE   W96
// 048   ----------------------------------------
        BYTE   W96
// 049   ----------------------------------------
        BYTE   W96
// 050   ----------------------------------------
        BYTE   W96
// 051   ----------------------------------------
        BYTE   W96
// 052   ----------------------------------------
        BYTE   W48
        BYTE           VOICE  50
        BYTE           TIE    Dn1  v127
        BYTE   W48
// 053   ----------------------------------------
ForbiddenForest_Alusq_2_53:
        BYTE   W76
        BYTE   W01
        BYTE           EOT    Dn1
        BYTE   W18
        BYTE           TIE    Gs1  v127
        BYTE   W01
        BYTE   PEND
// 054   ----------------------------------------
        BYTE           VOICE  51
        BYTE   W96
// 055   ----------------------------------------
        BYTE   W28
        BYTE           EOT
        BYTE   W20
        BYTE           VOICE  50
        BYTE           TIE    Dn1
        BYTE   W48
// 056   ----------------------------------------
        BYTE   PATT
         POIN2  ForbiddenForest_Alusq_2_53
// 057   ----------------------------------------
        BYTE           VOICE  51
        BYTE   W96
// 058   ----------------------------------------
        BYTE   W28
        BYTE           EOT    Gs1
        BYTE   W20
        BYTE           TIE    Bn1  v127
        BYTE   W48
// 059   ----------------------------------------
        BYTE   W96
// 060   ----------------------------------------
        BYTE   W36
        BYTE           VOICE  8
        BYTE   GoTo
         POIN2  ForbiddenForest_Alusq_2_LOOP
        BYTE   W60
// 061   ----------------------------------------
        BYTE   W23
        BYTE           EOT
        BYTE   W01
        BYTE   FINE

//****************** Track 3 (Midi-Chn.3) ******************//

ForbiddenForest_Alusq_3:
        BYTE   KEYSH  ForbiddenForest_Alusq_key+0
// 000   ----------------------------------------
        BYTE           VOICE  127
        BYTE           PAN    c_v-8
        BYTE           VOL    50
        BYTE   W84
        BYTE           TIE    En2  v064
        BYTE   W12
// 001   ----------------------------------------
        BYTE   W48
ForbiddenForest_Alusq_3_LOOP:
        BYTE   W48
// 002   ----------------------------------------
        BYTE   W36
        BYTE           EOT    En2
        BYTE   W60
// 003   ----------------------------------------
        BYTE   W96
// 004   ----------------------------------------
        BYTE   W96
// 005   ----------------------------------------
        BYTE   W96
// 006   ----------------------------------------
        BYTE   W84
        BYTE           TIE    En2  v064
        BYTE   W12
// 007   ----------------------------------------
        BYTE   W96
// 008   ----------------------------------------
        BYTE   W36
        BYTE           EOT
        BYTE   W60
// 009   ----------------------------------------
        BYTE   W96
// 010   ----------------------------------------
        BYTE   W96
// 011   ----------------------------------------
        BYTE   W96
// 012   ----------------------------------------
        BYTE   W96
// 013   ----------------------------------------
        BYTE   W96
// 014   ----------------------------------------
        BYTE   W96
// 015   ----------------------------------------
        BYTE   W96
// 016   ----------------------------------------
        BYTE   W96
// 017   ----------------------------------------
        BYTE   W96
// 018   ----------------------------------------
        BYTE   W84
        BYTE           TIE
        BYTE   W12
// 019   ----------------------------------------
        BYTE   W96
// 020   ----------------------------------------
        BYTE   W36
        BYTE           EOT
        BYTE   W60
// 021   ----------------------------------------
        BYTE   W96
// 022   ----------------------------------------
        BYTE   W96
// 023   ----------------------------------------
        BYTE   W96
// 024   ----------------------------------------
        BYTE   W96
// 025   ----------------------------------------
        BYTE   W96
// 026   ----------------------------------------
        BYTE   W96
// 027   ----------------------------------------
        BYTE   W96
// 028   ----------------------------------------
        BYTE   W96
// 029   ----------------------------------------
        BYTE   W96
// 030   ----------------------------------------
        BYTE   W84
        BYTE           TIE
        BYTE   W12
// 031   ----------------------------------------
        BYTE   W48
        BYTE           N44    Gn1  v076
        BYTE   W48
// 032   ----------------------------------------
        BYTE   W36
        BYTE           EOT    En2
        BYTE   W60
// 033   ----------------------------------------
        BYTE   W96
// 034   ----------------------------------------
        BYTE   W96
// 035   ----------------------------------------
        BYTE   W96
// 036   ----------------------------------------
        BYTE   W96
// 037   ----------------------------------------
        BYTE   W96
// 038   ----------------------------------------
        BYTE   W96
// 039   ----------------------------------------
        BYTE   W96
// 040   ----------------------------------------
        BYTE   W96
// 041   ----------------------------------------
        BYTE   W96
// 042   ----------------------------------------
        BYTE   W84
        BYTE           TIE    En2  v064
        BYTE   W12
// 043   ----------------------------------------
ForbiddenForest_Alusq_3_43:
        BYTE   W48
        BYTE           N44    Dn1  v127
        BYTE   W48
        BYTE   PEND
// 044   ----------------------------------------
        BYTE   W36
        BYTE           EOT    En2
        BYTE   W60
// 045   ----------------------------------------
        BYTE   W96
// 046   ----------------------------------------
        BYTE   W96
// 047   ----------------------------------------
        BYTE   W96
// 048   ----------------------------------------
        BYTE   W84
        BYTE           TIE    En2  v064
        BYTE   W12
// 049   ----------------------------------------
        BYTE   PATT
         POIN2  ForbiddenForest_Alusq_3_43
// 050   ----------------------------------------
        BYTE   W36
        BYTE           EOT    En2
        BYTE   W60
// 051   ----------------------------------------
        BYTE   W96
// 052   ----------------------------------------
        BYTE   W96
// 053   ----------------------------------------
        BYTE   W96
// 054   ----------------------------------------
        BYTE   W96
// 055   ----------------------------------------
        BYTE   W96
// 056   ----------------------------------------
        BYTE   W96
// 057   ----------------------------------------
        BYTE   W96
// 058   ----------------------------------------
        BYTE   W96
// 059   ----------------------------------------
        BYTE   W72
        BYTE           TIE    En2  v064
        BYTE   W24
// 060   ----------------------------------------
        BYTE   W36
        BYTE   GoTo
         POIN2  ForbiddenForest_Alusq_3_LOOP
        BYTE   W60
// 061   ----------------------------------------
        BYTE   W24
        BYTE           EOT
        BYTE   FINE

//****************** Track 4 (Midi-Chn.4) ******************//

ForbiddenForest_Alusq_4:
        BYTE   KEYSH  ForbiddenForest_Alusq_key+0
// 000   ----------------------------------------
        BYTE           VOICE  0
        BYTE           VOL    62
        BYTE           PAN    c_v+40
        BYTE   W96
// 001   ----------------------------------------
        BYTE   W48
ForbiddenForest_Alusq_4_LOOP:
        BYTE           N44    As3  v052
        BYTE   W01
        BYTE                   Cs4
        BYTE   W01
        BYTE                   Fn4  v080
        BYTE   W44
        BYTE   W02
// 002   ----------------------------------------
ForbiddenForest_Alusq_4_2:
        BYTE           N11    Ds4  v080
        BYTE   W12
        BYTE           PAN    c_v+48
        BYTE           N11    As4
        BYTE   W12
        BYTE           PAN    c_v+40
        BYTE           N48    As3  v052
        BYTE           N44    Cs4
        BYTE           N44    Fn4  v080
        BYTE   W68
        BYTE   W01
        BYTE           N68    As3  v052
        BYTE   W02
        BYTE           N66    Cs4
        BYTE   W01
        BYTE   PEND
// 003   ----------------------------------------
        BYTE           N44    Fn4  v080
        BYTE   W48
        BYTE           N11    Ds4
        BYTE   W12
        BYTE           PAN    c_v+48
        BYTE           N11    As4
        BYTE   W12
        BYTE           PAN    c_v+40
        BYTE           N66    Cs4  v052
        BYTE           N36    Fn4
        BYTE           N23    Gs4  v080
        BYTE   W24
// 004   ----------------------------------------
        BYTE           PAN    c_v+48
        BYTE           N44    Gs3
        BYTE           N23    Cs5
        BYTE   W24
        BYTE           PAN    c_v+40
        BYTE           N23    Fn4
        BYTE   W24
        BYTE           N66    As3  v052
        BYTE   W01
        BYTE           N44    Ds4  v080
        BYTE   W44
        BYTE   W03
// 005   ----------------------------------------
ForbiddenForest_Alusq_4_5:
        BYTE           N11    Cs4  v080
        BYTE   W12
        BYTE           PAN    c_v+48
        BYTE           N11    Gs4
        BYTE   W12
        BYTE           PAN    c_v+40
        BYTE           N66    As3  v052
        BYTE           N44    Ds4  v080
        BYTE   W72
        BYTE   PEND
// 006   ----------------------------------------
        BYTE           N66    As3  v052
        BYTE   W01
        BYTE           N44    Ds4  v080
        BYTE   W44
        BYTE   W03
        BYTE           N11    Cs4
        BYTE   W12
        BYTE           PAN    c_v+48
        BYTE           N11    Gs4
        BYTE   W12
        BYTE           PAN    c_v+40
        BYTE           N66    As3  v052
        BYTE           N32    Ds4  v080
        BYTE   W24
// 007   ----------------------------------------
        BYTE           N23    Cs4
        BYTE   W24
        BYTE                   Ds4
        BYTE   W24
        BYTE           N44    As3  v052
        BYTE   W01
        BYTE                   Cs4
        BYTE   W01
        BYTE                   Fn4  v080
        BYTE   W44
        BYTE   W02
// 008   ----------------------------------------
        BYTE   PATT
         POIN2  ForbiddenForest_Alusq_4_2
// 009   ----------------------------------------
        BYTE           N44    Fn4  v080
        BYTE   W48
        BYTE           N11    Ds4
        BYTE   W12
        BYTE           PAN    c_v+48
        BYTE           N11    As4
        BYTE   W12
        BYTE           N66    Cs4  v052
        BYTE           N36    Fn4
        BYTE           N23    Gs4  v080
        BYTE   W24
// 010   ----------------------------------------
        BYTE                   Cs5
        BYTE   W24
        BYTE                   Fn4
        BYTE   W24
        BYTE           PAN    c_v+40
        BYTE           N66    As3  v052
        BYTE   W01
        BYTE           N44    Ds4  v080
        BYTE   W44
        BYTE   W03
// 011   ----------------------------------------
        BYTE   PATT
         POIN2  ForbiddenForest_Alusq_4_5
// 012   ----------------------------------------
        BYTE           N66    As3  v052
        BYTE   W01
        BYTE           N44    Ds4  v080
        BYTE   W44
        BYTE   W03
        BYTE           N11    Cs4
        BYTE   W12
        BYTE           PAN    c_v+48
        BYTE           N11    Gs4
        BYTE   W12
        BYTE           PAN    c_v+40
        BYTE           N44    As3  v052
        BYTE           N23    Fn4  v080
        BYTE   W24
// 013   ----------------------------------------
        BYTE                   Ds4
        BYTE   W24
        BYTE           N24    Gs3  v052
        BYTE           N44    Cs4  v080
        BYTE   W24
        BYTE           N36    As3  v052
        BYTE           N44    Cn4  v080
        BYTE   W48
// 014   ----------------------------------------
        BYTE           N11    As3
        BYTE   W12
        BYTE                   Fn4
        BYTE   W12
        BYTE           N36    As3  v052
        BYTE           N44    Cn4  v080
        BYTE   W72
// 015   ----------------------------------------
        BYTE           N36    As3  v052
        BYTE           N44    Cn4  v080
        BYTE   W48
        BYTE           N11    As3
        BYTE   W12
        BYTE           N10    Fn4
        BYTE   W12
        BYTE           PAN    c_v+48
        BYTE           N44    Ds4  v052
        BYTE           N44    Fn4
        BYTE           N23    As4  v080
        BYTE   W24
// 016   ----------------------------------------
        BYTE                   Cn5
        BYTE   W24
        BYTE                   Fn4  v052
        BYTE           N23    Gs4  v080
        BYTE   W22
        BYTE           PAN    c_v+40
        BYTE   W01
        BYTE           N44    Gs3  v052
        BYTE   W01
        BYTE                   Cn4
        BYTE           N32    Gn4  v080
        BYTE   W36
        BYTE           N11    Fn4
        BYTE   W12
// 017   ----------------------------------------
        BYTE           PAN    c_v+48
        BYTE           N23    Gn4
        BYTE   W24
        BYTE           PAN    c_v+40
        BYTE           N68    Gn3  v052
        BYTE           N66    Cn4  v080
        BYTE   W68
        BYTE   W02
        BYTE           N44    Gs3  v052
        BYTE   W02
// 018   ----------------------------------------
        BYTE                   Cn4
        BYTE   W01
        BYTE           PAN    c_v+48
        BYTE           N32    Gn4  v080
        BYTE   W32
        BYTE   W03
        BYTE           N11    Fn4
        BYTE   W12
        BYTE           N23    Gn4
        BYTE   W24
        BYTE           PAN    c_v+40
        BYTE           N68    Gn3  v052
        BYTE           N23    Cn4  v080
        BYTE   W24
// 019   ----------------------------------------
        BYTE                   Fn4  v076
        BYTE   W24
        BYTE                   Dn4
        BYTE   W72
// 020   ----------------------------------------
        BYTE   W96
// 021   ----------------------------------------
        BYTE   W60
        BYTE           PAN    c_v+32
        BYTE           N23    Gs3  v080
        BYTE   W36
// 022   ----------------------------------------
        BYTE   W72
        BYTE                   Gn3
        BYTE   W12
        BYTE           PAN    c_v+40
        BYTE           N11    Cn4
        BYTE   W12
// 023   ----------------------------------------
        BYTE           N22
        BYTE   W12
        BYTE           N23    Ds4
        BYTE   W10
        BYTE           N60    Gs3  v060
        BYTE   W01
        BYTE                   Cn4
        BYTE   W01
        BYTE           PAN    c_v+48
        BYTE           N23    Gn4  v080
        BYTE   W12
        BYTE           N11    Fn4
        BYTE   W12
        BYTE           N32
        BYTE   W24
        BYTE           PAN    c_v+40
        BYTE   W24
// 024   ----------------------------------------
        BYTE           N23    Cn4  v076
        BYTE   W12
        BYTE           PAN    c_v+32
        BYTE           N11    As3
        BYTE   W12
        BYTE           N23
        BYTE   W12
        BYTE           PAN    c_v+40
        BYTE           N11    Ds4
        BYTE   W12
        BYTE           N23
        BYTE   W12
        BYTE           PAN    c_v+32
        BYTE           N11    As3
        BYTE   W12
        BYTE           N23
        BYTE   W12
        BYTE           N11    An3
        BYTE   W12
// 025   ----------------------------------------
        BYTE           N32
        BYTE   W48
        BYTE           N23    An3  v080
        BYTE   W12
        BYTE           N11    Gn3
        BYTE   W12
        BYTE           N23
        BYTE   W24
// 026   ----------------------------------------
        BYTE   W48
        BYTE           PAN    c_v+40
        BYTE           N44    Dn4
        BYTE   W48
// 027   ----------------------------------------
        BYTE           PAN    c_v+32
        BYTE           N23    An3
        BYTE   W12
        BYTE           N11    Gn3
        BYTE   W12
        BYTE           N23
        BYTE   W60
        BYTE           N11
        BYTE   W12
// 028   ----------------------------------------
        BYTE           N23
        BYTE   W12
        BYTE           PAN    c_v+40
        BYTE           N11    Dn4
        BYTE   W12
        BYTE           N23
        BYTE   W22
        BYTE           N68    Gn3  v064
        BYTE   W01
        BYTE           N32    Cn4  v052
        BYTE   W01
        BYTE           N23    Fn4  v080
        BYTE   W12
        BYTE           N11    Ds4
        BYTE   W12
        BYTE           N23
        BYTE   W12
        BYTE           N11    Dn4
        BYTE   W12
// 029   ----------------------------------------
        BYTE                   Dn4
        BYTE   W12
        BYTE                   Cn4
        BYTE   W12
        BYTE           N66    Gn3  v060
        BYTE           N64    Cn4  v080
        BYTE   W68
        BYTE   W02
        BYTE           N68    Gn3  v072
        BYTE   W01
        BYTE           N48    Bn3  v052
        BYTE   W01
// 030   ----------------------------------------
        BYTE           N23    Fn4  v080
        BYTE   W12
        BYTE           N11    Ds4
        BYTE   W12
        BYTE           N23
        BYTE   W12
        BYTE           N11    Dn4
        BYTE   W12
        BYTE                   Dn4
        BYTE   W12
        BYTE                   Cn4
        BYTE   W12
        BYTE           N68    Gn3  v060
        BYTE           N68    Cn4  v080
        BYTE   W24
// 031   ----------------------------------------
        BYTE           PAN    c_v+48
        BYTE           N44    Gn4
        BYTE   W24
        BYTE           N23    Cn5  v060
        BYTE   W24
        BYTE           PAN    c_v+40
        BYTE           N23    As3  v092
        BYTE   W12
        BYTE           PAN    c_v+32
        BYTE           N11    An3
        BYTE   W12
        BYTE           N23
        BYTE   W12
        BYTE           PAN    c_v+24
        BYTE           N11    Gn3
        BYTE   W12
// 032   ----------------------------------------
ForbiddenForest_Alusq_4_32:
        BYTE           N11    Gn3  v092
        BYTE   W12
        BYTE           PAN    c_v+40
        BYTE           N11    Cn4
        BYTE   W12
        BYTE           PAN    c_v+32
        BYTE           N23    An3
        BYTE   W72
        BYTE   PEND
// 033   ----------------------------------------
ForbiddenForest_Alusq_4_33:
        BYTE           N23    As3  v092
        BYTE   W12
        BYTE           N11    An3
        BYTE   W12
        BYTE           N23
        BYTE   W12
        BYTE           PAN    c_v+24
        BYTE           N11    Gn3
        BYTE   W12
        BYTE                   Gn3
        BYTE   W12
        BYTE           PAN    c_v+40
        BYTE           N11    Dn4
        BYTE   W12
        BYTE           N23    Cn4
        BYTE   W12
        BYTE                   Fn4
        BYTE   W12
        BYTE   PEND
// 034   ----------------------------------------
        BYTE                   Cn4
        BYTE   W48
        BYTE                   As3
        BYTE   W12
        BYTE           PAN    c_v+32
        BYTE           N11    An3
        BYTE   W12
        BYTE           N23
        BYTE   W12
        BYTE           PAN    c_v+24
        BYTE           N11    Gn3
        BYTE   W12
// 035   ----------------------------------------
        BYTE   PATT
         POIN2  ForbiddenForest_Alusq_4_32
// 036   ----------------------------------------
        BYTE           PAN    c_v+24
        BYTE           N23    Gn3  v092
        BYTE   W60
        BYTE           N11
        BYTE   W36
// 037   ----------------------------------------
        BYTE   W48
        BYTE           PAN    c_v+32
        BYTE           N23    As3
        BYTE   W12
        BYTE           N11    An3
        BYTE   W12
        BYTE           N23
        BYTE   W12
        BYTE           PAN    c_v+24
        BYTE           N11    Gn3
        BYTE   W12
// 038   ----------------------------------------
        BYTE   PATT
         POIN2  ForbiddenForest_Alusq_4_32
// 039   ----------------------------------------
        BYTE   PATT
         POIN2  ForbiddenForest_Alusq_4_33
// 040   ----------------------------------------
        BYTE           N23    Cn4  v092
        BYTE   W48
        BYTE           PAN    c_v+32
        BYTE           N23    As3
        BYTE   W12
        BYTE           N11    An3
        BYTE   W12
        BYTE           N23
        BYTE   W12
        BYTE           PAN    c_v+24
        BYTE           N11    Gn3
        BYTE   W12
// 041   ----------------------------------------
        BYTE           PAN    c_v+32
        BYTE           N11    An3
        BYTE   W12
        BYTE                   As3
        BYTE   W12
        BYTE           N23    Cn4
        BYTE   W12
        BYTE           N11    As3
        BYTE   W12
        BYTE           N23    An3
        BYTE   W12
        BYTE                   As3
        BYTE   W12
        BYTE           N11    Cn4
        BYTE   W24
// 042   ----------------------------------------
        BYTE           PAN    c_v+40
        BYTE           N23    Dn4
        BYTE   W12
        BYTE           PAN    c_v+32
        BYTE           N11    Cn4
        BYTE   W12
        BYTE           N23    As3
        BYTE   W12
        BYTE           N11    Cn4
        BYTE   W12
        BYTE                   Dn4
        BYTE   W12
        BYTE           PAN    c_v+48
        BYTE           N23    Gn4
        BYTE   W12
        BYTE           PAN    c_v+40
        BYTE           N56    Gn3  v072
        BYTE           N56    An3  v080
        BYTE           N23    En4  v092
        BYTE   W12
        BYTE           N11    Dn4
        BYTE   W12
// 043   ----------------------------------------
        BYTE           N23    Cs4
        BYTE   W12
        BYTE           N11    Dn4
        BYTE   W12
        BYTE           N23    En4
        BYTE   W12
        BYTE           PAN    c_v+48
        BYTE           N11    As4
        BYTE   W12
        BYTE           N23    Dn4  v072
        BYTE           N23    An4  v092
        BYTE   W24
        BYTE           PAN    c_v+40
        BYTE           N23    Gn3  v072
        BYTE           N23    En4  v092
        BYTE   W24
// 044   ----------------------------------------
        BYTE           PAN    c_v+48
        BYTE           N23    An3  v072
        BYTE           N23    Fn4  v092
        BYTE   W24
        BYTE           PAN    c_v+40
        BYTE           N32    Dn4
        BYTE   W48
        BYTE           N23
        BYTE   W12
        BYTE           N11    Cn4
        BYTE   W12
// 045   ----------------------------------------
        BYTE           N23
        BYTE   W12
        BYTE           PAN    c_v+32
        BYTE           N11    As3
        BYTE   W12
        BYTE           N32
        BYTE   W36
        BYTE           PAN    c_v+24
        BYTE           N11    An3
        BYTE   W12
        BYTE           N23
        BYTE   W24
// 046   ----------------------------------------
        BYTE           N32    Gn3
        BYTE   W96
// 047   ----------------------------------------
        BYTE   W72
        BYTE           PAN    c_v+32
        BYTE           N23    An3  v084
        BYTE   W24
// 048   ----------------------------------------
        BYTE           PAN    c_v+40
        BYTE           N68    As3  v092
        BYTE   W48
        BYTE           N23    Gn3  v080
        BYTE           N23    Dn4  v092
        BYTE   W24
        BYTE           N32    Cs4
        BYTE   W24
// 049   ----------------------------------------
        BYTE   W12
        BYTE                   Dn4
        BYTE   W12
        BYTE           N23    An3  v072
        BYTE           N23    En4  v092
        BYTE   W24
        BYTE           PAN    c_v+48
        BYTE           N44    An3  v080
        BYTE           N32    Gn4  v092
        BYTE   W36
        BYTE           PAN    c_v+40
        BYTE           N11    Fn4
        BYTE   W12
// 050   ----------------------------------------
        BYTE           N23    An3  v080
        BYTE           N11    Fn4  v092
        BYTE   W12
        BYTE                   En4
        BYTE   W12
        BYTE           N56    Gn3  v080
        BYTE           N56    As3  v072
        BYTE           N32    En4  v092
        BYTE   W24
        BYTE                   Dn4
        BYTE   W48
// 051   ----------------------------------------
        BYTE   W60
        BYTE           PAN    c_v+32
        BYTE           N11    Gn3
        BYTE   W36
// 052   ----------------------------------------
        BYTE   W96
// 053   ----------------------------------------
        BYTE   W24
        BYTE           PAN    c_v+48
        BYTE           N56    Gn3  v064
        BYTE           N56    As3
        BYTE   W01
        BYTE                   Dn4  v080
        BYTE   W68
        BYTE   W03
// 054   ----------------------------------------
        BYTE   W68
        BYTE   W03
        BYTE                   Gn3  v064
        BYTE   W01
        BYTE                   Cn4
        BYTE           N56    Ds4
        BYTE   W01
        BYTE                   Gn4  v080
        BYTE   W23
// 055   ----------------------------------------
        BYTE   W96
// 056   ----------------------------------------
        BYTE   W24
        BYTE           PAN    c_v+40
        BYTE           N56    Gn3  v064
        BYTE           N56    As3
        BYTE   W01
        BYTE                   Dn4  v080
        BYTE   W68
        BYTE   W03
// 057   ----------------------------------------
        BYTE   W68
        BYTE   W03
        BYTE                   Gn3  v064
        BYTE   W01
        BYTE                   Cn4
        BYTE           N56    Ds4
        BYTE   W01
        BYTE           PAN    c_v+48
        BYTE           N56    Gn4  v080
        BYTE   W23
// 058   ----------------------------------------
        BYTE   W96
// 059   ----------------------------------------
        BYTE   W22
        BYTE           PAN    c_v+40
        BYTE   W01
        BYTE           TIE    Bn3  v064
        BYTE   W01
        BYTE                   Ds4
        BYTE           TIE    Fn4
        BYTE   W01
        BYTE           PAN    c_v+48
        BYTE           TIE    As4  v080
        BYTE   W68
        BYTE   W03
// 060   ----------------------------------------
        BYTE   W36
        BYTE           PAN    c_v+40
        BYTE   GoTo
         POIN2  ForbiddenForest_Alusq_4_LOOP
        BYTE   W60
// 061   ----------------------------------------
        BYTE   W22
        BYTE           EOT    Bn3
        BYTE   W01
        BYTE                   Ds4
        BYTE                   Fn4
        BYTE   W01
        BYTE                   As4
        BYTE   FINE

//****************** Track 5 (Midi-Chn.5) ******************//

ForbiddenForest_Alusq_5:
        BYTE   KEYSH  ForbiddenForest_Alusq_key+0
// 000   ----------------------------------------
        BYTE           VOICE  1
        BYTE           PAN    c_v-8
        BYTE           VOL    57
        BYTE   W96
// 001   ----------------------------------------
        BYTE   W48
ForbiddenForest_Alusq_5_LOOP:
        BYTE   W12
        BYTE           N68    As2  v080
        BYTE   W12
        BYTE           PAN    c_v+24
        BYTE           N44    Fn3
        BYTE   W24
// 002   ----------------------------------------
        BYTE                   Fs3
        BYTE   W36
        BYTE           PAN    c_v-8
        BYTE           N68    As2
        BYTE   W12
        BYTE           PAN    c_v+24
        BYTE           N44    Fn3
        BYTE   W48
// 003   ----------------------------------------
        BYTE   W12
        BYTE           PAN    c_v-8
        BYTE           N68    As2
        BYTE   W12
        BYTE           PAN    c_v+24
        BYTE           N44    Fn3
        BYTE   W24
        BYTE                   Fs3
        BYTE   W36
        BYTE           PAN    c_v+0
        BYTE           N56    Cs3
        BYTE   W12
// 004   ----------------------------------------
        BYTE   W24
        BYTE           PAN    c_v-8
        BYTE           N23    As2
        BYTE   W22
        BYTE           PAN    c_v+24
        BYTE   W01
        BYTE           N68    Fs3  v052
        BYTE   W24
        BYTE   W01
        BYTE           PAN    c_v+8
        BYTE           N44    Cs3  v080
        BYTE   W24
// 005   ----------------------------------------
        BYTE           PAN    c_v+24
        BYTE           N44    Ds3
        BYTE   W24
        BYTE           N68    Fs3  v052
        BYTE   W24
        BYTE           PAN    c_v+8
        BYTE           N44    Cs3  v080
        BYTE   W44
        BYTE   W02
        BYTE           PAN    c_v+24
        BYTE   W01
        BYTE           N68    Fs3  v052
        BYTE   W01
// 006   ----------------------------------------
        BYTE   W24
        BYTE           PAN    c_v+8
        BYTE           N44    Cs3  v080
        BYTE   W24
        BYTE           PAN    c_v+24
        BYTE           N44    Ds3
        BYTE   W24
        BYTE           N68    Fs3  v052
        BYTE   W24
// 007   ----------------------------------------
        BYTE           PAN    c_v+8
        BYTE           N44    Cs3  v080
        BYTE   W96
// 008   ----------------------------------------
        BYTE   W96
// 009   ----------------------------------------
        BYTE   W96
// 010   ----------------------------------------
        BYTE   W24
        BYTE           PAN    c_v+0
        BYTE           N23    Cs3  v076
        BYTE   W22
        BYTE           PAN    c_v+24
        BYTE   W01
        BYTE           N68    Fs3  v052
        BYTE   W24
        BYTE   W01
        BYTE           PAN    c_v+0
        BYTE           N44    Cs3  v080
        BYTE   W24
// 011   ----------------------------------------
        BYTE           PAN    c_v+24
        BYTE           N44    Ds3
        BYTE   W24
        BYTE           N68    Fs3  v052
        BYTE   W24
        BYTE           PAN    c_v+0
        BYTE           N44    Cs3  v080
        BYTE   W44
        BYTE   W02
        BYTE           PAN    c_v+24
        BYTE   W01
        BYTE           N68    Fs3  v052
        BYTE   W01
// 012   ----------------------------------------
        BYTE   W24
        BYTE           PAN    c_v+0
        BYTE           N44    Cs3  v080
        BYTE   W24
        BYTE                   Ds3
        BYTE   W24
        BYTE           PAN    c_v+24
        BYTE           N23    Fn3  v052
        BYTE   W23
        BYTE           N24    Fs3
        BYTE   W01
// 013   ----------------------------------------
        BYTE           PAN    c_v-8
        BYTE           N44    Bn2  v080
        BYTE   W24
        BYTE           PAN    c_v+0
        BYTE           N44    Cs3
        BYTE   W22
        BYTE           PAN    c_v+24
        BYTE   W01
        BYTE           N68    Fn3  v052
        BYTE   W24
        BYTE   W01
        BYTE           PAN    c_v+0
        BYTE           N44    Cn3  v080
        BYTE   W24
// 014   ----------------------------------------
        BYTE           PAN    c_v+8
        BYTE           N44    Cs3
        BYTE   W22
        BYTE           PAN    c_v+24
        BYTE   W01
        BYTE           N68    Fn3  v052
        BYTE   W24
        BYTE   W01
        BYTE           N44    Ds3  v080
        BYTE   W44
        BYTE   W03
        BYTE           N68    Fn3  v052
        BYTE   W01
// 015   ----------------------------------------
        BYTE   W24
        BYTE           PAN    c_v+0
        BYTE           N44    Cn3  v080
        BYTE   W24
        BYTE           PAN    c_v+8
        BYTE           N23    Cs3
        BYTE   W48
// 016   ----------------------------------------
        BYTE           N44    Ds3
        BYTE   W24
        BYTE           PAN    c_v+0
        BYTE           N44    Cn3
        BYTE   W72
// 017   ----------------------------------------
        BYTE   W24
        BYTE           PAN    c_v+24
        BYTE           N68    Fn3  v052
        BYTE   W72
// 018   ----------------------------------------
        BYTE   W68
        BYTE   W03
        BYTE                   Fn3
        BYTE   W24
        BYTE   W01
// 019   ----------------------------------------
        BYTE   W24
        BYTE           PAN    c_v-8
        BYTE           N23    As2  v072
        BYTE   W24
        BYTE           PAN    c_v+8
        BYTE           N23    Ds3  v080
        BYTE   W12
        BYTE           PAN    c_v+16
        BYTE           N23    Fn3
        BYTE   W12
        BYTE           PAN    c_v+8
        BYTE           N23    Dn3
        BYTE   W12
        BYTE                   Ds3
        BYTE   W12
// 020   ----------------------------------------
        BYTE           PAN    c_v+16
        BYTE           N23    Fn3
        BYTE   W12
        BYTE           PAN    c_v+8
        BYTE           N23    Dn3
        BYTE   W12
        BYTE           N56    Ds3
        BYTE   W72
// 021   ----------------------------------------
        BYTE           N23
        BYTE   W12
        BYTE           N11    Cs3
        BYTE   W12
        BYTE           N23
        BYTE   W12
        BYTE           PAN    c_v+0
        BYTE           N23    Bn2
        BYTE   W12
        BYTE           PAN    c_v+8
        BYTE           N23    Cs3
        BYTE   W24
        BYTE           N56
        BYTE   W24
// 022   ----------------------------------------
        BYTE   W48
        BYTE           PAN    c_v+16
        BYTE           N23    Ds3
        BYTE   W12
        BYTE           PAN    c_v+8
        BYTE           N23    Dn3
        BYTE   W36
// 023   ----------------------------------------
        BYTE   W96
// 024   ----------------------------------------
        BYTE           N68    As2  v060
        BYTE           N68    Ds3
        BYTE   W72
        BYTE           N32    Ds3  v052
        BYTE   W24
// 025   ----------------------------------------
        BYTE           PAN    c_v+16
        BYTE           N32    Dn3
        BYTE   W44
        BYTE   W02
        BYTE           PAN    c_v+8
        BYTE           N32    As2  v060
        BYTE   W01
        BYTE                   Dn3  v056
        BYTE   W36
        BYTE   W01
        BYTE           N11    Dn3  v080
        BYTE   W12
// 026   ----------------------------------------
        BYTE                   Dn3
        BYTE   W12
        BYTE                   Cn3
        BYTE   W12
        BYTE           N32    Dn3
        BYTE   W68
        BYTE   W02
        BYTE                   As2  v060
        BYTE   W01
        BYTE                   Dn3
        BYTE   W01
// 027   ----------------------------------------
        BYTE   W36
        BYTE           N11    Dn3  v080
        BYTE   W12
        BYTE                   Dn3
        BYTE   W12
        BYTE                   Cn3
        BYTE   W12
        BYTE           N32    Dn3
        BYTE   W24
// 028   ----------------------------------------
        BYTE   W48
        BYTE           N68    Dn3  v072
        BYTE   W48
// 029   ----------------------------------------
        BYTE   W24
        BYTE                   Cn3  v060
        BYTE   W72
// 030   ----------------------------------------
        BYTE           PAN    c_v+0
        BYTE           N68    Bn2  v072
        BYTE   W96
// 031   ----------------------------------------
        BYTE   W48
        BYTE           PAN    c_v+8
        BYTE           N68    Dn3  v080
        BYTE   W24
        BYTE           PAN    c_v-8
        BYTE           N23    As2  v072
        BYTE   W24
// 032   ----------------------------------------
ForbiddenForest_Alusq_5_32:
        BYTE           N23    As2  v072
        BYTE   W24
        BYTE           PAN    c_v+0
        BYTE           N56    Cn3  v080
        BYTE   W24
        BYTE           PAN    c_v+16
        BYTE           N32    Fn3  v092
        BYTE   W48
        BYTE   PEND
// 033   ----------------------------------------
ForbiddenForest_Alusq_5_33:
        BYTE           PAN    c_v+8
        BYTE           N68    Dn3  v080
        BYTE   W24
        BYTE           PAN    c_v-8
        BYTE           N23    As2  v072
        BYTE   W24
        BYTE                   As2
        BYTE   W24
        BYTE           PAN    c_v+16
        BYTE           N56    Fn3  v080
        BYTE   W24
        BYTE   PEND
// 034   ----------------------------------------
ForbiddenForest_Alusq_5_34:
        BYTE   W24
        BYTE           PAN    c_v+0
        BYTE           N23    Cn3  v072
        BYTE   W24
        BYTE           PAN    c_v+8
        BYTE           N68    Dn3  v080
        BYTE   W24
        BYTE           PAN    c_v-8
        BYTE           N23    As2  v072
        BYTE   W24
        BYTE   PEND
// 035   ----------------------------------------
        BYTE   PATT
         POIN2  ForbiddenForest_Alusq_5_32
// 036   ----------------------------------------
        BYTE           PAN    c_v-8
        BYTE           N56    As2  v080
        BYTE   W12
        BYTE           PAN    c_v+16
        BYTE           N11    Fn3  v092
        BYTE   W12
        BYTE           N23
        BYTE   W12
        BYTE           PAN    c_v+8
        BYTE           N11    Ds3
        BYTE   W12
        BYTE                   Ds3
        BYTE   W24
        BYTE           N23    Dn3
        BYTE   W24
// 037   ----------------------------------------
        BYTE           PAN    c_v+0
        BYTE           N44    Cn3
        BYTE   W48
        BYTE           PAN    c_v+8
        BYTE           N68    Dn3  v080
        BYTE   W24
        BYTE           PAN    c_v-8
        BYTE           N23    As2  v072
        BYTE   W24
// 038   ----------------------------------------
        BYTE   PATT
         POIN2  ForbiddenForest_Alusq_5_32
// 039   ----------------------------------------
        BYTE   PATT
         POIN2  ForbiddenForest_Alusq_5_33
// 040   ----------------------------------------
        BYTE   PATT
         POIN2  ForbiddenForest_Alusq_5_34
// 041   ----------------------------------------
        BYTE           N23    As2  v072
        BYTE   W24
        BYTE           PAN    c_v+16
        BYTE           N56    Cn3  v080
        BYTE           N56    Fn3
        BYTE   W60
        BYTE           N11    Fn3  v092
        BYTE   W12
// 042   ----------------------------------------
        BYTE           N56    Fn3  v080
        BYTE   W24
        BYTE           PAN    c_v+8
        BYTE           N23    Dn3  v072
        BYTE   W24
        BYTE           PAN    c_v-8
        BYTE           N23    As2
        BYTE   W48
// 043   ----------------------------------------
        BYTE           PAN    c_v+8
        BYTE           N23    Cs3
        BYTE   W96
// 044   ----------------------------------------
        BYTE   W12
        BYTE           PAN    c_v+0
        BYTE           N23    Cn3
        BYTE   W12
        BYTE           PAN    c_v+16
        BYTE           N44    Fn3  v080
        BYTE   W24
        BYTE           PAN    c_v+8
        BYTE           N23    Dn3  v072
        BYTE   W12
        BYTE           PAN    c_v+0
        BYTE           N23    Cn3
        BYTE   W12
        BYTE           PAN    c_v+8
        BYTE           N23    As2
        BYTE           N23    Fn3  v080
        BYTE   W24
// 045   ----------------------------------------
        BYTE                   Fn3
        BYTE   W72
        BYTE           PAN    c_v-8
        BYTE           N56    As2
        BYTE   W24
// 046   ----------------------------------------
        BYTE   W48
        BYTE           PAN    c_v+8
        BYTE           N68    Cn3
        BYTE           N68    Fn3  v092
        BYTE   W48
// 047   ----------------------------------------
        BYTE   W24
        BYTE           N44    Cn3  v080
        BYTE           N44    Fs3  v092
        BYTE   W48
        BYTE           PAN    c_v+0
        BYTE           N23    Cn3  v076
        BYTE   W24
// 048   ----------------------------------------
        BYTE           PAN    c_v+8
        BYTE           N68    Dn3  v080
        BYTE   W24
        BYTE           PAN    c_v-8
        BYTE           N23    As2  v072
        BYTE   W24
        BYTE                   As2
        BYTE   W24
        BYTE           PAN    c_v+8
        BYTE           N44    En3  v080
        BYTE   W24
// 049   ----------------------------------------
        BYTE           N23    Cs3  v072
        BYTE   W12
        BYTE           PAN    c_v-8
        BYTE           N23    Bn2
        BYTE   W12
        BYTE           PAN    c_v+0
        BYTE           N23    Cs3
        BYTE   W48
        BYTE           PAN    c_v+16
        BYTE           N23    En3
        BYTE   W12
        BYTE           PAN    c_v+8
        BYTE           N23    Dn3
        BYTE   W12
// 050   ----------------------------------------
        BYTE           PAN    c_v+16
        BYTE           N23    En3
        BYTE   W12
        BYTE                   Fn3
        BYTE   W36
        BYTE           PAN    c_v+8
        BYTE           N32    As2
        BYTE           N23    Dn3
        BYTE   W12
        BYTE           PAN    c_v+0
        BYTE           N23    Cn3
        BYTE   W12
        BYTE           PAN    c_v+8
        BYTE           N23    Dn3
        BYTE   W24
// 051   ----------------------------------------
        BYTE           N68    Cn3
        BYTE           N56    Fn3  v092
        BYTE   W72
        BYTE                   Cn3  v072
        BYTE           N56    En3  v092
        BYTE   W24
// 052   ----------------------------------------
ForbiddenForest_Alusq_5_52:
        BYTE   W48
        BYTE           PAN    c_v-8
        BYTE           N68    As2  v076
        BYTE   W48
        BYTE   PEND
// 053   ----------------------------------------
ForbiddenForest_Alusq_5_53:
        BYTE   W22
        BYTE           PAN    c_v+8
        BYTE   W01
        BYTE           N56    Dn3  v064
        BYTE   W72
        BYTE   W01
        BYTE   PEND
// 054   ----------------------------------------
        BYTE           PAN    c_v+0
        BYTE           N23    Cn3  v092
        BYTE   W24
        BYTE                   Cn3  v080
        BYTE   W24
        BYTE           N11
        BYTE   W12
        BYTE           PAN    c_v+16
        BYTE           N23    Ds3  v092
        BYTE   W36
// 055   ----------------------------------------
        BYTE   PATT
         POIN2  ForbiddenForest_Alusq_5_52
// 056   ----------------------------------------
        BYTE   PATT
         POIN2  ForbiddenForest_Alusq_5_53
// 057   ----------------------------------------
        BYTE           PAN    c_v+0
        BYTE           N23    Cn3  v092
        BYTE   W24
        BYTE                   Cn3  v080
        BYTE   W24
        BYTE           N17
        BYTE   W12
        BYTE           PAN    c_v+8
        BYTE           N23    Ds3  v092
        BYTE   W36
// 058   ----------------------------------------
        BYTE   W48
        BYTE           N32    As2  v076
        BYTE           N23    Ds3
        BYTE   W24
        BYTE                   Ds3  v080
        BYTE   W12
        BYTE           N28    As2
        BYTE   W12
// 059   ----------------------------------------
        BYTE           N11    Ds3
        BYTE   W12
        BYTE           PAN    c_v+16
        BYTE           N11    Fn3
        BYTE   W84
// 060   ----------------------------------------
        BYTE   W36
        BYTE           PAN    c_v-8
        BYTE   GoTo
         POIN2  ForbiddenForest_Alusq_5_LOOP
        BYTE   W60
// 061   ----------------------------------------
        BYTE   W24
        BYTE   FINE

//****************** Track 6 (Midi-Chn.6) ******************//

ForbiddenForest_Alusq_6:
        BYTE   KEYSH  ForbiddenForest_Alusq_key+0
// 000   ----------------------------------------
        BYTE           VOICE  0
        BYTE           PAN    c_v-24
        BYTE           VOL    52
        BYTE   W96
// 001   ----------------------------------------
        BYTE   W48
ForbiddenForest_Alusq_6_LOOP:
        BYTE           N68    Ds2  v084
        BYTE   W48
// 002   ----------------------------------------
        BYTE   W24
        BYTE                   Ds2
        BYTE   W72
// 003   ----------------------------------------
        BYTE                   Ds2
        BYTE   W72
        BYTE                   Ds2
        BYTE   W24
// 004   ----------------------------------------
        BYTE   W48
        BYTE                   Bn1
        BYTE   W12
        BYTE           PAN    c_v-16
        BYTE           N68    Fs2  v080
        BYTE   W36
// 005   ----------------------------------------
ForbiddenForest_Alusq_6_5:
        BYTE   W24
        BYTE           PAN    c_v-24
        BYTE           N68    Bn1  v084
        BYTE   W12
        BYTE           PAN    c_v-16
        BYTE           N68    Fs2  v080
        BYTE   W60
        BYTE   PEND
// 006   ----------------------------------------
ForbiddenForest_Alusq_6_6:
        BYTE           PAN    c_v-24
        BYTE           N68    Bn1  v084
        BYTE   W12
        BYTE           PAN    c_v-16
        BYTE           N68    Fs2  v080
        BYTE   W60
        BYTE           PAN    c_v-24
        BYTE           N68    Bn1  v084
        BYTE   W12
        BYTE           PAN    c_v-16
        BYTE           N56    Fs2  v080
        BYTE   W12
        BYTE   PEND
// 007   ----------------------------------------
        BYTE   W48
        BYTE           PAN    c_v-32
        BYTE           N68    Ds1  v084
        BYTE   W12
        BYTE           PAN    c_v-24
        BYTE           N68    As1  v080
        BYTE   W12
        BYTE           PAN    c_v-16
        BYTE           N44    Fn2
        BYTE   W24
// 008   ----------------------------------------
        BYTE                   Fs2
        BYTE   W24
        BYTE           PAN    c_v-32
        BYTE           N68    Ds1  v084
        BYTE   W12
        BYTE           PAN    c_v-24
        BYTE           N68    As1  v080
        BYTE   W12
        BYTE           PAN    c_v-16
        BYTE           N44    Fn2
        BYTE   W48
// 009   ----------------------------------------
        BYTE           PAN    c_v-32
        BYTE           N68    Ds1  v084
        BYTE   W12
        BYTE           PAN    c_v-24
        BYTE           N68    As1  v080
        BYTE   W12
        BYTE           PAN    c_v-16
        BYTE           N44    Fn2
        BYTE   W24
        BYTE                   Fs2
        BYTE   W24
        BYTE           PAN    c_v-32
        BYTE           N68    Ds1  v084
        BYTE   W12
        BYTE           PAN    c_v-24
        BYTE           N56    Cs2  v080
        BYTE   W12
// 010   ----------------------------------------
        BYTE           PAN    c_v-16
        BYTE           N44    Gs2
        BYTE   W48
        BYTE           PAN    c_v-24
        BYTE           N68    Bn1  v084
        BYTE   W12
        BYTE           PAN    c_v-16
        BYTE           N68    Fs2  v080
        BYTE   W36
// 011   ----------------------------------------
        BYTE   PATT
         POIN2  ForbiddenForest_Alusq_6_5
// 012   ----------------------------------------
        BYTE   PATT
         POIN2  ForbiddenForest_Alusq_6_6
// 013   ----------------------------------------
        BYTE   W48
        BYTE           PAN    c_v-24
        BYTE           N68    As1  v084
        BYTE   W12
        BYTE           PAN    c_v-16
        BYTE           N68    Fn2  v080
        BYTE   W36
// 014   ----------------------------------------
        BYTE   W24
        BYTE           PAN    c_v-24
        BYTE           N68    As1  v084
        BYTE   W12
        BYTE           PAN    c_v-16
        BYTE           N68    Fn2  v080
        BYTE   W60
// 015   ----------------------------------------
        BYTE           PAN    c_v-24
        BYTE           N68    As1  v084
        BYTE   W12
        BYTE           PAN    c_v-16
        BYTE           N68    Fn2  v080
        BYTE   W60
        BYTE           PAN    c_v-24
        BYTE           N68    As1  v084
        BYTE   W12
        BYTE           PAN    c_v-16
        BYTE           N68    Fn2  v080
        BYTE   W12
// 016   ----------------------------------------
        BYTE   W48
        BYTE           PAN    c_v-32
        BYTE           N68    Fn1  v084
        BYTE   W12
        BYTE           PAN    c_v-24
        BYTE           N68    Cn2  v080
        BYTE   W12
        BYTE           PAN    c_v-16
        BYTE           N44    Gn2
        BYTE   W24
// 017   ----------------------------------------
        BYTE                   Gs2
        BYTE   W24
        BYTE           PAN    c_v-32
        BYTE           N68    Fn1  v084
        BYTE   W12
        BYTE           PAN    c_v-24
        BYTE           N68    Cn2  v080
        BYTE   W12
        BYTE           PAN    c_v-16
        BYTE           N44    Gn2
        BYTE   W48
// 018   ----------------------------------------
        BYTE           PAN    c_v-32
        BYTE           N68    Fn1  v084
        BYTE   W12
        BYTE           PAN    c_v-24
        BYTE           N68    Cn2  v080
        BYTE   W12
        BYTE           PAN    c_v-16
        BYTE           N44    Gn2
        BYTE   W24
        BYTE                   Gs2
        BYTE   W24
        BYTE           PAN    c_v-32
        BYTE           N68    Fn1  v084
        BYTE   W12
        BYTE           PAN    c_v-24
        BYTE           N56    Cn2  v080
        BYTE   W12
// 019   ----------------------------------------
        BYTE           PAN    c_v-16
        BYTE           N44    Gn2
        BYTE   W48
        BYTE           PAN    c_v-24
        BYTE           TIE    Fn1
        BYTE           TIE    Cn2  v072
        BYTE           TIE    Gs2
        BYTE   W48
// 020   ----------------------------------------
ForbiddenForest_Alusq_6_20:
        BYTE   W80
        BYTE   W03
        BYTE           EOT    Fn1
        BYTE                   Cn2
        BYTE                   Gs2
        BYTE   W13
        BYTE   PEND
// 021   ----------------------------------------
        BYTE           TIE    En1  v080
        BYTE           TIE    Bn1  v072
        BYTE           TIE    Gs2
        BYTE   W96
// 022   ----------------------------------------
        BYTE   W32
        BYTE   W03
        BYTE           EOT    En1
        BYTE                   Bn1
        BYTE                   Gs2
        BYTE   W13
        BYTE           TIE    Fn1  v080
        BYTE           TIE    Cn2  v072
        BYTE           TIE    Gs2
        BYTE   W48
// 023   ----------------------------------------
        BYTE   PATT
         POIN2  ForbiddenForest_Alusq_6_20
// 024   ----------------------------------------
        BYTE           TIE    Cn2  v072
        BYTE           TIE    Fs2  v060
        BYTE   W72
        BYTE           N56    An2
        BYTE   W24
// 025   ----------------------------------------
        BYTE   W32
        BYTE   W03
        BYTE           EOT    Cn2
        BYTE                   Fs2
        BYTE   W13
        BYTE           N68    As1  v076
        BYTE           N68    Gn2  v072
        BYTE           N68    An2
        BYTE   W48
// 026   ----------------------------------------
        BYTE   W24
        BYTE                   As1  v076
        BYTE           N68    Fs2  v072
        BYTE           N68    An2  v060
        BYTE   W72
// 027   ----------------------------------------
        BYTE                   As1  v076
        BYTE           N68    Fn2  v072
        BYTE           N68    An2
        BYTE   W72
        BYTE                   As1  v076
        BYTE           N68    En2  v072
        BYTE           N68    An2  v060
        BYTE   W24
// 028   ----------------------------------------
        BYTE   W48
        BYTE                   Ds2  v080
        BYTE   W48
// 029   ----------------------------------------
        BYTE   W24
        BYTE                   Ds2  v060
        BYTE   W72
// 030   ----------------------------------------
        BYTE                   Ds2  v080
        BYTE   W72
        BYTE                   Ds2  v060
        BYTE           N68    An2
        BYTE   W24
// 031   ----------------------------------------
        BYTE   W48
        BYTE           PAN    c_v-32
        BYTE           N68    Gn1  v092
        BYTE   W12
        BYTE           PAN    c_v-24
        BYTE           N23    Dn2  v072
        BYTE   W24
        BYTE                   Dn2
        BYTE   W12
// 032   ----------------------------------------
ForbiddenForest_Alusq_6_32:
        BYTE   W24
        BYTE           PAN    c_v-32
        BYTE           N68    Gn1  v092
        BYTE   W12
        BYTE           PAN    c_v-16
        BYTE           N23    Fn2  v072
        BYTE   W12
        BYTE                   An2
        BYTE   W12
        BYTE                   Fn2
        BYTE   W12
        BYTE                   An2
        BYTE   W24
        BYTE   PEND
// 033   ----------------------------------------
        BYTE           PAN    c_v-32
        BYTE           N68    Gn1  v092
        BYTE   W12
        BYTE           PAN    c_v-24
        BYTE           N23    Dn2  v072
        BYTE   W24
        BYTE                   Dn2
        BYTE   W36
        BYTE           PAN    c_v-32
        BYTE           N68    Gn1  v092
        BYTE   W12
        BYTE           PAN    c_v-24
        BYTE           N23    Fn2  v072
        BYTE   W12
// 034   ----------------------------------------
        BYTE           PAN    c_v-16
        BYTE           N23    An2
        BYTE   W12
        BYTE           PAN    c_v-24
        BYTE           N23    Fn2
        BYTE   W36
        BYTE           PAN    c_v-32
        BYTE           N68    Gn1  v092
        BYTE   W12
        BYTE           PAN    c_v-24
        BYTE           N23    Dn2  v072
        BYTE   W24
        BYTE                   Dn2
        BYTE   W12
// 035   ----------------------------------------
        BYTE   PATT
         POIN2  ForbiddenForest_Alusq_6_32
// 036   ----------------------------------------
        BYTE           PAN    c_v-32
        BYTE           N68    Ds1  v092
        BYTE   W12
        BYTE           PAN    c_v-24
        BYTE           N23    As1  v072
        BYTE   W12
        BYTE           PAN    c_v-16
        BYTE           N23    Fn2
        BYTE   W12
        BYTE           PAN    c_v-24
        BYTE           N23    As1
        BYTE   W12
        BYTE           PAN    c_v-16
        BYTE           N23    Gn2
        BYTE   W24
        BYTE           N68    Fn1  v092
        BYTE           N44    An2  v080
        BYTE   W12
        BYTE           PAN    c_v-24
        BYTE           N23    Cn2  v072
        BYTE   W12
// 037   ----------------------------------------
        BYTE                   Fn2
        BYTE   W12
        BYTE           PAN    c_v-16
        BYTE           N23    Gn2
        BYTE   W12
        BYTE                   An2
        BYTE   W24
        BYTE           PAN    c_v-32
        BYTE           N68    Gn1  v092
        BYTE   W12
        BYTE           PAN    c_v-24
        BYTE           N23    Dn2  v072
        BYTE   W24
        BYTE                   Dn2
        BYTE   W12
// 038   ----------------------------------------
        BYTE   PATT
         POIN2  ForbiddenForest_Alusq_6_32
// 039   ----------------------------------------
        BYTE           PAN    c_v-32
        BYTE           N68    Gn1  v092
        BYTE   W12
        BYTE           PAN    c_v-24
        BYTE           N23    Dn2  v072
        BYTE   W24
        BYTE                   Dn2
        BYTE   W36
        BYTE           PAN    c_v-32
        BYTE           N68    Gn1  v092
        BYTE   W12
        BYTE           PAN    c_v-16
        BYTE           N23    Fn2  v072
        BYTE   W12
// 040   ----------------------------------------
        BYTE                   An2
        BYTE   W12
        BYTE                   Fn2
        BYTE   W36
        BYTE           PAN    c_v-32
        BYTE           N68    Gn1  v092
        BYTE   W12
        BYTE           PAN    c_v-24
        BYTE           N23    Dn2  v072
        BYTE   W24
        BYTE                   Dn2
        BYTE   W12
// 041   ----------------------------------------
        BYTE   W24
        BYTE           PAN    c_v-32
        BYTE           N68    Fn1  v092
        BYTE   W12
        BYTE           PAN    c_v-24
        BYTE           N23    Cn2  v072
        BYTE   W12
        BYTE           PAN    c_v-16
        BYTE           N23    An2
        BYTE   W12
        BYTE           PAN    c_v-24
        BYTE           N23    Cn2
        BYTE   W12
        BYTE           PAN    c_v-16
        BYTE           N23    An2
        BYTE   W24
// 042   ----------------------------------------
        BYTE           PAN    c_v-24
        BYTE           N68    As1  v092
        BYTE   W12
        BYTE           PAN    c_v-16
        BYTE           N23    Fn2  v072
        BYTE   W24
        BYTE                   Fn2
        BYTE   W36
        BYTE           PAN    c_v-32
        BYTE           N68    An1  v092
        BYTE   W12
        BYTE           PAN    c_v-24
        BYTE           N23    En2  v072
        BYTE   W12
// 043   ----------------------------------------
        BYTE   W12
        BYTE                   En2
        BYTE   W12
        BYTE           PAN    c_v-16
        BYTE           N23    An2
        BYTE   W24
        BYTE           PAN    c_v-32
        BYTE           N68    Dn1  v092
        BYTE   W12
        BYTE           PAN    c_v-24
        BYTE           N23    An1  v080
        BYTE   W12
        BYTE           PAN    c_v-16
        BYTE           N23    En2  v072
        BYTE   W12
        BYTE                   Fn2
        BYTE   W12
// 044   ----------------------------------------
        BYTE                   An2
        BYTE   W24
        BYTE           PAN    c_v-24
        BYTE           N68    As1  v092
        BYTE   W12
        BYTE           PAN    c_v-16
        BYTE           N23    Fn2  v080
        BYTE   W48
        BYTE                   An2  v072
        BYTE   W12
// 045   ----------------------------------------
        BYTE           N68    Gn2  v092
        BYTE   W24
        BYTE           PAN    c_v-24
        BYTE           N44    Dn2
        BYTE   W24
        BYTE           N23    As1
        BYTE   W24
        BYTE           PAN    c_v-32
        BYTE           N68    Ds1
        BYTE   W12
        BYTE           PAN    c_v-24
        BYTE           N23    As1  v080
        BYTE   W12
// 046   ----------------------------------------
        BYTE           PAN    c_v-16
        BYTE           N23    Ds2  v072
        BYTE   W12
        BYTE                   Fn2
        BYTE   W12
        BYTE                   Gn2
        BYTE   W24
        BYTE           PAN    c_v-32
        BYTE           N68    Fn1  v092
        BYTE   W12
        BYTE           PAN    c_v-24
        BYTE           N23    Cn2  v080
        BYTE   W12
        BYTE           PAN    c_v-16
        BYTE           N23    An2  v072
        BYTE   W12
        BYTE                   Gn2
        BYTE   W12
// 047   ----------------------------------------
        BYTE                   An2
        BYTE   W12
        BYTE           PAN    c_v-24
        BYTE           N23    Cn2
        BYTE   W12
        BYTE           PAN    c_v-32
        BYTE           N68    Dn1  v092
        BYTE   W12
        BYTE           PAN    c_v-24
        BYTE           N23    An1  v080
        BYTE   W12
        BYTE           PAN    c_v-16
        BYTE           N23    Fs2  v072
        BYTE   W12
        BYTE                   En2
        BYTE   W12
        BYTE                   Fs2
        BYTE   W12
        BYTE                   Dn2
        BYTE   W12
// 048   ----------------------------------------
        BYTE           PAN    c_v-32
        BYTE           N68    Gn1  v092
        BYTE   W12
        BYTE           PAN    c_v-24
        BYTE           N23    Dn2  v080
        BYTE   W24
        BYTE           PAN    c_v-16
        BYTE           N23    An2  v072
        BYTE   W24
        BYTE                   Gn2
        BYTE   W12
        BYTE           PAN    c_v-32
        BYTE           N68    An1  v092
        BYTE   W12
        BYTE           PAN    c_v-24
        BYTE           N23    En2  v080
        BYTE   W12
// 049   ----------------------------------------
        BYTE   W36
        BYTE           PAN    c_v-16
        BYTE           N11    An2  v072
        BYTE   W12
        BYTE           PAN    c_v-24
        BYTE           N68    Dn2  v092
        BYTE   W12
        BYTE           PAN    c_v-16
        BYTE           N23    An2  v080
        BYTE   W36
// 050   ----------------------------------------
        BYTE   W24
        BYTE           PAN    c_v-32
        BYTE           N68    Gn1  v092
        BYTE   W12
        BYTE           PAN    c_v-24
        BYTE           N23    Dn2  v080
        BYTE   W60
// 051   ----------------------------------------
        BYTE           PAN    c_v-16
        BYTE           N68    Cn1  v092
        BYTE           N72    Gn2  v080
        BYTE   W12
        BYTE           PAN    c_v-32
        BYTE           N23    Gn1
        BYTE   W12
        BYTE           PAN    c_v-24
        BYTE           N23    Cn2  v072
        BYTE   W12
        BYTE           PAN    c_v-32
        BYTE           N23    Gn1
        BYTE   W12
        BYTE           PAN    c_v-16
        BYTE           N23    Fn2
        BYTE   W24
        BYTE           N56    Cn1  v092
        BYTE           N23    Gn2  v080
        BYTE   W12
        BYTE           PAN    c_v-32
        BYTE           N23    Gn1
        BYTE   W12
// 052   ----------------------------------------
        BYTE           PAN    c_v-24
        BYTE           N23    Cn2  v072
        BYTE   W12
        BYTE                   Gn1
        BYTE   W12
        BYTE           PAN    c_v-16
        BYTE           N11    Gn2  v056
        BYTE   W24
        BYTE           TIE    Dn1  v100
        BYTE           N23    Fn2  v076
        BYTE   W12
        BYTE           PAN    c_v-24
        BYTE           N23    As1  v092
        BYTE   W12
        BYTE           PAN    c_v-16
        BYTE           N23    Fn2
        BYTE   W12
        BYTE           PAN    c_v-24
        BYTE           N92    As1
        BYTE   W12
// 053   ----------------------------------------
ForbiddenForest_Alusq_6_53:
        BYTE           PAN    c_v-16
        BYTE           N23    Fn2  v092
        BYTE   W12
        BYTE                   Gn2
        BYTE   W68
        BYTE   W03
        BYTE           EOT    Dn1
        BYTE   W13
        BYTE   PEND
// 054   ----------------------------------------
        BYTE           PAN    c_v-24
        BYTE           TIE    Gs1  v100
        BYTE           N32    Gn2  v076
        BYTE   W12
        BYTE           TIE    Ds2  v092
        BYTE   W24
        BYTE           N23    Gn2  v080
        BYTE   W60
// 055   ----------------------------------------
        BYTE   W32
        BYTE   W03
        BYTE           EOT    Gs1
        BYTE                   Ds2
        BYTE   W13
        BYTE           PAN    c_v-32
        BYTE           TIE    Dn1  v100
        BYTE   W12
        BYTE           PAN    c_v-24
        BYTE           N23    As1  v092
        BYTE   W12
        BYTE           PAN    c_v-16
        BYTE           N23    Fn2
        BYTE   W12
        BYTE           PAN    c_v-24
        BYTE           N92    As1
        BYTE   W12
// 056   ----------------------------------------
        BYTE   PATT
         POIN2  ForbiddenForest_Alusq_6_53
// 057   ----------------------------------------
        BYTE           PAN    c_v-24
        BYTE           TIE    Gs1  v100
        BYTE           N32    Gn2  v076
        BYTE   W12
        BYTE           TIE    Ds2  v092
        BYTE   W24
        BYTE           N28    Gn2  v080
        BYTE   W60
// 058   ----------------------------------------
        BYTE   W32
        BYTE   W03
        BYTE           EOT    Gs1
        BYTE                   Ds2
        BYTE   W13
        BYTE           PAN    c_v-32
        BYTE           TIE    Bn1  v100
        BYTE   W12
        BYTE           PAN    c_v-24
        BYTE           TIE    Fs2  v092
        BYTE   W36
// 059   ----------------------------------------
        BYTE   W96
// 060   ----------------------------------------
        BYTE   W36
        BYTE   GoTo
         POIN2  ForbiddenForest_Alusq_6_LOOP
        BYTE   W60
// 061   ----------------------------------------
        BYTE   W23
        BYTE           EOT    Bn1
        BYTE   W01
        BYTE                   Fs2
        BYTE   FINE

//****************** Track 7 (Midi-Chn.7) ******************//

ForbiddenForest_Alusq_7:
        BYTE   KEYSH  ForbiddenForest_Alusq_key+0
// 000   ----------------------------------------
        BYTE           VOICE  13
        BYTE           VOL    38
        BYTE           PAN    c_v-32
        BYTE   W96
// 001   ----------------------------------------
        BYTE   W48
ForbiddenForest_Alusq_7_LOOP:
        BYTE   W48
// 002   ----------------------------------------
        BYTE   W96
// 003   ----------------------------------------
        BYTE   W96
// 004   ----------------------------------------
        BYTE   W96
// 005   ----------------------------------------
        BYTE   W96
// 006   ----------------------------------------
        BYTE   W96
// 007   ----------------------------------------
        BYTE   W96
// 008   ----------------------------------------
        BYTE   W96
// 009   ----------------------------------------
        BYTE   W96
// 010   ----------------------------------------
        BYTE   W96
// 011   ----------------------------------------
        BYTE   W96
// 012   ----------------------------------------
        BYTE   W96
// 013   ----------------------------------------
        BYTE   W96
// 014   ----------------------------------------
        BYTE   W96
// 015   ----------------------------------------
        BYTE   W96
// 016   ----------------------------------------
        BYTE   W96
// 017   ----------------------------------------
        BYTE   W96
// 018   ----------------------------------------
        BYTE   W96
// 019   ----------------------------------------
        BYTE   W96
// 020   ----------------------------------------
        BYTE   W24
        BYTE           N09    Ds4  v100
        BYTE   W09
        BYTE           PAN    c_v+0
        BYTE   W03
        BYTE                   c_v+32
        BYTE           N09    Ds4  v048
        BYTE   W60
// 021   ----------------------------------------
        BYTE   W72
        BYTE           PAN    c_v-32
        BYTE           N09    Cs4  v100
        BYTE   W09
        BYTE           PAN    c_v+0
        BYTE   W03
        BYTE                   c_v+32
        BYTE           N09    Cs4  v048
        BYTE   W12
// 022   ----------------------------------------
        BYTE   W96
// 023   ----------------------------------------
        BYTE   W24
        BYTE           PAN    c_v-32
        BYTE           N09    Gn4  v100
        BYTE   W09
        BYTE           PAN    c_v+0
        BYTE   W03
        BYTE                   c_v+32
        BYTE           N09    Gn4  v048
        BYTE   W09
        BYTE           PAN    c_v+0
        BYTE   W03
        BYTE                   c_v-32
        BYTE           N09    Fn4  v100
        BYTE   W09
        BYTE           PAN    c_v+0
        BYTE   W03
        BYTE                   c_v+32
        BYTE           N09    Fn4  v048
        BYTE   W36
// 024   ----------------------------------------
        BYTE   W72
        BYTE           PAN    c_v-32
        BYTE           N09    As3  v096
        BYTE   W09
        BYTE           PAN    c_v+0
        BYTE   W03
        BYTE                   c_v+32
        BYTE           N09    As3  v048
        BYTE   W09
        BYTE           PAN    c_v+0
        BYTE   W03
// 025   ----------------------------------------
        BYTE                   c_v-32
        BYTE           N09    An3  v100
        BYTE   W09
        BYTE           PAN    c_v+0
        BYTE   W03
        BYTE                   c_v+32
        BYTE           N09    An3  v048
        BYTE   W84
// 026   ----------------------------------------
        BYTE   W24
        BYTE           PAN    c_v-32
        BYTE           N09    An4  v100
        BYTE   W09
        BYTE           PAN    c_v+0
        BYTE   W03
        BYTE                   c_v+32
        BYTE           N09    An4  v048
        BYTE   W09
        BYTE           PAN    c_v+0
        BYTE   W03
        BYTE                   c_v-32
        BYTE           N09    Dn4  v100
        BYTE   W09
        BYTE           PAN    c_v+0
        BYTE   W03
        BYTE                   c_v+32
        BYTE           N09    Dn4  v048
        BYTE   W09
        BYTE           PAN    c_v+0
        BYTE   W03
        BYTE                   c_v-32
        BYTE           N09    An3  v100
        BYTE   W09
        BYTE           PAN    c_v+0
        BYTE   W03
        BYTE                   c_v+32
        BYTE           N09    An3  v048
        BYTE   W09
        BYTE           PAN    c_v+0
        BYTE   W03
// 027   ----------------------------------------
        BYTE                   c_v-32
        BYTE           N09    Dn3  v100
        BYTE   W09
        BYTE           PAN    c_v+0
        BYTE   W03
        BYTE                   c_v+32
        BYTE           N09    Dn3  v048
        BYTE   W60
        BYTE           PAN    c_v-32
        BYTE           N09    Gn4  v100
        BYTE   W09
        BYTE           PAN    c_v+0
        BYTE   W03
        BYTE                   c_v+32
        BYTE           N09    Gn4  v048
        BYTE   W09
        BYTE           PAN    c_v+0
        BYTE   W03
// 028   ----------------------------------------
        BYTE                   c_v-32
        BYTE           N09    Dn4  v100
        BYTE   W09
        BYTE           PAN    c_v+0
        BYTE   W03
        BYTE                   c_v+32
        BYTE           N09    Dn4  v048
        BYTE   W09
        BYTE           PAN    c_v+0
        BYTE   W03
        BYTE                   c_v-32
        BYTE           N09    Gn3  v100
        BYTE   W09
        BYTE           PAN    c_v+0
        BYTE   W03
        BYTE                   c_v+32
        BYTE           N09    Gn3  v048
        BYTE   W60
// 029   ----------------------------------------
        BYTE   W24
        BYTE           PAN    c_v-32
        BYTE           N09    Gn3  v100
        BYTE   W09
        BYTE           PAN    c_v+0
        BYTE   W03
        BYTE                   c_v+32
        BYTE           N09    Gn3  v048
        BYTE   W09
        BYTE           PAN    c_v+0
        BYTE   W03
        BYTE                   c_v-32
        BYTE           N09    Cn4  v100
        BYTE   W09
        BYTE           PAN    c_v+0
        BYTE   W03
        BYTE                   c_v+32
        BYTE           N09    Cn4  v048
        BYTE   W09
        BYTE           PAN    c_v+0
        BYTE   W03
        BYTE           N09    Gn4  v100
        BYTE   W12
        BYTE                   Gn4  v048
        BYTE   W12
// 030   ----------------------------------------
        BYTE   W72
        BYTE           PAN    c_v-32
        BYTE           N09    Cn4  v104
        BYTE   W09
        BYTE           PAN    c_v+0
        BYTE   W03
        BYTE                   c_v+32
        BYTE           N09    Cn4  v048
        BYTE   W09
        BYTE           PAN    c_v+0
        BYTE   W03
// 031   ----------------------------------------
        BYTE                   c_v-32
        BYTE           N09    Gn4  v108
        BYTE   W09
        BYTE           PAN    c_v+0
        BYTE   W03
        BYTE                   c_v+32
        BYTE           N09    Gn4  v048
        BYTE   W09
        BYTE           PAN    c_v+0
        BYTE   W03
        BYTE                   c_v-32
        BYTE           N09    Cn5  v124
        BYTE   W09
        BYTE           PAN    c_v+0
        BYTE   W03
        BYTE                   c_v+32
        BYTE           N09    Cn5  v048
        BYTE   W60
// 032   ----------------------------------------
        BYTE   W96
// 033   ----------------------------------------
        BYTE   W96
// 034   ----------------------------------------
        BYTE   W96
// 035   ----------------------------------------
        BYTE   W96
// 036   ----------------------------------------
        BYTE   W96
// 037   ----------------------------------------
        BYTE   W96
// 038   ----------------------------------------
        BYTE   W96
// 039   ----------------------------------------
        BYTE   W96
// 040   ----------------------------------------
        BYTE   W96
// 041   ----------------------------------------
        BYTE   W96
// 042   ----------------------------------------
        BYTE   W96
// 043   ----------------------------------------
        BYTE   W48
        BYTE           PAN    c_v-32
        BYTE           N09    An4  v127
        BYTE   W09
        BYTE           PAN    c_v+0
        BYTE   W03
        BYTE                   c_v+32
        BYTE           N09    An4  v048
        BYTE   W09
        BYTE           PAN    c_v+0
        BYTE   W03
        BYTE                   c_v-32
        BYTE           N09    En4  v127
        BYTE   W09
        BYTE           PAN    c_v+0
        BYTE   W03
        BYTE                   c_v+32
        BYTE           N09    En4  v048
        BYTE   W09
        BYTE           PAN    c_v+0
        BYTE   W03
// 044   ----------------------------------------
        BYTE                   c_v-32
        BYTE           N09    Fn4  v127
        BYTE   W09
        BYTE           PAN    c_v+0
        BYTE   W03
        BYTE                   c_v+32
        BYTE           N09    Fn4  v048
        BYTE   W09
        BYTE           PAN    c_v+0
        BYTE   W03
        BYTE                   c_v-32
        BYTE           N09    Dn4  v127
        BYTE   W09
        BYTE           PAN    c_v+0
        BYTE   W03
        BYTE                   c_v+32
        BYTE           N09    Dn4  v048
        BYTE   W60
// 045   ----------------------------------------
        BYTE   W96
// 046   ----------------------------------------
        BYTE   W96
// 047   ----------------------------------------
        BYTE   W96
// 048   ----------------------------------------
        BYTE   W96
// 049   ----------------------------------------
        BYTE   W48
        BYTE           PAN    c_v-32
        BYTE           N09    Gn4  v127
        BYTE   W09
        BYTE           PAN    c_v+0
        BYTE   W03
        BYTE                   c_v+32
        BYTE           N09    Gn4  v048
        BYTE   W22
        BYTE           PAN    c_v-16
        BYTE           N09    Fn4  v124
        BYTE   W12
        BYTE                   Fn4  v127
        BYTE   W02
// 050   ----------------------------------------
        BYTE   W11
        BYTE                   En4
        BYTE   W13
        BYTE           PAN    c_v-32
        BYTE           N09    En4  v124
        BYTE   W09
        BYTE           PAN    c_v+0
        BYTE   W03
        BYTE                   c_v+32
        BYTE           N09    En4  v048
        BYTE   W09
        BYTE           PAN    c_v+0
        BYTE   W03
        BYTE                   c_v-32
        BYTE           N09    Dn4  v120
        BYTE   W09
        BYTE           PAN    c_v+0
        BYTE   W03
        BYTE                   c_v+32
        BYTE           N09    Dn4  v048
        BYTE   W36
// 051   ----------------------------------------
        BYTE   W96
// 052   ----------------------------------------
        BYTE   W96
// 053   ----------------------------------------
ForbiddenForest_Alusq_7_53:
        BYTE   W24
        BYTE           PAN    c_v-32
        BYTE           N09    Gn3  v100
        BYTE   W09
        BYTE           PAN    c_v+0
        BYTE   W03
        BYTE                   c_v+32
        BYTE           N09    Gn3  v048
        BYTE   W09
        BYTE           PAN    c_v+0
        BYTE   W03
        BYTE                   c_v-32
        BYTE           N09    Dn4  v088
        BYTE   W09
        BYTE           PAN    c_v+0
        BYTE   W03
        BYTE                   c_v+32
        BYTE           N09    Dn4  v048
        BYTE   W36
        BYTE   PEND
// 054   ----------------------------------------
ForbiddenForest_Alusq_7_54:
        BYTE   W72
        BYTE           PAN    c_v-32
        BYTE           N09    Cn4  v100
        BYTE   W09
        BYTE           PAN    c_v+0
        BYTE   W03
        BYTE                   c_v+32
        BYTE           N09    Cn4  v048
        BYTE   W09
        BYTE           PAN    c_v+0
        BYTE   W03
        BYTE   PEND
// 055   ----------------------------------------
ForbiddenForest_Alusq_7_55:
        BYTE           PAN    c_v-32
        BYTE           N09    Gn4  v092
        BYTE   W09
        BYTE           PAN    c_v+0
        BYTE   W03
        BYTE                   c_v+32
        BYTE           N09    Gn4  v048
        BYTE   W84
        BYTE   PEND
// 056   ----------------------------------------
        BYTE   PATT
         POIN2  ForbiddenForest_Alusq_7_53
// 057   ----------------------------------------
        BYTE   PATT
         POIN2  ForbiddenForest_Alusq_7_54
// 058   ----------------------------------------
        BYTE   PATT
         POIN2  ForbiddenForest_Alusq_7_55
// 059   ----------------------------------------
        BYTE   W24
        BYTE           PAN    c_v-32
        BYTE           N09    Ds4  v100
        BYTE   W09
        BYTE           PAN    c_v+0
        BYTE   W03
        BYTE                   c_v+32
        BYTE           N09    Ds4  v048
        BYTE   W09
        BYTE           PAN    c_v+0
        BYTE   W03
        BYTE           N09    As4  v092
        BYTE   W12
        BYTE                   As4  v048
        BYTE   W36
// 060   ----------------------------------------
        BYTE   W36
        BYTE           PAN    c_v-32
        BYTE   GoTo
         POIN2  ForbiddenForest_Alusq_7_LOOP
        BYTE   W60
// 061   ----------------------------------------
        BYTE   W24
        BYTE   FINE


//********************** End of Song ***********************//

        ALIGN 4
ForbiddenForest_Alusq:
        BYTE   8                       // Num Tracks
        BYTE   0                       // Unknown
        BYTE   ForbiddenForest_Alusq_pri // Priority
        BYTE   ForbiddenForest_Alusq_rev // Reverb

        POIN2   ForbiddenForest_Alusq_grp

        POIN2   ForbiddenForest_Alusq_0
        POIN2   ForbiddenForest_Alusq_1
        POIN2   ForbiddenForest_Alusq_2
        POIN2   ForbiddenForest_Alusq_3
        POIN2   ForbiddenForest_Alusq_4
        POIN2   ForbiddenForest_Alusq_5
        POIN2   ForbiddenForest_Alusq_6
        POIN2   ForbiddenForest_Alusq_7

        
