//Generated with python s2ea
	#include "MPlayDef.event"

	#define	GameCorner_grp BCVoices
	#define	GameCorner_pri 0
	#define	GameCorner_rev 0
	#define	GameCorner_mvl 75
	#define	GameCorner_key 0
	#define	GameCorner_tbs 1
	#define	GameCorner_exg 0
	#define	GameCorner_cmp 1

	// .rodata
	//	GameCorner
	ALIGN 4

//**************** Track 1 (Midi-Chn.1) ****************//

GameCorner_1:
	BYTE	KEYSH  GameCorner_key+0
// 000   ----------------------------------------
	BYTE	TEMPO  130*GameCorner_tbs/2
	BYTE		VOICE  1
	BYTE		VOL    97*GameCorner_mvl/mxv
	BYTE		PAN    c_v+9
	BYTE		MOD    0
	BYTE	W48
GameCorner_1_B1:
	BYTE	W48
// 001   ----------------------------------------
	BYTE	W96
// 002   ----------------------------------------
	BYTE	W96
// 003   ----------------------------------------
	BYTE	W96
// 004   ----------------------------------------
GameCorner_1_004:
	BYTE	W56
	BYTE	W03
	BYTE		N05    As4  v112
	BYTE	W01
	BYTE		        Dn5 
	BYTE	W17
	BYTE		        Gn4 
	BYTE	W01
	BYTE		        As4 
	BYTE	W17
	BYTE		        Ds4 
	BYTE	W01
	BYTE	PEND
// 005   ----------------------------------------
GameCorner_1_005:
	BYTE		N05    Gn4  v112
	BYTE	W12
	BYTE		        Cn4 
	BYTE	W12
	BYTE		        Dn4 
	BYTE	W12
	BYTE		        Ds4 
	BYTE	W12
	BYTE		        Fn4 
	BYTE	W12
	BYTE		        Ds4 
	BYTE	W12
	BYTE		        Fn4 
	BYTE	W06
	BYTE		        Ds4 
	BYTE	W12
	BYTE		N17    Fn4 
	BYTE	W06
	BYTE	PEND
// 006   ----------------------------------------
GameCorner_1_006:
	BYTE	W12
	BYTE		N23    Gn4  v112
	BYTE	W24
	BYTE		N05    Fs4 
	BYTE	W06
	BYTE		        Fn4 
	BYTE	W17
	BYTE		        As4 
	BYTE	W01
	BYTE		        Dn5 
	BYTE	W17
	BYTE		        Gn4 
	BYTE	W01
	BYTE		        As4 
	BYTE	W17
	BYTE		        Ds4 
	BYTE	W01
	BYTE	PEND
// 007   ----------------------------------------
GameCorner_1_007:
	BYTE		N05    Gn4  v112
	BYTE	W12
	BYTE		        Cn4 
	BYTE	W12
	BYTE		        Dn4 
	BYTE	W12
	BYTE		        Ds4 
	BYTE	W18
	BYTE		        Fn4 
	BYTE	W06
	BYTE		        Ds4 
	BYTE	W12
	BYTE		        Gn4 
	BYTE	W06
	BYTE		        Ds4 
	BYTE	W12
	BYTE		N17    As4 
	BYTE	W06
	BYTE	PEND
// 008   ----------------------------------------
GameCorner_1_008:
	BYTE	W12
	BYTE		N11    An4  v112
	BYTE	W12
	BYTE		N05    As4 
	BYTE	W06
	BYTE		        Cn5 
	BYTE	W28
	BYTE	W01
	BYTE		        As4 
	BYTE	W01
	BYTE		        Dn5 
	BYTE	W17
	BYTE		        Gn4 
	BYTE	W01
	BYTE		        As4 
	BYTE	W17
	BYTE		        Ds4 
	BYTE	W01
	BYTE	PEND
// 009   ----------------------------------------
	BYTE	PATT
	 POIN2	GameCorner_1_005
// 010   ----------------------------------------
	BYTE	PATT
	 POIN2	GameCorner_1_006
// 011   ----------------------------------------
GameCorner_1_011:
	BYTE		N05    Gn4  v112
	BYTE	W12
	BYTE		        Cn4 
	BYTE	W12
	BYTE		        Dn4 
	BYTE	W12
	BYTE		        Ds4 
	BYTE	W60
	BYTE	PEND
// 012   ----------------------------------------
	BYTE	W96
// 013   ----------------------------------------
	BYTE	W96
// 014   ----------------------------------------
	BYTE	W96
// 015   ----------------------------------------
	BYTE	W96
// 016   ----------------------------------------
	BYTE	W60
	BYTE		        As4 
	BYTE		N05    Dn5  v116
	BYTE	W18
	BYTE		        Gn4  v112
	BYTE		N05    As4  v116
	BYTE	W18
// 017   ----------------------------------------
GameCorner_1_017:
	BYTE		N05    Ds4  v112
	BYTE		N05    Gn4  v116
	BYTE	W12
	BYTE		        Cn4 
	BYTE	W12
	BYTE		        Dn4 
	BYTE	W12
	BYTE		        Ds4 
	BYTE	W12
	BYTE		        Fn4 
	BYTE	W12
	BYTE		        Ds4 
	BYTE	W12
	BYTE		        Fn4 
	BYTE	W06
	BYTE		        Ds4 
	BYTE	W12
	BYTE		N17    Fn4 
	BYTE	W06
	BYTE	PEND
// 018   ----------------------------------------
GameCorner_1_018:
	BYTE	W12
	BYTE		N23    Gn4  v116
	BYTE	W24
	BYTE		N05    Fs4 
	BYTE	W06
	BYTE		        Fn4 
	BYTE	W18
	BYTE		        As4  v112
	BYTE		N05    Dn5  v116
	BYTE	W18
	BYTE		        Gn4  v112
	BYTE		N05    As4  v116
	BYTE	W18
	BYTE	PEND
// 019   ----------------------------------------
	BYTE		        Ds4  v112
	BYTE		N05    Gn4  v116
	BYTE	W12
	BYTE		        Cn4 
	BYTE	W12
	BYTE		        Dn4 
	BYTE	W12
	BYTE		        Ds4 
	BYTE	W18
	BYTE		        Fn4 
	BYTE	W06
	BYTE		        Ds4 
	BYTE	W12
	BYTE		        Gn4 
	BYTE	W06
	BYTE		        Ds4 
	BYTE	W12
	BYTE		N17    As4 
	BYTE	W06
// 020   ----------------------------------------
	BYTE	W12
	BYTE		N11    An4 
	BYTE	W12
	BYTE		N05    As4 
	BYTE	W06
	BYTE		        Cn5 
	BYTE	W30
	BYTE		        As4  v112
	BYTE		N05    Dn5  v116
	BYTE	W18
	BYTE		        Gn4  v112
	BYTE		N05    As4  v116
	BYTE	W18
// 021   ----------------------------------------
	BYTE	PATT
	 POIN2	GameCorner_1_017
// 022   ----------------------------------------
	BYTE	PATT
	 POIN2	GameCorner_1_018
// 023   ----------------------------------------
	BYTE		N05    Ds4  v112
	BYTE		N05    Gn4  v116
	BYTE	W12
	BYTE		        Cn4 
	BYTE	W12
	BYTE		        Dn4 
	BYTE	W12
	BYTE		        Ds4 
	BYTE	W12
	BYTE		        Fn4 
	BYTE	W12
	BYTE		        Ds4 
	BYTE	W12
	BYTE		        Fn4 
	BYTE	W06
	BYTE		N12    Ds4 
	BYTE	W12
	BYTE		N17    Gn4 
	BYTE	W06
// 024   ----------------------------------------
	BYTE	W12
	BYTE		N23    Fn4 
	BYTE	W84
// 025   ----------------------------------------
	BYTE	W96
// 026   ----------------------------------------
	BYTE	W96
// 027   ----------------------------------------
	BYTE	W96
// 028   ----------------------------------------
	BYTE	W96
// 029   ----------------------------------------
	BYTE	W96
// 030   ----------------------------------------
	BYTE	W96
// 031   ----------------------------------------
	BYTE	W96
// 032   ----------------------------------------
	BYTE	W96
// 033   ----------------------------------------
	BYTE	W96
// 034   ----------------------------------------
	BYTE	W96
// 035   ----------------------------------------
	BYTE	W96
// 036   ----------------------------------------
	BYTE	PATT
	 POIN2	GameCorner_1_004
// 037   ----------------------------------------
	BYTE	PATT
	 POIN2	GameCorner_1_005
// 038   ----------------------------------------
	BYTE	PATT
	 POIN2	GameCorner_1_006
// 039   ----------------------------------------
	BYTE	PATT
	 POIN2	GameCorner_1_007
// 040   ----------------------------------------
	BYTE	PATT
	 POIN2	GameCorner_1_008
// 041   ----------------------------------------
	BYTE	PATT
	 POIN2	GameCorner_1_005
// 042   ----------------------------------------
	BYTE	PATT
	 POIN2	GameCorner_1_006
// 043   ----------------------------------------
	BYTE	PATT
	 POIN2	GameCorner_1_011
// 044   ----------------------------------------
	BYTE	W48
	BYTE	GoTo
	 POIN2	GameCorner_1_B1
GameCorner_1_B2:
	BYTE	W11
	BYTE	FINE

//**************** Track 2 (Midi-Chn.2) ****************//

GameCorner_2:
	BYTE	KEYSH  GameCorner_key+0
// 000   ----------------------------------------
	BYTE		VOICE  4
	BYTE		VOL    68*GameCorner_mvl/mxv
	BYTE		PAN    c_v-6
	BYTE		MOD    0
	BYTE	W48
GameCorner_2_B1:
	BYTE	W12
	BYTE		N05    Ds3  v092
	BYTE		N05    Gn3  v100
	BYTE	W06
	BYTE		        Cn3  v092
	BYTE	W12
	BYTE		        Ds3 
	BYTE		N05    Gn3  v100
	BYTE	W06
	BYTE		        Cn3  v092
	BYTE	W12
// 001   ----------------------------------------
GameCorner_2_001:
	BYTE		N05    Ds3  v092
	BYTE		N05    Gn3  v100
	BYTE	W06
	BYTE		        Cn3  v092
	BYTE	W12
	BYTE		        Fn3  v100
	BYTE		N05    An3 
	BYTE	W06
	BYTE		        Cn3  v092
	BYTE	W12
	BYTE		N10    Fn3  v100
	BYTE		N10    An3 
	BYTE	W24
	BYTE		N05    Ds3  v092
	BYTE		N05    Gn3  v100
	BYTE	W06
	BYTE		        Cn3  v092
	BYTE	W12
	BYTE		        Ds3 
	BYTE		N05    Gn3  v100
	BYTE	W06
	BYTE		        Cn3  v092
	BYTE	W12
	BYTE	PEND
// 002   ----------------------------------------
GameCorner_2_002:
	BYTE		N05    Fn3  v100
	BYTE		N05    As3 
	BYTE	W12
	BYTE		        Fn3 
	BYTE		N05    An3 
	BYTE	W12
	BYTE		        Ds3  v092
	BYTE		N05    Gn3  v100
	BYTE	W06
	BYTE		N16    Fn3 
	BYTE		N16    An3 
	BYTE	W30
	BYTE		N05    Ds3  v092
	BYTE		N05    Gn3  v100
	BYTE	W06
	BYTE		        Cn3  v092
	BYTE	W12
	BYTE		        Ds3 
	BYTE		N05    Gn3  v100
	BYTE	W06
	BYTE		        Cn3  v092
	BYTE	W12
	BYTE	PEND
// 003   ----------------------------------------
	BYTE	PATT
	 POIN2	GameCorner_2_001
// 004   ----------------------------------------
GameCorner_2_004:
	BYTE		N05    Fn3  v100
	BYTE		N05    As3 
	BYTE	W12
	BYTE		        Fn3 
	BYTE		N05    An3 
	BYTE	W12
	BYTE		        Fn3 
	BYTE		N05    As3 
	BYTE	W06
	BYTE		N16    Fn3 
	BYTE		N16    Cn4 
	BYTE	W30
	BYTE		N05    Ds3  v092
	BYTE		N05    Gn3  v100
	BYTE	W06
	BYTE		        Cn3  v092
	BYTE	W12
	BYTE		        Ds3 
	BYTE		N05    Gn3  v100
	BYTE	W06
	BYTE		        Cn3  v092
	BYTE	W12
	BYTE	PEND
// 005   ----------------------------------------
GameCorner_2_005:
	BYTE		N05    Ds3  v092
	BYTE		N05    Gn3  v100
	BYTE	W06
	BYTE		        Cn3  v092
	BYTE	W12
	BYTE		        Fn3 
	BYTE		N05    An3  v100
	BYTE	W06
	BYTE		        Cn3  v092
	BYTE	W12
	BYTE		N11    Fn3 
	BYTE		N11    An3  v100
	BYTE	W24
	BYTE		N05    Gs3  v092
	BYTE		N05    Cn4  v100
	BYTE	W06
	BYTE		        Fn3 
	BYTE	W12
	BYTE		        Gs3  v092
	BYTE		N05    Cn4  v100
	BYTE	W06
	BYTE		        Fn3 
	BYTE	W12
	BYTE	PEND
// 006   ----------------------------------------
GameCorner_2_006:
	BYTE		N05    As3  v092
	BYTE		N05    Ds4  v100
	BYTE	W12
	BYTE		        As3  v092
	BYTE		N05    Dn4  v100
	BYTE	W12
	BYTE		        Gs3  v092
	BYTE		N05    Cn4  v100
	BYTE	W06
	BYTE		N17    As3  v092
	BYTE		N17    Dn4  v100
	BYTE	W30
	BYTE		N05    Ds3  v092
	BYTE		N05    Gn3  v100
	BYTE	W06
	BYTE		        Cn3  v092
	BYTE	W12
	BYTE		        Ds3 
	BYTE		N05    Gn3  v100
	BYTE	W06
	BYTE		        Cn3  v092
	BYTE	W12
	BYTE	PEND
// 007   ----------------------------------------
	BYTE	PATT
	 POIN2	GameCorner_2_005
// 008   ----------------------------------------
GameCorner_2_008:
	BYTE		N05    As3  v092
	BYTE		N05    Ds4  v100
	BYTE	W12
	BYTE		        As3  v092
	BYTE		N05    Dn4  v100
	BYTE	W12
	BYTE		        Gs3  v092
	BYTE		N05    Cn4  v100
	BYTE	W06
	BYTE		N11    As3  v092
	BYTE		N11    Dn4  v100
	BYTE	W30
	BYTE		N05    Ds3  v092
	BYTE		N05    Gn3  v100
	BYTE	W06
	BYTE		        Cn3  v092
	BYTE	W12
	BYTE		        Ds3 
	BYTE		N05    Gn3  v100
	BYTE	W06
	BYTE		        Cn3  v092
	BYTE	W12
	BYTE	PEND
// 009   ----------------------------------------
GameCorner_2_009:
	BYTE		N05    Ds3  v092
	BYTE		N05    Gn3  v100
	BYTE	W06
	BYTE		        Cn3  v092
	BYTE	W12
	BYTE		        Fn3  v100
	BYTE		N05    An3 
	BYTE	W06
	BYTE		        Cn3  v092
	BYTE	W12
	BYTE		N11    Fn3  v100
	BYTE		N11    An3 
	BYTE	W24
	BYTE		N05    Gs3 
	BYTE		N05    Cn4 
	BYTE	W06
	BYTE		        Fn3 
	BYTE	W12
	BYTE		        Gs3 
	BYTE		N05    Cn4 
	BYTE	W06
	BYTE		        Fn3 
	BYTE	W12
	BYTE	PEND
// 010   ----------------------------------------
GameCorner_2_010:
	BYTE		N05    As3  v100
	BYTE		N05    Ds4 
	BYTE	W12
	BYTE		        As3 
	BYTE		N05    Dn4 
	BYTE	W12
	BYTE		        Gs3 
	BYTE		N05    Cn4 
	BYTE	W06
	BYTE		N17    As3 
	BYTE		N17    Dn4 
	BYTE	W30
	BYTE		N05    Ds3  v092
	BYTE		N05    Gn3  v100
	BYTE	W06
	BYTE		        Cn3  v092
	BYTE	W12
	BYTE		        Ds3 
	BYTE		N05    Gn3  v100
	BYTE	W06
	BYTE		        Cn3  v092
	BYTE	W12
	BYTE	PEND
// 011   ----------------------------------------
	BYTE		        Ds3 
	BYTE		N05    Gn3  v100
	BYTE	W06
	BYTE		        Cn3  v092
	BYTE	W12
	BYTE		        Fn3  v100
	BYTE		N05    An3 
	BYTE	W06
	BYTE		        Cn3  v092
	BYTE	W12
	BYTE		N11    Fn3  v100
	BYTE		N11    An3 
	BYTE	W24
	BYTE		N05    Gs3  v104
	BYTE		N05    Cn4  v112
	BYTE	W06
	BYTE		        Fn3  v104
	BYTE	W12
	BYTE		        Gs3 
	BYTE		N05    Cn4  v112
	BYTE	W12
	BYTE		N17    Gs3  v104
	BYTE		N17    Ds4  v112
	BYTE	W06
// 012   ----------------------------------------
	BYTE	W12
	BYTE		N05    Gn3  v104
	BYTE		N05    Dn4  v112
	BYTE	W12
	BYTE		        As3  v104
	BYTE		N05    Ds4  v112
	BYTE	W06
	BYTE		N17    Cn4  v104
	BYTE		N17    Fn4  v112
	BYTE	W30
	BYTE		N05    Ds3  v096
	BYTE		N05    Gn3  v100
	BYTE	W06
	BYTE		        Cn3  v092
	BYTE	W12
	BYTE		        Ds3  v096
	BYTE		N05    Gn3  v100
	BYTE	W06
	BYTE		        Cn3  v092
	BYTE	W12
// 013   ----------------------------------------
GameCorner_2_013:
	BYTE		N05    Ds3  v096
	BYTE		N05    Gn3  v100
	BYTE	W06
	BYTE		        Cn3  v092
	BYTE	W12
	BYTE		        Fn3  v096
	BYTE		N05    An3  v100
	BYTE	W06
	BYTE		        Cn3  v092
	BYTE	W12
	BYTE		N11    Fn3  v096
	BYTE		N11    An3  v100
	BYTE	W24
	BYTE		N05    Ds3  v092
	BYTE		N05    Gn3  v100
	BYTE	W06
	BYTE		        Cn3  v092
	BYTE	W12
	BYTE		        Ds3 
	BYTE		N05    Gn3  v100
	BYTE	W06
	BYTE		        Cn3  v092
	BYTE	W12
	BYTE	PEND
// 014   ----------------------------------------
	BYTE		        Fn3 
	BYTE		N05    As3  v100
	BYTE	W12
	BYTE		        Fn3  v092
	BYTE		N05    An3  v100
	BYTE	W12
	BYTE		        Ds3  v092
	BYTE		N05    Gn3  v100
	BYTE	W06
	BYTE		N17    Fn3  v092
	BYTE		N17    An3  v100
	BYTE	W30
	BYTE		N05    Ds3  v096
	BYTE		N05    Gn3  v100
	BYTE	W06
	BYTE		        Cn3  v092
	BYTE	W12
	BYTE		        Ds3  v096
	BYTE		N05    Gn3  v100
	BYTE	W06
	BYTE		        Cn3  v092
	BYTE	W12
// 015   ----------------------------------------
	BYTE	PATT
	 POIN2	GameCorner_2_013
// 016   ----------------------------------------
	BYTE		N05    Fn3  v092
	BYTE		N05    As3  v100
	BYTE	W12
	BYTE		        Fn3  v092
	BYTE		N05    An3  v100
	BYTE	W12
	BYTE		        Fn3  v092
	BYTE		N05    As3  v100
	BYTE	W06
	BYTE		N17    Fn3  v092
	BYTE		N17    Cn4  v100
	BYTE	W30
	BYTE		N05    Ds3  v092
	BYTE		N05    Gn3  v100
	BYTE	W06
	BYTE		        Cn3  v092
	BYTE	W12
	BYTE		        Ds3 
	BYTE		N05    Gn3  v100
	BYTE	W06
	BYTE		        Cn3  v092
	BYTE	W12
// 017   ----------------------------------------
	BYTE	PATT
	 POIN2	GameCorner_2_005
// 018   ----------------------------------------
	BYTE	PATT
	 POIN2	GameCorner_2_006
// 019   ----------------------------------------
	BYTE	PATT
	 POIN2	GameCorner_2_005
// 020   ----------------------------------------
	BYTE	PATT
	 POIN2	GameCorner_2_008
// 021   ----------------------------------------
	BYTE	PATT
	 POIN2	GameCorner_2_009
// 022   ----------------------------------------
	BYTE	PATT
	 POIN2	GameCorner_2_010
// 023   ----------------------------------------
GameCorner_2_023:
	BYTE		N05    Ds3  v092
	BYTE		N05    Gn3  v100
	BYTE	W06
	BYTE		        Cn3  v092
	BYTE	W12
	BYTE		        Fn3  v100
	BYTE		N05    An3 
	BYTE	W06
	BYTE		        Cn3  v092
	BYTE	W12
	BYTE		N11    Fn3  v100
	BYTE		N11    An3 
	BYTE	W24
	BYTE		N05    Gs3 
	BYTE		N05    Cn4  v108
	BYTE	W06
	BYTE		        Fn3  v100
	BYTE	W12
	BYTE		        Gs3 
	BYTE		N05    Cn4  v108
	BYTE	W12
	BYTE		N17    Gs3  v100
	BYTE		N17    Ds4  v108
	BYTE	W06
	BYTE	PEND
// 024   ----------------------------------------
	BYTE	W12
	BYTE		N05    Gn3  v100
	BYTE		N05    Dn4  v108
	BYTE	W12
	BYTE		        As3  v100
	BYTE		N05    Ds4  v108
	BYTE	W06
	BYTE		N17    Cn4  v100
	BYTE		N17    Fn4  v108
	BYTE	W18
	BYTE		N04    Fn5  v088
	BYTE	W06
	BYTE		        Cn5  v072
	BYTE	W06
	BYTE		        Gs4  v088
	BYTE	W06
	BYTE		        Cn5  v072
	BYTE	W06
	BYTE		        Gs4  v088
	BYTE	W06
	BYTE		        Fn4  v072
	BYTE	W06
	BYTE		        Gs4  v088
	BYTE	W06
	BYTE		        Cn5  v072
	BYTE	W06
// 025   ----------------------------------------
	BYTE		        Fn5  v088
	BYTE	W06
	BYTE		        Cn5  v072
	BYTE	W06
	BYTE		        Gs4  v088
	BYTE	W06
	BYTE		        Cn5  v072
	BYTE	W06
	BYTE		        Gs4  v088
	BYTE	W06
	BYTE		        Fn4  v072
	BYTE	W06
	BYTE		        Gs4  v088
	BYTE	W06
	BYTE		        Cn5 
	BYTE	W06
	BYTE		        Gn5 
	BYTE	W06
	BYTE		        Dn5  v072
	BYTE	W06
	BYTE		        As4  v088
	BYTE	W06
	BYTE		        Dn5  v072
	BYTE	W06
	BYTE		        As4  v088
	BYTE	W06
	BYTE		        Gn4  v072
	BYTE	W06
	BYTE		        As4  v088
	BYTE	W06
	BYTE		        Dn5  v072
	BYTE	W06
// 026   ----------------------------------------
	BYTE		        Gn5  v088
	BYTE	W06
	BYTE		        Dn5  v072
	BYTE	W06
	BYTE		        As4  v088
	BYTE	W06
	BYTE		        Dn5  v072
	BYTE	W06
	BYTE		        As4  v088
	BYTE	W06
	BYTE		        Gn4  v072
	BYTE	W06
	BYTE		        As4  v088
	BYTE	W06
	BYTE		        Dn5  v072
	BYTE	W06
	BYTE		        Cn5  v088
	BYTE	W06
	BYTE		        Gn4  v072
	BYTE	W06
	BYTE		        Ds4  v088
	BYTE	W06
	BYTE		        Gn4  v072
	BYTE	W06
	BYTE		        Cn4  v088
	BYTE	W06
	BYTE		        Ds4  v072
	BYTE	W06
	BYTE		        Gn4  v088
	BYTE	W06
	BYTE		        Cn5  v072
	BYTE	W06
// 027   ----------------------------------------
	BYTE		        Gn4  v088
	BYTE	W06
	BYTE		        Ds4  v072
	BYTE	W06
	BYTE		        Gn4  v088
	BYTE	W06
	BYTE		        Cn5  v072
	BYTE	W06
	BYTE		        Ds5  v088
	BYTE	W06
	BYTE		        Cn5  v072
	BYTE	W06
	BYTE		        Ds4  v088
	BYTE	W06
	BYTE		        As4  v072
	BYTE	W06
	BYTE		        Cn5  v088
	BYTE	W06
	BYTE		        An4  v072
	BYTE	W06
	BYTE		        Fn4  v088
	BYTE	W06
	BYTE		        An4  v072
	BYTE	W06
	BYTE		        Fn4  v088
	BYTE	W06
	BYTE		        Cn4  v072
	BYTE	W06
	BYTE		        Fn4  v088
	BYTE	W06
	BYTE		        An4  v072
	BYTE	W06
// 028   ----------------------------------------
	BYTE		        Fn5  v088
	BYTE	W06
	BYTE		        Fn5  v072
	BYTE	W06
	BYTE		        Cn5  v088
	BYTE	W06
	BYTE		        An4  v072
	BYTE	W06
	BYTE		        Cn5  v088
	BYTE	W06
	BYTE		        An4  v072
	BYTE	W06
	BYTE		        Fn4  v088
	BYTE	W06
	BYTE		        Cn4  v072
	BYTE	W06
	BYTE		        Fn5  v088
	BYTE	W06
	BYTE		        Cn5  v072
	BYTE	W06
	BYTE		        Gs4  v088
	BYTE	W06
	BYTE		        Cn5  v072
	BYTE	W06
	BYTE		        Gs4  v088
	BYTE	W06
	BYTE		        Fn4  v072
	BYTE	W06
	BYTE		        Gs4  v088
	BYTE	W06
	BYTE		        Cn5  v072
	BYTE	W06
// 029   ----------------------------------------
	BYTE		        Fn5  v088
	BYTE	W06
	BYTE		        Cn5  v072
	BYTE	W06
	BYTE		        Gs4  v088
	BYTE	W06
	BYTE		        Cn5  v072
	BYTE	W06
	BYTE		        Gs4  v088
	BYTE	W06
	BYTE		        Fn4  v072
	BYTE	W06
	BYTE		        Gs4  v088
	BYTE	W06
	BYTE		        Cn5  v072
	BYTE	W06
	BYTE		        Gn5  v088
	BYTE	W06
	BYTE		        Dn5  v072
	BYTE	W06
	BYTE		        As4  v088
	BYTE	W06
	BYTE		        Dn5  v072
	BYTE	W06
	BYTE		        As4  v088
	BYTE	W06
	BYTE		        Gn4  v072
	BYTE	W06
	BYTE		        As4  v088
	BYTE	W06
	BYTE		        Dn5  v072
	BYTE	W06
// 030   ----------------------------------------
	BYTE		        Gn5  v088
	BYTE	W06
	BYTE		        Dn5  v072
	BYTE	W06
	BYTE		        As4  v088
	BYTE	W06
	BYTE		        Dn5  v072
	BYTE	W06
	BYTE		        As4  v088
	BYTE	W06
	BYTE		        Gn4  v072
	BYTE	W06
	BYTE		        As4  v088
	BYTE	W06
	BYTE		        Dn5  v072
	BYTE	W06
	BYTE		        Gn5  v088
	BYTE	W06
	BYTE		        Dn5  v072
	BYTE	W06
	BYTE		        Bn4  v088
	BYTE	W06
	BYTE		        Dn5  v072
	BYTE	W06
	BYTE		        Bn4  v088
	BYTE	W06
	BYTE		        Gn4  v072
	BYTE	W06
	BYTE		        Bn4  v088
	BYTE	W06
	BYTE		        Dn5  v072
	BYTE	W06
// 031   ----------------------------------------
	BYTE		        Bn4  v088
	BYTE	W06
	BYTE		        Bn4  v072
	BYTE	W06
	BYTE		        Gn4  v088
	BYTE	W06
	BYTE		        Bn4  v072
	BYTE	W06
	BYTE		        Dn4  v088
	BYTE	W06
	BYTE		        Gn4  v072
	BYTE	W06
	BYTE		        Bn4  v088
	BYTE	W06
	BYTE		        Dn5  v072
	BYTE	W06
	BYTE		N05    Dn4 
	BYTE		N05    Gn4  v092
	BYTE	W06
	BYTE		        Dn4  v068
	BYTE		N05    Gn4  v088
	BYTE	W06
	BYTE		        Dn4  v072
	BYTE		N05    Gn4  v092
	BYTE	W18
	BYTE		        Fn4  v072
	BYTE		N05    As4  v092
	BYTE	W12
	BYTE		        Fn4  v084
	BYTE		N05    As4  v104
	BYTE	W06
// 032   ----------------------------------------
	BYTE	W60
	BYTE		        Ds3  v092
	BYTE		N05    Gn3  v100
	BYTE	W06
	BYTE		        Cn3  v092
	BYTE	W12
	BYTE		        Ds3 
	BYTE		N05    Gn3  v100
	BYTE	W06
	BYTE		        Cn3  v092
	BYTE	W12
// 033   ----------------------------------------
	BYTE	PATT
	 POIN2	GameCorner_2_001
// 034   ----------------------------------------
	BYTE	PATT
	 POIN2	GameCorner_2_002
// 035   ----------------------------------------
	BYTE	PATT
	 POIN2	GameCorner_2_001
// 036   ----------------------------------------
	BYTE	PATT
	 POIN2	GameCorner_2_004
// 037   ----------------------------------------
	BYTE	PATT
	 POIN2	GameCorner_2_005
// 038   ----------------------------------------
	BYTE	PATT
	 POIN2	GameCorner_2_006
// 039   ----------------------------------------
	BYTE	PATT
	 POIN2	GameCorner_2_005
// 040   ----------------------------------------
	BYTE		N05    As3  v092
	BYTE		N05    Ds4  v100
	BYTE	W12
	BYTE		        As3  v092
	BYTE		N05    Dn4  v100
	BYTE	W12
	BYTE		        Gs3  v092
	BYTE		N05    Cn4  v100
	BYTE	W06
	BYTE		N11    As3  v092
	BYTE		N11    Dn4  v100
	BYTE	W30
	BYTE		N05    Gn3 
	BYTE	W06
	BYTE		        Cn3  v092
	BYTE	W12
	BYTE		        Gn3  v100
	BYTE	W06
	BYTE		        Cn3  v092
	BYTE	W12
// 041   ----------------------------------------
	BYTE		        Gn3  v100
	BYTE	W06
	BYTE		        Cn3  v092
	BYTE	W12
	BYTE		        Fn3  v100
	BYTE		N05    An3 
	BYTE	W06
	BYTE		        Cn3  v092
	BYTE	W12
	BYTE		N11    Fn3  v100
	BYTE		N11    An3 
	BYTE	W24
	BYTE		N05    Gs3 
	BYTE		N05    Cn4 
	BYTE	W06
	BYTE		        Fn3 
	BYTE	W12
	BYTE		        Gs3 
	BYTE		N05    Cn4 
	BYTE	W06
	BYTE		        Fn3 
	BYTE	W12
// 042   ----------------------------------------
	BYTE	PATT
	 POIN2	GameCorner_2_010
// 043   ----------------------------------------
	BYTE	PATT
	 POIN2	GameCorner_2_023
// 044   ----------------------------------------
	BYTE	W12
	BYTE		N05    Gn3  v100
	BYTE		N05    Dn4  v108
	BYTE	W12
	BYTE		        As3  v100
	BYTE		N05    Ds4  v108
	BYTE	W06
	BYTE		N17    Cn4  v100
	BYTE		N17    Fn4  v108
	BYTE	W18
	BYTE	GoTo
	 POIN2	GameCorner_2_B1
GameCorner_2_B2:
	BYTE	W11
	BYTE	FINE

//**************** Track 3 (Midi-Chn.3) ****************//

GameCorner_3:
	BYTE	KEYSH  GameCorner_key+0
// 000   ----------------------------------------
	BYTE		VOICE  36
	BYTE		VOL    68*GameCorner_mvl/mxv
	BYTE		PAN    c_v+0
	BYTE		MOD    0
	BYTE	W48
GameCorner_3_B1:
	BYTE		N05    Cn2  v112
	BYTE	W18
	BYTE		N05   
	BYTE	W18
	BYTE		N05   
	BYTE	W12
// 001   ----------------------------------------
GameCorner_3_001:
	BYTE		N05    Cn2  v112
	BYTE	W48
	BYTE		N05   
	BYTE	W18
	BYTE		N05   
	BYTE	W18
	BYTE		N05   
	BYTE	W12
	BYTE	PEND
// 002   ----------------------------------------
	BYTE	PATT
	 POIN2	GameCorner_3_001
// 003   ----------------------------------------
	BYTE	PATT
	 POIN2	GameCorner_3_001
// 004   ----------------------------------------
GameCorner_3_004:
	BYTE		N05    Fn2  v112
	BYTE	W12
	BYTE		N05   
	BYTE	W12
	BYTE		        Gn2 
	BYTE	W12
	BYTE		N05   
	BYTE	W12
	BYTE		        Cn2 
	BYTE	W18
	BYTE		N05   
	BYTE	W18
	BYTE		N05   
	BYTE	W12
	BYTE	PEND
// 005   ----------------------------------------
	BYTE	PATT
	 POIN2	GameCorner_3_001
// 006   ----------------------------------------
GameCorner_3_006:
	BYTE		N05    Cn2  v112
	BYTE	W12
	BYTE		N05   
	BYTE	W12
	BYTE		        Fn2 
	BYTE	W12
	BYTE		N05   
	BYTE	W12
	BYTE		        Cn2 
	BYTE	W18
	BYTE		N05   
	BYTE	W18
	BYTE		N05   
	BYTE	W12
	BYTE	PEND
// 007   ----------------------------------------
	BYTE	PATT
	 POIN2	GameCorner_3_001
// 008   ----------------------------------------
	BYTE	PATT
	 POIN2	GameCorner_3_004
// 009   ----------------------------------------
	BYTE	PATT
	 POIN2	GameCorner_3_001
// 010   ----------------------------------------
	BYTE	PATT
	 POIN2	GameCorner_3_001
// 011   ----------------------------------------
	BYTE		N05    Cn2  v112
	BYTE	W96
// 012   ----------------------------------------
	BYTE	W48
	BYTE		N04   
	BYTE	W06
	BYTE		N04   
	BYTE	W06
	BYTE		N04   
	BYTE	W12
	BYTE		N04   
	BYTE	W18
	BYTE		N04   
	BYTE	W06
// 013   ----------------------------------------
	BYTE	W12
	BYTE		N04   
	BYTE	W18
	BYTE		N11   
	BYTE	W18
	BYTE		N04   
	BYTE	W06
	BYTE		N04   
	BYTE	W06
	BYTE		N04   
	BYTE	W18
	BYTE		N05   
	BYTE	W12
	BYTE		N05   
	BYTE	W06
// 014   ----------------------------------------
	BYTE	W12
	BYTE		N05   
	BYTE	W18
	BYTE		N12   
	BYTE	W18
	BYTE		N04   
	BYTE	W06
	BYTE		N04   
	BYTE	W06
	BYTE		N04   
	BYTE	W12
	BYTE		N05   
	BYTE	W18
	BYTE		N05   
	BYTE	W06
// 015   ----------------------------------------
	BYTE	W12
	BYTE		N05   
	BYTE	W18
	BYTE		N04   
	BYTE	W06
	BYTE		N04   
	BYTE	W06
	BYTE		N04   
	BYTE	W06
	BYTE		N04   
	BYTE	W06
	BYTE		N04   
	BYTE	W06
	BYTE		N04   
	BYTE	W18
	BYTE		N05   
	BYTE	W12
	BYTE		N05   
	BYTE	W06
// 016   ----------------------------------------
	BYTE	W12
	BYTE		N05   
	BYTE	W24
	BYTE		N11   
	BYTE	W12
	BYTE		N04   
	BYTE	W06
	BYTE		N04   
	BYTE	W06
	BYTE		N04   
	BYTE	W12
	BYTE		N05   
	BYTE	W18
	BYTE		N05   
	BYTE	W06
// 017   ----------------------------------------
	BYTE	W12
	BYTE		N05   
	BYTE	W18
	BYTE		N05   
	BYTE	W06
	BYTE		N04   
	BYTE	W06
	BYTE		N04   
	BYTE	W06
	BYTE		        Fn2 
	BYTE	W06
	BYTE		N04   
	BYTE	W06
	BYTE		N04   
	BYTE	W12
	BYTE		N05   
	BYTE	W18
	BYTE		N05   
	BYTE	W06
// 018   ----------------------------------------
	BYTE	W12
	BYTE		N05   
	BYTE	W24
	BYTE		N05   
	BYTE	W06
	BYTE		N04   
	BYTE	W06
	BYTE		        Cn2 
	BYTE	W06
	BYTE		N04   
	BYTE	W06
	BYTE		N04   
	BYTE	W12
	BYTE		N05   
	BYTE	W18
	BYTE		N05   
	BYTE	W06
// 019   ----------------------------------------
	BYTE	W12
	BYTE		N05   
	BYTE	W18
	BYTE		N05   
	BYTE	W18
	BYTE		N04    Fn2 
	BYTE	W06
	BYTE		N04   
	BYTE	W06
	BYTE		N04   
	BYTE	W12
	BYTE		N05   
	BYTE	W18
	BYTE		        Fn2  v108
	BYTE	W06
// 020   ----------------------------------------
	BYTE		        Gn2  v112
	BYTE	W12
	BYTE		N05   
	BYTE	W18
	BYTE		N05   
	BYTE	W12
	BYTE		N04    Gn2  v100
	BYTE	W06
	BYTE		        Cn2  v112
	BYTE	W06
	BYTE		N04   
	BYTE	W06
	BYTE		N04   
	BYTE	W12
	BYTE		N05   
	BYTE	W18
	BYTE		N05   
	BYTE	W06
// 021   ----------------------------------------
	BYTE	W12
	BYTE		N05   
	BYTE	W18
	BYTE		N05   
	BYTE	W18
	BYTE		N04    Fn2 
	BYTE	W06
	BYTE		N04   
	BYTE	W06
	BYTE		N04   
	BYTE	W12
	BYTE		N05   
	BYTE	W18
	BYTE		N05   
	BYTE	W06
// 022   ----------------------------------------
	BYTE	W12
	BYTE		N05   
	BYTE	W24
	BYTE		N05   
	BYTE	W06
	BYTE		N04   
	BYTE	W06
	BYTE		N05    Cn2 
	BYTE	W06
	BYTE		N05   
	BYTE	W06
	BYTE		N05   
	BYTE	W12
	BYTE		N05   
	BYTE	W18
	BYTE		N05   
	BYTE	W06
// 023   ----------------------------------------
	BYTE	W12
	BYTE		N05   
	BYTE	W18
	BYTE		N05   
	BYTE	W18
	BYTE		        Fn2 
	BYTE	W06
	BYTE		N05   
	BYTE	W06
	BYTE		N05   
	BYTE	W12
	BYTE		N05   
	BYTE	W18
	BYTE		N05   
	BYTE	W06
// 024   ----------------------------------------
	BYTE	W12
	BYTE		N05   
	BYTE	W24
	BYTE		N05   
	BYTE	W06
	BYTE		N04   
	BYTE	W06
	BYTE		N11   
	BYTE	W18
	BYTE		N05    Fn2  v104
	BYTE	W06
	BYTE		        Fn3 
	BYTE	W06
	BYTE		        Fn2  v112
	BYTE	W12
	BYTE		        Fn2  v104
	BYTE	W06
// 025   ----------------------------------------
	BYTE		        Fn2  v112
	BYTE	W06
	BYTE		        Fn3  v104
	BYTE	W06
	BYTE		N11    Fn2  v112
	BYTE	W12
	BYTE		N05    Fn3  v104
	BYTE	W06
	BYTE		        Fn2 
	BYTE	W12
	BYTE		        Fn3 
	BYTE	W06
	BYTE		N11    Gn2  v112
	BYTE	W18
	BYTE		N05    Gn2  v104
	BYTE	W06
	BYTE		        Gn3 
	BYTE	W06
	BYTE		        Gn2  v112
	BYTE	W12
	BYTE		        Gn2  v104
	BYTE	W06
// 026   ----------------------------------------
	BYTE		        Gn2  v112
	BYTE	W06
	BYTE		        Gn3  v104
	BYTE	W06
	BYTE		        Fn2  v112
	BYTE	W06
	BYTE		        Fn3  v104
	BYTE	W06
	BYTE		        Ds2  v112
	BYTE	W06
	BYTE		        Ds3  v104
	BYTE	W06
	BYTE		        Dn2  v112
	BYTE	W06
	BYTE		        Dn3  v104
	BYTE	W06
	BYTE		N11    Cn2  v112
	BYTE	W18
	BYTE		N05    Cn2  v104
	BYTE	W06
	BYTE		        Cn3 
	BYTE	W06
	BYTE		        Cn2  v112
	BYTE	W12
	BYTE		        Cn2  v104
	BYTE	W06
// 027   ----------------------------------------
	BYTE		        Cn2  v112
	BYTE	W06
	BYTE		        Cn3  v104
	BYTE	W06
	BYTE		N11    Cn2  v112
	BYTE	W12
	BYTE		N05    Cn3  v104
	BYTE	W06
	BYTE		        Cn2  v112
	BYTE	W12
	BYTE		        Cn3  v104
	BYTE	W06
	BYTE		N11    Fn2  v112
	BYTE	W18
	BYTE		N05    Fn2  v104
	BYTE	W06
	BYTE		        Fn3 
	BYTE	W06
	BYTE		        Fn2  v112
	BYTE	W12
	BYTE		        Fn2  v104
	BYTE	W06
// 028   ----------------------------------------
	BYTE		        Fn2  v112
	BYTE	W06
	BYTE		        Fn3  v104
	BYTE	W06
	BYTE		N11    Fn2  v112
	BYTE	W12
	BYTE		N05    Fn3  v104
	BYTE	W06
	BYTE		        Fn2  v112
	BYTE	W12
	BYTE		        Fn3  v104
	BYTE	W06
	BYTE		N11    Fn2  v112
	BYTE	W18
	BYTE		N05    Fn2  v104
	BYTE	W06
	BYTE		        Fn3 
	BYTE	W06
	BYTE		        Fn2  v112
	BYTE	W12
	BYTE		        Fn2  v104
	BYTE	W06
// 029   ----------------------------------------
	BYTE		        Fn2  v112
	BYTE	W06
	BYTE		        Fn3  v104
	BYTE	W06
	BYTE		N11    Fn2  v112
	BYTE	W12
	BYTE		N05    Fn3  v104
	BYTE	W06
	BYTE		        Fn2  v112
	BYTE	W12
	BYTE		        Fn3  v104
	BYTE	W06
	BYTE		N11    Gn2  v112
	BYTE	W18
	BYTE		N05    Gn2  v104
	BYTE	W06
	BYTE		        Gn3 
	BYTE	W06
	BYTE		        Gn2  v112
	BYTE	W12
	BYTE		        Gn2  v104
	BYTE	W06
// 030   ----------------------------------------
	BYTE		        Gn2  v112
	BYTE	W06
	BYTE		        Gn3  v104
	BYTE	W06
	BYTE		        Fn2  v112
	BYTE	W06
	BYTE		        Fn3  v104
	BYTE	W06
	BYTE		        Ds2  v112
	BYTE	W06
	BYTE		        Ds3  v104
	BYTE	W06
	BYTE		        Dn2  v112
	BYTE	W06
	BYTE		        Dn3  v104
	BYTE	W06
	BYTE		N11    Gn2  v112
	BYTE	W18
	BYTE		N05    Gn2  v104
	BYTE	W06
	BYTE		        Gn3 
	BYTE	W06
	BYTE		        Gn2 
	BYTE	W12
	BYTE		N05   
	BYTE	W06
// 031   ----------------------------------------
	BYTE		        Gn2  v112
	BYTE	W06
	BYTE		        Gn3  v104
	BYTE	W06
	BYTE		N11    Gn2  v112
	BYTE	W12
	BYTE		N05    Gn3  v104
	BYTE	W06
	BYTE		        Gn2 
	BYTE	W12
	BYTE		        Gn3 
	BYTE	W06
	BYTE		        Bn1  v112
	BYTE	W06
	BYTE		        Bn1  v104
	BYTE	W06
	BYTE		        Bn1  v112
	BYTE	W18
	BYTE		        Gn1 
	BYTE	W12
	BYTE		N05   
	BYTE	W06
// 032   ----------------------------------------
	BYTE	W24
	BYTE		N02    Dn3 
	BYTE	W03
	BYTE		        Cn3  v100
	BYTE	W03
	BYTE		        Bn2  v112
	BYTE	W03
	BYTE		        An2  v100
	BYTE	W03
	BYTE		        Gn2  v112
	BYTE	W03
	BYTE		        Fn2  v100
	BYTE	W03
	BYTE		        En2  v104
	BYTE	W03
	BYTE		        Dn2  v092
	BYTE	W03
	BYTE		N05    Cn2  v112
	BYTE	W18
	BYTE		N05   
	BYTE	W18
	BYTE		N05   
	BYTE	W12
// 033   ----------------------------------------
	BYTE	PATT
	 POIN2	GameCorner_3_001
// 034   ----------------------------------------
	BYTE	PATT
	 POIN2	GameCorner_3_001
// 035   ----------------------------------------
	BYTE	PATT
	 POIN2	GameCorner_3_001
// 036   ----------------------------------------
	BYTE	PATT
	 POIN2	GameCorner_3_004
// 037   ----------------------------------------
	BYTE	PATT
	 POIN2	GameCorner_3_001
// 038   ----------------------------------------
	BYTE	PATT
	 POIN2	GameCorner_3_006
// 039   ----------------------------------------
	BYTE	PATT
	 POIN2	GameCorner_3_001
// 040   ----------------------------------------
	BYTE	PATT
	 POIN2	GameCorner_3_004
// 041   ----------------------------------------
	BYTE	PATT
	 POIN2	GameCorner_3_001
// 042   ----------------------------------------
	BYTE	PATT
	 POIN2	GameCorner_3_001
// 043   ----------------------------------------
	BYTE		N05    Cn2  v112
	BYTE	W96
// 044   ----------------------------------------
	BYTE	W48
	BYTE	GoTo
	 POIN2	GameCorner_3_B1
GameCorner_3_B2:
	BYTE	W11
	BYTE	FINE

//**************** Track 4 (Midi-Chn.4) ****************//

GameCorner_4:
	BYTE	KEYSH  GameCorner_key+0
// 000   ----------------------------------------
	BYTE		VOICE  13
	BYTE		PAN    c_v-20
	BYTE		VOL    65*GameCorner_mvl/mxv
	BYTE		MOD    0
	BYTE	W48
GameCorner_4_B1:
	BYTE		N05    Cn3  v088
	BYTE	W06
	BYTE		        Cn4  v084
	BYTE	W06
	BYTE		        Gn4  v092
	BYTE	W06
	BYTE		        Cn3  v088
	BYTE	W06
	BYTE		        Cn4  v084
	BYTE	W06
	BYTE		        Gn4  v092
	BYTE	W06
	BYTE		        Cn3  v088
	BYTE	W06
	BYTE		        Cn4  v084
	BYTE	W06
// 001   ----------------------------------------
GameCorner_4_001:
	BYTE		N05    Gn4  v092
	BYTE	W06
	BYTE		        Cn3  v088
	BYTE	W06
	BYTE		        Cn4  v084
	BYTE	W06
	BYTE		        An4  v092
	BYTE	W06
	BYTE		        Cn3  v088
	BYTE	W06
	BYTE		        Cn4  v084
	BYTE	W06
	BYTE		N11    An4  v092
	BYTE	W12
	BYTE		N05    Cn3  v088
	BYTE	W06
	BYTE		        Cn4  v084
	BYTE	W06
	BYTE		        Gn4  v092
	BYTE	W06
	BYTE		        Cn3  v088
	BYTE	W06
	BYTE		        Cn4  v084
	BYTE	W06
	BYTE		        Gn4  v092
	BYTE	W06
	BYTE		        Cn3  v088
	BYTE	W06
	BYTE		        Cn4  v084
	BYTE	W06
	BYTE	PEND
// 002   ----------------------------------------
GameCorner_4_002:
	BYTE		N05    As4  v092
	BYTE	W06
	BYTE		        Cn4  v088
	BYTE	W06
	BYTE		        An4  v092
	BYTE	W06
	BYTE		        Cn4  v084
	BYTE	W06
	BYTE		        Gn4  v092
	BYTE	W06
	BYTE		N17    An4 
	BYTE	W18
	BYTE		N05    Cn3  v088
	BYTE	W06
	BYTE		        Cn4  v084
	BYTE	W06
	BYTE		        Gn4  v092
	BYTE	W06
	BYTE		        Cn3  v088
	BYTE	W06
	BYTE		        Cn4  v084
	BYTE	W06
	BYTE		        Gn4  v092
	BYTE	W06
	BYTE		        Cn3  v088
	BYTE	W06
	BYTE		        Cn4  v084
	BYTE	W06
	BYTE	PEND
// 003   ----------------------------------------
GameCorner_4_003:
	BYTE		N05    Gn4  v092
	BYTE	W06
	BYTE		        Cn3  v088
	BYTE	W06
	BYTE		        Cn4  v084
	BYTE	W06
	BYTE		        An4  v092
	BYTE	W06
	BYTE		        Cn3  v088
	BYTE	W06
	BYTE		        Cn4  v084
	BYTE	W06
	BYTE		        An4  v092
	BYTE	W06
	BYTE		        Cn4  v084
	BYTE	W06
	BYTE		        Cn3  v088
	BYTE	W06
	BYTE		        Cn4  v084
	BYTE	W06
	BYTE		        Gn4  v092
	BYTE	W06
	BYTE		        Cn3  v088
	BYTE	W06
	BYTE		        Cn4  v084
	BYTE	W06
	BYTE		        Gn4  v092
	BYTE	W06
	BYTE		        Cn3  v088
	BYTE	W06
	BYTE		        Cn4  v084
	BYTE	W06
	BYTE	PEND
// 004   ----------------------------------------
GameCorner_4_004:
	BYTE		N05    As4  v092
	BYTE	W06
	BYTE		        Cn4  v088
	BYTE	W06
	BYTE		        An4  v092
	BYTE	W06
	BYTE		        Cn4  v084
	BYTE	W06
	BYTE		        Gn4  v092
	BYTE	W06
	BYTE		N11    An4 
	BYTE	W12
	BYTE		N05    Cn4  v084
	BYTE	W06
	BYTE		        Cn3  v088
	BYTE	W06
	BYTE		        Cn4  v084
	BYTE	W06
	BYTE		        Gn4  v092
	BYTE	W06
	BYTE		        Cn3  v088
	BYTE	W06
	BYTE		        Cn4  v084
	BYTE	W06
	BYTE		        Gn4  v092
	BYTE	W06
	BYTE		        Cn3  v088
	BYTE	W06
	BYTE		        Cn4  v084
	BYTE	W06
	BYTE	PEND
// 005   ----------------------------------------
GameCorner_4_005:
	BYTE		N05    Gn4  v092
	BYTE	W06
	BYTE		        Cn3  v088
	BYTE	W06
	BYTE		        Cn4  v084
	BYTE	W06
	BYTE		        An4  v092
	BYTE	W06
	BYTE		        Cn3  v088
	BYTE	W06
	BYTE		        Cn4  v084
	BYTE	W06
	BYTE		        An4  v092
	BYTE	W12
	BYTE		        Cn3  v088
	BYTE	W06
	BYTE		        Cn4  v084
	BYTE	W06
	BYTE		        Gn4  v092
	BYTE	W06
	BYTE		        Cn3  v088
	BYTE	W06
	BYTE		        Cn4  v084
	BYTE	W06
	BYTE		        Gn4  v092
	BYTE	W06
	BYTE		        Cn3  v088
	BYTE	W06
	BYTE		        Cn4  v084
	BYTE	W06
	BYTE	PEND
// 006   ----------------------------------------
GameCorner_4_006:
	BYTE		N05    As4  v092
	BYTE	W06
	BYTE		        Cn3  v088
	BYTE	W06
	BYTE		        Cn4  v084
	BYTE	W06
	BYTE		        Cn5  v092
	BYTE	W06
	BYTE		        Cn3  v088
	BYTE	W06
	BYTE		        An4  v092
	BYTE	W06
	BYTE		        Cn4  v084
	BYTE	W12
	BYTE		        Cn3  v088
	BYTE	W06
	BYTE		        Cn4  v084
	BYTE	W06
	BYTE		        Gn4  v092
	BYTE	W06
	BYTE		        Cn3  v088
	BYTE	W06
	BYTE		        Cn4  v084
	BYTE	W06
	BYTE		        Gn4  v092
	BYTE	W06
	BYTE		        Cn3  v088
	BYTE	W06
	BYTE		        Cn4  v084
	BYTE	W06
	BYTE	PEND
// 007   ----------------------------------------
GameCorner_4_007:
	BYTE		N05    Gn4  v092
	BYTE	W06
	BYTE		        Cn3  v088
	BYTE	W06
	BYTE		        Cn4  v084
	BYTE	W06
	BYTE		        An4  v092
	BYTE	W06
	BYTE		        Cn3  v088
	BYTE	W06
	BYTE		        Cn4  v084
	BYTE	W06
	BYTE		        An4  v092
	BYTE	W12
	BYTE		        Cn3  v088
	BYTE	W06
	BYTE		        Cn4  v084
	BYTE	W06
	BYTE		        Gn4  v092
	BYTE	W06
	BYTE		        Cn3  v088
	BYTE	W06
	BYTE		        Cn4  v084
	BYTE	W06
	BYTE		        Gn4  v092
	BYTE	W06
	BYTE		        Cn3  v088
	BYTE	W06
	BYTE		        As4  v092
	BYTE	W06
	BYTE	PEND
// 008   ----------------------------------------
GameCorner_4_008:
	BYTE		N05    Cn4  v084
	BYTE	W06
	BYTE		        Cn3  v088
	BYTE	W06
	BYTE		        Cn5  v092
	BYTE	W06
	BYTE		        Cn4  v084
	BYTE	W06
	BYTE		        Cn3  v088
	BYTE	W06
	BYTE		        An4  v092
	BYTE	W06
	BYTE		N11    Cn4  v084
	BYTE	W12
	BYTE		N05    Cn3  v088
	BYTE	W06
	BYTE		        Cn4  v084
	BYTE	W06
	BYTE		        Gn4  v092
	BYTE	W06
	BYTE		        Cn3  v088
	BYTE	W06
	BYTE		        Cn4  v084
	BYTE	W06
	BYTE		        Gn4  v092
	BYTE	W06
	BYTE		        Cn3  v088
	BYTE	W06
	BYTE		        Cn4  v084
	BYTE	W06
	BYTE	PEND
// 009   ----------------------------------------
	BYTE	PATT
	 POIN2	GameCorner_4_005
// 010   ----------------------------------------
	BYTE	PATT
	 POIN2	GameCorner_4_006
// 011   ----------------------------------------
GameCorner_4_011:
	BYTE		N05    Gn4  v092
	BYTE	W06
	BYTE		        Cn3  v088
	BYTE	W06
	BYTE		        Cn4  v084
	BYTE	W06
	BYTE		        An4  v092
	BYTE	W06
	BYTE		        Cn3  v088
	BYTE	W06
	BYTE		        Cn4  v084
	BYTE	W06
	BYTE		        An4  v092
	BYTE	W60
	BYTE	PEND
// 012   ----------------------------------------
GameCorner_4_012:
	BYTE	W48
	BYTE		N05    Cn3  v088
	BYTE	W06
	BYTE		        Cn4  v084
	BYTE	W06
	BYTE		        Gn4  v092
	BYTE	W06
	BYTE		        Cn3  v088
	BYTE	W06
	BYTE		        Cn4  v084
	BYTE	W06
	BYTE		        Gn4  v092
	BYTE	W06
	BYTE		        Cn3  v088
	BYTE	W06
	BYTE		        Cn4  v084
	BYTE	W06
	BYTE	PEND
// 013   ----------------------------------------
	BYTE	PATT
	 POIN2	GameCorner_4_005
// 014   ----------------------------------------
	BYTE	PATT
	 POIN2	GameCorner_4_002
// 015   ----------------------------------------
	BYTE	PATT
	 POIN2	GameCorner_4_003
// 016   ----------------------------------------
	BYTE		N05    As4  v092
	BYTE	W06
	BYTE		        Cn4  v088
	BYTE	W06
	BYTE		        An4  v092
	BYTE	W06
	BYTE		        Cn4  v084
	BYTE	W06
	BYTE		        Cn3  v088
	BYTE		N05    Gn4  v092
	BYTE	W06
	BYTE		N11    An4 
	BYTE	W12
	BYTE		N05    Cn4  v084
	BYTE	W06
	BYTE		        Cn3  v088
	BYTE	W06
	BYTE		        Cn4  v084
	BYTE	W06
	BYTE		        Gn4  v092
	BYTE	W06
	BYTE		        Cn3  v088
	BYTE	W06
	BYTE		        Cn4  v084
	BYTE	W06
	BYTE		        Gn4  v092
	BYTE	W06
	BYTE		        Cn3  v088
	BYTE	W06
	BYTE		        Cn4  v084
	BYTE	W06
// 017   ----------------------------------------
	BYTE	PATT
	 POIN2	GameCorner_4_005
// 018   ----------------------------------------
	BYTE	PATT
	 POIN2	GameCorner_4_006
// 019   ----------------------------------------
	BYTE		N05    Gn4  v092
	BYTE	W06
	BYTE		        Cn3  v088
	BYTE	W06
	BYTE		        Cn4  v084
	BYTE	W06
	BYTE		        An4  v092
	BYTE	W06
	BYTE		        Cn3  v088
	BYTE	W06
	BYTE		        Cn4  v084
	BYTE	W06
	BYTE		        An4  v092
	BYTE	W12
	BYTE		        Cn3  v088
	BYTE	W06
	BYTE		        Cn4  v084
	BYTE	W06
	BYTE		        Gn4  v092
	BYTE	W06
	BYTE		        Cn3  v088
	BYTE	W06
	BYTE		        Cn4  v084
	BYTE	W06
	BYTE		        Gn4  v092
	BYTE	W06
	BYTE		        Cn3  v088
	BYTE	W06
	BYTE		        Gn4  v092
	BYTE	W06
// 020   ----------------------------------------
	BYTE		        Cn4  v084
	BYTE	W06
	BYTE		        Cn3  v088
	BYTE	W06
	BYTE		        Fn4  v092
	BYTE	W06
	BYTE		        Cn4  v084
	BYTE	W06
	BYTE		        Gn4  v092
	BYTE	W06
	BYTE		N11    Gn4  v084
	BYTE	W12
	BYTE		N05    Cn4 
	BYTE	W06
	BYTE		        Cn3  v088
	BYTE	W06
	BYTE		        Cn4  v084
	BYTE	W06
	BYTE		        Gn4  v092
	BYTE	W06
	BYTE		        Cn3  v088
	BYTE	W06
	BYTE		        Cn4  v084
	BYTE	W06
	BYTE		        Gn4  v092
	BYTE	W06
	BYTE		        Cn3  v088
	BYTE	W06
	BYTE		        Cn4  v084
	BYTE	W06
// 021   ----------------------------------------
	BYTE	PATT
	 POIN2	GameCorner_4_005
// 022   ----------------------------------------
	BYTE		N05    As4  v092
	BYTE	W06
	BYTE		        Cn3  v088
	BYTE	W06
	BYTE		        Cn4  v084
	BYTE	W06
	BYTE		        Cn5  v092
	BYTE	W06
	BYTE		        Cn3  v088
	BYTE	W06
	BYTE		        An4  v092
	BYTE	W06
	BYTE		N11    Cn4  v084
	BYTE	W12
	BYTE		N05    Cn3  v088
	BYTE	W06
	BYTE		        Cn4  v084
	BYTE	W06
	BYTE		        Gn4  v092
	BYTE	W06
	BYTE		        Cn3  v088
	BYTE	W06
	BYTE		        Cn4  v084
	BYTE	W06
	BYTE		        Gn4  v092
	BYTE	W06
	BYTE		        Cn3  v088
	BYTE	W06
	BYTE		        Cn4  v084
	BYTE	W06
// 023   ----------------------------------------
	BYTE	PATT
	 POIN2	GameCorner_4_007
// 024   ----------------------------------------
	BYTE		N05    Cn4  v084
	BYTE	W06
	BYTE		        Cn3  v088
	BYTE	W06
	BYTE		        Cn5  v092
	BYTE	W06
	BYTE		        Cn4  v084
	BYTE	W06
	BYTE		        Cn3  v088
	BYTE	W06
	BYTE		        An4  v092
	BYTE	W06
	BYTE		        Ds4  v120
	BYTE	W06
	BYTE		        Fn4  v112
	BYTE	W06
	BYTE		N32    Gn4  v127
	BYTE	W36
	BYTE		        Fn4 
	BYTE	W12
// 025   ----------------------------------------
	BYTE	W24
	BYTE		N23    Cn4 
	BYTE	W24
	BYTE		N32    Dn4 
	BYTE	W36
	BYTE		        Ds4  v124
	BYTE	W12
// 026   ----------------------------------------
	BYTE	W24
	BYTE		N23    Fn4  v127
	BYTE	W24
	BYTE		N32    Dn4 
	BYTE	W36
	BYTE		        Cn4  v124
	BYTE	W12
// 027   ----------------------------------------
	BYTE	W24
	BYTE		N23    As3  v120
	BYTE	W24
	BYTE		N44    An3  v124
	BYTE	W48
// 028   ----------------------------------------
	BYTE	W96
// 029   ----------------------------------------
	BYTE	W96
// 030   ----------------------------------------
	BYTE	W96
// 031   ----------------------------------------
	BYTE	W96
// 032   ----------------------------------------
	BYTE	PATT
	 POIN2	GameCorner_4_012
// 033   ----------------------------------------
	BYTE	PATT
	 POIN2	GameCorner_4_001
// 034   ----------------------------------------
	BYTE	PATT
	 POIN2	GameCorner_4_002
// 035   ----------------------------------------
	BYTE	PATT
	 POIN2	GameCorner_4_003
// 036   ----------------------------------------
	BYTE	PATT
	 POIN2	GameCorner_4_004
// 037   ----------------------------------------
	BYTE	PATT
	 POIN2	GameCorner_4_005
// 038   ----------------------------------------
	BYTE	PATT
	 POIN2	GameCorner_4_006
// 039   ----------------------------------------
	BYTE	PATT
	 POIN2	GameCorner_4_007
// 040   ----------------------------------------
	BYTE	PATT
	 POIN2	GameCorner_4_008
// 041   ----------------------------------------
	BYTE	PATT
	 POIN2	GameCorner_4_005
// 042   ----------------------------------------
	BYTE	PATT
	 POIN2	GameCorner_4_006
// 043   ----------------------------------------
	BYTE	PATT
	 POIN2	GameCorner_4_011
// 044   ----------------------------------------
	BYTE	W48
	BYTE	GoTo
	 POIN2	GameCorner_4_B1
GameCorner_4_B2:
	BYTE	W11
	BYTE	FINE

//**************** Track 5 (Midi-Chn.5) ****************//

GameCorner_5:
	BYTE	KEYSH  GameCorner_key+0
// 000   ----------------------------------------
	BYTE		VOICE  48
	BYTE		PAN    c_v+18
	BYTE		VOL    43*GameCorner_mvl/mxv
	BYTE		MOD    0
	BYTE	W48
GameCorner_5_B1:
	BYTE		N05    Ds3  v092
	BYTE		N05    Cn4  v100
	BYTE	W18
	BYTE		        Ds3  v084
	BYTE		N05    Cn4  v092
	BYTE	W18
	BYTE		        Ds3  v088
	BYTE		N05    Cn4  v096
	BYTE	W12
// 001   ----------------------------------------
GameCorner_5_001:
	BYTE		N05    Ds3  v092
	BYTE		N05    Cn4  v100
	BYTE	W48
	BYTE		        Ds3  v092
	BYTE		N05    Cn4  v100
	BYTE	W18
	BYTE		        Ds3  v092
	BYTE		N05    Cn4  v100
	BYTE	W18
	BYTE		        Ds3  v092
	BYTE		N05    Cn4  v100
	BYTE	W12
	BYTE	PEND
// 002   ----------------------------------------
GameCorner_5_002:
	BYTE		N05    Cn3  v100
	BYTE		N05    Cn4  v108
	BYTE	W06
	BYTE		        Gn2  v100
	BYTE		N05    Gn3  v108
	BYTE	W06
	BYTE		        Cn3  v100
	BYTE		N05    Cn4  v108
	BYTE	W06
	BYTE		        Fn3  v100
	BYTE		N05    Fn4  v108
	BYTE	W06
	BYTE		        Cn3  v100
	BYTE		N05    Cn4  v108
	BYTE	W06
	BYTE		        An3  v100
	BYTE		N05    An4  v108
	BYTE	W06
	BYTE		        Cn4 
	BYTE		N05    Cn5  v112
	BYTE	W06
	BYTE		        Fn4  v108
	BYTE		N05    Fn5  v112
	BYTE	W06
	BYTE		        Ds3  v092
	BYTE		N05    Cn4  v100
	BYTE	W18
	BYTE		        Ds3  v084
	BYTE		N05    Cn4  v092
	BYTE	W18
	BYTE		        Ds3  v088
	BYTE		N05    Cn4  v096
	BYTE	W12
	BYTE	PEND
// 003   ----------------------------------------
GameCorner_5_003:
	BYTE		N05    Ds3  v092
	BYTE		N05    Cn4  v100
	BYTE	W48
	BYTE		        Ds3  v092
	BYTE		N05    Cn4  v100
	BYTE	W18
	BYTE		        Ds3  v084
	BYTE		N05    Cn4  v092
	BYTE	W18
	BYTE		        Ds3  v088
	BYTE		N05    Cn4  v096
	BYTE	W12
	BYTE	PEND
// 004   ----------------------------------------
	BYTE	PATT
	 POIN2	GameCorner_5_002
// 005   ----------------------------------------
GameCorner_5_005:
	BYTE		N05    Ds3  v092
	BYTE		N05    Cn4  v100
	BYTE	W12
	BYTE		        Ds3  v092
	BYTE		N05    Cn4  v100
	BYTE	W12
	BYTE		        Ds3  v092
	BYTE		N05    Dn4  v100
	BYTE	W12
	BYTE		        Ds3  v092
	BYTE		N05    Ds4  v100
	BYTE	W12
	BYTE		        Ds3  v092
	BYTE		N05    Cn4  v100
	BYTE	W18
	BYTE		        Ds3  v092
	BYTE		N05    Cn4  v100
	BYTE	W18
	BYTE		        Ds3  v092
	BYTE		N05    Cn4  v100
	BYTE	W12
	BYTE	PEND
// 006   ----------------------------------------
GameCorner_5_006:
	BYTE		N05    Ds3  v092
	BYTE		N05    Cn4  v100
	BYTE	W12
	BYTE		        Ds3  v092
	BYTE		N05    Cn4  v100
	BYTE	W12
	BYTE		        Ds3  v092
	BYTE		N05    Dn4  v100
	BYTE	W12
	BYTE		        Ds3  v092
	BYTE		N05    As3  v100
	BYTE	W12
	BYTE		        Ds3  v092
	BYTE		N05    Cn4  v100
	BYTE	W18
	BYTE		        Ds3  v084
	BYTE		N05    Cn4  v092
	BYTE	W18
	BYTE		        Ds3  v088
	BYTE		N05    Cn4  v096
	BYTE	W12
	BYTE	PEND
// 007   ----------------------------------------
GameCorner_5_007:
	BYTE		N05    Ds3  v092
	BYTE		N05    Cn4  v100
	BYTE	W12
	BYTE		        Ds3  v092
	BYTE		N05    Cn4  v100
	BYTE	W12
	BYTE		        Ds3  v092
	BYTE		N05    Dn4  v100
	BYTE	W12
	BYTE		        Ds3  v092
	BYTE		N05    Ds4  v100
	BYTE	W12
	BYTE		        Ds3  v092
	BYTE		N05    Cn4  v100
	BYTE	W18
	BYTE		        Ds3  v084
	BYTE		N05    Cn4  v092
	BYTE	W18
	BYTE		        Ds3  v088
	BYTE		N05    Cn4  v096
	BYTE	W12
	BYTE	PEND
// 008   ----------------------------------------
	BYTE		        Ds3  v092
	BYTE		N05    Cn4  v100
	BYTE	W12
	BYTE		        Ds3  v092
	BYTE		N05    Cn4  v100
	BYTE	W12
	BYTE		        Fn3  v092
	BYTE		N05    Dn4  v100
	BYTE	W12
	BYTE		        Ds3  v092
	BYTE		N05    As3  v100
	BYTE	W12
	BYTE		        Ds3  v092
	BYTE		N05    Cn4  v100
	BYTE	W18
	BYTE		        Ds3  v084
	BYTE		N05    Cn4  v092
	BYTE	W18
	BYTE		        Ds3  v088
	BYTE		N05    Cn4  v096
	BYTE	W12
// 009   ----------------------------------------
	BYTE	PATT
	 POIN2	GameCorner_5_005
// 010   ----------------------------------------
GameCorner_5_010:
	BYTE		N05    Ds3  v092
	BYTE		N05    Cn4  v100
	BYTE	W12
	BYTE		        Ds3  v092
	BYTE		N05    Cn4  v100
	BYTE	W12
	BYTE		        Fn3  v092
	BYTE		N05    Dn4  v100
	BYTE	W12
	BYTE		        Dn3  v092
	BYTE		N05    As3  v100
	BYTE	W12
	BYTE		        Ds3  v092
	BYTE		N05    Cn4  v100
	BYTE	W18
	BYTE		        Ds3  v084
	BYTE		N05    Cn4  v092
	BYTE	W18
	BYTE		        Ds3  v088
	BYTE		N05    Cn4  v096
	BYTE	W12
	BYTE	PEND
// 011   ----------------------------------------
GameCorner_5_011:
	BYTE		N05    Ds3  v092
	BYTE		N05    Cn4  v100
	BYTE	W12
	BYTE		        Ds3  v092
	BYTE		N05    Cn4  v100
	BYTE	W12
	BYTE		        Ds3  v092
	BYTE		N05    Dn4  v100
	BYTE	W12
	BYTE		        Ds3  v092
	BYTE		N05    Ds4  v100
	BYTE	W60
	BYTE	PEND
// 012   ----------------------------------------
	BYTE	W48
	BYTE		        Ds3  v092
	BYTE		N05    Cn4  v100
	BYTE	W18
	BYTE		        Ds3  v084
	BYTE		N05    Cn4  v092
	BYTE	W18
	BYTE		        Ds3  v088
	BYTE		N05    Cn4  v096
	BYTE	W12
// 013   ----------------------------------------
	BYTE	PATT
	 POIN2	GameCorner_5_001
// 014   ----------------------------------------
GameCorner_5_014:
	BYTE		N05    Cn3  v100
	BYTE		N05    Cn4  v108
	BYTE	W06
	BYTE		        Gn2  v100
	BYTE		N05    Gn3  v108
	BYTE	W06
	BYTE		        Cn3  v100
	BYTE		N05    Cn4  v108
	BYTE	W06
	BYTE		        Fn3  v100
	BYTE		N05    Fn4  v108
	BYTE	W06
	BYTE		        Cn3  v100
	BYTE		N05    Cn4  v108
	BYTE	W06
	BYTE		        An3  v100
	BYTE		N05    An4  v108
	BYTE	W06
	BYTE		        Cn4  v100
	BYTE		N05    Cn5  v108
	BYTE	W06
	BYTE		        Fn4  v100
	BYTE		N05    Fn5  v108
	BYTE	W06
	BYTE		        Ds3  v092
	BYTE		N05    Cn4  v100
	BYTE	W18
	BYTE		        Ds3  v084
	BYTE		N05    Cn4  v092
	BYTE	W18
	BYTE		        Ds3  v088
	BYTE		N05    Cn4  v096
	BYTE	W12
	BYTE	PEND
// 015   ----------------------------------------
	BYTE	PATT
	 POIN2	GameCorner_5_003
// 016   ----------------------------------------
	BYTE	PATT
	 POIN2	GameCorner_5_014
// 017   ----------------------------------------
	BYTE	PATT
	 POIN2	GameCorner_5_001
// 018   ----------------------------------------
	BYTE		N05    Gn3  v092
	BYTE		N05    Ds4  v100
	BYTE	W12
	BYTE		        Fn3  v092
	BYTE		N05    Dn4  v100
	BYTE	W12
	BYTE		        Ds3  v092
	BYTE		N05    Cn4  v100
	BYTE	W06
	BYTE		N14    Fn3  v092
	BYTE		N14    Dn4  v100
	BYTE	W18
	BYTE		N05    Ds3  v092
	BYTE		N05    Cn4  v100
	BYTE	W18
	BYTE		        Ds3  v084
	BYTE		N05    Cn4  v092
	BYTE	W18
	BYTE		        Ds3  v088
	BYTE		N05    Cn4  v096
	BYTE	W12
// 019   ----------------------------------------
	BYTE	PATT
	 POIN2	GameCorner_5_003
// 020   ----------------------------------------
	BYTE		N05    Gn3  v092
	BYTE		N05    Ds4  v100
	BYTE	W12
	BYTE		        Fn3  v092
	BYTE		N05    Dn4  v100
	BYTE	W12
	BYTE		        Gn3  v092
	BYTE		N05    Ds4  v100
	BYTE	W06
	BYTE		N14    As3  v088
	BYTE		N14    Fn4  v100
	BYTE	W18
	BYTE		N05    Ds3  v092
	BYTE		N05    Cn4  v100
	BYTE	W18
	BYTE		        Ds3  v084
	BYTE		N05    Cn4  v092
	BYTE	W18
	BYTE		        Ds3  v088
	BYTE		N05    Cn4  v096
	BYTE	W12
// 021   ----------------------------------------
	BYTE		        Ds3  v092
	BYTE		N05    Cn4  v100
	BYTE	W48
	BYTE		        Ds3  v092
	BYTE		N05    Cn4  v100
	BYTE	W18
	BYTE		        Ds3  v092
	BYTE		N05    Cn4  v100
	BYTE	W18
	BYTE		        Gn3  v092
	BYTE		N05    Ds4  v100
	BYTE	W12
// 022   ----------------------------------------
	BYTE		        Gn3  v092
	BYTE		N05    Ds4  v100
	BYTE	W12
	BYTE		        Fn3  v092
	BYTE		N05    Dn4  v100
	BYTE	W12
	BYTE		        Ds3  v092
	BYTE		N05    Cn4  v100
	BYTE	W06
	BYTE		N11    Fn3  v092
	BYTE		N11    Dn4  v100
	BYTE	W18
	BYTE		N05    Ds3  v092
	BYTE		N05    Cn4  v100
	BYTE	W18
	BYTE		        Ds3  v084
	BYTE		N05    Cn4  v092
	BYTE	W18
	BYTE		        Ds3  v088
	BYTE		N05    Cn4  v096
	BYTE	W12
// 023   ----------------------------------------
	BYTE		        Ds3  v092
	BYTE		N05    Cn4  v100
	BYTE	W48
	BYTE		        Ds3  v092
	BYTE		N05    Cn4  v100
	BYTE	W18
	BYTE		        Ds3  v084
	BYTE		N05    Cn4  v092
	BYTE	W12
	BYTE		        Gn3  v080
	BYTE		N05    Ds4  v088
	BYTE	W12
	BYTE		N02    Gn3  v040
	BYTE		N02    Ds4  v048
	BYTE	W06
// 024   ----------------------------------------
	BYTE		N11    Gn3  v088
	BYTE		N11    Ds4  v096
	BYTE	W12
	BYTE		        Fn3  v088
	BYTE		N11    Dn4  v096
	BYTE	W12
	BYTE		N03    As2  v088
	BYTE		N03    Gn3  v096
	BYTE	W03
	BYTE		        Cn3  v088
	BYTE		N03    Gs3  v096
	BYTE	W03
	BYTE		VOL    70*GameCorner_mvl/mxv
	BYTE		N03    Dn3 
	BYTE		N03    As3  v108
	BYTE	W04
	BYTE		        Ds3  v096
	BYTE		N03    Cn4  v108
	BYTE	W03
	BYTE		        Fn3 
	BYTE		N03    Dn4  v116
	BYTE	W04
	BYTE		        Gn3  v108
	BYTE		N03    Ds4  v116
	BYTE	W03
	BYTE		        An3 
	BYTE		N03    Fn4  v127
	BYTE	W04
	BYTE		N32    As3  v108
	BYTE		N32    Gn4  v116
	BYTE	W36
	BYTE		        Gs3  v108
	BYTE		N32    Fn4  v116
	BYTE	W12
// 025   ----------------------------------------
	BYTE	W24
	BYTE		N23    Fn3  v108
	BYTE		N23    Cn4  v116
	BYTE	W24
	BYTE		N32    Fn3  v108
	BYTE		N32    Dn4  v116
	BYTE	W36
	BYTE		        Gn3  v108
	BYTE		N32    Ds4  v116
	BYTE	W12
// 026   ----------------------------------------
	BYTE	W24
	BYTE		N23    As3  v108
	BYTE		N23    Fn4  v116
	BYTE	W24
	BYTE		N32    Fn3  v108
	BYTE		N32    Dn4  v116
	BYTE	W36
	BYTE		        Ds3  v108
	BYTE		N32    Cn4  v116
	BYTE	W12
// 027   ----------------------------------------
	BYTE	W24
	BYTE		N23    Dn3  v108
	BYTE		N23    As3  v116
	BYTE	W24
	BYTE		N56    Cn3  v108
	BYTE		N56    An3  v116
	BYTE	W48
// 028   ----------------------------------------
	BYTE	W96
// 029   ----------------------------------------
	BYTE	W96
// 030   ----------------------------------------
	BYTE	W96
// 031   ----------------------------------------
	BYTE	W96
// 032   ----------------------------------------
	BYTE		VOL    35*GameCorner_mvl/mxv
	BYTE	W48
	BYTE		N05    Ds3  v092
	BYTE		N05    Cn4  v100
	BYTE	W18
	BYTE		        Ds3  v084
	BYTE		N05    Cn4  v092
	BYTE	W18
	BYTE		        Ds3  v088
	BYTE		N05    Cn4  v096
	BYTE	W12
// 033   ----------------------------------------
	BYTE	PATT
	 POIN2	GameCorner_5_001
// 034   ----------------------------------------
	BYTE	PATT
	 POIN2	GameCorner_5_002
// 035   ----------------------------------------
	BYTE	PATT
	 POIN2	GameCorner_5_003
// 036   ----------------------------------------
	BYTE	PATT
	 POIN2	GameCorner_5_002
// 037   ----------------------------------------
	BYTE	PATT
	 POIN2	GameCorner_5_005
// 038   ----------------------------------------
	BYTE	PATT
	 POIN2	GameCorner_5_006
// 039   ----------------------------------------
	BYTE	PATT
	 POIN2	GameCorner_5_007
// 040   ----------------------------------------
	BYTE		N05    Ds3  v092
	BYTE		N05    Cn4  v100
	BYTE	W12
	BYTE		        Ds3  v092
	BYTE		N05    Cn4  v100
	BYTE	W12
	BYTE		        En3  v092
	BYTE		N05    Dn4  v100
	BYTE	W12
	BYTE		        Ds3  v092
	BYTE		N05    As3  v100
	BYTE	W12
	BYTE		        Ds3  v092
	BYTE		N05    Cn4  v100
	BYTE	W18
	BYTE		        Ds3  v084
	BYTE		N05    Cn4  v092
	BYTE	W18
	BYTE		        Ds3  v088
	BYTE		N05    Cn4  v096
	BYTE	W12
// 041   ----------------------------------------
	BYTE	PATT
	 POIN2	GameCorner_5_005
// 042   ----------------------------------------
	BYTE	PATT
	 POIN2	GameCorner_5_010
// 043   ----------------------------------------
	BYTE	PATT
	 POIN2	GameCorner_5_011
// 044   ----------------------------------------
	BYTE	W48
	BYTE	GoTo
	 POIN2	GameCorner_5_B1
GameCorner_5_B2:
	BYTE	W11
	BYTE	FINE

//**************** Track 6 (Midi-Chn.6) ****************//

GameCorner_6:
	BYTE	KEYSH  GameCorner_key+0
// 000   ----------------------------------------
	BYTE		VOICE  127
	BYTE		VOL    79*GameCorner_mvl/mxv
	BYTE		PAN    c_v-1
	BYTE		MOD    0
	BYTE		N05    Cn1  v100
	BYTE		N03    Dn1  v076
	BYTE		N23    As2  v112
	BYTE	W04
	BYTE		N03    Dn1  v088
	BYTE	W04
	BYTE		        Dn1  v096
	BYTE	W04
	BYTE		N05    Dn1  v108
	BYTE	W06
	BYTE		        Dn1  v116
	BYTE	W06
	BYTE		        Cn1  v120
	BYTE		N02    Bn1  v108
	BYTE	W03
	BYTE		        Bn1  v088
	BYTE	W03
	BYTE		N05    Bn1  v104
	BYTE	W06
	BYTE		N03    Cn1  v120
	BYTE		N05    An1  v088
	BYTE	W06
	BYTE		N03    Cn1  v120
	BYTE		N05    Fn1  v104
	BYTE	W06
GameCorner_6_B1:
	BYTE		N05    Cn1  v120
	BYTE		N23    Cs2  v112
	BYTE	W18
	BYTE		N05    Cn1  v100
	BYTE	W18
	BYTE		        Cn1  v112
	BYTE	W12
// 001   ----------------------------------------
GameCorner_6_001:
	BYTE		N05    Cn1  v120
	BYTE	W24
	BYTE		N11    Dn1  v112
	BYTE	W24
	BYTE		N05    Cn1  v120
	BYTE	W18
	BYTE		        Cn1  v100
	BYTE	W18
	BYTE		        Cn1  v120
	BYTE	W12
	BYTE	PEND
// 002   ----------------------------------------
GameCorner_6_002:
	BYTE		N05    Cn1  v120
	BYTE	W24
	BYTE		N11    Dn1  v112
	BYTE	W18
	BYTE		N05    Cn1  v100
	BYTE	W06
	BYTE		        Cn1  v120
	BYTE		N23    Cs2  v112
	BYTE	W18
	BYTE		N05    Cn1  v100
	BYTE	W18
	BYTE		        Cn1  v112
	BYTE	W12
	BYTE	PEND
// 003   ----------------------------------------
	BYTE		        Cn1  v120
	BYTE	W24
	BYTE		N11    Dn1  v112
	BYTE	W24
	BYTE		N05    Cn1  v120
	BYTE	W06
	BYTE		        Cn1  v100
	BYTE	W06
	BYTE		        Dn1 
	BYTE	W06
	BYTE		        Cn1 
	BYTE	W12
	BYTE		N11    Dn1 
	BYTE	W12
	BYTE		N05    Cn1 
	BYTE	W06
// 004   ----------------------------------------
	BYTE		        Cn1  v120
	BYTE	W06
	BYTE		        Cn1  v100
	BYTE	W06
	BYTE		N11    Dn1  v112
	BYTE	W12
	BYTE		N05    Cn1  v120
	BYTE	W06
	BYTE		        Cn1  v100
	BYTE	W06
	BYTE		        An1  v108
	BYTE	W06
	BYTE		        Fn1  v100
	BYTE	W06
	BYTE		        Cn1  v120
	BYTE		N23    Cs2  v112
	BYTE	W18
	BYTE		N05    Cn1  v100
	BYTE	W18
	BYTE		        Cn1  v112
	BYTE	W12
// 005   ----------------------------------------
	BYTE		        Cn1  v120
	BYTE	W24
	BYTE		N11    Dn1  v112
	BYTE	W24
	BYTE		N05    Cn1  v120
	BYTE	W06
	BYTE		        Cn1  v100
	BYTE	W06
	BYTE		N11    Dn1  v092
	BYTE	W12
	BYTE		N05    Cn1  v104
	BYTE	W06
	BYTE		        Cn1  v100
	BYTE	W06
	BYTE		N11    Dn1  v092
	BYTE	W12
// 006   ----------------------------------------
GameCorner_6_006:
	BYTE		N05    Cn1  v120
	BYTE	W06
	BYTE		N11    Dn1  v100
	BYTE	W12
	BYTE		N05    Cn1 
	BYTE	W06
	BYTE		        Cn1  v120
	BYTE	W06
	BYTE		N11    Dn1  v112
	BYTE	W12
	BYTE		N05    Cn1  v100
	BYTE	W06
	BYTE		        Cn1  v120
	BYTE	W18
	BYTE		        Cn1  v100
	BYTE	W18
	BYTE		        Cn1  v112
	BYTE	W12
	BYTE	PEND
// 007   ----------------------------------------
	BYTE		        Cn1  v120
	BYTE	W24
	BYTE		N11    Dn1  v112
	BYTE	W18
	BYTE		N05    Cn1  v100
	BYTE	W06
	BYTE		        Cn1  v120
	BYTE	W06
	BYTE		N11    Dn1  v092
	BYTE	W12
	BYTE		N05    Cn1  v100
	BYTE	W06
	BYTE		N05   
	BYTE	W06
	BYTE		N11    Dn1  v088
	BYTE	W12
	BYTE		N05    Cn1  v100
	BYTE	W06
// 008   ----------------------------------------
	BYTE		        Cn1  v120
	BYTE	W06
	BYTE		N11    Dn1  v096
	BYTE	W12
	BYTE		N05    Cn1  v100
	BYTE	W06
	BYTE		        Cn1  v120
	BYTE	W06
	BYTE		        Cn1  v100
	BYTE	W06
	BYTE		        Cn1  v104
	BYTE	W06
	BYTE		        Cn1  v100
	BYTE	W06
	BYTE		        Cn1  v120
	BYTE		N23    Cs2  v112
	BYTE	W18
	BYTE		N05    Cn1  v100
	BYTE	W18
	BYTE		        Cn1  v112
	BYTE	W12
// 009   ----------------------------------------
GameCorner_6_009:
	BYTE		N05    Cn1  v120
	BYTE	W24
	BYTE		N11    Dn1  v112
	BYTE	W24
	BYTE		N05    Cn1  v120
	BYTE	W06
	BYTE		        Cn1  v100
	BYTE	W06
	BYTE		N11    Dn1  v088
	BYTE	W12
	BYTE		N05    Cn1  v100
	BYTE	W06
	BYTE		N11    Dn1  v088
	BYTE	W12
	BYTE		N05    Cn1  v100
	BYTE	W06
	BYTE	PEND
// 010   ----------------------------------------
	BYTE		        Cn1  v120
	BYTE	W06
	BYTE		N11    Dn1  v096
	BYTE	W12
	BYTE		N05    Cn1  v100
	BYTE	W06
	BYTE		        Cn1  v120
	BYTE	W12
	BYTE		        Gn1  v112
	BYTE	W06
	BYTE		        Cn1  v100
	BYTE		N05    Fn1  v112
	BYTE	W06
	BYTE		        Cn1  v120
	BYTE	W18
	BYTE		        Cn1  v100
	BYTE	W18
	BYTE		        Cn1  v112
	BYTE	W12
// 011   ----------------------------------------
GameCorner_6_011:
	BYTE		N05    Cn1  v120
	BYTE		N03    Dn1  v068
	BYTE	W04
	BYTE		        Dn1  v076
	BYTE	W04
	BYTE		        Dn1  v088
	BYTE	W04
	BYTE		N05    Dn1  v104
	BYTE	W06
	BYTE		        Dn1  v112
	BYTE	W06
	BYTE		N02    Bn1 
	BYTE	W03
	BYTE		        Bn1  v088
	BYTE	W03
	BYTE		N05    Bn1  v112
	BYTE	W06
	BYTE		        An1  v092
	BYTE	W06
	BYTE		        Fn1  v112
	BYTE	W06
	BYTE		N11    Cn1  v120
	BYTE		N23    Cs2  v112
	BYTE	W48
	BYTE	PEND
// 012   ----------------------------------------
	BYTE	W24
	BYTE		N02    Dn1 
	BYTE	W03
	BYTE		        Dn1  v088
	BYTE	W03
	BYTE		N05    Dn1  v108
	BYTE	W05
	BYTE		        An1 
	BYTE	W07
	BYTE		        Gn1  v104
	BYTE	W06
	BYTE		        Cn1  v120
	BYTE		N23    Cs2  v112
	BYTE	W18
	BYTE		N05    Cn1  v100
	BYTE	W06
	BYTE		N11    Dn1  v112
	BYTE	W12
	BYTE		        As1  v092
	BYTE	W06
	BYTE		N05    Cn1  v100
	BYTE	W06
// 013   ----------------------------------------
GameCorner_6_013:
	BYTE		N05    Cn1  v120
	BYTE	W12
	BYTE		N11    As1  v092
	BYTE	W12
	BYTE		        Dn1  v112
	BYTE	W12
	BYTE		        As1  v092
	BYTE	W06
	BYTE		N05    Cn1  v100
	BYTE	W06
	BYTE		        Cn1  v120
	BYTE	W12
	BYTE		N11    As1  v092
	BYTE	W06
	BYTE		N05    Cn1  v100
	BYTE	W06
	BYTE		N11    Dn1  v112
	BYTE	W12
	BYTE		        As1  v092
	BYTE	W06
	BYTE		N05    Cn1  v100
	BYTE	W06
	BYTE	PEND
// 014   ----------------------------------------
	BYTE	PATT
	 POIN2	GameCorner_6_013
// 015   ----------------------------------------
	BYTE	PATT
	 POIN2	GameCorner_6_013
// 016   ----------------------------------------
	BYTE		N05    Cn1  v120
	BYTE	W12
	BYTE		N11    As1  v092
	BYTE	W12
	BYTE		N05    Dn1  v112
	BYTE	W06
	BYTE		        Dn1  v092
	BYTE	W06
	BYTE		        Dn1  v104
	BYTE	W06
	BYTE		        Cn1  v100
	BYTE		N05    Dn1  v092
	BYTE	W06
	BYTE		        Cn1  v120
	BYTE		N23    Cs2  v112
	BYTE	W18
	BYTE		N05    Cn1  v100
	BYTE	W06
	BYTE		N11    Dn1  v112
	BYTE	W12
	BYTE		        As1  v092
	BYTE	W06
	BYTE		N05    Cn1  v100
	BYTE	W06
// 017   ----------------------------------------
	BYTE	PATT
	 POIN2	GameCorner_6_013
// 018   ----------------------------------------
	BYTE	PATT
	 POIN2	GameCorner_6_013
// 019   ----------------------------------------
	BYTE	PATT
	 POIN2	GameCorner_6_013
// 020   ----------------------------------------
	BYTE		N05    Cn1  v120
	BYTE	W12
	BYTE		N11    As1  v092
	BYTE	W12
	BYTE		        Dn1  v112
	BYTE	W12
	BYTE		N05    Gn1 
	BYTE	W06
	BYTE		        Cn1  v100
	BYTE		N05    Fn1  v112
	BYTE	W06
	BYTE		        Cn1  v120
	BYTE		N23    Cs2  v112
	BYTE	W18
	BYTE		N05    Cn1  v100
	BYTE	W06
	BYTE		N11    Dn1  v112
	BYTE	W12
	BYTE		        As1  v092
	BYTE	W06
	BYTE		N05    Cn1  v100
	BYTE	W06
// 021   ----------------------------------------
	BYTE	PATT
	 POIN2	GameCorner_6_013
// 022   ----------------------------------------
	BYTE	PATT
	 POIN2	GameCorner_6_013
// 023   ----------------------------------------
	BYTE	PATT
	 POIN2	GameCorner_6_013
// 024   ----------------------------------------
	BYTE		N05    Cn1  v120
	BYTE	W06
	BYTE		N02    Dn1  v080
	BYTE	W03
	BYTE		        Dn1  v104
	BYTE	W03
	BYTE		N05    Dn1  v112
	BYTE		N11    As1  v092
	BYTE	W06
	BYTE		N05    Dn1  v100
	BYTE	W06
	BYTE		        An1  v112
	BYTE	W06
	BYTE		        An1  v100
	BYTE	W06
	BYTE		        Fn1  v112
	BYTE	W06
	BYTE		        Cn1  v100
	BYTE		N05    Fn1  v092
	BYTE	W06
	BYTE		        Cn1  v120
	BYTE		N23    Cs2  v112
	BYTE	W18
	BYTE		N05    Cn1  v108
	BYTE	W06
	BYTE		N11    Dn1  v112
	BYTE	W06
	BYTE		N05    Cn1  v120
	BYTE	W06
	BYTE		N11    As1  v096
	BYTE	W06
	BYTE		N05    Cn1  v108
	BYTE	W06
// 025   ----------------------------------------
GameCorner_6_025:
	BYTE		N05    Cn1  v120
	BYTE	W06
	BYTE		        Dn1  v100
	BYTE	W06
	BYTE		N11    As1  v096
	BYTE	W06
	BYTE		N05    Cn1  v108
	BYTE	W06
	BYTE		N11    Dn1  v112
	BYTE	W12
	BYTE		        As1  v096
	BYTE	W12
	BYTE		N05    Cn1  v120
	BYTE	W12
	BYTE		N11    As1  v096
	BYTE	W06
	BYTE		N05    Cn1  v108
	BYTE	W06
	BYTE		N11    Dn1  v112
	BYTE	W06
	BYTE		N05    Cn1  v120
	BYTE	W06
	BYTE		N11    As1  v096
	BYTE	W06
	BYTE		N05    Cn1  v108
	BYTE	W06
	BYTE	PEND
// 026   ----------------------------------------
	BYTE	PATT
	 POIN2	GameCorner_6_025
// 027   ----------------------------------------
	BYTE	PATT
	 POIN2	GameCorner_6_025
// 028   ----------------------------------------
	BYTE		N05    Cn1  v120
	BYTE	W06
	BYTE		        Dn1  v100
	BYTE	W06
	BYTE		N11    As1  v096
	BYTE	W06
	BYTE		N05    Cn1  v108
	BYTE	W06
	BYTE		        Dn1  v112
	BYTE	W12
	BYTE		        Dn1  v100
	BYTE		N11    As1  v096
	BYTE	W06
	BYTE		N05    Dn1  v112
	BYTE	W06
	BYTE		        Cn1  v120
	BYTE	W12
	BYTE		N11    As1  v096
	BYTE	W06
	BYTE		N05    Cn1  v108
	BYTE	W06
	BYTE		N11    Dn1  v112
	BYTE	W06
	BYTE		N05    Cn1  v120
	BYTE	W06
	BYTE		N11    As1  v096
	BYTE	W06
	BYTE		N05    Cn1  v108
	BYTE	W06
// 029   ----------------------------------------
GameCorner_6_029:
	BYTE		N05    Cn1  v108
	BYTE	W06
	BYTE		        Dn1  v100
	BYTE	W06
	BYTE		N11    As1  v096
	BYTE	W06
	BYTE		N05    Cn1  v108
	BYTE	W06
	BYTE		N11    Dn1  v112
	BYTE	W12
	BYTE		        As1  v096
	BYTE	W12
	BYTE		N05    Cn1  v108
	BYTE	W12
	BYTE		N11    As1  v096
	BYTE	W06
	BYTE		N05    Cn1  v108
	BYTE	W06
	BYTE		N11    Dn1  v112
	BYTE	W06
	BYTE		N05    Cn1  v108
	BYTE	W06
	BYTE		N11    As1  v096
	BYTE	W06
	BYTE		N05    Cn1  v108
	BYTE	W06
	BYTE	PEND
// 030   ----------------------------------------
	BYTE	PATT
	 POIN2	GameCorner_6_029
// 031   ----------------------------------------
	BYTE		N05    Cn1  v100
	BYTE		N03    Dn1  v080
	BYTE	W04
	BYTE		        Dn1  v092
	BYTE	W04
	BYTE		        Dn1  v104
	BYTE	W04
	BYTE		N05    Dn1  v112
	BYTE	W06
	BYTE		        Dn1  v120
	BYTE	W06
	BYTE		        Cn1 
	BYTE		N02    Bn1  v112
	BYTE	W03
	BYTE		        Bn1  v088
	BYTE	W03
	BYTE		N05    Bn1  v112
	BYTE	W06
	BYTE		N03    Cn1  v120
	BYTE		N05    An1  v092
	BYTE	W06
	BYTE		N03    Cn1  v120
	BYTE		N05    Fn1  v112
	BYTE	W06
	BYTE		        Dn1 
	BYTE		N17    Cs2 
	BYTE	W06
	BYTE		N05    Dn1 
	BYTE	W06
	BYTE		N05   
	BYTE	W18
	BYTE		        Cn1  v120
	BYTE		N11    As1  v112
	BYTE	W12
	BYTE		N05    Cn1  v120
	BYTE		N05    As1  v112
	BYTE	W06
// 032   ----------------------------------------
	BYTE	W24
	BYTE		        Dn1 
	BYTE	W06
	BYTE		N05   
	BYTE	W06
	BYTE		        Cn1  v120
	BYTE	W12
	BYTE		N05   
	BYTE		N23    Cs2  v112
	BYTE	W18
	BYTE		N05    Cn1  v100
	BYTE	W18
	BYTE		        Cn1  v112
	BYTE	W12
// 033   ----------------------------------------
	BYTE	PATT
	 POIN2	GameCorner_6_001
// 034   ----------------------------------------
	BYTE	PATT
	 POIN2	GameCorner_6_002
// 035   ----------------------------------------
GameCorner_6_035:
	BYTE		N05    Cn1  v120
	BYTE	W24
	BYTE		N11    Dn1  v112
	BYTE	W24
	BYTE		N05    Cn1  v120
	BYTE	W06
	BYTE		        Cn1  v100
	BYTE	W06
	BYTE		N11    Dn1  v092
	BYTE	W12
	BYTE		N05    Cn1  v100
	BYTE	W06
	BYTE		N11    Dn1 
	BYTE	W12
	BYTE		N05    Cn1 
	BYTE	W06
	BYTE	PEND
// 036   ----------------------------------------
GameCorner_6_036:
	BYTE		N05    Cn1  v120
	BYTE	W06
	BYTE		        Cn1  v100
	BYTE	W06
	BYTE		N11    Dn1  v112
	BYTE	W12
	BYTE		N05    Cn1  v100
	BYTE	W06
	BYTE		N05   
	BYTE	W06
	BYTE		N11    Dn1  v112
	BYTE	W06
	BYTE		N05    Cn1  v100
	BYTE	W06
	BYTE		        Cn1  v120
	BYTE		N23    Cs2  v112
	BYTE	W18
	BYTE		N05    Cn1  v100
	BYTE	W18
	BYTE		        Cn1  v112
	BYTE	W12
	BYTE	PEND
// 037   ----------------------------------------
	BYTE		        Cn1  v120
	BYTE	W24
	BYTE		N11    Dn1  v112
	BYTE	W24
	BYTE		N05    Cn1  v120
	BYTE	W06
	BYTE		        Cn1  v100
	BYTE	W06
	BYTE		N11    Dn1  v092
	BYTE	W12
	BYTE		N05    Cn1  v100
	BYTE	W06
	BYTE		N05   
	BYTE	W06
	BYTE		N11    Dn1  v092
	BYTE	W12
// 038   ----------------------------------------
	BYTE	PATT
	 POIN2	GameCorner_6_006
// 039   ----------------------------------------
	BYTE	PATT
	 POIN2	GameCorner_6_035
// 040   ----------------------------------------
	BYTE	PATT
	 POIN2	GameCorner_6_036
// 041   ----------------------------------------
	BYTE	PATT
	 POIN2	GameCorner_6_009
// 042   ----------------------------------------
	BYTE		N05    Cn1  v120
	BYTE	W06
	BYTE		N11    Dn1  v108
	BYTE	W12
	BYTE		N05    Cn1  v100
	BYTE	W06
	BYTE		        Cn1  v120
	BYTE	W12
	BYTE		        Gn1  v112
	BYTE	W06
	BYTE		        Cn1  v100
	BYTE		N05    Fn1  v112
	BYTE	W06
	BYTE		        Cn1  v120
	BYTE	W18
	BYTE		        Cn1  v100
	BYTE	W18
	BYTE		        Cn1  v112
	BYTE	W12
// 043   ----------------------------------------
	BYTE	PATT
	 POIN2	GameCorner_6_011
// 044   ----------------------------------------
	BYTE	W24
	BYTE		N02    Dn1  v112
	BYTE	W03
	BYTE		        Dn1  v088
	BYTE	W03
	BYTE		N05    Dn1  v112
	BYTE	W06
	BYTE		        An1  v092
	BYTE	W06
	BYTE		        Gn1  v112
	BYTE	W06
	BYTE	GoTo
	 POIN2	GameCorner_6_B1
GameCorner_6_B2:
	BYTE	W11
	BYTE	FINE

//**************** Track 7 (Midi-Chn.7) ****************//

GameCorner_7:
	BYTE	KEYSH  GameCorner_key+0
// 000   ----------------------------------------
	BYTE		VOICE  13
	BYTE		PAN    c_v+15
	BYTE		VOL    50*GameCorner_mvl/mxv
	BYTE		MOD    0
	BYTE	W48
GameCorner_7_B1:
	BYTE	W24
	BYTE		N05    Cn3  v092
	BYTE	W06
	BYTE		        Cn4  v088
	BYTE	W06
	BYTE		        Gn4  v096
	BYTE	W06
	BYTE		        Cn3  v092
	BYTE	W06
// 001   ----------------------------------------
GameCorner_7_001:
	BYTE		N05    Cn4  v088
	BYTE	W06
	BYTE		        Gn4  v096
	BYTE	W06
	BYTE		        Cn3  v092
	BYTE	W06
	BYTE		        Cn4  v088
	BYTE	W06
	BYTE		        Gn4  v096
	BYTE	W06
	BYTE		        Cn3  v092
	BYTE	W06
	BYTE		        Cn4  v088
	BYTE	W06
	BYTE		        An4  v096
	BYTE	W06
	BYTE		        Cn3  v092
	BYTE	W06
	BYTE		        Cn4  v088
	BYTE	W06
	BYTE		N11    An4  v096
	BYTE	W12
	BYTE		N05    Cn3  v092
	BYTE	W06
	BYTE		        Cn4  v088
	BYTE	W06
	BYTE		        Gn4  v096
	BYTE	W06
	BYTE		        Cn3  v092
	BYTE	W06
	BYTE	PEND
// 002   ----------------------------------------
GameCorner_7_002:
	BYTE		N05    Cn4  v088
	BYTE	W06
	BYTE		        Gn4  v096
	BYTE	W06
	BYTE		        Cn3  v092
	BYTE	W06
	BYTE		        Cn4  v088
	BYTE	W06
	BYTE		        As4  v096
	BYTE	W06
	BYTE		        Cn4  v092
	BYTE	W06
	BYTE		        An4  v096
	BYTE	W06
	BYTE		        Cn4  v088
	BYTE	W06
	BYTE		        Gn4  v096
	BYTE	W06
	BYTE		N17    An4 
	BYTE	W18
	BYTE		N05    Cn3  v092
	BYTE	W06
	BYTE		        Cn4  v088
	BYTE	W06
	BYTE		        Gn4  v096
	BYTE	W06
	BYTE		        Cn3  v092
	BYTE	W06
	BYTE	PEND
// 003   ----------------------------------------
GameCorner_7_003:
	BYTE		N05    Cn4  v088
	BYTE	W06
	BYTE		        Gn4  v096
	BYTE	W06
	BYTE		        Cn3  v092
	BYTE	W06
	BYTE		        Cn4  v088
	BYTE	W06
	BYTE		        Gn4  v096
	BYTE	W06
	BYTE		        Cn3  v092
	BYTE	W06
	BYTE		        Cn4  v088
	BYTE	W06
	BYTE		        An4  v096
	BYTE	W06
	BYTE		        Cn3  v092
	BYTE	W06
	BYTE		        Cn4  v088
	BYTE	W06
	BYTE		        An4  v096
	BYTE	W06
	BYTE		        Cn4  v088
	BYTE	W06
	BYTE		        Cn3  v092
	BYTE	W06
	BYTE		        Cn4  v088
	BYTE	W06
	BYTE		        Gn4  v096
	BYTE	W06
	BYTE		        Cn3  v092
	BYTE	W06
	BYTE	PEND
// 004   ----------------------------------------
GameCorner_7_004:
	BYTE		N05    Cn4  v088
	BYTE	W06
	BYTE		        Gn4  v096
	BYTE	W06
	BYTE		        Cn3  v092
	BYTE	W06
	BYTE		        Cn4  v088
	BYTE	W06
	BYTE		        As4  v096
	BYTE	W06
	BYTE		        Cn4  v092
	BYTE	W06
	BYTE		        An4  v096
	BYTE	W06
	BYTE		        Cn4  v088
	BYTE	W06
	BYTE		        Gn4  v096
	BYTE	W06
	BYTE		N11    An4 
	BYTE	W12
	BYTE		N05    Cn4  v088
	BYTE	W06
	BYTE		        Cn3  v092
	BYTE	W06
	BYTE		        Cn4  v088
	BYTE	W06
	BYTE		        Gn4  v096
	BYTE	W06
	BYTE		        Cn3  v092
	BYTE	W06
	BYTE	PEND
// 005   ----------------------------------------
GameCorner_7_005:
	BYTE		N05    Cn4  v088
	BYTE	W06
	BYTE		        Gn4  v096
	BYTE	W06
	BYTE		        Cn3  v092
	BYTE	W06
	BYTE		        Cn4  v088
	BYTE	W06
	BYTE		        Gn4  v096
	BYTE	W06
	BYTE		        Cn3  v092
	BYTE	W06
	BYTE		        Cn4  v088
	BYTE	W06
	BYTE		        An4  v096
	BYTE	W06
	BYTE		        Cn3  v092
	BYTE	W06
	BYTE		        Cn4  v088
	BYTE	W06
	BYTE		        An4  v096
	BYTE	W12
	BYTE		        Cn3  v092
	BYTE	W06
	BYTE		        Cn4  v088
	BYTE	W06
	BYTE		        Gn4  v096
	BYTE	W06
	BYTE		        Cn3  v092
	BYTE	W06
	BYTE	PEND
// 006   ----------------------------------------
GameCorner_7_006:
	BYTE		N05    Cn4  v088
	BYTE	W06
	BYTE		        Gn4  v096
	BYTE	W06
	BYTE		        Cn3  v092
	BYTE	W06
	BYTE		        Cn4  v088
	BYTE	W06
	BYTE		        As4  v096
	BYTE	W06
	BYTE		        Cn3  v092
	BYTE	W06
	BYTE		        Cn4  v088
	BYTE	W06
	BYTE		        Cn5  v096
	BYTE	W06
	BYTE		        Cn3  v092
	BYTE	W06
	BYTE		        An4  v096
	BYTE	W06
	BYTE		        Cn4  v088
	BYTE	W12
	BYTE		        Cn3  v092
	BYTE	W06
	BYTE		        Cn4  v088
	BYTE	W06
	BYTE		        Gn4  v096
	BYTE	W06
	BYTE		        Cn3  v092
	BYTE	W06
	BYTE	PEND
// 007   ----------------------------------------
	BYTE	PATT
	 POIN2	GameCorner_7_005
// 008   ----------------------------------------
GameCorner_7_008:
	BYTE		N05    Cn4  v088
	BYTE	W06
	BYTE		        Gn4  v096
	BYTE	W06
	BYTE		        Cn3  v092
	BYTE	W06
	BYTE		        As4  v096
	BYTE	W06
	BYTE		        Cn4  v088
	BYTE	W06
	BYTE		        Cn3  v092
	BYTE	W06
	BYTE		        Cn5  v096
	BYTE	W06
	BYTE		        Cn4  v088
	BYTE	W06
	BYTE		        Cn3  v092
	BYTE	W06
	BYTE		        An4  v096
	BYTE	W06
	BYTE		N11    Cn4  v088
	BYTE	W12
	BYTE		N05    Cn3  v092
	BYTE	W06
	BYTE		        Cn4  v088
	BYTE	W06
	BYTE		        Gn4  v096
	BYTE	W06
	BYTE		        Cn3  v092
	BYTE	W06
	BYTE	PEND
// 009   ----------------------------------------
	BYTE	PATT
	 POIN2	GameCorner_7_005
// 010   ----------------------------------------
	BYTE	PATT
	 POIN2	GameCorner_7_006
// 011   ----------------------------------------
GameCorner_7_011:
	BYTE		N05    Cn4  v088
	BYTE	W06
	BYTE		        Gn4  v096
	BYTE	W06
	BYTE		        Cn3  v092
	BYTE	W06
	BYTE		        Cn4  v088
	BYTE	W06
	BYTE		        Gn4  v096
	BYTE	W06
	BYTE		        Cn3  v092
	BYTE	W06
	BYTE		        Cn4  v088
	BYTE	W06
	BYTE		        An4  v096
	BYTE	W54
	BYTE	PEND
// 012   ----------------------------------------
GameCorner_7_012:
	BYTE	W72
	BYTE		N05    Cn3  v092
	BYTE	W06
	BYTE		        Cn4  v088
	BYTE	W06
	BYTE		        Gn4  v096
	BYTE	W06
	BYTE		        Cn3  v092
	BYTE	W06
	BYTE	PEND
// 013   ----------------------------------------
	BYTE	PATT
	 POIN2	GameCorner_7_005
// 014   ----------------------------------------
	BYTE	PATT
	 POIN2	GameCorner_7_002
// 015   ----------------------------------------
	BYTE	PATT
	 POIN2	GameCorner_7_003
// 016   ----------------------------------------
	BYTE		N05    Cn4  v088
	BYTE	W06
	BYTE		        Gn4  v096
	BYTE	W06
	BYTE		        Cn3  v092
	BYTE	W06
	BYTE		        Cn4  v088
	BYTE	W06
	BYTE		        As4  v096
	BYTE	W06
	BYTE		        Cn4  v092
	BYTE	W06
	BYTE		        An4  v096
	BYTE	W06
	BYTE		        Cn4  v088
	BYTE	W06
	BYTE		        Cn3  v092
	BYTE		N05    Gn4  v096
	BYTE	W06
	BYTE		N11    An4 
	BYTE	W12
	BYTE		N05    Cn4  v088
	BYTE	W06
	BYTE		        Cn3  v092
	BYTE	W06
	BYTE		        Cn4  v088
	BYTE	W06
	BYTE		        Gn4  v096
	BYTE	W06
	BYTE		        Cn3  v092
	BYTE	W06
// 017   ----------------------------------------
	BYTE	PATT
	 POIN2	GameCorner_7_005
// 018   ----------------------------------------
	BYTE	PATT
	 POIN2	GameCorner_7_006
// 019   ----------------------------------------
	BYTE	PATT
	 POIN2	GameCorner_7_005
// 020   ----------------------------------------
	BYTE		N05    Cn4  v088
	BYTE	W06
	BYTE		        Gn4  v096
	BYTE	W06
	BYTE		        Cn3  v092
	BYTE	W06
	BYTE		        Gn4  v096
	BYTE	W06
	BYTE		        Cn4  v088
	BYTE	W06
	BYTE		        Cn3  v092
	BYTE	W06
	BYTE		        Fn4  v096
	BYTE	W06
	BYTE		        Cn4  v088
	BYTE	W06
	BYTE		        Gn4  v096
	BYTE	W06
	BYTE		N11    Gn4  v088
	BYTE	W12
	BYTE		N05    Cn4 
	BYTE	W06
	BYTE		        Cn3  v092
	BYTE	W06
	BYTE		        Cn4  v088
	BYTE	W06
	BYTE		        Gn4  v096
	BYTE	W06
	BYTE		        Cn3  v092
	BYTE	W06
// 021   ----------------------------------------
	BYTE	PATT
	 POIN2	GameCorner_7_005
// 022   ----------------------------------------
	BYTE		N05    Cn4  v088
	BYTE	W06
	BYTE		        Gn4  v096
	BYTE	W06
	BYTE		        Cn3  v092
	BYTE	W06
	BYTE		        Cn4  v088
	BYTE	W06
	BYTE		        As4  v096
	BYTE	W06
	BYTE		        Cn3  v092
	BYTE	W06
	BYTE		        Cn4  v088
	BYTE	W06
	BYTE		        Cn5  v096
	BYTE	W06
	BYTE		        Cn3  v092
	BYTE	W06
	BYTE		        An4  v096
	BYTE	W06
	BYTE		N11    Cn4  v088
	BYTE	W12
	BYTE		N05    Cn3  v092
	BYTE	W06
	BYTE		        Cn4  v088
	BYTE	W06
	BYTE		        Gn4  v096
	BYTE	W06
	BYTE		        Cn3  v092
	BYTE	W06
// 023   ----------------------------------------
	BYTE		        Cn4  v088
	BYTE	W06
	BYTE		        Gn4  v096
	BYTE	W06
	BYTE		        Cn3  v092
	BYTE	W06
	BYTE		        Cn4  v088
	BYTE	W06
	BYTE		        Gn4  v096
	BYTE	W06
	BYTE		        Cn3  v092
	BYTE	W06
	BYTE		        Cn4  v088
	BYTE	W06
	BYTE		        An4  v096
	BYTE	W06
	BYTE		        Cn3  v092
	BYTE	W06
	BYTE		        Cn4  v088
	BYTE	W06
	BYTE		        An4  v096
	BYTE	W12
	BYTE		        Cn3  v092
	BYTE	W06
	BYTE		N12    Cn4  v088
	BYTE	W06
	BYTE		N05    Gn4  v096
	BYTE	W06
	BYTE		        Cn3  v092
	BYTE	W06
// 024   ----------------------------------------
	BYTE		        Cn4  v088
	BYTE	W06
	BYTE		        Gn4  v096
	BYTE	W06
	BYTE		        Cn3  v092
	BYTE	W06
	BYTE		        As4  v096
	BYTE	W06
	BYTE		        Cn4  v088
	BYTE	W06
	BYTE		        Cn3  v092
	BYTE	W06
	BYTE		        Cn5  v096
	BYTE	W06
	BYTE		        Cn4  v088
	BYTE	W06
	BYTE		        Cn3  v092
	BYTE	W06
	BYTE		        An4  v096
	BYTE	W06
	BYTE		        Ds4  v124
	BYTE	W06
	BYTE		        Fn4  v120
	BYTE	W06
	BYTE		N32    Gn4  v127
	BYTE	W24
// 025   ----------------------------------------
	BYTE	W12
	BYTE		        Fn4 
	BYTE	W36
	BYTE		N23    Cn4 
	BYTE	W24
	BYTE		N32    Dn4 
	BYTE	W24
// 026   ----------------------------------------
	BYTE	W12
	BYTE		        Ds4  v124
	BYTE	W36
	BYTE		N23    Fn4  v127
	BYTE	W24
	BYTE		N32    Dn4 
	BYTE	W24
// 027   ----------------------------------------
	BYTE	W12
	BYTE		        Cn4  v124
	BYTE	W36
	BYTE		N23    As3  v120
	BYTE	W24
	BYTE		N44    An3  v124
	BYTE	W24
// 028   ----------------------------------------
	BYTE	W96
// 029   ----------------------------------------
	BYTE	W96
// 030   ----------------------------------------
	BYTE	W96
// 031   ----------------------------------------
	BYTE	W96
// 032   ----------------------------------------
	BYTE	PATT
	 POIN2	GameCorner_7_012
// 033   ----------------------------------------
	BYTE	PATT
	 POIN2	GameCorner_7_001
// 034   ----------------------------------------
	BYTE	PATT
	 POIN2	GameCorner_7_002
// 035   ----------------------------------------
	BYTE	PATT
	 POIN2	GameCorner_7_003
// 036   ----------------------------------------
	BYTE	PATT
	 POIN2	GameCorner_7_004
// 037   ----------------------------------------
	BYTE	PATT
	 POIN2	GameCorner_7_005
// 038   ----------------------------------------
	BYTE	PATT
	 POIN2	GameCorner_7_006
// 039   ----------------------------------------
	BYTE	PATT
	 POIN2	GameCorner_7_005
// 040   ----------------------------------------
	BYTE	PATT
	 POIN2	GameCorner_7_008
// 041   ----------------------------------------
	BYTE	PATT
	 POIN2	GameCorner_7_005
// 042   ----------------------------------------
	BYTE	PATT
	 POIN2	GameCorner_7_006
// 043   ----------------------------------------
	BYTE	PATT
	 POIN2	GameCorner_7_011
// 044   ----------------------------------------
	BYTE	W48
	BYTE	GoTo
	 POIN2	GameCorner_7_B1
GameCorner_7_B2:
	BYTE	W11
	BYTE	FINE

//**************** Track 8 (Midi-Chn.8) ****************//

GameCorner_8:
	BYTE	KEYSH  GameCorner_key+0
// 000   ----------------------------------------
	BYTE		VOICE  47
	BYTE		PAN    c_v-12
	BYTE		VOL    73*GameCorner_mvl/mxv
	BYTE		MOD    0
	BYTE	W48
GameCorner_8_B1:
	BYTE		N23    Cn3  v120
	BYTE	W48
// 001   ----------------------------------------
	BYTE	W96
// 002   ----------------------------------------
	BYTE	W48
	BYTE		N23   
	BYTE	W48
// 003   ----------------------------------------
	BYTE	W96
// 004   ----------------------------------------
	BYTE	W48
	BYTE		N23   
	BYTE	W48
// 005   ----------------------------------------
	BYTE	W96
// 006   ----------------------------------------
	BYTE	W48
	BYTE		N23   
	BYTE	W48
// 007   ----------------------------------------
	BYTE	W96
// 008   ----------------------------------------
	BYTE	W48
	BYTE		N23   
	BYTE	W48
// 009   ----------------------------------------
	BYTE	W96
// 010   ----------------------------------------
	BYTE	W48
	BYTE		N23   
	BYTE	W48
// 011   ----------------------------------------
	BYTE	W48
	BYTE		N23   
	BYTE	W48
// 012   ----------------------------------------
	BYTE	W48
	BYTE		N23   
	BYTE	W48
// 013   ----------------------------------------
	BYTE	W96
// 014   ----------------------------------------
	BYTE	W48
	BYTE		N23   
	BYTE	W48
// 015   ----------------------------------------
	BYTE	W96
// 016   ----------------------------------------
	BYTE	W48
	BYTE		N23   
	BYTE	W48
// 017   ----------------------------------------
	BYTE	W96
// 018   ----------------------------------------
	BYTE	W48
	BYTE		N23   
	BYTE	W48
// 019   ----------------------------------------
	BYTE	W96
// 020   ----------------------------------------
	BYTE	W48
	BYTE		N23   
	BYTE	W48
// 021   ----------------------------------------
	BYTE	W96
// 022   ----------------------------------------
	BYTE	W48
	BYTE		N23   
	BYTE	W48
// 023   ----------------------------------------
	BYTE	W96
// 024   ----------------------------------------
	BYTE	W48
	BYTE		N23   
	BYTE	W48
// 025   ----------------------------------------
	BYTE	W96
// 026   ----------------------------------------
	BYTE	W96
// 027   ----------------------------------------
	BYTE	W96
// 028   ----------------------------------------
	BYTE	W48
	BYTE		N23   
	BYTE	W48
// 029   ----------------------------------------
	BYTE	W96
// 030   ----------------------------------------
	BYTE	W96
// 031   ----------------------------------------
	BYTE	W48
	BYTE		N05    Gn2 
	BYTE	W06
	BYTE		N05   
	BYTE	W06
	BYTE		N11   
	BYTE	W18
	BYTE		N05    As2 
	BYTE	W12
	BYTE		N11   
	BYTE	W06
// 032   ----------------------------------------
	BYTE	W48
	BYTE		N23    Cn3 
	BYTE	W48
// 033   ----------------------------------------
	BYTE	W96
// 034   ----------------------------------------
	BYTE	W48
	BYTE		N23   
	BYTE	W48
// 035   ----------------------------------------
	BYTE	W96
// 036   ----------------------------------------
	BYTE	W48
	BYTE		N23   
	BYTE	W48
// 037   ----------------------------------------
	BYTE	W96
// 038   ----------------------------------------
	BYTE	W48
	BYTE		N23   
	BYTE	W48
// 039   ----------------------------------------
	BYTE	W96
// 040   ----------------------------------------
	BYTE	W48
	BYTE		N23   
	BYTE	W48
// 041   ----------------------------------------
	BYTE	W96
// 042   ----------------------------------------
	BYTE	W48
	BYTE		N23   
	BYTE	W48
// 043   ----------------------------------------
	BYTE	W48
	BYTE		N23   
	BYTE	W48
// 044   ----------------------------------------
	BYTE	W48
	BYTE	GoTo
	 POIN2	GameCorner_8_B1
GameCorner_8_B2:
	BYTE	W11
	BYTE	FINE

//**************** Track 9 (Midi-Chn.9) ****************//

GameCorner_9:
	BYTE	KEYSH  GameCorner_key+0
// 000   ----------------------------------------
	BYTE		VOICE  127
	BYTE		VOL    86*GameCorner_mvl/mxv
	BYTE		PAN    c_v+21
	BYTE		MOD    0
	BYTE	W48
GameCorner_9_B1:
	BYTE		N05    Fs1  v060
	BYTE	W06
	BYTE		        Fs1  v040
	BYTE	W06
	BYTE		        Fs1  v052
	BYTE	W06
	BYTE		        Fs1  v060
	BYTE	W06
	BYTE		        Fs1  v040
	BYTE	W06
	BYTE		        Fs1  v052
	BYTE	W06
	BYTE		        Fs1  v060
	BYTE	W06
	BYTE		        Fs1  v040
	BYTE	W06
// 001   ----------------------------------------
GameCorner_9_001:
	BYTE		N05    Fs1  v052
	BYTE	W06
	BYTE		        Fs1  v060
	BYTE	W06
	BYTE		        Fs1  v040
	BYTE	W06
	BYTE		        Fs1  v052
	BYTE	W06
	BYTE		        Fs1  v060
	BYTE	W06
	BYTE		        Fs1  v040
	BYTE	W06
	BYTE		        Fs1  v052
	BYTE	W06
	BYTE		        Fs1  v036
	BYTE	W06
	BYTE		        Fs1  v060
	BYTE	W06
	BYTE		        Fs1  v040
	BYTE	W06
	BYTE		        Fs1  v052
	BYTE	W06
	BYTE		        Fs1  v060
	BYTE	W06
	BYTE		        Fs1  v040
	BYTE	W06
	BYTE		        Fs1  v052
	BYTE	W06
	BYTE		        Fs1  v060
	BYTE	W06
	BYTE		        Fs1  v040
	BYTE	W06
	BYTE	PEND
// 002   ----------------------------------------
	BYTE	PATT
	 POIN2	GameCorner_9_001
// 003   ----------------------------------------
	BYTE	PATT
	 POIN2	GameCorner_9_001
// 004   ----------------------------------------
	BYTE	PATT
	 POIN2	GameCorner_9_001
// 005   ----------------------------------------
	BYTE	PATT
	 POIN2	GameCorner_9_001
// 006   ----------------------------------------
	BYTE	PATT
	 POIN2	GameCorner_9_001
// 007   ----------------------------------------
	BYTE	PATT
	 POIN2	GameCorner_9_001
// 008   ----------------------------------------
	BYTE	PATT
	 POIN2	GameCorner_9_001
// 009   ----------------------------------------
	BYTE	PATT
	 POIN2	GameCorner_9_001
// 010   ----------------------------------------
	BYTE	PATT
	 POIN2	GameCorner_9_001
// 011   ----------------------------------------
GameCorner_9_011:
	BYTE		N05    Fs1  v052
	BYTE	W06
	BYTE		        Fs1  v060
	BYTE	W06
	BYTE		        Fs1  v040
	BYTE	W06
	BYTE		        Fs1  v052
	BYTE	W06
	BYTE		        Fs1  v060
	BYTE	W06
	BYTE		        Fs1  v040
	BYTE	W06
	BYTE		        Fs1  v052
	BYTE	W06
	BYTE		        Fs1  v036
	BYTE	W06
	BYTE		        Fs1  v060
	BYTE	W48
	BYTE	PEND
// 012   ----------------------------------------
	BYTE	W48
	BYTE		        Fs1  v072
	BYTE	W06
	BYTE		        Fs1  v052
	BYTE	W06
	BYTE		        Fs1  v060
	BYTE	W06
	BYTE		        Fs1  v072
	BYTE	W06
	BYTE		        Fs1  v052
	BYTE	W06
	BYTE		        Fs1  v060
	BYTE	W06
	BYTE		        Fs1  v072
	BYTE	W06
	BYTE		        Fs1  v052
	BYTE	W06
// 013   ----------------------------------------
GameCorner_9_013:
	BYTE		N05    Fs1  v060
	BYTE	W06
	BYTE		        Fs1  v072
	BYTE	W06
	BYTE		        Fs1  v052
	BYTE	W06
	BYTE		        Fs1  v060
	BYTE	W06
	BYTE		        Fs1  v072
	BYTE	W06
	BYTE		        Fs1  v052
	BYTE	W06
	BYTE		        Fs1  v060
	BYTE	W06
	BYTE		        Fs1  v048
	BYTE	W06
	BYTE		        Fs1  v072
	BYTE	W06
	BYTE		        Fs1  v052
	BYTE	W06
	BYTE		        Fs1  v060
	BYTE	W06
	BYTE		        Fs1  v072
	BYTE	W06
	BYTE		        Fs1  v052
	BYTE	W06
	BYTE		        Fs1  v060
	BYTE	W06
	BYTE		        Fs1  v072
	BYTE	W06
	BYTE		        Fs1  v052
	BYTE	W06
	BYTE	PEND
// 014   ----------------------------------------
	BYTE	PATT
	 POIN2	GameCorner_9_013
// 015   ----------------------------------------
	BYTE	PATT
	 POIN2	GameCorner_9_013
// 016   ----------------------------------------
	BYTE	PATT
	 POIN2	GameCorner_9_013
// 017   ----------------------------------------
	BYTE	PATT
	 POIN2	GameCorner_9_013
// 018   ----------------------------------------
	BYTE	PATT
	 POIN2	GameCorner_9_013
// 019   ----------------------------------------
	BYTE	PATT
	 POIN2	GameCorner_9_013
// 020   ----------------------------------------
	BYTE	PATT
	 POIN2	GameCorner_9_013
// 021   ----------------------------------------
	BYTE	PATT
	 POIN2	GameCorner_9_013
// 022   ----------------------------------------
	BYTE	PATT
	 POIN2	GameCorner_9_013
// 023   ----------------------------------------
	BYTE		N05    Fs1  v060
	BYTE	W06
	BYTE		        Fs1  v072
	BYTE	W06
	BYTE		        Fs1  v052
	BYTE	W06
	BYTE		        Fs1  v060
	BYTE	W06
	BYTE		        Fs1  v072
	BYTE	W06
	BYTE		        Fs1  v052
	BYTE	W06
	BYTE		        Fs1  v060
	BYTE	W06
	BYTE		        Fs1  v048
	BYTE	W06
	BYTE		        Fs1  v072
	BYTE	W06
	BYTE		        Fs1  v052
	BYTE	W06
	BYTE		        Fs1  v060
	BYTE	W06
	BYTE		        Fs1  v072
	BYTE	W06
	BYTE		        Fs1  v052
	BYTE	W06
	BYTE		N12    Fs1  v060
	BYTE	W12
	BYTE		N01    Fs1  v052
	BYTE	W06
// 024   ----------------------------------------
	BYTE	PATT
	 POIN2	GameCorner_9_013
// 025   ----------------------------------------
	BYTE	PATT
	 POIN2	GameCorner_9_013
// 026   ----------------------------------------
	BYTE	PATT
	 POIN2	GameCorner_9_013
// 027   ----------------------------------------
	BYTE	PATT
	 POIN2	GameCorner_9_013
// 028   ----------------------------------------
	BYTE	PATT
	 POIN2	GameCorner_9_013
// 029   ----------------------------------------
	BYTE	PATT
	 POIN2	GameCorner_9_013
// 030   ----------------------------------------
	BYTE	PATT
	 POIN2	GameCorner_9_013
// 031   ----------------------------------------
	BYTE		N05    Fs1  v060
	BYTE	W06
	BYTE		        Fs1  v072
	BYTE	W06
	BYTE		        Fs1  v052
	BYTE	W06
	BYTE		        Fs1  v060
	BYTE	W06
	BYTE		        Fs1  v072
	BYTE	W06
	BYTE		        Fs1  v052
	BYTE	W06
	BYTE		        Fs1  v060
	BYTE	W06
	BYTE		        Fs1  v048
	BYTE	W06
	BYTE		        Fs1  v072
	BYTE	W06
	BYTE		        Fs1  v052
	BYTE	W06
	BYTE		        Fs1  v060
	BYTE	W18
	BYTE		N05   
	BYTE	W12
	BYTE		N05   
	BYTE	W06
// 032   ----------------------------------------
	BYTE	W48
	BYTE		N05   
	BYTE	W06
	BYTE		        Fs1  v040
	BYTE	W06
	BYTE		        Fs1  v052
	BYTE	W06
	BYTE		        Fs1  v060
	BYTE	W06
	BYTE		        Fs1  v040
	BYTE	W06
	BYTE		        Fs1  v052
	BYTE	W06
	BYTE		        Fs1  v060
	BYTE	W06
	BYTE		        Fs1  v040
	BYTE	W06
// 033   ----------------------------------------
	BYTE	PATT
	 POIN2	GameCorner_9_001
// 034   ----------------------------------------
	BYTE	PATT
	 POIN2	GameCorner_9_001
// 035   ----------------------------------------
	BYTE	PATT
	 POIN2	GameCorner_9_001
// 036   ----------------------------------------
	BYTE	PATT
	 POIN2	GameCorner_9_001
// 037   ----------------------------------------
	BYTE	PATT
	 POIN2	GameCorner_9_001
// 038   ----------------------------------------
	BYTE	PATT
	 POIN2	GameCorner_9_001
// 039   ----------------------------------------
	BYTE	PATT
	 POIN2	GameCorner_9_001
// 040   ----------------------------------------
	BYTE	PATT
	 POIN2	GameCorner_9_001
// 041   ----------------------------------------
	BYTE	PATT
	 POIN2	GameCorner_9_001
// 042   ----------------------------------------
	BYTE	PATT
	 POIN2	GameCorner_9_001
// 043   ----------------------------------------
	BYTE	PATT
	 POIN2	GameCorner_9_011
// 044   ----------------------------------------
	BYTE	W48
	BYTE	GoTo
	 POIN2	GameCorner_9_B1
GameCorner_9_B2:
	BYTE	W11
	BYTE	FINE

//**************** Track 10 (Midi-Chn.11) ****************//

GameCorner_10:
	BYTE	KEYSH  GameCorner_key+0
// 000   ----------------------------------------
	BYTE		VOICE  1
	BYTE		PAN    c_v+26
	BYTE		VOL    45*GameCorner_mvl/mxv
	BYTE		MOD    0
	BYTE	W48
GameCorner_10_B1:
	BYTE	W48
// 001   ----------------------------------------
	BYTE	W96
// 002   ----------------------------------------
	BYTE	W96
// 003   ----------------------------------------
	BYTE	W96
// 004   ----------------------------------------
	BYTE	W96
// 005   ----------------------------------------
	BYTE	W96
// 006   ----------------------------------------
	BYTE	W96
// 007   ----------------------------------------
	BYTE	W96
// 008   ----------------------------------------
	BYTE	W96
// 009   ----------------------------------------
	BYTE	W96
// 010   ----------------------------------------
	BYTE	W96
// 011   ----------------------------------------
GameCorner_10_011:
	BYTE	W72
	BYTE		N05    Gs3  v092
	BYTE		N05    Cn4  v100
	BYTE	W06
	BYTE		        Fn3  v092
	BYTE	W12
	BYTE		        Gs3 
	BYTE		N05    Cn4  v100
	BYTE	W06
	BYTE	PEND
// 012   ----------------------------------------
	BYTE	W06
	BYTE		N17    Gs3  v092
	BYTE		N17    Ds4  v100
	BYTE	W18
	BYTE		N05    Gn3  v092
	BYTE		N05    Dn4  v100
	BYTE	W12
	BYTE		        As3  v092
	BYTE		N05    Ds4  v100
	BYTE	W06
	BYTE		N17    Cn4  v092
	BYTE		N17    Fn4  v100
	BYTE	W54
// 013   ----------------------------------------
	BYTE	W96
// 014   ----------------------------------------
	BYTE	W96
// 015   ----------------------------------------
	BYTE	W96
// 016   ----------------------------------------
	BYTE	W96
// 017   ----------------------------------------
	BYTE	W96
// 018   ----------------------------------------
	BYTE	W96
// 019   ----------------------------------------
	BYTE	W96
// 020   ----------------------------------------
	BYTE	W96
// 021   ----------------------------------------
	BYTE	W96
// 022   ----------------------------------------
	BYTE	W96
// 023   ----------------------------------------
	BYTE	W96
// 024   ----------------------------------------
	BYTE	W96
// 025   ----------------------------------------
	BYTE		N04    Fn5 
	BYTE	W06
	BYTE		        Cn5  v088
	BYTE	W06
	BYTE		        Gs4  v100
	BYTE	W06
	BYTE		        Cn5  v088
	BYTE	W06
	BYTE		        Gs4  v100
	BYTE	W06
	BYTE		        Fn4  v088
	BYTE	W06
	BYTE		        Gs4  v100
	BYTE	W06
	BYTE		        Cn5  v088
	BYTE	W06
	BYTE		        Fn5  v100
	BYTE	W06
	BYTE		        Cn5  v088
	BYTE	W06
	BYTE		        Gs4  v100
	BYTE	W06
	BYTE		        Cn5  v088
	BYTE	W06
	BYTE		        Gs4  v100
	BYTE	W06
	BYTE		        Fn4  v088
	BYTE	W06
	BYTE		        Gs4  v100
	BYTE	W06
	BYTE		        Cn5 
	BYTE	W06
// 026   ----------------------------------------
GameCorner_10_026:
	BYTE		N04    Gn5  v100
	BYTE	W06
	BYTE		        Dn5  v088
	BYTE	W06
	BYTE		        As4  v100
	BYTE	W06
	BYTE		        Dn5  v088
	BYTE	W06
	BYTE		        As4  v100
	BYTE	W06
	BYTE		        Gn4  v088
	BYTE	W06
	BYTE		        As4  v100
	BYTE	W06
	BYTE		        Dn5  v088
	BYTE	W06
	BYTE		        Gn5  v100
	BYTE	W06
	BYTE		        Dn5  v088
	BYTE	W06
	BYTE		        As4  v100
	BYTE	W06
	BYTE		        Dn5  v088
	BYTE	W06
	BYTE		        As4  v100
	BYTE	W06
	BYTE		        Gn4  v088
	BYTE	W06
	BYTE		        As4  v100
	BYTE	W06
	BYTE		        Dn5  v088
	BYTE	W06
	BYTE	PEND
// 027   ----------------------------------------
	BYTE		        Cn5  v100
	BYTE	W06
	BYTE		        Gn4  v088
	BYTE	W06
	BYTE		        Ds4  v100
	BYTE	W06
	BYTE		        Gn4  v088
	BYTE	W06
	BYTE		        Cn4  v100
	BYTE	W06
	BYTE		        Ds4  v088
	BYTE	W06
	BYTE		        Gn4  v100
	BYTE	W06
	BYTE		        Cn5  v088
	BYTE	W06
	BYTE		        Gn4  v100
	BYTE	W06
	BYTE		        Ds4  v088
	BYTE	W06
	BYTE		        Gn4  v100
	BYTE	W06
	BYTE		        Cn5  v088
	BYTE	W06
	BYTE		        Ds5  v100
	BYTE	W06
	BYTE		        Cn5  v088
	BYTE	W06
	BYTE		        Ds4  v100
	BYTE	W06
	BYTE		        As4  v088
	BYTE	W06
// 028   ----------------------------------------
	BYTE		        Cn5  v100
	BYTE	W06
	BYTE		        An4  v088
	BYTE	W06
	BYTE		        Fn4  v100
	BYTE	W06
	BYTE		        An4  v088
	BYTE	W06
	BYTE		        Fn4  v100
	BYTE	W06
	BYTE		        Cn4  v088
	BYTE	W06
	BYTE		        Fn4  v100
	BYTE	W06
	BYTE		        An4  v088
	BYTE	W06
	BYTE		        Fn5  v100
	BYTE	W06
	BYTE		        Fn5  v088
	BYTE	W06
	BYTE		        Cn5  v100
	BYTE	W06
	BYTE		        An4  v088
	BYTE	W06
	BYTE		        Cn5  v100
	BYTE	W06
	BYTE		        An4  v088
	BYTE	W06
	BYTE		        Fn4  v100
	BYTE	W06
	BYTE		        Cn4  v088
	BYTE	W06
// 029   ----------------------------------------
	BYTE		        Fn5  v100
	BYTE	W06
	BYTE		        Cn5  v088
	BYTE	W06
	BYTE		        Gs4  v100
	BYTE	W06
	BYTE		        Cn5  v088
	BYTE	W06
	BYTE		        Gs4  v100
	BYTE	W06
	BYTE		        Fn4  v088
	BYTE	W06
	BYTE		        Gs4  v100
	BYTE	W06
	BYTE		        Cn5  v088
	BYTE	W06
	BYTE		        Fn5  v100
	BYTE	W06
	BYTE		        Cn5  v088
	BYTE	W06
	BYTE		        Gs4  v100
	BYTE	W06
	BYTE		        Cn5  v088
	BYTE	W06
	BYTE		        Gs4  v100
	BYTE	W06
	BYTE		        Fn4  v088
	BYTE	W06
	BYTE		        Gs4  v100
	BYTE	W06
	BYTE		        Cn5  v088
	BYTE	W06
// 030   ----------------------------------------
	BYTE	PATT
	 POIN2	GameCorner_10_026
// 031   ----------------------------------------
	BYTE		N04    Gn5  v100
	BYTE	W06
	BYTE		        Dn5  v088
	BYTE	W06
	BYTE		        Bn4  v100
	BYTE	W06
	BYTE		        Dn5  v088
	BYTE	W06
	BYTE		        Bn4  v100
	BYTE	W06
	BYTE		        Gn4  v088
	BYTE	W06
	BYTE		        Bn4  v100
	BYTE	W06
	BYTE		        Dn5  v088
	BYTE	W54
// 032   ----------------------------------------
	BYTE	W96
// 033   ----------------------------------------
	BYTE	W96
// 034   ----------------------------------------
	BYTE	W96
// 035   ----------------------------------------
	BYTE	W96
// 036   ----------------------------------------
	BYTE	W96
// 037   ----------------------------------------
	BYTE	W96
// 038   ----------------------------------------
	BYTE	W96
// 039   ----------------------------------------
	BYTE	W96
// 040   ----------------------------------------
	BYTE	W96
// 041   ----------------------------------------
	BYTE	W96
// 042   ----------------------------------------
	BYTE	W96
// 043   ----------------------------------------
	BYTE	PATT
	 POIN2	GameCorner_10_011
// 044   ----------------------------------------
	BYTE	W06
	BYTE		N17    Gs3  v092
	BYTE		N17    Ds4  v100
	BYTE	W18
	BYTE		N05    Gn3  v092
	BYTE		N05    Dn4  v100
	BYTE	W12
	BYTE		        As3  v092
	BYTE		N05    Ds4  v100
	BYTE	W06
	BYTE		N17    Cn4  v092
	BYTE		N17    Fn4  v100
	BYTE	W06
	BYTE	GoTo
	 POIN2	GameCorner_10_B1
GameCorner_10_B2:
	BYTE	W11
	BYTE	FINE

//**************** Track 11 (Midi-Chn.12) ****************//

GameCorner_11:
	BYTE	KEYSH  GameCorner_key+0
// 000   ----------------------------------------
	BYTE		VOICE  103
	BYTE		VOL    62*GameCorner_mvl/mxv
	BYTE		PAN    c_v+0
	BYTE		MOD    0
	BYTE	W48
GameCorner_11_B1:
	BYTE	W48
// 001   ----------------------------------------
	BYTE	W96
// 002   ----------------------------------------
	BYTE	W96
// 003   ----------------------------------------
	BYTE	W96
// 004   ----------------------------------------
	BYTE	W96
// 005   ----------------------------------------
	BYTE	W96
// 006   ----------------------------------------
	BYTE	W96
// 007   ----------------------------------------
	BYTE	W96
// 008   ----------------------------------------
	BYTE	W96
// 009   ----------------------------------------
	BYTE	W96
// 010   ----------------------------------------
	BYTE	W96
// 011   ----------------------------------------
	BYTE	W96
// 012   ----------------------------------------
	BYTE	W96
// 013   ----------------------------------------
	BYTE	W96
// 014   ----------------------------------------
	BYTE	W96
// 015   ----------------------------------------
	BYTE	W96
// 016   ----------------------------------------
	BYTE	W96
// 017   ----------------------------------------
	BYTE	W96
// 018   ----------------------------------------
	BYTE	W96
// 019   ----------------------------------------
	BYTE	W96
// 020   ----------------------------------------
	BYTE	W96
// 021   ----------------------------------------
	BYTE	W96
// 022   ----------------------------------------
	BYTE	W96
// 023   ----------------------------------------
	BYTE	W96
// 024   ----------------------------------------
	BYTE	W96
// 025   ----------------------------------------
	BYTE	W96
// 026   ----------------------------------------
	BYTE	W96
// 027   ----------------------------------------
	BYTE	W84
	BYTE		N01    Fn4  v092
	BYTE		N01    Fn5 
	BYTE	W06
	BYTE		        Fn4 
	BYTE		N01    Fn5 
	BYTE	W06
// 028   ----------------------------------------
	BYTE		N32    Fn2  v116
	BYTE		N32    Fn3 
	BYTE	W07
	BYTE		BEND   c_v-5
	BYTE	W02
	BYTE		        c_v-9
	BYTE	W01
	BYTE		        c_v-12
	BYTE	W02
	BYTE		        c_v-14
	BYTE	W01
	BYTE		        c_v-17
	BYTE	W02
	BYTE		        c_v-21
	BYTE	W01
	BYTE		        c_v-24
	BYTE	W02
	BYTE		        c_v-26
	BYTE	W01
	BYTE		        c_v-29
	BYTE	W02
	BYTE		        c_v-33
	BYTE	W01
	BYTE		        c_v-35
	BYTE	W02
	BYTE		        c_v-38
	BYTE	W01
	BYTE		        c_v-42
	BYTE	W02
	BYTE		        c_v-45
	BYTE	W01
	BYTE		        c_v-50
	BYTE	W02
	BYTE		        c_v-55
	BYTE	W01
	BYTE		        c_v-60
	BYTE	W02
	BYTE		        c_v-64
	BYTE	W03
	BYTE		        c_v+0
	BYTE		N04    Cn4  v104
	BYTE	W01
	BYTE		BEND   c_v+0
	BYTE		N04    Ds4  v116
	BYTE	W05
	BYTE		        Dn4  v096
	BYTE	W01
	BYTE		        Fn4  v112
	BYTE	W05
	BYTE		N32    Ds4  v104
	BYTE	W01
	BYTE		        Gn4  v116
	BYTE	W32
	BYTE	W03
	BYTE		        Dn4  v104
	BYTE	W01
	BYTE		        Fn4  v116
	BYTE	W11
// 029   ----------------------------------------
	BYTE	W24
	BYTE		N22    Gs3  v104
	BYTE	W01
	BYTE		        Cn4  v116
	BYTE	W23
	BYTE		N32    Bn3  v104
	BYTE	W01
	BYTE		        Dn4  v116
	BYTE	W32
	BYTE	W03
	BYTE		        Bn3  v104
	BYTE	W01
	BYTE		        Ds4  v116
	BYTE	W11
// 030   ----------------------------------------
	BYTE	W24
	BYTE		N10    Bn3  v104
	BYTE	W01
	BYTE		        Fn4  v116
	BYTE	W11
	BYTE		N11    An3  v108
	BYTE	W02
	BYTE		BEND   c_v+5
	BYTE	W02
	BYTE		        c_v+16
	BYTE	W02
	BYTE		        c_v+21
	BYTE	W02
	BYTE		        c_v+32
	BYTE	W02
	BYTE		        c_v+37
	BYTE	W02
	BYTE		        c_v+0
	BYTE		N84    Bn3  v104
	BYTE	W01
	BYTE		        Gn4  v116
	BYTE	W44
	BYTE	W03
// 031   ----------------------------------------
	BYTE	W28
	BYTE	W01
	BYTE	W03
	BYTE	W03
	BYTE	W03
	BYTE	W03
	BYTE	W03
	BYTE	W03
	BYTE	W01
	BYTE		N03    Bn3  v108
	BYTE	W01
	BYTE		        Gn4  v116
	BYTE	W01
	BYTE	W04
	BYTE		        Bn3  v108
	BYTE	W01
	BYTE		        Gn4  v116
	BYTE	W05
	BYTE		N04    Bn3  v108
	BYTE	W01
	BYTE		        Gn4  v116
	BYTE	W17
	BYTE		        Dn4  v108
	BYTE	W01
	BYTE		        As4  v116
	BYTE	W11
	BYTE		        Dn4  v108
	BYTE	W01
	BYTE		        As4  v116
	BYTE	W05
// 032   ----------------------------------------
	BYTE	W24
	BYTE		N22    Gn2  v112
	BYTE		N22    Gn3 
	BYTE	W03
	BYTE		BEND   c_v-9
	BYTE	W01
	BYTE		        c_v-13
	BYTE	W02
	BYTE		        c_v-19
	BYTE	W01
	BYTE		        c_v-23
	BYTE	W02
	BYTE		        c_v-29
	BYTE	W01
	BYTE		        c_v-33
	BYTE	W02
	BYTE		        c_v-39
	BYTE	W01
	BYTE		        c_v-44
	BYTE	W02
	BYTE		        c_v-47
	BYTE	W01
	BYTE		        c_v-53
	BYTE	W02
	BYTE		        c_v-59
	BYTE	W01
	BYTE		        c_v-62
	BYTE	W02
	BYTE		        c_v-64
	BYTE	W02
	BYTE		        c_v+0
	BYTE	W48
	BYTE	W01
// 033   ----------------------------------------
	BYTE	W96
// 034   ----------------------------------------
	BYTE	W96
// 035   ----------------------------------------
	BYTE	W96
// 036   ----------------------------------------
	BYTE	W96
// 037   ----------------------------------------
	BYTE	W96
// 038   ----------------------------------------
	BYTE	W96
// 039   ----------------------------------------
	BYTE	W96
// 040   ----------------------------------------
	BYTE	W96
// 041   ----------------------------------------
	BYTE	W96
// 042   ----------------------------------------
	BYTE	W96
// 043   ----------------------------------------
	BYTE	W96
// 044   ----------------------------------------
	BYTE	W48
	BYTE	GoTo
	 POIN2	GameCorner_11_B1
GameCorner_11_B2:
	BYTE	W11
	BYTE	FINE

//**************** Track 12 (Midi-Chn.13) ****************//

GameCorner_12:
	BYTE	KEYSH  GameCorner_key+0
// 000   ----------------------------------------
	BYTE		VOICE  103
	BYTE		VOL    33*GameCorner_mvl/mxv
	BYTE		PAN    c_v+19
	BYTE		MOD    0
	BYTE	W48
GameCorner_12_B1:
	BYTE	W48
// 001   ----------------------------------------
	BYTE	W96
// 002   ----------------------------------------
	BYTE	W96
// 003   ----------------------------------------
	BYTE	W96
// 004   ----------------------------------------
	BYTE	W96
// 005   ----------------------------------------
	BYTE	W96
// 006   ----------------------------------------
	BYTE	W96
// 007   ----------------------------------------
	BYTE	W96
// 008   ----------------------------------------
	BYTE	W96
// 009   ----------------------------------------
	BYTE	W96
// 010   ----------------------------------------
	BYTE	W96
// 011   ----------------------------------------
	BYTE	W96
// 012   ----------------------------------------
	BYTE	W96
// 013   ----------------------------------------
	BYTE	W96
// 014   ----------------------------------------
	BYTE	W96
// 015   ----------------------------------------
	BYTE	W96
// 016   ----------------------------------------
	BYTE	W96
// 017   ----------------------------------------
	BYTE	W96
// 018   ----------------------------------------
	BYTE	W96
// 019   ----------------------------------------
	BYTE	W96
// 020   ----------------------------------------
	BYTE	W96
// 021   ----------------------------------------
	BYTE	W96
// 022   ----------------------------------------
	BYTE	W96
// 023   ----------------------------------------
	BYTE	W96
// 024   ----------------------------------------
	BYTE	W96
// 025   ----------------------------------------
	BYTE	W96
// 026   ----------------------------------------
	BYTE	W96
// 027   ----------------------------------------
	BYTE	W96
// 028   ----------------------------------------
	BYTE	W12
	BYTE		N32    Fn2  v112
	BYTE	W07
	BYTE		BEND   c_v-5
	BYTE	W02
	BYTE		        c_v-9
	BYTE	W01
	BYTE		        c_v-12
	BYTE	W02
	BYTE		        c_v-14
	BYTE	W01
	BYTE		        c_v-17
	BYTE	W02
	BYTE		        c_v-21
	BYTE	W01
	BYTE		        c_v-24
	BYTE	W02
	BYTE		        c_v-26
	BYTE	W01
	BYTE		        c_v-29
	BYTE	W02
	BYTE		        c_v-33
	BYTE	W01
	BYTE		        c_v-35
	BYTE	W02
	BYTE		        c_v-38
	BYTE	W01
	BYTE		        c_v-44
	BYTE	W02
	BYTE		        c_v-47
	BYTE	W01
	BYTE		        c_v-50
	BYTE	W02
	BYTE		        c_v-55
	BYTE	W01
	BYTE		        c_v-59
	BYTE	W02
	BYTE		        c_v-64
	BYTE	W02
	BYTE		        c_v-1
	BYTE	W01
	BYTE		N04    Cn4  v108
	BYTE	W01
	BYTE		        Ds4  v116
	BYTE	W01
	BYTE		BEND   c_v+0
	BYTE	W04
	BYTE		N04    Dn4  v108
	BYTE	W01
	BYTE		        Fn4  v116
	BYTE	W05
	BYTE		N32    Ds4  v108
	BYTE	W01
	BYTE		        Gn4  v116
	BYTE	W32
	BYTE	W03
// 029   ----------------------------------------
	BYTE		        Dn4  v108
	BYTE	W01
	BYTE		        Fn4  v116
	BYTE	W32
	BYTE	W03
	BYTE		N22    Gs3  v108
	BYTE	W01
	BYTE		        Cn4  v116
	BYTE	W23
	BYTE		N32    Bn3  v108
	BYTE	W01
	BYTE		        Dn4  v116
	BYTE	W32
	BYTE	W03
// 030   ----------------------------------------
	BYTE		        Bn3  v108
	BYTE	W01
	BYTE		        Ds4  v116
	BYTE	W32
	BYTE	W03
	BYTE		N10    Bn3  v108
	BYTE	W01
	BYTE		        Fn4  v116
	BYTE	W11
	BYTE		N11    An3  v112
	BYTE	W02
	BYTE		BEND   c_v+5
	BYTE	W02
	BYTE		        c_v+12
	BYTE	W02
	BYTE		        c_v+21
	BYTE	W02
	BYTE		        c_v+30
	BYTE	W02
	BYTE		        c_v+41
	BYTE	W02
	BYTE		        c_v+0
	BYTE		N84    Bn3  v108
	BYTE	W01
	BYTE		        Gn4  v116
	BYTE	W32
	BYTE	W03
// 031   ----------------------------------------
	BYTE	W52
	BYTE	W01
	BYTE		N03    Bn3  v108
	BYTE	W01
	BYTE		        Gn4  v116
	BYTE	W05
	BYTE		        Bn3  v108
	BYTE	W01
	BYTE		        Gn4  v116
	BYTE	W05
	BYTE		N04    Bn3  v108
	BYTE	W01
	BYTE		        Gn4  v116
	BYTE	W17
	BYTE		        Dn4  v108
	BYTE	W01
	BYTE		        As4  v116
	BYTE	W11
	BYTE		        Dn4  v108
	BYTE	W01
// 032   ----------------------------------------
	BYTE		        As4  v116
	BYTE	W36
	BYTE		N22    Gn2  v112
	BYTE	W04
	BYTE		BEND   c_v-9
	BYTE	W02
	BYTE		        c_v-16
	BYTE	W01
	BYTE		        c_v-21
	BYTE	W02
	BYTE		        c_v-26
	BYTE	W01
	BYTE		        c_v-32
	BYTE	W02
	BYTE		        c_v-38
	BYTE	W01
	BYTE		        c_v-42
	BYTE	W02
	BYTE		        c_v-45
	BYTE	W01
	BYTE		        c_v-50
	BYTE	W02
	BYTE		        c_v-55
	BYTE	W01
	BYTE		        c_v-59
	BYTE	W02
	BYTE		        c_v-64
	BYTE	W02
	BYTE		        c_v+0
	BYTE	W36
	BYTE	W01
// 033   ----------------------------------------
	BYTE	W96
// 034   ----------------------------------------
	BYTE	W96
// 035   ----------------------------------------
	BYTE	W96
// 036   ----------------------------------------
	BYTE	W96
// 037   ----------------------------------------
	BYTE	W96
// 038   ----------------------------------------
	BYTE	W96
// 039   ----------------------------------------
	BYTE	W96
// 040   ----------------------------------------
	BYTE	W96
// 041   ----------------------------------------
	BYTE	W96
// 042   ----------------------------------------
	BYTE	W96
// 043   ----------------------------------------
	BYTE	W96
// 044   ----------------------------------------
	BYTE	W48
	BYTE	GoTo
	 POIN2	GameCorner_12_B1
GameCorner_12_B2:
	BYTE	W11
	BYTE	FINE

//******************************************************//
	ALIGN 4

GameCorner:
	BYTE	12	// NumTrks
	BYTE	0	// NumBlks
	BYTE	GameCorner_pri	// Priority
	BYTE	GameCorner_rev	// Reverb.

	POIN2	GameCorner_grp

	POIN2	GameCorner_1
	POIN2	GameCorner_2
	POIN2	GameCorner_3
	POIN2	GameCorner_4
	POIN2	GameCorner_5
	POIN2	GameCorner_6
	POIN2	GameCorner_7
	POIN2	GameCorner_8
	POIN2	GameCorner_9
	POIN2	GameCorner_10
	POIN2	GameCorner_11
	POIN2	GameCorner_12

	
