//Generated with python s2ea
        #include "MPlayDef.event"

        #define    KnightsPride_grp BCVoices
        #define    KnightsPride_pri 0
        #define    KnightsPride_rev 0
        #define    KnightsPride_key 0

        // .rodata
        // KnightsPride
        ALIGN 4

//****************** Track 0 (Midi-Chn.0) ******************//

KnightsPride_0:
        BYTE   KEYSH  KnightsPride_key+0
// 000   ----------------------------------------
        BYTE   TEMPO  100/2
        BYTE           VOICE  40
        BYTE           VOL    31
        BYTE   W11
        BYTE   TEMPO  138/2
        BYTE   W04
        BYTE           N04    En4  v113
        BYTE   W03
        BYTE                   Fs4  v114
        BYTE   W03
        BYTE                   Gn4  v115
        BYTE   W03
        BYTE                   An4  v116
        BYTE   W03
        BYTE                   Bn4  v117
        BYTE   W03
        BYTE                   Cn5  v118
        BYTE   W03
        BYTE                   Dn5  v119
        BYTE   W03
        BYTE           N13    En5  v120
        BYTE   W12
        BYTE                   Bn4  v119
        BYTE   W12
        BYTE           N07    En4  v117
        BYTE   W24
        BYTE           N13    Dn5  v119
        BYTE   W12
// 001   ----------------------------------------
        BYTE           N07    An4  v116
        BYTE   W24
        BYTE           N13    Cn5  v118
        BYTE   W12
        BYTE                   Gn4  v115
        BYTE   W12
        BYTE                   Dn4  v114
        BYTE   W12
        BYTE                   Bn4  v115
        BYTE   W12
        BYTE                   Fn4  v117
        BYTE   W12
        BYTE                   En5  v120
        BYTE   W12
// 002   ----------------------------------------
        BYTE                   Bn4  v119
        BYTE   W12
        BYTE           N07    En4  v117
        BYTE   W24
        BYTE           N13    Dn5  v119
        BYTE   W12
        BYTE           N07    An4  v116
        BYTE   W24
        BYTE           N13    Cn5  v118
        BYTE   W12
        BYTE                   Dn4  v115
        BYTE   W12
// 003   ----------------------------------------
        BYTE                   Gn4  v114
        BYTE   W12
        BYTE                   An4  v115
        BYTE   W12
        BYTE                   Dn5  v117
        BYTE   W06
KnightsPride_0_LOOP:
        BYTE   W06
        BYTE           N11    En5  v120
        BYTE   W12
        BYTE                   Bn4  v119
        BYTE   W12
        BYTE           N06    En4  v117
        BYTE   W24
        BYTE           N11    Dn5  v119
        BYTE   W12
// 004   ----------------------------------------
KnightsPride_0_4:
        BYTE           N06    An4  v116
        BYTE   W24
        BYTE           N11    Cn5  v118
        BYTE   W12
        BYTE                   Gn4  v115
        BYTE   W12
        BYTE                   Dn4  v114
        BYTE   W12
        BYTE                   Bn4  v115
        BYTE   W12
        BYTE                   Fn4  v117
        BYTE   W12
        BYTE                   En5  v120
        BYTE   W12
        BYTE   PEND
// 005   ----------------------------------------
KnightsPride_0_5:
        BYTE           N11    Bn4  v119
        BYTE   W12
        BYTE           N06    En4  v117
        BYTE   W24
        BYTE           N11    Dn5  v119
        BYTE   W12
        BYTE           N06    An4  v116
        BYTE   W24
        BYTE           N11    Cn5  v118
        BYTE   W12
        BYTE                   Dn4  v115
        BYTE   W12
        BYTE   PEND
// 006   ----------------------------------------
        BYTE                   Gn4  v114
        BYTE   W12
        BYTE           N05    An4
        BYTE   W06
        BYTE                   Bn4  v115
        BYTE   W06
        BYTE                   Cn5  v116
        BYTE   W06
        BYTE                   Dn5  v117
        BYTE   W06
        BYTE           N22    En5  v118
        BYTE   W60
// 007   ----------------------------------------
        BYTE   W96
// 008   ----------------------------------------
        BYTE   W96
// 009   ----------------------------------------
        BYTE   W96
// 010   ----------------------------------------
        BYTE   W96
// 011   ----------------------------------------
        BYTE   W96
// 012   ----------------------------------------
        BYTE   W96
// 013   ----------------------------------------
        BYTE   W96
// 014   ----------------------------------------
        BYTE   W96
// 015   ----------------------------------------
        BYTE   W96
// 016   ----------------------------------------
        BYTE   W96
// 017   ----------------------------------------
        BYTE   W96
// 018   ----------------------------------------
        BYTE   W12
        BYTE           N05    An4  v113
        BYTE   W06
        BYTE                   Bn4  v114
        BYTE   W06
        BYTE                   Cn5  v115
        BYTE   W06
        BYTE                   Dn5  v116
        BYTE   W06
        BYTE           N11    En5  v120
        BYTE   W12
        BYTE                   Bn4  v119
        BYTE   W12
        BYTE           N06    En4  v117
        BYTE   W24
        BYTE           N11    Dn5  v119
        BYTE   W12
// 019   ----------------------------------------
        BYTE   PATT
         POIN2  KnightsPride_0_4
// 020   ----------------------------------------
        BYTE   PATT
         POIN2  KnightsPride_0_5
// 021   ----------------------------------------
        BYTE           N11    Gn4  v114
        BYTE   W12
        BYTE                   An4  v115
        BYTE   W12
        BYTE                   Dn5  v117
        BYTE   W12
        BYTE                   En5  v120
        BYTE   W12
        BYTE                   Bn4  v119
        BYTE   W12
        BYTE           N06    En4  v117
        BYTE   W24
        BYTE           N11    Dn5  v119
        BYTE   W12
// 022   ----------------------------------------
        BYTE   PATT
         POIN2  KnightsPride_0_4
// 023   ----------------------------------------
        BYTE   PATT
         POIN2  KnightsPride_0_5
// 024   ----------------------------------------
        BYTE           N11    Gn4  v114
        BYTE   W12
        BYTE           N05    An3
        BYTE   W06
        BYTE                   Bn3  v115
        BYTE   W06
        BYTE                   Cn4  v116
        BYTE   W06
        BYTE                   Dn4  v117
        BYTE   W06
        BYTE           N44    En4  v118  gtp3
        BYTE   W48
        BYTE           N11    Dn4  v117
        BYTE   W12
// 025   ----------------------------------------
        BYTE                   En4  v118
        BYTE   W12
        BYTE           N22    Fs4  v119
        BYTE   W24
        BYTE                   Dn4  v117
        BYTE   W24
        BYTE                   An3  v115
        BYTE   W24
        BYTE                   Bn3  v116
        BYTE   W12
// 026   ----------------------------------------
        BYTE   W12
        BYTE           N92    En4  v118
        BYTE   W84
// 027   ----------------------------------------
        BYTE   W12
        BYTE           N11    En4  v117
        BYTE   W12
        BYTE                   Fs4  v118
        BYTE   W12
        BYTE           N44    Gn4  v119  gtp3
        BYTE   W48
        BYTE           N11    Fs4  v118
        BYTE   W12
// 028   ----------------------------------------
        BYTE                   Gn4  v119
        BYTE   W12
        BYTE           N23    An4  v120
        BYTE   W24
        BYTE                   Bn4  v121
        BYTE   W24
        BYTE                   Cn5  v122
        BYTE   W24
        BYTE           N92    Bn4  v121  gtp2
        BYTE   W12
// 029   ----------------------------------------
        BYTE   W96
// 030   ----------------------------------------
        BYTE   W96
// 031   ----------------------------------------
        BYTE   W96
// 032   ----------------------------------------
        BYTE   W96
// 033   ----------------------------------------
        BYTE   W96
// 034   ----------------------------------------
        BYTE   W96
// 035   ----------------------------------------
        BYTE   W96
// 036   ----------------------------------------
        BYTE   W96
// 037   ----------------------------------------
        BYTE   W96
// 038   ----------------------------------------
        BYTE   W96
// 039   ----------------------------------------
        BYTE   W12
        BYTE           N23    Bn4  v116
        BYTE   W24
        BYTE           N44    Fs5  v118  gtp3
        BYTE   W48
        BYTE           N11    En5  v117
        BYTE   W12
// 040   ----------------------------------------
        BYTE                   Fs5  v118
        BYTE   W12
        BYTE           N44    Gn5  v119  gtp3
        BYTE   W48
        BYTE           N23    An5  v120
        BYTE   W24
        BYTE           N68    Bn5  v121  gtp3
        BYTE   W12
// 041   ----------------------------------------
        BYTE   W60
        BYTE           N44    Fs5  v119  gtp3
        BYTE   W36
// 042   ----------------------------------------
        BYTE   W12
        BYTE           N23    Bn5  v120
        BYTE   W24
        BYTE           N44    Dn6  v121  gtp3
        BYTE   W48
        BYTE           N11    Cn6  v120
        BYTE   W12
// 043   ----------------------------------------
        BYTE                   Bn5  v119
        BYTE   W12
        BYTE           N23    Cn6  v121
        BYTE   W24
        BYTE                   En5  v117
        BYTE   W24
        BYTE                   An5  v119
        BYTE   W24
        BYTE           N68    Fs5  v118  gtp3
        BYTE   W12
// 044   ----------------------------------------
        BYTE   W60
        BYTE           N44    Dn5  v117  gtp3
        BYTE   W36
// 045   ----------------------------------------
        BYTE   W12
        BYTE           N23    Bn4  v115
        BYTE   W24
        BYTE           N44    Fs5  v118  gtp2
        BYTE   W48
        BYTE           N11    En5  v117
        BYTE   W12
// 046   ----------------------------------------
        BYTE                   Fs5  v118
        BYTE   W12
        BYTE           N44    Gn5  v119  gtp3
        BYTE   W48
        BYTE           N23    Bn5  v120
        BYTE   W24
        BYTE           N44    Dn6  v121  gtp3
        BYTE   W12
// 047   ----------------------------------------
        BYTE   W36
        BYTE           N23    Cs6  v120
        BYTE   W24
        BYTE           N32    Bn5  v119  gtp3
        BYTE   W36
// 048   ----------------------------------------
        BYTE   W12
        BYTE           N21    Fs5  v120
        BYTE   W24
        BYTE           N44    Fs5  v121  gtp3
        BYTE   W48
        BYTE           N23    En5  v120
        BYTE   W12
// 049   ----------------------------------------
        BYTE   W12
        BYTE           N44    Gn4  v118  gtp3
        BYTE   W48
        BYTE           N23    Cn5  v119
        BYTE   W24
        BYTE           N68    Bn4  v118  gtp3
        BYTE   W12
// 050   ----------------------------------------
        BYTE   W60
        BYTE           N44    An4  v117  gtp3
        BYTE   W36
// 051   ----------------------------------------
        BYTE   W12
        BYTE           N11    Gn4  v116
        BYTE   W12
        BYTE                   Fs4  v115
        BYTE   W12
        BYTE           TIE    En4  v114
        BYTE   W60
// 052   ----------------------------------------
        BYTE   W96
// 053   ----------------------------------------
        BYTE   W96
// 054   ----------------------------------------
        BYTE   W10
        BYTE           EOT
        BYTE   W84
        BYTE   W02
// 055   ----------------------------------------
        BYTE   W96
// 056   ----------------------------------------
        BYTE   W96
// 057   ----------------------------------------
        BYTE   W15
        BYTE           N02    En4  v113
        BYTE   W03
        BYTE                   Fs4  v114
        BYTE   W03
        BYTE                   Gn4  v115
        BYTE   W03
        BYTE                   An4  v116
        BYTE   W03
        BYTE                   Bn4  v117
        BYTE   W03
        BYTE                   Cn5  v118
        BYTE   W03
        BYTE           N01    Dn5  v119
        BYTE   W03
        BYTE           N11    En5  v120
        BYTE   W12
        BYTE                   Bn4  v119
        BYTE   W12
        BYTE           N06    En4  v117
        BYTE   W24
        BYTE           N11    Dn5  v119
        BYTE   W12
// 058   ----------------------------------------
        BYTE   PATT
         POIN2  KnightsPride_0_4
// 059   ----------------------------------------
        BYTE   PATT
         POIN2  KnightsPride_0_5
// 060   ----------------------------------------
        BYTE           N11    Gn4  v114
        BYTE   W12
        BYTE                   An4  v115
        BYTE   W12
        BYTE                   Dn5  v117
        BYTE   W06
        BYTE   GoTo
         POIN2  KnightsPride_0_LOOP
        BYTE   W30
        BYTE   FINE

//****************** Track 1 (Midi-Chn.1) ******************//

KnightsPride_1:
        BYTE   KEYSH  KnightsPride_key+0
// 000   ----------------------------------------
        BYTE           VOICE  40
        BYTE           VOL    36
        BYTE           PAN    c_v-27
        BYTE   W15
        BYTE           N04    En3  v113
        BYTE   W03
        BYTE                   Fs3  v114
        BYTE   W03
        BYTE                   Gn3  v115
        BYTE   W03
        BYTE                   An3  v116
        BYTE   W03
        BYTE                   Bn3  v117
        BYTE   W03
        BYTE                   Cn4  v118
        BYTE   W03
        BYTE                   Dn4  v119
        BYTE   W03
        BYTE           N12    En4  v120
        BYTE   W60
// 001   ----------------------------------------
        BYTE   W96
// 002   ----------------------------------------
        BYTE   W96
// 003   ----------------------------------------
        BYTE   W30
KnightsPride_1_LOOP:
        BYTE   W66
// 004   ----------------------------------------
        BYTE   W96
// 005   ----------------------------------------
        BYTE   W96
// 006   ----------------------------------------
        BYTE   W12
        BYTE           N07    An3  v114
        BYTE   W06
        BYTE                   Bn3  v115
        BYTE   W06
        BYTE                   Cn4  v116
        BYTE   W06
        BYTE                   Dn4  v117
        BYTE   W06
        BYTE           N24    En4  v118
        BYTE   W60
// 007   ----------------------------------------
        BYTE   W96
// 008   ----------------------------------------
        BYTE   W96
// 009   ----------------------------------------
        BYTE   W96
// 010   ----------------------------------------
        BYTE   W96
// 011   ----------------------------------------
        BYTE   W96
// 012   ----------------------------------------
        BYTE   W96
// 013   ----------------------------------------
        BYTE   W96
// 014   ----------------------------------------
        BYTE   W96
// 015   ----------------------------------------
        BYTE   W96
// 016   ----------------------------------------
        BYTE   W96
// 017   ----------------------------------------
        BYTE   W96
// 018   ----------------------------------------
        BYTE   W12
        BYTE           N07    An3  v114
        BYTE   W06
        BYTE                   Bn3  v115
        BYTE   W06
        BYTE                   Cn4  v116
        BYTE   W06
        BYTE                   Dn4  v117
        BYTE   W06
        BYTE           N12    En4  v118
        BYTE   W60
// 019   ----------------------------------------
        BYTE   W96
// 020   ----------------------------------------
        BYTE   W96
// 021   ----------------------------------------
        BYTE   W96
// 022   ----------------------------------------
        BYTE   W96
// 023   ----------------------------------------
        BYTE   W96
// 024   ----------------------------------------
        BYTE   W12
        BYTE           N07    An2  v113
        BYTE   W06
        BYTE                   Bn2  v114
        BYTE   W06
        BYTE                   Cn3  v115
        BYTE   W06
        BYTE                   Dn3  v116
        BYTE   W06
        BYTE           N48    En3  v117  gtp1
        BYTE   W48
        BYTE           N13    Dn3  v116
        BYTE   W12
// 025   ----------------------------------------
        BYTE                   En3  v117
        BYTE   W12
        BYTE           N24    Fs3  v119
        BYTE   W24
        BYTE                   Dn3  v118
        BYTE   W24
        BYTE                   An2  v115
        BYTE   W24
        BYTE                   Bn2  v116  gtp1
        BYTE   W12
// 026   ----------------------------------------
        BYTE   W12
        BYTE           N92    En3  v117  gtp2
        BYTE   W84
// 027   ----------------------------------------
        BYTE   W12
        BYTE           N13    En3  v116
        BYTE   W12
        BYTE                   Fs3  v117
        BYTE   W12
        BYTE           N48    Gn3  v118  gtp1
        BYTE   W48
        BYTE           N13    Fs3  v117
        BYTE   W12
// 028   ----------------------------------------
        BYTE                   Gn3  v118
        BYTE   W12
        BYTE           N24    An3  v119  gtp1
        BYTE   W24
        BYTE                   Bn3  v120
        BYTE   W24
        BYTE                   Cn4  v121
        BYTE   W24
        BYTE           N96    Bn3  v120
        BYTE   W12
// 029   ----------------------------------------
        BYTE   W96
// 030   ----------------------------------------
        BYTE   W12
        BYTE           N24    Bn3  v118  gtp1
        BYTE   W24
        BYTE           N48    Dn4  v121  gtp1
        BYTE   W48
        BYTE           N13    Cs4  v120
        BYTE   W12
// 031   ----------------------------------------
        BYTE                   Bn3  v119
        BYTE   W12
        BYTE           N48    Fs3  v116  gtp1
        BYTE   W48
        BYTE           N24    Bn3  v118  gtp1
        BYTE   W24
        BYTE           N48    An3  v117  gtp1
        BYTE   W12
// 032   ----------------------------------------
        BYTE   W36
        BYTE           N24    Fs3  v116  gtp1
        BYTE   W24
        BYTE           N44    Cs4  v119  gtp2
        BYTE   W36
// 033   ----------------------------------------
        BYTE   W12
        BYTE           N13
        BYTE   W12
        BYTE                   Dn4  v120
        BYTE   W12
        BYTE           N48    En4  v121  gtp1
        BYTE   W48
        BYTE           N13    Dn4  v120
        BYTE   W12
// 034   ----------------------------------------
        BYTE                   Cs4  v119
        BYTE   W12
        BYTE           N48    Bn3  v118  gtp1
        BYTE   W48
        BYTE           N24    Dn4  v119
        BYTE   W24
        BYTE           N48    Fs4  v121  gtp1
        BYTE   W12
// 035   ----------------------------------------
        BYTE   W36
        BYTE           N24    En4  v120  gtp1
        BYTE   W24
        BYTE           N48    An4  v121  gtp1
        BYTE   W36
// 036   ----------------------------------------
        BYTE   W12
        BYTE           N24    Bn4  v122  gtp1
        BYTE   W24
        BYTE           TIE    Fs4  v121
        BYTE   W60
// 037   ----------------------------------------
        BYTE   W96
// 038   ----------------------------------------
        BYTE   W96
// 039   ----------------------------------------
        BYTE   W07
        BYTE           EOT
        BYTE   W88
        BYTE   W01
// 040   ----------------------------------------
        BYTE   W96
// 041   ----------------------------------------
        BYTE   W96
// 042   ----------------------------------------
        BYTE   W96
// 043   ----------------------------------------
        BYTE   W96
// 044   ----------------------------------------
        BYTE   W96
// 045   ----------------------------------------
        BYTE   W96
// 046   ----------------------------------------
        BYTE   W96
// 047   ----------------------------------------
        BYTE   W96
// 048   ----------------------------------------
        BYTE   W96
// 049   ----------------------------------------
        BYTE   W96
// 050   ----------------------------------------
        BYTE   W96
// 051   ----------------------------------------
        BYTE   W96
// 052   ----------------------------------------
        BYTE   W96
// 053   ----------------------------------------
        BYTE   W96
// 054   ----------------------------------------
        BYTE   W96
// 055   ----------------------------------------
        BYTE   W96
// 056   ----------------------------------------
        BYTE   W96
// 057   ----------------------------------------
        BYTE   W15
        BYTE           N04    En3  v113
        BYTE   W03
        BYTE                   Fs3
        BYTE   W03
        BYTE                   Gn3  v114
        BYTE   W03
        BYTE                   An3  v115
        BYTE   W03
        BYTE                   Bn3  v116
        BYTE   W03
        BYTE                   Cn4  v117
        BYTE   W03
        BYTE           N03    Dn4  v118
        BYTE   W03
        BYTE           N12    En4  v120
        BYTE   W60
// 058   ----------------------------------------
        BYTE   W96
// 059   ----------------------------------------
        BYTE   W96
// 060   ----------------------------------------
        BYTE   W30
        BYTE   GoTo
         POIN2  KnightsPride_1_LOOP
        BYTE   W30
        BYTE   FINE

//****************** Track 2 (Midi-Chn.2) ******************//

KnightsPride_2:
        BYTE   KEYSH  KnightsPride_key+0
// 000   ----------------------------------------
        BYTE           PAN    c_v+20
        BYTE           VOICE  41
        BYTE           VOL    47
        BYTE   W96
// 001   ----------------------------------------
        BYTE   W96
// 002   ----------------------------------------
        BYTE   W96
// 003   ----------------------------------------
        BYTE   W30
KnightsPride_2_LOOP:
        BYTE   W66
// 004   ----------------------------------------
        BYTE   W96
// 005   ----------------------------------------
        BYTE   W96
// 006   ----------------------------------------
KnightsPride_2_6:
        BYTE   W36
        BYTE           N68    En2  v101  gtp3
        BYTE                   Gn2
        BYTE   W60
        BYTE   PEND
// 007   ----------------------------------------
KnightsPride_2_7:
        BYTE   W12
        BYTE           N68    Fs2  v102  gtp3
        BYTE                   An2
        BYTE   W72
        BYTE           N68    Gn2  v103  gtp2
        BYTE                   Bn2
        BYTE   W12
        BYTE   PEND
// 008   ----------------------------------------
KnightsPride_2_8:
        BYTE   W60
        BYTE           N23    Fs2  v102
        BYTE           N23    An2
        BYTE   W24
        BYTE           N44    Gn2  v103  gtp3
        BYTE                   Bn2
        BYTE   W12
        BYTE   PEND
// 009   ----------------------------------------
KnightsPride_2_9:
        BYTE   W36
        BYTE           TIE    An2  v105
        BYTE           TIE    Cn3
        BYTE   W60
        BYTE   PEND
// 010   ----------------------------------------
KnightsPride_2_10:
        BYTE   W80
        BYTE   W03
        BYTE           EOT    An2
        BYTE                   Cn3
        BYTE   W01
        BYTE           N68    Gn2  v103  gtp3
        BYTE                   Bn2
        BYTE   W12
        BYTE   PEND
// 011   ----------------------------------------
        BYTE   W60
        BYTE                   Fs2  v102
        BYTE           N68    An2  v102  gtp3
        BYTE   W36
// 012   ----------------------------------------
        BYTE   PATT
         POIN2  KnightsPride_2_6
// 013   ----------------------------------------
        BYTE   W12
        BYTE           N68    Fs2  v102  gtp3
        BYTE                   An2
        BYTE   W72
        BYTE           TIE    Gn2  v103
        BYTE           TIE    Bn2
        BYTE   W12
// 014   ----------------------------------------
        BYTE   W96
// 015   ----------------------------------------
        BYTE   W96
// 016   ----------------------------------------
        BYTE   W11
        BYTE           EOT
        BYTE   W01
        BYTE           N68    Dn3  v105  gtp3
        BYTE   W22
        BYTE           EOT    Gn2
        BYTE   W02
        BYTE           N23    An2  v103
        BYTE   W24
        BYTE                   Bn2  v105
        BYTE   W24
        BYTE           TIE    An2
        BYTE           N68    En3  v105  gtp3
        BYTE   W12
// 017   ----------------------------------------
        BYTE   W60
        BYTE                   Fn3  v106
        BYTE   W36
// 018   ----------------------------------------
        BYTE   W32
        BYTE   W02
        BYTE           EOT    An2
        BYTE   W60
        BYTE   W02
// 019   ----------------------------------------
        BYTE   W96
// 020   ----------------------------------------
        BYTE   W96
// 021   ----------------------------------------
        BYTE   W96
// 022   ----------------------------------------
        BYTE   W96
// 023   ----------------------------------------
        BYTE   W96
// 024   ----------------------------------------
        BYTE   PATT
         POIN2  KnightsPride_2_6
// 025   ----------------------------------------
        BYTE   PATT
         POIN2  KnightsPride_2_7
// 026   ----------------------------------------
        BYTE   PATT
         POIN2  KnightsPride_2_8
// 027   ----------------------------------------
        BYTE   PATT
         POIN2  KnightsPride_2_9
// 028   ----------------------------------------
        BYTE   PATT
         POIN2  KnightsPride_2_10
// 029   ----------------------------------------
        BYTE   W60
        BYTE           N44    Fs2  v102  gtp3
        BYTE                   An2
        BYTE   W36
// 030   ----------------------------------------
        BYTE   W12
        BYTE           N22    En2  v101
        BYTE           N22    Gn2
        BYTE   W24
        BYTE           N06    Fs2  v113
        BYTE           N06    Bn2
        BYTE   W12
        BYTE           N08    Fs2  v107
        BYTE           N08    Bn2
        BYTE   W24
        BYTE                   Fs2  v110
        BYTE           N08    Bn2
        BYTE   W24
// 031   ----------------------------------------
        BYTE           N06    Fs2  v112
        BYTE           N06    Bn2
        BYTE   W12
        BYTE           N08    Fs2  v113
        BYTE           N08    Bn2
        BYTE   W24
        BYTE                   Fs2  v107
        BYTE           N08    Bn2
        BYTE   W24
        BYTE                   Fs2  v110
        BYTE           N08    Bn2
        BYTE   W24
        BYTE           N06    Fs2  v113
        BYTE           N06    An2
        BYTE   W12
// 032   ----------------------------------------
        BYTE           N08    Fs2  v107
        BYTE           N08    An2
        BYTE   W24
        BYTE                   Fs2  v110
        BYTE           N08    An2
        BYTE   W24
        BYTE           N06    Fs2  v112
        BYTE           N06    An2
        BYTE   W12
        BYTE           N08    Fs2  v113
        BYTE           N08    An2
        BYTE   W24
        BYTE                   Gs2  v107
        BYTE           N08    Bn2
        BYTE   W12
// 033   ----------------------------------------
        BYTE   W12
        BYTE                   An2  v110
        BYTE           N08    Cs3
        BYTE   W24
        BYTE           N06    Gn2  v113
        BYTE           N06    En3
        BYTE   W12
        BYTE           N08    Gn2  v107
        BYTE           N08    En3
        BYTE   W24
        BYTE                   Gn2  v110
        BYTE           N08    En3
        BYTE   W24
// 034   ----------------------------------------
        BYTE           N06    Gn2  v112
        BYTE           N06    En3
        BYTE   W12
        BYTE           N08    Gn2  v113
        BYTE           N08    En3
        BYTE   W24
        BYTE                   Gn2  v107
        BYTE           N08    En3
        BYTE   W24
        BYTE                   Gn2  v110
        BYTE           N08    En3
        BYTE   W24
        BYTE           N06    Gn2  v113
        BYTE           N06    En3
        BYTE   W12
// 035   ----------------------------------------
        BYTE           N08    Gn2  v107
        BYTE           N08    En3
        BYTE   W24
        BYTE                   Gn2  v110
        BYTE           N08    En3
        BYTE   W24
        BYTE           N06    Gn2  v112
        BYTE           N06    En3
        BYTE   W12
        BYTE           N08    Gn2  v113
        BYTE           N08    En3
        BYTE   W24
        BYTE                   Gn2  v107
        BYTE           N08    En3
        BYTE   W12
// 036   ----------------------------------------
        BYTE   W12
        BYTE                   Gn2  v110
        BYTE           N08    En3
        BYTE   W24
        BYTE           N06    En2  v113
        BYTE           N06    Bn2
        BYTE   W12
        BYTE           N08    En2  v107
        BYTE           N08    Bn2
        BYTE   W24
        BYTE                   En2  v110
        BYTE           N08    Bn2
        BYTE   W24
// 037   ----------------------------------------
        BYTE           N06    En2  v112
        BYTE           N06    Bn2
        BYTE   W12
        BYTE           N08    En2  v113
        BYTE           N08    Bn2
        BYTE   W24
        BYTE                   En2  v107
        BYTE           N08    Bn2
        BYTE   W24
        BYTE                   En2  v110
        BYTE           N08    Bn2
        BYTE   W24
        BYTE           N06    Fs2  v113
        BYTE           N06    Bn2
        BYTE   W12
// 038   ----------------------------------------
        BYTE           N08    Fs2  v107
        BYTE           N08    Bn2
        BYTE   W24
        BYTE                   Fs2  v110
        BYTE           N08    Bn2
        BYTE   W24
        BYTE           N06    Fs2  v112
        BYTE           N06    Bn2
        BYTE   W12
        BYTE           N08    Fs2  v113
        BYTE           N08    Bn2
        BYTE   W24
        BYTE                   Fs2  v107
        BYTE           N08    Bn2
        BYTE   W12
// 039   ----------------------------------------
        BYTE   W60
        BYTE           N23    Gn2  v113
        BYTE   W24
        BYTE                   An2  v114
        BYTE   W12
// 040   ----------------------------------------
        BYTE   W12
        BYTE           N44    Bn2  v115  gtp3
        BYTE   W48
        BYTE           N23    En3  v117
        BYTE   W24
        BYTE           N92    Dn3  v116  gtp2
        BYTE   W12
// 041   ----------------------------------------
        BYTE   W84
        BYTE           N23    Bn2  v114
        BYTE   W12
// 042   ----------------------------------------
        BYTE   W12
        BYTE                   Dn3  v115
        BYTE   W24
        BYTE           TIE    En3  v116
        BYTE   W60
// 043   ----------------------------------------
        BYTE   W80
        BYTE   W03
        BYTE           EOT
        BYTE   W01
        BYTE           N44    Dn3  v115  gtp3
        BYTE   W12
// 044   ----------------------------------------
KnightsPride_2_44:
        BYTE   W36
        BYTE           N11    Cn3  v114
        BYTE   W12
        BYTE                   Bn2  v113
        BYTE   W12
        BYTE           N44    An2  v112  gtp3
        BYTE   W36
        BYTE   PEND
// 045   ----------------------------------------
        BYTE   W12
        BYTE           N23    Fs2  v109
        BYTE   W24
        BYTE           N44    Gn2  v110  gtp3
        BYTE   W48
        BYTE           N23    An2  v112
        BYTE   W12
// 046   ----------------------------------------
        BYTE   W12
        BYTE           N44    Bn2  v113  gtp3
        BYTE   W48
        BYTE           N23    En3  v115
        BYTE   W24
        BYTE           N92    Dn3  v114  gtp3
        BYTE   W12
// 047   ----------------------------------------
        BYTE   W84
        BYTE           N23    En3  v115
        BYTE   W12
// 048   ----------------------------------------
        BYTE   W12
        BYTE                   Fs3  v116
        BYTE   W24
        BYTE           N92    Cn3  v113  gtp3
        BYTE   W60
// 049   ----------------------------------------
        BYTE   W36
        BYTE           N23    Dn3  v114
        BYTE   W24
        BYTE                   En3  v115
        BYTE   W24
        BYTE           N44    Dn3  v114  gtp3
        BYTE   W12
// 050   ----------------------------------------
        BYTE   W36
        BYTE           N23    En3  v115
        BYTE   W24
        BYTE           N44    Fs3  v116  gtp3
        BYTE   W36
// 051   ----------------------------------------
        BYTE   W12
        BYTE           N23    Dn3  v114
        BYTE   W24
        BYTE           TIE    En3  v113
        BYTE   W60
// 052   ----------------------------------------
        BYTE   W80
        BYTE   W02
        BYTE           EOT
        BYTE   W02
        BYTE           TIE    An2  v107
        BYTE           TIE    Cs3
        BYTE   W12
// 053   ----------------------------------------
        BYTE   W96
// 054   ----------------------------------------
        BYTE   W32
        BYTE   W03
        BYTE           EOT    An2
        BYTE                   Cs3
        BYTE   W01
        BYTE           TIE    Bn2  v108
        BYTE           TIE    Dn3
        BYTE   W60
// 055   ----------------------------------------
        BYTE   W80
        BYTE   W03
        BYTE           EOT    Bn2
        BYTE                   Dn3
        BYTE   W01
        BYTE           TIE    Cs3  v109
        BYTE           TIE    En3
        BYTE   W12
// 056   ----------------------------------------
        BYTE   W96
// 057   ----------------------------------------
        BYTE   W10
        BYTE           EOT    Cs3
        BYTE                   En3
        BYTE   W24
        BYTE   W02
        BYTE           N10    Fn2  v110
        BYTE   W24
        BYTE           N11    Cn3  v113
        BYTE   W12
        BYTE           N05    Gn2  v110
        BYTE   W24
// 058   ----------------------------------------
        BYTE           N10    An2  v112
        BYTE   W24
        BYTE           N11    Bn2  v114
        BYTE   W12
        BYTE                   An2  v113
        BYTE   W12
        BYTE                   Gn2  v112
        BYTE   W12
        BYTE                   Fn2  v110
        BYTE   W12
        BYTE                   Cn2  v109
        BYTE   W12
        BYTE           N10    En2  v110
        BYTE   W12
// 059   ----------------------------------------
        BYTE   W12
        BYTE           N11    Bn2  v113
        BYTE   W12
        BYTE           N05    Fs2  v110
        BYTE   W24
        BYTE           N10    An2  v112
        BYTE   W24
        BYTE           N11    Gn2  v113
        BYTE   W12
        BYTE                   Fs2  v114
        BYTE   W12
// 060   ----------------------------------------
        BYTE                   Gn2  v113
        BYTE   W12
        BYTE                   Fs2  v112
        BYTE   W12
        BYTE                   Dn2  v110
        BYTE   W06
        BYTE   GoTo
         POIN2  KnightsPride_2_LOOP
        BYTE   W30
        BYTE   FINE

//****************** Track 3 (Midi-Chn.4) ******************//

KnightsPride_3:
        BYTE   KEYSH  KnightsPride_key+0
// 000   ----------------------------------------
        BYTE           VOICE  2
        BYTE           VOL    50
        BYTE   W01
        BYTE                   44
        BYTE           PAN    c_v+47
        BYTE   W32
        BYTE   W03
        BYTE           N07    En0  v123
        BYTE   W12
        BYTE           N10    En0  v118
        BYTE   W24
        BYTE           N07    En0  v121
        BYTE   W24
// 001   ----------------------------------------
KnightsPride_3_1:
        BYTE   W12
        BYTE           N10    En0  v123
        BYTE   W24
        BYTE                   En0  v118
        BYTE   W24
        BYTE                   En0  v121
        BYTE   W24
        BYTE                   En0  v123
        BYTE   W12
        BYTE   PEND
// 002   ----------------------------------------
KnightsPride_3_2:
        BYTE   W24
        BYTE           N07    En0  v118
        BYTE   W36
        BYTE           N10    En0  v121
        BYTE   W24
        BYTE                   En0  v118
        BYTE   W12
        BYTE   PEND
// 003   ----------------------------------------
        BYTE   W12
        BYTE                   Bn0  v121
        BYTE   W18
KnightsPride_3_LOOP:
        BYTE   W06
        BYTE           N07    En0  v123
        BYTE   W12
        BYTE           N10    En0  v118
        BYTE   W24
        BYTE           N07    En0  v121
        BYTE   W24
// 004   ----------------------------------------
        BYTE   PATT
         POIN2  KnightsPride_3_1
// 005   ----------------------------------------
        BYTE   PATT
         POIN2  KnightsPride_3_2
// 006   ----------------------------------------
KnightsPride_3_6:
        BYTE   W12
        BYTE           N10    Bn0  v121
        BYTE   W24
        BYTE           N07    En0  v123
        BYTE   W12
        BYTE           N10    En0  v118
        BYTE   W24
        BYTE           N07    En0  v121
        BYTE   W24
        BYTE   PEND
// 007   ----------------------------------------
        BYTE   PATT
         POIN2  KnightsPride_3_1
// 008   ----------------------------------------
        BYTE   PATT
         POIN2  KnightsPride_3_2
// 009   ----------------------------------------
        BYTE   PATT
         POIN2  KnightsPride_3_6
// 010   ----------------------------------------
        BYTE   PATT
         POIN2  KnightsPride_3_1
// 011   ----------------------------------------
        BYTE   PATT
         POIN2  KnightsPride_3_2
// 012   ----------------------------------------
        BYTE   PATT
         POIN2  KnightsPride_3_6
// 013   ----------------------------------------
        BYTE   PATT
         POIN2  KnightsPride_3_1
// 014   ----------------------------------------
        BYTE   W24
        BYTE           N07    En0  v118
        BYTE   W36
        BYTE           N10    Dn1  v121
        BYTE   W24
        BYTE                   Dn1  v118
        BYTE   W12
// 015   ----------------------------------------
        BYTE   W12
        BYTE                   Dn1  v121
        BYTE   W24
        BYTE                   Cn1  v123
        BYTE   W36
        BYTE           N07    Cn1  v121
        BYTE   W24
// 016   ----------------------------------------
        BYTE   W12
        BYTE           N10    Bn0  v123
        BYTE   W24
        BYTE                   Bn0  v118
        BYTE   W24
        BYTE                   Bn0  v121
        BYTE   W24
        BYTE                   An0  v123
        BYTE   W12
// 017   ----------------------------------------
        BYTE   W24
        BYTE           N07    An0  v118
        BYTE   W36
        BYTE           N10    Fn0  v121
        BYTE   W24
        BYTE                   Fn0  v118
        BYTE   W12
// 018   ----------------------------------------
        BYTE   W12
        BYTE                   Fn0  v121
        BYTE   W24
        BYTE           N07    En0  v123
        BYTE   W12
        BYTE           N10    En0  v118
        BYTE   W24
        BYTE           N07    En0  v121
        BYTE   W24
// 019   ----------------------------------------
        BYTE   PATT
         POIN2  KnightsPride_3_1
// 020   ----------------------------------------
KnightsPride_3_20:
        BYTE   W24
        BYTE           N07    En0  v121
        BYTE   W36
        BYTE           N10    En0  v123
        BYTE   W24
        BYTE                   En0  v118
        BYTE   W12
        BYTE   PEND
// 021   ----------------------------------------
        BYTE   PATT
         POIN2  KnightsPride_3_6
// 022   ----------------------------------------
        BYTE   PATT
         POIN2  KnightsPride_3_1
// 023   ----------------------------------------
        BYTE   PATT
         POIN2  KnightsPride_3_20
// 024   ----------------------------------------
        BYTE   PATT
         POIN2  KnightsPride_3_6
// 025   ----------------------------------------
        BYTE   PATT
         POIN2  KnightsPride_3_1
// 026   ----------------------------------------
        BYTE   PATT
         POIN2  KnightsPride_3_20
// 027   ----------------------------------------
        BYTE   PATT
         POIN2  KnightsPride_3_6
// 028   ----------------------------------------
        BYTE   PATT
         POIN2  KnightsPride_3_1
// 029   ----------------------------------------
        BYTE   PATT
         POIN2  KnightsPride_3_20
// 030   ----------------------------------------
        BYTE   W12
        BYTE           N10    En0  v121
        BYTE   W24
        BYTE                   Bn0  v123
        BYTE   W36
        BYTE           N07    Bn0  v121
        BYTE   W24
// 031   ----------------------------------------
        BYTE   W12
        BYTE           N10    Bn0  v123
        BYTE   W24
        BYTE                   Bn0  v118
        BYTE   W24
        BYTE                   Bn0  v121
        BYTE   W24
        BYTE                   Fs0  v123
        BYTE   W12
// 032   ----------------------------------------
        BYTE   W24
        BYTE           N07    Fs0  v121
        BYTE   W36
        BYTE           N10    Fs0  v123
        BYTE   W24
        BYTE                   Fs0  v118
        BYTE   W12
// 033   ----------------------------------------
        BYTE   W12
        BYTE                   Fs0  v121
        BYTE   W24
        BYTE                   En0  v123
        BYTE   W36
        BYTE           N07    En0  v121
        BYTE   W24
// 034   ----------------------------------------
        BYTE   W12
        BYTE           N10    En0  v123
        BYTE   W24
        BYTE                   En0  v118
        BYTE   W24
        BYTE                   En0  v121
        BYTE   W24
        BYTE                   Cn1  v123
        BYTE   W12
// 035   ----------------------------------------
        BYTE   W24
        BYTE           N07    Cn1  v121
        BYTE   W36
        BYTE           N10    Cn1  v123
        BYTE   W24
        BYTE                   Cn1  v118
        BYTE   W12
// 036   ----------------------------------------
        BYTE   W12
        BYTE                   Cn1  v121
        BYTE   W24
        BYTE                   Cs1  v123
        BYTE   W36
        BYTE           N07    Cs1  v121
        BYTE   W24
// 037   ----------------------------------------
        BYTE   W12
        BYTE           N10    Cs1  v123
        BYTE   W24
        BYTE                   Cs1  v118
        BYTE   W24
        BYTE                   Cs1  v121
        BYTE   W24
        BYTE                   Ds1  v123
        BYTE   W12
// 038   ----------------------------------------
        BYTE   W24
        BYTE           N07    Ds1  v121
        BYTE   W36
        BYTE           N10    Ds1  v123
        BYTE   W24
        BYTE                   Ds1  v118
        BYTE   W12
// 039   ----------------------------------------
        BYTE   W12
        BYTE                   Ds1  v121
        BYTE   W24
        BYTE           TIE    En0  v122
        BYTE   W60
// 040   ----------------------------------------
KnightsPride_3_40:
        BYTE   W84
        BYTE           TIE    Bn0  v123
        BYTE   W01
        BYTE           EOT    En0
        BYTE   W11
        BYTE   PEND
// 041   ----------------------------------------
        BYTE   W96
// 042   ----------------------------------------
KnightsPride_3_42:
        BYTE   W36
        BYTE           TIE    Cn1  v124
        BYTE   W01
        BYTE           EOT    Bn0
        BYTE   W56
        BYTE   W03
        BYTE   PEND
// 043   ----------------------------------------
KnightsPride_3_43:
        BYTE   W84
        BYTE           TIE    Dn1  v125
        BYTE   W01
        BYTE           EOT    Cn1
        BYTE   W11
        BYTE   PEND
// 044   ----------------------------------------
        BYTE   W96
// 045   ----------------------------------------
        BYTE   W36
        BYTE           TIE    En0  v122
        BYTE   W01
        BYTE           EOT    Dn1
        BYTE   W56
        BYTE   W03
// 046   ----------------------------------------
        BYTE   PATT
         POIN2  KnightsPride_3_40
// 047   ----------------------------------------
        BYTE   W96
// 048   ----------------------------------------
        BYTE   PATT
         POIN2  KnightsPride_3_42
// 049   ----------------------------------------
        BYTE   PATT
         POIN2  KnightsPride_3_43
// 050   ----------------------------------------
        BYTE   W96
// 051   ----------------------------------------
        BYTE   W36
        BYTE           N10    En0  v123
        BYTE           N10    En1
        BYTE   W01
        BYTE           EOT    Dn1
        BYTE   W32
        BYTE   W03
        BYTE           N07    En0  v121
        BYTE           N07    En1
        BYTE   W24
// 052   ----------------------------------------
KnightsPride_3_52:
        BYTE   W12
        BYTE           N10    En0  v123
        BYTE           N10    En1
        BYTE   W24
        BYTE                   En0  v118
        BYTE           N10    En1
        BYTE   W24
        BYTE                   En0  v121
        BYTE           N10    En1
        BYTE   W24
        BYTE                   En0  v123
        BYTE           N10    En1
        BYTE   W12
        BYTE   PEND
// 053   ----------------------------------------
KnightsPride_3_53:
        BYTE   W24
        BYTE           N07    En0  v121
        BYTE           N07    En1
        BYTE   W36
        BYTE           N10    En0  v123
        BYTE           N10    En1
        BYTE   W24
        BYTE                   En0  v118
        BYTE           N10    En1
        BYTE   W12
        BYTE   PEND
// 054   ----------------------------------------
        BYTE   W12
        BYTE                   En0  v121
        BYTE           N10    En1
        BYTE   W24
        BYTE                   En0  v123
        BYTE           N10    En1
        BYTE   W36
        BYTE           N07    En0  v121
        BYTE           N07    En1
        BYTE   W24
// 055   ----------------------------------------
        BYTE   PATT
         POIN2  KnightsPride_3_52
// 056   ----------------------------------------
        BYTE   PATT
         POIN2  KnightsPride_3_53
// 057   ----------------------------------------
        BYTE   W12
        BYTE           N10    En0  v121
        BYTE           N10    En1
        BYTE   W24
        BYTE           N07    En0  v123
        BYTE   W12
        BYTE           N10    En0  v118
        BYTE   W24
        BYTE           N07    En0  v121
        BYTE   W24
// 058   ----------------------------------------
        BYTE   PATT
         POIN2  KnightsPride_3_1
// 059   ----------------------------------------
        BYTE   PATT
         POIN2  KnightsPride_3_2
// 060   ----------------------------------------
        BYTE   W12
        BYTE           N10    Bn0  v121
        BYTE   W18
        BYTE   GoTo
         POIN2  KnightsPride_3_LOOP
        BYTE   W30
        BYTE   FINE

//****************** Track 4 (Midi-Chn.6) ******************//

KnightsPride_4:
        BYTE   KEYSH  KnightsPride_key+0
// 000   ----------------------------------------
        BYTE           PAN    c_v+18
        BYTE   W01
        BYTE           VOICE  73
        BYTE           VOL    47
        BYTE   W92
        BYTE   W03
// 001   ----------------------------------------
        BYTE   W96
// 002   ----------------------------------------
        BYTE   W42
        BYTE           N07    Bn3  v107
        BYTE   W06
        BYTE                   Cn4  v108
        BYTE   W06
        BYTE                   Dn4  v109
        BYTE   W06
        BYTE                   En4  v110
        BYTE   W06
        BYTE                   Fs4  v112
        BYTE   W06
        BYTE                   Gn4  v113
        BYTE   W06
        BYTE                   An4  v114
        BYTE   W06
        BYTE                   Bn4  v115
        BYTE   W06
        BYTE                   An4  v114
        BYTE   W06
// 003   ----------------------------------------
        BYTE                   Gn4  v113
        BYTE   W06
        BYTE                   Fs4  v112
        BYTE   W06
        BYTE                   En4  v110
        BYTE   W06
        BYTE                   Dn4  v109
        BYTE   W06
        BYTE                   Cn4  v108
        BYTE   W06
KnightsPride_4_LOOP:
        BYTE           N06    Bn3  v107
        BYTE   W66
// 004   ----------------------------------------
        BYTE   W96
// 005   ----------------------------------------
KnightsPride_4_5:
        BYTE   W36
        BYTE           N05    Bn3  v107
        BYTE   W06
        BYTE                   Cn4
        BYTE   W06
        BYTE                   Dn4  v108
        BYTE   W06
        BYTE                   En4
        BYTE   W06
        BYTE                   Dn4  v109
        BYTE   W06
        BYTE                   En4
        BYTE   W06
        BYTE                   Fs4  v110
        BYTE   W06
        BYTE                   Gn4
        BYTE   W06
        BYTE                   Fs4  v112
        BYTE   W06
        BYTE                   Gn4
        BYTE   W06
        BYTE   PEND
// 006   ----------------------------------------
KnightsPride_4_6:
        BYTE           N05    An4  v113
        BYTE   W06
        BYTE                   Bn4
        BYTE   W06
        BYTE                   An4  v114
        BYTE   W06
        BYTE                   Bn4
        BYTE   W06
        BYTE                   Cn5  v115
        BYTE   W06
        BYTE                   Dn5
        BYTE   W06
        BYTE           N44    En5  v114  gtp2
        BYTE   W60
        BYTE   PEND
// 007   ----------------------------------------
        BYTE   W96
// 008   ----------------------------------------
        BYTE   W96
// 009   ----------------------------------------
        BYTE   W96
// 010   ----------------------------------------
        BYTE   W96
// 011   ----------------------------------------
        BYTE   W96
// 012   ----------------------------------------
        BYTE   W96
// 013   ----------------------------------------
        BYTE   W96
// 014   ----------------------------------------
        BYTE   W96
// 015   ----------------------------------------
        BYTE   W96
// 016   ----------------------------------------
        BYTE   W96
// 017   ----------------------------------------
        BYTE   W96
// 018   ----------------------------------------
        BYTE   W96
// 019   ----------------------------------------
        BYTE   W96
// 020   ----------------------------------------
KnightsPride_4_20:
        BYTE   W42
        BYTE           N05    Bn3  v107
        BYTE   W06
        BYTE                   Cn4  v108
        BYTE   W06
        BYTE                   Dn4  v109
        BYTE   W06
        BYTE                   En4  v110
        BYTE   W06
        BYTE                   Fs4  v112
        BYTE   W06
        BYTE                   Gn4  v113
        BYTE   W06
        BYTE                   An4  v114
        BYTE   W06
        BYTE                   Bn4  v115
        BYTE   W06
        BYTE                   An4  v114
        BYTE   W06
        BYTE   PEND
// 021   ----------------------------------------
        BYTE                   Gn4  v113
        BYTE   W06
        BYTE                   Fs4  v112
        BYTE   W06
        BYTE                   En4  v110
        BYTE   W06
        BYTE                   Dn4  v109
        BYTE   W06
        BYTE                   Cn4  v108
        BYTE   W06
        BYTE           N04    Bn3  v107
        BYTE   W66
// 022   ----------------------------------------
        BYTE   W96
// 023   ----------------------------------------
        BYTE   PATT
         POIN2  KnightsPride_4_5
// 024   ----------------------------------------
        BYTE   PATT
         POIN2  KnightsPride_4_6
// 025   ----------------------------------------
        BYTE   W96
// 026   ----------------------------------------
        BYTE   W96
// 027   ----------------------------------------
        BYTE   W96
// 028   ----------------------------------------
        BYTE   W96
// 029   ----------------------------------------
        BYTE   W96
// 030   ----------------------------------------
        BYTE   W12
        BYTE           N23    Bn4  v113
        BYTE   W24
        BYTE           N44    Dn5  v115  gtp3
        BYTE   W48
        BYTE           N11    Cs5  v114
        BYTE   W12
// 031   ----------------------------------------
        BYTE                   Bn4  v113
        BYTE   W12
        BYTE           N44    Fs4  v110  gtp3
        BYTE   W48
        BYTE           N23    Bn4  v114
        BYTE   W24
        BYTE           N44    An4  v113  gtp3
        BYTE   W12
// 032   ----------------------------------------
        BYTE   W36
        BYTE           N23    Fs4  v110
        BYTE   W24
        BYTE           N44    Cs5  v112  gtp2
        BYTE   W36
// 033   ----------------------------------------
        BYTE   W12
        BYTE           N11    Cs5  v113
        BYTE   W12
        BYTE                   Dn5  v114
        BYTE   W12
        BYTE           N44    En5  v115  gtp3
        BYTE   W48
        BYTE           N11    Dn5  v114
        BYTE   W12
// 034   ----------------------------------------
        BYTE                   Cs5  v113
        BYTE   W12
        BYTE           N44    Bn4  v112  gtp3
        BYTE   W48
        BYTE           N23    Dn5  v113
        BYTE   W24
        BYTE           N44    Fs5  v115  gtp3
        BYTE   W12
// 035   ----------------------------------------
        BYTE   W36
        BYTE           N23    En5  v114
        BYTE   W24
        BYTE           N44    An5  v115  gtp3
        BYTE   W36
// 036   ----------------------------------------
        BYTE   W12
        BYTE           N23    Bn5  v116
        BYTE   W24
        BYTE           TIE    Fs5  v115
        BYTE   W60
// 037   ----------------------------------------
        BYTE   W96
// 038   ----------------------------------------
        BYTE   W96
// 039   ----------------------------------------
        BYTE   W06
        BYTE           EOT
        BYTE   W90
// 040   ----------------------------------------
        BYTE   W96
// 041   ----------------------------------------
        BYTE   W96
// 042   ----------------------------------------
        BYTE   W96
// 043   ----------------------------------------
        BYTE   W96
// 044   ----------------------------------------
        BYTE   W96
// 045   ----------------------------------------
        BYTE   W96
// 046   ----------------------------------------
        BYTE   W96
// 047   ----------------------------------------
        BYTE   W96
// 048   ----------------------------------------
        BYTE   W96
// 049   ----------------------------------------
        BYTE   W96
// 050   ----------------------------------------
        BYTE   W96
// 051   ----------------------------------------
        BYTE   W96
// 052   ----------------------------------------
        BYTE   W96
// 053   ----------------------------------------
        BYTE   W96
// 054   ----------------------------------------
        BYTE   W96
// 055   ----------------------------------------
        BYTE   W96
// 056   ----------------------------------------
        BYTE   W96
// 057   ----------------------------------------
        BYTE   W96
// 058   ----------------------------------------
        BYTE   W96
// 059   ----------------------------------------
        BYTE   PATT
         POIN2  KnightsPride_4_20
// 060   ----------------------------------------
        BYTE           N05    Gn4  v113
        BYTE   W06
        BYTE                   Fs4  v112
        BYTE   W06
        BYTE                   En4  v110
        BYTE   W06
        BYTE                   Dn4  v109
        BYTE   W06
        BYTE                   Cn4  v108
        BYTE   W06
        BYTE                   Bn3  v107
        BYTE   GoTo
         POIN2  KnightsPride_4_LOOP
        BYTE   W30
        BYTE   FINE

//****************** Track 5 (Midi-Chn.8) ******************//

KnightsPride_5:
        BYTE   KEYSH  KnightsPride_key+0
// 000   ----------------------------------------
        BYTE           VOL    67
        BYTE   W02
        BYTE           VOICE  60
        BYTE           VOL    60
        BYTE           PAN    c_v-13
        BYTE   W92
        BYTE   W02
// 001   ----------------------------------------
        BYTE   W96
// 002   ----------------------------------------
        BYTE   W96
// 003   ----------------------------------------
        BYTE   W30
KnightsPride_5_LOOP:
        BYTE   W66
// 004   ----------------------------------------
        BYTE   W96
// 005   ----------------------------------------
        BYTE   W96
// 006   ----------------------------------------
KnightsPride_5_6:
        BYTE   W12
        BYTE           N23    Bn1  v107
        BYTE           N23    Bn2
        BYTE   W24
        BYTE           N44    En2  v110  gtp3
        BYTE                   En3
        BYTE   W48
        BYTE           N11    Dn2  v108
        BYTE           N11    Dn3
        BYTE   W12
        BYTE   PEND
// 007   ----------------------------------------
        BYTE                   En2  v109
        BYTE           N11    En3
        BYTE   W12
        BYTE           N22    Fs2  v110
        BYTE           N22    Fs3
        BYTE   W24
        BYTE                   Dn2  v109
        BYTE           N22    Dn3
        BYTE   W24
        BYTE                   An1  v107
        BYTE           N22    An2
        BYTE   W24
        BYTE           N23    Bn1  v108
        BYTE           N23    Bn2
        BYTE   W12
// 008   ----------------------------------------
KnightsPride_5_8:
        BYTE   W12
        BYTE           N92    En2  v112  gtp1
        BYTE                   En3
        BYTE   W84
        BYTE   PEND
// 009   ----------------------------------------
KnightsPride_5_9:
        BYTE   W12
        BYTE           N11    En2  v110
        BYTE           N11    En3
        BYTE   W12
        BYTE                   Fs2  v112
        BYTE           N11    Fs3
        BYTE   W12
        BYTE           N44    Gn2  v113  gtp3
        BYTE                   Gn3
        BYTE   W48
        BYTE           N11    Fs2  v112
        BYTE           N11    Fs3
        BYTE   W12
        BYTE   PEND
// 010   ----------------------------------------
KnightsPride_5_10:
        BYTE           N11    Gn2  v113
        BYTE           N11    Gn3
        BYTE   W12
        BYTE           N23    An2  v114
        BYTE           N23    An3
        BYTE   W24
        BYTE                   Bn2  v115
        BYTE           N23    Bn3
        BYTE   W24
        BYTE                   Cn3
        BYTE           N23    Cn4
        BYTE   W24
        BYTE           TIE    Bn2  v114
        BYTE           TIE    Bn3
        BYTE   W12
        BYTE   PEND
// 011   ----------------------------------------
        BYTE   W96
// 012   ----------------------------------------
        BYTE   W09
        BYTE           EOT    Bn2
        BYTE                   Bn3
        BYTE   W03
        BYTE           N23    Bn1  v107
        BYTE           N23    Bn2
        BYTE   W24
        BYTE           N44    En2  v110  gtp3
        BYTE                   En3
        BYTE   W48
        BYTE           N11    Dn2  v108
        BYTE           N11    Dn3
        BYTE   W12
// 013   ----------------------------------------
        BYTE                   En2  v109
        BYTE           N11    En3
        BYTE   W12
        BYTE           N22    Fs2  v110
        BYTE           N22    Fs3
        BYTE   W24
        BYTE                   Dn2  v109
        BYTE           N22    Dn3
        BYTE   W24
        BYTE                   An1  v108
        BYTE           N22    An2
        BYTE   W24
        BYTE           N23    Bn1  v110
        BYTE           N23    Bn2
        BYTE   W12
// 014   ----------------------------------------
        BYTE   W12
        BYTE           N44    En2  v112  gtp3
        BYTE                   En3
        BYTE   W48
        BYTE           N23    Fs2  v110
        BYTE   W24
        BYTE                   Gn2  v112
        BYTE   W12
// 015   ----------------------------------------
        BYTE   W12
        BYTE                   An2  v113
        BYTE   W24
        BYTE           N44    Bn2  v114  gtp3
        BYTE   W48
        BYTE           N23    En3  v116
        BYTE   W12
// 016   ----------------------------------------
        BYTE   W12
        BYTE           N44    Dn3  v115  gtp3
        BYTE   W48
        BYTE           N23    Gn2  v112
        BYTE   W12
        BYTE           N11    Bn2  v113
        BYTE   W12
        BYTE           N68    En2  v113  gtp3
        BYTE           TIE    Cn3  v114
        BYTE   W12
// 017   ----------------------------------------
        BYTE   W60
        BYTE           N23    Fn2  v112
        BYTE   W24
        BYTE                   Gn2  v113
        BYTE   W12
// 018   ----------------------------------------
        BYTE   W12
        BYTE                   An2  v114
        BYTE   W23
        BYTE           EOT    Cn3
        BYTE   W01
        BYTE           TIE    Bn2  v115
        BYTE   W60
// 019   ----------------------------------------
        BYTE   W80
        BYTE   W02
        BYTE           EOT
        BYTE   W14
// 020   ----------------------------------------
        BYTE   W96
// 021   ----------------------------------------
        BYTE   W96
// 022   ----------------------------------------
        BYTE   W96
// 023   ----------------------------------------
        BYTE   W96
// 024   ----------------------------------------
        BYTE   PATT
         POIN2  KnightsPride_5_6
// 025   ----------------------------------------
        BYTE           N11    En2  v109
        BYTE           N11    En3
        BYTE   W12
        BYTE           N22    Fs2  v110
        BYTE           N22    Fs3
        BYTE   W24
        BYTE                   Dn2  v109
        BYTE           N22    Dn3
        BYTE   W24
        BYTE                   An1  v108
        BYTE           N22    An2
        BYTE   W24
        BYTE           N23    Bn1  v109
        BYTE           N23    Bn2
        BYTE   W12
// 026   ----------------------------------------
        BYTE   PATT
         POIN2  KnightsPride_5_8
// 027   ----------------------------------------
        BYTE   PATT
         POIN2  KnightsPride_5_9
// 028   ----------------------------------------
        BYTE   PATT
         POIN2  KnightsPride_5_10
// 029   ----------------------------------------
        BYTE   W96
// 030   ----------------------------------------
        BYTE   W10
        BYTE           EOT    Bn2
        BYTE                   Bn3
        BYTE   W84
        BYTE   W02
// 031   ----------------------------------------
        BYTE   W96
// 032   ----------------------------------------
        BYTE   W96
// 033   ----------------------------------------
        BYTE   W96
// 034   ----------------------------------------
        BYTE   W96
// 035   ----------------------------------------
        BYTE   W96
// 036   ----------------------------------------
        BYTE   W36
        BYTE           TIE    Bn2  v112
        BYTE   W60
// 037   ----------------------------------------
        BYTE   W12
        BYTE           N68    En3  v113  gtp3
        BYTE   W72
        BYTE                   Fs3  v114
        BYTE   W12
// 038   ----------------------------------------
        BYTE   W60
        BYTE           N68    Bn3  v115  gtp2
        BYTE   W36
// 039   ----------------------------------------
        BYTE   W32
        BYTE   W02
        BYTE           EOT    Bn2
        BYTE   W02
        BYTE           TIE    Gn2  v113
        BYTE           TIE    Bn2
        BYTE   W60
// 040   ----------------------------------------
        BYTE   W80
        BYTE   W03
        BYTE           EOT    Gn2
        BYTE   W01
        BYTE           TIE    Fs2
        BYTE   W12
// 041   ----------------------------------------
        BYTE   W96
// 042   ----------------------------------------
        BYTE   W32
        BYTE   W03
        BYTE           EOT
        BYTE           EOT    Bn2
        BYTE   W01
        BYTE           TIE    En2  v114
        BYTE           TIE    Cn3
        BYTE   W60
// 043   ----------------------------------------
        BYTE   W80
        BYTE   W03
        BYTE           EOT    En2
        BYTE                   Cn3
        BYTE   W01
        BYTE           TIE    An2
        BYTE           N92    Dn3  v114  gtp2
        BYTE   W12
// 044   ----------------------------------------
        BYTE   W84
        BYTE           N22    En3  v115
        BYTE   W12
// 045   ----------------------------------------
        BYTE   W12
        BYTE                   Fs3
        BYTE   W22
        BYTE           EOT    An2
        BYTE   W02
        BYTE           TIE    Gn2  v113
        BYTE           TIE    Bn2
        BYTE   W60
// 046   ----------------------------------------
        BYTE   W80
        BYTE   W03
        BYTE           EOT    Gn2
        BYTE   W01
        BYTE           TIE    Fs2  v114
        BYTE   W12
// 047   ----------------------------------------
        BYTE   W96
// 048   ----------------------------------------
        BYTE   W09
        BYTE           EOT
        BYTE   W01
        BYTE                   Bn2
        BYTE   W02
        BYTE           N21    Fs2  v112
        BYTE           N21    Fs3
        BYTE   W24
        BYTE           N44    Fs2  v113  gtp3
        BYTE                   Fs3
        BYTE   W48
        BYTE           N23    En2  v112
        BYTE           N23    En3
        BYTE   W12
// 049   ----------------------------------------
        BYTE   W12
        BYTE           N44    Gn1  v109  gtp3
        BYTE                   Gn2
        BYTE   W48
        BYTE           N22    Cn2  v110
        BYTE           N22    Cn3
        BYTE   W24
        BYTE           N68    Bn1  v109  gtp3
        BYTE                   Bn2
        BYTE   W12
// 050   ----------------------------------------
        BYTE   W60
        BYTE           N44    An1  v108  gtp3
        BYTE                   An2
        BYTE   W36
// 051   ----------------------------------------
        BYTE   W12
        BYTE           N11    Gn1
        BYTE           N11    Gn2
        BYTE   W12
        BYTE                   Fs1  v107
        BYTE           N11    Fs2
        BYTE   W12
        BYTE           N68    En1  v107  gtp2
        BYTE                   En2
        BYTE   W60
// 052   ----------------------------------------
        BYTE   W12
        BYTE           N23    Bn1
        BYTE           N23    Bn2
        BYTE   W24
        BYTE                   En2  v109
        BYTE           N23    En3
        BYTE   W24
        BYTE                   An2  v112
        BYTE           N23    An3
        BYTE   W24
        BYTE           TIE    Fs2  v110
        BYTE           TIE    Fs3
        BYTE   W12
// 053   ----------------------------------------
        BYTE   W96
// 054   ----------------------------------------
        BYTE   W32
        BYTE   W03
        BYTE           EOT    Fs2
        BYTE                   Fs3
        BYTE   W01
        BYTE           N68    Gn2  v112  gtp2
        BYTE                   Gn3
        BYTE   W60
// 055   ----------------------------------------
        BYTE   W12
        BYTE           N23    Bn1  v108
        BYTE           N23    Bn2
        BYTE   W24
        BYTE                   Gn2  v109
        BYTE           N23    Gn3
        BYTE   W24
        BYTE                   Bn2  v113
        BYTE           N23    Bn3
        BYTE   W24
        BYTE           N44    An2  v112  gtp3
        BYTE                   An3
        BYTE   W12
// 056   ----------------------------------------
        BYTE   W36
        BYTE           N11    Gn2  v110
        BYTE           N11    Gn3
        BYTE   W12
        BYTE                   Fs2  v109
        BYTE           N11    Fs3
        BYTE   W12
        BYTE           N68    En2  v108  gtp2
        BYTE                   En3
        BYTE   W36
// 057   ----------------------------------------
        BYTE   W96
// 058   ----------------------------------------
        BYTE   W96
// 059   ----------------------------------------
        BYTE   W96
// 060   ----------------------------------------
        BYTE   W30
        BYTE   GoTo
         POIN2  KnightsPride_5_LOOP
        BYTE   W30
        BYTE   FINE

//***************** Track 6 (Midi-Chn.11) ******************//

KnightsPride_6:
        BYTE   KEYSH  KnightsPride_key+0
// 000   ----------------------------------------
        BYTE           VOICE  57
        BYTE   W03
        BYTE           VOL    49
        BYTE           PAN    c_v+14
        BYTE   W09
        BYTE           N10    Bn2  v123
        BYTE           N10    En3
        BYTE   W18
        BYTE           N05    Bn2  v118
        BYTE           N05    En3
        BYTE   W06
        BYTE           N48    Cn3  v120
        BYTE           N48    Fn3
        BYTE   W48
        BYTE                   Dn3  v122
        BYTE           N48    Gn3
        BYTE   W12
// 001   ----------------------------------------
        BYTE   W36
        BYTE                   En3  v124
        BYTE           N48    An3
        BYTE   W48
        BYTE           N10    Bn2  v123
        BYTE           N10    En3
        BYTE   W12
// 002   ----------------------------------------
        BYTE   W04
        BYTE           N05    En2  v120
        BYTE           N05    Bn2
        BYTE   W08
        BYTE           N84    Bn2  v123
        BYTE           N84    En3
        BYTE   W84
// 003   ----------------------------------------
        BYTE   W12
        BYTE           N10    Bn2
        BYTE           N10    En3
        BYTE   W18
KnightsPride_6_LOOP:
        BYTE           N05    Bn2  v118
        BYTE           N05    En3
        BYTE   W06
        BYTE           N44    Cn3  v120  gtp2
        BYTE                   Fn3
        BYTE   W48
        BYTE                   Dn3  v122
        BYTE           N44    Gn3  v122  gtp2
        BYTE   W12
// 004   ----------------------------------------
        BYTE   W36
        BYTE                   En3  v124
        BYTE           N44    An3  v124  gtp2
        BYTE   W48
        BYTE           N08    Gn3
        BYTE           N08    Bn3
        BYTE   W12
// 005   ----------------------------------------
        BYTE   W06
        BYTE           N03    An3  v125
        BYTE           N03    Cn4
        BYTE   W06
        BYTE           N92    Gn3  v124  gtp2
        BYTE                   Bn3
        BYTE   W84
// 006   ----------------------------------------
        BYTE   W96
// 007   ----------------------------------------
        BYTE   W96
// 008   ----------------------------------------
        BYTE   W96
// 009   ----------------------------------------
        BYTE   W96
// 010   ----------------------------------------
        BYTE   W96
// 011   ----------------------------------------
        BYTE   W96
// 012   ----------------------------------------
        BYTE   W12
        BYTE           N23    Bn2  v121
        BYTE   W24
        BYTE           N44    En3  v124  gtp3
        BYTE   W48
        BYTE           N11    Dn3  v122
        BYTE   W12
// 013   ----------------------------------------
        BYTE                   En3  v123
        BYTE   W12
        BYTE           N22    Fs3  v125
        BYTE   W24
        BYTE                   Dn3  v124
        BYTE   W24
        BYTE                   An2  v122
        BYTE   W24
        BYTE           N23    Bn2
        BYTE   W12
// 014   ----------------------------------------
        BYTE   W12
        BYTE           N44    En3  v123  gtp3
        BYTE   W48
        BYTE           N23    Fs3  v122
        BYTE   W24
        BYTE                   Gn3  v123
        BYTE   W12
// 015   ----------------------------------------
        BYTE   W12
        BYTE                   An3  v124
        BYTE   W24
        BYTE           N44    Bn3  v125  gtp3
        BYTE   W48
        BYTE           N23    En4  v126
        BYTE   W12
// 016   ----------------------------------------
        BYTE   W12
        BYTE           N44    Dn4  v125  gtp2
        BYTE   W48
        BYTE           N11    Gn3  v122
        BYTE   W12
        BYTE                   Bn3  v123
        BYTE   W12
        BYTE           N44    Cn4  v124  gtp3
        BYTE   W12
// 017   ----------------------------------------
        BYTE   W36
        BYTE           N23    En3  v120
        BYTE   W24
        BYTE                   Fn3  v121
        BYTE   W24
        BYTE                   Gn3  v122
        BYTE   W12
// 018   ----------------------------------------
        BYTE   W12
        BYTE                   An3  v123
        BYTE   W24
        BYTE           TIE    Bn3
        BYTE   W60
// 019   ----------------------------------------
        BYTE   W80
        BYTE   W02
        BYTE           EOT
        BYTE   W14
// 020   ----------------------------------------
        BYTE   W96
// 021   ----------------------------------------
        BYTE   W96
// 022   ----------------------------------------
        BYTE   W96
// 023   ----------------------------------------
        BYTE   W60
        BYTE           N08    En3
        BYTE           N08    Bn3
        BYTE   W18
        BYTE           N03    Bn3  v122
        BYTE           N03    En4
        BYTE   W06
        BYTE           N44    Bn3  v124  gtp2
        BYTE                   En4
        BYTE   W12
// 024   ----------------------------------------
        BYTE   W96
// 025   ----------------------------------------
        BYTE   W96
// 026   ----------------------------------------
        BYTE   W96
// 027   ----------------------------------------
        BYTE   W96
// 028   ----------------------------------------
        BYTE   W96
// 029   ----------------------------------------
        BYTE   W96
// 030   ----------------------------------------
        BYTE   W96
// 031   ----------------------------------------
        BYTE   W96
// 032   ----------------------------------------
        BYTE   W96
// 033   ----------------------------------------
        BYTE   W96
// 034   ----------------------------------------
        BYTE   W96
// 035   ----------------------------------------
        BYTE   W96
// 036   ----------------------------------------
        BYTE   W96
// 037   ----------------------------------------
        BYTE   W96
// 038   ----------------------------------------
        BYTE   W96
// 039   ----------------------------------------
        BYTE   W12
        BYTE           N23    Bn2  v121
        BYTE           N23    Bn3
        BYTE   W24
        BYTE           N44    Fs3  v123  gtp3
        BYTE                   Fs4
        BYTE   W48
        BYTE           N11    En3  v122
        BYTE           N11    En4
        BYTE   W12
// 040   ----------------------------------------
        BYTE                   Fs3  v123
        BYTE           N11    Fs4
        BYTE   W12
        BYTE           N44    Gn3  v124  gtp3
        BYTE                   Gn4
        BYTE   W48
        BYTE           N23    An3  v125
        BYTE           N23    An4
        BYTE   W24
        BYTE           N68    Bn3  v126  gtp3
        BYTE                   Bn4
        BYTE   W12
// 041   ----------------------------------------
        BYTE   W60
        BYTE           N44    Fs3  v124  gtp2
        BYTE                   Fs4
        BYTE   W36
// 042   ----------------------------------------
        BYTE   W12
        BYTE           N23    Bn3  v125
        BYTE           N23    Bn4
        BYTE   W24
        BYTE           N44    Dn4  v127  gtp3
        BYTE                   Dn5
        BYTE   W48
        BYTE           N11    Cn4  v126
        BYTE           N11    Cn5
        BYTE   W12
// 043   ----------------------------------------
        BYTE                   Bn3  v125
        BYTE           N11    Bn4
        BYTE   W12
        BYTE           N23    Cn4  v126
        BYTE           N23    Cn5
        BYTE   W24
        BYTE                   En3  v123
        BYTE           N23    En4
        BYTE   W24
        BYTE                   An3  v125
        BYTE           N23    An4
        BYTE   W24
        BYTE           N68    Fs3  v124  gtp3
        BYTE                   Fs4
        BYTE   W12
// 044   ----------------------------------------
        BYTE   W60
        BYTE           N44    Dn3  v123  gtp2
        BYTE                   Dn4
        BYTE   W36
// 045   ----------------------------------------
        BYTE   W12
        BYTE           N23    Bn2  v122
        BYTE           N23    Bn3
        BYTE   W24
        BYTE           N44    Fs3  v123  gtp3
        BYTE                   Fs4
        BYTE   W48
        BYTE           N11    En3  v122
        BYTE           N11    En4
        BYTE   W12
// 046   ----------------------------------------
        BYTE                   Fs3  v123
        BYTE           N11    Fs4
        BYTE   W12
        BYTE           N44    Gn3  v124  gtp3
        BYTE                   Gn4
        BYTE   W48
        BYTE           N23    Bn3  v125
        BYTE           N23    Bn4
        BYTE   W24
        BYTE           N44    Dn4  v127  gtp3
        BYTE                   Dn5
        BYTE   W12
// 047   ----------------------------------------
        BYTE   W36
        BYTE           N23    Cs4  v126
        BYTE           N23    Cs5
        BYTE   W24
        BYTE           N36    Bn3  v125
        BYTE           N36    Bn4
        BYTE   W36
// 048   ----------------------------------------
        BYTE   W12
        BYTE           N21    Fs3  v123
        BYTE           N21    Fs4
        BYTE   W24
        BYTE           N44    Fs3  v124  gtp3
        BYTE                   Fs4
        BYTE   W48
        BYTE           N23    En3  v123
        BYTE           N23    En4
        BYTE   W12
// 049   ----------------------------------------
        BYTE   W12
        BYTE           N44    Gn2  v121  gtp3
        BYTE                   Gn3
        BYTE   W48
        BYTE           N23    Cn3  v123
        BYTE           N23    Cn4
        BYTE   W24
        BYTE           N68    Bn2  v122  gtp3
        BYTE                   Bn3
        BYTE   W12
// 050   ----------------------------------------
        BYTE   W60
        BYTE           N44    An2  v121  gtp3
        BYTE                   An3
        BYTE   W36
// 051   ----------------------------------------
        BYTE   W12
        BYTE           N11    Gn2  v120
        BYTE           N11    Gn3
        BYTE   W12
        BYTE                   Fs2  v119
        BYTE           N11    Fs3
        BYTE   W12
        BYTE           N10    En1  v127
        BYTE           TIE    En2  v118
        BYTE           TIE    En3
        BYTE   W36
        BYTE           N07    En1  v124
        BYTE   W24
// 052   ----------------------------------------
KnightsPride_6_52:
        BYTE   W12
        BYTE           N10    En1  v126
        BYTE   W24
        BYTE                   En1  v123
        BYTE   W24
        BYTE                   En1  v125
        BYTE   W24
        BYTE                   En1  v127
        BYTE   W12
        BYTE   PEND
// 053   ----------------------------------------
KnightsPride_6_53:
        BYTE   W24
        BYTE           N07    En1  v124
        BYTE   W36
        BYTE           N10    En1  v126
        BYTE   W24
        BYTE                   En1  v123
        BYTE   W12
        BYTE   PEND
// 054   ----------------------------------------
        BYTE   W12
        BYTE                   En1  v125
        BYTE   W03
        BYTE           EOT    En2
        BYTE                   En3
        BYTE   W21
        BYTE           N10    En1  v127
        BYTE   W36
        BYTE           N07    En1  v124
        BYTE   W24
// 055   ----------------------------------------
        BYTE   PATT
         POIN2  KnightsPride_6_52
// 056   ----------------------------------------
        BYTE   PATT
         POIN2  KnightsPride_6_53
// 057   ----------------------------------------
        BYTE   W12
        BYTE           N10    En1  v125
        BYTE           N08    Bn2  v123
        BYTE           N08    En3
        BYTE   W18
        BYTE           N03    Bn2  v118
        BYTE           N03    En3
        BYTE   W06
        BYTE           N44    Cn3  v120  gtp2
        BYTE                   Fn3
        BYTE   W48
        BYTE                   Dn3  v122
        BYTE           N44    Gn3  v122  gtp2
        BYTE   W12
// 058   ----------------------------------------
        BYTE   W36
        BYTE                   En3  v124
        BYTE           N44    An3  v124  gtp2
        BYTE   W48
        BYTE           N08    Bn2  v123
        BYTE           N08    En3
        BYTE   W12
// 059   ----------------------------------------
        BYTE   W04
        BYTE           N03    En2  v120
        BYTE           N03    Bn2
        BYTE   W08
        BYTE           N80    Bn2  v123  gtp2
        BYTE                   En3
        BYTE   W84
// 060   ----------------------------------------
        BYTE   W12
        BYTE           N08    Bn2
        BYTE           N08    En3
        BYTE   W18
        BYTE           N03    Bn2  v118
        BYTE           N03    En3
        BYTE   GoTo
         POIN2  KnightsPride_6_LOOP
        BYTE   W30
        BYTE   FINE

//***************** Track 7 (Midi-Chn.12) ******************//

KnightsPride_7:
        BYTE   KEYSH  KnightsPride_key+0
// 000   ----------------------------------------
        BYTE           VOICE  61
        BYTE   W03
        BYTE           VOL    40
        BYTE           PAN    c_v-15
        BYTE   W32
        BYTE   W01
        BYTE           TIE    Fn2  v104
        BYTE           TIE    Cn2
        BYTE           TIE    Fn1
        BYTE   W60
// 001   ----------------------------------------
        BYTE   W84
        BYTE           EOT
        BYTE           EOT    Cn2
        BYTE                   Fn2
        BYTE           TIE    En1  v105
        BYTE           TIE    Bn1  v106
        BYTE           TIE    En2  v104
        BYTE   W12
// 002   ----------------------------------------
        BYTE   W96
// 003   ----------------------------------------
        BYTE   W30
KnightsPride_7_LOOP:
        BYTE   W06
        BYTE           EOT    En1
        BYTE                   Bn1
        BYTE                   En2
        BYTE           TIE    Fn1  v105
        BYTE           TIE    Cn2  v110
        BYTE           TIE    Fn2
        BYTE   W60
// 004   ----------------------------------------
        BYTE   W80
        BYTE   W03
        BYTE           EOT    Fn1
        BYTE                   Cn2
        BYTE                   Fn2
        BYTE   W01
        BYTE           TIE    En1
        BYTE           TIE    Bn1  v109
        BYTE           TIE    En2  v108
        BYTE   W12
// 005   ----------------------------------------
        BYTE   W96
// 006   ----------------------------------------
        BYTE   W32
        BYTE   W02
        BYTE           EOT    En1
        BYTE                   Bn1
        BYTE                   En2
        BYTE   W60
        BYTE   W02
// 007   ----------------------------------------
        BYTE   W96
// 008   ----------------------------------------
        BYTE   W96
// 009   ----------------------------------------
        BYTE   W96
// 010   ----------------------------------------
        BYTE   W96
// 011   ----------------------------------------
        BYTE   W96
// 012   ----------------------------------------
        BYTE   W96
// 013   ----------------------------------------
        BYTE   W96
// 014   ----------------------------------------
        BYTE   W96
// 015   ----------------------------------------
        BYTE   W96
// 016   ----------------------------------------
        BYTE   W96
// 017   ----------------------------------------
        BYTE   W96
// 018   ----------------------------------------
KnightsPride_7_18:
        BYTE   W36
        BYTE           N56    Bn1  v113
        BYTE           N56    En2
        BYTE   W60
        BYTE   PEND
// 019   ----------------------------------------
KnightsPride_7_19:
        BYTE           N03    Bn1  v114
        BYTE           N03    En2
        BYTE   W06
        BYTE                   Bn1  v112
        BYTE           N03    En2
        BYTE   W06
        BYTE           N21    Cn2  v113
        BYTE           N21    Fn2
        BYTE   W24
        BYTE                   An1  v110
        BYTE           N21    Dn2
        BYTE   W24
        BYTE                   Dn2  v112
        BYTE           N21    Gn2
        BYTE   W24
        BYTE           N08    Bn1  v113
        BYTE           N08    En2
        BYTE   W12
        BYTE   PEND
// 020   ----------------------------------------
        BYTE   W06
        BYTE           N03    En1  v110
        BYTE           N03    Bn1
        BYTE   W06
        BYTE           N92    Bn1  v114  gtp2
        BYTE                   En2
        BYTE   W84
// 021   ----------------------------------------
        BYTE   PATT
         POIN2  KnightsPride_7_18
// 022   ----------------------------------------
        BYTE   PATT
         POIN2  KnightsPride_7_19
// 023   ----------------------------------------
        BYTE   W06
        BYTE           N03    En2  v123
        BYTE           N03    Bn2  v114
        BYTE   W06
        BYTE           N92    En2  v115  gtp2
        BYTE                   Bn2
        BYTE   W84
// 024   ----------------------------------------
        BYTE   W96
// 025   ----------------------------------------
        BYTE   W96
// 026   ----------------------------------------
        BYTE   W60
        BYTE           N23    Bn1  v110
        BYTE   W24
        BYTE           N32    En2  v112  gtp3
        BYTE   W12
// 027   ----------------------------------------
        BYTE   W24
        BYTE           N11    Fs2  v113
        BYTE   W12
        BYTE           N44    Gn2  v114  gtp3
        BYTE   W48
        BYTE           N11    Fs2  v113
        BYTE   W12
// 028   ----------------------------------------
        BYTE                   Gn2  v114
        BYTE   W12
        BYTE           N22    An2
        BYTE   W24
        BYTE                   Bn2  v115
        BYTE   W24
        BYTE                   Cn3  v116
        BYTE   W24
        BYTE           N44    Bn2  v115  gtp3
        BYTE   W12
// 029   ----------------------------------------
        BYTE   W36
        BYTE           N11    An2  v114
        BYTE   W12
        BYTE                   Gn2  v113
        BYTE   W12
        BYTE           N23    Fs2  v112
        BYTE   W24
        BYTE                   Dn2  v109
        BYTE   W12
// 030   ----------------------------------------
        BYTE   W12
        BYTE                   En2  v110
        BYTE   W24
        BYTE           TIE    Fs2  v112
        BYTE   W60
// 031   ----------------------------------------
        BYTE   W80
        BYTE   W02
        BYTE           EOT
        BYTE   W14
// 032   ----------------------------------------
        BYTE   W12
        BYTE           N23    Cs2  v109
        BYTE   W24
        BYTE                   Fs2  v110
        BYTE   W24
        BYTE           N44    Gs2  v112  gtp3
        BYTE   W36
// 033   ----------------------------------------
        BYTE   W12
        BYTE           N23    An2  v113
        BYTE   W24
        BYTE           N92    Bn2  v114  gtp3
        BYTE   W60
// 034   ----------------------------------------
        BYTE   W36
        BYTE           N23    En2  v110
        BYTE   W24
        BYTE                   Bn2  v112
        BYTE   W24
        BYTE           N44    Dn3  v115  gtp3
        BYTE   W12
// 035   ----------------------------------------
        BYTE   PATT
         POIN2  KnightsPride_2_44
// 036   ----------------------------------------
        BYTE   W12
        BYTE           N23    Gn2  v110
        BYTE   W24
        BYTE           N92    Fs2  v109  gtp3
        BYTE   W60
// 037   ----------------------------------------
        BYTE   W36
        BYTE           N23    Gn2  v110
        BYTE   W24
        BYTE                   An2  v112
        BYTE   W24
        BYTE           TIE    Bn2  v113
        BYTE   W12
// 038   ----------------------------------------
        BYTE   W96
// 039   ----------------------------------------
        BYTE   W32
        BYTE   W02
        BYTE           EOT
        BYTE   W02
        BYTE           TIE    En2  v111
        BYTE           TIE    Bn2  v113
        BYTE           TIE    En3  v111
        BYTE   W60
// 040   ----------------------------------------
        BYTE   W80
        BYTE   W03
        BYTE           EOT    En2
        BYTE                   En3
        BYTE   W01
        BYTE           TIE    Dn2  v114
        BYTE           TIE    Fs3  v111
        BYTE   W12
// 041   ----------------------------------------
        BYTE   W96
// 042   ----------------------------------------
        BYTE   W32
        BYTE   W02
        BYTE           EOT    Dn2
        BYTE                   Bn2
        BYTE                   Fs3
        BYTE   W02
        BYTE           TIE    En2  v114
        BYTE           TIE    Gn2  v111
        BYTE           TIE    En3  v115
        BYTE   W60
// 043   ----------------------------------------
        BYTE   W80
        BYTE   W03
        BYTE           EOT    En2
        BYTE                   Gn2
        BYTE                   En3
        BYTE   W01
        BYTE           TIE    Fs2  v114
        BYTE           TIE    An2  v112
        BYTE           TIE    Dn3  v115
        BYTE   W12
// 044   ----------------------------------------
        BYTE   W96
// 045   ----------------------------------------
        BYTE   W32
        BYTE   W02
        BYTE           EOT    Fs2
        BYTE   W01
        BYTE                   An2
        BYTE                   Dn3
        BYTE   W01
        BYTE           TIE    En2  v112
        BYTE           TIE    Bn2  v114
        BYTE           TIE    En3  v112
        BYTE   W60
// 046   ----------------------------------------
        BYTE   W80
        BYTE   W03
        BYTE           EOT    En2
        BYTE                   En3
        BYTE   W01
        BYTE           TIE    Dn2  v115
        BYTE           TIE    Fs3  v114
        BYTE   W12
// 047   ----------------------------------------
        BYTE   W96
// 048   ----------------------------------------
        BYTE   W32
        BYTE   W02
        BYTE           EOT    Bn2
        BYTE   W01
        BYTE                   Dn2
        BYTE                   Fs3
        BYTE   W01
        BYTE           TIE    En2  v115
        BYTE           TIE    Cn3  v112
        BYTE           TIE    Gn3
        BYTE   W60
// 049   ----------------------------------------
        BYTE   W80
        BYTE   W03
        BYTE           EOT    En2
        BYTE                   Cn3
        BYTE                   Gn3
        BYTE   W01
        BYTE           TIE    Fs2  v113
        BYTE           TIE    An2  v115
        BYTE           TIE    Fs3
        BYTE   W12
// 050   ----------------------------------------
        BYTE   W96
// 051   ----------------------------------------
        BYTE   W32
        BYTE   W03
        BYTE           EOT    Fs2
        BYTE                   An2
        BYTE                   Fs3
        BYTE   W01
        BYTE           TIE    En2  v112
        BYTE           TIE    Bn2  v111
        BYTE           TIE    En3  v114
        BYTE   W60
// 052   ----------------------------------------
        BYTE   W80
        BYTE   W03
        BYTE           EOT    Bn2
        BYTE   W01
        BYTE           TIE    An2  v112
        BYTE   W12
// 053   ----------------------------------------
        BYTE   W96
// 054   ----------------------------------------
        BYTE   W32
        BYTE   W03
        BYTE           EOT
        BYTE   W01
        BYTE           TIE    Gn2  v111
        BYTE   W60
// 055   ----------------------------------------
        BYTE   W80
        BYTE   W03
        BYTE           EOT
        BYTE   W01
        BYTE           TIE    An2  v113
        BYTE   W12
// 056   ----------------------------------------
        BYTE   W96
// 057   ----------------------------------------
        BYTE   W32
        BYTE   W02
        BYTE           EOT    En2
        BYTE                   An2
        BYTE                   En3
        BYTE   W02
        BYTE           TIE    Fn1  v105
        BYTE           TIE    Cn2  v110
        BYTE           TIE    Fn2  v108
        BYTE   W60
// 058   ----------------------------------------
        BYTE   W80
        BYTE   W03
        BYTE           EOT    Fn1
        BYTE                   Cn2
        BYTE                   Fn2
        BYTE   W01
        BYTE           TIE    En2  v104
        BYTE           TIE    Bn1  v106
        BYTE           TIE    En1  v105
        BYTE   W12
// 059   ----------------------------------------
        BYTE   W96
// 060   ----------------------------------------
        BYTE   W24
        BYTE           EOT
        BYTE           EOT    Bn1
        BYTE                   En2
        BYTE   W06
        BYTE   GoTo
         POIN2  KnightsPride_7_LOOP
        BYTE   W30
        BYTE   FINE

//***************** Track 8 (Midi-Chn.14) ******************//

KnightsPride_8:
        BYTE   KEYSH  KnightsPride_key+0
// 000   ----------------------------------------
        BYTE           PAN    c_v-42
        BYTE           VOL    59
        BYTE   W04
        BYTE           VOICE  14
        BYTE           VOL    52
        BYTE   W32
        BYTE           N24    Bn3  v123
        BYTE   W02
        BYTE                   En4
        BYTE   W56
        BYTE   W02
// 001   ----------------------------------------
        BYTE   W96
// 002   ----------------------------------------
        BYTE   W96
// 003   ----------------------------------------
        BYTE   W30
KnightsPride_8_LOOP:
        BYTE   W06
        BYTE           N24    Bn3  v123
        BYTE   W02
        BYTE                   En4
        BYTE   W56
        BYTE   W02
// 004   ----------------------------------------
        BYTE   W96
// 005   ----------------------------------------
        BYTE   W96
// 006   ----------------------------------------
        BYTE   W96
// 007   ----------------------------------------
        BYTE   W96
// 008   ----------------------------------------
        BYTE   W96
// 009   ----------------------------------------
        BYTE   W96
// 010   ----------------------------------------
        BYTE   W96
// 011   ----------------------------------------
        BYTE   W96
// 012   ----------------------------------------
        BYTE   W96
// 013   ----------------------------------------
        BYTE   W96
// 014   ----------------------------------------
        BYTE   W96
// 015   ----------------------------------------
        BYTE   W96
// 016   ----------------------------------------
        BYTE   W96
// 017   ----------------------------------------
        BYTE   W96
// 018   ----------------------------------------
KnightsPride_8_18:
        BYTE   W36
        BYTE           N24    Bn3  v123
        BYTE   W02
        BYTE                   En4
        BYTE   W56
        BYTE   W02
        BYTE   PEND
// 019   ----------------------------------------
        BYTE   W96
// 020   ----------------------------------------
        BYTE   W96
// 021   ----------------------------------------
        BYTE   PATT
         POIN2  KnightsPride_8_18
// 022   ----------------------------------------
        BYTE   W96
// 023   ----------------------------------------
        BYTE   W96
// 024   ----------------------------------------
        BYTE   W96
// 025   ----------------------------------------
        BYTE   W96
// 026   ----------------------------------------
        BYTE   W96
// 027   ----------------------------------------
        BYTE   W96
// 028   ----------------------------------------
        BYTE   W96
// 029   ----------------------------------------
        BYTE   W96
// 030   ----------------------------------------
        BYTE   W96
// 031   ----------------------------------------
        BYTE   W96
// 032   ----------------------------------------
        BYTE   W96
// 033   ----------------------------------------
        BYTE   W96
// 034   ----------------------------------------
        BYTE   W96
// 035   ----------------------------------------
        BYTE   W96
// 036   ----------------------------------------
        BYTE   W96
// 037   ----------------------------------------
        BYTE   W96
// 038   ----------------------------------------
        BYTE   W96
// 039   ----------------------------------------
        BYTE   W96
// 040   ----------------------------------------
        BYTE   W96
// 041   ----------------------------------------
        BYTE   W96
// 042   ----------------------------------------
        BYTE   W96
// 043   ----------------------------------------
        BYTE   W96
// 044   ----------------------------------------
        BYTE   W96
// 045   ----------------------------------------
        BYTE   W96
// 046   ----------------------------------------
        BYTE   W96
// 047   ----------------------------------------
        BYTE   W96
// 048   ----------------------------------------
        BYTE   W96
// 049   ----------------------------------------
        BYTE   W96
// 050   ----------------------------------------
        BYTE   W96
// 051   ----------------------------------------
        BYTE   W96
// 052   ----------------------------------------
        BYTE   W96
// 053   ----------------------------------------
        BYTE   W96
// 054   ----------------------------------------
        BYTE   W96
// 055   ----------------------------------------
        BYTE   W96
// 056   ----------------------------------------
        BYTE   W96
// 057   ----------------------------------------
        BYTE   PATT
         POIN2  KnightsPride_8_18
// 058   ----------------------------------------
        BYTE   W96
// 059   ----------------------------------------
        BYTE   W96
// 060   ----------------------------------------
        BYTE   W30
        BYTE   GoTo
         POIN2  KnightsPride_8_LOOP
        BYTE   W30
        BYTE   FINE

//***************** Track 9 (Midi-Chn.15) ******************//

KnightsPride_9:
        BYTE   KEYSH  KnightsPride_key+0
// 000   ----------------------------------------
        BYTE           VOICE  124
        BYTE           VOL    75
        BYTE   W02
        BYTE                   67
        BYTE   W10
        BYTE           N03    Fn1  v065
        BYTE   W04
        BYTE                   Fn1  v074
        BYTE   W04
        BYTE                   Fn1  v082
        BYTE   W04
        BYTE                   Fn1  v089
        BYTE   W04
        BYTE                   Fn1  v096
        BYTE   W04
        BYTE                   Fn1  v103
        BYTE   W04
        BYTE           N17    Dn1  v081
        BYTE           N92    Fn1  v109  gtp3
        BYTE           TIE    Fn2  v127
        BYTE   W01
        BYTE           N12    Cn1  v066
        BYTE   W11
        BYTE           N11    An1  v046
        BYTE   W01
        BYTE           N24    Cn1  v066
        BYTE   W05
        BYTE           N17    Dn1  v049
        BYTE   W06
        BYTE           N23    An1
        BYTE   W12
        BYTE           N17    Dn1  v083
        BYTE   W01
        BYTE           N84    Cn1  v066
        BYTE   W11
        BYTE           N11    An1  v070
        BYTE   W06
        BYTE           N17    Dn1  v041
        BYTE   W06
// 001   ----------------------------------------
KnightsPride_9_1:
        BYTE           N23    An1  v048
        BYTE   W12
        BYTE                   Dn1  v084
        BYTE   W12
        BYTE                   An1  v066
        BYTE   W12
        BYTE                   Dn1  v071
        BYTE   W12
        BYTE           N17    An1  v060
        BYTE   W12
        BYTE           N11    Dn1  v071
        BYTE   W01
        BYTE           N24    Cn1  v066
        BYTE   W05
        BYTE           N17    An1  v055
        BYTE   W06
        BYTE           N23    Dn1  v060
        BYTE   W12
        BYTE           EOT    Fn2
        BYTE           N17    An1  v081
        BYTE           N32    Fn1  v109  gtp3
        BYTE   W01
        BYTE           N36    Cn1  v066
        BYTE   W11
        BYTE   PEND
// 002   ----------------------------------------
KnightsPride_9_2:
        BYTE           N11    Dn1  v046
        BYTE   W06
        BYTE           N17    An1  v049
        BYTE   W06
        BYTE           N23    Dn1
        BYTE   W12
        BYTE           N17    An1  v083
        BYTE           N32    Fn1  v109  gtp3
        BYTE   W01
        BYTE           N84    Cn1  v066
        BYTE   W11
        BYTE           N11    Dn1  v070
        BYTE   W06
        BYTE           N17    An1  v041
        BYTE   W06
        BYTE           N23    Dn1  v048
        BYTE   W12
        BYTE           N17    An1  v084
        BYTE           N23    Fn1  v109
        BYTE   W12
        BYTE           N11    Dn1  v066
        BYTE   W06
        BYTE                   An1  v055
        BYTE   W06
        BYTE                   Dn1  v071
        BYTE           N23    Bn4  v109
        BYTE   W06
        BYTE           N17    An1  v055
        BYTE   W06
        BYTE   PEND
// 003   ----------------------------------------
        BYTE                   Dn1  v060
        BYTE   W12
        BYTE           N11    An1  v071
        BYTE           N11    Fn1  v109
        BYTE   W01
        BYTE           N24    Cn1  v066
        BYTE   W05
        BYTE           N17    Dn1  v055
        BYTE   W06
        BYTE           N12    An1  v060
        BYTE           N05    Fn1  v109
        BYTE   W06
KnightsPride_9_LOOP:
        BYTE           N05    Fn1  v109
        BYTE   W06
        BYTE           N17    Dn1  v081
        BYTE           N92    Fn1  v109  gtp3
        BYTE   W01
        BYTE           N12    Cn1  v066
        BYTE   W11
        BYTE           N11    An1  v046
        BYTE   W01
        BYTE           N24    Cn1  v066
        BYTE   W05
        BYTE           N17    Dn1  v049
        BYTE   W06
        BYTE           N23    An1
        BYTE   W12
        BYTE                   Dn1  v083
        BYTE   W01
        BYTE           N84    Cn1  v066
        BYTE   W11
        BYTE           N23    An1  v070
        BYTE   W12
// 004   ----------------------------------------
        BYTE                   Dn1  v048
        BYTE   W12
        BYTE           N17    An1  v084
        BYTE   W12
        BYTE           N11    Dn1  v066
        BYTE   W06
        BYTE           N17    An1  v055
        BYTE   W06
        BYTE           N23    Dn1  v071
        BYTE   W12
        BYTE           N17    An1  v060
        BYTE   W12
        BYTE           N11    Dn1  v071
        BYTE   W01
        BYTE           N24    Cn1  v066
        BYTE   W05
        BYTE           N17    An1  v055
        BYTE   W06
        BYTE           N23    Dn1  v060
        BYTE   W12
        BYTE           N17    An1  v081
        BYTE           N32    Fn1  v109  gtp3
        BYTE   W01
        BYTE           N36    Cn1  v066
        BYTE   W11
// 005   ----------------------------------------
        BYTE           N11    Dn1  v046
        BYTE   W06
        BYTE           N17    An1  v049
        BYTE   W06
        BYTE           N23    Dn1
        BYTE   W12
        BYTE           N17    An1  v083
        BYTE           N32    Fn1  v109  gtp3
        BYTE   W01
        BYTE           N84    Cn1  v066
        BYTE   W11
        BYTE           N11    Dn1  v070
        BYTE   W06
        BYTE           N17    An1  v041
        BYTE   W06
        BYTE           N23    Dn1  v048
        BYTE   W12
        BYTE           N17    An1  v084
        BYTE           N23    Fn1  v109
        BYTE   W12
        BYTE           N11    Dn1  v066
        BYTE   W06
        BYTE                   An1  v055
        BYTE   W06
        BYTE                   Dn1  v071
        BYTE           N23    Bn4  v109
        BYTE   W06
        BYTE           N11    An1  v055
        BYTE   W06
// 006   ----------------------------------------
        BYTE                   Dn1  v060
        BYTE   W06
        BYTE                   An1  v049
        BYTE   W06
        BYTE                   Dn1  v071
        BYTE           N03    Fn1  v065
        BYTE   W01
        BYTE           N24    Cn1  v066
        BYTE   W03
        BYTE           N03    Fn1  v074
        BYTE   W02
        BYTE           N11    An1  v055
        BYTE   W02
        BYTE           N03    Fn1  v082
        BYTE   W04
        BYTE           N11    Dn1  v060
        BYTE           N03    Fn1  v089
        BYTE   W04
        BYTE                   Fn1  v096
        BYTE   W02
        BYTE           N17    An1  v049
        BYTE   W02
        BYTE           N03    Fn1  v103
        BYTE   W04
        BYTE           N17    Dn1  v081
        BYTE           N92    Fn1  v109  gtp3
        BYTE           TIE    Fn2  v127
        BYTE   W01
        BYTE           N12    Cn1  v066
        BYTE   W11
        BYTE           N11    An1  v046
        BYTE   W01
        BYTE           N24    Cn1  v066
        BYTE   W05
        BYTE           N17    Dn1  v049
        BYTE   W06
        BYTE           N23    An1
        BYTE   W12
        BYTE           N17    Dn1  v083
        BYTE   W01
        BYTE           N84    Cn1  v066
        BYTE   W11
        BYTE           N11    An1  v070
        BYTE   W06
        BYTE           N17    Dn1  v041
        BYTE   W06
// 007   ----------------------------------------
KnightsPride_9_7:
        BYTE           N17    An1  v048
        BYTE   W12
        BYTE           N11    Dn1  v084
        BYTE   W06
        BYTE           N17    An1  v055
        BYTE   W06
        BYTE           N23    Dn1  v066
        BYTE   W12
        BYTE                   An1  v071
        BYTE   W12
        BYTE                   Dn1  v060
        BYTE   W12
        BYTE                   An1  v071
        BYTE   W01
        BYTE           N24    Cn1  v066
        BYTE   W11
        BYTE           N23    Dn1  v060
        BYTE   W12
        BYTE           EOT    Fn2
        BYTE           N17    An1  v081
        BYTE   W01
        BYTE           N36    Cn1  v066
        BYTE   W11
        BYTE   PEND
// 008   ----------------------------------------
KnightsPride_9_8:
        BYTE           N11    Dn1  v046
        BYTE   W06
        BYTE           N17    An1  v049
        BYTE   W06
        BYTE           N23    Dn1
        BYTE   W12
        BYTE           N17    An1  v083
        BYTE   W01
        BYTE           TIE    Cn1  v066
        BYTE   W11
        BYTE           N11    Dn1  v070
        BYTE   W06
        BYTE           N17    An1  v041
        BYTE   W06
        BYTE           N23    Dn1  v048
        BYTE   W12
        BYTE           N17    An1  v084
        BYTE   W12
        BYTE           N11    Dn1  v066
        BYTE   W06
        BYTE                   An1  v055
        BYTE   W06
        BYTE                   Dn1  v071
        BYTE   W06
        BYTE           N17    An1  v055
        BYTE   W06
        BYTE   PEND
// 009   ----------------------------------------
        BYTE           N23    Dn1  v060
        BYTE   W12
        BYTE           N17    An1  v071
        BYTE   W12
        BYTE           N11    Dn1  v060
        BYTE   W06
        BYTE           N17    An1  v055
        BYTE   W06
        BYTE                   Dn1  v081
        BYTE   W01
        BYTE           EOT    Cn1
        BYTE           N12    Cn1  v066
        BYTE   W11
        BYTE           N11    An1  v046
        BYTE   W01
        BYTE           N24    Cn1  v066
        BYTE   W05
        BYTE           N17    Dn1  v049
        BYTE   W06
        BYTE           N23    An1
        BYTE   W12
        BYTE           N17    Dn1  v083
        BYTE   W01
        BYTE           N84    Cn1  v066
        BYTE   W11
        BYTE           N11    An1  v070
        BYTE   W06
        BYTE           N17    Dn1  v041
        BYTE   W06
// 010   ----------------------------------------
        BYTE                   An1  v048
        BYTE   W12
        BYTE           N11    Dn1  v084
        BYTE   W06
        BYTE           N17    An1  v055
        BYTE   W06
        BYTE           N23    Dn1  v066
        BYTE   W12
        BYTE                   An1  v071
        BYTE   W12
        BYTE                   Dn1  v060
        BYTE   W12
        BYTE                   An1  v071
        BYTE   W01
        BYTE           N24    Cn1  v066
        BYTE   W11
        BYTE           N23    Dn1  v060
        BYTE   W12
        BYTE           N17    An1  v081
        BYTE   W01
        BYTE           N36    Cn1  v066
        BYTE   W11
// 011   ----------------------------------------
        BYTE   PATT
         POIN2  KnightsPride_9_8
// 012   ----------------------------------------
        BYTE           N23    Dn1  v060
        BYTE   W12
        BYTE           N17    An1  v071
        BYTE           N03    Fn1  v065
        BYTE   W04
        BYTE                   Fn1  v074
        BYTE   W04
        BYTE                   Fn1  v082
        BYTE   W04
        BYTE           N11    Dn1  v060
        BYTE           N03    Fn1  v089
        BYTE   W04
        BYTE                   Fn1  v096
        BYTE   W02
        BYTE           N17    An1  v055
        BYTE   W02
        BYTE           N03    Fn1  v103
        BYTE   W04
        BYTE           N17    Dn1  v081
        BYTE           N92    Fn1  v109  gtp3
        BYTE           TIE    Fn2  v127
        BYTE   W01
        BYTE           EOT    Cn1
        BYTE           N12    Cn1  v066
        BYTE   W11
        BYTE           N11    An1  v046
        BYTE   W01
        BYTE           N24    Cn1  v066
        BYTE   W05
        BYTE           N17    Dn1  v049
        BYTE   W06
        BYTE           N23    An1
        BYTE   W12
        BYTE           N17    Dn1  v083
        BYTE   W01
        BYTE           N84    Cn1  v066
        BYTE   W11
        BYTE           N11    An1  v070
        BYTE   W06
        BYTE           N17    Dn1  v041
        BYTE   W06
// 013   ----------------------------------------
        BYTE   PATT
         POIN2  KnightsPride_9_7
// 014   ----------------------------------------
        BYTE   PATT
         POIN2  KnightsPride_9_8
// 015   ----------------------------------------
        BYTE           N23    Dn1  v060
        BYTE   W12
        BYTE           N17    An1  v071
        BYTE   W12
        BYTE           N11    Dn1  v060
        BYTE   W06
        BYTE           N17    An1  v055
        BYTE   W06
        BYTE                   Dn1  v081
        BYTE   W01
        BYTE           EOT    Cn1
        BYTE           N36    Cn1  v066
        BYTE   W11
        BYTE           N11    An1  v046
        BYTE   W06
        BYTE           N17    Dn1  v049
        BYTE   W06
        BYTE           N23    An1
        BYTE   W12
        BYTE           N17    Dn1  v083
        BYTE   W01
        BYTE           TIE    Cn1  v066
        BYTE   W11
        BYTE           N11    An1  v070
        BYTE   W06
        BYTE           N17    Dn1  v041
        BYTE   W06
// 016   ----------------------------------------
        BYTE                   An1  v048
        BYTE   W12
        BYTE           N11    Dn1  v084
        BYTE   W06
        BYTE           N17    An1  v055
        BYTE   W06
        BYTE           N23    Dn1  v066
        BYTE   W12
        BYTE                   An1  v071
        BYTE   W12
        BYTE                   Dn1  v060
        BYTE   W12
        BYTE                   An1  v071
        BYTE   W12
        BYTE                   Dn1  v060
        BYTE   W12
        BYTE           N17    An1  v081
        BYTE   W01
        BYTE           EOT    Cn1
        BYTE           N36    Cn1  v066
        BYTE   W11
// 017   ----------------------------------------
KnightsPride_9_17:
        BYTE           N11    Dn1  v046
        BYTE   W06
        BYTE           N17    An1  v049
        BYTE   W06
        BYTE           N23    Dn1
        BYTE   W12
        BYTE           N17    An1  v083
        BYTE   W01
        BYTE           N84    Cn1  v066
        BYTE   W11
        BYTE           N11    Dn1  v070
        BYTE   W06
        BYTE           N17    An1  v041
        BYTE   W06
        BYTE           N23    Dn1  v048
        BYTE   W12
        BYTE           N17    An1  v084
        BYTE   W12
        BYTE           N11    Dn1  v066
        BYTE   W06
        BYTE                   An1  v055
        BYTE   W06
        BYTE                   Dn1  v071
        BYTE   W06
        BYTE           N17    An1  v055
        BYTE   W06
        BYTE   PEND
// 018   ----------------------------------------
        BYTE                   Dn1  v060
        BYTE   W12
        BYTE           N11    An1  v071
        BYTE           N03    Fn1  v065
        BYTE   W01
        BYTE           N24    Cn1  v066
        BYTE   W03
        BYTE           N03    Fn1  v074
        BYTE   W02
        BYTE           N11    Dn1  v071
        BYTE   W02
        BYTE           N03    Fn1  v082
        BYTE   W04
        BYTE           N11    An1  v060
        BYTE           N03    Fn1  v089
        BYTE   W04
        BYTE                   Fn1  v096
        BYTE   W02
        BYTE           N17    Dn1  v055
        BYTE   W02
        BYTE           N03    Fn1  v103
        BYTE   W04
        BYTE           N17    An1  v081
        BYTE           N92    Fn1  v109  gtp3
        BYTE           TIE    Fn2  v127
        BYTE   W01
        BYTE           N12    Cn1  v066
        BYTE   W11
        BYTE           N11    Dn1  v046
        BYTE   W01
        BYTE           N24    Cn1  v066
        BYTE   W05
        BYTE           N17    An1  v049
        BYTE   W06
        BYTE           N23    Dn1
        BYTE   W12
        BYTE           N17    An1  v083
        BYTE   W01
        BYTE           N84    Cn1  v066
        BYTE   W11
        BYTE           N11    Dn1  v070
        BYTE   W06
        BYTE           N17    An1  v041
        BYTE   W06
// 019   ----------------------------------------
        BYTE           N23    Dn1  v048
        BYTE   W12
        BYTE                   An1  v084
        BYTE   W12
        BYTE                   Dn1  v066
        BYTE   W12
        BYTE                   An1  v071
        BYTE   W12
        BYTE           N17    Dn1  v060
        BYTE   W12
        BYTE           N11    An1  v071
        BYTE   W01
        BYTE           N24    Cn1  v066
        BYTE   W05
        BYTE           N17    Dn1  v055
        BYTE   W06
        BYTE           N23    An1  v060
        BYTE   W12
        BYTE           EOT    Fn2
        BYTE           N17    Dn1  v081
        BYTE           N32    Fn1  v109  gtp3
        BYTE   W01
        BYTE           N36    Cn1  v066
        BYTE   W11
// 020   ----------------------------------------
        BYTE           N11    An1  v046
        BYTE   W06
        BYTE           N17    Dn1  v049
        BYTE   W06
        BYTE           N23    An1
        BYTE   W12
        BYTE           N17    Dn1  v083
        BYTE           N32    Fn1  v109  gtp3
        BYTE   W01
        BYTE           N84    Cn1  v066
        BYTE   W11
        BYTE           N11    An1  v070
        BYTE   W06
        BYTE           N17    Dn1  v041
        BYTE   W06
        BYTE           N23    An1  v048
        BYTE   W12
        BYTE           N17    Dn1  v084
        BYTE           N23    Fn1  v109
        BYTE   W12
        BYTE           N11    An1  v066
        BYTE   W06
        BYTE                   Dn1  v055
        BYTE   W06
        BYTE                   An1  v071
        BYTE           N23    Bn4  v109
        BYTE   W06
        BYTE           N17    Dn1  v055
        BYTE   W06
// 021   ----------------------------------------
        BYTE                   An1  v060
        BYTE   W12
        BYTE           N11    Dn1  v071
        BYTE           N11    Fn1  v109
        BYTE   W01
        BYTE           N24    Cn1  v066
        BYTE   W05
        BYTE           N17    An1  v055
        BYTE   W06
        BYTE           N23    Dn1  v060
        BYTE           N05    Fn1  v109
        BYTE   W06
        BYTE                   Fn1
        BYTE   W06
        BYTE           N17    An1  v081
        BYTE           N23    Fn1  v109
        BYTE   W01
        BYTE           N12    Cn1  v066
        BYTE   W11
        BYTE           N11    Dn1  v046
        BYTE   W01
        BYTE           N24    Cn1  v066
        BYTE   W05
        BYTE           N17    An1  v049
        BYTE   W06
        BYTE           N23    Dn1
        BYTE   W12
        BYTE                   An1  v083
        BYTE   W01
        BYTE           N84    Cn1  v066
        BYTE   W11
        BYTE           N23    Dn1  v070
        BYTE   W12
// 022   ----------------------------------------
        BYTE                   An1  v048
        BYTE   W12
        BYTE           N17    Dn1  v084
        BYTE   W12
        BYTE           N11    An1  v066
        BYTE   W06
        BYTE           N17    Dn1  v055
        BYTE   W06
        BYTE           N23    An1  v071
        BYTE   W12
        BYTE           N17    Dn1  v060
        BYTE   W12
        BYTE           N11    An1  v071
        BYTE   W01
        BYTE           N24    Cn1  v066
        BYTE   W05
        BYTE           N17    Dn1  v055
        BYTE   W06
        BYTE           N23    An1  v060
        BYTE   W12
        BYTE           N17    Dn1  v081
        BYTE           N32    Fn1  v109  gtp3
        BYTE   W01
        BYTE           N36    Cn1  v066
        BYTE   W11
// 023   ----------------------------------------
        BYTE           N11    An1  v046
        BYTE   W06
        BYTE           N17    Dn1  v049
        BYTE   W06
        BYTE           N23    An1
        BYTE   W12
        BYTE           N17    Dn1  v083
        BYTE           N32    Fn1  v109  gtp3
        BYTE   W01
        BYTE           N84    Cn1  v066
        BYTE   W11
        BYTE           N11    An1  v070
        BYTE   W06
        BYTE           N17    Dn1  v041
        BYTE   W06
        BYTE           N23    An1  v048
        BYTE   W12
        BYTE           N17    Dn1  v084
        BYTE           N23    Fn1  v109
        BYTE   W12
        BYTE           N11    An1  v066
        BYTE   W06
        BYTE                   Dn1  v055
        BYTE   W06
        BYTE                   An1  v071
        BYTE           N23    Fn1  v109
        BYTE   W06
        BYTE           N11    Dn1  v055
        BYTE   W06
// 024   ----------------------------------------
        BYTE                   An1  v060
        BYTE   W06
        BYTE                   Dn1  v049
        BYTE   W06
        BYTE                   An1  v071
        BYTE           N03    Fn1  v065
        BYTE   W01
        BYTE           N24    Cn1  v066
        BYTE   W03
        BYTE           N03    Fn1  v074
        BYTE   W02
        BYTE           N11    Dn1  v055
        BYTE   W02
        BYTE           N03    Fn1  v082
        BYTE   W04
        BYTE           N11    An1  v060
        BYTE           N03    Fn1  v089
        BYTE   W04
        BYTE                   Fn1  v096
        BYTE   W02
        BYTE           N17    Dn1  v049
        BYTE   W02
        BYTE           N03    Fn1  v103
        BYTE   W04
        BYTE           N17    An1  v081
        BYTE           N92    Fn1  v109  gtp3
        BYTE           TIE    Fn2  v127
        BYTE   W01
        BYTE           N12    Cn1  v066
        BYTE   W11
        BYTE           N11    Dn1  v046
        BYTE   W01
        BYTE           N24    Cn1  v066
        BYTE   W05
        BYTE           N17    An1  v049
        BYTE   W06
        BYTE           N23    Dn1
        BYTE   W12
        BYTE           N17    An1  v083
        BYTE   W01
        BYTE           N84    Cn1  v066
        BYTE   W11
        BYTE           N11    Dn1  v070
        BYTE   W06
        BYTE           N17    An1  v041
        BYTE   W06
// 025   ----------------------------------------
        BYTE                   Dn1  v048
        BYTE   W12
        BYTE           N11    An1  v084
        BYTE   W06
        BYTE           N17    Dn1  v055
        BYTE   W06
        BYTE           N23    An1  v066
        BYTE   W12
        BYTE                   Dn1  v071
        BYTE   W12
        BYTE                   An1  v060
        BYTE   W12
        BYTE                   Dn1  v071
        BYTE   W01
        BYTE           N24    Cn1  v066
        BYTE   W11
        BYTE           N23    An1  v060
        BYTE   W12
        BYTE           EOT    Fn2
        BYTE           N17    Dn1  v081
        BYTE   W01
        BYTE           N36    Cn1  v066
        BYTE   W11
// 026   ----------------------------------------
KnightsPride_9_26:
        BYTE           N11    An1  v046
        BYTE   W06
        BYTE           N17    Dn1  v049
        BYTE   W06
        BYTE           N23    An1
        BYTE   W12
        BYTE           N17    Dn1  v083
        BYTE   W01
        BYTE           TIE    Cn1  v066
        BYTE   W11
        BYTE           N11    An1  v070
        BYTE   W06
        BYTE           N17    Dn1  v041
        BYTE   W06
        BYTE           N23    An1  v048
        BYTE   W12
        BYTE           N17    Dn1  v084
        BYTE   W12
        BYTE           N11    An1  v066
        BYTE   W06
        BYTE                   Dn1  v055
        BYTE   W06
        BYTE                   An1  v071
        BYTE   W06
        BYTE           N17    Dn1  v055
        BYTE   W06
        BYTE   PEND
// 027   ----------------------------------------
        BYTE           N23    An1  v060
        BYTE   W12
        BYTE           N17    Dn1  v071
        BYTE   W12
        BYTE           N11    An1  v060
        BYTE   W06
        BYTE           N17    Dn1  v055
        BYTE   W06
        BYTE                   An1  v081
        BYTE   W01
        BYTE           EOT    Cn1
        BYTE           N12    Cn1  v066
        BYTE   W11
        BYTE           N11    Dn1  v046
        BYTE   W01
        BYTE           N24    Cn1  v066
        BYTE   W05
        BYTE           N17    An1  v049
        BYTE   W06
        BYTE           N23    Dn1
        BYTE   W12
        BYTE           N17    An1  v083
        BYTE   W01
        BYTE           N84    Cn1  v066
        BYTE   W11
        BYTE           N11    Dn1  v070
        BYTE   W06
        BYTE           N17    An1  v041
        BYTE   W06
// 028   ----------------------------------------
        BYTE                   Dn1  v048
        BYTE   W12
        BYTE           N11    An1  v084
        BYTE   W06
        BYTE           N17    Dn1  v055
        BYTE   W06
        BYTE           N23    An1  v066
        BYTE   W12
        BYTE                   Dn1  v071
        BYTE   W12
        BYTE                   An1  v060
        BYTE   W12
        BYTE                   Dn1  v071
        BYTE   W01
        BYTE           N24    Cn1  v066
        BYTE   W11
        BYTE           N23    An1  v060
        BYTE   W12
        BYTE           N17    Dn1  v081
        BYTE   W01
        BYTE           N36    Cn1  v066
        BYTE   W11
// 029   ----------------------------------------
        BYTE   PATT
         POIN2  KnightsPride_9_26
// 030   ----------------------------------------
        BYTE           N17    An1  v060
        BYTE   W12
        BYTE           N11    Dn1  v071
        BYTE           N03    Fn1  v065
        BYTE   W04
        BYTE                   Fn1  v074
        BYTE   W02
        BYTE           N11    An1  v071
        BYTE   W02
        BYTE           N03    Fn1  v082
        BYTE   W04
        BYTE           N11    Dn1  v060
        BYTE           N03    Fn1  v089
        BYTE   W04
        BYTE                   Fn1  v096
        BYTE   W02
        BYTE           N40    An1  v055  gtp1
        BYTE   W02
        BYTE           N03    Fn1  v103
        BYTE   W04
        BYTE           N68    Dn1  v081  gtp3
        BYTE           N92    Fn1  v109  gtp3
        BYTE           TIE    Fn2  v127
        BYTE   W01
        BYTE           EOT    Cn1
        BYTE           N36    Cn1  v061
        BYTE   W32
        BYTE   W03
        BYTE           N56    An1  v083  gtp3
        BYTE   W01
        BYTE           TIE    Cn1  v061
        BYTE   W23
// 031   ----------------------------------------
        BYTE   W12
        BYTE           N44    Dn1  v084  gtp3
        BYTE   W24
        BYTE                   An1  v071
        BYTE   W24
        BYTE           N56    Dn1  v071  gtp3
        BYTE   W24
        BYTE           EOT    Fn2
        BYTE           N68    An1  v081  gtp3
        BYTE   W01
        BYTE           EOT    Cn1
        BYTE           N36    Cn1  v061
        BYTE   W11
// 032   ----------------------------------------
KnightsPride_9_32:
        BYTE   W24
        BYTE           N56    Dn1  v083  gtp3
        BYTE   W01
        BYTE           TIE    Cn1  v061
        BYTE   W32
        BYTE   W03
        BYTE           N44    An1  v084  gtp3
        BYTE   W24
        BYTE                   Dn1  v071
        BYTE   W12
        BYTE   PEND
// 033   ----------------------------------------
KnightsPride_9_33:
        BYTE   W12
        BYTE           N56    An1  v071  gtp3
        BYTE   W24
        BYTE           N68    Dn1  v081  gtp3
        BYTE   W01
        BYTE           EOT    Cn1
        BYTE           N36    Cn1  v061
        BYTE   W32
        BYTE   W03
        BYTE           N56    An1  v083  gtp3
        BYTE   W01
        BYTE           TIE    Cn1  v061
        BYTE   W23
        BYTE   PEND
// 034   ----------------------------------------
KnightsPride_9_34:
        BYTE   W12
        BYTE           N44    Dn1  v084  gtp3
        BYTE   W24
        BYTE                   An1  v071
        BYTE   W24
        BYTE           N56    Dn1  v071  gtp3
        BYTE   W24
        BYTE           N68    An1  v081  gtp3
        BYTE   W01
        BYTE           EOT    Cn1
        BYTE           N36    Cn1  v061
        BYTE   W11
        BYTE   PEND
// 035   ----------------------------------------
        BYTE   PATT
         POIN2  KnightsPride_9_32
// 036   ----------------------------------------
        BYTE   PATT
         POIN2  KnightsPride_9_33
// 037   ----------------------------------------
        BYTE   PATT
         POIN2  KnightsPride_9_34
// 038   ----------------------------------------
        BYTE   W24
        BYTE           N56    Dn1  v083  gtp3
        BYTE   W01
        BYTE           N84    Cn1  v061
        BYTE   W32
        BYTE   W03
        BYTE           N44    An1  v084  gtp3
        BYTE   W24
        BYTE           N32    Dn1  v071  gtp3
        BYTE   W12
// 039   ----------------------------------------
        BYTE   W12
        BYTE           N17    An1  v074
        BYTE           N03    Fn1  v065
        BYTE   W01
        BYTE           N24    Cn1  v061
        BYTE   W03
        BYTE           N03    Fn1  v074
        BYTE   W04
        BYTE                   Fn1  v082
        BYTE   W04
        BYTE           N18    Dn1  v071
        BYTE           N03    Fn1  v089
        BYTE   W04
        BYTE                   Fn1  v096
        BYTE   W02
        BYTE           N12    An1  v082
        BYTE   W02
        BYTE           N03    Fn1  v103
        BYTE   W04
        BYTE           N92    Fn1  v109  gtp3
        BYTE           TIE    Fn2  v127
        BYTE   W01
        BYTE                   Cn1  v061
        BYTE   W56
        BYTE   W03
// 040   ----------------------------------------
KnightsPride_9_40:
        BYTE   W84
        BYTE           EOT    Fn2
        BYTE   W01
        BYTE                   Cn1
        BYTE   W11
        BYTE   PEND
// 041   ----------------------------------------
        BYTE   W96
// 042   ----------------------------------------
        BYTE   W96
// 043   ----------------------------------------
        BYTE   W96
// 044   ----------------------------------------
        BYTE   W96
// 045   ----------------------------------------
        BYTE   W12
        BYTE           N03    Fn1  v065
        BYTE   W04
        BYTE                   Fn1  v074
        BYTE   W04
        BYTE                   Fn1  v082
        BYTE   W04
        BYTE                   Fn1  v089
        BYTE   W04
        BYTE                   Fn1  v096
        BYTE   W04
        BYTE                   Fn1  v103
        BYTE   W04
        BYTE           N92    Fn1  v109  gtp3
        BYTE           TIE    Fn2  v127
        BYTE   W01
        BYTE                   Cn1  v061
        BYTE   W56
        BYTE   W03
// 046   ----------------------------------------
        BYTE   PATT
         POIN2  KnightsPride_9_40
// 047   ----------------------------------------
        BYTE   W96
// 048   ----------------------------------------
        BYTE   W96
// 049   ----------------------------------------
        BYTE   W60
        BYTE           N11    Dn1  v081
        BYTE   W06
        BYTE           N17    An1  v046
        BYTE   W06
        BYTE           N23    Dn1  v074
        BYTE   W12
        BYTE           N17    An1  v081
        BYTE   W01
        BYTE           N36    Cn1  v066
        BYTE   W11
// 050   ----------------------------------------
        BYTE           N11    Dn1  v046
        BYTE   W06
        BYTE           N17    An1  v049
        BYTE   W06
        BYTE           N23    Dn1
        BYTE   W12
        BYTE           N17    An1  v083
        BYTE   W01
        BYTE           N36    Cn1  v066
        BYTE   W11
        BYTE           N11    Dn1  v070
        BYTE   W06
        BYTE           N17    An1  v041
        BYTE   W06
        BYTE           N23    Dn1  v048
        BYTE   W12
        BYTE                   An1  v084
        BYTE   W01
        BYTE           N24    Cn1  v066
        BYTE   W11
        BYTE           N23    Dn1
        BYTE   W12
        BYTE                   An1  v071
        BYTE   W01
        BYTE           N24    Cn1  v066
        BYTE   W11
// 051   ----------------------------------------
        BYTE           N17    Dn1  v060
        BYTE   W12
        BYTE           N11    An1  v071
        BYTE           N03    Fn1  v065
        BYTE   W01
        BYTE           N24    Cn1  v066
        BYTE   W03
        BYTE           N03    Fn1  v074
        BYTE   W02
        BYTE           N17    Dn1  v055
        BYTE   W02
        BYTE           N03    Fn1  v082
        BYTE   W04
        BYTE           N23    An1  v060
        BYTE           N03    Fn1  v089
        BYTE   W04
        BYTE                   Fn1  v096
        BYTE   W04
        BYTE                   Fn1  v103
        BYTE   W04
        BYTE           N17    Dn1  v081
        BYTE           N92    Fn1  v109  gtp3
        BYTE           TIE    Fn2  v127
        BYTE   W01
        BYTE           N12    Cn1  v066
        BYTE   W11
        BYTE           N11    An1  v046
        BYTE   W01
        BYTE           N24    Cn1  v066
        BYTE   W05
        BYTE           N17    Dn1  v049
        BYTE   W06
        BYTE           N23    An1
        BYTE   W12
        BYTE           N17    Dn1  v083
        BYTE   W01
        BYTE           N84    Cn1  v066
        BYTE   W11
        BYTE           N11    An1  v070
        BYTE   W06
        BYTE           N17    Dn1  v041
        BYTE   W06
// 052   ----------------------------------------
        BYTE           N23    An1  v048
        BYTE   W12
        BYTE                   Dn1  v084
        BYTE   W12
        BYTE                   An1  v066
        BYTE   W12
        BYTE                   Dn1  v071
        BYTE   W12
        BYTE           N17    An1  v060
        BYTE   W12
        BYTE           N11    Dn1  v071
        BYTE   W01
        BYTE           N24    Cn1  v066
        BYTE   W05
        BYTE           N17    An1  v055
        BYTE   W06
        BYTE           N23    Dn1  v060
        BYTE   W12
        BYTE           EOT    Fn2
        BYTE           N17    An1  v081
        BYTE   W01
        BYTE           N36    Cn1  v066
        BYTE   W11
// 053   ----------------------------------------
        BYTE   PATT
         POIN2  KnightsPride_9_17
// 054   ----------------------------------------
        BYTE           N17    Dn1  v060
        BYTE   W12
        BYTE           N11    An1  v071
        BYTE           N03    Fn1  v065
        BYTE   W01
        BYTE           N24    Cn1  v066
        BYTE   W03
        BYTE           N03    Fn1  v074
        BYTE   W02
        BYTE           N17    Dn1  v055
        BYTE   W02
        BYTE           N03    Fn1  v082
        BYTE   W04
        BYTE           N23    An1  v060
        BYTE           N03    Fn1  v089
        BYTE   W04
        BYTE                   Fn1  v096
        BYTE   W04
        BYTE                   Fn1  v103
        BYTE   W04
        BYTE           N17    Dn1  v081
        BYTE           N92    Fn1  v109  gtp3
        BYTE           TIE    Fn2  v127
        BYTE   W01
        BYTE           N12    Cn1  v066
        BYTE   W11
        BYTE           N11    An1  v046
        BYTE   W01
        BYTE           N24    Cn1  v066
        BYTE   W05
        BYTE           N17    Dn1  v049
        BYTE   W06
        BYTE           N23    An1
        BYTE   W12
        BYTE                   Dn1  v083
        BYTE   W01
        BYTE           N84    Cn1  v066
        BYTE   W11
        BYTE           N23    An1  v070
        BYTE   W12
// 055   ----------------------------------------
        BYTE                   Dn1  v048
        BYTE   W12
        BYTE           N17    An1  v084
        BYTE   W12
        BYTE           N11    Dn1  v066
        BYTE   W06
        BYTE           N17    An1  v055
        BYTE   W06
        BYTE           N23    Dn1  v071
        BYTE   W12
        BYTE           N17    An1  v060
        BYTE   W12
        BYTE           N11    Dn1  v071
        BYTE   W01
        BYTE           N24    Cn1  v066
        BYTE   W05
        BYTE           N17    An1  v055
        BYTE   W06
        BYTE           N23    Dn1  v060
        BYTE   W12
        BYTE           EOT    Fn2
        BYTE           N17    An1  v081
        BYTE   W01
        BYTE           N36    Cn1  v066
        BYTE   W11
// 056   ----------------------------------------
        BYTE           N11    Dn1  v046
        BYTE   W06
        BYTE           N17    An1  v049
        BYTE   W06
        BYTE           N23    Dn1
        BYTE   W12
        BYTE           N17    An1  v083
        BYTE   W01
        BYTE           N84    Cn1  v066
        BYTE   W11
        BYTE           N11    Dn1  v070
        BYTE   W06
        BYTE           N17    An1  v041
        BYTE   W06
        BYTE           N23    Dn1  v048
        BYTE   W12
        BYTE           N17    An1  v084
        BYTE   W12
        BYTE           N11    Dn1  v066
        BYTE   W06
        BYTE                   An1  v055
        BYTE   W06
        BYTE                   Dn1  v071
        BYTE   W06
        BYTE                   An1  v055
        BYTE   W06
// 057   ----------------------------------------
        BYTE                   Dn1  v060
        BYTE   W06
        BYTE                   An1  v049
        BYTE   W06
        BYTE                   Dn1  v071
        BYTE           N03    Fn1  v065
        BYTE   W01
        BYTE           N24    Cn1  v066
        BYTE   W03
        BYTE           N03    Fn1  v074
        BYTE   W02
        BYTE           N11    An1  v055
        BYTE   W02
        BYTE           N03    Fn1  v082
        BYTE   W04
        BYTE           N05    Dn1  v060
        BYTE           N03    Fn1  v089
        BYTE   W04
        BYTE                   Fn1  v096
        BYTE   W02
        BYTE           N05    An1  v049
        BYTE   W02
        BYTE           N03    Fn1  v103
        BYTE   W04
        BYTE           N17    Dn1  v081
        BYTE           N92    Fn1  v109  gtp3
        BYTE           TIE    Fn2  v127
        BYTE   W01
        BYTE           N12    Cn1  v066
        BYTE   W11
        BYTE           N11    An1  v046
        BYTE   W01
        BYTE           N24    Cn1  v066
        BYTE   W05
        BYTE           N17    Dn1  v049
        BYTE   W06
        BYTE           N23    An1
        BYTE   W12
        BYTE           N17    Dn1  v083
        BYTE   W01
        BYTE           N84    Cn1  v066
        BYTE   W11
        BYTE           N11    An1  v070
        BYTE   W06
        BYTE           N17    Dn1  v041
        BYTE   W06
// 058   ----------------------------------------
        BYTE   PATT
         POIN2  KnightsPride_9_1
// 059   ----------------------------------------
        BYTE   PATT
         POIN2  KnightsPride_9_2
// 060   ----------------------------------------
        BYTE           N17    Dn1  v060
        BYTE   W12
        BYTE           N11    An1  v071
        BYTE           N11    Fn1  v109
        BYTE   W01
        BYTE           N23    Cn1  v066
        BYTE   W05
        BYTE           N17    Dn1  v055
        BYTE   W06
        BYTE           N12    An1  v060
        BYTE           N05    Fn1  v109
        BYTE   W06
        BYTE                   Fn1
        BYTE   GoTo
         POIN2  KnightsPride_9_LOOP
        BYTE   W30
        BYTE   FINE


//********************** End of Song ***********************//

        ALIGN 4
KnightsPride:
        BYTE   10                      // Num Tracks
        BYTE   0                       // Unknown
        BYTE   KnightsPride_pri        // Priority
        BYTE   KnightsPride_rev        // Reverb

        POIN2   KnightsPride_grp       

        POIN2   KnightsPride_0
        POIN2   KnightsPride_1
        POIN2   KnightsPride_2
        POIN2   KnightsPride_3
        POIN2   KnightsPride_4
        POIN2   KnightsPride_5
        POIN2   KnightsPride_6
        POIN2   KnightsPride_7
        POIN2   KnightsPride_8
        POIN2   KnightsPride_9

        
