//Generated with python s2ea
        #include "MPlayDef.event"

        #define    NuclearFusion_DrGreen3339_grp voicegroup000
        #define    NuclearFusion_DrGreen3339_pri 0
        #define    NuclearFusion_DrGreen3339_rev 0
        #define    NuclearFusion_DrGreen3339_key 0

        // .rodata
        // NuclearFusion_DrGreen3339
        ALIGN 4

//****************** Track 0 (Midi-Chn.0) ******************//

NuclearFusion_DrGreen3339_0:
        BYTE   KEYSH  NuclearFusion_DrGreen3339_key+0
// 000   ----------------------------------------
        BYTE   TEMPO  156/2
        BYTE           VOICE  36
        BYTE           VOL    54
        BYTE   W36
NuclearFusion_DrGreen3339_0_LOOP:
        BYTE           N06    Dn1  v120
        BYTE   W06
        BYTE                   Dn1
        BYTE   W06
        BYTE                   Dn1
        BYTE   W06
        BYTE                   Dn1
        BYTE   W06
        BYTE                   En1
        BYTE   W06
        BYTE                   Dn1
        BYTE   W06
        BYTE                   Dn1
        BYTE   W06
        BYTE                   Dn1
        BYTE   W06
        BYTE                   Fn1
        BYTE   W06
        BYTE                   Dn1
        BYTE   W06
// 001   ----------------------------------------
NuclearFusion_DrGreen3339_0_1:
        BYTE           N06    Dn1  v120
        BYTE   W06
        BYTE                   Dn1
        BYTE   W06
        BYTE                   Gn1
        BYTE   W06
        BYTE                   Cn1
        BYTE   W06
        BYTE                   Cn1
        BYTE   W06
        BYTE                   Cn1
        BYTE   W06
        BYTE                   Dn1
        BYTE   W06
        BYTE                   Dn1
        BYTE   W06
        BYTE                   Dn1
        BYTE   W06
        BYTE                   Dn1
        BYTE   W06
        BYTE                   En1
        BYTE   W06
        BYTE                   Dn1
        BYTE   W06
        BYTE                   Dn1
        BYTE   W06
        BYTE                   Dn1
        BYTE   W06
        BYTE                   Fn1
        BYTE   W06
        BYTE                   Dn1
        BYTE   W06
        BYTE   PEND
// 002   ----------------------------------------
NuclearFusion_DrGreen3339_0_2:
        BYTE           N06    Dn1  v120
        BYTE   W06
        BYTE                   Dn1
        BYTE   W06
        BYTE                   Gn1
        BYTE   W06
        BYTE                   Cn1
        BYTE   W06
        BYTE                   Cn1
        BYTE   W06
        BYTE                   En1
        BYTE   W06
        BYTE                   Dn1
        BYTE   W06
        BYTE                   Dn1
        BYTE   W06
        BYTE                   Dn1
        BYTE   W06
        BYTE                   Dn1
        BYTE   W06
        BYTE                   En1
        BYTE   W06
        BYTE                   Dn1
        BYTE   W06
        BYTE                   Dn1
        BYTE   W06
        BYTE                   Dn1
        BYTE   W06
        BYTE                   Fn1
        BYTE   W06
        BYTE                   Dn1
        BYTE   W06
        BYTE   PEND
// 003   ----------------------------------------
        BYTE   PATT
         POIN2  NuclearFusion_DrGreen3339_0_1
// 004   ----------------------------------------
NuclearFusion_DrGreen3339_0_4:
        BYTE           N06    Gn1  v120
        BYTE   W06
        BYTE                   Dn1
        BYTE   W06
        BYTE                   An1
        BYTE   W06
        BYTE                   Cn1
        BYTE   W06
        BYTE                   Cn1
        BYTE   W06
        BYTE                   En1
        BYTE   W06
        BYTE           N12    Dn1
        BYTE   W12
        BYTE           N06
        BYTE   W06
        BYTE                   Dn1
        BYTE   W06
        BYTE                   Dn1
        BYTE   W12
        BYTE           N12    En1
        BYTE   W12
        BYTE           N06
        BYTE   W06
        BYTE                   En1
        BYTE   W06
        BYTE   PEND
// 005   ----------------------------------------
NuclearFusion_DrGreen3339_0_5:
        BYTE           N06    En1  v120
        BYTE   W12
        BYTE           N12    Fn1
        BYTE   W12
        BYTE           N06
        BYTE   W06
        BYTE                   Fn1
        BYTE   W06
        BYTE                   Fn1
        BYTE   W12
        BYTE           N12    Gn1
        BYTE   W12
        BYTE           N06
        BYTE   W06
        BYTE                   Gn1
        BYTE   W06
        BYTE                   Gn1
        BYTE   W12
        BYTE                   An1
        BYTE   W06
        BYTE                   As1
        BYTE   W06
        BYTE   PEND
// 006   ----------------------------------------
NuclearFusion_DrGreen3339_0_6:
        BYTE           N06    An1  v120
        BYTE   W06
        BYTE                   Gn1
        BYTE   W06
        BYTE                   Fn1
        BYTE   W06
        BYTE                   En1
        BYTE   W06
        BYTE                   An1
        BYTE   W06
        BYTE                   Dn1
        BYTE   W06
        BYTE           N24    Cn1
        BYTE   W24
        BYTE           N12
        BYTE   W12
        BYTE           N24    Dn1
        BYTE   W24
        BYTE   PEND
// 007   ----------------------------------------
NuclearFusion_DrGreen3339_0_7:
        BYTE           N12    Dn1  v120
        BYTE   W12
        BYTE                   En1
        BYTE   W12
        BYTE           N06
        BYTE   W06
        BYTE                   En1
        BYTE   W06
        BYTE           N12
        BYTE   W12
        BYTE                   Fn1
        BYTE   W12
        BYTE           N06
        BYTE   W06
        BYTE                   Fn1
        BYTE   W06
        BYTE           N12
        BYTE   W12
        BYTE                   Gn1
        BYTE   W12
        BYTE   PEND
// 008   ----------------------------------------
NuclearFusion_DrGreen3339_0_8:
        BYTE           N06    Gn1  v120
        BYTE   W06
        BYTE                   Gn1
        BYTE   W06
        BYTE           N12    Cn1
        BYTE   W12
        BYTE           N06
        BYTE   W06
        BYTE                   Cn1
        BYTE   W06
        BYTE                   As0
        BYTE   W06
        BYTE                   As0
        BYTE   W06
        BYTE                   Cn1
        BYTE   W06
        BYTE                   Cn1
        BYTE   W06
        BYTE                   Dn1
        BYTE   W06
        BYTE                   Dn1
        BYTE   W06
        BYTE                   Fn1
        BYTE   W06
        BYTE                   An0
        BYTE   W06
        BYTE                   As0
        BYTE   W06
        BYTE                   As0
        BYTE   W06
        BYTE   PEND
// 009   ----------------------------------------
NuclearFusion_DrGreen3339_0_9:
        BYTE           N06    Cn1  v120
        BYTE   W06
        BYTE                   Cn1
        BYTE   W06
        BYTE                   Fn1
        BYTE   W06
        BYTE                   Fn1
        BYTE   W06
        BYTE                   Cn1
        BYTE   W06
        BYTE                   Cn1
        BYTE   W06
        BYTE                   As0
        BYTE   W06
        BYTE                   As0
        BYTE   W06
        BYTE                   Cn1
        BYTE   W06
        BYTE                   Cn1
        BYTE   W06
        BYTE                   Dn1
        BYTE   W06
        BYTE                   Dn1
        BYTE   W06
        BYTE                   Fn1
        BYTE   W06
        BYTE                   An0
        BYTE   W06
        BYTE                   As0
        BYTE   W06
        BYTE                   As0
        BYTE   W06
        BYTE   PEND
// 010   ----------------------------------------
NuclearFusion_DrGreen3339_0_10:
        BYTE           N06    Cn1  v120
        BYTE   W06
        BYTE                   Cn1
        BYTE   W06
        BYTE                   En1
        BYTE   W06
        BYTE                   En1
        BYTE   W06
        BYTE                   Cn1
        BYTE   W06
        BYTE                   Cn1
        BYTE   W06
        BYTE                   As0
        BYTE   W06
        BYTE                   As0
        BYTE   W06
        BYTE                   Cn1
        BYTE   W06
        BYTE                   Cn1
        BYTE   W06
        BYTE                   Dn1
        BYTE   W06
        BYTE                   Dn1
        BYTE   W06
        BYTE                   Fn1
        BYTE   W06
        BYTE                   An0
        BYTE   W06
        BYTE                   As0
        BYTE   W06
        BYTE                   As0
        BYTE   W06
        BYTE   PEND
// 011   ----------------------------------------
        BYTE   PATT
         POIN2  NuclearFusion_DrGreen3339_0_9
// 012   ----------------------------------------
NuclearFusion_DrGreen3339_0_12:
        BYTE           N06    Cn1  v120
        BYTE   W06
        BYTE                   Cn1
        BYTE   W06
        BYTE                   En1
        BYTE   W06
        BYTE                   En1
        BYTE   W06
        BYTE                   Cn1
        BYTE   W06
        BYTE                   Cn1
        BYTE   W06
        BYTE           N12    As0
        BYTE   W12
        BYTE           N06
        BYTE   W06
        BYTE                   As0
        BYTE   W06
        BYTE                   As0
        BYTE   W12
        BYTE           N12    Cn1
        BYTE   W12
        BYTE           N06
        BYTE   W06
        BYTE                   Cn1
        BYTE   W06
        BYTE   PEND
// 013   ----------------------------------------
NuclearFusion_DrGreen3339_0_13:
        BYTE           N06    Cn1  v120
        BYTE   W12
        BYTE           N12    Dn1
        BYTE   W12
        BYTE           N06
        BYTE   W06
        BYTE                   Dn1
        BYTE   W06
        BYTE                   Dn1
        BYTE   W12
        BYTE           N12    En1
        BYTE   W12
        BYTE           N06
        BYTE   W06
        BYTE                   En1
        BYTE   W06
        BYTE                   En1
        BYTE   W12
        BYTE                   Fn1
        BYTE   W06
        BYTE                   Gn1
        BYTE   W06
        BYTE   PEND
// 014   ----------------------------------------
NuclearFusion_DrGreen3339_0_14:
        BYTE           N06    Fn1  v120
        BYTE   W06
        BYTE                   En1
        BYTE   W06
        BYTE                   Cn1
        BYTE   W06
        BYTE                   Cn2
        BYTE   W06
        BYTE                   Gn1
        BYTE   W06
        BYTE                   Cn1
        BYTE   W06
        BYTE           N24    Dn1
        BYTE   W24
        BYTE           N12
        BYTE   W12
        BYTE           N24    En1
        BYTE   W24
        BYTE   PEND
// 015   ----------------------------------------
NuclearFusion_DrGreen3339_0_15:
        BYTE           N12    En1  v120
        BYTE   W12
        BYTE                   Fn1
        BYTE   W12
        BYTE           N06
        BYTE   W06
        BYTE                   Fn1
        BYTE   W06
        BYTE           N12
        BYTE   W12
        BYTE                   Gn1
        BYTE   W12
        BYTE           N06
        BYTE   W06
        BYTE                   Gn1
        BYTE   W06
        BYTE           N12
        BYTE   W12
        BYTE                   An1
        BYTE   W12
        BYTE   PEND
// 016   ----------------------------------------
        BYTE           N06
        BYTE   W06
        BYTE                   An1
        BYTE   W06
        BYTE           N12    Cn1
        BYTE   W12
        BYTE           N06
        BYTE   W06
        BYTE                   Cn1
        BYTE   W06
        BYTE                   Dn1
        BYTE   W06
        BYTE                   Dn1
        BYTE   W06
        BYTE                   Dn1
        BYTE   W06
        BYTE                   Dn1
        BYTE   W06
        BYTE                   En1
        BYTE   W06
        BYTE                   Dn1
        BYTE   W06
        BYTE                   Dn1
        BYTE   W06
        BYTE                   Dn1
        BYTE   W06
        BYTE                   Fn1
        BYTE   W06
        BYTE                   Dn1
        BYTE   W06
// 017   ----------------------------------------
        BYTE   PATT
         POIN2  NuclearFusion_DrGreen3339_0_1
// 018   ----------------------------------------
        BYTE   PATT
         POIN2  NuclearFusion_DrGreen3339_0_2
// 019   ----------------------------------------
        BYTE   PATT
         POIN2  NuclearFusion_DrGreen3339_0_1
// 020   ----------------------------------------
        BYTE   PATT
         POIN2  NuclearFusion_DrGreen3339_0_4
// 021   ----------------------------------------
        BYTE   PATT
         POIN2  NuclearFusion_DrGreen3339_0_5
// 022   ----------------------------------------
        BYTE   PATT
         POIN2  NuclearFusion_DrGreen3339_0_6
// 023   ----------------------------------------
        BYTE   PATT
         POIN2  NuclearFusion_DrGreen3339_0_7
// 024   ----------------------------------------
        BYTE   PATT
         POIN2  NuclearFusion_DrGreen3339_0_8
// 025   ----------------------------------------
        BYTE   PATT
         POIN2  NuclearFusion_DrGreen3339_0_9
// 026   ----------------------------------------
        BYTE   PATT
         POIN2  NuclearFusion_DrGreen3339_0_10
// 027   ----------------------------------------
        BYTE   PATT
         POIN2  NuclearFusion_DrGreen3339_0_9
// 028   ----------------------------------------
        BYTE   PATT
         POIN2  NuclearFusion_DrGreen3339_0_12
// 029   ----------------------------------------
        BYTE   PATT
         POIN2  NuclearFusion_DrGreen3339_0_13
// 030   ----------------------------------------
        BYTE   PATT
         POIN2  NuclearFusion_DrGreen3339_0_14
// 031   ----------------------------------------
        BYTE   PATT
         POIN2  NuclearFusion_DrGreen3339_0_15
// 032   ----------------------------------------
        BYTE           N06    An1  v120
        BYTE   W06
        BYTE                   An1
        BYTE   W06
        BYTE           N12    Cn1
        BYTE   W12
        BYTE           N06
        BYTE   W06
        BYTE                   Cn1
        BYTE   W06
        BYTE           N12    Dn1
        BYTE   W12
        BYTE           N06
        BYTE   W06
        BYTE           N12    En1
        BYTE   W12
        BYTE           N06
        BYTE   W06
        BYTE           N12    Fn1
        BYTE   W12
        BYTE           N06    Dn1
        BYTE   W12
// 033   ----------------------------------------
        BYTE   W96
// 034   ----------------------------------------
NuclearFusion_DrGreen3339_0_34:
        BYTE   W36
        BYTE           N12    Cn1  v120
        BYTE   W12
        BYTE           N06
        BYTE   W06
        BYTE                   Cn1
        BYTE   W06
        BYTE           N12    Gn1
        BYTE   W12
        BYTE           N06    En1
        BYTE   W06
        BYTE           N12    Cn1
        BYTE   W12
        BYTE           N06
        BYTE   W06
        BYTE   PEND
// 035   ----------------------------------------
NuclearFusion_DrGreen3339_0_35:
        BYTE           N06    Cn1  v120
        BYTE   W06
        BYTE                   Cn1
        BYTE   W06
        BYTE           N12    Gn1
        BYTE   W12
        BYTE           N06    En1
        BYTE   W06
        BYTE                   En1
        BYTE   W06
        BYTE           N12    Cn1
        BYTE   W12
        BYTE           N06
        BYTE   W06
        BYTE                   Cn1
        BYTE   W06
        BYTE           N12    Gn1
        BYTE   W12
        BYTE           N06    En1
        BYTE   W06
        BYTE           N12    Cn1
        BYTE   W12
        BYTE           N06
        BYTE   W06
        BYTE   PEND
// 036   ----------------------------------------
NuclearFusion_DrGreen3339_0_36:
        BYTE           N06    Cn1  v120
        BYTE   W06
        BYTE                   Cn1
        BYTE   W06
        BYTE           N12    Gn1
        BYTE   W12
        BYTE                   Cn1
        BYTE   W12
        BYTE                   Fn1
        BYTE   W12
        BYTE           N06
        BYTE   W06
        BYTE           N12    Gn1
        BYTE   W12
        BYTE           N06
        BYTE   W06
        BYTE           N12    An1
        BYTE   W12
        BYTE           N06    Fn1
        BYTE   W12
        BYTE   PEND
// 037   ----------------------------------------
        BYTE   W96
// 038   ----------------------------------------
NuclearFusion_DrGreen3339_0_38:
        BYTE   W12
        BYTE           N24    Cn1  v120
        BYTE   W24
        BYTE           N06    Dn1
        BYTE   W06
        BYTE                   Dn1
        BYTE   W06
        BYTE                   Dn1
        BYTE   W06
        BYTE                   Dn1
        BYTE   W06
        BYTE                   An1
        BYTE   W06
        BYTE                   Dn1
        BYTE   W06
        BYTE                   Dn1
        BYTE   W06
        BYTE                   Dn1
        BYTE   W06
        BYTE           N12    Gn1
        BYTE   W12
        BYTE   PEND
// 039   ----------------------------------------
        BYTE           N06    Dn1
        BYTE   W06
        BYTE           N12    Fn1
        BYTE   W12
        BYTE           N06    Dn1
        BYTE   W06
        BYTE           N12    En1
        BYTE   W12
        BYTE           N06    Dn1
        BYTE   W06
        BYTE                   Dn1
        BYTE   W06
        BYTE                   Dn1
        BYTE   W06
        BYTE                   Dn1
        BYTE   W06
        BYTE                   Gn1
        BYTE   W06
        BYTE                   Dn1
        BYTE   W06
        BYTE                   Dn1
        BYTE   W06
        BYTE                   Dn1
        BYTE   W06
        BYTE           N12    Fn1
        BYTE   W12
// 040   ----------------------------------------
        BYTE           N06    Dn1
        BYTE   W06
        BYTE           N12    En1
        BYTE   W12
        BYTE           N06    Dn1
        BYTE   W06
        BYTE           N12    Cn1
        BYTE   W12
        BYTE                   Dn1
        BYTE   W12
        BYTE           N06
        BYTE   W06
        BYTE           N12    En1
        BYTE   W12
        BYTE           N06
        BYTE   W06
        BYTE           N12    Fn1
        BYTE   W12
        BYTE           N06    Dn1
        BYTE   W12
// 041   ----------------------------------------
        BYTE   W96
// 042   ----------------------------------------
        BYTE   PATT
         POIN2  NuclearFusion_DrGreen3339_0_34
// 043   ----------------------------------------
        BYTE   PATT
         POIN2  NuclearFusion_DrGreen3339_0_35
// 044   ----------------------------------------
        BYTE   PATT
         POIN2  NuclearFusion_DrGreen3339_0_36
// 045   ----------------------------------------
        BYTE   W96
// 046   ----------------------------------------
        BYTE   PATT
         POIN2  NuclearFusion_DrGreen3339_0_38
// 047   ----------------------------------------
        BYTE           N06    Dn1  v120
        BYTE   W06
        BYTE           N12    Fn1
        BYTE   W12
        BYTE           N06    Dn1
        BYTE   W06
        BYTE           N12    En1
        BYTE   W12
        BYTE           N06    Dn1
        BYTE   W06
        BYTE                   Dn1
        BYTE   W06
        BYTE                   Dn1
        BYTE   W06
        BYTE                   Dn1
        BYTE   W06
        BYTE                   An1
        BYTE   W06
        BYTE                   Dn1
        BYTE   W06
        BYTE                   Dn1
        BYTE   W06
        BYTE                   Cn1
        BYTE   W06
        BYTE                   Cn1
        BYTE   W06
        BYTE                   Dn1
        BYTE   W06
// 048   ----------------------------------------
        BYTE                   Dn1
        BYTE   W06
        BYTE                   Dn1
        BYTE   W06
        BYTE           N12
        BYTE   W84
// 049   ----------------------------------------
        BYTE   W96
// 050   ----------------------------------------
        BYTE   W96
// 051   ----------------------------------------
        BYTE   W96
// 052   ----------------------------------------
        BYTE   W06
        BYTE           N18
        BYTE   W18
        BYTE           N12    Cn1
        BYTE   W12
        BYTE           N18    As0
        BYTE   W18
        BYTE           N06
        BYTE   W06
        BYTE                   Dn1
        BYTE   W06
        BYTE                   As0
        BYTE   W06
        BYTE                   As0
        BYTE   W06
        BYTE                   As0
        BYTE   W06
        BYTE                   Fn1
        BYTE   W06
        BYTE                   As0
        BYTE   W06
// 053   ----------------------------------------
        BYTE                   As0
        BYTE   W06
        BYTE                   As0
        BYTE   W06
        BYTE                   An1
        BYTE   W12
        BYTE                   As0
        BYTE   W12
        BYTE           N18    Cn1
        BYTE   W18
        BYTE           N06
        BYTE   W06
        BYTE                   En1
        BYTE   W06
        BYTE                   Cn1
        BYTE   W06
        BYTE                   Cn1
        BYTE   W06
        BYTE                   Cn1
        BYTE   W06
        BYTE                   Gn1
        BYTE   W06
        BYTE                   Cn1
        BYTE   W06
// 054   ----------------------------------------
        BYTE                   Cn1
        BYTE   W06
        BYTE                   Cn1
        BYTE   W06
        BYTE                   En1
        BYTE   W12
        BYTE                   Cn1
        BYTE   W12
        BYTE           N18    Dn1
        BYTE   W18
        BYTE           N06
        BYTE   W06
        BYTE                   Fs1
        BYTE   W06
        BYTE                   Dn1
        BYTE   W06
        BYTE                   Dn1
        BYTE   W06
        BYTE                   Dn1
        BYTE   W06
        BYTE                   An1
        BYTE   W06
        BYTE                   Dn1
        BYTE   W06
// 055   ----------------------------------------
        BYTE                   Dn1
        BYTE   W06
        BYTE                   Dn1
        BYTE   W06
        BYTE                   Fs1
        BYTE   W12
        BYTE                   Dn1
        BYTE   W12
        BYTE           N18    En1
        BYTE   W18
        BYTE           N06
        BYTE   W06
        BYTE                   Cn1
        BYTE   W06
        BYTE                   Cn1
        BYTE   W06
        BYTE                   Cn1
        BYTE   W06
        BYTE                   Cn1
        BYTE   W06
        BYTE           N18    Gn1
        BYTE   W12
// 056   ----------------------------------------
        BYTE   W06
        BYTE           N12    En1
        BYTE   W12
        BYTE           N06
        BYTE   W06
        BYTE           N12    Fs1
        BYTE   W12
        BYTE                   Fs1
        BYTE   W18
        BYTE           N06    As0
        BYTE   W18
        BYTE                   As0
        BYTE   W06
        BYTE                   Fs1
        BYTE   W06
        BYTE           N12
        BYTE   W12
// 057   ----------------------------------------
        BYTE           N06    An0
        BYTE   W06
        BYTE           N12    As0
        BYTE   W12
        BYTE           N06    Cn1
        BYTE   W06
        BYTE                   En1
        BYTE   W06
        BYTE                   Cn1
        BYTE   W06
        BYTE           N18    Fs1
        BYTE   W18
        BYTE           N06    As0
        BYTE   W12
        BYTE           N12
        BYTE   W12
        BYTE           N06    En1
        BYTE   W06
        BYTE                   Fs1
        BYTE   W06
        BYTE                   As0
        BYTE   W06
// 058   ----------------------------------------
        BYTE   W06
        BYTE                   As0
        BYTE   W06
        BYTE           N12
        BYTE   W24
        BYTE   GoTo
         POIN2  NuclearFusion_DrGreen3339_0_LOOP
        BYTE   FINE

//****************** Track 1 (Midi-Chn.1) ******************//

NuclearFusion_DrGreen3339_1:
        BYTE   KEYSH  NuclearFusion_DrGreen3339_key+0
// 000   ----------------------------------------
        BYTE           VOICE  75
        BYTE           VOL    23
        BYTE           PAN    c_v+32
        BYTE   W36
NuclearFusion_DrGreen3339_1_LOOP:
        BYTE           TIE    An4  v120
        BYTE   W60
// 001   ----------------------------------------
NuclearFusion_DrGreen3339_1_1:
        BYTE   W60
        BYTE           EOT    An4
        BYTE           N24    Cn5  v120
        BYTE   W24
        BYTE           N12    Bn4
        BYTE   W12
        BYTE   PEND
// 002   ----------------------------------------
NuclearFusion_DrGreen3339_1_2:
        BYTE           N12    An4  v120
        BYTE   W12
        BYTE           N24    Gn4
        BYTE   W24
        BYTE                   An4
        BYTE   W24
        BYTE           N12    Dn4
        BYTE   W12
        BYTE           N84    An4
        BYTE   W24
        BYTE   PEND
// 003   ----------------------------------------
NuclearFusion_DrGreen3339_1_3:
        BYTE   W60
        BYTE           N12    An4  v120
        BYTE   W12
        BYTE                   Bn4
        BYTE   W12
        BYTE                   Cn5
        BYTE   W12
        BYTE   PEND
// 004   ----------------------------------------
NuclearFusion_DrGreen3339_1_4:
        BYTE           N12    Dn5  v120
        BYTE   W12
        BYTE                   Bn4
        BYTE   W12
        BYTE                   Gn4
        BYTE   W12
        BYTE           N36    An4
        BYTE   W36
        BYTE                   Bn4
        BYTE   W24
        BYTE   PEND
// 005   ----------------------------------------
NuclearFusion_DrGreen3339_1_5:
        BYTE   W12
        BYTE           N36    Cn5  v120
        BYTE   W36
        BYTE                   Bn4
        BYTE   W36
        BYTE           N24    An4
        BYTE   W12
        BYTE   PEND
// 006   ----------------------------------------
NuclearFusion_DrGreen3339_1_6:
        BYTE   W12
        BYTE           N24    Dn4  v120
        BYTE   W24
        BYTE           N12    Fn4
        BYTE   W12
        BYTE                   Gn4
        BYTE   W12
        BYTE                   Fn4
        BYTE   W12
        BYTE           TIE    En4
        BYTE   W24
        BYTE   PEND
// 007   ----------------------------------------
        BYTE   W96
// 008   ----------------------------------------
NuclearFusion_DrGreen3339_1_8:
        BYTE   W36
        BYTE           EOT    En4
        BYTE           TIE    Gn4  v120
        BYTE   W60
        BYTE   PEND
// 009   ----------------------------------------
NuclearFusion_DrGreen3339_1_9:
        BYTE   W60
        BYTE           EOT    Gn4
        BYTE           N24    As4  v120
        BYTE   W24
        BYTE           N12    An4
        BYTE   W12
        BYTE   PEND
// 010   ----------------------------------------
NuclearFusion_DrGreen3339_1_10:
        BYTE           N12    Gn4  v120
        BYTE   W12
        BYTE           N24    Dn4
        BYTE   W24
        BYTE           TIE    Gn4
        BYTE   W60
        BYTE   PEND
// 011   ----------------------------------------
NuclearFusion_DrGreen3339_1_11:
        BYTE   W60
        BYTE           EOT    Gn4
        BYTE           N12    Gn4  v120
        BYTE   W12
        BYTE                   An4
        BYTE   W12
        BYTE                   As4
        BYTE   W12
        BYTE   PEND
// 012   ----------------------------------------
NuclearFusion_DrGreen3339_1_12:
        BYTE           N12    Cn5  v120
        BYTE   W12
        BYTE                   As4
        BYTE   W12
        BYTE                   Fn4
        BYTE   W12
        BYTE           N36    Gn4
        BYTE   W36
        BYTE                   An4
        BYTE   W24
        BYTE   PEND
// 013   ----------------------------------------
NuclearFusion_DrGreen3339_1_13:
        BYTE   W12
        BYTE           N36    As4  v120
        BYTE   W36
        BYTE                   An4
        BYTE   W36
        BYTE           N24    Gn4
        BYTE   W12
        BYTE   PEND
// 014   ----------------------------------------
NuclearFusion_DrGreen3339_1_14:
        BYTE   W12
        BYTE           N24    En4  v120
        BYTE   W24
        BYTE           N12    Fn4
        BYTE   W12
        BYTE                   Gn4
        BYTE   W12
        BYTE                   En4
        BYTE   W12
        BYTE           TIE    Dn4
        BYTE   W24
        BYTE   PEND
// 015   ----------------------------------------
        BYTE   W96
// 016   ----------------------------------------
        BYTE   W36
        BYTE           EOT
        BYTE           TIE    An4
        BYTE   W60
// 017   ----------------------------------------
        BYTE   PATT
         POIN2  NuclearFusion_DrGreen3339_1_1
// 018   ----------------------------------------
        BYTE   PATT
         POIN2  NuclearFusion_DrGreen3339_1_2
// 019   ----------------------------------------
        BYTE   PATT
         POIN2  NuclearFusion_DrGreen3339_1_3
// 020   ----------------------------------------
        BYTE   PATT
         POIN2  NuclearFusion_DrGreen3339_1_4
// 021   ----------------------------------------
        BYTE   PATT
         POIN2  NuclearFusion_DrGreen3339_1_5
// 022   ----------------------------------------
        BYTE   PATT
         POIN2  NuclearFusion_DrGreen3339_1_6
// 023   ----------------------------------------
        BYTE   W96
// 024   ----------------------------------------
        BYTE   PATT
         POIN2  NuclearFusion_DrGreen3339_1_8
// 025   ----------------------------------------
        BYTE   PATT
         POIN2  NuclearFusion_DrGreen3339_1_9
// 026   ----------------------------------------
        BYTE   PATT
         POIN2  NuclearFusion_DrGreen3339_1_10
// 027   ----------------------------------------
        BYTE   PATT
         POIN2  NuclearFusion_DrGreen3339_1_11
// 028   ----------------------------------------
        BYTE   PATT
         POIN2  NuclearFusion_DrGreen3339_1_12
// 029   ----------------------------------------
        BYTE   PATT
         POIN2  NuclearFusion_DrGreen3339_1_13
// 030   ----------------------------------------
        BYTE   PATT
         POIN2  NuclearFusion_DrGreen3339_1_14
// 031   ----------------------------------------
        BYTE   W96
// 032   ----------------------------------------
        BYTE   W36
        BYTE           EOT    Dn4
        BYTE   W60
// 033   ----------------------------------------
        BYTE   W96
// 034   ----------------------------------------
        BYTE   W96
// 035   ----------------------------------------
        BYTE   W96
// 036   ----------------------------------------
        BYTE   W96
// 037   ----------------------------------------
        BYTE   W96
// 038   ----------------------------------------
        BYTE   W96
// 039   ----------------------------------------
        BYTE   W96
// 040   ----------------------------------------
        BYTE   W96
// 041   ----------------------------------------
        BYTE   W96
// 042   ----------------------------------------
        BYTE   W96
// 043   ----------------------------------------
        BYTE   W96
// 044   ----------------------------------------
        BYTE   W96
// 045   ----------------------------------------
        BYTE   W96
// 046   ----------------------------------------
        BYTE   W96
// 047   ----------------------------------------
        BYTE   W96
// 048   ----------------------------------------
        BYTE   W36
        BYTE           N18    Ds4  v120
        BYTE   W18
        BYTE                   As3
        BYTE   W18
        BYTE           N12    Gn3
        BYTE   W12
        BYTE           N18    Ds3
        BYTE   W12
// 049   ----------------------------------------
        BYTE   W06
        BYTE                   As3
        BYTE   W18
        BYTE           N12    Ds4
        BYTE   W12
        BYTE           N18    Dn4
        BYTE   W18
        BYTE                   An3
        BYTE   W18
        BYTE           N12    Gn3
        BYTE   W12
        BYTE           N36    An3
        BYTE   W12
// 050   ----------------------------------------
        BYTE   W24
        BYTE           N12    Cn4
        BYTE   W12
        BYTE           N18    Ds4
        BYTE   W18
        BYTE                   As3
        BYTE   W18
        BYTE           N12    Gn3
        BYTE   W12
        BYTE           N18    Ds3
        BYTE   W12
// 051   ----------------------------------------
        BYTE   W06
        BYTE                   Fn4
        BYTE   W18
        BYTE           N12    Ds4
        BYTE   W12
        BYTE           N18    Dn4
        BYTE   W18
        BYTE                   An3
        BYTE   W18
        BYTE           N12    Gn3
        BYTE   W12
        BYTE           N24    An3
        BYTE   W12
// 052   ----------------------------------------
        BYTE   W96
// 053   ----------------------------------------
        BYTE   W96
// 054   ----------------------------------------
        BYTE   W96
// 055   ----------------------------------------
        BYTE   W96
// 056   ----------------------------------------
        BYTE   W96
// 057   ----------------------------------------
        BYTE   W96
// 058   ----------------------------------------
        BYTE   W36
        BYTE   GoTo
         POIN2  NuclearFusion_DrGreen3339_1_LOOP
        BYTE   FINE

//****************** Track 2 (Midi-Chn.2) ******************//

NuclearFusion_DrGreen3339_2:
        BYTE   KEYSH  NuclearFusion_DrGreen3339_key+0
// 000   ----------------------------------------
        BYTE           VOICE  13
        BYTE           VOL    24
        BYTE           PAN    c_v+32
        BYTE   W36
NuclearFusion_DrGreen3339_2_LOOP:
        BYTE   W60
// 001   ----------------------------------------
        BYTE   W96
// 002   ----------------------------------------
        BYTE   W96
// 003   ----------------------------------------
        BYTE   W96
// 004   ----------------------------------------
        BYTE   W96
// 005   ----------------------------------------
        BYTE   W96
// 006   ----------------------------------------
        BYTE   W96
// 007   ----------------------------------------
        BYTE   W96
// 008   ----------------------------------------
        BYTE   W96
// 009   ----------------------------------------
        BYTE   W96
// 010   ----------------------------------------
        BYTE   W96
// 011   ----------------------------------------
        BYTE   W96
// 012   ----------------------------------------
        BYTE   W96
// 013   ----------------------------------------
        BYTE   W96
// 014   ----------------------------------------
        BYTE   W96
// 015   ----------------------------------------
        BYTE   W96
// 016   ----------------------------------------
        BYTE   W96
// 017   ----------------------------------------
        BYTE   W96
// 018   ----------------------------------------
        BYTE   W96
// 019   ----------------------------------------
        BYTE   W96
// 020   ----------------------------------------
        BYTE   W96
// 021   ----------------------------------------
        BYTE   W96
// 022   ----------------------------------------
        BYTE   W96
// 023   ----------------------------------------
        BYTE   W96
// 024   ----------------------------------------
        BYTE   W96
// 025   ----------------------------------------
        BYTE   W96
// 026   ----------------------------------------
        BYTE   W96
// 027   ----------------------------------------
        BYTE   W96
// 028   ----------------------------------------
        BYTE   W96
// 029   ----------------------------------------
        BYTE   W96
// 030   ----------------------------------------
        BYTE   W96
// 031   ----------------------------------------
        BYTE   W96
// 032   ----------------------------------------
        BYTE   W36
        BYTE           N06    Dn3  v120
        BYTE   W06
        BYTE                   Gn3
        BYTE   W06
        BYTE                   An3
        BYTE   W06
        BYTE                   Dn4
        BYTE   W06
        BYTE                   Fn4
        BYTE   W06
        BYTE                   Dn4
        BYTE   W06
        BYTE                   An3
        BYTE   W06
        BYTE                   Fn3
        BYTE   W06
        BYTE                   Dn3
        BYTE   W12
// 033   ----------------------------------------
NuclearFusion_DrGreen3339_2_33:
        BYTE   W06
        BYTE           N06    Dn4  v120
        BYTE   W06
        BYTE                   Fn4
        BYTE   W06
        BYTE                   Dn4
        BYTE   W06
        BYTE                   An3
        BYTE   W06
        BYTE                   Fn3
        BYTE   W06
        BYTE                   Dn3
        BYTE   W06
        BYTE                   Gn3
        BYTE   W06
        BYTE                   An3
        BYTE   W06
        BYTE                   Dn4
        BYTE   W06
        BYTE                   Fn4
        BYTE   W06
        BYTE                   Dn4
        BYTE   W06
        BYTE                   An3
        BYTE   W06
        BYTE                   Fn3
        BYTE   W06
        BYTE                   Dn3
        BYTE   W12
        BYTE   PEND
// 034   ----------------------------------------
NuclearFusion_DrGreen3339_2_34:
        BYTE   W06
        BYTE           N06    Dn4  v120
        BYTE   W06
        BYTE                   Fn4
        BYTE   W06
        BYTE                   Dn4
        BYTE   W06
        BYTE                   An3
        BYTE   W06
        BYTE                   Fn3
        BYTE   W06
        BYTE                   Cn3
        BYTE   W06
        BYTE                   Fn3
        BYTE   W06
        BYTE                   Gn3
        BYTE   W06
        BYTE                   Cn4
        BYTE   W06
        BYTE                   En4
        BYTE   W06
        BYTE                   Cn4
        BYTE   W06
        BYTE                   Gn3
        BYTE   W06
        BYTE                   En3
        BYTE   W06
        BYTE                   Cn3
        BYTE   W12
        BYTE   PEND
// 035   ----------------------------------------
NuclearFusion_DrGreen3339_2_35:
        BYTE   W06
        BYTE           N06    Cn4  v120
        BYTE   W06
        BYTE                   En4
        BYTE   W06
        BYTE                   Cn4
        BYTE   W06
        BYTE                   Gn3
        BYTE   W06
        BYTE                   En3
        BYTE   W06
        BYTE                   Cn3
        BYTE   W06
        BYTE                   Fn3
        BYTE   W06
        BYTE                   Gn3
        BYTE   W06
        BYTE                   Cn4
        BYTE   W06
        BYTE                   En4
        BYTE   W06
        BYTE                   Cn4
        BYTE   W06
        BYTE                   Gn3
        BYTE   W06
        BYTE                   En3
        BYTE   W06
        BYTE                   Cn3
        BYTE   W12
        BYTE   PEND
// 036   ----------------------------------------
NuclearFusion_DrGreen3339_2_36:
        BYTE   W06
        BYTE           N06    Cn4  v120
        BYTE   W06
        BYTE                   En4
        BYTE   W06
        BYTE                   Cn4
        BYTE   W06
        BYTE                   Gn3
        BYTE   W06
        BYTE                   En3
        BYTE   W06
        BYTE                   As2
        BYTE   W06
        BYTE                   Dn3
        BYTE   W06
        BYTE                   Fn3
        BYTE   W06
        BYTE                   As3
        BYTE   W06
        BYTE                   Dn4
        BYTE   W06
        BYTE                   As3
        BYTE   W06
        BYTE                   Fn3
        BYTE   W06
        BYTE                   Dn3
        BYTE   W06
        BYTE                   As2
        BYTE   W12
        BYTE   PEND
// 037   ----------------------------------------
NuclearFusion_DrGreen3339_2_37:
        BYTE   W06
        BYTE           N06    As3  v120
        BYTE   W06
        BYTE                   Dn4
        BYTE   W06
        BYTE                   As3
        BYTE   W06
        BYTE                   Fn3
        BYTE   W06
        BYTE                   Dn3
        BYTE   W06
        BYTE                   As2
        BYTE   W06
        BYTE                   Dn3
        BYTE   W06
        BYTE                   Fn3
        BYTE   W06
        BYTE                   As3
        BYTE   W06
        BYTE                   Dn4
        BYTE   W06
        BYTE                   As3
        BYTE   W06
        BYTE                   Fn3
        BYTE   W06
        BYTE                   En3
        BYTE   W06
        BYTE                   Dn3
        BYTE   W12
        BYTE   PEND
// 038   ----------------------------------------
NuclearFusion_DrGreen3339_2_38:
        BYTE   W06
        BYTE           N06    Cn4  v120
        BYTE   W06
        BYTE                   En4
        BYTE   W06
        BYTE                   Cn4
        BYTE   W06
        BYTE                   Gn3
        BYTE   W06
        BYTE                   En3
        BYTE   W06
        BYTE                   Dn3
        BYTE   W06
        BYTE                   Gn3
        BYTE   W06
        BYTE                   An3
        BYTE   W06
        BYTE                   Dn4
        BYTE   W06
        BYTE                   Fn4
        BYTE   W06
        BYTE                   Dn4
        BYTE   W06
        BYTE                   An3
        BYTE   W06
        BYTE                   Fn3
        BYTE   W06
        BYTE                   Dn3
        BYTE   W12
        BYTE   PEND
// 039   ----------------------------------------
        BYTE   W06
        BYTE                   Dn4
        BYTE   W06
        BYTE                   Fn4
        BYTE   W06
        BYTE                   Dn4
        BYTE   W06
        BYTE                   An3
        BYTE   W06
        BYTE                   Fn3
        BYTE   W06
        BYTE                   Dn3
        BYTE   W06
        BYTE                   Gn3
        BYTE   W06
        BYTE                   An3
        BYTE   W06
        BYTE                   Dn4
        BYTE   W06
        BYTE                   Fn4
        BYTE   W06
        BYTE                   Dn4
        BYTE   W06
        BYTE                   An3
        BYTE   W06
        BYTE                   Fn3
        BYTE   W06
        BYTE                   Cn3
        BYTE   W06
        BYTE                   Fn3
        BYTE   W06
// 040   ----------------------------------------
        BYTE                   Gn3
        BYTE   W06
        BYTE                   Cn4
        BYTE   W06
        BYTE                   En4
        BYTE   W06
        BYTE                   Cn4
        BYTE   W06
        BYTE                   Gn3
        BYTE   W06
        BYTE                   En3
        BYTE   W06
        BYTE                   Dn3
        BYTE   W06
        BYTE                   Gn3
        BYTE   W06
        BYTE                   An3
        BYTE   W06
        BYTE                   Dn4
        BYTE   W06
        BYTE                   Fn4
        BYTE   W06
        BYTE                   Dn4
        BYTE   W06
        BYTE                   An3
        BYTE   W06
        BYTE                   Fn3
        BYTE   W06
        BYTE                   Dn3
        BYTE   W12
// 041   ----------------------------------------
        BYTE   PATT
         POIN2  NuclearFusion_DrGreen3339_2_33
// 042   ----------------------------------------
        BYTE   PATT
         POIN2  NuclearFusion_DrGreen3339_2_34
// 043   ----------------------------------------
        BYTE   PATT
         POIN2  NuclearFusion_DrGreen3339_2_35
// 044   ----------------------------------------
        BYTE   PATT
         POIN2  NuclearFusion_DrGreen3339_2_36
// 045   ----------------------------------------
        BYTE   PATT
         POIN2  NuclearFusion_DrGreen3339_2_37
// 046   ----------------------------------------
        BYTE   PATT
         POIN2  NuclearFusion_DrGreen3339_2_38
// 047   ----------------------------------------
        BYTE   W06
        BYTE           N06    Dn4  v120
        BYTE   W06
        BYTE                   Fn4
        BYTE   W06
        BYTE                   Dn4
        BYTE   W06
        BYTE                   An3
        BYTE   W06
        BYTE                   Fn3
        BYTE   W06
        BYTE                   Dn3
        BYTE   W06
        BYTE                   Gn3
        BYTE   W06
        BYTE                   An3
        BYTE   W06
        BYTE                   Dn4
        BYTE   W06
        BYTE                   Fn4
        BYTE   W06
        BYTE                   Dn4
        BYTE   W06
        BYTE                   An3
        BYTE   W06
        BYTE                   Fn3
        BYTE   W06
        BYTE                   Dn3
        BYTE   W06
        BYTE                   Dn3
        BYTE   W06
// 048   ----------------------------------------
        BYTE                   Dn3
        BYTE   W06
        BYTE                   Dn3
        BYTE   W06
        BYTE                   Dn3
        BYTE   W24
        BYTE                   Gs0
        BYTE   W18
        BYTE                   Bn0
        BYTE   W18
        BYTE                   Gn1
        BYTE   W12
        BYTE                   Gs0
        BYTE   W12
// 049   ----------------------------------------
NuclearFusion_DrGreen3339_2_49:
        BYTE   W06
        BYTE           N06    Bn0  v120
        BYTE   W18
        BYTE                   Gn1
        BYTE   W12
        BYTE                   Fn0
        BYTE   W18
        BYTE                   As0
        BYTE   W18
        BYTE                   En1
        BYTE   W12
        BYTE                   Fn0
        BYTE   W12
        BYTE   PEND
// 050   ----------------------------------------
        BYTE                   Fn0
        BYTE   W06
        BYTE                   As0
        BYTE   W12
        BYTE                   As0
        BYTE   W06
        BYTE                   En1
        BYTE   W12
        BYTE                   Gs0
        BYTE   W18
        BYTE                   Bn0
        BYTE   W18
        BYTE                   Gn1
        BYTE   W12
        BYTE                   Gs0
        BYTE   W12
// 051   ----------------------------------------
        BYTE   PATT
         POIN2  NuclearFusion_DrGreen3339_2_49
// 052   ----------------------------------------
        BYTE   W96
// 053   ----------------------------------------
        BYTE   W96
// 054   ----------------------------------------
        BYTE   W96
// 055   ----------------------------------------
        BYTE   W96
// 056   ----------------------------------------
        BYTE   W96
// 057   ----------------------------------------
        BYTE   W96
// 058   ----------------------------------------
        BYTE   W36
        BYTE   GoTo
         POIN2  NuclearFusion_DrGreen3339_2_LOOP
        BYTE   FINE

//****************** Track 3 (Midi-Chn.3) ******************//

NuclearFusion_DrGreen3339_3:
        BYTE   KEYSH  NuclearFusion_DrGreen3339_key+0
// 000   ----------------------------------------
        BYTE           VOICE  48
        BYTE           VOL    30
        BYTE           PAN    c_v+32
        BYTE   W36
NuclearFusion_DrGreen3339_3_LOOP:
        BYTE           N48    An3  v120
        BYTE   W48
        BYTE                   Cn4
        BYTE   W12
// 001   ----------------------------------------
NuclearFusion_DrGreen3339_3_1:
        BYTE   W36
        BYTE           N48    Bn3  v120
        BYTE   W48
        BYTE                   Gn3
        BYTE   W12
        BYTE   PEND
// 002   ----------------------------------------
NuclearFusion_DrGreen3339_3_2:
        BYTE   W36
        BYTE           N48    An3  v120
        BYTE   W48
        BYTE                   Bn3
        BYTE   W12
        BYTE   PEND
// 003   ----------------------------------------
NuclearFusion_DrGreen3339_3_3:
        BYTE   W36
        BYTE           N48    Cn4  v120
        BYTE   W48
        BYTE                   Bn3
        BYTE   W12
        BYTE   PEND
// 004   ----------------------------------------
NuclearFusion_DrGreen3339_3_4:
        BYTE   W36
        BYTE           N24    An3  v120
        BYTE   W36
        BYTE                   Bn3
        BYTE   W24
        BYTE   PEND
// 005   ----------------------------------------
NuclearFusion_DrGreen3339_3_5:
        BYTE   W12
        BYTE           N24    Cn4  v120
        BYTE   W36
        BYTE                   Bn3
        BYTE   W36
        BYTE                   An3
        BYTE   W12
        BYTE   PEND
// 006   ----------------------------------------
NuclearFusion_DrGreen3339_3_6:
        BYTE   W12
        BYTE           N24    Dn3  v120
        BYTE   W24
        BYTE           N12    Fn3
        BYTE   W12
        BYTE                   Gn3
        BYTE   W12
        BYTE                   Fn3
        BYTE   W12
        BYTE           TIE    En3
        BYTE   W24
        BYTE   PEND
// 007   ----------------------------------------
NuclearFusion_DrGreen3339_3_7:
        BYTE   W84
        BYTE           EOT    En3
        BYTE           N12    En3  v120
        BYTE   W12
        BYTE   PEND
// 008   ----------------------------------------
NuclearFusion_DrGreen3339_3_8:
        BYTE           N12    Fn3  v120
        BYTE   W12
        BYTE                   En3
        BYTE   W12
        BYTE                   Cn3
        BYTE   W12
        BYTE           N48    As2
        BYTE   W48
        BYTE                   Cn3
        BYTE   W12
        BYTE   PEND
// 009   ----------------------------------------
NuclearFusion_DrGreen3339_3_9:
        BYTE   W36
        BYTE           N48    Dn3  v120
        BYTE   W48
        BYTE                   Cn3
        BYTE   W12
        BYTE   PEND
// 010   ----------------------------------------
NuclearFusion_DrGreen3339_3_10:
        BYTE   W36
        BYTE           N48    As2  v120
        BYTE   W48
        BYTE                   Cn3
        BYTE   W12
        BYTE   PEND
// 011   ----------------------------------------
NuclearFusion_DrGreen3339_3_11:
        BYTE   W36
        BYTE           N48    Fn3  v120
        BYTE   W48
        BYTE                   En3
        BYTE   W12
        BYTE   PEND
// 012   ----------------------------------------
NuclearFusion_DrGreen3339_3_12:
        BYTE   W36
        BYTE           N24    Dn3  v120
        BYTE   W36
        BYTE                   En3
        BYTE   W24
        BYTE   PEND
// 013   ----------------------------------------
NuclearFusion_DrGreen3339_3_13:
        BYTE   W12
        BYTE           N24    Fn3  v120
        BYTE   W36
        BYTE                   As3
        BYTE   W36
        BYTE                   An3
        BYTE   W12
        BYTE   PEND
// 014   ----------------------------------------
NuclearFusion_DrGreen3339_3_14:
        BYTE   W12
        BYTE           N24    En3  v120
        BYTE   W24
        BYTE           N12    Fn3
        BYTE   W12
        BYTE                   Gn3
        BYTE   W12
        BYTE                   Fn3
        BYTE   W12
        BYTE           TIE    Dn3
        BYTE   W24
        BYTE   PEND
// 015   ----------------------------------------
NuclearFusion_DrGreen3339_3_15:
        BYTE   W84
        BYTE           EOT    Dn3
        BYTE           N24    Fn3  v120
        BYTE   W12
        BYTE   PEND
// 016   ----------------------------------------
NuclearFusion_DrGreen3339_3_16:
        BYTE   W12
        BYTE           N24    Gn3  v120
        BYTE   W24
        BYTE           N48    An3
        BYTE   W48
        BYTE                   Cn4
        BYTE   W12
        BYTE   PEND
// 017   ----------------------------------------
        BYTE   PATT
         POIN2  NuclearFusion_DrGreen3339_3_1
// 018   ----------------------------------------
        BYTE   PATT
         POIN2  NuclearFusion_DrGreen3339_3_2
// 019   ----------------------------------------
        BYTE   PATT
         POIN2  NuclearFusion_DrGreen3339_3_3
// 020   ----------------------------------------
        BYTE   PATT
         POIN2  NuclearFusion_DrGreen3339_3_4
// 021   ----------------------------------------
        BYTE   PATT
         POIN2  NuclearFusion_DrGreen3339_3_5
// 022   ----------------------------------------
        BYTE   PATT
         POIN2  NuclearFusion_DrGreen3339_3_6
// 023   ----------------------------------------
        BYTE   PATT
         POIN2  NuclearFusion_DrGreen3339_3_7
// 024   ----------------------------------------
        BYTE   PATT
         POIN2  NuclearFusion_DrGreen3339_3_8
// 025   ----------------------------------------
        BYTE   PATT
         POIN2  NuclearFusion_DrGreen3339_3_9
// 026   ----------------------------------------
        BYTE   PATT
         POIN2  NuclearFusion_DrGreen3339_3_10
// 027   ----------------------------------------
        BYTE   PATT
         POIN2  NuclearFusion_DrGreen3339_3_11
// 028   ----------------------------------------
        BYTE   PATT
         POIN2  NuclearFusion_DrGreen3339_3_12
// 029   ----------------------------------------
        BYTE   PATT
         POIN2  NuclearFusion_DrGreen3339_3_13
// 030   ----------------------------------------
        BYTE   PATT
         POIN2  NuclearFusion_DrGreen3339_3_14
// 031   ----------------------------------------
        BYTE   PATT
         POIN2  NuclearFusion_DrGreen3339_3_15
// 032   ----------------------------------------
NuclearFusion_DrGreen3339_3_32:
        BYTE   W12
        BYTE           N24    En3  v120
        BYTE   W24
        BYTE           N18    Fn3
        BYTE   W18
        BYTE                   Gn3
        BYTE   W18
        BYTE           N12    An3
        BYTE   W12
        BYTE                   Fn3
        BYTE   W12
        BYTE   PEND
// 033   ----------------------------------------
NuclearFusion_DrGreen3339_3_33:
        BYTE   W24
        BYTE           N06    Fn3  v120
        BYTE   W06
        BYTE                   Gn3
        BYTE   W06
        BYTE           N18    An3
        BYTE   W18
        BYTE                   As3
        BYTE   W18
        BYTE           N12    Cn4
        BYTE   W12
        BYTE           N18    An3
        BYTE   W12
        BYTE   PEND
// 034   ----------------------------------------
NuclearFusion_DrGreen3339_3_34:
        BYTE   W06
        BYTE           N18    Fn3  v120
        BYTE   W18
        BYTE           N12    An3
        BYTE   W12
        BYTE           N84    Gn3
        BYTE   W60
        BYTE   PEND
// 035   ----------------------------------------
NuclearFusion_DrGreen3339_3_35:
        BYTE   W24
        BYTE           N12    Gn3  v120
        BYTE   W12
        BYTE           N96    Cn4
        BYTE   W60
        BYTE   PEND
// 036   ----------------------------------------
NuclearFusion_DrGreen3339_3_36:
        BYTE   W36
        BYTE           N18    As3  v120
        BYTE   W18
        BYTE                   Cn4
        BYTE   W18
        BYTE           N12    Dn4
        BYTE   W12
        BYTE                   As3
        BYTE   W12
        BYTE   PEND
// 037   ----------------------------------------
NuclearFusion_DrGreen3339_3_37:
        BYTE   W24
        BYTE           N06    Dn4  v120
        BYTE   W06
        BYTE                   En4
        BYTE   W06
        BYTE           N18    Fn4
        BYTE   W18
        BYTE                   Gn4
        BYTE   W18
        BYTE           N12    An4
        BYTE   W12
        BYTE           N18    As4
        BYTE   W12
        BYTE   PEND
// 038   ----------------------------------------
NuclearFusion_DrGreen3339_3_38:
        BYTE   W06
        BYTE           N18    An4  v120
        BYTE   W18
        BYTE           N12    Gn4
        BYTE   W12
        BYTE           N84    Fn4
        BYTE   W60
        BYTE   PEND
// 039   ----------------------------------------
NuclearFusion_DrGreen3339_3_39:
        BYTE   W24
        BYTE           N06    Fn4  v120
        BYTE   W06
        BYTE                   En4
        BYTE   W06
        BYTE           N96    Cn4
        BYTE   W60
        BYTE   PEND
// 040   ----------------------------------------
NuclearFusion_DrGreen3339_3_40:
        BYTE   W36
        BYTE           N18    Fn3  v120
        BYTE   W18
        BYTE                   Gn3
        BYTE   W18
        BYTE           N12    An3
        BYTE   W12
        BYTE                   Fn3
        BYTE   W12
        BYTE   PEND
// 041   ----------------------------------------
        BYTE   PATT
         POIN2  NuclearFusion_DrGreen3339_3_33
// 042   ----------------------------------------
        BYTE   PATT
         POIN2  NuclearFusion_DrGreen3339_3_34
// 043   ----------------------------------------
        BYTE   PATT
         POIN2  NuclearFusion_DrGreen3339_3_35
// 044   ----------------------------------------
        BYTE   PATT
         POIN2  NuclearFusion_DrGreen3339_3_36
// 045   ----------------------------------------
        BYTE   PATT
         POIN2  NuclearFusion_DrGreen3339_3_37
// 046   ----------------------------------------
NuclearFusion_DrGreen3339_3_46:
        BYTE   W06
        BYTE           N18    An4  v120
        BYTE   W18
        BYTE           N12    Gn4
        BYTE   W12
        BYTE           N36    Fn4
        BYTE   W36
        BYTE                   En4
        BYTE   W24
        BYTE   PEND
// 047   ----------------------------------------
NuclearFusion_DrGreen3339_3_47:
        BYTE   W12
        BYTE           N36    Gn4  v120
        BYTE   W36
        BYTE                   En4
        BYTE   W36
        BYTE           N24    Fn4
        BYTE   W12
        BYTE   PEND
// 048   ----------------------------------------
NuclearFusion_DrGreen3339_3_48:
        BYTE   W12
        BYTE           N06    Dn4  v120
        BYTE   W84
        BYTE   PEND
// 049   ----------------------------------------
        BYTE   W96
// 050   ----------------------------------------
        BYTE   W96
// 051   ----------------------------------------
        BYTE   W96
// 052   ----------------------------------------
NuclearFusion_DrGreen3339_3_52:
        BYTE   W06
        BYTE           N18    Dn4  v120
        BYTE   W18
        BYTE           N12    Cn4
        BYTE           N12    En4
        BYTE   W12
        BYTE           N78    As3
        BYTE           N78    Fn4
        BYTE   W60
        BYTE   PEND
// 053   ----------------------------------------
NuclearFusion_DrGreen3339_3_53:
        BYTE   W24
        BYTE           N12    As3  v120
        BYTE           N12    Fn4
        BYTE   W12
        BYTE           N24    Cn4
        BYTE           N24    Gn4
        BYTE   W24
        BYTE                   Gn3
        BYTE           N24    En4
        BYTE   W24
        BYTE           N36    En3
        BYTE           N36    Cn4
        BYTE   W12
        BYTE   PEND
// 054   ----------------------------------------
NuclearFusion_DrGreen3339_3_54:
        BYTE   W24
        BYTE           N12    Gn3  v120
        BYTE           N12    Dn4
        BYTE   W12
        BYTE           N78
        BYTE           N84    An4
        BYTE   W60
        BYTE   PEND
// 055   ----------------------------------------
NuclearFusion_DrGreen3339_3_55:
        BYTE   W24
        BYTE           N12    Dn4  v120
        BYTE           N12    An4
        BYTE   W12
        BYTE           N24    En4
        BYTE           N24    Bn4
        BYTE   W24
        BYTE                   Bn3
        BYTE           N24    Gn4
        BYTE   W24
        BYTE           N18    Gn3
        BYTE           N36    En4
        BYTE   W12
        BYTE   PEND
// 056   ----------------------------------------
NuclearFusion_DrGreen3339_3_56:
        BYTE   W06
        BYTE           N18    En3  v120
        BYTE   W18
        BYTE           N12    Bn3
        BYTE           N12    Fs4
        BYTE   W12
        BYTE           TIE    As3
        BYTE           TIE    Fs4
        BYTE   W60
        BYTE   PEND
// 057   ----------------------------------------
        BYTE   W96
// 058   ----------------------------------------
        BYTE   W36
        BYTE           EOT    As3
        BYTE                   Fs4
        BYTE   GoTo
         POIN2  NuclearFusion_DrGreen3339_3_LOOP
        BYTE   FINE

//****************** Track 4 (Midi-Chn.4) ******************//

NuclearFusion_DrGreen3339_4:
        BYTE   KEYSH  NuclearFusion_DrGreen3339_key+0
// 000   ----------------------------------------
        BYTE           VOICE  75
        BYTE           VOL    26
        BYTE           PAN    c_v-32
        BYTE   W36
NuclearFusion_DrGreen3339_4_LOOP:
        BYTE   W60
// 001   ----------------------------------------
        BYTE   W96
// 002   ----------------------------------------
        BYTE   W96
// 003   ----------------------------------------
        BYTE   W96
// 004   ----------------------------------------
        BYTE   W96
// 005   ----------------------------------------
        BYTE   W96
// 006   ----------------------------------------
        BYTE   W96
// 007   ----------------------------------------
        BYTE   W96
// 008   ----------------------------------------
        BYTE   W96
// 009   ----------------------------------------
        BYTE   W96
// 010   ----------------------------------------
        BYTE   W96
// 011   ----------------------------------------
        BYTE   W96
// 012   ----------------------------------------
        BYTE   W96
// 013   ----------------------------------------
        BYTE   W96
// 014   ----------------------------------------
        BYTE   W96
// 015   ----------------------------------------
        BYTE   W96
// 016   ----------------------------------------
        BYTE   W96
// 017   ----------------------------------------
        BYTE   W96
// 018   ----------------------------------------
        BYTE   W96
// 019   ----------------------------------------
        BYTE   W96
// 020   ----------------------------------------
        BYTE   W96
// 021   ----------------------------------------
        BYTE   W96
// 022   ----------------------------------------
        BYTE   W96
// 023   ----------------------------------------
        BYTE   W96
// 024   ----------------------------------------
        BYTE   W96
// 025   ----------------------------------------
        BYTE   W96
// 026   ----------------------------------------
        BYTE   W96
// 027   ----------------------------------------
        BYTE   W96
// 028   ----------------------------------------
        BYTE   W96
// 029   ----------------------------------------
        BYTE   W96
// 030   ----------------------------------------
        BYTE   W96
// 031   ----------------------------------------
        BYTE   W96
// 032   ----------------------------------------
        BYTE   W96
// 033   ----------------------------------------
        BYTE   W96
// 034   ----------------------------------------
        BYTE   W96
// 035   ----------------------------------------
        BYTE   W96
// 036   ----------------------------------------
        BYTE   W96
// 037   ----------------------------------------
        BYTE   W96
// 038   ----------------------------------------
        BYTE   W96
// 039   ----------------------------------------
        BYTE   W96
// 040   ----------------------------------------
        BYTE   W96
// 041   ----------------------------------------
        BYTE   W96
// 042   ----------------------------------------
        BYTE   W96
// 043   ----------------------------------------
        BYTE   W96
// 044   ----------------------------------------
        BYTE   W96
// 045   ----------------------------------------
        BYTE   W96
// 046   ----------------------------------------
        BYTE   W96
// 047   ----------------------------------------
        BYTE   W96
// 048   ----------------------------------------
        BYTE   W36
        BYTE           N18    As3  v120
        BYTE   W18
        BYTE                   Gn3
        BYTE   W18
        BYTE           N12    Ds3
        BYTE   W12
        BYTE           N18    As2
        BYTE   W12
// 049   ----------------------------------------
        BYTE   W06
        BYTE                   Ds3
        BYTE   W18
        BYTE           N12    As3
        BYTE   W12
        BYTE           N18    An3
        BYTE   W18
        BYTE                   Fs3
        BYTE   W18
        BYTE           N12    En3
        BYTE   W12
        BYTE           N36    Fs3
        BYTE   W12
// 050   ----------------------------------------
        BYTE   W24
        BYTE           N12    Gn3
        BYTE   W12
        BYTE           N18    As3
        BYTE   W18
        BYTE                   Gn3
        BYTE   W18
        BYTE           N12    Ds3
        BYTE   W12
        BYTE           N18    As2
        BYTE   W12
// 051   ----------------------------------------
        BYTE   W06
        BYTE                   Cn4
        BYTE   W18
        BYTE           N12    As3
        BYTE   W12
        BYTE           N18    An3
        BYTE   W18
        BYTE                   Fs3
        BYTE   W18
        BYTE           N12    En3
        BYTE   W12
        BYTE           N24    Fs3
        BYTE   W12
// 052   ----------------------------------------
        BYTE   W96
// 053   ----------------------------------------
        BYTE   W96
// 054   ----------------------------------------
        BYTE   W96
// 055   ----------------------------------------
        BYTE   W96
// 056   ----------------------------------------
        BYTE   W96
// 057   ----------------------------------------
        BYTE   W96
// 058   ----------------------------------------
        BYTE   W36
        BYTE   GoTo
         POIN2  NuclearFusion_DrGreen3339_4_LOOP
        BYTE   FINE

//****************** Track 5 (Midi-Chn.5) ******************//

NuclearFusion_DrGreen3339_5:
        BYTE   KEYSH  NuclearFusion_DrGreen3339_key+0
// 000   ----------------------------------------
        BYTE           VOICE  48
        BYTE           VOL    30
        BYTE           PAN    c_v-32
        BYTE   W36
NuclearFusion_DrGreen3339_5_LOOP:
        BYTE           N48    Fn3  v120
        BYTE   W48
        BYTE                   An3
        BYTE   W12
// 001   ----------------------------------------
NuclearFusion_DrGreen3339_5_1:
        BYTE   W36
        BYTE           N48    Gn3  v120
        BYTE   W48
        BYTE                   En3
        BYTE   W12
        BYTE   PEND
// 002   ----------------------------------------
NuclearFusion_DrGreen3339_5_2:
        BYTE   W36
        BYTE           N48    Fn3  v120
        BYTE   W48
        BYTE                   Gn3
        BYTE   W12
        BYTE   PEND
// 003   ----------------------------------------
NuclearFusion_DrGreen3339_5_3:
        BYTE   W36
        BYTE           N48    An3  v120
        BYTE   W48
        BYTE                   Gn3
        BYTE   W12
        BYTE   PEND
// 004   ----------------------------------------
NuclearFusion_DrGreen3339_5_4:
        BYTE   W36
        BYTE           N24    Fn3  v120
        BYTE   W36
        BYTE                   Gn3
        BYTE   W24
        BYTE   PEND
// 005   ----------------------------------------
NuclearFusion_DrGreen3339_5_5:
        BYTE   W12
        BYTE           N24    An3  v120
        BYTE   W36
        BYTE                   Gn3
        BYTE   W36
        BYTE                   Fn3
        BYTE   W12
        BYTE   PEND
// 006   ----------------------------------------
NuclearFusion_DrGreen3339_5_6:
        BYTE   W12
        BYTE           N24    An2  v120
        BYTE   W24
        BYTE           N36    Cn3
        BYTE   W36
        BYTE                   Dn3
        BYTE   W24
        BYTE   PEND
// 007   ----------------------------------------
NuclearFusion_DrGreen3339_5_7:
        BYTE   W12
        BYTE           N36    Cn3  v120
        BYTE   W36
        BYTE                   Dn3
        BYTE   W36
        BYTE           N12    Cn3
        BYTE   W12
        BYTE   PEND
// 008   ----------------------------------------
NuclearFusion_DrGreen3339_5_8:
        BYTE           N12    Dn3  v120
        BYTE   W12
        BYTE                   Cn3
        BYTE   W12
        BYTE                   Gn2
        BYTE   W12
        BYTE           N48
        BYTE   W48
        BYTE                   An2
        BYTE   W12
        BYTE   PEND
// 009   ----------------------------------------
NuclearFusion_DrGreen3339_5_9:
        BYTE   W36
        BYTE           N48    As2  v120
        BYTE   W48
        BYTE                   An2
        BYTE   W12
        BYTE   PEND
// 010   ----------------------------------------
NuclearFusion_DrGreen3339_5_10:
        BYTE   W36
        BYTE           N48    Gn2  v120
        BYTE   W48
        BYTE                   An2
        BYTE   W12
        BYTE   PEND
// 011   ----------------------------------------
        BYTE   PATT
         POIN2  NuclearFusion_DrGreen3339_3_9
// 012   ----------------------------------------
NuclearFusion_DrGreen3339_5_12:
        BYTE   W36
        BYTE           N24    As2  v120
        BYTE   W36
        BYTE                   Cn3
        BYTE   W24
        BYTE   PEND
// 013   ----------------------------------------
NuclearFusion_DrGreen3339_5_13:
        BYTE   W12
        BYTE           N24    Dn3  v120
        BYTE   W36
        BYTE                   Fn3
        BYTE   W36
        BYTE                   En3
        BYTE   W12
        BYTE   PEND
// 014   ----------------------------------------
NuclearFusion_DrGreen3339_5_14:
        BYTE   W12
        BYTE           N24    Cn3  v120
        BYTE   W24
        BYTE           N36    Dn3
        BYTE   W36
        BYTE                   An2
        BYTE   W24
        BYTE   PEND
// 015   ----------------------------------------
NuclearFusion_DrGreen3339_5_15:
        BYTE   W12
        BYTE           N36    Gn2  v120
        BYTE   W36
        BYTE                   An2
        BYTE   W36
        BYTE           N24    Dn3
        BYTE   W12
        BYTE   PEND
// 016   ----------------------------------------
NuclearFusion_DrGreen3339_5_16:
        BYTE   W12
        BYTE           N24    En3  v120
        BYTE   W24
        BYTE           N48    Fn3
        BYTE   W48
        BYTE                   An3
        BYTE   W12
        BYTE   PEND
// 017   ----------------------------------------
        BYTE   PATT
         POIN2  NuclearFusion_DrGreen3339_5_1
// 018   ----------------------------------------
        BYTE   PATT
         POIN2  NuclearFusion_DrGreen3339_5_2
// 019   ----------------------------------------
        BYTE   PATT
         POIN2  NuclearFusion_DrGreen3339_5_3
// 020   ----------------------------------------
        BYTE   PATT
         POIN2  NuclearFusion_DrGreen3339_5_4
// 021   ----------------------------------------
        BYTE   PATT
         POIN2  NuclearFusion_DrGreen3339_5_5
// 022   ----------------------------------------
        BYTE   PATT
         POIN2  NuclearFusion_DrGreen3339_5_6
// 023   ----------------------------------------
        BYTE   PATT
         POIN2  NuclearFusion_DrGreen3339_5_7
// 024   ----------------------------------------
        BYTE   PATT
         POIN2  NuclearFusion_DrGreen3339_5_8
// 025   ----------------------------------------
        BYTE   PATT
         POIN2  NuclearFusion_DrGreen3339_5_9
// 026   ----------------------------------------
        BYTE   PATT
         POIN2  NuclearFusion_DrGreen3339_5_10
// 027   ----------------------------------------
        BYTE   PATT
         POIN2  NuclearFusion_DrGreen3339_3_9
// 028   ----------------------------------------
        BYTE   PATT
         POIN2  NuclearFusion_DrGreen3339_5_12
// 029   ----------------------------------------
        BYTE   PATT
         POIN2  NuclearFusion_DrGreen3339_5_13
// 030   ----------------------------------------
        BYTE   PATT
         POIN2  NuclearFusion_DrGreen3339_5_14
// 031   ----------------------------------------
        BYTE   PATT
         POIN2  NuclearFusion_DrGreen3339_5_15
// 032   ----------------------------------------
NuclearFusion_DrGreen3339_5_32:
        BYTE   W12
        BYTE           N24    Cn3  v120
        BYTE   W24
        BYTE           N18    Fn2
        BYTE   W18
        BYTE                   Gn2
        BYTE   W18
        BYTE           N12    An2
        BYTE   W12
        BYTE                   Fn2
        BYTE   W12
        BYTE   PEND
// 033   ----------------------------------------
NuclearFusion_DrGreen3339_5_33:
        BYTE   W24
        BYTE           N06    Dn3  v120
        BYTE   W06
        BYTE                   En3
        BYTE   W06
        BYTE           N18    Fn3
        BYTE   W18
        BYTE                   Gn3
        BYTE   W18
        BYTE           N12    An3
        BYTE   W12
        BYTE           N18    Fn3
        BYTE   W12
        BYTE   PEND
// 034   ----------------------------------------
NuclearFusion_DrGreen3339_5_34:
        BYTE   W06
        BYTE           N18    Dn3  v120
        BYTE   W18
        BYTE           N12    Fn3
        BYTE   W12
        BYTE           N84    En3
        BYTE   W60
        BYTE   PEND
// 035   ----------------------------------------
NuclearFusion_DrGreen3339_5_35:
        BYTE   W24
        BYTE           N12    En3  v120
        BYTE   W12
        BYTE           N96    Gn3
        BYTE   W60
        BYTE   PEND
// 036   ----------------------------------------
NuclearFusion_DrGreen3339_5_36:
        BYTE   W36
        BYTE           N18    As2  v120
        BYTE   W18
        BYTE                   Cn3
        BYTE   W18
        BYTE           N12    Dn3
        BYTE   W12
        BYTE                   As2
        BYTE   W12
        BYTE   PEND
// 037   ----------------------------------------
NuclearFusion_DrGreen3339_5_37:
        BYTE   W24
        BYTE           N06    As3  v120
        BYTE   W06
        BYTE                   Cn4
        BYTE   W06
        BYTE           N18    Dn4
        BYTE   W18
        BYTE                   En4
        BYTE   W18
        BYTE           N12    Fn4
        BYTE   W12
        BYTE           N18    Gn4
        BYTE   W12
        BYTE   PEND
// 038   ----------------------------------------
NuclearFusion_DrGreen3339_5_38:
        BYTE   W06
        BYTE           N18    Fn4  v120
        BYTE   W18
        BYTE           N12    En4
        BYTE   W12
        BYTE           N84    Dn4
        BYTE   W60
        BYTE   PEND
// 039   ----------------------------------------
NuclearFusion_DrGreen3339_5_39:
        BYTE   W24
        BYTE           N06    Dn4  v120
        BYTE   W06
        BYTE                   Cn4
        BYTE   W06
        BYTE           N24    Gn3
        BYTE   W24
        BYTE                   An3
        BYTE   W24
        BYTE           N12    Gn3
        BYTE   W12
        BYTE   PEND
// 040   ----------------------------------------
NuclearFusion_DrGreen3339_5_40:
        BYTE           N12    Fn3  v120
        BYTE   W12
        BYTE           N24    En3
        BYTE   W24
        BYTE           N18    Fn2
        BYTE   W18
        BYTE                   Gn2
        BYTE   W18
        BYTE           N12    An2
        BYTE   W12
        BYTE                   Fn2
        BYTE   W12
        BYTE   PEND
// 041   ----------------------------------------
        BYTE   PATT
         POIN2  NuclearFusion_DrGreen3339_5_33
// 042   ----------------------------------------
        BYTE   PATT
         POIN2  NuclearFusion_DrGreen3339_5_34
// 043   ----------------------------------------
        BYTE   PATT
         POIN2  NuclearFusion_DrGreen3339_5_35
// 044   ----------------------------------------
        BYTE   PATT
         POIN2  NuclearFusion_DrGreen3339_5_36
// 045   ----------------------------------------
        BYTE   PATT
         POIN2  NuclearFusion_DrGreen3339_5_37
// 046   ----------------------------------------
NuclearFusion_DrGreen3339_5_46:
        BYTE   W06
        BYTE           N18    Fn4  v120
        BYTE   W18
        BYTE           N12    En4
        BYTE   W12
        BYTE           TIE    Dn4
        BYTE   W60
        BYTE   PEND
// 047   ----------------------------------------
NuclearFusion_DrGreen3339_5_47:
        BYTE   W84
        BYTE           EOT    Dn4
        BYTE           N24    Dn4  v120
        BYTE   W12
        BYTE   PEND
// 048   ----------------------------------------
NuclearFusion_DrGreen3339_5_48:
        BYTE   W12
        BYTE           N06    An3  v120
        BYTE   W84
        BYTE   PEND
// 049   ----------------------------------------
        BYTE   W96
// 050   ----------------------------------------
        BYTE   W96
// 051   ----------------------------------------
        BYTE   W96
// 052   ----------------------------------------
NuclearFusion_DrGreen3339_5_52:
        BYTE   W36
        BYTE           N72    Dn4  v120
        BYTE   W60
        BYTE   PEND
// 053   ----------------------------------------
NuclearFusion_DrGreen3339_5_53:
        BYTE   W24
        BYTE           N12    Dn4  v120
        BYTE   W12
        BYTE           N24    En4
        BYTE   W24
        BYTE                   Cn4
        BYTE   W24
        BYTE           N36    Gn3
        BYTE   W12
        BYTE   PEND
// 054   ----------------------------------------
NuclearFusion_DrGreen3339_5_54:
        BYTE   W24
        BYTE           N12    An3  v120
        BYTE   W12
        BYTE           N84    Fs4
        BYTE   W60
        BYTE   PEND
// 055   ----------------------------------------
NuclearFusion_DrGreen3339_5_55:
        BYTE   W24
        BYTE           N12    Fs4  v120
        BYTE   W12
        BYTE           N24    Gs4
        BYTE   W24
        BYTE                   En4
        BYTE   W24
        BYTE           N36    Bn3
        BYTE   W12
        BYTE   PEND
// 056   ----------------------------------------
NuclearFusion_DrGreen3339_5_56:
        BYTE   W24
        BYTE           N12    Cs4  v120
        BYTE   W12
        BYTE           TIE
        BYTE   W60
        BYTE   PEND
// 057   ----------------------------------------
        BYTE   W96
// 058   ----------------------------------------
        BYTE   W36
        BYTE           EOT
        BYTE   GoTo
         POIN2  NuclearFusion_DrGreen3339_5_LOOP
        BYTE   FINE

//****************** Track 6 (Midi-Chn.6) ******************//

NuclearFusion_DrGreen3339_6:
        BYTE   KEYSH  NuclearFusion_DrGreen3339_key+0
// 000   ----------------------------------------
        BYTE           VOICE  13
        BYTE           VOL    24
        BYTE   W36
NuclearFusion_DrGreen3339_6_LOOP:
        BYTE   W60
// 001   ----------------------------------------
        BYTE   W96
// 002   ----------------------------------------
        BYTE   W96
// 003   ----------------------------------------
        BYTE   W96
// 004   ----------------------------------------
        BYTE   W96
// 005   ----------------------------------------
        BYTE   W96
// 006   ----------------------------------------
        BYTE   W96
// 007   ----------------------------------------
        BYTE   W96
// 008   ----------------------------------------
        BYTE   W96
// 009   ----------------------------------------
        BYTE   W96
// 010   ----------------------------------------
        BYTE   W96
// 011   ----------------------------------------
        BYTE   W96
// 012   ----------------------------------------
        BYTE   W96
// 013   ----------------------------------------
        BYTE   W96
// 014   ----------------------------------------
        BYTE   W96
// 015   ----------------------------------------
        BYTE   W96
// 016   ----------------------------------------
        BYTE   W96
// 017   ----------------------------------------
        BYTE   W96
// 018   ----------------------------------------
        BYTE   W96
// 019   ----------------------------------------
        BYTE   W96
// 020   ----------------------------------------
        BYTE   W96
// 021   ----------------------------------------
        BYTE   W96
// 022   ----------------------------------------
        BYTE   W96
// 023   ----------------------------------------
        BYTE   W96
// 024   ----------------------------------------
        BYTE   W96
// 025   ----------------------------------------
        BYTE   W96
// 026   ----------------------------------------
        BYTE   W96
// 027   ----------------------------------------
        BYTE   W96
// 028   ----------------------------------------
        BYTE   W96
// 029   ----------------------------------------
        BYTE   W96
// 030   ----------------------------------------
        BYTE   W96
// 031   ----------------------------------------
        BYTE   W96
// 032   ----------------------------------------
        BYTE   W96
// 033   ----------------------------------------
        BYTE   W96
// 034   ----------------------------------------
        BYTE   W96
// 035   ----------------------------------------
        BYTE   W96
// 036   ----------------------------------------
        BYTE   W96
// 037   ----------------------------------------
        BYTE   W96
// 038   ----------------------------------------
        BYTE   W96
// 039   ----------------------------------------
        BYTE   W96
// 040   ----------------------------------------
        BYTE   W96
// 041   ----------------------------------------
        BYTE   W96
// 042   ----------------------------------------
        BYTE   W96
// 043   ----------------------------------------
        BYTE   W96
// 044   ----------------------------------------
        BYTE   W96
// 045   ----------------------------------------
        BYTE   W96
// 046   ----------------------------------------
        BYTE   W96
// 047   ----------------------------------------
        BYTE   W96
// 048   ----------------------------------------
        BYTE   W36
        BYTE           N06    Dn2  v100
        BYTE   W18
        BYTE                   Gn2
        BYTE   W18
        BYTE                   As2
        BYTE   W12
        BYTE                   Dn2
        BYTE   W12
// 049   ----------------------------------------
NuclearFusion_DrGreen3339_6_49:
        BYTE   W06
        BYTE           N06    Gn2  v100
        BYTE   W18
        BYTE                   As2
        BYTE   W12
        BYTE                   Cn2
        BYTE   W18
        BYTE                   Fn2
        BYTE   W18
        BYTE                   An2
        BYTE   W12
        BYTE                   Cn2
        BYTE   W12
        BYTE   PEND
// 050   ----------------------------------------
        BYTE                   Cn2
        BYTE   W06
        BYTE                   Dn2
        BYTE   W12
        BYTE                   Dn2
        BYTE   W06
        BYTE                   An2
        BYTE   W12
        BYTE                   Dn2
        BYTE   W18
        BYTE                   Gn2
        BYTE   W18
        BYTE                   As2
        BYTE   W12
        BYTE                   Dn2
        BYTE   W12
// 051   ----------------------------------------
        BYTE   PATT
         POIN2  NuclearFusion_DrGreen3339_6_49
// 052   ----------------------------------------
        BYTE   W96
// 053   ----------------------------------------
        BYTE   W96
// 054   ----------------------------------------
        BYTE   W96
// 055   ----------------------------------------
        BYTE   W96
// 056   ----------------------------------------
        BYTE   W96
// 057   ----------------------------------------
        BYTE   W96
// 058   ----------------------------------------
        BYTE   W36
        BYTE   GoTo
         POIN2  NuclearFusion_DrGreen3339_6_LOOP
        BYTE   FINE

//****************** Track 7 (Midi-Chn.7) ******************//

NuclearFusion_DrGreen3339_7:
        BYTE   KEYSH  NuclearFusion_DrGreen3339_key+0
// 000   ----------------------------------------
        BYTE           VOICE  40
        BYTE           VOL    18
        BYTE           PAN    c_v-32
        BYTE   W36
NuclearFusion_DrGreen3339_7_LOOP:
        BYTE           N48    Fn3  v120
        BYTE   W48
        BYTE                   An3
        BYTE   W12
// 001   ----------------------------------------
        BYTE   PATT
         POIN2  NuclearFusion_DrGreen3339_5_1
// 002   ----------------------------------------
        BYTE   PATT
         POIN2  NuclearFusion_DrGreen3339_5_2
// 003   ----------------------------------------
        BYTE   PATT
         POIN2  NuclearFusion_DrGreen3339_5_3
// 004   ----------------------------------------
        BYTE   PATT
         POIN2  NuclearFusion_DrGreen3339_5_4
// 005   ----------------------------------------
        BYTE   PATT
         POIN2  NuclearFusion_DrGreen3339_5_5
// 006   ----------------------------------------
        BYTE   PATT
         POIN2  NuclearFusion_DrGreen3339_5_6
// 007   ----------------------------------------
        BYTE   PATT
         POIN2  NuclearFusion_DrGreen3339_5_7
// 008   ----------------------------------------
        BYTE   PATT
         POIN2  NuclearFusion_DrGreen3339_5_8
// 009   ----------------------------------------
        BYTE   PATT
         POIN2  NuclearFusion_DrGreen3339_5_9
// 010   ----------------------------------------
        BYTE   PATT
         POIN2  NuclearFusion_DrGreen3339_5_10
// 011   ----------------------------------------
        BYTE   PATT
         POIN2  NuclearFusion_DrGreen3339_3_9
// 012   ----------------------------------------
        BYTE   PATT
         POIN2  NuclearFusion_DrGreen3339_5_12
// 013   ----------------------------------------
        BYTE   PATT
         POIN2  NuclearFusion_DrGreen3339_5_13
// 014   ----------------------------------------
        BYTE   PATT
         POIN2  NuclearFusion_DrGreen3339_5_14
// 015   ----------------------------------------
        BYTE   PATT
         POIN2  NuclearFusion_DrGreen3339_5_15
// 016   ----------------------------------------
        BYTE   PATT
         POIN2  NuclearFusion_DrGreen3339_5_16
// 017   ----------------------------------------
        BYTE   PATT
         POIN2  NuclearFusion_DrGreen3339_5_1
// 018   ----------------------------------------
        BYTE   PATT
         POIN2  NuclearFusion_DrGreen3339_5_2
// 019   ----------------------------------------
        BYTE   PATT
         POIN2  NuclearFusion_DrGreen3339_5_3
// 020   ----------------------------------------
        BYTE   PATT
         POIN2  NuclearFusion_DrGreen3339_5_4
// 021   ----------------------------------------
        BYTE   PATT
         POIN2  NuclearFusion_DrGreen3339_5_5
// 022   ----------------------------------------
        BYTE   PATT
         POIN2  NuclearFusion_DrGreen3339_5_6
// 023   ----------------------------------------
        BYTE   PATT
         POIN2  NuclearFusion_DrGreen3339_5_7
// 024   ----------------------------------------
        BYTE   PATT
         POIN2  NuclearFusion_DrGreen3339_5_8
// 025   ----------------------------------------
        BYTE   PATT
         POIN2  NuclearFusion_DrGreen3339_5_9
// 026   ----------------------------------------
        BYTE   PATT
         POIN2  NuclearFusion_DrGreen3339_5_10
// 027   ----------------------------------------
        BYTE   PATT
         POIN2  NuclearFusion_DrGreen3339_3_9
// 028   ----------------------------------------
        BYTE   PATT
         POIN2  NuclearFusion_DrGreen3339_5_12
// 029   ----------------------------------------
        BYTE   PATT
         POIN2  NuclearFusion_DrGreen3339_5_13
// 030   ----------------------------------------
        BYTE   PATT
         POIN2  NuclearFusion_DrGreen3339_5_14
// 031   ----------------------------------------
        BYTE   PATT
         POIN2  NuclearFusion_DrGreen3339_5_15
// 032   ----------------------------------------
        BYTE   PATT
         POIN2  NuclearFusion_DrGreen3339_5_32
// 033   ----------------------------------------
        BYTE   PATT
         POIN2  NuclearFusion_DrGreen3339_5_33
// 034   ----------------------------------------
        BYTE   PATT
         POIN2  NuclearFusion_DrGreen3339_5_34
// 035   ----------------------------------------
        BYTE   PATT
         POIN2  NuclearFusion_DrGreen3339_5_35
// 036   ----------------------------------------
        BYTE   PATT
         POIN2  NuclearFusion_DrGreen3339_5_36
// 037   ----------------------------------------
        BYTE   PATT
         POIN2  NuclearFusion_DrGreen3339_5_37
// 038   ----------------------------------------
        BYTE   PATT
         POIN2  NuclearFusion_DrGreen3339_5_38
// 039   ----------------------------------------
        BYTE   PATT
         POIN2  NuclearFusion_DrGreen3339_5_39
// 040   ----------------------------------------
        BYTE   PATT
         POIN2  NuclearFusion_DrGreen3339_5_40
// 041   ----------------------------------------
        BYTE   PATT
         POIN2  NuclearFusion_DrGreen3339_5_33
// 042   ----------------------------------------
        BYTE   PATT
         POIN2  NuclearFusion_DrGreen3339_5_34
// 043   ----------------------------------------
        BYTE   PATT
         POIN2  NuclearFusion_DrGreen3339_5_35
// 044   ----------------------------------------
        BYTE   PATT
         POIN2  NuclearFusion_DrGreen3339_5_36
// 045   ----------------------------------------
        BYTE   PATT
         POIN2  NuclearFusion_DrGreen3339_5_37
// 046   ----------------------------------------
        BYTE   PATT
         POIN2  NuclearFusion_DrGreen3339_5_46
// 047   ----------------------------------------
        BYTE   PATT
         POIN2  NuclearFusion_DrGreen3339_5_47
// 048   ----------------------------------------
        BYTE   PATT
         POIN2  NuclearFusion_DrGreen3339_5_48
// 049   ----------------------------------------
        BYTE   W96
// 050   ----------------------------------------
        BYTE   W96
// 051   ----------------------------------------
        BYTE   W96
// 052   ----------------------------------------
        BYTE   PATT
         POIN2  NuclearFusion_DrGreen3339_5_52
// 053   ----------------------------------------
        BYTE   PATT
         POIN2  NuclearFusion_DrGreen3339_5_53
// 054   ----------------------------------------
        BYTE   PATT
         POIN2  NuclearFusion_DrGreen3339_5_54
// 055   ----------------------------------------
        BYTE   PATT
         POIN2  NuclearFusion_DrGreen3339_5_55
// 056   ----------------------------------------
        BYTE   PATT
         POIN2  NuclearFusion_DrGreen3339_5_56
// 057   ----------------------------------------
        BYTE   W96
// 058   ----------------------------------------
        BYTE   W36
        BYTE           EOT    Cs4
        BYTE   GoTo
         POIN2  NuclearFusion_DrGreen3339_7_LOOP
        BYTE   FINE

//****************** Track 8 (Midi-Chn.8) ******************//

NuclearFusion_DrGreen3339_8:
        BYTE   KEYSH  NuclearFusion_DrGreen3339_key+0
// 000   ----------------------------------------
        BYTE           VOICE  40
        BYTE           VOL    18
        BYTE           PAN    c_v+32
        BYTE   W36
NuclearFusion_DrGreen3339_8_LOOP:
        BYTE           N48    An3  v120
        BYTE   W48
        BYTE                   Cn4
        BYTE   W12
// 001   ----------------------------------------
        BYTE   PATT
         POIN2  NuclearFusion_DrGreen3339_3_1
// 002   ----------------------------------------
        BYTE   PATT
         POIN2  NuclearFusion_DrGreen3339_3_2
// 003   ----------------------------------------
        BYTE   PATT
         POIN2  NuclearFusion_DrGreen3339_3_3
// 004   ----------------------------------------
        BYTE   PATT
         POIN2  NuclearFusion_DrGreen3339_3_4
// 005   ----------------------------------------
        BYTE   PATT
         POIN2  NuclearFusion_DrGreen3339_3_5
// 006   ----------------------------------------
        BYTE   PATT
         POIN2  NuclearFusion_DrGreen3339_3_6
// 007   ----------------------------------------
        BYTE   PATT
         POIN2  NuclearFusion_DrGreen3339_3_7
// 008   ----------------------------------------
        BYTE   PATT
         POIN2  NuclearFusion_DrGreen3339_3_8
// 009   ----------------------------------------
        BYTE   PATT
         POIN2  NuclearFusion_DrGreen3339_3_9
// 010   ----------------------------------------
        BYTE   PATT
         POIN2  NuclearFusion_DrGreen3339_3_10
// 011   ----------------------------------------
        BYTE   PATT
         POIN2  NuclearFusion_DrGreen3339_3_11
// 012   ----------------------------------------
        BYTE   PATT
         POIN2  NuclearFusion_DrGreen3339_3_12
// 013   ----------------------------------------
        BYTE   PATT
         POIN2  NuclearFusion_DrGreen3339_3_13
// 014   ----------------------------------------
        BYTE   PATT
         POIN2  NuclearFusion_DrGreen3339_3_14
// 015   ----------------------------------------
        BYTE   PATT
         POIN2  NuclearFusion_DrGreen3339_3_15
// 016   ----------------------------------------
        BYTE   PATT
         POIN2  NuclearFusion_DrGreen3339_3_16
// 017   ----------------------------------------
        BYTE   PATT
         POIN2  NuclearFusion_DrGreen3339_3_1
// 018   ----------------------------------------
        BYTE   PATT
         POIN2  NuclearFusion_DrGreen3339_3_2
// 019   ----------------------------------------
        BYTE   PATT
         POIN2  NuclearFusion_DrGreen3339_3_3
// 020   ----------------------------------------
        BYTE   PATT
         POIN2  NuclearFusion_DrGreen3339_3_4
// 021   ----------------------------------------
        BYTE   PATT
         POIN2  NuclearFusion_DrGreen3339_3_5
// 022   ----------------------------------------
        BYTE   PATT
         POIN2  NuclearFusion_DrGreen3339_3_6
// 023   ----------------------------------------
        BYTE   PATT
         POIN2  NuclearFusion_DrGreen3339_3_7
// 024   ----------------------------------------
        BYTE   PATT
         POIN2  NuclearFusion_DrGreen3339_3_8
// 025   ----------------------------------------
        BYTE   PATT
         POIN2  NuclearFusion_DrGreen3339_3_9
// 026   ----------------------------------------
        BYTE   PATT
         POIN2  NuclearFusion_DrGreen3339_3_10
// 027   ----------------------------------------
        BYTE   PATT
         POIN2  NuclearFusion_DrGreen3339_3_11
// 028   ----------------------------------------
        BYTE   PATT
         POIN2  NuclearFusion_DrGreen3339_3_12
// 029   ----------------------------------------
        BYTE   PATT
         POIN2  NuclearFusion_DrGreen3339_3_13
// 030   ----------------------------------------
        BYTE   PATT
         POIN2  NuclearFusion_DrGreen3339_3_14
// 031   ----------------------------------------
        BYTE   PATT
         POIN2  NuclearFusion_DrGreen3339_3_15
// 032   ----------------------------------------
        BYTE   PATT
         POIN2  NuclearFusion_DrGreen3339_3_32
// 033   ----------------------------------------
        BYTE   PATT
         POIN2  NuclearFusion_DrGreen3339_3_33
// 034   ----------------------------------------
        BYTE   PATT
         POIN2  NuclearFusion_DrGreen3339_3_34
// 035   ----------------------------------------
        BYTE   PATT
         POIN2  NuclearFusion_DrGreen3339_3_35
// 036   ----------------------------------------
        BYTE   PATT
         POIN2  NuclearFusion_DrGreen3339_3_36
// 037   ----------------------------------------
        BYTE   PATT
         POIN2  NuclearFusion_DrGreen3339_3_37
// 038   ----------------------------------------
        BYTE   PATT
         POIN2  NuclearFusion_DrGreen3339_3_38
// 039   ----------------------------------------
        BYTE   PATT
         POIN2  NuclearFusion_DrGreen3339_3_39
// 040   ----------------------------------------
        BYTE   PATT
         POIN2  NuclearFusion_DrGreen3339_3_40
// 041   ----------------------------------------
        BYTE   PATT
         POIN2  NuclearFusion_DrGreen3339_3_33
// 042   ----------------------------------------
        BYTE   PATT
         POIN2  NuclearFusion_DrGreen3339_3_34
// 043   ----------------------------------------
        BYTE   PATT
         POIN2  NuclearFusion_DrGreen3339_3_35
// 044   ----------------------------------------
        BYTE   PATT
         POIN2  NuclearFusion_DrGreen3339_3_36
// 045   ----------------------------------------
        BYTE   PATT
         POIN2  NuclearFusion_DrGreen3339_3_37
// 046   ----------------------------------------
        BYTE   PATT
         POIN2  NuclearFusion_DrGreen3339_3_46
// 047   ----------------------------------------
        BYTE   PATT
         POIN2  NuclearFusion_DrGreen3339_3_47
// 048   ----------------------------------------
        BYTE   PATT
         POIN2  NuclearFusion_DrGreen3339_3_48
// 049   ----------------------------------------
        BYTE   W96
// 050   ----------------------------------------
        BYTE   W96
// 051   ----------------------------------------
        BYTE   W96
// 052   ----------------------------------------
        BYTE   PATT
         POIN2  NuclearFusion_DrGreen3339_3_52
// 053   ----------------------------------------
        BYTE   PATT
         POIN2  NuclearFusion_DrGreen3339_3_53
// 054   ----------------------------------------
        BYTE   PATT
         POIN2  NuclearFusion_DrGreen3339_3_54
// 055   ----------------------------------------
        BYTE   PATT
         POIN2  NuclearFusion_DrGreen3339_3_55
// 056   ----------------------------------------
        BYTE   PATT
         POIN2  NuclearFusion_DrGreen3339_3_56
// 057   ----------------------------------------
        BYTE   W96
// 058   ----------------------------------------
        BYTE   W36
        BYTE           EOT    As3
        BYTE                   Fs4
        BYTE   GoTo
         POIN2  NuclearFusion_DrGreen3339_8_LOOP
        BYTE   FINE

//****************** Track 9 (Midi-Chn.9) ******************//

NuclearFusion_DrGreen3339_9:
        BYTE   KEYSH  NuclearFusion_DrGreen3339_key+0
// 000   ----------------------------------------
        BYTE           VOICE  127
        BYTE           VOL    26
        BYTE           N04    Cn1  v127
        BYTE   W04
        BYTE                   Cn1
        BYTE   W04
        BYTE                   Cn1
        BYTE   W04
        BYTE           N03    Dn1
        BYTE   W12
        BYTE                   Fs2  v092
        BYTE   W06
        BYTE                   Fs2
        BYTE   W06
NuclearFusion_DrGreen3339_9_LOOP:
        BYTE           N03    Cn1  v127
        BYTE           N03    Fs2
        BYTE   W12
        BYTE                   Fs2  v092
        BYTE   W06
        BYTE                   Fs2
        BYTE   W06
        BYTE                   Dn1  v127
        BYTE           N03    Fs2
        BYTE   W12
        BYTE                   Fs2  v092
        BYTE   W06
        BYTE                   Fs2
        BYTE   W06
        BYTE                   Cn1  v127
        BYTE           N03    Fs2
        BYTE   W12
// 001   ----------------------------------------
NuclearFusion_DrGreen3339_9_1:
        BYTE           N03    Fs2  v092
        BYTE   W06
        BYTE                   Fs2
        BYTE   W06
        BYTE                   Dn1  v127
        BYTE           N03    Fs2
        BYTE   W12
        BYTE                   Fs2  v092
        BYTE   W06
        BYTE                   Fs2
        BYTE   W06
        BYTE                   Cn1  v127
        BYTE           N03    Fs2
        BYTE   W12
        BYTE                   Fs2  v092
        BYTE   W06
        BYTE                   Fs2
        BYTE   W06
        BYTE                   Dn1  v127
        BYTE           N03    Fs2
        BYTE   W12
        BYTE                   Fs2  v092
        BYTE   W06
        BYTE                   Fs2
        BYTE   W06
        BYTE                   Cn1  v127
        BYTE           N03    Fs2
        BYTE   W12
        BYTE   PEND
// 002   ----------------------------------------
NuclearFusion_DrGreen3339_9_2:
        BYTE           N03    Fs2  v092
        BYTE   W06
        BYTE                   Fs2
        BYTE   W06
        BYTE                   Dn1  v127
        BYTE           N03    Fs2
        BYTE   W12
        BYTE                   Fs2  v092
        BYTE   W06
        BYTE                   Cn1  v127
        BYTE           N03    Fs2  v092
        BYTE   W06
        BYTE                   Cn1  v127
        BYTE           N03    Fs2
        BYTE   W12
        BYTE                   Fs2  v092
        BYTE   W06
        BYTE                   Fs2
        BYTE   W06
        BYTE                   Dn1  v127
        BYTE           N03    Fs2
        BYTE   W12
        BYTE                   Fs2  v092
        BYTE   W06
        BYTE                   Fs2
        BYTE   W06
        BYTE                   Cn1  v127
        BYTE           N03    Fs2
        BYTE   W12
        BYTE   PEND
// 003   ----------------------------------------
        BYTE   PATT
         POIN2  NuclearFusion_DrGreen3339_9_1
// 004   ----------------------------------------
NuclearFusion_DrGreen3339_9_4:
        BYTE           N03    Cn1  v127
        BYTE           N03    Fs2  v092
        BYTE   W06
        BYTE                   Fs2
        BYTE   W06
        BYTE                   Dn1  v127
        BYTE           N04    Fs2
        BYTE   W04
        BYTE                   Fs2
        BYTE   W04
        BYTE                   Fs2  v120
        BYTE   W04
        BYTE           N03    Cn1  v127
        BYTE           N04    Fs2  v112
        BYTE   W04
        BYTE                   Fs2  v104
        BYTE   W02
        BYTE           N03    Cn1  v127
        BYTE   W02
        BYTE           N04    Fs2  v092
        BYTE   W04
        BYTE           N03    Cn1  v127
        BYTE           N03    Fs2  v112
        BYTE   W06
        BYTE                   Cn1  v127
        BYTE           N03    Fs2  v112
        BYTE   W06
        BYTE                   Cn1  v127
        BYTE           N03    Fs2  v112
        BYTE   W06
        BYTE                   Cn1  v127
        BYTE           N03    Fs2  v112
        BYTE   W06
        BYTE                   Dn1  v127
        BYTE           N03    Fs2
        BYTE   W12
        BYTE                   Cn1
        BYTE           N03    Fs2  v112
        BYTE   W06
        BYTE                   Cn1  v127
        BYTE           N03    Fs2  v112
        BYTE   W06
        BYTE                   Cn1  v127
        BYTE           N03    Fs2  v112
        BYTE   W06
        BYTE                   Cn1  v127
        BYTE           N03    Fs2  v112
        BYTE   W06
        BYTE   PEND
// 005   ----------------------------------------
NuclearFusion_DrGreen3339_9_5:
        BYTE           N03    Dn1  v127
        BYTE           N03    Fs2
        BYTE   W12
        BYTE                   Cn1
        BYTE           N03    Fs2  v112
        BYTE   W06
        BYTE                   Cn1  v127
        BYTE           N03    Fs2  v112
        BYTE   W06
        BYTE                   Cn1  v127
        BYTE           N03    Fs2  v112
        BYTE   W06
        BYTE                   Cn1  v127
        BYTE           N03    Fs2  v112
        BYTE   W06
        BYTE                   Dn1  v127
        BYTE           N03    Fs2
        BYTE   W12
        BYTE                   Cn1
        BYTE           N03    Fs2  v112
        BYTE   W06
        BYTE                   Cn1  v127
        BYTE           N03    Fs2  v112
        BYTE   W06
        BYTE                   Cn1  v127
        BYTE           N03    Fs2  v112
        BYTE   W06
        BYTE                   Cn1  v127
        BYTE           N03    Fs2  v112
        BYTE   W06
        BYTE                   Dn1  v127
        BYTE           N03    Fs2  v112
        BYTE   W06
        BYTE                   Fs2
        BYTE   W06
        BYTE                   Cn1  v127
        BYTE           N03    Fs2
        BYTE   W06
        BYTE                   Cn1
        BYTE           N03    Fs2
        BYTE   W06
        BYTE   PEND
// 006   ----------------------------------------
NuclearFusion_DrGreen3339_9_6:
        BYTE           N03    Fs2  v112
        BYTE   W06
        BYTE                   Cn1  v127
        BYTE           N03    Fs2  v112
        BYTE   W06
        BYTE                   Dn1  v127
        BYTE           N03    Fs2
        BYTE   W06
        BYTE                   Dn1
        BYTE   W06
        BYTE                   Fs2  v112
        BYTE   W06
        BYTE                   Cn1  v127
        BYTE           N03    Fs2  v112
        BYTE   W06
        BYTE                   Cn1  v127
        BYTE           N03    Fs2
        BYTE   W12
        BYTE                   Fs2  v092
        BYTE   W06
        BYTE                   Fs2
        BYTE   W06
        BYTE                   Dn1  v127
        BYTE           N03    Fs2
        BYTE   W12
        BYTE                   Fs2  v092
        BYTE   W06
        BYTE                   Fs2
        BYTE   W06
        BYTE                   Cn1  v127
        BYTE           N03    Fs2
        BYTE   W12
        BYTE   PEND
// 007   ----------------------------------------
NuclearFusion_DrGreen3339_9_7:
        BYTE           N03    Fs2  v092
        BYTE   W06
        BYTE                   Fs2
        BYTE   W06
        BYTE                   Dn1  v127
        BYTE           N03    Fs2
        BYTE   W12
        BYTE                   Fs2  v092
        BYTE   W06
        BYTE                   Fs2
        BYTE   W06
        BYTE                   Cn1  v127
        BYTE           N03    Fs2
        BYTE   W12
        BYTE                   Fs2  v092
        BYTE   W06
        BYTE                   Fs2
        BYTE   W06
        BYTE                   Dn1  v127
        BYTE           N03    Fs2
        BYTE   W12
        BYTE                   Fs2  v092
        BYTE   W06
        BYTE                   Cn1  v127
        BYTE           N03    Fs2  v092
        BYTE   W06
        BYTE                   Cn1  v127
        BYTE           N03    Fs2
        BYTE   W12
        BYTE   PEND
// 008   ----------------------------------------
NuclearFusion_DrGreen3339_9_8:
        BYTE           N03    Cn1  v127
        BYTE           N03    Fs2  v092
        BYTE   W06
        BYTE                   Fs2
        BYTE   W06
        BYTE                   Dn1  v127
        BYTE           N04    Fs2
        BYTE   W04
        BYTE                   Fs2
        BYTE   W04
        BYTE                   Fs2  v120
        BYTE   W04
        BYTE                   Cn1  v127
        BYTE           N04    Fs2  v112
        BYTE   W04
        BYTE                   Cn1  v127
        BYTE           N04    Fs2  v100
        BYTE   W04
        BYTE                   Cn1  v127
        BYTE           N04    Fs2  v092
        BYTE   W04
        BYTE           N03    Cn1  v127
        BYTE           N03    Fs2
        BYTE   W12
        BYTE                   Fs2  v092
        BYTE   W06
        BYTE                   Fs2
        BYTE   W06
        BYTE                   Dn1  v127
        BYTE           N03    Fs2
        BYTE   W12
        BYTE                   Fs2  v092
        BYTE   W06
        BYTE                   Fs2
        BYTE   W06
        BYTE                   Cn1  v127
        BYTE           N03    Fs2
        BYTE   W12
        BYTE   PEND
// 009   ----------------------------------------
        BYTE   PATT
         POIN2  NuclearFusion_DrGreen3339_9_1
// 010   ----------------------------------------
        BYTE   PATT
         POIN2  NuclearFusion_DrGreen3339_9_2
// 011   ----------------------------------------
        BYTE   PATT
         POIN2  NuclearFusion_DrGreen3339_9_1
// 012   ----------------------------------------
        BYTE   PATT
         POIN2  NuclearFusion_DrGreen3339_9_4
// 013   ----------------------------------------
        BYTE   PATT
         POIN2  NuclearFusion_DrGreen3339_9_5
// 014   ----------------------------------------
        BYTE   PATT
         POIN2  NuclearFusion_DrGreen3339_9_6
// 015   ----------------------------------------
NuclearFusion_DrGreen3339_9_15:
        BYTE           N03    Fs2  v092
        BYTE   W06
        BYTE                   Fs2
        BYTE   W06
        BYTE                   Dn1  v127
        BYTE           N03    Fs2
        BYTE   W12
        BYTE                   Fs2  v092
        BYTE   W06
        BYTE                   Fs2
        BYTE   W06
        BYTE                   Cn1  v127
        BYTE           N03    Fs2
        BYTE   W12
        BYTE                   Fs2  v092
        BYTE   W06
        BYTE                   Fs2
        BYTE   W06
        BYTE                   Dn1  v127
        BYTE           N03    Fs2
        BYTE   W12
        BYTE                   Fs2  v092
        BYTE   W06
        BYTE                   Cn1  v127
        BYTE           N03    Fs2  v092
        BYTE   W06
        BYTE                   Cn1  v127
        BYTE           N03    Fs2
        BYTE   W06
        BYTE                   Dn1
        BYTE   W06
        BYTE   PEND
// 016   ----------------------------------------
        BYTE                   Dn1
        BYTE           N03    Fs2  v092
        BYTE   W06
        BYTE                   Cn1  v127
        BYTE           N03    Fs2  v092
        BYTE   W06
        BYTE                   Dn1  v127
        BYTE           N04    Fs2
        BYTE   W04
        BYTE                   Fs2
        BYTE   W02
        BYTE           N03    Cn1
        BYTE   W02
        BYTE           N04    Fs2  v120
        BYTE   W04
        BYTE           N03    Dn1  v127
        BYTE           N04    Fs2  v112
        BYTE   W04
        BYTE                   Fs2  v100
        BYTE   W02
        BYTE           N03    Dn1  v127
        BYTE   W02
        BYTE           N04    Fs2  v092
        BYTE   W04
        BYTE           N03    Cn1  v127
        BYTE           N03    Fs2
        BYTE   W12
        BYTE                   Fs2  v092
        BYTE   W06
        BYTE                   Fs2
        BYTE   W06
        BYTE                   Dn1  v127
        BYTE           N03    Fs2
        BYTE   W12
        BYTE                   Fs2  v092
        BYTE   W06
        BYTE                   Fs2
        BYTE   W06
        BYTE                   Cn1  v127
        BYTE           N03    Fs2
        BYTE   W12
// 017   ----------------------------------------
        BYTE   PATT
         POIN2  NuclearFusion_DrGreen3339_9_1
// 018   ----------------------------------------
        BYTE   PATT
         POIN2  NuclearFusion_DrGreen3339_9_2
// 019   ----------------------------------------
        BYTE   PATT
         POIN2  NuclearFusion_DrGreen3339_9_1
// 020   ----------------------------------------
        BYTE   PATT
         POIN2  NuclearFusion_DrGreen3339_9_4
// 021   ----------------------------------------
        BYTE   PATT
         POIN2  NuclearFusion_DrGreen3339_9_5
// 022   ----------------------------------------
        BYTE   PATT
         POIN2  NuclearFusion_DrGreen3339_9_6
// 023   ----------------------------------------
        BYTE   PATT
         POIN2  NuclearFusion_DrGreen3339_9_7
// 024   ----------------------------------------
        BYTE   PATT
         POIN2  NuclearFusion_DrGreen3339_9_8
// 025   ----------------------------------------
        BYTE   PATT
         POIN2  NuclearFusion_DrGreen3339_9_1
// 026   ----------------------------------------
        BYTE   PATT
         POIN2  NuclearFusion_DrGreen3339_9_2
// 027   ----------------------------------------
        BYTE   PATT
         POIN2  NuclearFusion_DrGreen3339_9_1
// 028   ----------------------------------------
        BYTE   PATT
         POIN2  NuclearFusion_DrGreen3339_9_4
// 029   ----------------------------------------
        BYTE   PATT
         POIN2  NuclearFusion_DrGreen3339_9_5
// 030   ----------------------------------------
        BYTE   PATT
         POIN2  NuclearFusion_DrGreen3339_9_6
// 031   ----------------------------------------
        BYTE   PATT
         POIN2  NuclearFusion_DrGreen3339_9_15
// 032   ----------------------------------------
        BYTE           N03    Dn1  v127
        BYTE           N03    Fs2  v092
        BYTE   W06
        BYTE                   Cn1  v127
        BYTE           N03    Fs2  v092
        BYTE   W06
        BYTE                   Dn1  v127
        BYTE           N04    Fs2
        BYTE   W04
        BYTE                   Fs2
        BYTE   W02
        BYTE           N03    Cn1
        BYTE   W02
        BYTE           N04    Fs2  v120
        BYTE   W04
        BYTE           N03    Dn1  v127
        BYTE           N04    Fs2  v112
        BYTE   W04
        BYTE                   Fs2  v100
        BYTE   W02
        BYTE           N03    Dn1  v127
        BYTE   W02
        BYTE           N04    Fs2  v092
        BYTE   W04
        BYTE           N03    Cn1  v127
        BYTE           N03    Fs2
        BYTE   W12
        BYTE                   Fs2  v092
        BYTE   W06
        BYTE                   Cn1  v127
        BYTE           N03    Fs2  v092
        BYTE   W06
        BYTE                   Dn1  v127
        BYTE           N03    Fs2
        BYTE   W12
        BYTE                   Cn1
        BYTE           N03    Fs2  v092
        BYTE   W06
        BYTE                   Fs2
        BYTE   W06
        BYTE                   Cn1  v127
        BYTE           N03    Fs2
        BYTE   W12
// 033   ----------------------------------------
NuclearFusion_DrGreen3339_9_33:
        BYTE           N03    Fs2  v092
        BYTE   W06
        BYTE                   Fs2
        BYTE   W06
        BYTE                   Dn1  v127
        BYTE           N03    Fs2
        BYTE   W12
        BYTE                   Cn1
        BYTE           N03    Fs2  v092
        BYTE   W06
        BYTE                   Cn1  v127
        BYTE           N03    Fs2  v092
        BYTE   W06
        BYTE                   Cn1  v127
        BYTE           N03    Fs2
        BYTE   W12
        BYTE                   Fs2  v092
        BYTE   W06
        BYTE                   Cn1  v127
        BYTE           N03    Fs2  v092
        BYTE   W06
        BYTE                   Dn1  v127
        BYTE           N03    Fs2
        BYTE   W12
        BYTE                   Cn1
        BYTE           N03    Fs2  v092
        BYTE   W06
        BYTE                   Fs2
        BYTE   W06
        BYTE                   Cn1  v127
        BYTE           N03    Fs2
        BYTE   W06
        BYTE                   Cn1
        BYTE   W06
        BYTE   PEND
// 034   ----------------------------------------
NuclearFusion_DrGreen3339_9_34:
        BYTE           N03    Fs2  v092
        BYTE   W06
        BYTE                   Cn1  v127
        BYTE           N03    Fs2  v092
        BYTE   W06
        BYTE                   Dn1  v127
        BYTE           N03    Fs2
        BYTE   W12
        BYTE                   Cn1
        BYTE           N03    Fs2  v092
        BYTE   W06
        BYTE                   Fs2
        BYTE   W06
        BYTE                   Cn1  v127
        BYTE           N03    Fs2
        BYTE   W12
        BYTE                   Fs2  v092
        BYTE   W06
        BYTE                   Fs2
        BYTE   W06
        BYTE                   Dn1  v127
        BYTE           N03    Fs2
        BYTE   W12
        BYTE                   Fs2  v092
        BYTE   W06
        BYTE                   Fs2
        BYTE   W06
        BYTE                   Cn1  v127
        BYTE           N03    Fs2
        BYTE   W12
        BYTE   PEND
// 035   ----------------------------------------
NuclearFusion_DrGreen3339_9_35:
        BYTE           N03    Fs2  v092
        BYTE   W06
        BYTE                   Fs2
        BYTE   W06
        BYTE                   Dn1  v127
        BYTE           N03    Fs2
        BYTE   W12
        BYTE                   Fs2  v092
        BYTE   W06
        BYTE                   Cn1  v127
        BYTE           N03    Fs2  v092
        BYTE   W06
        BYTE                   Cn1  v127
        BYTE           N03    Fs2
        BYTE   W12
        BYTE                   Fs2  v092
        BYTE   W06
        BYTE                   Fs2
        BYTE   W06
        BYTE                   Dn1  v127
        BYTE           N03    Fs2
        BYTE   W12
        BYTE                   Cn1
        BYTE           N03    Fs2  v092
        BYTE   W06
        BYTE                   Fs2
        BYTE   W06
        BYTE                   Cn1  v127
        BYTE           N03    Fs2
        BYTE   W06
        BYTE                   Cn1
        BYTE   W06
        BYTE   PEND
// 036   ----------------------------------------
NuclearFusion_DrGreen3339_9_36:
        BYTE           N03    Fs2  v092
        BYTE   W06
        BYTE                   Cn1  v127
        BYTE           N03    Fs2  v092
        BYTE   W06
        BYTE                   Dn1  v127
        BYTE           N04    Fs2
        BYTE   W04
        BYTE                   Fs2
        BYTE   W02
        BYTE           N03    Cn1
        BYTE   W02
        BYTE           N04    Fs2  v120
        BYTE   W04
        BYTE                   Fs2  v112
        BYTE   W04
        BYTE                   Fs2  v104
        BYTE   W02
        BYTE           N03    Cn1  v127
        BYTE   W02
        BYTE           N04    Fs2  v092
        BYTE   W04
        BYTE           N03    Cn1  v127
        BYTE           N03    Fs2
        BYTE   W12
        BYTE                   Fs2  v092
        BYTE   W06
        BYTE                   Cn1  v127
        BYTE           N03    Fs2  v092
        BYTE   W06
        BYTE                   Dn1  v127
        BYTE           N03    Fs2
        BYTE   W12
        BYTE                   Cn1
        BYTE           N03    Fs2  v092
        BYTE   W06
        BYTE                   Fs2
        BYTE   W06
        BYTE                   Cn1  v127
        BYTE           N03    Fs2
        BYTE   W12
        BYTE   PEND
// 037   ----------------------------------------
        BYTE   PATT
         POIN2  NuclearFusion_DrGreen3339_9_33
// 038   ----------------------------------------
        BYTE   PATT
         POIN2  NuclearFusion_DrGreen3339_9_34
// 039   ----------------------------------------
        BYTE           N03    Fs2  v092
        BYTE   W06
        BYTE                   Fs2
        BYTE   W06
        BYTE                   Dn1  v127
        BYTE           N03    Fs2
        BYTE   W12
        BYTE                   Fs2  v092
        BYTE   W06
        BYTE                   Cn1  v127
        BYTE           N03    Fs2  v092
        BYTE   W06
        BYTE                   Cn1  v127
        BYTE           N03    Fs2
        BYTE   W12
        BYTE                   Fs2  v092
        BYTE   W06
        BYTE                   Fs2
        BYTE   W06
        BYTE                   Dn1  v127
        BYTE           N03    Fs2
        BYTE   W12
        BYTE                   Fs2  v092
        BYTE   W06
        BYTE                   Cn1  v127
        BYTE           N03    Fs2  v092
        BYTE   W06
        BYTE                   Cn1  v127
        BYTE           N03    Fs2
        BYTE   W12
// 040   ----------------------------------------
        BYTE                   Cn1
        BYTE           N03    Fs2  v092
        BYTE   W06
        BYTE                   Fs2
        BYTE   W06
        BYTE                   Cn1  v127
        BYTE           N04    Fs2
        BYTE   W04
        BYTE                   Fs2
        BYTE   W02
        BYTE           N03    Dn1
        BYTE   W02
        BYTE           N04    Fs2  v120
        BYTE   W04
        BYTE           N03    Dn1  v127
        BYTE           N04    Fs2  v112
        BYTE   W04
        BYTE                   Fs2  v104
        BYTE   W02
        BYTE           N03    Dn1  v127
        BYTE   W02
        BYTE           N04    Fs2  v092
        BYTE   W04
        BYTE           N03    Cn1  v127
        BYTE           N03    Fs2
        BYTE   W12
        BYTE                   Fs2  v092
        BYTE   W06
        BYTE                   Cn1  v127
        BYTE           N03    Fs2  v092
        BYTE   W06
        BYTE                   Dn1  v127
        BYTE           N03    Fs2
        BYTE   W12
        BYTE                   Cn1
        BYTE           N03    Fs2  v092
        BYTE   W06
        BYTE                   Fs2
        BYTE   W06
        BYTE                   Cn1  v127
        BYTE           N03    Fs2
        BYTE   W12
// 041   ----------------------------------------
        BYTE   PATT
         POIN2  NuclearFusion_DrGreen3339_9_33
// 042   ----------------------------------------
        BYTE   PATT
         POIN2  NuclearFusion_DrGreen3339_9_34
// 043   ----------------------------------------
        BYTE   PATT
         POIN2  NuclearFusion_DrGreen3339_9_35
// 044   ----------------------------------------
        BYTE   PATT
         POIN2  NuclearFusion_DrGreen3339_9_36
// 045   ----------------------------------------
        BYTE   PATT
         POIN2  NuclearFusion_DrGreen3339_9_33
// 046   ----------------------------------------
        BYTE   PATT
         POIN2  NuclearFusion_DrGreen3339_9_34
// 047   ----------------------------------------
        BYTE           N03    Fs2  v092
        BYTE   W06
        BYTE                   Fs2
        BYTE   W06
        BYTE                   Dn1  v127
        BYTE           N03    Fs2
        BYTE   W12
        BYTE                   Fs2  v092
        BYTE   W06
        BYTE                   Cn1  v127
        BYTE           N03    Fs2  v092
        BYTE   W06
        BYTE                   Cn1  v127
        BYTE           N03    Fs2
        BYTE   W12
        BYTE                   Dn1
        BYTE           N03    Fs2  v092
        BYTE   W06
        BYTE                   Fs2
        BYTE   W06
        BYTE                   Dn1  v127
        BYTE           N04    Fs2
        BYTE   W04
        BYTE                   Fs2
        BYTE   W04
        BYTE                   Fs2  v120
        BYTE   W04
        BYTE                   Cn1  v127
        BYTE           N04    Fs2  v112
        BYTE   W04
        BYTE                   Cn1  v127
        BYTE           N04    Fs2  v104
        BYTE   W04
        BYTE                   Cn1  v127
        BYTE           N04    Fs2  v092
        BYTE   W04
        BYTE           N03    Cn1  v127
        BYTE           N03    Fs2
        BYTE   W06
        BYTE                   Dn1
        BYTE   W06
// 048   ----------------------------------------
        BYTE                   Dn1
        BYTE           N03    Fs2  v092
        BYTE   W06
        BYTE                   Dn1  v127
        BYTE           N03    Fs2  v092
        BYTE   W06
        BYTE                   Cn1  v127
        BYTE           N03    Fs2
        BYTE   W24
        BYTE                   Fs2
        BYTE   W12
        BYTE                   Fs2  v092
        BYTE   W06
        BYTE                   Fs2
        BYTE   W06
        BYTE                   Fs2  v127
        BYTE   W12
        BYTE                   Fs2  v092
        BYTE   W06
        BYTE                   Fs2
        BYTE   W06
        BYTE                   Fs2  v127
        BYTE   W12
// 049   ----------------------------------------
NuclearFusion_DrGreen3339_9_49:
        BYTE           N03    Fs2  v092
        BYTE   W06
        BYTE                   Fs2
        BYTE   W06
        BYTE                   Fs2  v127
        BYTE   W12
        BYTE                   Fs2  v092
        BYTE   W06
        BYTE                   Fs2
        BYTE   W06
        BYTE                   Fs2  v127
        BYTE   W12
        BYTE                   Fs2  v092
        BYTE   W06
        BYTE                   Fs2
        BYTE   W06
        BYTE                   Fs2  v127
        BYTE   W12
        BYTE                   Fs2  v092
        BYTE   W06
        BYTE                   Fs2
        BYTE   W06
        BYTE                   Fs2  v127
        BYTE   W12
        BYTE   PEND
// 050   ----------------------------------------
        BYTE                   Fs2  v092
        BYTE   W06
        BYTE                   Fs2
        BYTE   W06
        BYTE                   Fs2  v127
        BYTE   W06
        BYTE                   Fs2
        BYTE   W06
        BYTE                   Fs2  v092
        BYTE   W06
        BYTE                   Fs2
        BYTE   W06
        BYTE                   Fs2  v127
        BYTE   W12
        BYTE                   Fs2  v092
        BYTE   W06
        BYTE                   Fs2
        BYTE   W06
        BYTE                   Fs2  v127
        BYTE   W12
        BYTE                   Fs2  v092
        BYTE   W06
        BYTE                   Fs2
        BYTE   W06
        BYTE                   Fs2  v127
        BYTE   W12
// 051   ----------------------------------------
        BYTE   PATT
         POIN2  NuclearFusion_DrGreen3339_9_49
// 052   ----------------------------------------
        BYTE           N03    Dn1  v127
        BYTE           N03    Fs2  v092
        BYTE   W06
        BYTE                   Fs2
        BYTE   W06
        BYTE                   Cn1  v127
        BYTE           N04    Fs2
        BYTE   W04
        BYTE                   Fs2
        BYTE   W02
        BYTE           N02    Dn1
        BYTE   W02
        BYTE           N04    Fs2  v120
        BYTE   W04
        BYTE                   Fs2  v112
        BYTE   W04
        BYTE                   Fs2  v104
        BYTE   W02
        BYTE           N02    Dn1  v127
        BYTE   W02
        BYTE           N04    Fs2  v092
        BYTE   W04
        BYTE           N03    Cn1  v127
        BYTE           N03    Fs2
        BYTE   W12
        BYTE                   Fs2  v092
        BYTE   W06
        BYTE                   Cn1  v127
        BYTE           N03    Fs2  v092
        BYTE   W06
        BYTE                   Dn1  v127
        BYTE           N03    Fs2
        BYTE   W12
        BYTE                   Cn1
        BYTE           N03    Fs2  v092
        BYTE   W06
        BYTE                   Fs2
        BYTE   W06
        BYTE                   Cn1  v127
        BYTE           N03    Fs2
        BYTE   W12
// 053   ----------------------------------------
NuclearFusion_DrGreen3339_9_53:
        BYTE           N03    Fs2  v092
        BYTE   W06
        BYTE                   Fs2
        BYTE   W06
        BYTE                   Dn1  v127
        BYTE           N03    Fs2
        BYTE   W12
        BYTE                   Fs2  v092
        BYTE   W06
        BYTE                   Fs2
        BYTE   W06
        BYTE                   Cn1  v127
        BYTE           N03    Fs2
        BYTE   W12
        BYTE                   Fs2  v092
        BYTE   W06
        BYTE                   Cn1  v127
        BYTE           N03    Fs2  v092
        BYTE   W06
        BYTE                   Dn1  v127
        BYTE           N03    Fs2
        BYTE   W12
        BYTE                   Cn1
        BYTE           N03    Fs2  v092
        BYTE   W06
        BYTE                   Fs2
        BYTE   W06
        BYTE                   Cn1  v127
        BYTE           N03    Fs2
        BYTE   W12
        BYTE   PEND
// 054   ----------------------------------------
        BYTE                   Fs2  v092
        BYTE   W06
        BYTE                   Fs2
        BYTE   W06
        BYTE                   Dn1  v127
        BYTE           N03    Fs2
        BYTE   W12
        BYTE                   Cn1
        BYTE           N03    Fs2  v092
        BYTE   W06
        BYTE                   Fs2
        BYTE   W06
        BYTE                   Cn1  v127
        BYTE           N03    Fs2
        BYTE   W12
        BYTE                   Fs2  v092
        BYTE   W06
        BYTE                   Cn1  v127
        BYTE           N03    Fs2  v092
        BYTE   W06
        BYTE                   Dn1  v127
        BYTE           N03    Fs2
        BYTE   W12
        BYTE                   Cn1
        BYTE           N03    Fs2  v092
        BYTE   W06
        BYTE                   Fs2
        BYTE   W06
        BYTE                   Cn1  v127
        BYTE           N03    Fs2
        BYTE   W12
// 055   ----------------------------------------
        BYTE   PATT
         POIN2  NuclearFusion_DrGreen3339_9_53
// 056   ----------------------------------------
        BYTE           N03    Fs2  v092
        BYTE   W06
        BYTE                   Fs2
        BYTE   W06
        BYTE                   Dn1  v127
        BYTE           N04    Fs2
        BYTE   W04
        BYTE                   Fs2
        BYTE   W04
        BYTE                   Fs2  v120
        BYTE   W04
        BYTE                   Fs2  v112
        BYTE   W04
        BYTE                   Fs2  v104
        BYTE   W04
        BYTE                   Fs2  v092
        BYTE   W04
        BYTE           N03    Cn1  v127
        BYTE           N03    Fs2
        BYTE   W12
        BYTE                   Fs2  v092
        BYTE   W06
        BYTE                   Cn1  v127
        BYTE           N03    Fs2  v092
        BYTE   W06
        BYTE                   Dn1  v127
        BYTE           N03    Fs2
        BYTE   W12
        BYTE                   Cn1
        BYTE           N03    Fs2  v092
        BYTE   W06
        BYTE                   Fs2
        BYTE   W06
        BYTE                   Cn1  v127
        BYTE           N03    Fs2
        BYTE   W12
// 057   ----------------------------------------
        BYTE                   Fs2  v092
        BYTE   W06
        BYTE                   Cn1  v127
        BYTE           N03    Fs2  v092
        BYTE   W06
        BYTE                   Dn1  v127
        BYTE           N03    Fs2
        BYTE   W12
        BYTE                   Cn1
        BYTE           N03    Fs2  v092
        BYTE   W06
        BYTE                   Fs2
        BYTE   W06
        BYTE                   Cn1  v127
        BYTE           N03    Fs2
        BYTE   W12
        BYTE                   Fs2  v112
        BYTE   W03
        BYTE                   Fs2
        BYTE   W03
        BYTE                   Cn1  v127
        BYTE           N03    Fs2  v112
        BYTE   W03
        BYTE                   Fs2
        BYTE   W03
        BYTE                   Dn1  v127
        BYTE           N03    Fs2
        BYTE   W12
        BYTE                   Cn1
        BYTE           N03    Fs2  v112
        BYTE   W03
        BYTE                   Fs2
        BYTE   W03
        BYTE                   Fs2
        BYTE   W03
        BYTE                   Fs2
        BYTE   W03
        BYTE                   Cn1  v127
        BYTE           N03    Fs2
        BYTE   W06
        BYTE                   Cn1
        BYTE           N03    Fs2  v116
        BYTE   W06
// 058   ----------------------------------------
        BYTE                   Cn1  v127
        BYTE           N03    Fs2  v116
        BYTE   W06
        BYTE                   Cn1  v127
        BYTE           N03    Fs2  v116
        BYTE   W06
        BYTE                   Dn1  v127
        BYTE           N03    Fs2
        BYTE   W24
        BYTE   GoTo
         POIN2  NuclearFusion_DrGreen3339_9_LOOP
        BYTE   FINE

//***************** Track 10 (Midi-Chn.10) *****************//

NuclearFusion_DrGreen3339_10:
        BYTE   KEYSH  NuclearFusion_DrGreen3339_key+0
// 000   ----------------------------------------
        BYTE           VOICE  127
        BYTE           VOL    26
        BYTE           N04    Bn0  v127
        BYTE   W04
        BYTE                   Bn0
        BYTE   W04
        BYTE                   Bn0
        BYTE   W04
        BYTE           N03    En1
        BYTE           N03    As1
        BYTE   W24
NuclearFusion_DrGreen3339_10_LOOP:
        BYTE           N03    Bn0  v127
        BYTE   W24
        BYTE                   En1  v100
        BYTE           N03    As1  v120
        BYTE   W24
        BYTE                   Bn0  v127
        BYTE   W12
// 001   ----------------------------------------
NuclearFusion_DrGreen3339_10_1:
        BYTE   W12
        BYTE           N03    En1  v100
        BYTE           N03    As1  v120
        BYTE   W24
        BYTE                   Bn0  v127
        BYTE   W24
        BYTE                   En1  v100
        BYTE           N03    As1  v120
        BYTE   W24
        BYTE                   Bn0  v127
        BYTE   W12
        BYTE   PEND
// 002   ----------------------------------------
NuclearFusion_DrGreen3339_10_2:
        BYTE   W12
        BYTE           N03    En1  v100
        BYTE           N03    As1  v120
        BYTE   W18
        BYTE                   Bn0  v127
        BYTE   W06
        BYTE                   Bn0
        BYTE   W24
        BYTE                   En1  v100
        BYTE           N03    As1  v120
        BYTE   W24
        BYTE                   Bn0  v127
        BYTE   W12
        BYTE   PEND
// 003   ----------------------------------------
        BYTE   PATT
         POIN2  NuclearFusion_DrGreen3339_10_1
// 004   ----------------------------------------
NuclearFusion_DrGreen3339_10_4:
        BYTE           N03    Bn0  v127
        BYTE   W12
        BYTE                   En1  v100
        BYTE           N03    As1  v120
        BYTE   W12
        BYTE                   Bn0  v127
        BYTE   W06
        BYTE                   Bn0
        BYTE   W06
        BYTE                   Bn0
        BYTE   W06
        BYTE                   Bn0
        BYTE   W06
        BYTE                   Bn0
        BYTE   W06
        BYTE                   Bn0
        BYTE   W06
        BYTE                   En1  v092
        BYTE           N03    As1  v112
        BYTE   W12
        BYTE                   Bn0  v127
        BYTE   W06
        BYTE                   Bn0
        BYTE   W06
        BYTE                   Bn0
        BYTE   W06
        BYTE                   Bn0
        BYTE   W06
        BYTE   PEND
// 005   ----------------------------------------
NuclearFusion_DrGreen3339_10_5:
        BYTE           N03    En1  v092
        BYTE           N03    As1  v112
        BYTE   W12
        BYTE                   Bn0  v127
        BYTE   W06
        BYTE                   Bn0
        BYTE   W06
        BYTE                   Bn0
        BYTE   W06
        BYTE                   Bn0
        BYTE   W06
        BYTE                   En1  v092
        BYTE           N03    As1  v112
        BYTE   W12
        BYTE                   Bn0  v127
        BYTE   W06
        BYTE                   Bn0
        BYTE   W06
        BYTE                   Bn0
        BYTE   W06
        BYTE                   Bn0
        BYTE   W06
        BYTE                   En1  v092
        BYTE           N03    As1  v112
        BYTE   W12
        BYTE                   Bn0  v127
        BYTE   W06
        BYTE                   Bn0
        BYTE   W06
        BYTE   PEND
// 006   ----------------------------------------
NuclearFusion_DrGreen3339_10_6:
        BYTE   W06
        BYTE           N03    Bn0  v127
        BYTE   W06
        BYTE                   En1  v092
        BYTE           N03    As1  v112
        BYTE   W06
        BYTE                   En1  v092
        BYTE           N03    As1  v112
        BYTE   W12
        BYTE                   Bn0  v127
        BYTE   W06
        BYTE                   Bn0
        BYTE   W24
        BYTE                   En1  v100
        BYTE           N03    As1  v120
        BYTE   W24
        BYTE                   Bn0  v127
        BYTE   W12
        BYTE   PEND
// 007   ----------------------------------------
NuclearFusion_DrGreen3339_10_7:
        BYTE   W12
        BYTE           N03    En1  v100
        BYTE           N03    As1  v120
        BYTE   W24
        BYTE                   Bn0  v127
        BYTE   W24
        BYTE                   En1  v100
        BYTE           N03    As1  v120
        BYTE   W18
        BYTE                   Bn0  v127
        BYTE   W06
        BYTE                   Bn0
        BYTE   W12
        BYTE   PEND
// 008   ----------------------------------------
NuclearFusion_DrGreen3339_10_8:
        BYTE           N03    Bn0  v127
        BYTE   W12
        BYTE                   En1  v100
        BYTE           N03    As1  v120
        BYTE   W12
        BYTE           N04    Bn0  v127
        BYTE   W04
        BYTE                   Bn0
        BYTE   W04
        BYTE                   Bn0
        BYTE   W04
        BYTE           N03
        BYTE   W24
        BYTE                   En1  v100
        BYTE           N03    As1  v120
        BYTE   W24
        BYTE                   Bn0  v127
        BYTE   W12
        BYTE   PEND
// 009   ----------------------------------------
        BYTE   PATT
         POIN2  NuclearFusion_DrGreen3339_10_1
// 010   ----------------------------------------
        BYTE   PATT
         POIN2  NuclearFusion_DrGreen3339_10_2
// 011   ----------------------------------------
        BYTE   PATT
         POIN2  NuclearFusion_DrGreen3339_10_1
// 012   ----------------------------------------
        BYTE   PATT
         POIN2  NuclearFusion_DrGreen3339_10_4
// 013   ----------------------------------------
        BYTE   PATT
         POIN2  NuclearFusion_DrGreen3339_10_5
// 014   ----------------------------------------
        BYTE   PATT
         POIN2  NuclearFusion_DrGreen3339_10_6
// 015   ----------------------------------------
NuclearFusion_DrGreen3339_10_15:
        BYTE   W12
        BYTE           N03    En1  v100
        BYTE           N03    As1  v120
        BYTE   W24
        BYTE                   Bn0  v127
        BYTE   W24
        BYTE                   En1  v100
        BYTE           N03    As1  v120
        BYTE   W18
        BYTE                   Bn0  v127
        BYTE   W06
        BYTE                   Bn0
        BYTE   W06
        BYTE                   En1  v092
        BYTE           N03    As1  v112
        BYTE   W06
        BYTE   PEND
// 016   ----------------------------------------
        BYTE                   En1  v092
        BYTE           N03    As1  v112
        BYTE   W06
        BYTE                   Bn0  v127
        BYTE   W06
        BYTE                   En1  v092
        BYTE           N03    As1  v112
        BYTE   W06
        BYTE                   Bn0  v127
        BYTE   W06
        BYTE                   En1  v092
        BYTE           N03    As1  v112
        BYTE   W06
        BYTE                   En1  v092
        BYTE           N03    As1  v112
        BYTE   W06
        BYTE                   Bn0  v127
        BYTE   W24
        BYTE                   En1  v100
        BYTE           N03    As1  v120
        BYTE   W24
        BYTE                   Bn0  v127
        BYTE   W12
// 017   ----------------------------------------
        BYTE   PATT
         POIN2  NuclearFusion_DrGreen3339_10_1
// 018   ----------------------------------------
        BYTE   PATT
         POIN2  NuclearFusion_DrGreen3339_10_2
// 019   ----------------------------------------
        BYTE   PATT
         POIN2  NuclearFusion_DrGreen3339_10_1
// 020   ----------------------------------------
        BYTE   PATT
         POIN2  NuclearFusion_DrGreen3339_10_4
// 021   ----------------------------------------
        BYTE   PATT
         POIN2  NuclearFusion_DrGreen3339_10_5
// 022   ----------------------------------------
        BYTE   PATT
         POIN2  NuclearFusion_DrGreen3339_10_6
// 023   ----------------------------------------
        BYTE   PATT
         POIN2  NuclearFusion_DrGreen3339_10_7
// 024   ----------------------------------------
        BYTE   PATT
         POIN2  NuclearFusion_DrGreen3339_10_8
// 025   ----------------------------------------
        BYTE   PATT
         POIN2  NuclearFusion_DrGreen3339_10_1
// 026   ----------------------------------------
        BYTE   PATT
         POIN2  NuclearFusion_DrGreen3339_10_2
// 027   ----------------------------------------
        BYTE   PATT
         POIN2  NuclearFusion_DrGreen3339_10_1
// 028   ----------------------------------------
        BYTE   PATT
         POIN2  NuclearFusion_DrGreen3339_10_4
// 029   ----------------------------------------
        BYTE   PATT
         POIN2  NuclearFusion_DrGreen3339_10_5
// 030   ----------------------------------------
        BYTE   PATT
         POIN2  NuclearFusion_DrGreen3339_10_6
// 031   ----------------------------------------
        BYTE   PATT
         POIN2  NuclearFusion_DrGreen3339_10_15
// 032   ----------------------------------------
        BYTE           N03    En1  v092
        BYTE           N03    As1  v112
        BYTE   W06
        BYTE                   Bn0  v127
        BYTE   W06
        BYTE                   En1  v092
        BYTE           N03    As1  v112
        BYTE   W06
        BYTE                   Bn0  v127
        BYTE   W06
        BYTE                   En1  v092
        BYTE           N03    As1  v112
        BYTE   W06
        BYTE                   En1  v092
        BYTE           N03    As1  v112
        BYTE   W06
        BYTE                   Bn0  v127
        BYTE   W18
        BYTE                   Bn0
        BYTE   W06
        BYTE                   En1  v092
        BYTE           N03    As1  v112
        BYTE   W12
        BYTE                   Bn0  v127
        BYTE   W12
        BYTE                   Bn0
        BYTE   W12
// 033   ----------------------------------------
NuclearFusion_DrGreen3339_10_33:
        BYTE   W12
        BYTE           N03    En1  v100
        BYTE           N03    As1  v120
        BYTE   W12
        BYTE                   Bn0  v127
        BYTE   W06
        BYTE                   Bn0
        BYTE   W06
        BYTE                   Bn0
        BYTE   W18
        BYTE                   Bn0
        BYTE   W06
        BYTE                   En1  v092
        BYTE           N03    As1  v112
        BYTE   W12
        BYTE                   Bn0  v127
        BYTE   W12
        BYTE                   Bn0
        BYTE   W06
        BYTE                   Bn0
        BYTE   W06
        BYTE   PEND
// 034   ----------------------------------------
NuclearFusion_DrGreen3339_10_34:
        BYTE   W06
        BYTE           N03    Bn0  v127
        BYTE   W06
        BYTE                   En1  v100
        BYTE           N03    As1  v120
        BYTE   W12
        BYTE                   Bn0  v127
        BYTE   W12
        BYTE                   Bn0
        BYTE   W24
        BYTE                   En1  v092
        BYTE           N03    As1  v112
        BYTE   W24
        BYTE                   Bn0  v127
        BYTE   W12
        BYTE   PEND
// 035   ----------------------------------------
NuclearFusion_DrGreen3339_10_35:
        BYTE   W12
        BYTE           N03    En1  v100
        BYTE           N03    As1  v120
        BYTE   W18
        BYTE                   Bn0  v127
        BYTE   W06
        BYTE                   Bn0
        BYTE   W24
        BYTE                   En1  v092
        BYTE           N03    As1  v112
        BYTE   W12
        BYTE                   Bn0  v127
        BYTE   W12
        BYTE                   Bn0
        BYTE   W06
        BYTE                   Bn0
        BYTE   W06
        BYTE   PEND
// 036   ----------------------------------------
NuclearFusion_DrGreen3339_10_36:
        BYTE   W06
        BYTE           N03    Bn0  v127
        BYTE   W06
        BYTE                   En1  v100
        BYTE           N03    As1  v120
        BYTE   W06
        BYTE                   Bn0  v127
        BYTE   W12
        BYTE                   Bn0
        BYTE   W06
        BYTE                   Bn0
        BYTE   W18
        BYTE                   Bn0
        BYTE   W06
        BYTE                   En1  v092
        BYTE           N03    As1  v112
        BYTE   W12
        BYTE                   Bn0  v127
        BYTE   W12
        BYTE                   Bn0
        BYTE   W12
        BYTE   PEND
// 037   ----------------------------------------
        BYTE   PATT
         POIN2  NuclearFusion_DrGreen3339_10_33
// 038   ----------------------------------------
        BYTE   PATT
         POIN2  NuclearFusion_DrGreen3339_10_34
// 039   ----------------------------------------
        BYTE   W12
        BYTE           N03    En1  v100
        BYTE           N03    As1  v120
        BYTE   W18
        BYTE                   Bn0  v127
        BYTE   W06
        BYTE                   Bn0
        BYTE   W24
        BYTE                   En1  v092
        BYTE           N03    As1  v112
        BYTE   W18
        BYTE                   Bn0  v127
        BYTE   W06
        BYTE                   Bn0
        BYTE   W12
// 040   ----------------------------------------
        BYTE                   Bn0
        BYTE   W12
        BYTE                   Bn0
        BYTE   W06
        BYTE                   En1  v092
        BYTE           N03    As1  v112
        BYTE   W06
        BYTE                   En1  v092
        BYTE           N03    As1  v112
        BYTE   W06
        BYTE                   En1  v092
        BYTE           N03    As1  v112
        BYTE   W06
        BYTE                   Bn0  v127
        BYTE   W18
        BYTE                   Bn0
        BYTE   W06
        BYTE                   En1  v092
        BYTE           N03    As1  v112
        BYTE   W12
        BYTE                   Bn0  v127
        BYTE   W12
        BYTE                   Bn0
        BYTE   W12
// 041   ----------------------------------------
        BYTE   PATT
         POIN2  NuclearFusion_DrGreen3339_10_33
// 042   ----------------------------------------
        BYTE   PATT
         POIN2  NuclearFusion_DrGreen3339_10_34
// 043   ----------------------------------------
        BYTE   PATT
         POIN2  NuclearFusion_DrGreen3339_10_35
// 044   ----------------------------------------
        BYTE   PATT
         POIN2  NuclearFusion_DrGreen3339_10_36
// 045   ----------------------------------------
        BYTE   PATT
         POIN2  NuclearFusion_DrGreen3339_10_33
// 046   ----------------------------------------
        BYTE   PATT
         POIN2  NuclearFusion_DrGreen3339_10_34
// 047   ----------------------------------------
        BYTE   W12
        BYTE           N03    En1  v100
        BYTE           N03    As1  v120
        BYTE   W18
        BYTE                   Bn0  v127
        BYTE   W06
        BYTE                   Bn0
        BYTE   W12
        BYTE                   En1  v092
        BYTE           N03    As1  v112
        BYTE   W12
        BYTE                   En1  v092
        BYTE           N03    As1  v112
        BYTE   W12
        BYTE           N04    Bn0  v127
        BYTE   W04
        BYTE                   Bn0
        BYTE   W04
        BYTE                   Bn0
        BYTE   W04
        BYTE           N03
        BYTE   W06
        BYTE                   En1  v088
        BYTE           N03    As1  v108
        BYTE   W06
// 048   ----------------------------------------
        BYTE                   En1  v088
        BYTE           N03    As1  v108
        BYTE   W06
        BYTE                   En1  v088
        BYTE           N03    As1  v108
        BYTE   W06
        BYTE                   Bn0  v127
        BYTE   W84
// 049   ----------------------------------------
        BYTE   W96
// 050   ----------------------------------------
        BYTE   W96
// 051   ----------------------------------------
        BYTE   W96
// 052   ----------------------------------------
        BYTE                   En1  v100
        BYTE           N03    As1  v120
        BYTE   W12
        BYTE                   Bn0  v127
        BYTE   W06
        BYTE                   En1  v092
        BYTE           N03    As1  v112
        BYTE   W12
        BYTE                   En1  v092
        BYTE           N03    As1  v112
        BYTE   W06
        BYTE                   Bn0  v127
        BYTE   W18
        BYTE                   Bn0
        BYTE   W06
        BYTE                   En1  v092
        BYTE           N03    As1  v112
        BYTE   W12
        BYTE                   Bn0  v127
        BYTE   W12
        BYTE                   Bn0
        BYTE   W12
// 053   ----------------------------------------
NuclearFusion_DrGreen3339_10_53:
        BYTE   W12
        BYTE           N03    En1  v100
        BYTE           N03    As1  v120
        BYTE   W24
        BYTE                   Bn0  v127
        BYTE   W18
        BYTE                   Bn0
        BYTE   W06
        BYTE                   En1  v092
        BYTE           N03    As1  v112
        BYTE   W12
        BYTE                   Bn0  v127
        BYTE   W12
        BYTE                   Bn0
        BYTE   W12
        BYTE   PEND
// 054   ----------------------------------------
        BYTE   W12
        BYTE                   En1  v100
        BYTE           N03    As1  v120
        BYTE   W12
        BYTE                   Bn0  v127
        BYTE   W12
        BYTE                   Bn0
        BYTE   W18
        BYTE                   Bn0
        BYTE   W06
        BYTE                   En1  v092
        BYTE           N03    As1  v112
        BYTE   W12
        BYTE                   Bn0  v127
        BYTE   W12
        BYTE                   Bn0
        BYTE   W12
// 055   ----------------------------------------
        BYTE   PATT
         POIN2  NuclearFusion_DrGreen3339_10_53
// 056   ----------------------------------------
        BYTE   PATT
         POIN2  NuclearFusion_DrGreen3339_10_53
// 057   ----------------------------------------
        BYTE   W06
        BYTE           N03    Bn0  v127
        BYTE   W06
        BYTE                   En1  v100
        BYTE           N03    As1  v120
        BYTE   W12
        BYTE                   Bn0  v127
        BYTE   W12
        BYTE                   Bn0
        BYTE   W18
        BYTE                   Bn0
        BYTE   W06
        BYTE                   En1  v092
        BYTE           N03    As1  v112
        BYTE   W12
        BYTE                   Bn0  v127
        BYTE   W12
        BYTE                   Bn0
        BYTE   W06
        BYTE                   Bn0
        BYTE   W06
// 058   ----------------------------------------
        BYTE                   Bn0
        BYTE   W06
        BYTE                   Bn0
        BYTE   W06
        BYTE                   En1
        BYTE           N03    As1
        BYTE   W24
        BYTE   GoTo
         POIN2  NuclearFusion_DrGreen3339_10_LOOP
        BYTE   FINE


//********************** End of Song ***********************//

        ALIGN 4
NuclearFusion_DrGreen3339:
        BYTE   11                      // Num Tracks
        BYTE   0                       // Unknown
        BYTE   NuclearFusion_DrGreen3339_pri // Priority
        BYTE   NuclearFusion_DrGreen3339_rev // Reverb

        POIN2   NuclearFusion_DrGreen3339_grp

        POIN2   NuclearFusion_DrGreen3339_0
        POIN2   NuclearFusion_DrGreen3339_1
        POIN2   NuclearFusion_DrGreen3339_2
        POIN2   NuclearFusion_DrGreen3339_3
        POIN2   NuclearFusion_DrGreen3339_4
        POIN2   NuclearFusion_DrGreen3339_5
        POIN2   NuclearFusion_DrGreen3339_6
        POIN2   NuclearFusion_DrGreen3339_7
        POIN2   NuclearFusion_DrGreen3339_8
        POIN2   NuclearFusion_DrGreen3339_9
        POIN2   NuclearFusion_DrGreen3339_10

        
