//Generated with python s2ea
        #include "MPlayDef.event"

        #define    Redial_Sme_grp BCVoices
        #define    Redial_Sme_pri 0
        #define    Redial_Sme_rev 0
        #define    Redial_Sme_key 0

        // .rodata
        // Redial_Sme
        ALIGN 4

//****************** Track 0 (Midi-Chn.0) ******************//

Redial_Sme_0:
        BYTE   KEYSH  Redial_Sme_key+0
// 000   ----------------------------------------
        BYTE   TEMPO  154/2
        BYTE           VOICE  4
        BYTE           VOL    49
        BYTE   W96
// 001   ----------------------------------------
        BYTE   W96
// 002   ----------------------------------------
        BYTE   W96
// 003   ----------------------------------------
        BYTE   W96
// 004   ----------------------------------------
Redial_Sme_0_LOOP:
        BYTE   W01
        BYTE           N01    Ds3  v088
        BYTE           N11    En3  v092
        BYTE   W12
        BYTE                   Gn3  v096
        BYTE   W80
        BYTE   W03
// 005   ----------------------------------------
Redial_Sme_0_5:
        BYTE   W13
        BYTE           N01    Gs2  v088
        BYTE   W01
        BYTE           N10    An2
        BYTE   W13
        BYTE           N08    Cn3  v096
        BYTE   W10
        BYTE           N09    An2  v088
        BYTE   W12
        BYTE           N21    Cn3  v096
        BYTE   W24
        BYTE           N11    Dn3  v088
        BYTE   W13
        BYTE           N09    Cn3  v084
        BYTE   W10
        BYTE   PEND
// 006   ----------------------------------------
Redial_Sme_0_6:
        BYTE   W01
        BYTE           N01    Ds3  v088
        BYTE           N11    En3  v092
        BYTE   W12
        BYTE                   Gn3  v096
        BYTE   W80
        BYTE   W03
        BYTE   PEND
// 007   ----------------------------------------
        BYTE   PATT
         POIN2  Redial_Sme_0_5
// 008   ----------------------------------------
        BYTE   PATT
         POIN2  Redial_Sme_0_6
// 009   ----------------------------------------
        BYTE   PATT
         POIN2  Redial_Sme_0_5
// 010   ----------------------------------------
        BYTE   PATT
         POIN2  Redial_Sme_0_6
// 011   ----------------------------------------
        BYTE   W13
        BYTE           N01    Gs2  v088
        BYTE   W01
        BYTE           N10    An2
        BYTE   W13
        BYTE           N08    Cn3  v096
        BYTE   W10
        BYTE           N09    An2  v088
        BYTE   W12
        BYTE           N21    Cn3  v096
        BYTE   W24
        BYTE           N11    Dn3  v088
        BYTE   W23
// 012   ----------------------------------------
        BYTE   W96
// 013   ----------------------------------------
        BYTE   W96
// 014   ----------------------------------------
        BYTE   W96
// 015   ----------------------------------------
        BYTE   W96
// 016   ----------------------------------------
        BYTE   W96
// 017   ----------------------------------------
        BYTE   W96
// 018   ----------------------------------------
        BYTE   W96
// 019   ----------------------------------------
        BYTE   W96
// 020   ----------------------------------------
        BYTE   W96
// 021   ----------------------------------------
        BYTE   W96
// 022   ----------------------------------------
        BYTE   W96
// 023   ----------------------------------------
        BYTE   W96
// 024   ----------------------------------------
        BYTE   W96
// 025   ----------------------------------------
        BYTE   W96
// 026   ----------------------------------------
        BYTE   W96
// 027   ----------------------------------------
        BYTE   W96
// 028   ----------------------------------------
        BYTE   W96
// 029   ----------------------------------------
        BYTE   W96
// 030   ----------------------------------------
        BYTE   W96
// 031   ----------------------------------------
        BYTE   W96
// 032   ----------------------------------------
        BYTE   W96
// 033   ----------------------------------------
        BYTE   W96
// 034   ----------------------------------------
        BYTE   W96
// 035   ----------------------------------------
        BYTE   W96
// 036   ----------------------------------------
        BYTE   GoTo
         POIN2  Redial_Sme_0_LOOP
        BYTE   FINE

//****************** Track 1 (Midi-Chn.1) ******************//

Redial_Sme_1:
        BYTE   KEYSH  Redial_Sme_key+0
// 000   ----------------------------------------
        BYTE           VOICE  104
        BYTE           VOL    51
        BYTE   W96
// 001   ----------------------------------------
        BYTE   W96
// 002   ----------------------------------------
        BYTE   W96
// 003   ----------------------------------------
        BYTE   W96
// 004   ----------------------------------------
Redial_Sme_1_LOOP:
        BYTE   W01
        BYTE           N01    Ds3  v088
        BYTE           N11    En3  v092
        BYTE   W12
        BYTE                   Gn3  v096
        BYTE   W80
        BYTE   W03
// 005   ----------------------------------------
        BYTE   PATT
         POIN2  Redial_Sme_0_5
// 006   ----------------------------------------
        BYTE   PATT
         POIN2  Redial_Sme_0_6
// 007   ----------------------------------------
        BYTE   PATT
         POIN2  Redial_Sme_0_5
// 008   ----------------------------------------
        BYTE   PATT
         POIN2  Redial_Sme_0_6
// 009   ----------------------------------------
        BYTE   PATT
         POIN2  Redial_Sme_0_5
// 010   ----------------------------------------
        BYTE   PATT
         POIN2  Redial_Sme_0_6
// 011   ----------------------------------------
        BYTE   PATT
         POIN2  Redial_Sme_0_5
// 012   ----------------------------------------
Redial_Sme_1_12:
        BYTE   W01
        BYTE           N01    Ds4  v088
        BYTE           N11    En4  v092
        BYTE   W12
        BYTE                   Gn4  v096
        BYTE   W80
        BYTE   W03
        BYTE   PEND
// 013   ----------------------------------------
Redial_Sme_1_13:
        BYTE   W13
        BYTE           N01    Gs3  v088
        BYTE   W01
        BYTE           N10    An3
        BYTE   W13
        BYTE           N08    Cn4  v096
        BYTE   W10
        BYTE           N09    An3  v088
        BYTE   W12
        BYTE           N21    Cn4  v096
        BYTE   W24
        BYTE           N11    Dn4  v088
        BYTE   W13
        BYTE           N09    Cn4  v084
        BYTE   W10
        BYTE   PEND
// 014   ----------------------------------------
        BYTE   PATT
         POIN2  Redial_Sme_1_12
// 015   ----------------------------------------
        BYTE   PATT
         POIN2  Redial_Sme_1_13
// 016   ----------------------------------------
        BYTE   PATT
         POIN2  Redial_Sme_1_12
// 017   ----------------------------------------
        BYTE   PATT
         POIN2  Redial_Sme_1_13
// 018   ----------------------------------------
        BYTE   PATT
         POIN2  Redial_Sme_1_12
// 019   ----------------------------------------
        BYTE   PATT
         POIN2  Redial_Sme_1_13
// 020   ----------------------------------------
Redial_Sme_1_20:
        BYTE           N02    Ds3  v084
        BYTE   W02
        BYTE           N44    En3  v092
        BYTE   W44
        BYTE   W03
        BYTE           N22    Dn3  v084
        BYTE   W23
        BYTE           N24    An2  v096
        BYTE   W24
        BYTE   PEND
// 021   ----------------------------------------
        BYTE           N01    Ds3  v076
        BYTE   W02
        BYTE           N42    En3  v096
        BYTE   W44
        BYTE   W02
        BYTE           N24    Dn3  v092
        BYTE   W24
        BYTE   W01
        BYTE           N23    An2
        BYTE   W23
// 022   ----------------------------------------
Redial_Sme_1_22:
        BYTE           N02    Cs3  v068
        BYTE   W03
        BYTE           N44    Dn3  v096
        BYTE   W44
        BYTE   W02
        BYTE           N23    Cn3  v092
        BYTE   W23
        BYTE                   Gn2
        BYTE   W24
        BYTE   PEND
// 023   ----------------------------------------
Redial_Sme_1_23:
        BYTE           N02    Cs3  v080
        BYTE   W03
        BYTE           N44    Dn3  v096
        BYTE   W44
        BYTE   W01
        BYTE           N36    Cn3
        BYTE   W48
        BYTE   PEND
// 024   ----------------------------------------
Redial_Sme_1_24:
        BYTE   W02
        BYTE           N01    Cs3  v084
        BYTE   W01
        BYTE           N42    Dn3  v096
        BYTE   W44
        BYTE   W01
        BYTE           N22    Cn3  v088
        BYTE   W24
        BYTE           N23    Gn2  v092
        BYTE   W23
        BYTE           N04    Cs3  v076
        BYTE   W01
        BYTE   PEND
// 025   ----------------------------------------
Redial_Sme_1_25:
        BYTE   W03
        BYTE           N42    Dn3  v092
        BYTE   W44
        BYTE   W01
        BYTE           N20    Cn3  v084
        BYTE   W24
        BYTE           N23    As2
        BYTE   W23
        BYTE           N03    Gs2  v088
        BYTE   W01
        BYTE   PEND
// 026   ----------------------------------------
Redial_Sme_1_26:
        BYTE   W03
        BYTE           N44    An2  v088
        BYTE   W44
        BYTE   W01
        BYTE           N22    Gn2
        BYTE   W23
        BYTE           N03    An2  v080
        BYTE   W03
        BYTE           N24    As2  v096
        BYTE   W22
        BYTE   PEND
// 027   ----------------------------------------
Redial_Sme_1_27:
        BYTE   W04
        BYTE           N84    An2  v084
        BYTE   W92
        BYTE   PEND
// 028   ----------------------------------------
        BYTE   PATT
         POIN2  Redial_Sme_1_20
// 029   ----------------------------------------
        BYTE           N01    Ds3  v076
        BYTE   W02
        BYTE           N42    En3  v096
        BYTE   W44
        BYTE   W02
        BYTE           N24    Dn3  v092
        BYTE   W24
        BYTE   W01
        BYTE                   An2
        BYTE   W23
// 030   ----------------------------------------
        BYTE   PATT
         POIN2  Redial_Sme_1_22
// 031   ----------------------------------------
        BYTE   PATT
         POIN2  Redial_Sme_1_23
// 032   ----------------------------------------
        BYTE   PATT
         POIN2  Redial_Sme_1_24
// 033   ----------------------------------------
        BYTE   PATT
         POIN2  Redial_Sme_1_25
// 034   ----------------------------------------
        BYTE   PATT
         POIN2  Redial_Sme_1_26
// 035   ----------------------------------------
        BYTE   PATT
         POIN2  Redial_Sme_1_27
// 036   ----------------------------------------
        BYTE   GoTo
         POIN2  Redial_Sme_1_LOOP
        BYTE   FINE

//****************** Track 2 (Midi-Chn.2) ******************//

Redial_Sme_2:
        BYTE   KEYSH  Redial_Sme_key+0
// 000   ----------------------------------------
        BYTE           VOICE  103
        BYTE           VOL    20
        BYTE   W96
// 001   ----------------------------------------
        BYTE   W96
// 002   ----------------------------------------
        BYTE   W96
// 003   ----------------------------------------
        BYTE   W96
// 004   ----------------------------------------
Redial_Sme_2_LOOP:
        BYTE   W96
// 005   ----------------------------------------
        BYTE   W96
// 006   ----------------------------------------
        BYTE   W96
// 007   ----------------------------------------
        BYTE   W96
// 008   ----------------------------------------
        BYTE   W96
// 009   ----------------------------------------
        BYTE   W96
// 010   ----------------------------------------
        BYTE   W96
// 011   ----------------------------------------
        BYTE   W96
// 012   ----------------------------------------
        BYTE   W96
// 013   ----------------------------------------
        BYTE   W96
// 014   ----------------------------------------
        BYTE   W96
// 015   ----------------------------------------
        BYTE   W96
// 016   ----------------------------------------
        BYTE   W96
// 017   ----------------------------------------
        BYTE   W96
// 018   ----------------------------------------
        BYTE   W96
// 019   ----------------------------------------
        BYTE   W96
// 020   ----------------------------------------
Redial_Sme_2_20:
        BYTE           N48    En3  v127
        BYTE   W48
        BYTE           N24    Dn3
        BYTE   W24
        BYTE                   An2
        BYTE   W24
        BYTE   PEND
// 021   ----------------------------------------
        BYTE   PATT
         POIN2  Redial_Sme_2_20
// 022   ----------------------------------------
Redial_Sme_2_22:
        BYTE           N48    Dn3  v127
        BYTE   W48
        BYTE           N24    Cn3
        BYTE   W24
        BYTE                   Gn2
        BYTE   W24
        BYTE   PEND
// 023   ----------------------------------------
Redial_Sme_2_23:
        BYTE           N48    Dn3  v127
        BYTE   W48
        BYTE                   Cn3
        BYTE   W48
        BYTE   PEND
// 024   ----------------------------------------
        BYTE   PATT
         POIN2  Redial_Sme_2_22
// 025   ----------------------------------------
Redial_Sme_2_25:
        BYTE           N48    Dn3  v127
        BYTE   W48
        BYTE           N24    Cn3
        BYTE   W24
        BYTE                   As2
        BYTE   W24
        BYTE   PEND
// 026   ----------------------------------------
Redial_Sme_2_26:
        BYTE           N48    An2  v127
        BYTE   W48
        BYTE           N24    Gn2
        BYTE   W24
        BYTE                   As2
        BYTE   W24
        BYTE   PEND
// 027   ----------------------------------------
        BYTE           N96    An2
        BYTE   W96
// 028   ----------------------------------------
        BYTE   PATT
         POIN2  Redial_Sme_2_20
// 029   ----------------------------------------
        BYTE   PATT
         POIN2  Redial_Sme_2_20
// 030   ----------------------------------------
        BYTE   PATT
         POIN2  Redial_Sme_2_22
// 031   ----------------------------------------
        BYTE   PATT
         POIN2  Redial_Sme_2_23
// 032   ----------------------------------------
        BYTE   PATT
         POIN2  Redial_Sme_2_22
// 033   ----------------------------------------
        BYTE   PATT
         POIN2  Redial_Sme_2_25
// 034   ----------------------------------------
        BYTE   PATT
         POIN2  Redial_Sme_2_26
// 035   ----------------------------------------
        BYTE           N96    An2  v127
        BYTE   W96
// 036   ----------------------------------------
        BYTE   GoTo
         POIN2  Redial_Sme_2_LOOP
        BYTE   FINE

//****************** Track 3 (Midi-Chn.3) ******************//

Redial_Sme_3:
        BYTE   KEYSH  Redial_Sme_key+0
// 000   ----------------------------------------
        BYTE           VOICE  79
        BYTE           VOL    37
        BYTE   W96
// 001   ----------------------------------------
        BYTE   W96
// 002   ----------------------------------------
        BYTE   W96
// 003   ----------------------------------------
        BYTE   W96
// 004   ----------------------------------------
Redial_Sme_3_LOOP:
        BYTE   W96
// 005   ----------------------------------------
        BYTE   W96
// 006   ----------------------------------------
        BYTE   W96
// 007   ----------------------------------------
        BYTE   W96
// 008   ----------------------------------------
        BYTE   W96
// 009   ----------------------------------------
        BYTE   W96
// 010   ----------------------------------------
        BYTE   W96
// 011   ----------------------------------------
        BYTE   W96
// 012   ----------------------------------------
        BYTE   W96
// 013   ----------------------------------------
        BYTE   W96
// 014   ----------------------------------------
        BYTE   W96
// 015   ----------------------------------------
        BYTE   W96
// 016   ----------------------------------------
        BYTE   W96
// 017   ----------------------------------------
        BYTE   W96
// 018   ----------------------------------------
        BYTE   W96
// 019   ----------------------------------------
        BYTE   W96
// 020   ----------------------------------------
        BYTE   W96
// 021   ----------------------------------------
        BYTE   W96
// 022   ----------------------------------------
        BYTE   W96
// 023   ----------------------------------------
        BYTE   W96
// 024   ----------------------------------------
        BYTE   W96
// 025   ----------------------------------------
        BYTE   W96
// 026   ----------------------------------------
        BYTE   W96
// 027   ----------------------------------------
        BYTE   W96
// 028   ----------------------------------------
Redial_Sme_3_28:
        BYTE           N48    En5  v127
        BYTE   W48
        BYTE           N24    Dn5
        BYTE   W24
        BYTE                   An4
        BYTE   W24
        BYTE   PEND
// 029   ----------------------------------------
        BYTE   PATT
         POIN2  Redial_Sme_3_28
// 030   ----------------------------------------
Redial_Sme_3_30:
        BYTE           N48    Dn5  v127
        BYTE   W48
        BYTE           N24    Cn5
        BYTE   W24
        BYTE                   Gn4
        BYTE   W24
        BYTE   PEND
// 031   ----------------------------------------
        BYTE           N48    Dn5
        BYTE   W48
        BYTE                   Cn5
        BYTE   W48
// 032   ----------------------------------------
        BYTE   PATT
         POIN2  Redial_Sme_3_30
// 033   ----------------------------------------
        BYTE           N48    Dn5  v127
        BYTE   W48
        BYTE           N24    Cn5
        BYTE   W24
        BYTE                   As4
        BYTE   W24
// 034   ----------------------------------------
        BYTE           N48    An4
        BYTE   W48
        BYTE           N24    Gn4
        BYTE   W24
        BYTE                   As4
        BYTE   W24
// 035   ----------------------------------------
        BYTE           N96    An4
        BYTE   W96
// 036   ----------------------------------------
        BYTE   GoTo
         POIN2  Redial_Sme_3_LOOP
        BYTE   FINE

//****************** Track 4 (Midi-Chn.4) ******************//

Redial_Sme_4:
        BYTE   KEYSH  Redial_Sme_key+0
// 000   ----------------------------------------
        BYTE           VOICE  123
        BYTE           VOL    42
        BYTE           N24    Cn2  v127
        BYTE   W24
        BYTE           N12    Cs1
        BYTE   W12
        BYTE           N06    Fs1
        BYTE   W06
        BYTE                   Cs1
        BYTE   W06
        BYTE                   Fs1
        BYTE   W06
        BYTE                   Cs1
        BYTE   W06
        BYTE           N12    Cn2
        BYTE   W12
        BYTE                   Cs1
        BYTE   W24
// 001   ----------------------------------------
Redial_Sme_4_1:
        BYTE           N24    Cn2  v127
        BYTE   W24
        BYTE           N12    Cs1
        BYTE   W12
        BYTE           N06    Fs1
        BYTE   W06
        BYTE                   Cs1
        BYTE   W06
        BYTE                   Fs1
        BYTE   W06
        BYTE                   Cs1
        BYTE   W06
        BYTE           N12    Cn2
        BYTE   W12
        BYTE                   Cs1
        BYTE   W12
        BYTE           N06    Fs1
        BYTE   W06
        BYTE                   Cs1
        BYTE   W06
        BYTE   PEND
// 002   ----------------------------------------
        BYTE   PATT
         POIN2  Redial_Sme_4_1
// 003   ----------------------------------------
Redial_Sme_4_3:
        BYTE           N12    Cn2  v127
        BYTE   W12
        BYTE                   Cs1
        BYTE   W12
        BYTE           N06    Fs1
        BYTE   W06
        BYTE                   Cs1
        BYTE   W06
        BYTE           N12    Cn2
        BYTE   W12
        BYTE                   Cs1
        BYTE   W12
        BYTE           N06    Fs1
        BYTE   W06
        BYTE                   Cs1
        BYTE   W06
        BYTE           N12    Cn2
        BYTE   W12
        BYTE                   Cs1
        BYTE   W12
        BYTE   PEND
// 004   ----------------------------------------
Redial_Sme_4_LOOP:
        BYTE           N24    Cn2  v127
        BYTE   W24
        BYTE           N12    Cs1
        BYTE   W12
        BYTE           N06    Fs1
        BYTE   W06
        BYTE                   Cs1
        BYTE   W06
        BYTE                   Fs1
        BYTE   W06
        BYTE                   Cs1
        BYTE   W06
        BYTE           N12    Cn2
        BYTE   W12
        BYTE                   Cs1
        BYTE   W24
// 005   ----------------------------------------
        BYTE   PATT
         POIN2  Redial_Sme_4_1
// 006   ----------------------------------------
Redial_Sme_4_6:
        BYTE           N24    Cn2  v127
        BYTE   W24
        BYTE           N12    Cs1
        BYTE   W12
        BYTE           N06    Fs1
        BYTE   W06
        BYTE                   Cs1
        BYTE   W06
        BYTE                   Fs1
        BYTE   W06
        BYTE                   Cs1
        BYTE   W06
        BYTE           N12    Cn2
        BYTE   W12
        BYTE                   Cs1
        BYTE   W24
        BYTE   PEND
// 007   ----------------------------------------
        BYTE   PATT
         POIN2  Redial_Sme_4_1
// 008   ----------------------------------------
        BYTE   PATT
         POIN2  Redial_Sme_4_6
// 009   ----------------------------------------
        BYTE   PATT
         POIN2  Redial_Sme_4_1
// 010   ----------------------------------------
        BYTE   PATT
         POIN2  Redial_Sme_4_1
// 011   ----------------------------------------
        BYTE   PATT
         POIN2  Redial_Sme_4_3
// 012   ----------------------------------------
        BYTE   PATT
         POIN2  Redial_Sme_4_6
// 013   ----------------------------------------
        BYTE   PATT
         POIN2  Redial_Sme_4_1
// 014   ----------------------------------------
        BYTE   PATT
         POIN2  Redial_Sme_4_6
// 015   ----------------------------------------
        BYTE   PATT
         POIN2  Redial_Sme_4_1
// 016   ----------------------------------------
        BYTE   PATT
         POIN2  Redial_Sme_4_6
// 017   ----------------------------------------
        BYTE   PATT
         POIN2  Redial_Sme_4_1
// 018   ----------------------------------------
        BYTE   PATT
         POIN2  Redial_Sme_4_1
// 019   ----------------------------------------
        BYTE   PATT
         POIN2  Redial_Sme_4_3
// 020   ----------------------------------------
        BYTE   PATT
         POIN2  Redial_Sme_4_6
// 021   ----------------------------------------
        BYTE   PATT
         POIN2  Redial_Sme_4_1
// 022   ----------------------------------------
        BYTE   PATT
         POIN2  Redial_Sme_4_6
// 023   ----------------------------------------
        BYTE   PATT
         POIN2  Redial_Sme_4_1
// 024   ----------------------------------------
        BYTE   PATT
         POIN2  Redial_Sme_4_6
// 025   ----------------------------------------
        BYTE   PATT
         POIN2  Redial_Sme_4_1
// 026   ----------------------------------------
        BYTE   PATT
         POIN2  Redial_Sme_4_1
// 027   ----------------------------------------
        BYTE   PATT
         POIN2  Redial_Sme_4_3
// 028   ----------------------------------------
        BYTE   PATT
         POIN2  Redial_Sme_4_6
// 029   ----------------------------------------
        BYTE   PATT
         POIN2  Redial_Sme_4_1
// 030   ----------------------------------------
        BYTE   PATT
         POIN2  Redial_Sme_4_6
// 031   ----------------------------------------
        BYTE   PATT
         POIN2  Redial_Sme_4_1
// 032   ----------------------------------------
        BYTE   PATT
         POIN2  Redial_Sme_4_6
// 033   ----------------------------------------
        BYTE   PATT
         POIN2  Redial_Sme_4_1
// 034   ----------------------------------------
        BYTE   PATT
         POIN2  Redial_Sme_4_1
// 035   ----------------------------------------
        BYTE   PATT
         POIN2  Redial_Sme_4_3
// 036   ----------------------------------------
        BYTE   GoTo
         POIN2  Redial_Sme_4_LOOP
        BYTE   FINE

//****************** Track 5 (Midi-Chn.5) ******************//

Redial_Sme_5:
        BYTE   KEYSH  Redial_Sme_key+0
// 000   ----------------------------------------
        BYTE           VOICE  127
        BYTE           VOL    28
        BYTE           N12    Fs1  v127
        BYTE   W12
        BYTE                   Fs1
        BYTE   W12
        BYTE                   Fs1
        BYTE   W12
        BYTE                   Fs1
        BYTE   W12
        BYTE                   Fs1
        BYTE   W12
        BYTE                   Fs1
        BYTE   W12
        BYTE                   Fs1
        BYTE   W12
        BYTE                   Fs1
        BYTE   W12
// 001   ----------------------------------------
Redial_Sme_5_1:
        BYTE           N12    Fs1  v127
        BYTE   W12
        BYTE                   Fs1
        BYTE   W12
        BYTE                   Fs1
        BYTE   W12
        BYTE                   Fs1
        BYTE   W12
        BYTE                   Fs1
        BYTE   W12
        BYTE                   Fs1
        BYTE   W12
        BYTE                   Fs1
        BYTE   W12
        BYTE                   Fs1
        BYTE   W12
        BYTE   PEND
// 002   ----------------------------------------
        BYTE   PATT
         POIN2  Redial_Sme_5_1
// 003   ----------------------------------------
        BYTE   PATT
         POIN2  Redial_Sme_5_1
// 004   ----------------------------------------
Redial_Sme_5_LOOP:
        BYTE           N12    Fs1  v127
        BYTE   W12
        BYTE                   Fs1
        BYTE   W12
        BYTE                   Fs1
        BYTE   W12
        BYTE                   Fs1
        BYTE   W12
        BYTE                   Fs1
        BYTE   W12
        BYTE                   Fs1
        BYTE   W12
        BYTE                   Fs1
        BYTE   W12
        BYTE                   Fs1
        BYTE   W12
// 005   ----------------------------------------
        BYTE   PATT
         POIN2  Redial_Sme_5_1
// 006   ----------------------------------------
        BYTE   PATT
         POIN2  Redial_Sme_5_1
// 007   ----------------------------------------
        BYTE   PATT
         POIN2  Redial_Sme_5_1
// 008   ----------------------------------------
        BYTE   PATT
         POIN2  Redial_Sme_5_1
// 009   ----------------------------------------
        BYTE   PATT
         POIN2  Redial_Sme_5_1
// 010   ----------------------------------------
        BYTE   PATT
         POIN2  Redial_Sme_5_1
// 011   ----------------------------------------
        BYTE   PATT
         POIN2  Redial_Sme_5_1
// 012   ----------------------------------------
        BYTE   PATT
         POIN2  Redial_Sme_5_1
// 013   ----------------------------------------
        BYTE   PATT
         POIN2  Redial_Sme_5_1
// 014   ----------------------------------------
        BYTE   PATT
         POIN2  Redial_Sme_5_1
// 015   ----------------------------------------
        BYTE   PATT
         POIN2  Redial_Sme_5_1
// 016   ----------------------------------------
        BYTE   PATT
         POIN2  Redial_Sme_5_1
// 017   ----------------------------------------
        BYTE   PATT
         POIN2  Redial_Sme_5_1
// 018   ----------------------------------------
        BYTE   PATT
         POIN2  Redial_Sme_5_1
// 019   ----------------------------------------
        BYTE   PATT
         POIN2  Redial_Sme_5_1
// 020   ----------------------------------------
        BYTE   PATT
         POIN2  Redial_Sme_5_1
// 021   ----------------------------------------
        BYTE   PATT
         POIN2  Redial_Sme_5_1
// 022   ----------------------------------------
        BYTE   PATT
         POIN2  Redial_Sme_5_1
// 023   ----------------------------------------
        BYTE   PATT
         POIN2  Redial_Sme_5_1
// 024   ----------------------------------------
        BYTE   PATT
         POIN2  Redial_Sme_5_1
// 025   ----------------------------------------
        BYTE   PATT
         POIN2  Redial_Sme_5_1
// 026   ----------------------------------------
        BYTE   PATT
         POIN2  Redial_Sme_5_1
// 027   ----------------------------------------
        BYTE   PATT
         POIN2  Redial_Sme_5_1
// 028   ----------------------------------------
        BYTE   PATT
         POIN2  Redial_Sme_5_1
// 029   ----------------------------------------
        BYTE   PATT
         POIN2  Redial_Sme_5_1
// 030   ----------------------------------------
        BYTE   PATT
         POIN2  Redial_Sme_5_1
// 031   ----------------------------------------
        BYTE   PATT
         POIN2  Redial_Sme_5_1
// 032   ----------------------------------------
        BYTE   PATT
         POIN2  Redial_Sme_5_1
// 033   ----------------------------------------
        BYTE   PATT
         POIN2  Redial_Sme_5_1
// 034   ----------------------------------------
        BYTE   PATT
         POIN2  Redial_Sme_5_1
// 035   ----------------------------------------
        BYTE   PATT
         POIN2  Redial_Sme_5_1
// 036   ----------------------------------------
        BYTE   GoTo
         POIN2  Redial_Sme_5_LOOP
        BYTE   FINE

//****************** Track 6 (Midi-Chn.6) ******************//

Redial_Sme_6:
        BYTE   KEYSH  Redial_Sme_key+0
// 000   ----------------------------------------
        BYTE           VOICE  40
        BYTE           VOL    30
        BYTE   W96
// 001   ----------------------------------------
        BYTE   W96
// 002   ----------------------------------------
        BYTE   W96
// 003   ----------------------------------------
        BYTE   W96
// 004   ----------------------------------------
Redial_Sme_6_LOOP:
        BYTE           N92    Fn2  v080
        BYTE           N92    An2  v088
        BYTE   W01
        BYTE                   Cn3  v084
        BYTE   W01
        BYTE                   En3
        BYTE   W92
        BYTE   W02
// 005   ----------------------------------------
Redial_Sme_6_5:
        BYTE           N42    Dn2  v084
        BYTE   W01
        BYTE           N44    Fn2
        BYTE           N44    An2  v088
        BYTE   W01
        BYTE                   Cn3  v084
        BYTE   W44
        BYTE   W03
        BYTE                   En2  v076
        BYTE   W01
        BYTE                   Gn2  v084
        BYTE   W01
        BYTE           N42    Bn2  v088
        BYTE   W01
        BYTE                   Dn3  v084
        BYTE   W44
        BYTE   PEND
// 006   ----------------------------------------
Redial_Sme_6_6:
        BYTE           N92    Fn2  v080
        BYTE           N92    An2  v088
        BYTE   W01
        BYTE                   Cn3  v084
        BYTE   W01
        BYTE                   En3
        BYTE   W92
        BYTE   W02
        BYTE   PEND
// 007   ----------------------------------------
        BYTE   PATT
         POIN2  Redial_Sme_6_5
// 008   ----------------------------------------
        BYTE   PATT
         POIN2  Redial_Sme_6_6
// 009   ----------------------------------------
        BYTE   PATT
         POIN2  Redial_Sme_6_5
// 010   ----------------------------------------
        BYTE   PATT
         POIN2  Redial_Sme_6_6
// 011   ----------------------------------------
        BYTE   PATT
         POIN2  Redial_Sme_6_5
// 012   ----------------------------------------
        BYTE   PATT
         POIN2  Redial_Sme_6_6
// 013   ----------------------------------------
        BYTE   PATT
         POIN2  Redial_Sme_6_5
// 014   ----------------------------------------
        BYTE   PATT
         POIN2  Redial_Sme_6_6
// 015   ----------------------------------------
        BYTE   PATT
         POIN2  Redial_Sme_6_5
// 016   ----------------------------------------
        BYTE   PATT
         POIN2  Redial_Sme_6_6
// 017   ----------------------------------------
        BYTE   PATT
         POIN2  Redial_Sme_6_5
// 018   ----------------------------------------
        BYTE   PATT
         POIN2  Redial_Sme_6_6
// 019   ----------------------------------------
        BYTE   PATT
         POIN2  Redial_Sme_6_5
// 020   ----------------------------------------
        BYTE   W96
// 021   ----------------------------------------
        BYTE   W96
// 022   ----------------------------------------
        BYTE   W96
// 023   ----------------------------------------
        BYTE   W96
// 024   ----------------------------------------
        BYTE   W96
// 025   ----------------------------------------
        BYTE   W96
// 026   ----------------------------------------
        BYTE   W96
// 027   ----------------------------------------
        BYTE   W96
// 028   ----------------------------------------
        BYTE   W96
// 029   ----------------------------------------
        BYTE   W96
// 030   ----------------------------------------
        BYTE   W96
// 031   ----------------------------------------
        BYTE   W96
// 032   ----------------------------------------
        BYTE   W96
// 033   ----------------------------------------
        BYTE   W96
// 034   ----------------------------------------
        BYTE   W96
// 035   ----------------------------------------
        BYTE   W96
// 036   ----------------------------------------
        BYTE   GoTo
         POIN2  Redial_Sme_6_LOOP
        BYTE   FINE

//****************** Track 7 (Midi-Chn.7) ******************//

Redial_Sme_7:
        BYTE   KEYSH  Redial_Sme_key+0
// 000   ----------------------------------------
        BYTE           VOICE  34
        BYTE           VOL    35
        BYTE   W96
// 001   ----------------------------------------
        BYTE   W96
// 002   ----------------------------------------
        BYTE   W96
// 003   ----------------------------------------
        BYTE   W96
// 004   ----------------------------------------
Redial_Sme_7_LOOP:
        BYTE           N11    Cn2  v096
        BYTE   W12
        BYTE                   Fn2
        BYTE   W24
        BYTE                   Cn2
        BYTE   W12
        BYTE           N23    Fn2
        BYTE   W24
        BYTE           N32    Cn2
        BYTE   W24
// 005   ----------------------------------------
Redial_Sme_7_5:
        BYTE   W12
        BYTE           N07    Fn2  v096
        BYTE   W24
        BYTE           N11    Dn2
        BYTE   W12
        BYTE           N22    Fn2
        BYTE   W24
        BYTE   W03
        BYTE           N20    Gn1  v120
        BYTE   W21
        BYTE   PEND
// 006   ----------------------------------------
Redial_Sme_7_6:
        BYTE           N11    Cn2  v096
        BYTE   W12
        BYTE                   Fn2
        BYTE   W24
        BYTE                   Cn2
        BYTE   W12
        BYTE           N23    Fn2
        BYTE   W24
        BYTE           N32    Cn2
        BYTE   W24
        BYTE   PEND
// 007   ----------------------------------------
        BYTE   PATT
         POIN2  Redial_Sme_7_5
// 008   ----------------------------------------
        BYTE   PATT
         POIN2  Redial_Sme_7_6
// 009   ----------------------------------------
        BYTE   PATT
         POIN2  Redial_Sme_7_5
// 010   ----------------------------------------
        BYTE   PATT
         POIN2  Redial_Sme_7_6
// 011   ----------------------------------------
        BYTE   PATT
         POIN2  Redial_Sme_7_5
// 012   ----------------------------------------
        BYTE   PATT
         POIN2  Redial_Sme_7_6
// 013   ----------------------------------------
        BYTE   PATT
         POIN2  Redial_Sme_7_5
// 014   ----------------------------------------
        BYTE   PATT
         POIN2  Redial_Sme_7_6
// 015   ----------------------------------------
        BYTE   PATT
         POIN2  Redial_Sme_7_5
// 016   ----------------------------------------
        BYTE   PATT
         POIN2  Redial_Sme_7_6
// 017   ----------------------------------------
        BYTE   PATT
         POIN2  Redial_Sme_7_5
// 018   ----------------------------------------
        BYTE   PATT
         POIN2  Redial_Sme_7_6
// 019   ----------------------------------------
        BYTE   PATT
         POIN2  Redial_Sme_7_5
// 020   ----------------------------------------
        BYTE   W96
// 021   ----------------------------------------
        BYTE   W96
// 022   ----------------------------------------
        BYTE   W96
// 023   ----------------------------------------
        BYTE   W96
// 024   ----------------------------------------
        BYTE   W96
// 025   ----------------------------------------
        BYTE   W96
// 026   ----------------------------------------
        BYTE   W96
// 027   ----------------------------------------
        BYTE   W96
// 028   ----------------------------------------
        BYTE   W96
// 029   ----------------------------------------
        BYTE   W96
// 030   ----------------------------------------
        BYTE   W96
// 031   ----------------------------------------
        BYTE   W96
// 032   ----------------------------------------
        BYTE   W96
// 033   ----------------------------------------
        BYTE   W96
// 034   ----------------------------------------
        BYTE   W96
// 035   ----------------------------------------
        BYTE   W96
// 036   ----------------------------------------
        BYTE   GoTo
         POIN2  Redial_Sme_7_LOOP
        BYTE   FINE

//****************** Track 8 (Midi-Chn.8) ******************//

Redial_Sme_8:
        BYTE   KEYSH  Redial_Sme_key+0
// 000   ----------------------------------------
        BYTE           VOICE  60
        BYTE           VOL    40
        BYTE   W96
// 001   ----------------------------------------
        BYTE   W96
// 002   ----------------------------------------
        BYTE   W96
// 003   ----------------------------------------
        BYTE   W96
// 004   ----------------------------------------
Redial_Sme_8_LOOP:
        BYTE   W96
// 005   ----------------------------------------
        BYTE   W96
// 006   ----------------------------------------
        BYTE   W96
// 007   ----------------------------------------
        BYTE   W96
// 008   ----------------------------------------
        BYTE   W96
// 009   ----------------------------------------
        BYTE   W96
// 010   ----------------------------------------
        BYTE   W96
// 011   ----------------------------------------
        BYTE   W96
// 012   ----------------------------------------
        BYTE   W96
// 013   ----------------------------------------
        BYTE   W96
// 014   ----------------------------------------
        BYTE   W96
// 015   ----------------------------------------
        BYTE   W96
// 016   ----------------------------------------
        BYTE   W96
// 017   ----------------------------------------
        BYTE   W96
// 018   ----------------------------------------
        BYTE   W96
// 019   ----------------------------------------
        BYTE   W96
// 020   ----------------------------------------
        BYTE           TIE    An2  v088
        BYTE   W96
// 021   ----------------------------------------
        BYTE   W92
        BYTE   W03
        BYTE           EOT
        BYTE   W01
// 022   ----------------------------------------
        BYTE           TIE    Gn2  v092
        BYTE   W96
// 023   ----------------------------------------
        BYTE   W92
        BYTE   W03
        BYTE           EOT
        BYTE   W01
// 024   ----------------------------------------
        BYTE           TIE
        BYTE   W96
// 025   ----------------------------------------
        BYTE   W92
        BYTE   W03
        BYTE           EOT
        BYTE   W01
// 026   ----------------------------------------
        BYTE           N92    As2
        BYTE   W96
// 027   ----------------------------------------
        BYTE                   An2  v084
        BYTE   W96
// 028   ----------------------------------------
        BYTE           TIE    An2  v088
        BYTE   W96
// 029   ----------------------------------------
        BYTE   W92
        BYTE   W03
        BYTE           EOT
        BYTE   W01
// 030   ----------------------------------------
        BYTE           TIE    Gn2  v092
        BYTE   W96
// 031   ----------------------------------------
        BYTE   W92
        BYTE   W03
        BYTE           EOT
        BYTE   W01
// 032   ----------------------------------------
        BYTE           TIE
        BYTE   W96
// 033   ----------------------------------------
        BYTE   W92
        BYTE   W03
        BYTE           EOT
        BYTE   W01
// 034   ----------------------------------------
        BYTE           N92    As2  v076
        BYTE   W96
// 035   ----------------------------------------
        BYTE                   An2  v084
        BYTE   W96
// 036   ----------------------------------------
        BYTE   GoTo
         POIN2  Redial_Sme_8_LOOP
        BYTE   FINE


//********************** End of Song ***********************//

        ALIGN 4
Redial_Sme:
        BYTE   9                       // Num Tracks
        BYTE   0                       // Unknown
        BYTE   Redial_Sme_pri          // Priority
        BYTE   Redial_Sme_rev          // Reverb

        POIN2   Redial_Sme_grp         

        POIN2   Redial_Sme_0
        POIN2   Redial_Sme_1
        POIN2   Redial_Sme_2
        POIN2   Redial_Sme_3
        POIN2   Redial_Sme_4
        POIN2   Redial_Sme_5
        POIN2   Redial_Sme_6
        POIN2   Redial_Sme_7
        POIN2   Redial_Sme_8

        
