        .include "MPlayDef.s"

        .equ    Redial_Sme_grp, BCVoices
        .equ    Redial_Sme_pri, 0
        .equ    Redial_Sme_rev, 0
        .equ    Redial_Sme_key, 0

        .section .rodata
        .global Redial_Sme
        .align  2

@****************** Track 0 (Midi-Chn.0) ******************@

Redial_Sme_0:
        .byte   KEYSH , Redial_Sme_key+0
@ 000   ----------------------------------------
        .byte   TEMPO , 154/2
        .byte           VOICE , 4
        .byte           VOL   , 49
        .byte   W96
@ 001   ----------------------------------------
        .byte   W96
@ 002   ----------------------------------------
        .byte   W96
@ 003   ----------------------------------------
        .byte   W96
@ 004   ----------------------------------------
Redial_Sme_0_LOOP:
        .byte   W01
        .byte           N01   , Ds3 , v088
        .byte           N11   , En3 , v092
        .byte   W12
        .byte                   Gn3 , v096
        .byte   W80
        .byte   W03
@ 005   ----------------------------------------
Redial_Sme_0_5:
        .byte   W13
        .byte           N01   , Gs2 , v088
        .byte   W01
        .byte           N10   , An2
        .byte   W13
        .byte           N08   , Cn3 , v096
        .byte   W10
        .byte           N09   , An2 , v088
        .byte   W12
        .byte           N21   , Cn3 , v096
        .byte   W24
        .byte           N11   , Dn3 , v088
        .byte   W13
        .byte           N09   , Cn3 , v084
        .byte   W10
        .byte   PEND
@ 006   ----------------------------------------
Redial_Sme_0_6:
        .byte   W01
        .byte           N01   , Ds3 , v088
        .byte           N11   , En3 , v092
        .byte   W12
        .byte                   Gn3 , v096
        .byte   W80
        .byte   W03
        .byte   PEND
@ 007   ----------------------------------------
        .byte   PATT
         .word  Redial_Sme_0_5
@ 008   ----------------------------------------
        .byte   PATT
         .word  Redial_Sme_0_6
@ 009   ----------------------------------------
        .byte   PATT
         .word  Redial_Sme_0_5
@ 010   ----------------------------------------
        .byte   PATT
         .word  Redial_Sme_0_6
@ 011   ----------------------------------------
        .byte   W13
        .byte           N01   , Gs2 , v088
        .byte   W01
        .byte           N10   , An2
        .byte   W13
        .byte           N08   , Cn3 , v096
        .byte   W10
        .byte           N09   , An2 , v088
        .byte   W12
        .byte           N21   , Cn3 , v096
        .byte   W24
        .byte           N11   , Dn3 , v088
        .byte   W23
@ 012   ----------------------------------------
        .byte   W96
@ 013   ----------------------------------------
        .byte   W96
@ 014   ----------------------------------------
        .byte   W96
@ 015   ----------------------------------------
        .byte   W96
@ 016   ----------------------------------------
        .byte   W96
@ 017   ----------------------------------------
        .byte   W96
@ 018   ----------------------------------------
        .byte   W96
@ 019   ----------------------------------------
        .byte   W96
@ 020   ----------------------------------------
        .byte   W96
@ 021   ----------------------------------------
        .byte   W96
@ 022   ----------------------------------------
        .byte   W96
@ 023   ----------------------------------------
        .byte   W96
@ 024   ----------------------------------------
        .byte   W96
@ 025   ----------------------------------------
        .byte   W96
@ 026   ----------------------------------------
        .byte   W96
@ 027   ----------------------------------------
        .byte   W96
@ 028   ----------------------------------------
        .byte   W96
@ 029   ----------------------------------------
        .byte   W96
@ 030   ----------------------------------------
        .byte   W96
@ 031   ----------------------------------------
        .byte   W96
@ 032   ----------------------------------------
        .byte   W96
@ 033   ----------------------------------------
        .byte   W96
@ 034   ----------------------------------------
        .byte   W96
@ 035   ----------------------------------------
        .byte   W96
@ 036   ----------------------------------------
        .byte   GOTO
         .word  Redial_Sme_0_LOOP
        .byte   FINE

@****************** Track 1 (Midi-Chn.1) ******************@

Redial_Sme_1:
        .byte   KEYSH , Redial_Sme_key+0
@ 000   ----------------------------------------
        .byte           VOICE , 104
        .byte           VOL   , 51
        .byte   W96
@ 001   ----------------------------------------
        .byte   W96
@ 002   ----------------------------------------
        .byte   W96
@ 003   ----------------------------------------
        .byte   W96
@ 004   ----------------------------------------
Redial_Sme_1_LOOP:
        .byte   W01
        .byte           N01   , Ds3 , v088
        .byte           N11   , En3 , v092
        .byte   W12
        .byte                   Gn3 , v096
        .byte   W80
        .byte   W03
@ 005   ----------------------------------------
        .byte   PATT
         .word  Redial_Sme_0_5
@ 006   ----------------------------------------
        .byte   PATT
         .word  Redial_Sme_0_6
@ 007   ----------------------------------------
        .byte   PATT
         .word  Redial_Sme_0_5
@ 008   ----------------------------------------
        .byte   PATT
         .word  Redial_Sme_0_6
@ 009   ----------------------------------------
        .byte   PATT
         .word  Redial_Sme_0_5
@ 010   ----------------------------------------
        .byte   PATT
         .word  Redial_Sme_0_6
@ 011   ----------------------------------------
        .byte   PATT
         .word  Redial_Sme_0_5
@ 012   ----------------------------------------
Redial_Sme_1_12:
        .byte   W01
        .byte           N01   , Ds4 , v088
        .byte           N11   , En4 , v092
        .byte   W12
        .byte                   Gn4 , v096
        .byte   W80
        .byte   W03
        .byte   PEND
@ 013   ----------------------------------------
Redial_Sme_1_13:
        .byte   W13
        .byte           N01   , Gs3 , v088
        .byte   W01
        .byte           N10   , An3
        .byte   W13
        .byte           N08   , Cn4 , v096
        .byte   W10
        .byte           N09   , An3 , v088
        .byte   W12
        .byte           N21   , Cn4 , v096
        .byte   W24
        .byte           N11   , Dn4 , v088
        .byte   W13
        .byte           N09   , Cn4 , v084
        .byte   W10
        .byte   PEND
@ 014   ----------------------------------------
        .byte   PATT
         .word  Redial_Sme_1_12
@ 015   ----------------------------------------
        .byte   PATT
         .word  Redial_Sme_1_13
@ 016   ----------------------------------------
        .byte   PATT
         .word  Redial_Sme_1_12
@ 017   ----------------------------------------
        .byte   PATT
         .word  Redial_Sme_1_13
@ 018   ----------------------------------------
        .byte   PATT
         .word  Redial_Sme_1_12
@ 019   ----------------------------------------
        .byte   PATT
         .word  Redial_Sme_1_13
@ 020   ----------------------------------------
Redial_Sme_1_20:
        .byte           N02   , Ds3 , v084
        .byte   W02
        .byte           N44   , En3 , v092
        .byte   W44
        .byte   W03
        .byte           N22   , Dn3 , v084
        .byte   W23
        .byte           N24   , An2 , v096
        .byte   W24
        .byte   PEND
@ 021   ----------------------------------------
        .byte           N01   , Ds3 , v076
        .byte   W02
        .byte           N42   , En3 , v096
        .byte   W44
        .byte   W02
        .byte           N24   , Dn3 , v092
        .byte   W24
        .byte   W01
        .byte           N23   , An2
        .byte   W23
@ 022   ----------------------------------------
Redial_Sme_1_22:
        .byte           N02   , Cs3 , v068
        .byte   W03
        .byte           N44   , Dn3 , v096
        .byte   W44
        .byte   W02
        .byte           N23   , Cn3 , v092
        .byte   W23
        .byte                   Gn2
        .byte   W24
        .byte   PEND
@ 023   ----------------------------------------
Redial_Sme_1_23:
        .byte           N02   , Cs3 , v080
        .byte   W03
        .byte           N44   , Dn3 , v096
        .byte   W44
        .byte   W01
        .byte           N36   , Cn3
        .byte   W48
        .byte   PEND
@ 024   ----------------------------------------
Redial_Sme_1_24:
        .byte   W02
        .byte           N01   , Cs3 , v084
        .byte   W01
        .byte           N42   , Dn3 , v096
        .byte   W44
        .byte   W01
        .byte           N22   , Cn3 , v088
        .byte   W24
        .byte           N23   , Gn2 , v092
        .byte   W23
        .byte           N04   , Cs3 , v076
        .byte   W01
        .byte   PEND
@ 025   ----------------------------------------
Redial_Sme_1_25:
        .byte   W03
        .byte           N42   , Dn3 , v092
        .byte   W44
        .byte   W01
        .byte           N20   , Cn3 , v084
        .byte   W24
        .byte           N23   , As2
        .byte   W23
        .byte           N03   , Gs2 , v088
        .byte   W01
        .byte   PEND
@ 026   ----------------------------------------
Redial_Sme_1_26:
        .byte   W03
        .byte           N44   , An2 , v088
        .byte   W44
        .byte   W01
        .byte           N22   , Gn2
        .byte   W23
        .byte           N03   , An2 , v080
        .byte   W03
        .byte           N24   , As2 , v096
        .byte   W22
        .byte   PEND
@ 027   ----------------------------------------
Redial_Sme_1_27:
        .byte   W04
        .byte           N84   , An2 , v084
        .byte   W92
        .byte   PEND
@ 028   ----------------------------------------
        .byte   PATT
         .word  Redial_Sme_1_20
@ 029   ----------------------------------------
        .byte           N01   , Ds3 , v076
        .byte   W02
        .byte           N42   , En3 , v096
        .byte   W44
        .byte   W02
        .byte           N24   , Dn3 , v092
        .byte   W24
        .byte   W01
        .byte                   An2
        .byte   W23
@ 030   ----------------------------------------
        .byte   PATT
         .word  Redial_Sme_1_22
@ 031   ----------------------------------------
        .byte   PATT
         .word  Redial_Sme_1_23
@ 032   ----------------------------------------
        .byte   PATT
         .word  Redial_Sme_1_24
@ 033   ----------------------------------------
        .byte   PATT
         .word  Redial_Sme_1_25
@ 034   ----------------------------------------
        .byte   PATT
         .word  Redial_Sme_1_26
@ 035   ----------------------------------------
        .byte   PATT
         .word  Redial_Sme_1_27
@ 036   ----------------------------------------
        .byte   GOTO
         .word  Redial_Sme_1_LOOP
        .byte   FINE

@****************** Track 2 (Midi-Chn.2) ******************@

Redial_Sme_2:
        .byte   KEYSH , Redial_Sme_key+0
@ 000   ----------------------------------------
        .byte           VOICE , 103
        .byte           VOL   , 20
        .byte   W96
@ 001   ----------------------------------------
        .byte   W96
@ 002   ----------------------------------------
        .byte   W96
@ 003   ----------------------------------------
        .byte   W96
@ 004   ----------------------------------------
Redial_Sme_2_LOOP:
        .byte   W96
@ 005   ----------------------------------------
        .byte   W96
@ 006   ----------------------------------------
        .byte   W96
@ 007   ----------------------------------------
        .byte   W96
@ 008   ----------------------------------------
        .byte   W96
@ 009   ----------------------------------------
        .byte   W96
@ 010   ----------------------------------------
        .byte   W96
@ 011   ----------------------------------------
        .byte   W96
@ 012   ----------------------------------------
        .byte   W96
@ 013   ----------------------------------------
        .byte   W96
@ 014   ----------------------------------------
        .byte   W96
@ 015   ----------------------------------------
        .byte   W96
@ 016   ----------------------------------------
        .byte   W96
@ 017   ----------------------------------------
        .byte   W96
@ 018   ----------------------------------------
        .byte   W96
@ 019   ----------------------------------------
        .byte   W96
@ 020   ----------------------------------------
Redial_Sme_2_20:
        .byte           N48   , En3 , v127
        .byte   W48
        .byte           N24   , Dn3
        .byte   W24
        .byte                   An2
        .byte   W24
        .byte   PEND
@ 021   ----------------------------------------
        .byte   PATT
         .word  Redial_Sme_2_20
@ 022   ----------------------------------------
Redial_Sme_2_22:
        .byte           N48   , Dn3 , v127
        .byte   W48
        .byte           N24   , Cn3
        .byte   W24
        .byte                   Gn2
        .byte   W24
        .byte   PEND
@ 023   ----------------------------------------
Redial_Sme_2_23:
        .byte           N48   , Dn3 , v127
        .byte   W48
        .byte                   Cn3
        .byte   W48
        .byte   PEND
@ 024   ----------------------------------------
        .byte   PATT
         .word  Redial_Sme_2_22
@ 025   ----------------------------------------
Redial_Sme_2_25:
        .byte           N48   , Dn3 , v127
        .byte   W48
        .byte           N24   , Cn3
        .byte   W24
        .byte                   As2
        .byte   W24
        .byte   PEND
@ 026   ----------------------------------------
Redial_Sme_2_26:
        .byte           N48   , An2 , v127
        .byte   W48
        .byte           N24   , Gn2
        .byte   W24
        .byte                   As2
        .byte   W24
        .byte   PEND
@ 027   ----------------------------------------
        .byte           N96   , An2
        .byte   W96
@ 028   ----------------------------------------
        .byte   PATT
         .word  Redial_Sme_2_20
@ 029   ----------------------------------------
        .byte   PATT
         .word  Redial_Sme_2_20
@ 030   ----------------------------------------
        .byte   PATT
         .word  Redial_Sme_2_22
@ 031   ----------------------------------------
        .byte   PATT
         .word  Redial_Sme_2_23
@ 032   ----------------------------------------
        .byte   PATT
         .word  Redial_Sme_2_22
@ 033   ----------------------------------------
        .byte   PATT
         .word  Redial_Sme_2_25
@ 034   ----------------------------------------
        .byte   PATT
         .word  Redial_Sme_2_26
@ 035   ----------------------------------------
        .byte           N96   , An2 , v127
        .byte   W96
@ 036   ----------------------------------------
        .byte   GOTO
         .word  Redial_Sme_2_LOOP
        .byte   FINE

@****************** Track 3 (Midi-Chn.3) ******************@

Redial_Sme_3:
        .byte   KEYSH , Redial_Sme_key+0
@ 000   ----------------------------------------
        .byte           VOICE , 79
        .byte           VOL   , 37
        .byte   W96
@ 001   ----------------------------------------
        .byte   W96
@ 002   ----------------------------------------
        .byte   W96
@ 003   ----------------------------------------
        .byte   W96
@ 004   ----------------------------------------
Redial_Sme_3_LOOP:
        .byte   W96
@ 005   ----------------------------------------
        .byte   W96
@ 006   ----------------------------------------
        .byte   W96
@ 007   ----------------------------------------
        .byte   W96
@ 008   ----------------------------------------
        .byte   W96
@ 009   ----------------------------------------
        .byte   W96
@ 010   ----------------------------------------
        .byte   W96
@ 011   ----------------------------------------
        .byte   W96
@ 012   ----------------------------------------
        .byte   W96
@ 013   ----------------------------------------
        .byte   W96
@ 014   ----------------------------------------
        .byte   W96
@ 015   ----------------------------------------
        .byte   W96
@ 016   ----------------------------------------
        .byte   W96
@ 017   ----------------------------------------
        .byte   W96
@ 018   ----------------------------------------
        .byte   W96
@ 019   ----------------------------------------
        .byte   W96
@ 020   ----------------------------------------
        .byte   W96
@ 021   ----------------------------------------
        .byte   W96
@ 022   ----------------------------------------
        .byte   W96
@ 023   ----------------------------------------
        .byte   W96
@ 024   ----------------------------------------
        .byte   W96
@ 025   ----------------------------------------
        .byte   W96
@ 026   ----------------------------------------
        .byte   W96
@ 027   ----------------------------------------
        .byte   W96
@ 028   ----------------------------------------
Redial_Sme_3_28:
        .byte           N48   , En5 , v127
        .byte   W48
        .byte           N24   , Dn5
        .byte   W24
        .byte                   An4
        .byte   W24
        .byte   PEND
@ 029   ----------------------------------------
        .byte   PATT
         .word  Redial_Sme_3_28
@ 030   ----------------------------------------
Redial_Sme_3_30:
        .byte           N48   , Dn5 , v127
        .byte   W48
        .byte           N24   , Cn5
        .byte   W24
        .byte                   Gn4
        .byte   W24
        .byte   PEND
@ 031   ----------------------------------------
        .byte           N48   , Dn5
        .byte   W48
        .byte                   Cn5
        .byte   W48
@ 032   ----------------------------------------
        .byte   PATT
         .word  Redial_Sme_3_30
@ 033   ----------------------------------------
        .byte           N48   , Dn5 , v127
        .byte   W48
        .byte           N24   , Cn5
        .byte   W24
        .byte                   As4
        .byte   W24
@ 034   ----------------------------------------
        .byte           N48   , An4
        .byte   W48
        .byte           N24   , Gn4
        .byte   W24
        .byte                   As4
        .byte   W24
@ 035   ----------------------------------------
        .byte           N96   , An4
        .byte   W96
@ 036   ----------------------------------------
        .byte   GOTO
         .word  Redial_Sme_3_LOOP
        .byte   FINE

@****************** Track 4 (Midi-Chn.4) ******************@

Redial_Sme_4:
        .byte   KEYSH , Redial_Sme_key+0
@ 000   ----------------------------------------
        .byte           VOICE , 123
        .byte           VOL   , 42
        .byte           N24   , Cn2 , v127
        .byte   W24
        .byte           N12   , Cs1
        .byte   W12
        .byte           N06   , Fs1
        .byte   W06
        .byte                   Cs1
        .byte   W06
        .byte                   Fs1
        .byte   W06
        .byte                   Cs1
        .byte   W06
        .byte           N12   , Cn2
        .byte   W12
        .byte                   Cs1
        .byte   W24
@ 001   ----------------------------------------
Redial_Sme_4_1:
        .byte           N24   , Cn2 , v127
        .byte   W24
        .byte           N12   , Cs1
        .byte   W12
        .byte           N06   , Fs1
        .byte   W06
        .byte                   Cs1
        .byte   W06
        .byte                   Fs1
        .byte   W06
        .byte                   Cs1
        .byte   W06
        .byte           N12   , Cn2
        .byte   W12
        .byte                   Cs1
        .byte   W12
        .byte           N06   , Fs1
        .byte   W06
        .byte                   Cs1
        .byte   W06
        .byte   PEND
@ 002   ----------------------------------------
        .byte   PATT
         .word  Redial_Sme_4_1
@ 003   ----------------------------------------
Redial_Sme_4_3:
        .byte           N12   , Cn2 , v127
        .byte   W12
        .byte                   Cs1
        .byte   W12
        .byte           N06   , Fs1
        .byte   W06
        .byte                   Cs1
        .byte   W06
        .byte           N12   , Cn2
        .byte   W12
        .byte                   Cs1
        .byte   W12
        .byte           N06   , Fs1
        .byte   W06
        .byte                   Cs1
        .byte   W06
        .byte           N12   , Cn2
        .byte   W12
        .byte                   Cs1
        .byte   W12
        .byte   PEND
@ 004   ----------------------------------------
Redial_Sme_4_LOOP:
        .byte           N24   , Cn2 , v127
        .byte   W24
        .byte           N12   , Cs1
        .byte   W12
        .byte           N06   , Fs1
        .byte   W06
        .byte                   Cs1
        .byte   W06
        .byte                   Fs1
        .byte   W06
        .byte                   Cs1
        .byte   W06
        .byte           N12   , Cn2
        .byte   W12
        .byte                   Cs1
        .byte   W24
@ 005   ----------------------------------------
        .byte   PATT
         .word  Redial_Sme_4_1
@ 006   ----------------------------------------
Redial_Sme_4_6:
        .byte           N24   , Cn2 , v127
        .byte   W24
        .byte           N12   , Cs1
        .byte   W12
        .byte           N06   , Fs1
        .byte   W06
        .byte                   Cs1
        .byte   W06
        .byte                   Fs1
        .byte   W06
        .byte                   Cs1
        .byte   W06
        .byte           N12   , Cn2
        .byte   W12
        .byte                   Cs1
        .byte   W24
        .byte   PEND
@ 007   ----------------------------------------
        .byte   PATT
         .word  Redial_Sme_4_1
@ 008   ----------------------------------------
        .byte   PATT
         .word  Redial_Sme_4_6
@ 009   ----------------------------------------
        .byte   PATT
         .word  Redial_Sme_4_1
@ 010   ----------------------------------------
        .byte   PATT
         .word  Redial_Sme_4_1
@ 011   ----------------------------------------
        .byte   PATT
         .word  Redial_Sme_4_3
@ 012   ----------------------------------------
        .byte   PATT
         .word  Redial_Sme_4_6
@ 013   ----------------------------------------
        .byte   PATT
         .word  Redial_Sme_4_1
@ 014   ----------------------------------------
        .byte   PATT
         .word  Redial_Sme_4_6
@ 015   ----------------------------------------
        .byte   PATT
         .word  Redial_Sme_4_1
@ 016   ----------------------------------------
        .byte   PATT
         .word  Redial_Sme_4_6
@ 017   ----------------------------------------
        .byte   PATT
         .word  Redial_Sme_4_1
@ 018   ----------------------------------------
        .byte   PATT
         .word  Redial_Sme_4_1
@ 019   ----------------------------------------
        .byte   PATT
         .word  Redial_Sme_4_3
@ 020   ----------------------------------------
        .byte   PATT
         .word  Redial_Sme_4_6
@ 021   ----------------------------------------
        .byte   PATT
         .word  Redial_Sme_4_1
@ 022   ----------------------------------------
        .byte   PATT
         .word  Redial_Sme_4_6
@ 023   ----------------------------------------
        .byte   PATT
         .word  Redial_Sme_4_1
@ 024   ----------------------------------------
        .byte   PATT
         .word  Redial_Sme_4_6
@ 025   ----------------------------------------
        .byte   PATT
         .word  Redial_Sme_4_1
@ 026   ----------------------------------------
        .byte   PATT
         .word  Redial_Sme_4_1
@ 027   ----------------------------------------
        .byte   PATT
         .word  Redial_Sme_4_3
@ 028   ----------------------------------------
        .byte   PATT
         .word  Redial_Sme_4_6
@ 029   ----------------------------------------
        .byte   PATT
         .word  Redial_Sme_4_1
@ 030   ----------------------------------------
        .byte   PATT
         .word  Redial_Sme_4_6
@ 031   ----------------------------------------
        .byte   PATT
         .word  Redial_Sme_4_1
@ 032   ----------------------------------------
        .byte   PATT
         .word  Redial_Sme_4_6
@ 033   ----------------------------------------
        .byte   PATT
         .word  Redial_Sme_4_1
@ 034   ----------------------------------------
        .byte   PATT
         .word  Redial_Sme_4_1
@ 035   ----------------------------------------
        .byte   PATT
         .word  Redial_Sme_4_3
@ 036   ----------------------------------------
        .byte   GOTO
         .word  Redial_Sme_4_LOOP
        .byte   FINE

@****************** Track 5 (Midi-Chn.5) ******************@

Redial_Sme_5:
        .byte   KEYSH , Redial_Sme_key+0
@ 000   ----------------------------------------
        .byte           VOICE , 127
        .byte           VOL   , 28
        .byte           N12   , Fs1 , v127
        .byte   W12
        .byte                   Fs1
        .byte   W12
        .byte                   Fs1
        .byte   W12
        .byte                   Fs1
        .byte   W12
        .byte                   Fs1
        .byte   W12
        .byte                   Fs1
        .byte   W12
        .byte                   Fs1
        .byte   W12
        .byte                   Fs1
        .byte   W12
@ 001   ----------------------------------------
Redial_Sme_5_1:
        .byte           N12   , Fs1 , v127
        .byte   W12
        .byte                   Fs1
        .byte   W12
        .byte                   Fs1
        .byte   W12
        .byte                   Fs1
        .byte   W12
        .byte                   Fs1
        .byte   W12
        .byte                   Fs1
        .byte   W12
        .byte                   Fs1
        .byte   W12
        .byte                   Fs1
        .byte   W12
        .byte   PEND
@ 002   ----------------------------------------
        .byte   PATT
         .word  Redial_Sme_5_1
@ 003   ----------------------------------------
        .byte   PATT
         .word  Redial_Sme_5_1
@ 004   ----------------------------------------
Redial_Sme_5_LOOP:
        .byte           N12   , Fs1 , v127
        .byte   W12
        .byte                   Fs1
        .byte   W12
        .byte                   Fs1
        .byte   W12
        .byte                   Fs1
        .byte   W12
        .byte                   Fs1
        .byte   W12
        .byte                   Fs1
        .byte   W12
        .byte                   Fs1
        .byte   W12
        .byte                   Fs1
        .byte   W12
@ 005   ----------------------------------------
        .byte   PATT
         .word  Redial_Sme_5_1
@ 006   ----------------------------------------
        .byte   PATT
         .word  Redial_Sme_5_1
@ 007   ----------------------------------------
        .byte   PATT
         .word  Redial_Sme_5_1
@ 008   ----------------------------------------
        .byte   PATT
         .word  Redial_Sme_5_1
@ 009   ----------------------------------------
        .byte   PATT
         .word  Redial_Sme_5_1
@ 010   ----------------------------------------
        .byte   PATT
         .word  Redial_Sme_5_1
@ 011   ----------------------------------------
        .byte   PATT
         .word  Redial_Sme_5_1
@ 012   ----------------------------------------
        .byte   PATT
         .word  Redial_Sme_5_1
@ 013   ----------------------------------------
        .byte   PATT
         .word  Redial_Sme_5_1
@ 014   ----------------------------------------
        .byte   PATT
         .word  Redial_Sme_5_1
@ 015   ----------------------------------------
        .byte   PATT
         .word  Redial_Sme_5_1
@ 016   ----------------------------------------
        .byte   PATT
         .word  Redial_Sme_5_1
@ 017   ----------------------------------------
        .byte   PATT
         .word  Redial_Sme_5_1
@ 018   ----------------------------------------
        .byte   PATT
         .word  Redial_Sme_5_1
@ 019   ----------------------------------------
        .byte   PATT
         .word  Redial_Sme_5_1
@ 020   ----------------------------------------
        .byte   PATT
         .word  Redial_Sme_5_1
@ 021   ----------------------------------------
        .byte   PATT
         .word  Redial_Sme_5_1
@ 022   ----------------------------------------
        .byte   PATT
         .word  Redial_Sme_5_1
@ 023   ----------------------------------------
        .byte   PATT
         .word  Redial_Sme_5_1
@ 024   ----------------------------------------
        .byte   PATT
         .word  Redial_Sme_5_1
@ 025   ----------------------------------------
        .byte   PATT
         .word  Redial_Sme_5_1
@ 026   ----------------------------------------
        .byte   PATT
         .word  Redial_Sme_5_1
@ 027   ----------------------------------------
        .byte   PATT
         .word  Redial_Sme_5_1
@ 028   ----------------------------------------
        .byte   PATT
         .word  Redial_Sme_5_1
@ 029   ----------------------------------------
        .byte   PATT
         .word  Redial_Sme_5_1
@ 030   ----------------------------------------
        .byte   PATT
         .word  Redial_Sme_5_1
@ 031   ----------------------------------------
        .byte   PATT
         .word  Redial_Sme_5_1
@ 032   ----------------------------------------
        .byte   PATT
         .word  Redial_Sme_5_1
@ 033   ----------------------------------------
        .byte   PATT
         .word  Redial_Sme_5_1
@ 034   ----------------------------------------
        .byte   PATT
         .word  Redial_Sme_5_1
@ 035   ----------------------------------------
        .byte   PATT
         .word  Redial_Sme_5_1
@ 036   ----------------------------------------
        .byte   GOTO
         .word  Redial_Sme_5_LOOP
        .byte   FINE

@****************** Track 6 (Midi-Chn.6) ******************@

Redial_Sme_6:
        .byte   KEYSH , Redial_Sme_key+0
@ 000   ----------------------------------------
        .byte           VOICE , 40
        .byte           VOL   , 30
        .byte   W96
@ 001   ----------------------------------------
        .byte   W96
@ 002   ----------------------------------------
        .byte   W96
@ 003   ----------------------------------------
        .byte   W96
@ 004   ----------------------------------------
Redial_Sme_6_LOOP:
        .byte           N92   , Fn2 , v080
        .byte           N92   , An2 , v088
        .byte   W01
        .byte                   Cn3 , v084
        .byte   W01
        .byte                   En3
        .byte   W92
        .byte   W02
@ 005   ----------------------------------------
Redial_Sme_6_5:
        .byte           N42   , Dn2 , v084
        .byte   W01
        .byte           N44   , Fn2
        .byte           N44   , An2 , v088
        .byte   W01
        .byte                   Cn3 , v084
        .byte   W44
        .byte   W03
        .byte                   En2 , v076
        .byte   W01
        .byte                   Gn2 , v084
        .byte   W01
        .byte           N42   , Bn2 , v088
        .byte   W01
        .byte                   Dn3 , v084
        .byte   W44
        .byte   PEND
@ 006   ----------------------------------------
Redial_Sme_6_6:
        .byte           N92   , Fn2 , v080
        .byte           N92   , An2 , v088
        .byte   W01
        .byte                   Cn3 , v084
        .byte   W01
        .byte                   En3
        .byte   W92
        .byte   W02
        .byte   PEND
@ 007   ----------------------------------------
        .byte   PATT
         .word  Redial_Sme_6_5
@ 008   ----------------------------------------
        .byte   PATT
         .word  Redial_Sme_6_6
@ 009   ----------------------------------------
        .byte   PATT
         .word  Redial_Sme_6_5
@ 010   ----------------------------------------
        .byte   PATT
         .word  Redial_Sme_6_6
@ 011   ----------------------------------------
        .byte   PATT
         .word  Redial_Sme_6_5
@ 012   ----------------------------------------
        .byte   PATT
         .word  Redial_Sme_6_6
@ 013   ----------------------------------------
        .byte   PATT
         .word  Redial_Sme_6_5
@ 014   ----------------------------------------
        .byte   PATT
         .word  Redial_Sme_6_6
@ 015   ----------------------------------------
        .byte   PATT
         .word  Redial_Sme_6_5
@ 016   ----------------------------------------
        .byte   PATT
         .word  Redial_Sme_6_6
@ 017   ----------------------------------------
        .byte   PATT
         .word  Redial_Sme_6_5
@ 018   ----------------------------------------
        .byte   PATT
         .word  Redial_Sme_6_6
@ 019   ----------------------------------------
        .byte   PATT
         .word  Redial_Sme_6_5
@ 020   ----------------------------------------
        .byte   W96
@ 021   ----------------------------------------
        .byte   W96
@ 022   ----------------------------------------
        .byte   W96
@ 023   ----------------------------------------
        .byte   W96
@ 024   ----------------------------------------
        .byte   W96
@ 025   ----------------------------------------
        .byte   W96
@ 026   ----------------------------------------
        .byte   W96
@ 027   ----------------------------------------
        .byte   W96
@ 028   ----------------------------------------
        .byte   W96
@ 029   ----------------------------------------
        .byte   W96
@ 030   ----------------------------------------
        .byte   W96
@ 031   ----------------------------------------
        .byte   W96
@ 032   ----------------------------------------
        .byte   W96
@ 033   ----------------------------------------
        .byte   W96
@ 034   ----------------------------------------
        .byte   W96
@ 035   ----------------------------------------
        .byte   W96
@ 036   ----------------------------------------
        .byte   GOTO
         .word  Redial_Sme_6_LOOP
        .byte   FINE

@****************** Track 7 (Midi-Chn.7) ******************@

Redial_Sme_7:
        .byte   KEYSH , Redial_Sme_key+0
@ 000   ----------------------------------------
        .byte           VOICE , 34
        .byte           VOL   , 35
        .byte   W96
@ 001   ----------------------------------------
        .byte   W96
@ 002   ----------------------------------------
        .byte   W96
@ 003   ----------------------------------------
        .byte   W96
@ 004   ----------------------------------------
Redial_Sme_7_LOOP:
        .byte           N11   , Cn2 , v096
        .byte   W12
        .byte                   Fn2
        .byte   W24
        .byte                   Cn2
        .byte   W12
        .byte           N23   , Fn2
        .byte   W24
        .byte           N32   , Cn2
        .byte   W24
@ 005   ----------------------------------------
Redial_Sme_7_5:
        .byte   W12
        .byte           N07   , Fn2 , v096
        .byte   W24
        .byte           N11   , Dn2
        .byte   W12
        .byte           N22   , Fn2
        .byte   W24
        .byte   W03
        .byte           N20   , Gn1 , v120
        .byte   W21
        .byte   PEND
@ 006   ----------------------------------------
Redial_Sme_7_6:
        .byte           N11   , Cn2 , v096
        .byte   W12
        .byte                   Fn2
        .byte   W24
        .byte                   Cn2
        .byte   W12
        .byte           N23   , Fn2
        .byte   W24
        .byte           N32   , Cn2
        .byte   W24
        .byte   PEND
@ 007   ----------------------------------------
        .byte   PATT
         .word  Redial_Sme_7_5
@ 008   ----------------------------------------
        .byte   PATT
         .word  Redial_Sme_7_6
@ 009   ----------------------------------------
        .byte   PATT
         .word  Redial_Sme_7_5
@ 010   ----------------------------------------
        .byte   PATT
         .word  Redial_Sme_7_6
@ 011   ----------------------------------------
        .byte   PATT
         .word  Redial_Sme_7_5
@ 012   ----------------------------------------
        .byte   PATT
         .word  Redial_Sme_7_6
@ 013   ----------------------------------------
        .byte   PATT
         .word  Redial_Sme_7_5
@ 014   ----------------------------------------
        .byte   PATT
         .word  Redial_Sme_7_6
@ 015   ----------------------------------------
        .byte   PATT
         .word  Redial_Sme_7_5
@ 016   ----------------------------------------
        .byte   PATT
         .word  Redial_Sme_7_6
@ 017   ----------------------------------------
        .byte   PATT
         .word  Redial_Sme_7_5
@ 018   ----------------------------------------
        .byte   PATT
         .word  Redial_Sme_7_6
@ 019   ----------------------------------------
        .byte   PATT
         .word  Redial_Sme_7_5
@ 020   ----------------------------------------
        .byte   W96
@ 021   ----------------------------------------
        .byte   W96
@ 022   ----------------------------------------
        .byte   W96
@ 023   ----------------------------------------
        .byte   W96
@ 024   ----------------------------------------
        .byte   W96
@ 025   ----------------------------------------
        .byte   W96
@ 026   ----------------------------------------
        .byte   W96
@ 027   ----------------------------------------
        .byte   W96
@ 028   ----------------------------------------
        .byte   W96
@ 029   ----------------------------------------
        .byte   W96
@ 030   ----------------------------------------
        .byte   W96
@ 031   ----------------------------------------
        .byte   W96
@ 032   ----------------------------------------
        .byte   W96
@ 033   ----------------------------------------
        .byte   W96
@ 034   ----------------------------------------
        .byte   W96
@ 035   ----------------------------------------
        .byte   W96
@ 036   ----------------------------------------
        .byte   GOTO
         .word  Redial_Sme_7_LOOP
        .byte   FINE

@****************** Track 8 (Midi-Chn.8) ******************@

Redial_Sme_8:
        .byte   KEYSH , Redial_Sme_key+0
@ 000   ----------------------------------------
        .byte           VOICE , 60
        .byte           VOL   , 40
        .byte   W96
@ 001   ----------------------------------------
        .byte   W96
@ 002   ----------------------------------------
        .byte   W96
@ 003   ----------------------------------------
        .byte   W96
@ 004   ----------------------------------------
Redial_Sme_8_LOOP:
        .byte   W96
@ 005   ----------------------------------------
        .byte   W96
@ 006   ----------------------------------------
        .byte   W96
@ 007   ----------------------------------------
        .byte   W96
@ 008   ----------------------------------------
        .byte   W96
@ 009   ----------------------------------------
        .byte   W96
@ 010   ----------------------------------------
        .byte   W96
@ 011   ----------------------------------------
        .byte   W96
@ 012   ----------------------------------------
        .byte   W96
@ 013   ----------------------------------------
        .byte   W96
@ 014   ----------------------------------------
        .byte   W96
@ 015   ----------------------------------------
        .byte   W96
@ 016   ----------------------------------------
        .byte   W96
@ 017   ----------------------------------------
        .byte   W96
@ 018   ----------------------------------------
        .byte   W96
@ 019   ----------------------------------------
        .byte   W96
@ 020   ----------------------------------------
        .byte           TIE   , An2 , v088
        .byte   W96
@ 021   ----------------------------------------
        .byte   W92
        .byte   W03
        .byte           EOT
        .byte   W01
@ 022   ----------------------------------------
        .byte           TIE   , Gn2 , v092
        .byte   W96
@ 023   ----------------------------------------
        .byte   W92
        .byte   W03
        .byte           EOT
        .byte   W01
@ 024   ----------------------------------------
        .byte           TIE
        .byte   W96
@ 025   ----------------------------------------
        .byte   W92
        .byte   W03
        .byte           EOT
        .byte   W01
@ 026   ----------------------------------------
        .byte           N92   , As2
        .byte   W96
@ 027   ----------------------------------------
        .byte                   An2 , v084
        .byte   W96
@ 028   ----------------------------------------
        .byte           TIE   , An2 , v088
        .byte   W96
@ 029   ----------------------------------------
        .byte   W92
        .byte   W03
        .byte           EOT
        .byte   W01
@ 030   ----------------------------------------
        .byte           TIE   , Gn2 , v092
        .byte   W96
@ 031   ----------------------------------------
        .byte   W92
        .byte   W03
        .byte           EOT
        .byte   W01
@ 032   ----------------------------------------
        .byte           TIE
        .byte   W96
@ 033   ----------------------------------------
        .byte   W92
        .byte   W03
        .byte           EOT
        .byte   W01
@ 034   ----------------------------------------
        .byte           N92   , As2 , v076
        .byte   W96
@ 035   ----------------------------------------
        .byte                   An2 , v084
        .byte   W96
@ 036   ----------------------------------------
        .byte   GOTO
         .word  Redial_Sme_8_LOOP
        .byte   FINE


@********************** End of Song ***********************@

        .align  2
Redial_Sme:
        .byte   9                       @ Num Tracks
        .byte   0                       @ Unknown
        .byte   Redial_Sme_pri          @ Priority
        .byte   Redial_Sme_rev          @ Reverb

        .word   Redial_Sme_grp         

        .word   Redial_Sme_0
        .word   Redial_Sme_1
        .word   Redial_Sme_2
        .word   Redial_Sme_3
        .word   Redial_Sme_4
        .word   Redial_Sme_5
        .word   Redial_Sme_6
        .word   Redial_Sme_7
        .word   Redial_Sme_8

        .end
